<?xml version="1.0" encoding="UTF-8"?>
<svg width="100px" height="100px" viewBox="0 0 100 100" version="1.1" xmlns="http://www.w3.org/2000/svg" xmlns:xlink="http://www.w3.org/1999/xlink">
    <!-- Generator: Sketch 55.2 (78181) - https://sketchapp.com -->
    <title>Extending the Power Platform user experience Model Driven apps/client-scripting-model-driven-apps-part-1</title>
    <desc>Created with Sketch.</desc>
    <defs>
        <rect id="path-1" x="0" y="0" width="96" height="96" rx="48"></rect>
        <filter x="-7.3%" y="-9.3%" width="114.5%" height="118.6%" filterUnits="objectBoundingBox" id="filter-3">
            <feOffset dx="0" dy="2" in="SourceAlpha" result="shadowOffsetOuter1"></feOffset>
            <feColorMatrix values="0 0 0 0 0   0 0 0 0 0   0 0 0 0 0  0 0 0 0.0982223732 0" type="matrix" in="shadowOffsetOuter1" result="shadowMatrixOuter1"></feColorMatrix>
            <feMerge>
                <feMergeNode in="shadowMatrixOuter1"></feMergeNode>
                <feMergeNode in="SourceGraphic"></feMergeNode>
            </feMerge>
        </filter>
        <rect id="path-4" x="0.804752219" y="0" width="38" height="32" rx="8"></rect>
        <filter x="-13.1%" y="-12.2%" width="123.6%" height="122.0%" filterUnits="objectBoundingBox" id="filter-6">
            <feOffset dx="0" dy="2" in="SourceAlpha" result="shadowOffsetOuter1"></feOffset>
            <feColorMatrix values="0 0 0 0 0   0 0 0 0 0   0 0 0 0 0  0 0 0 0.099071558 0" type="matrix" in="shadowOffsetOuter1" result="shadowMatrixOuter1"></feColorMatrix>
            <feMerge>
                <feMergeNode in="shadowMatrixOuter1"></feMergeNode>
                <feMergeNode in="SourceGraphic"></feMergeNode>
            </feMerge>
        </filter>
    </defs>
    <g id="Badges" stroke="none" stroke-width="1" fill="none" fill-rule="evenodd">
        <g id="Extending-the-Power-Platform-user-experience-Model-Driven-apps" transform="translate(-50.000000, -460.000000)">
            <g id="Extending-the-Power-Platform-user-experience-Model-Driven-apps/client-scripting-model-driven-apps-part-1" transform="translate(50.000000, 460.000000)">
                <g id="Mask" transform="translate(2.000000, 2.000000)">
                    <mask id="mask-2" fill="white">
                        <use xlink:href="#path-1"></use>
                    </mask>
                    <use id="BG" fill="#55A2FF" xlink:href="#path-1"></use>
                    <g id="Browser" filter="url(#filter-3)" mask="url(#mask-2)">
                        <g transform="translate(20.000000, 23.000000)">
                            <path d="M3.79807692,43 C1.94182692,43 0.423076923,41.5666667 0.423076923,39.8148148 L0.423076923,3.18518519 C0.423076923,1.43333333 1.94182692,0 3.79807692,0 L51.0480769,0 C52.9043269,0 54.4230769,1.43333333 54.4230769,3.18518519 L54.4230769,39.8148148 C54.4230769,41.5666667 52.9043269,43 51.0480769,43 L3.79807692,43" id="Fill-1485" fill="#30404D"></path>
                            <path d="M3.42307692,38.3809524 L3.42307692,7.61904762 C3.42307692,6.72857143 4.16790451,6 5.07824934,6 L49.7679045,6 C50.6782493,6 51.4230769,6.72857143 51.4230769,7.61904762 L51.4230769,38.3809524 C51.4230769,39.2714286 50.6782493,40 49.7679045,40 L5.07824934,40 C4.16790451,40 3.42307692,39.2714286 3.42307692,38.3809524 Z" id="Fill-1486" fill="#E1E4E1"></path>
                            <path d="M4.42307692,3 C4.42307692,2.44733333 4.87107692,2 5.42307692,2 C5.97574359,2 6.42307692,2.44733333 6.42307692,3 C6.42307692,3.552 5.97574359,4 5.42307692,4 C4.87107692,4 4.42307692,3.552 4.42307692,3" id="Fill-1487" fill="#DF5142"></path>
                            <path d="M7.42307692,3 C7.42307692,2.44733333 7.87107692,2 8.42307692,2 C8.97574359,2 9.42307692,2.44733333 9.42307692,3 C9.42307692,3.552 8.97574359,4 8.42307692,4 C7.87107692,4 7.42307692,3.552 7.42307692,3" id="Fill-1488" fill="#EFB252"></path>
                            <path d="M10.4230769,3 C10.4230769,2.44733333 10.8710769,2 11.4230769,2 C11.9757436,2 12.4230769,2.44733333 12.4230769,3 C12.4230769,3.552 11.9757436,4 11.4230769,4 C10.8710769,4 10.4230769,3.552 10.4230769,3" id="Fill-1489" fill="#7CB65A"></path>
                            <path d="M50.1663202,4 L21.6798337,4 C20.986104,4 20.4230769,3.552 20.4230769,3 C20.4230769,2.448 20.986104,2 21.6798337,2 L50.1663202,2 C50.8600499,2 51.4230769,2.448 51.4230769,3 C51.4230769,3.552 50.8600499,4 50.1663202,4" id="Fill-1490" fill="#697D85"></path>
                        </g>
                    </g>
                    <g id="Group-2" mask="url(#mask-2)">
                        <g transform="translate(27.195248, 30.000000)">
                            <mask id="mask-5" fill="white">
                                <use xlink:href="#path-4"></use>
                            </mask>
                            <g id="Rectangle-10" stroke="none" fill="none" fill-rule="nonzero"></g>
                            <path d="M35.8047522,4 C37.4706291,4 38.8030228,5.35606795 38.8047522,7.00064299 C38.8047522,8.64398798 37.4719542,10 35.8047522,10 C34.1375503,10 32.8047522,8.64398798 32.8047522,7.00064299 C32.8047522,5.35623853 34.1373149,4 35.8047522,4 Z M35.8047522,8.50683361 C36.505104,8.50683361 37.1143463,7.84561406 37.1155409,7.00067596 C37.1155409,6.15497997 36.5057376,5.49323233 35.8047522,5.49323233 C35.1033226,5.49323233 34.4939636,6.15518816 34.4939636,7.00067596 C34.4939636,7.84585342 35.1029862,8.50683361 35.8047522,8.50683361 Z" id="Fill-8" stroke="none" fill="#30404D" fill-rule="nonzero" mask="url(#mask-5)"></path>
                            <path d="M29.8047522,4 C30.3520431,4 30.8047522,4.32999089 30.8047522,4.74675973 L30.8047522,9.25324027 C30.8047522,9.66982774 30.3505689,10 29.8047522,10 C29.2589355,10 28.8047522,9.66982774 28.8047522,9.25324027 L28.8047522,4.74675973 C28.8047522,4.33017226 29.2589355,4 29.8047522,4 Z" id="Fill-9" stroke="none" fill="#30404D" fill-rule="nonzero" mask="url(#mask-5)"></path>
                            <path d="M23.8047522,4 C25.4716546,4 26.8030223,5.35557452 26.8047522,7.00064299 C26.8047522,8.64398798 25.4719542,10 23.8047522,10 C22.1375503,10 20.8047522,8.64398798 20.8047522,7.00064299 C20.8047522,5.35623853 22.1373149,4 23.8047522,4 Z M23.8047522,8.50683361 C24.505104,8.50683361 25.1143463,7.84561406 25.1155409,7.00067596 C25.1155409,6.15497997 24.5057376,5.49323233 23.8047522,5.49323233 C23.1033226,5.49323233 22.4939636,6.15518816 22.4939636,7.00067596 C22.4939636,7.84585342 23.1029862,8.50683361 23.8047522,8.50683361 Z" id="Fill-10" stroke="none" fill="#30404D" fill-rule="nonzero" mask="url(#mask-5)"></path>
                            <path d="M18.8047522,9.25324027 C18.8047522,9.67000911 18.3520431,10 17.8047522,10 C17.2589355,10 16.8047522,9.66982774 16.8047522,9.25324027 L16.8047522,4.74675973 C16.8047522,4.33017226 17.2589355,4 17.8047522,4 C18.3505689,4 18.8047522,4.33017226 18.8047522,4.74675973 L18.8047522,9.25324027 Z" id="Fill-11" stroke="none" fill="#30404D" fill-rule="nonzero" mask="url(#mask-5)"></path>
                            <path d="M13.8047522,10 C13.2574613,10 12.8047522,9.67000911 12.8047522,9.25324027 L12.8047522,4.74675973 C12.8047522,4.33017226 13.2589355,4 13.8047522,4 C14.3505689,4 14.8047522,4.33017226 14.8047522,4.74675973 L14.8047522,9.25324027 C14.8047522,9.66982774 14.3505689,10 13.8047522,10 Z" id="Fill-12" stroke="none" fill="#30404D" fill-rule="nonzero" mask="url(#mask-5)"></path>
                            <path d="M9.80475222,4 C10.3520431,4 10.8047522,4.32999089 10.8047522,4.74675973 L10.8047522,9.25324027 C10.8047522,9.66982774 10.3505689,10 9.80475222,10 C9.25893551,10 8.80475222,9.66982774 8.80475222,9.25324027 L8.80475222,4.74675973 C8.80475222,4.33017226 9.25893551,4 9.80475222,4 Z" id="Fill-13" stroke="none" fill="#30404D" fill-rule="nonzero" mask="url(#mask-5)"></path>
                            <path d="M4.80549961,4 C6.4721359,4 7.80475222,5.35650651 7.80475222,7.00064299 C7.80475222,8.6442128 6.47292641,10 4.80549961,10 C3.1378823,10 1.80475222,8.64398798 1.80475222,7.00064299 C1.80475222,5.35623853 3.13764689,4 4.80549961,4 Z M4.80549961,8.50683361 C5.50610699,8.50683361 6.11512005,7.84564355 6.11512005,7.00067596 C6.11512005,6.15458885 5.50623472,5.49323233 4.80549961,5.49323233 C4.10389526,5.49323233 3.49438439,6.15518816 3.49438439,7.00067596 C3.49438439,7.84585342 4.10355878,8.50683361 4.80549961,8.50683361 Z" id="Fill-14" stroke="none" fill="#30404D" fill-rule="nonzero" mask="url(#mask-5)"></path>
                        </g>
                    </g>
                    <g id="Database" filter="url(#filter-6)" mask="url(#mask-2)">
                        <g transform="translate(29.538462, 42.000000)">
                            <path d="M36.8846154,34 C36.8846154,37.8671111 28.6020112,41 18.3846154,41 C8.16799038,41 -0.115384615,37.8671111 -0.115384615,34 C-0.115384615,30.1328889 8.16799038,27 18.3846154,27 C28.6020112,27 36.8846154,30.1328889 36.8846154,34" id="Shadow" fill-opacity="0.102807971" fill="#000000"></path>
                            <g id="Lower" stroke-width="1" fill="none" transform="translate(3.884615, 19.000000)">
                                <path d="M13.679402,9.85527243 C6.38792693,9.85527243 0.47618776,7.63808068 0.47618776,4.90126903 L0.47618776,11.5066069 C0.47618776,14.2434185 6.38792693,16.4606103 13.679402,16.4606103 C20.9714272,16.4606103 26.8826162,14.2434185 26.8826162,11.5066069 L26.8826162,4.90126903 C26.8826162,7.63808068 20.9714272,9.85527243 13.679402,9.85527243" id="Fill-101" fill="#E1E4E1"></path>
                                <path d="M13.679402,12.038887 L13.679402,14.239015 C13.679402,14.8637699 13.1595254,15.361372 12.5356736,15.341556 C5.77947881,15.1241303 0.47618776,12.9977619 0.47618776,10.4057172 L0.47618776,11.5066069 C0.47618776,14.2434185 6.38792693,16.4606103 13.679402,16.4606103 C20.9714272,16.4606103 26.8826162,14.2434185 26.8826162,11.5066069 L26.8826162,6.00215867 C26.8826162,8.60521223 21.5358646,10.7381859 14.7389599,10.9401992 C14.1481161,10.9578134 13.679402,11.4471589 13.679402,12.038887" id="Fill-106" fill="#D3DAD8"></path>
                                <path d="M26.8116279,4.95833333 C26.8116279,7.69753704 20.9322209,9.91666667 13.679402,9.91666667 C6.42713023,9.91666667 0.54717608,7.69753704 0.54717608,4.95833333 C0.54717608,2.21912963 6.42713023,0 13.679402,0 C20.9322209,0 26.8116279,2.21912963 26.8116279,4.95833333" id="Fill-100" stroke="#E1E4E1" stroke-width="0.25" fill="#BAC0C2"></path>
                            </g>
                            <g id="Mid" stroke-width="1" fill="none" transform="translate(3.884615, 10.000000)">
                                <path d="M13.679402,9.86345119 C6.38792693,9.86345119 0.47618776,7.64625945 0.47618776,4.90944779 L0.47618776,11.5147857 C0.47618776,14.2515973 6.38792693,16.4687891 13.679402,16.4687891 C20.9714272,16.4687891 26.8826162,14.2515973 26.8826162,11.5147857 L26.8826162,4.90944779 C26.8826162,7.64625945 20.9714272,9.86345119 13.679402,9.86345119" id="Fill-102" fill="#E1E4E1"></path>
                                <path d="M13.679402,12.0470658 L13.679402,14.2471938 C13.679402,14.8719486 13.1595254,15.3695507 12.5356736,15.3497347 C5.77947881,15.132309 0.47618776,13.0059407 0.47618776,10.413896 L0.47618776,11.5147857 C0.47618776,14.2515973 6.38792693,16.4687891 13.679402,16.4687891 C20.9714272,16.4687891 26.8826162,14.2515973 26.8826162,11.5147857 L26.8826162,6.01033744 C26.8826162,8.613391 21.5358646,10.7463647 14.7389599,10.9483779 C14.1481161,10.9659922 13.679402,11.4553376 13.679402,12.0470658" id="Fill-107" fill="#D3DAD8"></path>
                                <path d="M26.8116279,4.95833333 C26.8116279,7.69753704 20.9322209,9.91666667 13.679402,9.91666667 C6.42713023,9.91666667 0.54717608,7.69753704 0.54717608,4.95833333 C0.54717608,2.21912963 6.42713023,0 13.679402,0 C20.9322209,0 26.8116279,2.21912963 26.8116279,4.95833333" id="Fill-103" stroke="#E1E4E1" stroke-width="0.25" fill="#BAC0C2"></path>
                            </g>
                            <g id="Top" stroke-width="1" fill="none" transform="translate(3.884615, 0.000000)">
                                <path d="M13.679402,9.87162996 C6.38792693,9.87162996 0.47618776,7.65443822 0.47618776,4.91762656 L0.47618776,11.5229644 C0.47618776,14.2597761 6.38792693,16.4769678 13.679402,16.4769678 C20.9714272,16.4769678 26.8826162,14.2597761 26.8826162,11.5229644 L26.8826162,4.91762656 C26.8826162,7.65443822 20.9714272,9.87162996 13.679402,9.87162996" id="Fill-104" fill="#E1E4E1"></path>
                                <path d="M13.679402,12.0552446 L13.679402,14.2553725 C13.679402,14.8801274 13.1595254,15.3777295 12.5356736,15.3579135 C5.77947881,15.1404878 0.47618776,13.0141194 0.47618776,10.4220748 L0.47618776,11.5229644 C0.47618776,14.2597761 6.38792693,16.4769678 13.679402,16.4769678 C20.9714272,16.4769678 26.8826162,14.2597761 26.8826162,11.5229644 L26.8826162,6.01851621 C26.8826162,8.62156977 21.5358646,10.7545435 14.7389599,10.9565567 C14.1481161,10.9741709 13.679402,11.4635164 13.679402,12.0552446" id="Fill-108" fill="#D3DAD8"></path>
                                <path d="M26.2917237,4.95833333 C26.2917237,7.69753704 20.6450822,9.91666667 13.679402,9.91666667 C6.71424732,9.91666667 1.06708026,7.69753704 1.06708026,4.95833333 C1.06708026,2.21912963 6.71424732,0 13.679402,0 C20.6450822,0 26.2917237,2.21912963 26.2917237,4.95833333" id="Fill-105" stroke="#E1E4E1" fill="#C4CBCD"></path>
                            </g>
                        </g>
                    </g>
                </g>
                <g id="Azure-Border" stroke="#0078D4" stroke-width="4">
                    <rect x="2" y="2" width="96" height="96" rx="48"></rect>
                </g>
            </g>
        </g>
    </g>
</svg>