<svg width="102" height="103" viewBox="0 0 102 103" fill="none" xmlns="http://www.w3.org/2000/svg">
<path d="M50.9999 98.2309C25.4033 98.2309 4.6488 77.4863 4.6488 51.8798C4.6488 26.2734 25.4033 5.52875 50.9999 5.52875C76.5964 5.52875 97.351 26.2833 97.351 51.8798C97.351 77.4764 76.5964 98.2309 50.9999 98.2309Z" fill="url(#paint0_linear_2141_1862)"/>
<path fill-rule="evenodd" clip-rule="evenodd" d="M96.4501 51.8802C96.4501 76.9817 76.1016 97.3302 51.0001 97.3302C25.8987 97.3302 5.55013 76.9817 5.55013 51.8802C5.55013 26.7788 25.8987 6.43024 51.0001 6.43024C76.1016 6.43024 96.4501 26.7788 96.4501 51.8802ZM51.0001 2.7269C78.1513 2.7269 100.153 24.7291 100.153 51.8802C100.153 79.0314 78.1414 101.034 51.0001 101.034C23.849 101.034 1.8468 79.0215 1.8468 51.8802C1.8468 24.7291 23.849 2.7269 51.0001 2.7269Z" fill="#F2F1F0"/>
<path fill-rule="evenodd" clip-rule="evenodd" d="M93.6675 51.8798C93.6675 75.4465 74.5666 94.5474 50.9999 94.5474C27.4332 94.5474 8.33236 75.4465 8.33236 51.8798C8.33236 28.3131 27.4332 9.21227 50.9999 9.21227C74.5666 9.21227 93.6675 28.3131 93.6675 51.8798ZM50.9999 5.50893C76.6064 5.50893 97.3708 26.2733 97.3708 51.8798C97.3708 77.4863 76.6064 98.2507 50.9999 98.2507C25.3934 98.2507 4.62903 77.4863 4.62903 51.8798C4.62903 26.2733 25.3835 5.50893 50.9999 5.50893Z" fill="url(#paint1_radial_2141_1862)"/>
<g opacity="0.15">
<path opacity="0.15" d="M84.2285 74.4491L84.2285 33.6757C84.2285 32.1801 83.0161 30.9677 81.5205 30.9677L27.4362 30.9676C25.9406 30.9676 24.7282 32.1801 24.7282 33.6757L24.7282 74.4491C24.7282 75.9447 25.9406 77.1571 27.4362 77.1571L81.5205 77.1571C83.0161 77.1571 84.2285 75.9447 84.2285 74.4491Z" fill="#383838"/>
</g>
<g filter="url(#filter0_dddd_2141_1862)">
<path d="M82.6047 68.6128L82.6047 27.8394C82.6047 26.3438 81.3923 25.1313 79.8967 25.1313L25.8125 25.1313C24.3169 25.1313 23.1045 26.3438 23.1045 27.8394L23.1045 68.6128C23.1045 70.1084 24.3169 71.3208 25.8125 71.3208L79.8967 71.3208C81.3923 71.3208 82.6047 70.1084 82.6047 68.6128Z" fill="#ECECEC"/>
</g>
<g opacity="0.15">
<path opacity="0.15" d="M80.2285 70.4491L80.2285 29.6757C80.2285 28.1801 79.0161 26.9677 77.5205 26.9677L23.4362 26.9676C21.9406 26.9676 20.7282 28.1801 20.7282 29.6757L20.7282 70.4491C20.7282 71.9447 21.9406 73.1571 23.4362 73.1571L77.5205 73.1571C79.0161 73.1571 80.2285 71.9447 80.2285 70.4491Z" fill="#383838"/>
</g>
<g filter="url(#filter1_dddd_2141_1862)">
<path d="M78.7046 72.1857L78.7046 31.4123C78.7046 29.9167 77.4922 28.7043 75.9966 28.7043L21.9123 28.7043C20.4167 28.7043 19.2043 29.9167 19.2043 31.4123L19.2043 72.1857C19.2043 73.6813 20.4167 74.8937 21.9123 74.8937L75.9965 74.8937C77.4922 74.8937 78.7046 73.6813 78.7046 72.1857Z" fill="white"/>
</g>
<g filter="url(#filter2_dddd_2141_1862)">
<path d="M39.7274 32.6362H24.9954C23.8909 32.6362 22.9954 33.5317 22.9954 34.6362V36.6552H39.7274V32.6362Z" fill="#DAEDFE"/>
<rect width="16.732" height="4.01893" transform="matrix(-1 0 0 1 57.3206 32.6362)" fill="#3183F2"/>
<path d="M74.9133 34.6362C74.9133 33.5317 74.0179 32.6362 72.9133 32.6362H58.1813V36.6552H74.9133V34.6362Z" fill="#1253D5"/>
<rect width="16.732" height="4.01893" transform="matrix(-1 0 0 1 39.7274 37.5947)" fill="white"/>
<rect width="16.732" height="4.01893" transform="matrix(-1 0 0 1 57.3198 37.5947)" fill="white"/>
<rect width="16.732" height="4.01893" transform="matrix(-1 0 0 1 74.9133 37.5947)" fill="white"/>
<rect width="16.732" height="4.01893" transform="matrix(-1 0 0 1 39.7274 42.5539)" fill="white"/>
<rect width="16.732" height="4.01893" transform="matrix(-1 0 0 1 57.3198 42.5539)" fill="white"/>
<rect width="16.732" height="4.01893" transform="matrix(-1 0 0 1 74.9133 42.5539)" fill="white"/>
<rect width="16.732" height="4.01893" transform="matrix(-1 0 0 1 39.7274 47.5129)" fill="white"/>
<rect width="16.732" height="4.01893" transform="matrix(-1 0 0 1 57.3198 47.5129)" fill="white"/>
<rect width="16.732" height="4.01893" transform="matrix(-1 0 0 1 74.9133 47.5129)" fill="white"/>
<rect width="16.732" height="4.01893" transform="matrix(-1 0 0 1 39.7274 52.4719)" fill="white"/>
<rect width="16.732" height="4.01893" transform="matrix(-1 0 0 1 57.3198 52.4719)" fill="white"/>
<rect width="16.732" height="4.01893" transform="matrix(-1 0 0 1 74.9133 52.4719)" fill="white"/>
<rect width="16.732" height="4.01893" transform="matrix(-1 0 0 1 39.7275 57.4308)" fill="white"/>
<rect width="16.732" height="4.01893" transform="matrix(-1 0 0 1 57.3198 57.4308)" fill="white"/>
<rect width="16.732" height="4.01893" transform="matrix(-1 0 0 1 74.9136 57.4308)" fill="white"/>
<rect width="16.732" height="4.01893" transform="matrix(-1 0 0 1 39.7275 62.3898)" fill="white"/>
<rect width="16.732" height="4.01893" transform="matrix(-1 0 0 1 57.3198 62.3898)" fill="white"/>
<rect width="16.732" height="4.01893" transform="matrix(-1 0 0 1 74.9136 62.3898)" fill="white"/>
<path d="M39.7274 67.3485H22.9954V69.3675C22.9954 70.472 23.8909 71.3675 24.9954 71.3675H39.7274V67.3485Z" fill="white"/>
<rect width="16.732" height="4.01893" transform="matrix(-1 0 0 1 57.3198 67.3485)" fill="white"/>
<path d="M74.9133 67.3485H58.1813V71.3675H72.9133C74.0179 71.3675 74.9133 70.472 74.9133 69.3675V67.3485Z" fill="white"/>
</g>
<g filter="url(#filter3_ddddd_2141_1862)">
<rect x="16.1094" y="40.3799" width="31.4344" height="31.4344" rx="1.5" fill="white"/>
</g>
<path d="M22.5017 51.2526C20.3366 51.2526 18.4879 53.0082 18.4879 55.1733C18.4879 57.3385 20.2435 59.0941 22.4086 59.0941C24.5738 59.0941 26.3293 57.3385 26.3293 55.1733C26.3293 53.0082 24.6669 51.2526 22.5017 51.2526ZM22.4086 57.5125C21.1166 57.5125 20.0703 56.4653 20.0703 55.1743C20.0703 53.8832 21.2106 52.836 22.5017 52.836C23.7928 52.836 24.7469 53.8832 24.7469 55.1743C24.7469 56.4653 23.6997 57.5125 22.4086 57.5125Z" fill="#092D4C"/>
<path d="M41.2134 58.5002C41.7384 57.5154 42.0382 56.3918 42.0382 55.1966C42.0382 53.6654 41.5476 52.2496 40.7173 51.0935C42.3761 50.6458 43.5973 49.1313 43.5973 47.331C43.5973 45.178 41.852 43.4326 39.6989 43.4326C37.5459 43.4326 35.8006 45.178 35.8006 47.331C35.8006 47.6363 35.8369 47.9323 35.903 48.2172C35.606 48.179 35.3044 48.1576 34.9973 48.1576C31.1091 48.1576 27.9582 51.3094 27.9582 55.1966C27.9582 58.2936 29.9586 60.9204 32.7372 61.8624C32.6562 62.2385 32.6124 62.6276 32.6124 63.0278C32.6124 66.0605 35.0717 68.5198 38.1044 68.5198C41.1371 68.5198 43.5964 66.0605 43.5964 63.0278C43.5964 61.1485 42.6516 59.4906 41.2125 58.5002H41.2134ZM37.3141 47.331C37.3141 46.0139 38.3818 44.9462 39.6989 44.9462C41.0161 44.9462 42.0838 46.0139 42.0838 47.331C42.0838 48.6482 41.0161 49.7158 39.6989 49.7158C39.5938 49.7158 39.4895 49.7084 39.388 49.6954C38.8947 49.3016 38.3492 48.9712 37.7609 48.7208C37.4798 48.3298 37.3141 47.8495 37.3141 47.331ZM29.4718 55.1976C29.4718 52.1453 31.946 49.6702 34.9991 49.6702C38.0523 49.6702 40.5265 52.1444 40.5265 55.1976C40.5265 56.1489 40.2854 57.0434 39.8618 57.8244C39.3108 57.6382 38.7206 57.5359 38.1063 57.5359C36.0082 57.5359 34.1856 58.7134 33.2603 60.4429C31.0607 59.714 29.4727 57.642 29.4727 55.1976H29.4718ZM38.1053 66.9616C35.9337 66.9616 34.1725 65.2004 34.1725 63.0288C34.1725 60.8571 35.9337 59.0959 38.1053 59.0959C40.277 59.0959 42.0382 60.8571 42.0382 63.0288C42.0382 65.2004 40.277 66.9616 38.1053 66.9616Z" fill="#092D4C"/>
<g filter="url(#filter4_dddd_2141_1862)">
<path d="M20.2276 73.7179C21.7566 73.7179 23.2232 73.1104 24.3044 72.0292C25.3856 70.948 25.9928 69.4817 25.9928 67.9527C25.9928 66.4237 25.3856 64.9574 24.3044 63.8762C23.2232 62.795 21.7566 62.1875 20.2276 62.1875C18.6996 62.1909 17.235 62.7995 16.1545 63.8799C15.0741 64.9604 14.4658 66.4247 14.4624 67.9527C14.4624 68.7098 14.6117 69.4595 14.9015 70.159C15.1912 70.8584 15.6155 71.4939 16.1508 72.0292C16.6861 72.5646 17.3222 72.9894 18.0217 73.2792C18.7211 73.5689 19.4705 73.7179 20.2276 73.7179V73.7179Z" fill="#092D4C"/>
</g>
<path d="M20.7632 64.8084C20.7632 64.5231 20.5319 64.2918 20.2466 64.2918V64.2918C19.9613 64.2918 19.73 64.5231 19.73 64.8084V71.0964C19.73 71.3817 19.9613 71.613 20.2466 71.613V71.613C20.5319 71.613 20.7632 71.3817 20.7632 71.0964V64.8084Z" fill="white"/>
<path d="M23.914 68.0033C23.914 67.7215 23.6855 67.493 23.4038 67.493H17.1026C16.8208 67.493 16.5924 67.7215 16.5924 68.0033V68.0033C16.5924 68.285 16.8208 68.5135 17.1026 68.5135H23.4038C23.6855 68.5135 23.914 68.285 23.914 68.0033V68.0033Z" fill="white"/>
<defs>
<filter id="filter0_dddd_2141_1862" x="18.1045" y="24.1313" width="69.5002" height="64.1895" filterUnits="userSpaceOnUse" color-interpolation-filters="sRGB">
<feFlood flood-opacity="0" result="BackgroundImageFix"/>
<feColorMatrix in="SourceAlpha" type="matrix" values="0 0 0 0 0 0 0 0 0 0 0 0 0 0 0 0 0 0 127 0" result="hardAlpha"/>
<feOffset dy="1"/>
<feGaussianBlur stdDeviation="1"/>
<feColorMatrix type="matrix" values="0 0 0 0 0 0 0 0 0 0 0 0 0 0 0 0 0 0 0.1 0"/>
<feBlend mode="normal" in2="BackgroundImageFix" result="effect1_dropShadow_2141_1862"/>
<feColorMatrix in="SourceAlpha" type="matrix" values="0 0 0 0 0 0 0 0 0 0 0 0 0 0 0 0 0 0 127 0" result="hardAlpha"/>
<feOffset dy="3"/>
<feGaussianBlur stdDeviation="1.5"/>
<feColorMatrix type="matrix" values="0 0 0 0 0 0 0 0 0 0 0 0 0 0 0 0 0 0 0.09 0"/>
<feBlend mode="normal" in2="effect1_dropShadow_2141_1862" result="effect2_dropShadow_2141_1862"/>
<feColorMatrix in="SourceAlpha" type="matrix" values="0 0 0 0 0 0 0 0 0 0 0 0 0 0 0 0 0 0 127 0" result="hardAlpha"/>
<feOffset dy="7"/>
<feGaussianBlur stdDeviation="2"/>
<feColorMatrix type="matrix" values="0 0 0 0 0 0 0 0 0 0 0 0 0 0 0 0 0 0 0.05 0"/>
<feBlend mode="normal" in2="effect2_dropShadow_2141_1862" result="effect3_dropShadow_2141_1862"/>
<feColorMatrix in="SourceAlpha" type="matrix" values="0 0 0 0 0 0 0 0 0 0 0 0 0 0 0 0 0 0 127 0" result="hardAlpha"/>
<feOffset dy="12"/>
<feGaussianBlur stdDeviation="2.5"/>
<feColorMatrix type="matrix" values="0 0 0 0 0 0 0 0 0 0 0 0 0 0 0 0 0 0 0.01 0"/>
<feBlend mode="normal" in2="effect3_dropShadow_2141_1862" result="effect4_dropShadow_2141_1862"/>
<feBlend mode="normal" in="SourceGraphic" in2="effect4_dropShadow_2141_1862" result="shape"/>
</filter>
<filter id="filter1_dddd_2141_1862" x="16.2043" y="28.7043" width="68.5002" height="61.1895" filterUnits="userSpaceOnUse" color-interpolation-filters="sRGB">
<feFlood flood-opacity="0" result="BackgroundImageFix"/>
<feColorMatrix in="SourceAlpha" type="matrix" values="0 0 0 0 0 0 0 0 0 0 0 0 0 0 0 0 0 0 127 0" result="hardAlpha"/>
<feOffset dy="1"/>
<feGaussianBlur stdDeviation="0.5"/>
<feColorMatrix type="matrix" values="0 0 0 0 0 0 0 0 0 0 0 0 0 0 0 0 0 0 0.1 0"/>
<feBlend mode="normal" in2="BackgroundImageFix" result="effect1_dropShadow_2141_1862"/>
<feColorMatrix in="SourceAlpha" type="matrix" values="0 0 0 0 0 0 0 0 0 0 0 0 0 0 0 0 0 0 127 0" result="hardAlpha"/>
<feOffset dy="3"/>
<feGaussianBlur stdDeviation="1.5"/>
<feColorMatrix type="matrix" values="0 0 0 0 0 0 0 0 0 0 0 0 0 0 0 0 0 0 0.09 0"/>
<feBlend mode="normal" in2="effect1_dropShadow_2141_1862" result="effect2_dropShadow_2141_1862"/>
<feColorMatrix in="SourceAlpha" type="matrix" values="0 0 0 0 0 0 0 0 0 0 0 0 0 0 0 0 0 0 127 0" result="hardAlpha"/>
<feOffset dx="1" dy="6"/>
<feGaussianBlur stdDeviation="2"/>
<feColorMatrix type="matrix" values="0 0 0 0 0 0 0 0 0 0 0 0 0 0 0 0 0 0 0.05 0"/>
<feBlend mode="normal" in2="effect2_dropShadow_2141_1862" result="effect3_dropShadow_2141_1862"/>
<feColorMatrix in="SourceAlpha" type="matrix" values="0 0 0 0 0 0 0 0 0 0 0 0 0 0 0 0 0 0 127 0" result="hardAlpha"/>
<feOffset dx="2" dy="11"/>
<feGaussianBlur stdDeviation="2"/>
<feColorMatrix type="matrix" values="0 0 0 0 0 0 0 0 0 0 0 0 0 0 0 0 0 0 0.01 0"/>
<feBlend mode="normal" in2="effect3_dropShadow_2141_1862" result="effect4_dropShadow_2141_1862"/>
<feBlend mode="normal" in="SourceGraphic" in2="effect4_dropShadow_2141_1862" result="shape"/>
</filter>
<filter id="filter2_dddd_2141_1862" x="21.9955" y="31.6362" width="62.9181" height="51.7312" filterUnits="userSpaceOnUse" color-interpolation-filters="sRGB">
<feFlood flood-opacity="0" result="BackgroundImageFix"/>
<feColorMatrix in="SourceAlpha" type="matrix" values="0 0 0 0 0 0 0 0 0 0 0 0 0 0 0 0 0 0 127 0" result="hardAlpha"/>
<feOffset/>
<feGaussianBlur stdDeviation="0.5"/>
<feColorMatrix type="matrix" values="0 0 0 0 0 0 0 0 0 0 0 0 0 0 0 0 0 0 0.05 0"/>
<feBlend mode="normal" in2="BackgroundImageFix" result="effect1_dropShadow_2141_1862"/>
<feColorMatrix in="SourceAlpha" type="matrix" values="0 0 0 0 0 0 0 0 0 0 0 0 0 0 0 0 0 0 127 0" result="hardAlpha"/>
<feOffset dx="1" dy="2"/>
<feGaussianBlur stdDeviation="1"/>
<feColorMatrix type="matrix" values="0 0 0 0 0 0 0 0 0 0 0 0 0 0 0 0 0 0 0.04 0"/>
<feBlend mode="normal" in2="effect1_dropShadow_2141_1862" result="effect2_dropShadow_2141_1862"/>
<feColorMatrix in="SourceAlpha" type="matrix" values="0 0 0 0 0 0 0 0 0 0 0 0 0 0 0 0 0 0 127 0" result="hardAlpha"/>
<feOffset dx="3" dy="4"/>
<feGaussianBlur stdDeviation="1.5"/>
<feColorMatrix type="matrix" values="0 0 0 0 0 0 0 0 0 0 0 0 0 0 0 0 0 0 0.03 0"/>
<feBlend mode="normal" in2="effect2_dropShadow_2141_1862" result="effect3_dropShadow_2141_1862"/>
<feColorMatrix in="SourceAlpha" type="matrix" values="0 0 0 0 0 0 0 0 0 0 0 0 0 0 0 0 0 0 127 0" result="hardAlpha"/>
<feOffset dx="6" dy="8"/>
<feGaussianBlur stdDeviation="2"/>
<feColorMatrix type="matrix" values="0 0 0 0 0 0 0 0 0 0 0 0 0 0 0 0 0 0 0.01 0"/>
<feBlend mode="normal" in2="effect3_dropShadow_2141_1862" result="effect4_dropShadow_2141_1862"/>
<feBlend mode="normal" in="SourceGraphic" in2="effect4_dropShadow_2141_1862" result="shape"/>
</filter>
<filter id="filter3_ddddd_2141_1862" x="12.1094" y="39.3799" width="39.4344" height="47.4344" filterUnits="userSpaceOnUse" color-interpolation-filters="sRGB">
<feFlood flood-opacity="0" result="BackgroundImageFix"/>
<feColorMatrix in="SourceAlpha" type="matrix" values="0 0 0 0 0 0 0 0 0 0 0 0 0 0 0 0 0 0 127 0" result="hardAlpha"/>
<feOffset/>
<feColorMatrix type="matrix" values="0 0 0 0 0 0 0 0 0 0 0 0 0 0 0 0 0 0 0.1 0"/>
<feBlend mode="normal" in2="BackgroundImageFix" result="effect1_dropShadow_2141_1862"/>
<feColorMatrix in="SourceAlpha" type="matrix" values="0 0 0 0 0 0 0 0 0 0 0 0 0 0 0 0 0 0 127 0" result="hardAlpha"/>
<feOffset dy="1"/>
<feGaussianBlur stdDeviation="1"/>
<feColorMatrix type="matrix" values="0 0 0 0 0 0 0 0 0 0 0 0 0 0 0 0 0 0 0.1 0"/>
<feBlend mode="normal" in2="effect1_dropShadow_2141_1862" result="effect2_dropShadow_2141_1862"/>
<feColorMatrix in="SourceAlpha" type="matrix" values="0 0 0 0 0 0 0 0 0 0 0 0 0 0 0 0 0 0 127 0" result="hardAlpha"/>
<feOffset dy="3"/>
<feGaussianBlur stdDeviation="1.5"/>
<feColorMatrix type="matrix" values="0 0 0 0 0 0 0 0 0 0 0 0 0 0 0 0 0 0 0.09 0"/>
<feBlend mode="normal" in2="effect2_dropShadow_2141_1862" result="effect3_dropShadow_2141_1862"/>
<feColorMatrix in="SourceAlpha" type="matrix" values="0 0 0 0 0 0 0 0 0 0 0 0 0 0 0 0 0 0 127 0" result="hardAlpha"/>
<feOffset dy="6"/>
<feGaussianBlur stdDeviation="2"/>
<feColorMatrix type="matrix" values="0 0 0 0 0 0 0 0 0 0 0 0 0 0 0 0 0 0 0.05 0"/>
<feBlend mode="normal" in2="effect3_dropShadow_2141_1862" result="effect4_dropShadow_2141_1862"/>
<feColorMatrix in="SourceAlpha" type="matrix" values="0 0 0 0 0 0 0 0 0 0 0 0 0 0 0 0 0 0 127 0" result="hardAlpha"/>
<feOffset dy="11"/>
<feGaussianBlur stdDeviation="2"/>
<feColorMatrix type="matrix" values="0 0 0 0 0 0 0 0 0 0 0 0 0 0 0 0 0 0 0.01 0"/>
<feBlend mode="normal" in2="effect4_dropShadow_2141_1862" result="effect5_dropShadow_2141_1862"/>
<feBlend mode="normal" in="SourceGraphic" in2="effect5_dropShadow_2141_1862" result="shape"/>
</filter>
<filter id="filter4_dddd_2141_1862" x="12.4624" y="61.1875" width="15.5304" height="18.5304" filterUnits="userSpaceOnUse" color-interpolation-filters="sRGB">
<feFlood flood-opacity="0" result="BackgroundImageFix"/>
<feColorMatrix in="SourceAlpha" type="matrix" values="0 0 0 0 0 0 0 0 0 0 0 0 0 0 0 0 0 0 127 0" result="hardAlpha"/>
<feOffset/>
<feGaussianBlur stdDeviation="0.5"/>
<feColorMatrix type="matrix" values="0 0 0 0 0 0 0 0 0 0 0 0 0 0 0 0 0 0 0.1 0"/>
<feBlend mode="normal" in2="BackgroundImageFix" result="effect1_dropShadow_2141_1862"/>
<feColorMatrix in="SourceAlpha" type="matrix" values="0 0 0 0 0 0 0 0 0 0 0 0 0 0 0 0 0 0 127 0" result="hardAlpha"/>
<feOffset dy="1"/>
<feGaussianBlur stdDeviation="0.5"/>
<feColorMatrix type="matrix" values="0 0 0 0 0 0 0 0 0 0 0 0 0 0 0 0 0 0 0.09 0"/>
<feBlend mode="normal" in2="effect1_dropShadow_2141_1862" result="effect2_dropShadow_2141_1862"/>
<feColorMatrix in="SourceAlpha" type="matrix" values="0 0 0 0 0 0 0 0 0 0 0 0 0 0 0 0 0 0 127 0" result="hardAlpha"/>
<feOffset dy="2"/>
<feGaussianBlur stdDeviation="0.5"/>
<feColorMatrix type="matrix" values="0 0 0 0 0 0 0 0 0 0 0 0 0 0 0 0 0 0 0.05 0"/>
<feBlend mode="normal" in2="effect2_dropShadow_2141_1862" result="effect3_dropShadow_2141_1862"/>
<feColorMatrix in="SourceAlpha" type="matrix" values="0 0 0 0 0 0 0 0 0 0 0 0 0 0 0 0 0 0 127 0" result="hardAlpha"/>
<feOffset dy="4"/>
<feGaussianBlur stdDeviation="1"/>
<feColorMatrix type="matrix" values="0 0 0 0 0 0 0 0 0 0 0 0 0 0 0 0 0 0 0.01 0"/>
<feBlend mode="normal" in2="effect3_dropShadow_2141_1862" result="effect4_dropShadow_2141_1862"/>
<feBlend mode="normal" in="SourceGraphic" in2="effect4_dropShadow_2141_1862" result="shape"/>
</filter>
<linearGradient id="paint0_linear_2141_1862" x1="25.2852" y1="10.3769" x2="65.7189" y2="135.034" gradientUnits="userSpaceOnUse">
<stop offset="0.0996678" stop-color="#C5E4FF"/>
<stop offset="0.623265" stop-color="#69B7FC"/>
</linearGradient>
<radialGradient id="paint1_radial_2141_1862" cx="0" cy="0" r="1" gradientUnits="userSpaceOnUse" gradientTransform="translate(16.9061 28.6574) rotate(48.6382) scale(101.338 200.866)">
<stop offset="0.00520833" stop-color="#68B6FC"/>
<stop offset="0.33" stop-color="#3082F1"/>
<stop offset="0.675" stop-color="#1152D4"/>
<stop offset="1" stop-color="#0E45BD"/>
</radialGradient>
</defs>
</svg>
