<svg width="102" height="103" viewBox="0 0 102 103" fill="none" xmlns="http://www.w3.org/2000/svg">
<path d="M50.9764 98.231C25.3799 98.231 4.62537 77.4864 4.62537 51.8799C4.62537 26.2734 25.3799 5.52881 50.9764 5.52881C76.573 5.52881 97.3275 26.2833 97.3275 51.8799C97.3275 77.4765 76.573 98.231 50.9764 98.231Z" fill="url(#paint0_linear_2141_1864)"/>
<path fill-rule="evenodd" clip-rule="evenodd" d="M96.4267 51.8801C96.4267 76.9816 76.0782 97.3301 50.9767 97.3301C25.8752 97.3301 5.5267 76.9816 5.5267 51.8801C5.5267 26.7787 25.8752 6.43015 50.9767 6.43015C76.0782 6.43015 96.4267 26.7787 96.4267 51.8801ZM50.9767 2.72681C78.1279 2.72681 100.13 24.729 100.13 51.8801C100.13 79.0313 78.118 101.033 50.9767 101.033C23.8255 101.033 1.82336 79.0214 1.82336 51.8801C1.82336 24.729 23.8255 2.72681 50.9767 2.72681Z" fill="#F2F1F0"/>
<path fill-rule="evenodd" clip-rule="evenodd" d="M93.644 51.8799C93.644 75.4466 74.5431 94.5475 50.9765 94.5475C27.4098 94.5475 8.30892 75.4466 8.30892 51.8799C8.30892 28.3133 27.4098 9.21237 50.9765 9.21237C74.5431 9.21237 93.644 28.3133 93.644 51.8799ZM50.9765 5.50903C76.5829 5.50903 97.3474 26.2734 97.3474 51.8799C97.3474 77.4864 76.5829 98.2508 50.9765 98.2508C25.37 98.2508 4.60559 77.4864 4.60559 51.8799C4.60559 26.2734 25.3601 5.50903 50.9765 5.50903Z" fill="url(#paint1_linear_2141_1864)"/>
<g opacity="0.15">
<path opacity="0.15" d="M85.3092 76.2547L85.3092 34.1596C85.3092 32.6155 84.0575 31.3638 82.5134 31.3638L26.676 31.3638C25.132 31.3638 23.8803 32.6155 23.8803 34.1596L23.8803 76.2546C23.8803 77.7987 25.132 79.0504 26.676 79.0504L82.5134 79.0504C84.0575 79.0504 85.3092 77.7987 85.3092 76.2547Z" fill="#383838"/>
</g>
<g filter="url(#filter0_dddd_2141_1864)">
<path d="M83.6331 70.2293L83.6331 28.1342C83.6331 26.5901 82.3813 25.3384 80.8372 25.3384L24.9999 25.3384C23.4558 25.3384 22.2041 26.5901 22.2041 28.1342L22.2041 70.2293C22.2041 71.7733 23.4558 73.025 24.9999 73.025L80.8372 73.025C82.3813 73.025 83.6331 71.7733 83.6331 70.2293Z" fill="#ECECEC"/>
</g>
<g opacity="0.15">
<path opacity="0.15" d="M81.1793 72.1255L81.1793 30.0304C81.1793 28.4864 79.9276 27.2346 78.3835 27.2346L22.5462 27.2346C21.0021 27.2346 19.7504 28.4863 19.7504 30.0304L19.7504 72.1255C19.7504 73.6696 21.0021 74.9213 22.5462 74.9213L78.3835 74.9213C79.9276 74.9213 81.1793 73.6696 81.1793 72.1255Z" fill="#383838"/>
</g>
<g filter="url(#filter1_dddd_2141_1864)">
<path d="M79.6066 73.9187L79.6066 31.8236C79.6066 30.2796 78.3548 29.0278 76.8107 29.0278L20.9734 29.0278C19.4293 29.0278 18.1776 30.2796 18.1776 31.8236L18.1776 73.9187C18.1776 75.4628 19.4293 76.7145 20.9734 76.7145L76.8107 76.7145C78.3548 76.7145 79.6066 75.4628 79.6066 73.9187Z" fill="white"/>
</g>
<path d="M34.9892 48.4533C35.6765 48.4533 36.2337 47.8961 36.2337 47.2088C36.2337 46.5215 35.6765 45.9644 34.9892 45.9644C34.3019 45.9644 33.7448 46.5215 33.7448 47.2088C33.7448 47.8961 34.3019 48.4533 34.9892 48.4533Z" fill="black"/>
<path d="M34.9892 48.4533C35.6765 48.4533 36.2337 47.8961 36.2337 47.2088C36.2337 46.5215 35.6765 45.9644 34.9892 45.9644C34.3019 45.9644 33.7448 46.5215 33.7448 47.2088C33.7448 47.8961 34.3019 48.4533 34.9892 48.4533Z" fill="black"/>
<path d="M47.9262 48.4533C48.6135 48.4533 49.1707 47.8961 49.1707 47.2088C49.1707 46.5215 48.6135 45.9644 47.9262 45.9644C47.2389 45.9644 46.6818 46.5215 46.6818 47.2088C46.6818 47.8961 47.2389 48.4533 47.9262 48.4533Z" fill="black"/>
<path d="M55.4599 50.875V49.1709H53.5432V47.4556H51.6147V49.1709H50.1799V50.875H51.6147V54.6136C51.6147 55.6815 52.4805 56.5473 53.5484 56.5473H55.3925V54.8432H54.1481C53.8139 54.8432 53.5425 54.5724 53.5425 54.2376V50.8744H55.4592L55.4599 50.875Z" fill="black"/>
<path d="M30.4094 48.9688C29.2062 48.9688 28.222 49.949 28.1448 51.1882C28.0644 49.949 27.0383 48.9688 25.7834 48.9688C24.7436 48.9688 23.8615 49.6417 23.543 50.5775V49.1708H21.4805V56.5473H23.543V51.4544C23.7627 50.9541 24.2453 50.6056 24.8071 50.6056C25.3132 50.6056 25.7559 50.8874 25.9992 51.3092V56.5473H28.15V51.7264C28.15 51.6754 28.15 51.6257 28.15 51.5747C28.1553 51.631 28.1618 51.6865 28.171 51.7415C28.3037 51.0914 28.836 50.6056 29.473 50.6056C29.9582 50.6056 30.3832 50.8874 30.6167 51.3092V56.5473H32.6792V51.7264C32.6792 51.5983 32.6792 51.4707 32.6792 51.3458C32.6792 50.0334 31.663 48.9694 30.4094 48.9694V48.9688Z" fill="black"/>
<path d="M46.8726 49.1709V54.6863H44.8545V51.3682H44.8486C44.8068 50.0328 43.7598 48.9636 42.4741 48.9636C41.3906 48.9636 40.477 49.7235 40.1912 50.7613V49.1709H38.1287V54.7536H36.021V49.1709H33.9585V54.7536C33.9585 55.7444 34.7615 56.5474 35.7523 56.5474H40.1919V51.6533C40.3926 51.0824 40.9001 50.677 41.4952 50.677C42.1478 50.677 42.6952 51.1635 42.8489 51.822V54.8602C42.8489 55.7921 43.6042 56.5474 44.536 56.5474H48.9364V49.1709H46.8739H46.8726Z" fill="black"/>
<path d="M74.8179 53.3997H69.2531C69.0084 53.3997 68.8202 53.6004 68.8202 53.8325C68.8202 54.0772 69.0209 54.2654 69.2531 54.2654H74.8179C75.0626 54.2654 75.2508 54.0647 75.2508 53.8325C75.2508 53.5879 75.05 53.3997 74.8179 53.3997Z" fill="#50E6FF"/>
<path d="M74.8179 55.2942H69.2531C69.0084 55.2942 68.8202 55.4949 68.8202 55.7271C68.8202 55.9718 69.0209 56.16 69.2531 56.16H74.8179C75.0626 56.16 75.2508 55.9592 75.2508 55.7271C75.2508 55.4949 75.05 55.2942 74.8179 55.2942Z" fill="#32B0E7"/>
<path fill-rule="evenodd" clip-rule="evenodd" d="M69.2469 57.3525H72.0261C72.2708 57.3525 72.459 57.5533 72.459 57.7854C72.459 58.0301 72.2582 58.2183 72.0261 58.2183H69.2469C69.0022 58.2183 68.814 58.0176 68.814 57.7854C68.814 57.547 69.0084 57.3525 69.2469 57.3525Z" fill="#185A97"/>
<path d="M63.3242 57.7526C64.1837 57.7526 64.8801 57.0563 64.8801 56.1968C64.8801 55.3373 64.1837 54.6409 63.3242 54.6409C62.4647 54.6409 61.7683 55.3373 61.7683 56.1968C61.7683 57.0563 62.4647 57.7526 63.3242 57.7526Z" fill="url(#paint2_linear_2141_1864)"/>
<path d="M64.0589 55.4443L62.8983 56.605L62.5532 56.2599L62.3274 56.492L62.9046 57.0692L64.2973 55.6827L64.0589 55.4443Z" fill="#F2F1F0"/>
<path d="M63.3182 51.9248C60.9593 51.9248 59.0396 53.8383 59.0396 56.2035C59.0396 58.5687 60.953 60.4822 63.3182 60.4822C65.6834 60.4822 67.5969 58.5687 67.5969 56.2035C67.5844 53.8383 65.6772 51.9248 63.3182 51.9248ZM63.3182 58.1985C62.2203 58.1985 61.3232 57.3014 61.3232 56.2035C61.3232 55.1056 62.2203 54.2084 63.3182 54.2084C64.4161 54.2084 65.3133 55.1056 65.3133 56.2035C65.3133 57.3014 64.4161 58.1985 63.3182 58.1985Z" fill="url(#paint3_linear_2141_1864)"/>
<path d="M63.3116 54.2084L63.2991 51.9248C61.7997 51.9311 60.4759 52.709 59.7168 53.8885L61.5926 55.1997C61.9314 54.61 62.5776 54.2084 63.3116 54.2084Z" fill="#50E6FF"/>
<path d="M61.3229 56.2032C61.3229 55.8393 61.4171 55.5005 61.5864 55.2057L59.7169 53.8882L59.7106 53.907C59.2903 54.572 59.0393 55.3562 59.0393 56.2032C59.0393 56.8306 59.1773 57.4266 59.422 57.9661L61.5049 57.0439C61.3857 56.7866 61.3229 56.5043 61.3229 56.2032Z" fill="#3BCAF4"/>
<path fill-rule="evenodd" clip-rule="evenodd" d="M59.4312 65.5132H75.251V63.8809H59.4312V65.5132Z" fill="#50E6FF"/>
<path fill-rule="evenodd" clip-rule="evenodd" d="M59.431 68.345H75.2509V66.7126H59.431V68.345Z" fill="#50E6FF"/>
<path fill-rule="evenodd" clip-rule="evenodd" d="M59.4312 65.5132H71.7418V63.8809H59.4312V65.5132Z" fill="#3BCAF4"/>
<path fill-rule="evenodd" clip-rule="evenodd" d="M59.431 68.345H72.7566V66.7126H59.431V68.345Z" fill="#3BCAF4"/>
<path fill-rule="evenodd" clip-rule="evenodd" d="M59.4312 65.5132H66.091V63.8809H59.4312V65.5132Z" fill="url(#paint4_linear_2141_1864)"/>
<path fill-rule="evenodd" clip-rule="evenodd" d="M59.431 68.345H69.9739V66.7126H59.431V68.345Z" fill="url(#paint5_linear_2141_1864)"/>
<path d="M62.0455 45.3923H59.5786V48.6177H62.0455V45.3923Z" fill="#45CAF2"/>
<path d="M65.7178 43.2463H63.203V48.6192H65.7178V43.2463Z" fill="#50E6FF"/>
<path d="M70.1885 39.7627H66.9631V48.6004H70.1885V39.7627Z" fill="#32B0E7"/>
<path d="M75.2511 36.1638H71.5388V48.6101H75.2511V36.1638Z" fill="#185A97"/>
<path d="M51.0233 98.231C25.4267 98.231 4.67224 77.4864 4.67224 51.8799C4.67224 26.2734 25.4267 5.52881 51.0233 5.52881C76.6199 5.52881 97.3744 26.2833 97.3744 51.8799C97.3744 77.4765 76.6199 98.231 51.0233 98.231Z" fill="url(#paint6_linear_2141_1864)"/>
<path fill-rule="evenodd" clip-rule="evenodd" d="M96.4736 51.8801C96.4736 76.9816 76.125 97.3301 51.0236 97.3301C25.9221 97.3301 5.57357 76.9816 5.57357 51.8801C5.57357 26.7787 25.9221 6.43015 51.0236 6.43015C76.125 6.43015 96.4736 26.7787 96.4736 51.8801ZM51.0236 2.72681C78.1747 2.72681 100.177 24.729 100.177 51.8801C100.177 79.0313 78.1648 101.033 51.0236 101.033C23.8724 101.033 1.87024 79.0214 1.87024 51.8801C1.87024 24.729 23.8724 2.72681 51.0236 2.72681Z" fill="#F2F1F0"/>
<path fill-rule="evenodd" clip-rule="evenodd" d="M93.6909 51.8799C93.6909 75.4466 74.59 94.5475 51.0233 94.5475C27.4567 94.5475 8.3558 75.4466 8.3558 51.8799C8.3558 28.3133 27.4567 9.21237 51.0233 9.21237C74.59 9.21237 93.6909 28.3133 93.6909 51.8799ZM51.0233 5.50903C76.6298 5.50903 97.3942 26.2734 97.3942 51.8799C97.3942 77.4864 76.6298 98.2508 51.0233 98.2508C25.4169 98.2508 4.65247 77.4864 4.65247 51.8799C4.65247 26.2734 25.407 5.50903 51.0233 5.50903Z" fill="url(#paint7_linear_2141_1864)"/>
<g opacity="0.15">
<path opacity="0.15" d="M85.3593 76.2547L85.3593 34.1596C85.3593 32.6155 84.1075 31.3638 82.5634 31.3638L26.7261 31.3638C25.182 31.3638 23.9303 32.6155 23.9303 34.1596L23.9303 76.2546C23.9303 77.7987 25.182 79.0504 26.7261 79.0504L82.5634 79.0504C84.1075 79.0504 85.3593 77.7987 85.3593 76.2547Z" fill="#383838"/>
</g>
<g filter="url(#filter2_dddd_2141_1864)">
<path d="M83.6831 70.2293L83.6831 28.1342C83.6831 26.5901 82.4314 25.3384 80.8873 25.3384L25.0499 25.3384C23.5059 25.3384 22.2542 26.5901 22.2542 28.1342L22.2542 70.2293C22.2542 71.7733 23.5059 73.025 25.0499 73.025L80.8873 73.025C82.4314 73.025 83.6831 71.7733 83.6831 70.2293Z" fill="#ECECEC"/>
</g>
<g opacity="0.15">
<path opacity="0.15" d="M81.2294 72.1255L81.2294 30.0304C81.2294 28.4864 79.9776 27.2346 78.4336 27.2346L22.5962 27.2346C21.0521 27.2346 19.8004 28.4863 19.8004 30.0304L19.8004 72.1255C19.8004 73.6696 21.0521 74.9213 22.5962 74.9213L78.4336 74.9213C79.9776 74.9213 81.2294 73.6696 81.2294 72.1255Z" fill="#383838"/>
</g>
<g filter="url(#filter3_dddd_2141_1864)">
<path d="M79.6564 73.9187L79.6564 31.8236C79.6564 30.2796 78.4046 29.0278 76.8606 29.0278L21.0232 29.0278C19.4791 29.0278 18.2274 30.2796 18.2274 31.8236L18.2274 73.9187C18.2274 75.4628 19.4791 76.7145 21.0232 76.7145L76.8606 76.7145C78.4046 76.7145 79.6564 75.4628 79.6564 73.9187Z" fill="white"/>
</g>
<path d="M74.8679 53.3997H69.3031C69.0585 53.3997 68.8702 53.6004 68.8702 53.8325C68.8702 54.0772 69.071 54.2654 69.3031 54.2654H74.8679C75.1126 54.2654 75.3008 54.0647 75.3008 53.8325C75.3008 53.5879 75.1001 53.3997 74.8679 53.3997Z" fill="#50E6FF"/>
<path d="M74.8679 55.2942H69.3031C69.0585 55.2942 68.8702 55.4949 68.8702 55.7271C68.8702 55.9718 69.071 56.16 69.3031 56.16H74.8679C75.1126 56.16 75.3008 55.9592 75.3008 55.7271C75.3008 55.4949 75.1001 55.2942 74.8679 55.2942Z" fill="#32B0E7"/>
<path fill-rule="evenodd" clip-rule="evenodd" d="M69.2969 57.3525H72.0762C72.3208 57.3525 72.509 57.5533 72.509 57.7854C72.509 58.0301 72.3083 58.2183 72.0762 58.2183H69.2969C69.0522 58.2183 68.864 58.0176 68.864 57.7854C68.864 57.547 69.0585 57.3525 69.2969 57.3525Z" fill="#185A97"/>
<path d="M63.3744 57.7526C64.2339 57.7526 64.9303 57.0563 64.9303 56.1968C64.9303 55.3373 64.2339 54.6409 63.3744 54.6409C62.5149 54.6409 61.8185 55.3373 61.8185 56.1968C61.8185 57.0563 62.5149 57.7526 63.3744 57.7526Z" fill="url(#paint8_linear_2141_1864)"/>
<path d="M64.109 55.4443L62.9484 56.605L62.6033 56.2599L62.3774 56.492L62.9546 57.0692L64.3474 55.6827L64.109 55.4443Z" fill="#F2F1F0"/>
<path d="M63.368 51.9248C61.0091 51.9248 59.0894 53.8383 59.0894 56.2035C59.0894 58.5687 61.0028 60.4822 63.368 60.4822C65.7332 60.4822 67.6467 58.5687 67.6467 56.2035C67.6342 53.8383 65.727 51.9248 63.368 51.9248ZM63.368 58.1985C62.2701 58.1985 61.373 57.3014 61.373 56.2035C61.373 55.1056 62.2701 54.2084 63.368 54.2084C64.4659 54.2084 65.3631 55.1056 65.3631 56.2035C65.3631 57.3014 64.4659 58.1985 63.368 58.1985Z" fill="url(#paint9_linear_2141_1864)"/>
<path d="M63.3617 54.2084L63.3491 51.9248C61.8497 51.9311 60.526 52.709 59.7668 53.8885L61.6427 55.1997C61.9815 54.61 62.6277 54.2084 63.3617 54.2084Z" fill="#50E6FF"/>
<path d="M61.373 56.2032C61.373 55.8393 61.4671 55.5005 61.6365 55.2057L59.7669 53.8882L59.7606 53.907C59.3403 54.572 59.0894 55.3562 59.0894 56.2032C59.0894 56.8306 59.2274 57.4266 59.4721 57.9661L61.5549 57.0439C61.4357 56.7866 61.373 56.5043 61.373 56.2032Z" fill="#3BCAF4"/>
<path fill-rule="evenodd" clip-rule="evenodd" d="M59.481 65.5132H75.3008V63.8809H59.481V65.5132Z" fill="#50E6FF"/>
<path fill-rule="evenodd" clip-rule="evenodd" d="M59.4811 68.345H75.3009V66.7126H59.4811V68.345Z" fill="#50E6FF"/>
<path fill-rule="evenodd" clip-rule="evenodd" d="M59.481 65.5132H71.7916V63.8809H59.481V65.5132Z" fill="#3BCAF4"/>
<path fill-rule="evenodd" clip-rule="evenodd" d="M59.4811 68.345H72.8066V66.7126H59.4811V68.345Z" fill="#3BCAF4"/>
<path fill-rule="evenodd" clip-rule="evenodd" d="M59.481 65.5132H66.1408V63.8809H59.481V65.5132Z" fill="url(#paint10_linear_2141_1864)"/>
<path fill-rule="evenodd" clip-rule="evenodd" d="M59.4811 68.345H70.024V66.7126H59.4811V68.345Z" fill="url(#paint11_linear_2141_1864)"/>
<path d="M62.0956 45.3923H59.6287V48.6177H62.0956V45.3923Z" fill="#45CAF2"/>
<path d="M65.7678 43.2463H63.2531V48.6192H65.7678V43.2463Z" fill="#50E6FF"/>
<path d="M70.2385 39.7627H67.0132V48.6004H70.2385V39.7627Z" fill="#32B0E7"/>
<path d="M75.3012 36.1638H71.5889V48.6101H75.3012V36.1638Z" fill="#185A97"/>
<g opacity="0.15">
<path opacity="0.15" d="M64.3017 77.3433L50.2291 63.2707C52.2693 60.6201 53.4813 57.2981 53.4813 53.6972C53.4813 44.9955 46.4188 37.9592 37.7346 37.9592C29.0504 37.9592 21.9967 45.0042 21.9967 53.6972C21.9967 62.3901 29.0243 69.4351 37.7259 69.4351C41.2136 69.4351 44.4309 68.3016 47.0553 66.3834L61.1541 80.4822C61.1541 80.4822 62.3835 80.9617 63.6826 79.6016C64.9818 78.2414 64.3017 77.3433 64.3017 77.3433ZM24.3334 53.7495C24.3334 46.3731 30.3147 40.3919 37.691 40.3919C45.0674 40.3919 51.0487 46.3731 51.0487 53.7495C51.0487 61.1258 45.05 67.1071 37.6823 67.1071C30.3147 67.1071 24.3334 61.1258 24.3334 53.7495Z" fill="#1F1D20"/>
</g>
<path d="M64.3016 76.4368L50.229 62.3642C52.2692 59.7136 53.4812 56.3917 53.4812 52.7907C53.4812 44.089 46.4187 37.0527 37.7345 37.0527C29.0503 37.0527 21.9966 44.0977 21.9966 52.7907C21.9966 61.4836 29.0416 68.5286 37.7345 68.5286C41.2222 68.5286 44.4395 67.3951 47.0639 65.4769L61.1627 79.5757C61.1627 79.5757 62.3921 80.0552 63.6912 78.6951C64.9904 77.3349 64.3016 76.4368 64.3016 76.4368ZM24.3333 52.843C24.3333 45.4666 30.3146 39.4854 37.6909 39.4854C45.0673 39.4854 51.0486 45.4666 51.0486 52.843C51.0486 60.2193 45.0498 66.2006 37.6822 66.2006C30.3146 66.2006 24.3333 60.2193 24.3333 52.843Z" fill="url(#paint12_linear_2141_1864)"/>
<path fill-rule="evenodd" clip-rule="evenodd" d="M47.2898 53.9761L44.7389 54.8844L44.2751 56.4498L45.3766 58.7302L45.5312 59.0394L43.9079 60.6047L41.3183 59.3292L39.7723 59.9476L38.922 62.344L38.8253 62.6725L36.5836 62.6145L35.656 59.8703L34.11 59.2133L31.8296 60.3148L31.5204 60.4694L29.955 58.8268L31.2305 56.2372L30.6121 54.6718L28.2157 53.8215L27.8872 53.7249L27.9452 51.4832L30.7087 50.5362L31.3658 48.9902L30.2642 46.7098L30.1096 46.4199L31.7329 44.8739L34.3225 46.1687L35.9072 45.6083L36.7189 43.3279L36.8348 43.2119L39.0572 43.2699L40.0042 45.8015L41.5502 46.2653L43.8306 45.1638L44.1398 45.0092L44.9901 45.8981L45.6858 46.6325L45.5506 46.8837L44.3717 49.2221L44.9321 50.7874L47.2125 51.5991L47.3285 51.7151L47.2898 53.9761ZM37.7818 55.87C39.5211 55.9087 40.9511 54.4979 40.9898 52.778C41.0284 51.0387 39.637 49.5893 37.8977 49.5699C36.1584 49.5313 34.709 50.942 34.6897 52.6813C34.6511 54.4013 36.0425 55.8507 37.7818 55.87Z" fill="url(#paint13_linear_2141_1864)"/>
<defs>
<filter id="filter0_dddd_2141_1864" x="17.2041" y="24.3384" width="71.429" height="65.6868" filterUnits="userSpaceOnUse" color-interpolation-filters="sRGB">
<feFlood flood-opacity="0" result="BackgroundImageFix"/>
<feColorMatrix in="SourceAlpha" type="matrix" values="0 0 0 0 0 0 0 0 0 0 0 0 0 0 0 0 0 0 127 0" result="hardAlpha"/>
<feOffset dy="1"/>
<feGaussianBlur stdDeviation="1"/>
<feColorMatrix type="matrix" values="0 0 0 0 0 0 0 0 0 0 0 0 0 0 0 0 0 0 0.1 0"/>
<feBlend mode="normal" in2="BackgroundImageFix" result="effect1_dropShadow_2141_1864"/>
<feColorMatrix in="SourceAlpha" type="matrix" values="0 0 0 0 0 0 0 0 0 0 0 0 0 0 0 0 0 0 127 0" result="hardAlpha"/>
<feOffset dy="3"/>
<feGaussianBlur stdDeviation="1.5"/>
<feColorMatrix type="matrix" values="0 0 0 0 0 0 0 0 0 0 0 0 0 0 0 0 0 0 0.09 0"/>
<feBlend mode="normal" in2="effect1_dropShadow_2141_1864" result="effect2_dropShadow_2141_1864"/>
<feColorMatrix in="SourceAlpha" type="matrix" values="0 0 0 0 0 0 0 0 0 0 0 0 0 0 0 0 0 0 127 0" result="hardAlpha"/>
<feOffset dy="7"/>
<feGaussianBlur stdDeviation="2"/>
<feColorMatrix type="matrix" values="0 0 0 0 0 0 0 0 0 0 0 0 0 0 0 0 0 0 0.05 0"/>
<feBlend mode="normal" in2="effect2_dropShadow_2141_1864" result="effect3_dropShadow_2141_1864"/>
<feColorMatrix in="SourceAlpha" type="matrix" values="0 0 0 0 0 0 0 0 0 0 0 0 0 0 0 0 0 0 127 0" result="hardAlpha"/>
<feOffset dy="12"/>
<feGaussianBlur stdDeviation="2.5"/>
<feColorMatrix type="matrix" values="0 0 0 0 0 0 0 0 0 0 0 0 0 0 0 0 0 0 0.01 0"/>
<feBlend mode="normal" in2="effect3_dropShadow_2141_1864" result="effect4_dropShadow_2141_1864"/>
<feBlend mode="normal" in="SourceGraphic" in2="effect4_dropShadow_2141_1864" result="shape"/>
</filter>
<filter id="filter1_dddd_2141_1864" x="15.1776" y="29.0278" width="70.429" height="62.6868" filterUnits="userSpaceOnUse" color-interpolation-filters="sRGB">
<feFlood flood-opacity="0" result="BackgroundImageFix"/>
<feColorMatrix in="SourceAlpha" type="matrix" values="0 0 0 0 0 0 0 0 0 0 0 0 0 0 0 0 0 0 127 0" result="hardAlpha"/>
<feOffset dy="1"/>
<feGaussianBlur stdDeviation="0.5"/>
<feColorMatrix type="matrix" values="0 0 0 0 0 0 0 0 0 0 0 0 0 0 0 0 0 0 0.1 0"/>
<feBlend mode="normal" in2="BackgroundImageFix" result="effect1_dropShadow_2141_1864"/>
<feColorMatrix in="SourceAlpha" type="matrix" values="0 0 0 0 0 0 0 0 0 0 0 0 0 0 0 0 0 0 127 0" result="hardAlpha"/>
<feOffset dy="3"/>
<feGaussianBlur stdDeviation="1.5"/>
<feColorMatrix type="matrix" values="0 0 0 0 0 0 0 0 0 0 0 0 0 0 0 0 0 0 0.09 0"/>
<feBlend mode="normal" in2="effect1_dropShadow_2141_1864" result="effect2_dropShadow_2141_1864"/>
<feColorMatrix in="SourceAlpha" type="matrix" values="0 0 0 0 0 0 0 0 0 0 0 0 0 0 0 0 0 0 127 0" result="hardAlpha"/>
<feOffset dx="1" dy="6"/>
<feGaussianBlur stdDeviation="2"/>
<feColorMatrix type="matrix" values="0 0 0 0 0 0 0 0 0 0 0 0 0 0 0 0 0 0 0.05 0"/>
<feBlend mode="normal" in2="effect2_dropShadow_2141_1864" result="effect3_dropShadow_2141_1864"/>
<feColorMatrix in="SourceAlpha" type="matrix" values="0 0 0 0 0 0 0 0 0 0 0 0 0 0 0 0 0 0 127 0" result="hardAlpha"/>
<feOffset dx="2" dy="11"/>
<feGaussianBlur stdDeviation="2"/>
<feColorMatrix type="matrix" values="0 0 0 0 0 0 0 0 0 0 0 0 0 0 0 0 0 0 0.01 0"/>
<feBlend mode="normal" in2="effect3_dropShadow_2141_1864" result="effect4_dropShadow_2141_1864"/>
<feBlend mode="normal" in="SourceGraphic" in2="effect4_dropShadow_2141_1864" result="shape"/>
</filter>
<filter id="filter2_dddd_2141_1864" x="17.2542" y="24.3384" width="71.429" height="65.6868" filterUnits="userSpaceOnUse" color-interpolation-filters="sRGB">
<feFlood flood-opacity="0" result="BackgroundImageFix"/>
<feColorMatrix in="SourceAlpha" type="matrix" values="0 0 0 0 0 0 0 0 0 0 0 0 0 0 0 0 0 0 127 0" result="hardAlpha"/>
<feOffset dy="1"/>
<feGaussianBlur stdDeviation="1"/>
<feColorMatrix type="matrix" values="0 0 0 0 0 0 0 0 0 0 0 0 0 0 0 0 0 0 0.1 0"/>
<feBlend mode="normal" in2="BackgroundImageFix" result="effect1_dropShadow_2141_1864"/>
<feColorMatrix in="SourceAlpha" type="matrix" values="0 0 0 0 0 0 0 0 0 0 0 0 0 0 0 0 0 0 127 0" result="hardAlpha"/>
<feOffset dy="3"/>
<feGaussianBlur stdDeviation="1.5"/>
<feColorMatrix type="matrix" values="0 0 0 0 0 0 0 0 0 0 0 0 0 0 0 0 0 0 0.09 0"/>
<feBlend mode="normal" in2="effect1_dropShadow_2141_1864" result="effect2_dropShadow_2141_1864"/>
<feColorMatrix in="SourceAlpha" type="matrix" values="0 0 0 0 0 0 0 0 0 0 0 0 0 0 0 0 0 0 127 0" result="hardAlpha"/>
<feOffset dy="7"/>
<feGaussianBlur stdDeviation="2"/>
<feColorMatrix type="matrix" values="0 0 0 0 0 0 0 0 0 0 0 0 0 0 0 0 0 0 0.05 0"/>
<feBlend mode="normal" in2="effect2_dropShadow_2141_1864" result="effect3_dropShadow_2141_1864"/>
<feColorMatrix in="SourceAlpha" type="matrix" values="0 0 0 0 0 0 0 0 0 0 0 0 0 0 0 0 0 0 127 0" result="hardAlpha"/>
<feOffset dy="12"/>
<feGaussianBlur stdDeviation="2.5"/>
<feColorMatrix type="matrix" values="0 0 0 0 0 0 0 0 0 0 0 0 0 0 0 0 0 0 0.01 0"/>
<feBlend mode="normal" in2="effect3_dropShadow_2141_1864" result="effect4_dropShadow_2141_1864"/>
<feBlend mode="normal" in="SourceGraphic" in2="effect4_dropShadow_2141_1864" result="shape"/>
</filter>
<filter id="filter3_dddd_2141_1864" x="15.2274" y="29.0278" width="70.429" height="62.6868" filterUnits="userSpaceOnUse" color-interpolation-filters="sRGB">
<feFlood flood-opacity="0" result="BackgroundImageFix"/>
<feColorMatrix in="SourceAlpha" type="matrix" values="0 0 0 0 0 0 0 0 0 0 0 0 0 0 0 0 0 0 127 0" result="hardAlpha"/>
<feOffset dy="1"/>
<feGaussianBlur stdDeviation="0.5"/>
<feColorMatrix type="matrix" values="0 0 0 0 0 0 0 0 0 0 0 0 0 0 0 0 0 0 0.1 0"/>
<feBlend mode="normal" in2="BackgroundImageFix" result="effect1_dropShadow_2141_1864"/>
<feColorMatrix in="SourceAlpha" type="matrix" values="0 0 0 0 0 0 0 0 0 0 0 0 0 0 0 0 0 0 127 0" result="hardAlpha"/>
<feOffset dy="3"/>
<feGaussianBlur stdDeviation="1.5"/>
<feColorMatrix type="matrix" values="0 0 0 0 0 0 0 0 0 0 0 0 0 0 0 0 0 0 0.09 0"/>
<feBlend mode="normal" in2="effect1_dropShadow_2141_1864" result="effect2_dropShadow_2141_1864"/>
<feColorMatrix in="SourceAlpha" type="matrix" values="0 0 0 0 0 0 0 0 0 0 0 0 0 0 0 0 0 0 127 0" result="hardAlpha"/>
<feOffset dx="1" dy="6"/>
<feGaussianBlur stdDeviation="2"/>
<feColorMatrix type="matrix" values="0 0 0 0 0 0 0 0 0 0 0 0 0 0 0 0 0 0 0.05 0"/>
<feBlend mode="normal" in2="effect2_dropShadow_2141_1864" result="effect3_dropShadow_2141_1864"/>
<feColorMatrix in="SourceAlpha" type="matrix" values="0 0 0 0 0 0 0 0 0 0 0 0 0 0 0 0 0 0 127 0" result="hardAlpha"/>
<feOffset dx="2" dy="11"/>
<feGaussianBlur stdDeviation="2"/>
<feColorMatrix type="matrix" values="0 0 0 0 0 0 0 0 0 0 0 0 0 0 0 0 0 0 0.01 0"/>
<feBlend mode="normal" in2="effect3_dropShadow_2141_1864" result="effect4_dropShadow_2141_1864"/>
<feBlend mode="normal" in="SourceGraphic" in2="effect4_dropShadow_2141_1864" result="shape"/>
</filter>
<linearGradient id="paint0_linear_2141_1864" x1="25.2617" y1="10.377" x2="100.168" y2="149.573" gradientUnits="userSpaceOnUse">
<stop offset="0.0001" stop-color="#50E6FF"/>
<stop offset="0.623265" stop-color="#0078D4"/>
</linearGradient>
<linearGradient id="paint1_linear_2141_1864" x1="15.5633" y1="12.1031" x2="83.1058" y2="99.5008" gradientUnits="userSpaceOnUse">
<stop stop-color="#007ED8"/>
<stop offset="0.915361" stop-color="#002D4C"/>
</linearGradient>
<linearGradient id="paint2_linear_2141_1864" x1="71.3058" y1="57.4689" x2="49.5683" y2="54.003" gradientUnits="userSpaceOnUse">
<stop stop-color="#007ED8"/>
<stop offset="0.7065" stop-color="#002D4C"/>
</linearGradient>
<linearGradient id="paint3_linear_2141_1864" x1="71.3051" y1="57.4755" x2="49.5676" y2="54.0096" gradientUnits="userSpaceOnUse">
<stop stop-color="#007ED8"/>
<stop offset="0.7065" stop-color="#002D4C"/>
</linearGradient>
<linearGradient id="paint4_linear_2141_1864" x1="44.9288" y1="53.329" x2="67.8717" y2="94.9698" gradientUnits="userSpaceOnUse">
<stop stop-color="#007ED8"/>
<stop offset="0.7065" stop-color="#002D4C"/>
</linearGradient>
<linearGradient id="paint5_linear_2141_1864" x1="43.5833" y1="54.0701" x2="66.5263" y2="95.7108" gradientUnits="userSpaceOnUse">
<stop stop-color="#007ED8"/>
<stop offset="0.7065" stop-color="#002D4C"/>
</linearGradient>
<linearGradient id="paint6_linear_2141_1864" x1="25.3086" y1="10.377" x2="100.215" y2="149.573" gradientUnits="userSpaceOnUse">
<stop offset="0.0001" stop-color="#50E6FF"/>
<stop offset="0.623265" stop-color="#0078D4"/>
</linearGradient>
<linearGradient id="paint7_linear_2141_1864" x1="15.6102" y1="12.1031" x2="83.1526" y2="99.5008" gradientUnits="userSpaceOnUse">
<stop stop-color="#007ED8"/>
<stop offset="0.915361" stop-color="#002D4C"/>
</linearGradient>
<linearGradient id="paint8_linear_2141_1864" x1="71.3559" y1="57.4689" x2="49.6185" y2="54.003" gradientUnits="userSpaceOnUse">
<stop stop-color="#007ED8"/>
<stop offset="0.7065" stop-color="#002D4C"/>
</linearGradient>
<linearGradient id="paint9_linear_2141_1864" x1="71.3549" y1="57.4755" x2="49.6174" y2="54.0096" gradientUnits="userSpaceOnUse">
<stop stop-color="#007ED8"/>
<stop offset="0.7065" stop-color="#002D4C"/>
</linearGradient>
<linearGradient id="paint10_linear_2141_1864" x1="44.9786" y1="53.329" x2="67.9215" y2="94.9698" gradientUnits="userSpaceOnUse">
<stop stop-color="#007ED8"/>
<stop offset="0.7065" stop-color="#002D4C"/>
</linearGradient>
<linearGradient id="paint11_linear_2141_1864" x1="43.6333" y1="54.0701" x2="66.5763" y2="95.7108" gradientUnits="userSpaceOnUse">
<stop stop-color="#007ED8"/>
<stop offset="0.7065" stop-color="#002D4C"/>
</linearGradient>
<linearGradient id="paint12_linear_2141_1864" x1="8.77595" y1="16.7457" x2="58.0727" y2="80.1442" gradientUnits="userSpaceOnUse">
<stop stop-color="#007ED8"/>
<stop offset="0.915361" stop-color="#002D4C"/>
</linearGradient>
<linearGradient id="paint13_linear_2141_1864" x1="30.1842" y1="44.5956" x2="57.4028" y2="72.4709" gradientUnits="userSpaceOnUse">
<stop stop-color="#007ED8"/>
<stop offset="0.915361" stop-color="#002D4C"/>
</linearGradient>
</defs>
</svg>
