<svg width="103" height="103" viewBox="0 0 103 103" fill="none" xmlns="http://www.w3.org/2000/svg">
<path d="M51.6899 98.474C25.8399 98.474 4.87988 77.524 4.87988 51.664C4.87988 25.804 25.8399 4.854 51.6899 4.854C77.5399 4.854 98.4999 25.814 98.4999 51.664C98.4999 77.514 77.5399 98.474 51.6899 98.474Z" fill="url(#paint0_linear)"/>
<path fill-rule="evenodd" clip-rule="evenodd" d="M97.5898 51.6639C97.5898 77.0139 77.0398 97.5639 51.6898 97.5639C26.3398 97.5639 5.7898 77.0139 5.7898 51.6639C5.7898 26.3139 26.3398 5.76393 51.6898 5.76393C77.0398 5.76393 97.5898 26.3139 97.5898 51.6639ZM51.6898 2.02393C79.1098 2.02393 101.33 24.2439 101.33 51.6639C101.33 79.0839 79.0998 101.304 51.6898 101.304C24.2698 101.304 2.0498 79.0739 2.0498 51.6639C2.0498 24.2439 24.2698 2.02393 51.6898 2.02393Z" fill="#F2F1F0"/>
<path fill-rule="evenodd" clip-rule="evenodd" d="M94.7799 51.664C94.7799 75.464 75.4899 94.754 51.6899 94.754C27.8899 94.754 8.59986 75.464 8.59986 51.664C8.59986 27.864 27.8899 8.57398 51.6899 8.57398C75.4899 8.57398 94.7799 27.864 94.7799 51.664ZM51.6899 4.83398C77.5499 4.83398 98.5199 25.804 98.5199 51.664C98.5199 77.524 77.5499 98.494 51.6899 98.494C25.8299 98.494 4.85986 77.524 4.85986 51.664C4.85986 25.804 25.8199 4.83398 51.6899 4.83398Z" fill="#0078D4"/>
<path d="M84.43 53.8443V46.1843L76.6 43.4543L74.68 38.2543L78.52 30.1843V29.3643L76.05 26.9043L73.17 23.6243H72.07L64.38 27.7243L59.16 26.2243L55.73 17.6143H48.18L45.57 25.4043L39.8 27.7243L30.88 23.4843L25.53 28.8143V29.7743L29.51 37.4343L27.18 43.1743L17.98 46.5943V54.2543H19.08L27.18 56.9843L29.38 62.1843L25.26 71.0743L30.61 76.5443H31.71L39.26 72.7143L44.61 74.9043L47.91 84.0643H55.6V82.9643L58.21 74.7643L63.43 72.5743L72.49 76.8143L77.84 71.4843V70.3943L74 62.7343L75.51 57.4043L84.43 53.8443ZM51.75 60.3243C46.03 59.7143 41.71 55.1143 41.71 49.6443C41.71 44.1743 46.03 39.5743 51.75 38.9643C54.74 38.9243 57.62 40.0343 59.74 42.0243C61.86 44.0143 63.06 46.7343 63.06 49.5743C63.1 52.4343 61.92 55.1943 59.79 57.2143C57.67 59.2443 54.77 60.3643 51.75 60.3243Z" fill="black"/>
<path d="M84.43 53.8443V46.1843L76.6 43.4543L74.68 38.2543L78.52 30.1843V29.3643L76.05 26.9043L73.17 23.6243H72.07L64.38 27.7243L59.16 26.2243L55.73 17.6143H48.18L45.57 25.4043L39.8 27.7243L30.88 23.4843L25.53 28.8143V29.7743L29.51 37.4343L27.18 43.1743L17.98 46.5943V54.2543H19.08L27.18 56.9843L29.38 62.1843L25.26 71.0743L30.61 76.5443H31.71L39.26 72.7143L44.61 74.9043L47.91 84.0643H55.6V82.9643L58.21 74.7643L63.43 72.5743L72.49 76.8143L77.84 71.4843V70.3943L74 62.7343L75.51 57.4043L84.43 53.8443Z" fill="url(#paint1_linear)"/>
<path d="M53.04 38.214L50.22 35.304C49.84 34.904 49.2 34.924 48.83 35.344L36.92 48.944C36.39 49.554 36.39 50.454 36.92 51.064L48.73 64.644C49.17 65.154 49.97 65.154 50.41 64.644L53.94 60.574L54.33 39.624L53.04 38.214Z" fill="url(#paint2_linear)"/>
<path d="M66.92 48.3539L55.17 35.5139C54.66 34.9739 53.8 34.9639 53.29 35.4939L47.87 41.1039C47.28 41.7139 47.27 42.6739 47.85 43.2939L53.41 49.2639C53.82 49.7039 53.82 50.3839 53.41 50.8139L47.82 56.8539C47.25 57.4739 47.26 58.4339 47.84 59.0339L53.28 64.6739C53.8 65.2139 54.66 65.2039 55.17 64.6539L66.92 51.7139C67.79 50.7639 67.79 49.3039 66.92 48.3539Z" fill="url(#paint3_linear)"/>
<path d="M67.4799 51.1142L62.2399 56.9242C61.8399 57.3642 61.1599 57.3742 60.7399 56.9542L55.4699 51.5742C54.6199 50.7042 54.6099 49.3142 55.4599 48.4342L60.6299 43.0942C61.0399 42.6642 61.7299 42.6742 62.1299 43.1142L67.4799 49.0142C68.0099 49.6042 68.0099 50.5142 67.4799 51.1142Z" fill="url(#paint4_linear)"/>
<path d="M84.15 48.8141L80.67 47.2641C80.35 47.1241 79.98 47.2641 79.83 47.5841L64.6 81.7941C63.96 83.2441 64.43 84.4941 65.89 85.1441C67.34 85.7941 68.6 85.3041 69.24 83.8541L84.47 49.6441C84.61 49.3241 84.47 48.9541 84.15 48.8141Z" fill="url(#paint5_linear)"/>
<path opacity="0.71" d="M81.89 47.8043C81.76 47.7443 81.7 47.9643 81.56 48.2843L65.58 83.9643C65.14 84.9143 65.39 84.9143 65.8 85.0943C66.21 85.2743 66.41 85.5043 66.85 84.5243L82.87 48.8643C83.01 48.5443 83.12 48.3643 82.96 48.2843L81.89 47.8043Z" fill="url(#paint6_linear)" fill-opacity="0.99"/>
<path d="M86.0299 53.9441L86.3299 53.2641C86.4699 52.9441 86.3299 52.5741 86.0099 52.4241L76.7299 48.2941C76.4099 48.1541 76.0299 48.2941 75.8899 48.6141L75.6299 49.1941L74.4099 47.2641L70.3599 45.4541C70.0399 45.3141 69.6699 45.4541 69.5199 45.7741L66.4199 52.7341C66.2799 53.0541 66.4199 53.4341 66.7399 53.5741L70.7999 55.3841L73.0599 54.9941L72.7999 55.5741C72.6599 55.8941 72.7999 56.2741 73.1199 56.4141L82.3999 60.5441C82.7199 60.6841 83.0999 60.5441 83.2399 60.2241L83.4499 59.7441C85.8499 61.3541 87.3599 64.3941 87.4699 67.9741C87.4799 68.2641 87.6899 68.5141 87.9699 68.5741C88.2499 68.6341 88.5399 68.4941 88.6699 68.2341L88.7499 68.0741C88.8099 67.9641 88.8699 67.8441 88.9199 67.7241C91.2999 62.3841 89.9699 56.5241 86.0299 53.9441Z" fill="url(#paint7_linear)"/>
<path d="M86.2199 56.6442L87.0599 54.7542C86.7399 54.4542 86.3899 54.1842 86.0299 53.9442L84.7899 56.7342L74.3499 52.0942L75.6399 49.1942L74.4199 47.2642L73.1299 50.1642C72.8399 50.8042 72.0999 51.0942 71.4599 50.8042L67.9699 49.2542L66.4199 52.7342C66.2799 53.0542 66.4199 53.4342 66.7399 53.5742L70.7999 55.3842L73.0599 54.9942L72.7999 55.5742C72.6599 55.8942 72.7999 56.2742 73.1199 56.4142L82.3999 60.5442C82.7199 60.6842 83.0899 60.5442 83.2399 60.2242L83.4499 59.7442C85.8499 61.3542 87.3599 64.3942 87.4699 67.9742C87.4799 68.2142 87.6299 68.4342 87.8499 68.5342L87.8699 68.5442C89.3399 65.2442 88.8099 61.4042 86.5199 58.6242C86.0599 58.0542 85.9199 57.3042 86.2199 56.6442Z" fill="url(#paint8_linear)"/>
<defs>
<linearGradient id="paint0_linear" x1="49.9199" y1="-13.129" x2="53.9027" y2="132.639" gradientUnits="userSpaceOnUse">
<stop stop-color="#00ABDE"/>
<stop offset="1" stop-color="#007ED8"/>
</linearGradient>
<linearGradient id="paint1_linear" x1="51.2042" y1="11.0007" x2="51.2042" y2="84.0665" gradientUnits="userSpaceOnUse">
<stop stop-color="white"/>
<stop offset="1" stop-color="#CBCBCB"/>
</linearGradient>
<linearGradient id="paint2_linear" x1="44.6778" y1="36.1298" x2="46.8637" y2="61.8141" gradientUnits="userSpaceOnUse">
<stop stop-color="#A23093"/>
<stop offset="1" stop-color="#692266"/>
</linearGradient>
<linearGradient id="paint3_linear" x1="47.3978" y1="50.0848" x2="67.5718" y2="50.0848" gradientUnits="userSpaceOnUse">
<stop stop-color="#E184C4"/>
<stop offset="1" stop-color="#D76EBC"/>
</linearGradient>
<linearGradient id="paint4_linear" x1="54.8241" y1="50.0209" x2="67.8796" y2="50.0209" gradientUnits="userSpaceOnUse">
<stop stop-color="#E89BCA"/>
<stop offset="1" stop-color="#E591C8"/>
</linearGradient>
<linearGradient id="paint5_linear" x1="83.0969" y1="70.5411" x2="68.3076" y2="63.9564" gradientUnits="userSpaceOnUse">
<stop stop-color="#32D4F5"/>
<stop offset="0.47" stop-color="#31D1F3"/>
<stop offset="0.63" stop-color="#2EC9EB"/>
<stop offset="0.77" stop-color="#29BADE"/>
<stop offset="0.89" stop-color="#22A5CB"/>
<stop offset="1" stop-color="#198AB3"/>
</linearGradient>
<linearGradient id="paint6_linear" x1="74.185" y1="66.6311" x2="72.3025" y2="65.793" gradientUnits="userSpaceOnUse">
<stop stop-color="#D2EBFF"/>
<stop offset="1" stop-color="#F0FFFD"/>
</linearGradient>
<linearGradient id="paint7_linear" x1="76.3011" y1="63.4228" x2="81.9802" y2="50.6671" gradientUnits="userSpaceOnUse">
<stop stop-color="#D2EBFF"/>
<stop offset="1" stop-color="#F0FFFD"/>
</linearGradient>
<linearGradient id="paint8_linear" x1="75.9984" y1="63.1788" x2="81.6774" y2="50.4236" gradientUnits="userSpaceOnUse">
<stop stop-color="#F0FFFD"/>
<stop offset="1" stop-color="#D2EBFF"/>
</linearGradient>
</defs>
</svg>
