<svg width="102" height="103" viewBox="0 0 102 103" fill="none" xmlns="http://www.w3.org/2000/svg">
<path d="M50.9764 98.2308C25.3799 98.2308 4.62537 77.4862 4.62537 51.8798C4.62537 26.2733 25.3799 5.52869 50.9764 5.52869C76.573 5.52869 97.3275 26.2832 97.3275 51.8798C97.3275 77.4763 76.573 98.2308 50.9764 98.2308Z" fill="url(#paint0_linear_2141_1866)"/>
<path fill-rule="evenodd" clip-rule="evenodd" d="M96.4267 51.8803C96.4267 76.9817 76.0782 97.3303 50.9767 97.3303C25.8752 97.3303 5.5267 76.9817 5.5267 51.8803C5.5267 26.7788 25.8752 6.43027 50.9767 6.43027C76.0782 6.43027 96.4267 26.7788 96.4267 51.8803ZM50.9767 2.72693C78.1279 2.72693 100.13 24.7291 100.13 51.8803C100.13 79.0314 78.118 101.034 50.9767 101.034C23.8255 101.034 1.82336 79.0215 1.82336 51.8803C1.82336 24.7291 23.8255 2.72693 50.9767 2.72693Z" fill="#F2F1F0"/>
<path fill-rule="evenodd" clip-rule="evenodd" d="M93.644 51.8798C93.644 75.4465 74.5431 94.5473 50.9765 94.5473C27.4098 94.5473 8.30892 75.4465 8.30892 51.8798C8.30892 28.3131 27.4098 9.21225 50.9765 9.21225C74.5431 9.21225 93.644 28.3131 93.644 51.8798ZM50.9765 5.50891C76.5829 5.50891 97.3474 26.2733 97.3474 51.8798C97.3474 77.4863 76.5829 98.2507 50.9765 98.2507C25.37 98.2507 4.60559 77.4863 4.60559 51.8798C4.60559 26.2733 25.3601 5.50891 50.9765 5.50891Z" fill="url(#paint1_linear_2141_1866)"/>
<path fill-rule="evenodd" clip-rule="evenodd" d="M51.8737 68.4495L52.8737 68.4395L52.4337 30.4395L51.4337 30.4495L51.8737 68.4495Z" fill="#FFFFFE"/>
<path fill-rule="evenodd" clip-rule="evenodd" d="M65.6737 60.9997L56.3537 61.1097C55.8837 61.1197 55.5037 60.6797 55.4937 60.1297C55.4837 59.5797 55.8537 59.1297 56.3337 59.1297L65.6537 59.0197C66.1237 59.0097 66.5037 59.4497 66.5137 59.9997C66.5237 60.5397 66.1437 60.9897 65.6737 60.9997Z" fill="#FFFFFE"/>
<path fill-rule="evenodd" clip-rule="evenodd" d="M77.2636 60.8598L69.7436 60.9498C69.0536 60.9598 68.4836 60.5198 68.4736 59.9698C68.4636 59.4198 69.0236 58.9698 69.7136 58.9598L77.2336 58.8698C77.9236 58.8598 78.4936 59.2998 78.5036 59.8498C78.5136 60.4098 77.9536 60.8498 77.2636 60.8598Z" fill="white"/>
<path fill-rule="evenodd" clip-rule="evenodd" d="M64.0337 43.0795L56.5137 43.1695C55.8237 43.1795 55.2537 42.7395 55.2437 42.1895C55.2337 41.6395 55.7937 41.1895 56.4837 41.1795L64.0037 41.0895C64.6937 41.0795 65.2637 41.5195 65.2737 42.0695C65.2737 42.6095 64.7237 43.0695 64.0337 43.0795Z" fill="white"/>
<path fill-rule="evenodd" clip-rule="evenodd" d="M66.5336 54.9997L56.3636 55.1197C55.8536 55.1297 55.4336 54.6897 55.4236 54.1397C55.4136 53.5897 55.8336 53.1397 56.3336 53.1397L66.5036 53.0197C67.0136 53.0097 67.4336 53.4497 67.4436 53.9997C67.4536 54.5497 67.0436 54.9897 66.5336 54.9997Z" fill="#FFFFFE"/>
<path fill-rule="evenodd" clip-rule="evenodd" d="M80.5537 54.8395L70.3837 54.9595C69.8737 54.9695 69.4537 54.5295 69.4437 53.9795C69.4337 53.4295 69.8537 52.9795 70.3537 52.9795L80.5237 52.8595C81.0337 52.8495 81.4537 53.2895 81.4637 53.8395C81.4737 54.3895 81.0737 54.8295 80.5537 54.8395Z" fill="#FFFFFE"/>
<path fill-rule="evenodd" clip-rule="evenodd" d="M56.4137 49.1397C55.8137 49.1497 55.3237 48.7097 55.3237 48.1597C55.3237 47.6097 55.7937 47.1597 56.3937 47.1597L68.2637 47.0197C68.8637 47.0097 69.3537 47.4497 69.3537 47.9997C69.3637 48.5497 68.8837 48.9997 68.2837 48.9997L56.4137 49.1397Z" fill="#FFFFFE"/>
<path fill-rule="evenodd" clip-rule="evenodd" d="M86.5737 54.7697L76.4037 54.8897C75.8937 54.8997 75.4737 54.4597 75.4637 53.9097C75.4537 53.3597 75.8737 52.9097 76.3737 52.9097L86.5437 52.7897C87.0537 52.7797 87.4737 53.2197 87.4837 53.7697C87.4937 54.3197 87.0737 54.7597 86.5737 54.7697Z" fill="#FFFFFE"/>
<g filter="url(#filter0_dddd_2141_1866)">
<path d="M44.1937 23.1597H31.7137C29.9237 23.1597 28.4537 24.6297 28.4537 26.4197V31.5197C28.4537 33.3097 29.9237 34.7797 31.7137 34.7797H35.0537V37.3597C35.0537 37.5797 35.3237 37.6897 35.4737 37.5297L38.2237 34.7797H44.1837C45.9737 34.7797 47.4437 33.3097 47.4437 31.5197V26.4197C47.4437 24.6197 45.9837 23.1597 44.1937 23.1597Z" fill="white"/>
</g>
<path d="M41.9637 27.8097H33.9437C33.6637 27.8097 33.4337 27.5797 33.4337 27.2997C33.4337 27.0197 33.6637 26.7897 33.9437 26.7897H41.9637C42.2437 26.7897 42.4737 27.0197 42.4737 27.2997C42.4737 27.5797 42.2437 27.8097 41.9637 27.8097Z" fill="url(#paint2_linear_2141_1866)"/>
<path d="M41.9637 30.2097H33.9437C33.6637 30.2097 33.4337 29.9797 33.4337 29.6997C33.4337 29.4197 33.6637 29.1897 33.9437 29.1897H41.9637C42.2437 29.1897 42.4737 29.4197 42.4737 29.6997C42.4737 29.9897 42.2437 30.2097 41.9637 30.2097Z" fill="url(#paint3_linear_2141_1866)"/>
<path d="M46.0737 58.7595V53.7395H43.5337V49.9795C43.5337 49.4595 43.4337 48.9695 43.2337 48.5095C43.0337 48.0495 42.7637 47.6595 42.4237 47.3095C42.0737 46.9695 41.6737 46.6995 41.2137 46.5095C40.7537 46.3095 40.2537 46.2195 39.7237 46.2195H30.8237V42.1295C31.2037 41.9095 31.5137 41.5995 31.7437 41.2095C31.9737 40.8195 32.0937 40.3995 32.0937 39.9495C32.0937 39.5995 32.0237 39.2695 31.8937 38.9695C31.7637 38.6695 31.5837 38.3995 31.3437 38.1795C31.1137 37.9495 30.8437 37.7695 30.5337 37.6395C30.2237 37.5095 29.9037 37.4395 29.5437 37.4395C29.1837 37.4395 28.8537 37.4995 28.5537 37.6395C28.2437 37.7695 27.9837 37.9495 27.7437 38.1795C27.5137 38.4095 27.3237 38.6695 27.1937 38.9695C27.0637 39.2695 26.9937 39.5995 26.9937 39.9495C26.9937 40.3995 27.1137 40.8095 27.3437 41.2095C27.5737 41.5995 27.8837 41.9095 28.2637 42.1295V46.2195H19.3637C18.8337 46.2195 18.3337 46.3195 17.8737 46.5095C17.4137 46.7095 17.0037 46.9795 16.6637 47.3095C16.3137 47.6495 16.0537 48.0495 15.8537 48.5095C15.6537 48.9695 15.5537 49.4595 15.5537 49.9795V53.7395H13.0137V58.7495H15.5537V65.0195C15.5537 65.5395 15.6537 66.0295 15.8537 66.4895C16.0537 66.9495 16.3237 67.3395 16.6637 67.6895C17.0137 68.0295 17.4137 68.2995 17.8737 68.4895C18.3337 68.6895 18.8337 68.7795 19.3637 68.7795H25.7237H34.4637H39.7137C40.2437 68.7795 40.7437 68.6795 41.2037 68.4895C41.6637 68.2895 42.0737 68.0195 42.4137 67.6895C42.7637 67.3495 43.0237 66.9495 43.2237 66.4895C43.4237 66.0295 43.5237 65.5395 43.5237 65.0195V58.7495H46.0737V58.7595Z" fill="#1F56A3"/>
<path d="M26.0636 56.5995H23.4536V53.9895H26.0636V56.5995Z" fill="white"/>
<path d="M35.6337 56.5995H33.0237V53.9895H35.6337V56.5995Z" fill="white"/>
<path d="M24.3037 59.2095C25.0037 59.8695 25.8037 60.3695 26.7037 60.7295C27.6037 61.0795 28.5537 61.2595 29.5437 61.2595C30.5337 61.2595 31.4837 61.0795 32.3837 60.7295C33.2837 60.3795 34.0837 59.8695 34.7837 59.2095L36.4937 60.8495C35.5637 61.7295 34.5037 62.3995 33.2937 62.8695C32.0937 63.3395 30.8337 63.5695 29.5237 63.5695C28.2137 63.5695 26.9537 63.3395 25.7537 62.8695C24.5537 62.3995 23.4837 61.7295 22.5537 60.8495L24.3037 59.2095Z" fill="white"/>
<path d="M73.1477 77.2881C78.7387 77.2881 83.2696 72.7573 83.2696 67.1663C83.2696 61.5753 78.7387 57.0444 73.1477 57.0444C67.5567 57.0444 63.0259 61.5753 63.0259 67.1663C63.0259 72.7461 67.5567 77.2881 73.1477 77.2881Z" fill="#002D4C"/>
<path d="M79.4907 62.8462C79.0259 62.3845 78.2749 62.3865 77.8126 62.8507L70.302 70.3914L68.6438 68.7259C68.1802 68.2602 67.4259 68.2619 66.9643 68.7296V68.7296C66.5078 69.1922 66.5103 69.9365 66.9699 70.3961L69.5227 72.9489C69.959 73.3853 70.6666 73.3847 71.1022 72.9476L79.4949 64.5269C79.9584 64.0619 79.9565 63.3089 79.4907 62.8462V62.8462Z" fill="#FAF9F8"/>
<path d="M51.0233 98.2308C25.4267 98.2308 4.67224 77.4862 4.67224 51.8798C4.67224 26.2733 25.4267 5.52869 51.0233 5.52869C76.6199 5.52869 97.3744 26.2832 97.3744 51.8798C97.3744 77.4763 76.6199 98.2308 51.0233 98.2308Z" fill="url(#paint4_linear_2141_1866)"/>
<path fill-rule="evenodd" clip-rule="evenodd" d="M96.4736 51.8803C96.4736 76.9817 76.125 97.3303 51.0236 97.3303C25.9221 97.3303 5.57357 76.9817 5.57357 51.8803C5.57357 26.7788 25.9221 6.43027 51.0236 6.43027C76.125 6.43027 96.4736 26.7788 96.4736 51.8803ZM51.0236 2.72693C78.1747 2.72693 100.177 24.7291 100.177 51.8803C100.177 79.0314 78.1648 101.034 51.0236 101.034C23.8724 101.034 1.87024 79.0215 1.87024 51.8803C1.87024 24.7291 23.8724 2.72693 51.0236 2.72693Z" fill="#F2F1F0"/>
<path fill-rule="evenodd" clip-rule="evenodd" d="M93.6909 51.8798C93.6909 75.4465 74.59 94.5473 51.0233 94.5473C27.4567 94.5473 8.3558 75.4465 8.3558 51.8798C8.3558 28.3131 27.4567 9.21225 51.0233 9.21225C74.59 9.21225 93.6909 28.3131 93.6909 51.8798ZM51.0233 5.50891C76.6298 5.50891 97.3942 26.2733 97.3942 51.8798C97.3942 77.4863 76.6298 98.2507 51.0233 98.2507C25.4169 98.2507 4.65247 77.4863 4.65247 51.8798C4.65247 26.2733 25.407 5.50891 51.0233 5.50891Z" fill="url(#paint5_linear_2141_1866)"/>
<path fill-rule="evenodd" clip-rule="evenodd" d="M51.9206 68.4495L52.9206 68.4395L52.4806 30.4395L51.4806 30.4495L51.9206 68.4495Z" fill="#FFFFFE"/>
<path fill-rule="evenodd" clip-rule="evenodd" d="M65.7206 60.9997L56.4006 61.1097C55.9306 61.1197 55.5506 60.6797 55.5406 60.1297C55.5306 59.5797 55.9006 59.1297 56.3806 59.1297L65.7006 59.0197C66.1706 59.0097 66.5506 59.4497 66.5606 59.9997C66.5706 60.5397 66.1906 60.9897 65.7206 60.9997Z" fill="#FFFFFE"/>
<path fill-rule="evenodd" clip-rule="evenodd" d="M77.3105 60.8598L69.7905 60.9498C69.1005 60.9598 68.5305 60.5198 68.5205 59.9698C68.5105 59.4198 69.0705 58.9698 69.7605 58.9598L77.2805 58.8698C77.9705 58.8598 78.5405 59.2998 78.5505 59.8498C78.5605 60.4098 78.0005 60.8498 77.3105 60.8598Z" fill="white"/>
<path fill-rule="evenodd" clip-rule="evenodd" d="M64.0805 43.0795L56.5605 43.1695C55.8705 43.1795 55.3005 42.7395 55.2905 42.1895C55.2805 41.6395 55.8405 41.1895 56.5305 41.1795L64.0505 41.0895C64.7405 41.0795 65.3105 41.5195 65.3205 42.0695C65.3205 42.6095 64.7705 43.0695 64.0805 43.0795Z" fill="white"/>
<path fill-rule="evenodd" clip-rule="evenodd" d="M66.5805 54.9997L56.4105 55.1197C55.9005 55.1297 55.4805 54.6897 55.4705 54.1397C55.4605 53.5897 55.8805 53.1397 56.3805 53.1397L66.5505 53.0197C67.0605 53.0097 67.4805 53.4497 67.4905 53.9997C67.5005 54.5497 67.0905 54.9897 66.5805 54.9997Z" fill="#FFFFFE"/>
<path fill-rule="evenodd" clip-rule="evenodd" d="M80.6005 54.8395L70.4305 54.9595C69.9205 54.9695 69.5005 54.5295 69.4905 53.9795C69.4805 53.4295 69.9005 52.9795 70.4005 52.9795L80.5705 52.8595C81.0805 52.8495 81.5005 53.2895 81.5105 53.8395C81.5205 54.3895 81.1205 54.8295 80.6005 54.8395Z" fill="#FFFFFE"/>
<path fill-rule="evenodd" clip-rule="evenodd" d="M56.4606 49.1397C55.8606 49.1497 55.3706 48.7097 55.3706 48.1597C55.3706 47.6097 55.8406 47.1597 56.4406 47.1597L68.3106 47.0197C68.9106 47.0097 69.4006 47.4497 69.4006 47.9997C69.4106 48.5497 68.9306 48.9997 68.3306 48.9997L56.4606 49.1397Z" fill="#FFFFFE"/>
<path fill-rule="evenodd" clip-rule="evenodd" d="M86.6206 54.7697L76.4506 54.8897C75.9406 54.8997 75.5206 54.4597 75.5106 53.9097C75.5006 53.3597 75.9206 52.9097 76.4206 52.9097L86.5906 52.7897C87.1006 52.7797 87.5206 53.2197 87.5306 53.7697C87.5406 54.3197 87.1206 54.7597 86.6206 54.7697Z" fill="#FFFFFE"/>
<g filter="url(#filter1_dddd_2141_1866)">
<path d="M44.2406 23.1597H31.7606C29.9706 23.1597 28.5006 24.6297 28.5006 26.4197V31.5197C28.5006 33.3097 29.9706 34.7797 31.7606 34.7797H35.1006V37.3597C35.1006 37.5797 35.3706 37.6897 35.5206 37.5297L38.2706 34.7797H44.2306C46.0206 34.7797 47.4906 33.3097 47.4906 31.5197V26.4197C47.4906 24.6197 46.0306 23.1597 44.2406 23.1597Z" fill="white"/>
</g>
<path d="M42.0106 27.8097H33.9906C33.7106 27.8097 33.4806 27.5797 33.4806 27.2997C33.4806 27.0197 33.7106 26.7897 33.9906 26.7897H42.0106C42.2906 26.7897 42.5206 27.0197 42.5206 27.2997C42.5206 27.5797 42.2906 27.8097 42.0106 27.8097Z" fill="url(#paint6_linear_2141_1866)"/>
<path d="M42.0106 30.2097H33.9906C33.7106 30.2097 33.4806 29.9797 33.4806 29.6997C33.4806 29.4197 33.7106 29.1897 33.9906 29.1897H42.0106C42.2906 29.1897 42.5206 29.4197 42.5206 29.6997C42.5206 29.9897 42.2906 30.2097 42.0106 30.2097Z" fill="url(#paint7_linear_2141_1866)"/>
<path d="M46.1205 58.7595V53.7395H43.5805V49.9795C43.5805 49.4595 43.4805 48.9695 43.2805 48.5095C43.0805 48.0495 42.8105 47.6595 42.4705 47.3095C42.1205 46.9695 41.7205 46.6995 41.2605 46.5095C40.8005 46.3095 40.3005 46.2195 39.7705 46.2195H30.8705V42.1295C31.2505 41.9095 31.5605 41.5995 31.7905 41.2095C32.0205 40.8195 32.1405 40.3995 32.1405 39.9495C32.1405 39.5995 32.0705 39.2695 31.9405 38.9695C31.8105 38.6695 31.6305 38.3995 31.3905 38.1795C31.1605 37.9495 30.8905 37.7695 30.5805 37.6395C30.2705 37.5095 29.9505 37.4395 29.5905 37.4395C29.2305 37.4395 28.9005 37.4995 28.6005 37.6395C28.2905 37.7695 28.0305 37.9495 27.7905 38.1795C27.5605 38.4095 27.3705 38.6695 27.2405 38.9695C27.1105 39.2695 27.0405 39.5995 27.0405 39.9495C27.0405 40.3995 27.1605 40.8095 27.3905 41.2095C27.6205 41.5995 27.9305 41.9095 28.3105 42.1295V46.2195H19.4105C18.8805 46.2195 18.3805 46.3195 17.9205 46.5095C17.4605 46.7095 17.0505 46.9795 16.7105 47.3095C16.3605 47.6495 16.1005 48.0495 15.9005 48.5095C15.7005 48.9695 15.6005 49.4595 15.6005 49.9795V53.7395H13.0605V58.7495H15.6005V65.0195C15.6005 65.5395 15.7005 66.0295 15.9005 66.4895C16.1005 66.9495 16.3705 67.3395 16.7105 67.6895C17.0605 68.0295 17.4605 68.2995 17.9205 68.4895C18.3805 68.6895 18.8805 68.7795 19.4105 68.7795H25.7705H34.5105H39.7605C40.2905 68.7795 40.7905 68.6795 41.2505 68.4895C41.7105 68.2895 42.1205 68.0195 42.4605 67.6895C42.8105 67.3495 43.0705 66.9495 43.2705 66.4895C43.4705 66.0295 43.5705 65.5395 43.5705 65.0195V58.7495H46.1205V58.7595Z" fill="url(#paint8_linear_2141_1866)"/>
<path d="M26.1105 56.5995H23.5005V53.9895H26.1105V56.5995Z" fill="white"/>
<path d="M35.6806 56.5995H33.0706V53.9895H35.6806V56.5995Z" fill="white"/>
<path d="M24.3506 59.2095C25.0506 59.8695 25.8506 60.3695 26.7506 60.7295C27.6506 61.0795 28.6006 61.2595 29.5906 61.2595C30.5806 61.2595 31.5306 61.0795 32.4306 60.7295C33.3306 60.3795 34.1306 59.8695 34.8306 59.2095L36.5406 60.8495C35.6106 61.7295 34.5506 62.3995 33.3406 62.8695C32.1406 63.3395 30.8806 63.5695 29.5706 63.5695C28.2606 63.5695 27.0006 63.3395 25.8006 62.8695C24.6006 62.3995 23.5306 61.7295 22.6006 60.8495L24.3506 59.2095Z" fill="white"/>
<path d="M68.2937 77.5606C73.8847 77.5606 78.4156 73.0298 78.4156 67.4387C78.4156 61.8477 73.8847 57.3169 68.2937 57.3169C62.7027 57.3169 58.1719 61.8477 58.1719 67.4387C58.1719 73.0186 62.7027 77.5606 68.2937 77.5606Z" fill="#002D4C"/>
<path d="M74.6367 63.1187C74.1719 62.657 73.4209 62.659 72.9586 63.1232L65.448 70.6639L63.7898 68.9984C63.3262 68.5327 62.5719 68.5344 62.1103 69.0021V69.0021C61.6538 69.4647 61.6563 70.209 62.1159 70.6686L64.6687 73.2214C65.105 73.6577 65.8126 73.6571 66.2482 73.2201L74.6409 64.7993C75.1044 64.3343 75.1025 63.5814 74.6367 63.1187V63.1187Z" fill="#FAF9F8"/>
<defs>
<filter id="filter0_dddd_2141_1866" x="24.4537" y="23.1597" width="26.99" height="28.4459" filterUnits="userSpaceOnUse" color-interpolation-filters="sRGB">
<feFlood flood-opacity="0" result="BackgroundImageFix"/>
<feColorMatrix in="SourceAlpha" type="matrix" values="0 0 0 0 0 0 0 0 0 0 0 0 0 0 0 0 0 0 127 0" result="hardAlpha"/>
<feOffset dy="1"/>
<feGaussianBlur stdDeviation="0.5"/>
<feColorMatrix type="matrix" values="0 0 0 0 0 0 0 0 0 0 0 0 0 0 0 0 0 0 0.1 0"/>
<feBlend mode="normal" in2="BackgroundImageFix" result="effect1_dropShadow_2141_1866"/>
<feColorMatrix in="SourceAlpha" type="matrix" values="0 0 0 0 0 0 0 0 0 0 0 0 0 0 0 0 0 0 127 0" result="hardAlpha"/>
<feOffset dy="2"/>
<feGaussianBlur stdDeviation="1"/>
<feColorMatrix type="matrix" values="0 0 0 0 0 0 0 0 0 0 0 0 0 0 0 0 0 0 0.09 0"/>
<feBlend mode="normal" in2="effect1_dropShadow_2141_1866" result="effect2_dropShadow_2141_1866"/>
<feColorMatrix in="SourceAlpha" type="matrix" values="0 0 0 0 0 0 0 0 0 0 0 0 0 0 0 0 0 0 127 0" result="hardAlpha"/>
<feOffset dy="5"/>
<feGaussianBlur stdDeviation="1.5"/>
<feColorMatrix type="matrix" values="0 0 0 0 0 0 0 0 0 0 0 0 0 0 0 0 0 0 0.05 0"/>
<feBlend mode="normal" in2="effect2_dropShadow_2141_1866" result="effect3_dropShadow_2141_1866"/>
<feColorMatrix in="SourceAlpha" type="matrix" values="0 0 0 0 0 0 0 0 0 0 0 0 0 0 0 0 0 0 127 0" result="hardAlpha"/>
<feOffset dy="10"/>
<feGaussianBlur stdDeviation="2"/>
<feColorMatrix type="matrix" values="0 0 0 0 0 0 0 0 0 0 0 0 0 0 0 0 0 0 0.01 0"/>
<feBlend mode="normal" in2="effect3_dropShadow_2141_1866" result="effect4_dropShadow_2141_1866"/>
<feBlend mode="normal" in="SourceGraphic" in2="effect4_dropShadow_2141_1866" result="shape"/>
</filter>
<filter id="filter1_dddd_2141_1866" x="24.5006" y="23.1597" width="26.99" height="28.4459" filterUnits="userSpaceOnUse" color-interpolation-filters="sRGB">
<feFlood flood-opacity="0" result="BackgroundImageFix"/>
<feColorMatrix in="SourceAlpha" type="matrix" values="0 0 0 0 0 0 0 0 0 0 0 0 0 0 0 0 0 0 127 0" result="hardAlpha"/>
<feOffset dy="1"/>
<feGaussianBlur stdDeviation="0.5"/>
<feColorMatrix type="matrix" values="0 0 0 0 0 0 0 0 0 0 0 0 0 0 0 0 0 0 0.1 0"/>
<feBlend mode="normal" in2="BackgroundImageFix" result="effect1_dropShadow_2141_1866"/>
<feColorMatrix in="SourceAlpha" type="matrix" values="0 0 0 0 0 0 0 0 0 0 0 0 0 0 0 0 0 0 127 0" result="hardAlpha"/>
<feOffset dy="2"/>
<feGaussianBlur stdDeviation="1"/>
<feColorMatrix type="matrix" values="0 0 0 0 0 0 0 0 0 0 0 0 0 0 0 0 0 0 0.09 0"/>
<feBlend mode="normal" in2="effect1_dropShadow_2141_1866" result="effect2_dropShadow_2141_1866"/>
<feColorMatrix in="SourceAlpha" type="matrix" values="0 0 0 0 0 0 0 0 0 0 0 0 0 0 0 0 0 0 127 0" result="hardAlpha"/>
<feOffset dy="5"/>
<feGaussianBlur stdDeviation="1.5"/>
<feColorMatrix type="matrix" values="0 0 0 0 0 0 0 0 0 0 0 0 0 0 0 0 0 0 0.05 0"/>
<feBlend mode="normal" in2="effect2_dropShadow_2141_1866" result="effect3_dropShadow_2141_1866"/>
<feColorMatrix in="SourceAlpha" type="matrix" values="0 0 0 0 0 0 0 0 0 0 0 0 0 0 0 0 0 0 127 0" result="hardAlpha"/>
<feOffset dy="10"/>
<feGaussianBlur stdDeviation="2"/>
<feColorMatrix type="matrix" values="0 0 0 0 0 0 0 0 0 0 0 0 0 0 0 0 0 0 0.01 0"/>
<feBlend mode="normal" in2="effect3_dropShadow_2141_1866" result="effect4_dropShadow_2141_1866"/>
<feBlend mode="normal" in="SourceGraphic" in2="effect4_dropShadow_2141_1866" result="shape"/>
</filter>
<linearGradient id="paint0_linear_2141_1866" x1="25.2617" y1="10.3768" x2="100.168" y2="149.573" gradientUnits="userSpaceOnUse">
<stop offset="0.0001" stop-color="#50E6FF"/>
<stop offset="0.623265" stop-color="#0078D4"/>
</linearGradient>
<linearGradient id="paint1_linear_2141_1866" x1="15.5633" y1="12.103" x2="83.1058" y2="99.5007" gradientUnits="userSpaceOnUse">
<stop stop-color="#007ED8"/>
<stop offset="0.915361" stop-color="#002D4C"/>
</linearGradient>
<linearGradient id="paint2_linear_2141_1866" x1="34.3549" y1="26.6773" x2="42.5615" y2="26.7705" gradientUnits="userSpaceOnUse">
<stop stop-color="#F0C70A"/>
<stop offset="0.335" stop-color="#3BA998"/>
<stop offset="0.675" stop-color="#0E91E2"/>
<stop offset="0.95" stop-color="#24ADF5"/>
</linearGradient>
<linearGradient id="paint3_linear_2141_1866" x1="33.7021" y1="29.7547" x2="43.8671" y2="30.0345" gradientUnits="userSpaceOnUse">
<stop stop-color="#FFAD55"/>
<stop offset="0.305" stop-color="#F77579"/>
<stop offset="0.625" stop-color="#E056A0"/>
<stop offset="1" stop-color="#B66FF0"/>
</linearGradient>
<linearGradient id="paint4_linear_2141_1866" x1="25.3086" y1="10.3768" x2="100.215" y2="149.573" gradientUnits="userSpaceOnUse">
<stop offset="0.0001" stop-color="#50E6FF"/>
<stop offset="0.623265" stop-color="#0078D4"/>
</linearGradient>
<linearGradient id="paint5_linear_2141_1866" x1="15.6102" y1="12.103" x2="83.1526" y2="99.5007" gradientUnits="userSpaceOnUse">
<stop stop-color="#007ED8"/>
<stop offset="0.915361" stop-color="#002D4C"/>
</linearGradient>
<linearGradient id="paint6_linear_2141_1866" x1="34.4018" y1="26.6773" x2="42.6084" y2="26.7705" gradientUnits="userSpaceOnUse">
<stop stop-color="#F0C70A"/>
<stop offset="0.335" stop-color="#3BA998"/>
<stop offset="0.675" stop-color="#0E91E2"/>
<stop offset="0.95" stop-color="#24ADF5"/>
</linearGradient>
<linearGradient id="paint7_linear_2141_1866" x1="33.749" y1="29.7547" x2="43.914" y2="30.0345" gradientUnits="userSpaceOnUse">
<stop stop-color="#FFAD55"/>
<stop offset="0.305" stop-color="#F77579"/>
<stop offset="0.625" stop-color="#E056A0"/>
<stop offset="1" stop-color="#B66FF0"/>
</linearGradient>
<linearGradient id="paint8_linear_2141_1866" x1="17.5811" y1="36.9632" x2="43.671" y2="92.3702" gradientUnits="userSpaceOnUse">
<stop stop-color="#007ED8"/>
<stop offset="0.7065" stop-color="#002D4C"/>
</linearGradient>
</defs>
</svg>
