<svg width="103" height="102" viewBox="0 0 103 102" fill="none" xmlns="http://www.w3.org/2000/svg">
<g clip-path="url(#clip0_1626_1190)">
<path d="M50.5892 96.851C24.9927 96.851 4.23816 76.1064 4.23816 50.4999C4.23816 24.8935 24.9927 4.14886 50.5892 4.14886C76.1858 4.14886 96.9403 24.9034 96.9403 50.4999C96.9403 76.0965 76.1858 96.851 50.5892 96.851Z" fill="url(#paint0_linear_1626_1190)"/>
<path fill-rule="evenodd" clip-rule="evenodd" d="M96.0395 50.5003C96.0395 75.6018 75.691 95.9503 50.5895 95.9503C25.488 95.9503 5.13949 75.6018 5.13949 50.5003C5.13949 25.3989 25.488 5.05035 50.5895 5.05035C75.691 5.05035 96.0395 25.3989 96.0395 50.5003ZM50.5895 1.34702C77.7407 1.34702 99.7428 23.3492 99.7428 50.5003C99.7428 77.6515 77.7308 99.6537 50.5895 99.6537C23.4383 99.6537 1.43616 77.6416 1.43616 50.5003C1.43616 23.3492 23.4383 1.34702 50.5895 1.34702Z" fill="#F2F1F0"/>
<path fill-rule="evenodd" clip-rule="evenodd" d="M93.2568 50.4999C93.2568 74.0666 74.1559 93.1675 50.5893 93.1675C27.0226 93.1675 7.92172 74.0666 7.92172 50.4999C7.92172 26.9333 27.0226 7.83238 50.5893 7.83238C74.1559 7.83238 93.2568 26.9333 93.2568 50.4999ZM50.5893 4.12904C76.1957 4.12904 96.9601 24.8935 96.9601 50.4999C96.9601 76.1064 76.1957 96.8708 50.5893 96.8708C24.9828 96.8708 4.21838 76.1064 4.21838 50.4999C4.21838 24.8935 24.9729 4.12904 50.5893 4.12904Z" fill="url(#paint1_linear_1626_1190)"/>
<g filter="url(#filter0_ddddd_1626_1190)">
<g filter="url(#filter1_ddddd_1626_1190)">
<path d="M83.5915 29.4732V28.742C83.5915 27.8366 82.5669 27.1053 81.2984 27.1053H19.8639C18.5954 27.1053 17.5708 27.8366 17.5708 28.742V29.5545V30.2974V72.258C17.5708 73.1634 18.5954 73.8946 19.8639 73.8946H81.3146C82.5832 73.8946 83.6078 73.1634 83.6078 72.258V29.5545C83.6078 29.5255 83.5915 29.5023 83.5915 29.4732Z" fill="white"/>
</g>
</g>
<path d="M57.4449 38.313H47.3257C46.538 38.313 45.8994 38.9515 45.8994 39.7392V60.6923" stroke="#78787D" stroke-width="0.760665" stroke-miterlimit="10" stroke-linejoin="round"/>
<path d="M62.1562 50.5772H68.5369" stroke="#78787D" stroke-width="0.950831" stroke-miterlimit="10" stroke-linejoin="round"/>
<path d="M67.0724 49.6553C67.0724 49.2893 67.4687 49.0606 67.7857 49.2437L69.3846 50.1676C69.7015 50.3507 69.7013 50.8084 69.3841 50.9912L67.7851 51.9124C67.4682 52.095 67.0724 51.8662 67.0724 51.5004V49.6553Z" fill="#78787D"/>
<path d="M47.3438 50.5772H53.7244" stroke="#78787D" stroke-width="0.950831" stroke-miterlimit="10" stroke-linejoin="round"/>
<path d="M52.2609 49.6553C52.2609 49.2893 52.6572 49.0606 52.9741 49.2437L54.573 50.1676C54.89 50.3507 54.8897 50.8084 54.5725 50.9912L52.9736 51.9124C52.6567 52.095 52.2609 51.8662 52.2609 51.5004V49.6553Z" fill="#78787D"/>
<path d="M33.8462 50.5772H40.2268" stroke="#78787D" stroke-width="0.950831" stroke-miterlimit="10" stroke-linejoin="round"/>
<path d="M38.762 49.6553C38.762 49.2893 39.1583 49.0606 39.4752 49.2437L41.0741 50.1676C41.3911 50.3507 41.3908 50.8084 41.0736 50.9912L39.4747 51.9124C39.1578 52.095 38.762 51.8662 38.762 51.5004V49.6553Z" fill="#78787D"/>
<g filter="url(#filter2_ddddd_1626_1190)">
<path d="M64.5631 34.3188H56.2936V42.6206H64.5954V34.3188H64.5631Z" fill="#065D78"/>
<path d="M80.5195 50.5366L75.674 45.6912L70.8286 50.5366L75.674 55.3821L80.5195 50.5366Z" fill="#0B8789"/>
<path d="M50.0604 46.4007H41.7585V54.6702H50.0604V46.4007Z" fill="#31B17C"/>
<path d="M47.7985 58.6115H44.0514C42.7916 58.6115 41.7902 59.6129 41.7902 60.8727V64.6199C41.7902 65.8797 42.7916 66.8811 44.0514 66.8811H47.7985C49.0583 66.8811 50.0597 65.8797 50.0597 64.6199V60.8727C50.0597 59.6129 49.026 58.6115 47.7985 58.6115Z" fill="#2EAD87"/>
<path d="M48.3156 34.3188H43.5348L41.1444 38.4536L43.5348 42.5883H48.3156L50.7061 38.4536L48.3156 34.3188Z" fill="#1B9D90"/>
<path d="M31.3879 55.2521C34.0044 55.2521 36.1041 53.1525 36.1041 50.5359C36.1041 47.9194 34.0044 45.8197 31.3879 45.8197C28.7713 45.8197 26.6716 47.9194 26.6716 50.5359C26.6716 53.1525 28.7713 55.2521 31.3879 55.2521Z" fill="#6ACC85"/>
<path d="M60.4262 55.2521C63.0427 55.2521 65.1424 53.1525 65.1424 50.5359C65.1424 47.9194 63.0427 45.8197 60.4262 45.8197C57.8096 45.8197 55.71 47.9194 55.71 50.5359C55.71 53.1525 57.842 55.2521 60.4262 55.2521Z" fill="#019280"/>
</g>
<g filter="url(#filter3_ddddd_1626_1190)">
<rect x="12.7153" y="38.1053" width="23.979" height="23.979" rx="1.5" fill="white"/>
</g>
<path d="M24.0443 51.3978C23.9736 51.3801 21.56 56.2128 20.4777 58.3878C20.4302 58.4833 20.3569 58.5635 20.2662 58.6195C20.1754 58.6755 20.0708 58.7049 19.9641 58.7044C19.8575 58.704 19.7531 58.6736 19.6629 58.6168C19.5726 58.5601 19.5001 58.4791 19.4534 58.3832L17.2911 54.1194C17.197 53.9339 17.1523 53.7272 17.1613 53.5194C17.1703 53.3115 17.2327 53.1095 17.3426 52.9329C17.4524 52.7562 17.6059 52.6108 17.7883 52.5108C17.9707 52.4107 18.1758 52.3594 18.3838 52.3617L19.5079 52.3739L21.9346 51.5348L24.0443 51.3978Z" fill="url(#paint2_linear_1626_1190)"/>
<path d="M22.4498 42.7045L20.7715 46.0815C20.7242 46.1772 20.7021 46.2833 20.7071 46.3899C20.7122 46.4964 20.7443 46.6 20.8004 46.6907C20.8566 46.7815 20.9349 46.8564 21.028 46.9086C21.121 46.9607 21.2259 46.9883 21.3326 46.9887L28.0563 47.0082C28.0563 47.0082 28.7821 47.0989 29.2357 47.4278C29.6893 47.7567 29.9496 48.2443 29.9496 48.2443L29.995 47.7226H30.1311C30.8318 47.7226 31.5039 47.4443 31.9994 46.9487C32.4949 46.4532 32.7733 45.7812 32.7733 45.0804C32.7733 44.3616 32.4878 43.6722 31.9795 43.164C31.4712 42.6557 30.7818 42.3701 30.063 42.3701H22.9873C22.8755 42.3702 22.7658 42.4015 22.6709 42.4606C22.5759 42.5197 22.4993 42.6041 22.4498 42.7045Z" fill="url(#paint3_linear_1626_1190)"/>
<path d="M30.7374 47.6532C30.6984 47.6628 30.659 47.6709 30.6195 47.6782H30.7002L30.7374 47.6532Z" fill="url(#paint4_linear_1626_1190)"/>
<path d="M30.7374 47.6532L30.6195 47.6782C30.4593 47.7083 30.2966 47.7235 30.1337 47.7236L20.7482 47.6782C20.5151 47.6782 20.2866 47.743 20.0883 47.8653C19.8899 47.9876 19.7293 48.1626 19.6246 48.3708L17.2854 53.008L17.2936 53.0048C17.3833 52.8115 17.527 52.6482 17.7073 52.5345C17.8876 52.4208 18.0969 52.3615 18.3101 52.3639L18.9279 52.3684L27.769 52.3503C28.2526 52.3504 28.7269 52.2172 29.1397 51.9654C29.5525 51.7136 29.888 51.3528 30.1092 50.9228L31.7789 47.6782L32.3005 46.6009L32.2905 46.6072C31.9179 47.1338 31.3655 47.5059 30.7374 47.6532Z" fill="url(#paint5_linear_1626_1190)"/>
</g>
<defs>
<filter id="filter0_ddddd_1626_1190" x="14.5708" y="26.1053" width="72.037" height="58.7893" filterUnits="userSpaceOnUse" color-interpolation-filters="sRGB">
<feFlood flood-opacity="0" result="BackgroundImageFix"/>
<feColorMatrix in="SourceAlpha" type="matrix" values="0 0 0 0 0 0 0 0 0 0 0 0 0 0 0 0 0 0 127 0" result="hardAlpha"/>
<feOffset/>
<feColorMatrix type="matrix" values="0 0 0 0 0 0 0 0 0 0 0 0 0 0 0 0 0 0 0.1 0"/>
<feBlend mode="normal" in2="BackgroundImageFix" result="effect1_dropShadow_1626_1190"/>
<feColorMatrix in="SourceAlpha" type="matrix" values="0 0 0 0 0 0 0 0 0 0 0 0 0 0 0 0 0 0 127 0" result="hardAlpha"/>
<feOffset/>
<feGaussianBlur stdDeviation="0.5"/>
<feColorMatrix type="matrix" values="0 0 0 0 0 0 0 0 0 0 0 0 0 0 0 0 0 0 0.1 0"/>
<feBlend mode="normal" in2="effect1_dropShadow_1626_1190" result="effect2_dropShadow_1626_1190"/>
<feColorMatrix in="SourceAlpha" type="matrix" values="0 0 0 0 0 0 0 0 0 0 0 0 0 0 0 0 0 0 127 0" result="hardAlpha"/>
<feOffset dy="2"/>
<feGaussianBlur stdDeviation="1"/>
<feColorMatrix type="matrix" values="0 0 0 0 0 0 0 0 0 0 0 0 0 0 0 0 0 0 0.09 0"/>
<feBlend mode="normal" in2="effect2_dropShadow_1626_1190" result="effect3_dropShadow_1626_1190"/>
<feColorMatrix in="SourceAlpha" type="matrix" values="0 0 0 0 0 0 0 0 0 0 0 0 0 0 0 0 0 0 127 0" result="hardAlpha"/>
<feOffset dy="4"/>
<feGaussianBlur stdDeviation="1.5"/>
<feColorMatrix type="matrix" values="0 0 0 0 0 0 0 0 0 0 0 0 0 0 0 0 0 0 0.05 0"/>
<feBlend mode="normal" in2="effect3_dropShadow_1626_1190" result="effect4_dropShadow_1626_1190"/>
<feColorMatrix in="SourceAlpha" type="matrix" values="0 0 0 0 0 0 0 0 0 0 0 0 0 0 0 0 0 0 127 0" result="hardAlpha"/>
<feOffset dy="8"/>
<feGaussianBlur stdDeviation="1.5"/>
<feColorMatrix type="matrix" values="0 0 0 0 0 0 0 0 0 0 0 0 0 0 0 0 0 0 0.01 0"/>
<feBlend mode="normal" in2="effect4_dropShadow_1626_1190" result="effect5_dropShadow_1626_1190"/>
<feBlend mode="normal" in="SourceGraphic" in2="effect5_dropShadow_1626_1190" result="shape"/>
</filter>
<filter id="filter1_ddddd_1626_1190" x="7.92509" y="25.1762" width="85.3284" height="85.3721" filterUnits="userSpaceOnUse" color-interpolation-filters="sRGB">
<feFlood flood-opacity="0" result="BackgroundImageFix"/>
<feColorMatrix in="SourceAlpha" type="matrix" values="0 0 0 0 0 0 0 0 0 0 0 0 0 0 0 0 0 0 127 0" result="hardAlpha"/>
<feOffset/>
<feColorMatrix type="matrix" values="0 0 0 0 0 0 0 0 0 0 0 0 0 0 0 0 0 0 0.1 0"/>
<feBlend mode="normal" in2="BackgroundImageFix" result="effect1_dropShadow_1626_1190"/>
<feColorMatrix in="SourceAlpha" type="matrix" values="0 0 0 0 0 0 0 0 0 0 0 0 0 0 0 0 0 0 127 0" result="hardAlpha"/>
<feOffset dy="1.92914"/>
<feGaussianBlur stdDeviation="1.92914"/>
<feColorMatrix type="matrix" values="0 0 0 0 0 0 0 0 0 0 0 0 0 0 0 0 0 0 0.1 0"/>
<feBlend mode="normal" in2="effect1_dropShadow_1626_1190" result="effect2_dropShadow_1626_1190"/>
<feColorMatrix in="SourceAlpha" type="matrix" values="0 0 0 0 0 0 0 0 0 0 0 0 0 0 0 0 0 0 127 0" result="hardAlpha"/>
<feOffset dy="5.78742"/>
<feGaussianBlur stdDeviation="2.89371"/>
<feColorMatrix type="matrix" values="0 0 0 0 0 0 0 0 0 0 0 0 0 0 0 0 0 0 0.09 0"/>
<feBlend mode="normal" in2="effect2_dropShadow_1626_1190" result="effect3_dropShadow_1626_1190"/>
<feColorMatrix in="SourceAlpha" type="matrix" values="0 0 0 0 0 0 0 0 0 0 0 0 0 0 0 0 0 0 127 0" result="hardAlpha"/>
<feOffset dy="15.4331"/>
<feGaussianBlur stdDeviation="4.82285"/>
<feColorMatrix type="matrix" values="0 0 0 0 0 0 0 0 0 0 0 0 0 0 0 0 0 0 0.05 0"/>
<feBlend mode="normal" in2="effect3_dropShadow_1626_1190" result="effect4_dropShadow_1626_1190"/>
<feColorMatrix in="SourceAlpha" type="matrix" values="0 0 0 0 0 0 0 0 0 0 0 0 0 0 0 0 0 0 127 0" result="hardAlpha"/>
<feOffset dy="27.008"/>
<feGaussianBlur stdDeviation="4.82285"/>
<feColorMatrix type="matrix" values="0 0 0 0 0 0 0 0 0 0 0 0 0 0 0 0 0 0 0.01 0"/>
<feBlend mode="normal" in2="effect4_dropShadow_1626_1190" result="effect5_dropShadow_1626_1190"/>
<feBlend mode="normal" in="SourceGraphic" in2="effect5_dropShadow_1626_1190" result="shape"/>
</filter>
<filter id="filter2_ddddd_1626_1190" x="17.1633" y="33.368" width="72.8645" height="66.7922" filterUnits="userSpaceOnUse" color-interpolation-filters="sRGB">
<feFlood flood-opacity="0" result="BackgroundImageFix"/>
<feColorMatrix in="SourceAlpha" type="matrix" values="0 0 0 0 0 0 0 0 0 0 0 0 0 0 0 0 0 0 127 0" result="hardAlpha"/>
<feOffset/>
<feColorMatrix type="matrix" values="0 0 0 0 0 0 0 0 0 0 0 0 0 0 0 0 0 0 0.1 0"/>
<feBlend mode="normal" in2="BackgroundImageFix" result="effect1_dropShadow_1626_1190"/>
<feColorMatrix in="SourceAlpha" type="matrix" values="0 0 0 0 0 0 0 0 0 0 0 0 0 0 0 0 0 0 127 0" result="hardAlpha"/>
<feOffset dy="1.90166"/>
<feGaussianBlur stdDeviation="1.42625"/>
<feColorMatrix type="matrix" values="0 0 0 0 0 0 0 0 0 0 0 0 0 0 0 0 0 0 0.1 0"/>
<feBlend mode="normal" in2="effect1_dropShadow_1626_1190" result="effect2_dropShadow_1626_1190"/>
<feColorMatrix in="SourceAlpha" type="matrix" values="0 0 0 0 0 0 0 0 0 0 0 0 0 0 0 0 0 0 127 0" result="hardAlpha"/>
<feOffset dy="5.70499"/>
<feGaussianBlur stdDeviation="2.85249"/>
<feColorMatrix type="matrix" values="0 0 0 0 0 0 0 0 0 0 0 0 0 0 0 0 0 0 0.09 0"/>
<feBlend mode="normal" in2="effect2_dropShadow_1626_1190" result="effect3_dropShadow_1626_1190"/>
<feColorMatrix in="SourceAlpha" type="matrix" values="0 0 0 0 0 0 0 0 0 0 0 0 0 0 0 0 0 0 127 0" result="hardAlpha"/>
<feOffset dy="13.3116"/>
<feGaussianBlur stdDeviation="4.27874"/>
<feColorMatrix type="matrix" values="0 0 0 0 0 0 0 0 0 0 0 0 0 0 0 0 0 0 0.05 0"/>
<feBlend mode="normal" in2="effect3_dropShadow_1626_1190" result="effect4_dropShadow_1626_1190"/>
<feColorMatrix in="SourceAlpha" type="matrix" values="0 0 0 0 0 0 0 0 0 0 0 0 0 0 0 0 0 0 127 0" result="hardAlpha"/>
<feOffset dy="23.7708"/>
<feGaussianBlur stdDeviation="4.75416"/>
<feColorMatrix type="matrix" values="0 0 0 0 0 0 0 0 0 0 0 0 0 0 0 0 0 0 0.01 0"/>
<feBlend mode="normal" in2="effect4_dropShadow_1626_1190" result="effect5_dropShadow_1626_1190"/>
<feBlend mode="normal" in="SourceGraphic" in2="effect5_dropShadow_1626_1190" result="shape"/>
</filter>
<filter id="filter3_ddddd_1626_1190" x="8.71533" y="37.1053" width="31.979" height="39.979" filterUnits="userSpaceOnUse" color-interpolation-filters="sRGB">
<feFlood flood-opacity="0" result="BackgroundImageFix"/>
<feColorMatrix in="SourceAlpha" type="matrix" values="0 0 0 0 0 0 0 0 0 0 0 0 0 0 0 0 0 0 127 0" result="hardAlpha"/>
<feOffset/>
<feColorMatrix type="matrix" values="0 0 0 0 0 0 0 0 0 0 0 0 0 0 0 0 0 0 0.1 0"/>
<feBlend mode="normal" in2="BackgroundImageFix" result="effect1_dropShadow_1626_1190"/>
<feColorMatrix in="SourceAlpha" type="matrix" values="0 0 0 0 0 0 0 0 0 0 0 0 0 0 0 0 0 0 127 0" result="hardAlpha"/>
<feOffset dy="1"/>
<feGaussianBlur stdDeviation="1"/>
<feColorMatrix type="matrix" values="0 0 0 0 0 0 0 0 0 0 0 0 0 0 0 0 0 0 0.1 0"/>
<feBlend mode="normal" in2="effect1_dropShadow_1626_1190" result="effect2_dropShadow_1626_1190"/>
<feColorMatrix in="SourceAlpha" type="matrix" values="0 0 0 0 0 0 0 0 0 0 0 0 0 0 0 0 0 0 127 0" result="hardAlpha"/>
<feOffset dy="3"/>
<feGaussianBlur stdDeviation="1.5"/>
<feColorMatrix type="matrix" values="0 0 0 0 0 0 0 0 0 0 0 0 0 0 0 0 0 0 0.09 0"/>
<feBlend mode="normal" in2="effect2_dropShadow_1626_1190" result="effect3_dropShadow_1626_1190"/>
<feColorMatrix in="SourceAlpha" type="matrix" values="0 0 0 0 0 0 0 0 0 0 0 0 0 0 0 0 0 0 127 0" result="hardAlpha"/>
<feOffset dy="6"/>
<feGaussianBlur stdDeviation="2"/>
<feColorMatrix type="matrix" values="0 0 0 0 0 0 0 0 0 0 0 0 0 0 0 0 0 0 0.05 0"/>
<feBlend mode="normal" in2="effect3_dropShadow_1626_1190" result="effect4_dropShadow_1626_1190"/>
<feColorMatrix in="SourceAlpha" type="matrix" values="0 0 0 0 0 0 0 0 0 0 0 0 0 0 0 0 0 0 127 0" result="hardAlpha"/>
<feOffset dy="11"/>
<feGaussianBlur stdDeviation="2"/>
<feColorMatrix type="matrix" values="0 0 0 0 0 0 0 0 0 0 0 0 0 0 0 0 0 0 0.01 0"/>
<feBlend mode="normal" in2="effect4_dropShadow_1626_1190" result="effect5_dropShadow_1626_1190"/>
<feBlend mode="normal" in="SourceGraphic" in2="effect5_dropShadow_1626_1190" result="shape"/>
</filter>
<linearGradient id="paint0_linear_1626_1190" x1="24.8745" y1="8.99703" x2="99.781" y2="148.193" gradientUnits="userSpaceOnUse">
<stop offset="0.0001" stop-color="#50E6FF"/>
<stop offset="0.623265" stop-color="#0078D4"/>
</linearGradient>
<linearGradient id="paint1_linear_1626_1190" x1="15.1761" y1="10.7231" x2="82.7186" y2="98.1208" gradientUnits="userSpaceOnUse">
<stop stop-color="#007ED8"/>
<stop offset="0.915361" stop-color="#002D4C"/>
</linearGradient>
<linearGradient id="paint2_linear_1626_1190" x1="20.5121" y1="52.2487" x2="21.9922" y2="57.5051" gradientUnits="userSpaceOnUse">
<stop stop-color="#14834E"/>
<stop offset="0.38" stop-color="#209D69"/>
<stop offset="0.71" stop-color="#2DAC85"/>
<stop offset="1" stop-color="#3AB89F"/>
</linearGradient>
<linearGradient id="paint3_linear_1626_1190" x1="21.8216" y1="41.7714" x2="33.2523" y2="49.6808" gradientUnits="userSpaceOnUse">
<stop offset="0.16" stop-color="#1B9D90"/>
<stop offset="0.37" stop-color="#088488"/>
<stop offset="0.65" stop-color="#055976"/>
<stop offset="1" stop-color="#054D7C"/>
</linearGradient>
<linearGradient id="paint4_linear_1626_1190" x1="30.6195" y1="47.6659" x2="30.7374" y2="47.6659" gradientUnits="userSpaceOnUse">
<stop stop-color="#94DF8C"/>
<stop offset="0.35" stop-color="#2FB07B"/>
<stop offset="0.71" stop-color="#009180"/>
<stop offset="1" stop-color="#007D83"/>
</linearGradient>
<linearGradient id="paint5_linear_1626_1190" x1="17.2854" y1="49.8047" x2="32.2996" y2="49.8047" gradientUnits="userSpaceOnUse">
<stop stop-color="#94DF8C"/>
<stop offset="0.43" stop-color="#2FB07B"/>
<stop offset="0.78" stop-color="#009180"/>
<stop offset="1" stop-color="#007D83"/>
</linearGradient>
<clipPath id="clip0_1626_1190">
<rect width="102" height="102" fill="white" transform="translate(0.0893555)"/>
</clipPath>
</defs>
</svg>
