<svg width="180" height="190" viewBox="0 0 180 190" fill="none" xmlns="http://www.w3.org/2000/svg">
<g clip-path="url(#clip0_1812_34260)">
<path d="M90.1856 189.742C93.2456 189.742 96.2556 188.892 98.9156 187.272L160.886 149.612C166.426 146.242 169.856 139.912 169.856 133.072V58.362C169.856 51.542 166.426 45.202 160.886 41.822L98.9156 4.16201C93.5856 0.922008 86.7656 0.942008 81.4656 4.16201L19.4956 41.842C13.9556 45.212 10.5056 51.542 10.5056 58.382V133.082C10.5056 138.842 12.9556 144.262 17.0556 147.832V147.862L81.4656 187.292C84.1056 188.892 87.1256 189.742 90.1856 189.742ZM90.8356 8.69201C92.7856 8.69201 95.2656 9.90201 96.9756 10.952L157.736 48.142C161.486 50.422 163.606 57.022 163.606 61.772L162.976 133.072C162.976 137.822 159.776 142.092 156.026 144.372L95.6256 180.752C92.1956 182.842 89.4056 182.842 85.9656 180.752L24.7556 144.282C21.0056 142.002 17.9856 137.802 17.9856 133.072V59.432C17.9856 54.692 20.7156 49.802 24.4856 47.512L85.0656 10.952C86.7656 9.91201 88.8856 8.69201 90.8356 8.69201Z" fill="#F2F1F0"/>
<path fill-rule="evenodd" clip-rule="evenodd" d="M98.0856 12.2717C95.6356 10.7717 92.9156 10.0217 90.1856 10.0217C87.4556 10.0217 84.7356 10.7817 82.2856 12.2717L26.1556 46.6017C21.1356 49.6717 18.0256 55.4217 18.0256 61.6717V129.772C18.0256 136.002 21.1256 141.772 26.1556 144.842L82.2856 179.172C84.7356 180.672 87.4556 181.422 90.1856 181.422C92.9156 181.422 95.6356 180.682 98.0856 179.172L154.216 144.842C159.236 141.772 162.346 136.002 162.346 129.772V61.6717C162.346 55.4417 159.246 49.6917 154.216 46.6017L98.0856 12.2717Z" fill="url(#paint0_linear_1812_34260)"/>
<path fill-rule="evenodd" clip-rule="evenodd" d="M90.1856 11.4919C91.8656 11.4919 93.7556 12.3619 95.8156 13.6119L154.286 49.1519C157.936 51.3719 160.346 55.6419 160.346 60.4719V130.952C160.346 135.772 157.936 140.052 154.286 142.272L95.8256 177.812C93.8656 179.002 91.9456 179.752 90.1956 179.752C88.4456 179.752 86.5256 179.002 84.5656 177.812L26.0856 142.282C24.0756 141.052 22.6256 139.852 21.6456 138.242C20.6656 136.642 20.0256 134.422 20.0256 130.962V60.4819C20.0256 55.6519 22.4356 51.3819 26.0856 49.1619L84.5456 13.6219C86.6356 12.3719 88.4956 11.4919 90.1856 11.4919ZM97.8956 181.242L156.356 145.702C161.276 142.712 164.336 137.092 164.336 130.962V60.4819C164.336 54.3519 161.276 48.7319 156.356 45.7419L97.8956 10.2019C95.7856 8.92194 93.0756 7.49194 90.1856 7.49194C87.2856 7.49194 84.5756 8.93194 82.4856 10.1919H82.4756L24.0056 45.7419C19.0856 48.7319 16.0256 54.3519 16.0256 60.4819V130.962C16.0256 134.922 16.7656 137.912 18.2256 140.322C19.6856 142.722 21.7456 144.322 24.0056 145.692L82.4656 181.232C84.6856 182.582 87.3556 183.762 90.1756 183.762C92.9956 183.762 95.6756 182.592 97.8956 181.242Z" fill="url(#paint1_linear_1812_34260)"/>
<g filter="url(#filter0_ddddd_1812_34260)">
<path d="M34.2518 140.523H143.526C144.101 140.521 144.651 140.292 145.057 139.886C145.463 139.48 145.691 138.93 145.693 138.356V53.0414H32.085V138.356C32.0866 138.93 32.3155 139.48 32.7215 139.886C33.1275 140.292 33.6777 140.521 34.2518 140.523V140.523Z" fill="#F2F2F2"/>
</g>
<path d="M32.085 62.4834H145.693V52.2998C145.694 52.0815 145.651 51.8652 145.568 51.6634C145.485 51.4616 145.362 51.2783 145.208 51.1239C145.054 50.9696 144.87 50.8472 144.668 50.764C144.467 50.6807 144.25 50.6381 144.032 50.6387H33.7461C33.5278 50.6381 33.3115 50.6807 33.1097 50.764C32.9079 50.8472 32.7246 50.9696 32.5702 51.1239C32.4159 51.2783 32.2935 51.4616 32.2102 51.6634C32.127 51.8652 32.0844 52.0815 32.085 52.2998V62.4834Z" fill="url(#paint2_linear_1812_34260)"/>
<path d="M40.8234 59.685C41.393 59.6832 41.9493 59.5126 42.4219 59.1946C42.8945 58.8767 43.2622 58.4257 43.4785 57.8988C43.6948 57.3719 43.7501 56.7927 43.6372 56.2344C43.5243 55.6761 43.2484 55.1638 42.8444 54.7623C42.4404 54.3608 41.9263 54.0881 41.3673 53.9787C40.8083 53.8693 40.2295 53.9282 39.7039 54.1478C39.1784 54.3674 38.7297 54.738 38.4148 55.2126C38.0998 55.6872 37.9326 56.2445 37.9344 56.8141C37.9313 57.1935 38.0041 57.5697 38.1484 57.9206C38.2927 58.2715 38.5057 58.59 38.7748 58.8574C39.0439 59.1249 39.3638 59.3358 39.7156 59.478C40.0674 59.6201 40.444 59.6905 40.8234 59.685V59.685Z" fill="#50E6FF"/>
<g filter="url(#filter1_ddddd_1812_34260)">
<g filter="url(#filter2_ddddd_1812_34260)">
<path d="M70.8371 65.743H38.1052C36.4484 65.743 35.1052 67.0862 35.1052 68.743V133.318C35.1052 134.974 36.4484 136.318 38.1052 136.318H70.8371C72.494 136.318 73.8371 134.974 73.8371 133.317V68.743C73.8371 67.0862 72.494 65.743 70.8371 65.743Z" fill="#F9F9F9"/>
</g>
</g>
<g filter="url(#filter3_ddddd_1812_34260)">
<g filter="url(#filter4_ddddd_1812_34260)">
<path d="M138.583 65.7432H80.293C78.6361 65.7432 77.293 67.0863 77.293 68.7432V80.3152C77.293 81.972 78.6361 83.3152 80.293 83.3152H138.583C140.24 83.3152 141.583 81.972 141.583 80.3152V68.7432C141.583 67.0863 140.24 65.7432 138.583 65.7432Z" fill="#F9F9F9"/>
</g>
</g>
<g filter="url(#filter5_ddddd_1812_34260)">
<g filter="url(#filter6_ddddd_1812_34260)">
<path d="M138.583 86.0684H80.293C78.6361 86.0684 77.293 87.4115 77.293 89.0684V133.141C77.293 134.797 78.6361 136.141 80.293 136.141H138.583C140.24 136.141 141.583 134.797 141.583 133.141V89.0684C141.583 87.4115 140.24 86.0684 138.583 86.0684Z" fill="#F9F9F9"/>
</g>
</g>
<path opacity="0.15" d="M58.4962 120.515H16.2401C15.0559 120.515 14.1055 119.549 14.1055 118.38V79.2713C14.1055 78.0872 15.0559 77.1367 16.2401 77.1367H58.4962C59.6804 77.1367 60.6309 78.0872 60.6309 79.2713V118.365C60.6309 119.549 59.6648 120.515 58.4962 120.515Z" fill="#1F1D20"/>
<g filter="url(#filter7_ddddd_1812_34260)">
<path d="M58.4962 120.5H16.2401C15.0559 120.5 14.1055 119.55 14.1055 118.366V79.2881C14.1055 78.1039 15.0559 77.1534 16.2401 77.1534H58.4962C59.6804 77.1534 60.6309 78.1039 60.6309 79.2881V118.381C60.6309 119.55 59.6648 120.5 58.4962 120.5Z" fill="white"/>
</g>
<path d="M46.6224 89.7872C46.6224 88.8212 45.8433 88.0421 44.8773 88.0421H23.9206C22.9546 88.0421 22.1755 88.8212 22.1755 89.7872C22.1755 90.7532 22.9546 91.5323 23.9206 91.5323H44.8929C45.8589 91.5167 46.6224 90.7532 46.6224 89.7872Z" fill="url(#paint3_linear_1812_34260)"/>
<path d="M52.5592 89.7872C52.5592 88.8212 51.7801 88.0421 50.8141 88.0421H45.1114C44.1454 88.0421 44.7686 88.8212 44.7686 89.7872C44.7686 90.7532 44.161 91.5323 45.1114 91.5323H50.8297C51.7646 91.5167 52.5592 90.7532 52.5592 89.7872Z" fill="#9B9BA0"/>
<path d="M40.1874 98.5572C40.1874 97.5911 39.4083 96.8121 38.4423 96.8121H23.9206C22.9546 96.8121 22.1755 97.5911 22.1755 98.5572C22.1755 99.5232 22.9546 100.302 23.9206 100.302H38.4734C39.4239 100.287 40.1874 99.5232 40.1874 98.5572Z" fill="url(#paint4_linear_1812_34260)"/>
<path d="M52.5597 98.5572C52.5597 97.5911 51.7806 96.8121 50.8146 96.8121H39.5027C38.5366 96.8121 37.7576 97.5911 37.7576 98.5572C37.7576 99.5232 38.5366 100.302 39.5027 100.302H50.8302C51.765 100.287 52.5597 99.5232 52.5597 98.5572Z" fill="#9B9BA0"/>
<path d="M32.1007 107.86C32.1007 106.894 31.3217 106.115 30.3557 106.115H23.9206C22.9546 106.13 22.1755 106.894 22.1755 107.86C22.1755 108.826 22.9546 109.605 23.9206 109.605H30.3557C31.3217 109.574 32.1007 108.81 32.1007 107.86Z" fill="url(#paint5_linear_1812_34260)"/>
<path d="M52.5603 107.86C52.5603 106.894 51.7812 106.115 50.8152 106.115H32.071C31.105 106.115 30.3259 106.894 30.3259 107.86C30.3259 108.826 31.105 109.605 32.071 109.605H50.8152C51.7656 109.574 52.5603 108.81 52.5603 107.86Z" fill="#9B9BA0"/>
<g filter="url(#filter8_ddddd_1812_34260)">
<path d="M42.2915 89.7875C42.2915 91.704 43.834 93.2621 45.7661 93.2621C47.6982 93.2621 49.2407 91.7196 49.2407 89.7875C49.2407 87.8711 47.667 86.3129 45.7505 86.3129C43.8496 86.3441 42.2915 87.8711 42.2915 89.7875Z" fill="#550555"/>
<path d="M34.7039 98.5597C34.7039 100.476 36.2464 102.034 38.1785 102.034C40.1105 102.034 41.6531 100.492 41.6531 98.5597C41.6531 96.6433 40.1105 95.0851 38.1785 95.0851C36.2464 95.0851 34.7039 96.6433 34.7039 98.5597Z" fill="#550555"/>
<path d="M27.552 107.861C27.552 109.778 29.0945 111.336 31.0266 111.336C32.9431 111.336 34.5012 109.793 34.5012 107.861C34.5012 105.945 32.9587 104.387 31.0266 104.387C29.0945 104.387 27.552 105.945 27.552 107.861Z" fill="#550555"/>
</g>
<path fill-rule="evenodd" clip-rule="evenodd" d="M82.415 74.5932C82.415 74.1155 82.8023 73.7282 83.28 73.7282H88.5129C88.9906 73.7282 89.3778 74.1155 89.3778 74.5932C89.3778 75.0709 88.9906 75.4581 88.5129 75.4581H83.28C82.8023 75.4581 82.415 75.0709 82.415 74.5932Z" fill="#EB9ACE"/>
<path fill-rule="evenodd" clip-rule="evenodd" d="M85.8965 71.1113C86.3742 71.1113 86.7615 71.4986 86.7615 71.9763L86.7615 77.2092C86.7615 77.6869 86.3742 78.0741 85.8965 78.0741C85.4188 78.0741 85.0316 77.6869 85.0316 77.2092L85.0316 71.9763C85.0316 71.4986 85.4188 71.1113 85.8965 71.1113Z" fill="#EB9ACE"/>
<path fill-rule="evenodd" clip-rule="evenodd" d="M90.2666 108.098C90.117 107.948 89.9142 107.864 89.7026 107.864C89.4911 107.864 89.2882 107.948 89.1386 108.098L86.5093 110.725L85.5596 109.785C85.5374 109.752 85.5123 109.721 85.4846 109.692C85.3361 109.543 85.1346 109.459 84.9241 109.458C84.7136 109.457 84.5112 109.539 84.3612 109.686C84.2111 109.834 84.1255 110.035 84.1231 110.245C84.1207 110.456 84.2016 110.659 84.3482 110.81L84.3386 110.819L85.9477 112.414C86.0974 112.563 86.3003 112.647 86.5119 112.647C86.7234 112.647 86.9264 112.563 87.0761 112.414L90.2642 109.227L90.2666 109.225C90.3407 109.151 90.3994 109.063 90.4395 108.966C90.4796 108.87 90.5002 108.766 90.5002 108.661C90.5002 108.557 90.4796 108.453 90.4395 108.356C90.3994 108.26 90.3407 108.172 90.2666 108.098Z" fill="#D870BD"/>
<path fill-rule="evenodd" clip-rule="evenodd" d="M90.2666 95.4318C90.117 95.2822 89.9142 95.1982 89.7026 95.1982C89.4911 95.1982 89.2882 95.2822 89.1386 95.4318L86.5093 98.0592L85.5596 97.1185C85.5374 97.0855 85.5123 97.0546 85.4846 97.0261C85.3361 96.877 85.1346 96.7927 84.9241 96.7916C84.7136 96.7905 84.5112 96.8727 84.3612 97.0203C84.2111 97.1679 84.1255 97.3689 84.1231 97.5793C84.1207 97.7898 84.2016 97.9927 84.3482 98.1437L84.3386 98.1533L85.9477 99.7476C86.0974 99.8971 86.3003 99.981 86.5119 99.981C86.7234 99.981 86.9264 99.8971 87.0761 99.7476L90.2642 96.5608L90.2666 96.5589C90.3407 96.4849 90.3994 96.3971 90.4395 96.3004C90.4796 96.2037 90.5002 96.1 90.5002 95.9953C90.5002 95.8907 90.4796 95.787 90.4395 95.6903C90.3994 95.5936 90.3407 95.5057 90.2666 95.4318Z" fill="#EB9ACE"/>
<path fill-rule="evenodd" clip-rule="evenodd" d="M90.2666 120.765C90.117 120.615 89.9142 120.531 89.7026 120.531C89.4911 120.531 89.2882 120.615 89.1386 120.765L86.5093 123.392L85.5596 122.452C85.5374 122.419 85.5123 122.388 85.4846 122.359C85.3361 122.21 85.1346 122.126 84.9241 122.125C84.7136 122.124 84.5112 122.206 84.3612 122.353C84.2111 122.501 84.1255 122.702 84.1231 122.912C84.1207 123.123 84.2016 123.326 84.3482 123.477L84.3386 123.486L85.9477 125.081C86.0974 125.23 86.3003 125.314 86.5119 125.314C86.7234 125.314 86.9264 125.23 87.0761 125.081L90.2642 121.894L90.2666 121.892C90.3407 121.818 90.3994 121.73 90.4395 121.633C90.4796 121.537 90.5002 121.433 90.5002 121.328C90.5002 121.224 90.4796 121.12 90.4395 121.023C90.3994 120.927 90.3407 120.839 90.2666 120.765Z" fill="#742774"/>
</g>
<defs>
<filter id="filter0_ddddd_1812_34260" x="30.085" y="53.0414" width="122.608" height="101.481" filterUnits="userSpaceOnUse" color-interpolation-filters="sRGB">
<feFlood flood-opacity="0" result="BackgroundImageFix"/>
<feColorMatrix in="SourceAlpha" type="matrix" values="0 0 0 0 0 0 0 0 0 0 0 0 0 0 0 0 0 0 127 0" result="hardAlpha"/>
<feOffset/>
<feColorMatrix type="matrix" values="0 0 0 0 0 0 0 0 0 0 0 0 0 0 0 0 0 0 0.1 0"/>
<feBlend mode="normal" in2="BackgroundImageFix" result="effect1_dropShadow_1812_34260"/>
<feColorMatrix in="SourceAlpha" type="matrix" values="0 0 0 0 0 0 0 0 0 0 0 0 0 0 0 0 0 0 127 0" result="hardAlpha"/>
<feOffset dy="1"/>
<feGaussianBlur stdDeviation="0.5"/>
<feColorMatrix type="matrix" values="0 0 0 0 0 0 0 0 0 0 0 0 0 0 0 0 0 0 0.1 0"/>
<feBlend mode="normal" in2="effect1_dropShadow_1812_34260" result="effect2_dropShadow_1812_34260"/>
<feColorMatrix in="SourceAlpha" type="matrix" values="0 0 0 0 0 0 0 0 0 0 0 0 0 0 0 0 0 0 127 0" result="hardAlpha"/>
<feOffset dx="1" dy="2"/>
<feGaussianBlur stdDeviation="1"/>
<feColorMatrix type="matrix" values="0 0 0 0 0 0 0 0 0 0 0 0 0 0 0 0 0 0 0.09 0"/>
<feBlend mode="normal" in2="effect2_dropShadow_1812_34260" result="effect3_dropShadow_1812_34260"/>
<feColorMatrix in="SourceAlpha" type="matrix" values="0 0 0 0 0 0 0 0 0 0 0 0 0 0 0 0 0 0 127 0" result="hardAlpha"/>
<feOffset dx="1" dy="5"/>
<feGaussianBlur stdDeviation="1.5"/>
<feColorMatrix type="matrix" values="0 0 0 0 0 0 0 0 0 0 0 0 0 0 0 0 0 0 0.05 0"/>
<feBlend mode="normal" in2="effect3_dropShadow_1812_34260" result="effect4_dropShadow_1812_34260"/>
<feColorMatrix in="SourceAlpha" type="matrix" values="0 0 0 0 0 0 0 0 0 0 0 0 0 0 0 0 0 0 127 0" result="hardAlpha"/>
<feOffset dx="3" dy="10"/>
<feGaussianBlur stdDeviation="2"/>
<feColorMatrix type="matrix" values="0 0 0 0 0 0 0 0 0 0 0 0 0 0 0 0 0 0 0.01 0"/>
<feBlend mode="normal" in2="effect4_dropShadow_1812_34260" result="effect5_dropShadow_1812_34260"/>
<feBlend mode="normal" in="SourceGraphic" in2="effect5_dropShadow_1812_34260" result="shape"/>
</filter>
<filter id="filter1_ddddd_1812_34260" x="32.1052" y="65.743" width="46.7319" height="84.5745" filterUnits="userSpaceOnUse" color-interpolation-filters="sRGB">
<feFlood flood-opacity="0" result="BackgroundImageFix"/>
<feColorMatrix in="SourceAlpha" type="matrix" values="0 0 0 0 0 0 0 0 0 0 0 0 0 0 0 0 0 0 127 0" result="hardAlpha"/>
<feOffset/>
<feColorMatrix type="matrix" values="0 0 0 0 0 0 0 0 0 0 0 0 0 0 0 0 0 0 0.1 0"/>
<feBlend mode="normal" in2="BackgroundImageFix" result="effect1_dropShadow_1812_34260"/>
<feColorMatrix in="SourceAlpha" type="matrix" values="0 0 0 0 0 0 0 0 0 0 0 0 0 0 0 0 0 0 127 0" result="hardAlpha"/>
<feOffset dy="1"/>
<feGaussianBlur stdDeviation="0.5"/>
<feColorMatrix type="matrix" values="0 0 0 0 0 0 0 0 0 0 0 0 0 0 0 0 0 0 0.1 0"/>
<feBlend mode="normal" in2="effect1_dropShadow_1812_34260" result="effect2_dropShadow_1812_34260"/>
<feColorMatrix in="SourceAlpha" type="matrix" values="0 0 0 0 0 0 0 0 0 0 0 0 0 0 0 0 0 0 127 0" result="hardAlpha"/>
<feOffset dy="3"/>
<feGaussianBlur stdDeviation="1.5"/>
<feColorMatrix type="matrix" values="0 0 0 0 0 0 0 0 0 0 0 0 0 0 0 0 0 0 0.09 0"/>
<feBlend mode="normal" in2="effect2_dropShadow_1812_34260" result="effect3_dropShadow_1812_34260"/>
<feColorMatrix in="SourceAlpha" type="matrix" values="0 0 0 0 0 0 0 0 0 0 0 0 0 0 0 0 0 0 127 0" result="hardAlpha"/>
<feOffset dx="1" dy="6"/>
<feGaussianBlur stdDeviation="1.5"/>
<feColorMatrix type="matrix" values="0 0 0 0 0 0 0 0 0 0 0 0 0 0 0 0 0 0 0.05 0"/>
<feBlend mode="normal" in2="effect3_dropShadow_1812_34260" result="effect4_dropShadow_1812_34260"/>
<feColorMatrix in="SourceAlpha" type="matrix" values="0 0 0 0 0 0 0 0 0 0 0 0 0 0 0 0 0 0 127 0" result="hardAlpha"/>
<feOffset dx="1" dy="10"/>
<feGaussianBlur stdDeviation="2"/>
<feColorMatrix type="matrix" values="0 0 0 0 0 0 0 0 0 0 0 0 0 0 0 0 0 0 0.01 0"/>
<feBlend mode="normal" in2="effect4_dropShadow_1812_34260" result="effect5_dropShadow_1812_34260"/>
<feBlend mode="normal" in="SourceGraphic" in2="effect5_dropShadow_1812_34260" result="shape"/>
</filter>
<filter id="filter2_ddddd_1812_34260" x="33.1052" y="64.743" width="42.7319" height="78.5745" filterUnits="userSpaceOnUse" color-interpolation-filters="sRGB">
<feFlood flood-opacity="0" result="BackgroundImageFix"/>
<feColorMatrix in="SourceAlpha" type="matrix" values="0 0 0 0 0 0 0 0 0 0 0 0 0 0 0 0 0 0 127 0" result="hardAlpha"/>
<feOffset/>
<feColorMatrix type="matrix" values="0 0 0 0 0 0 0 0 0 0 0 0 0 0 0 0 0 0 0.1 0"/>
<feBlend mode="normal" in2="BackgroundImageFix" result="effect1_dropShadow_1812_34260"/>
<feColorMatrix in="SourceAlpha" type="matrix" values="0 0 0 0 0 0 0 0 0 0 0 0 0 0 0 0 0 0 127 0" result="hardAlpha"/>
<feOffset/>
<feGaussianBlur stdDeviation="0.5"/>
<feColorMatrix type="matrix" values="0 0 0 0 0 0 0 0 0 0 0 0 0 0 0 0 0 0 0.1 0"/>
<feBlend mode="normal" in2="effect1_dropShadow_1812_34260" result="effect2_dropShadow_1812_34260"/>
<feColorMatrix in="SourceAlpha" type="matrix" values="0 0 0 0 0 0 0 0 0 0 0 0 0 0 0 0 0 0 127 0" result="hardAlpha"/>
<feOffset dy="1"/>
<feGaussianBlur stdDeviation="0.5"/>
<feColorMatrix type="matrix" values="0 0 0 0 0 0 0 0 0 0 0 0 0 0 0 0 0 0 0.09 0"/>
<feBlend mode="normal" in2="effect2_dropShadow_1812_34260" result="effect3_dropShadow_1812_34260"/>
<feColorMatrix in="SourceAlpha" type="matrix" values="0 0 0 0 0 0 0 0 0 0 0 0 0 0 0 0 0 0 127 0" result="hardAlpha"/>
<feOffset dy="3"/>
<feGaussianBlur stdDeviation="1"/>
<feColorMatrix type="matrix" values="0 0 0 0 0 0 0 0 0 0 0 0 0 0 0 0 0 0 0.05 0"/>
<feBlend mode="normal" in2="effect3_dropShadow_1812_34260" result="effect4_dropShadow_1812_34260"/>
<feColorMatrix in="SourceAlpha" type="matrix" values="0 0 0 0 0 0 0 0 0 0 0 0 0 0 0 0 0 0 127 0" result="hardAlpha"/>
<feOffset dy="5"/>
<feGaussianBlur stdDeviation="1"/>
<feColorMatrix type="matrix" values="0 0 0 0 0 0 0 0 0 0 0 0 0 0 0 0 0 0 0.01 0"/>
<feBlend mode="normal" in2="effect4_dropShadow_1812_34260" result="effect5_dropShadow_1812_34260"/>
<feBlend mode="normal" in="SourceGraphic" in2="effect5_dropShadow_1812_34260" result="shape"/>
</filter>
<filter id="filter3_ddddd_1812_34260" x="74.293" y="65.7432" width="72.29" height="31.572" filterUnits="userSpaceOnUse" color-interpolation-filters="sRGB">
<feFlood flood-opacity="0" result="BackgroundImageFix"/>
<feColorMatrix in="SourceAlpha" type="matrix" values="0 0 0 0 0 0 0 0 0 0 0 0 0 0 0 0 0 0 127 0" result="hardAlpha"/>
<feOffset/>
<feColorMatrix type="matrix" values="0 0 0 0 0 0 0 0 0 0 0 0 0 0 0 0 0 0 0.1 0"/>
<feBlend mode="normal" in2="BackgroundImageFix" result="effect1_dropShadow_1812_34260"/>
<feColorMatrix in="SourceAlpha" type="matrix" values="0 0 0 0 0 0 0 0 0 0 0 0 0 0 0 0 0 0 127 0" result="hardAlpha"/>
<feOffset dy="1"/>
<feGaussianBlur stdDeviation="0.5"/>
<feColorMatrix type="matrix" values="0 0 0 0 0 0 0 0 0 0 0 0 0 0 0 0 0 0 0.1 0"/>
<feBlend mode="normal" in2="effect1_dropShadow_1812_34260" result="effect2_dropShadow_1812_34260"/>
<feColorMatrix in="SourceAlpha" type="matrix" values="0 0 0 0 0 0 0 0 0 0 0 0 0 0 0 0 0 0 127 0" result="hardAlpha"/>
<feOffset dy="3"/>
<feGaussianBlur stdDeviation="1.5"/>
<feColorMatrix type="matrix" values="0 0 0 0 0 0 0 0 0 0 0 0 0 0 0 0 0 0 0.09 0"/>
<feBlend mode="normal" in2="effect2_dropShadow_1812_34260" result="effect3_dropShadow_1812_34260"/>
<feColorMatrix in="SourceAlpha" type="matrix" values="0 0 0 0 0 0 0 0 0 0 0 0 0 0 0 0 0 0 127 0" result="hardAlpha"/>
<feOffset dx="1" dy="6"/>
<feGaussianBlur stdDeviation="1.5"/>
<feColorMatrix type="matrix" values="0 0 0 0 0 0 0 0 0 0 0 0 0 0 0 0 0 0 0.05 0"/>
<feBlend mode="normal" in2="effect3_dropShadow_1812_34260" result="effect4_dropShadow_1812_34260"/>
<feColorMatrix in="SourceAlpha" type="matrix" values="0 0 0 0 0 0 0 0 0 0 0 0 0 0 0 0 0 0 127 0" result="hardAlpha"/>
<feOffset dx="1" dy="10"/>
<feGaussianBlur stdDeviation="2"/>
<feColorMatrix type="matrix" values="0 0 0 0 0 0 0 0 0 0 0 0 0 0 0 0 0 0 0.01 0"/>
<feBlend mode="normal" in2="effect4_dropShadow_1812_34260" result="effect5_dropShadow_1812_34260"/>
<feBlend mode="normal" in="SourceGraphic" in2="effect5_dropShadow_1812_34260" result="shape"/>
</filter>
<filter id="filter4_ddddd_1812_34260" x="75.293" y="64.7432" width="68.29" height="25.572" filterUnits="userSpaceOnUse" color-interpolation-filters="sRGB">
<feFlood flood-opacity="0" result="BackgroundImageFix"/>
<feColorMatrix in="SourceAlpha" type="matrix" values="0 0 0 0 0 0 0 0 0 0 0 0 0 0 0 0 0 0 127 0" result="hardAlpha"/>
<feOffset/>
<feColorMatrix type="matrix" values="0 0 0 0 0 0 0 0 0 0 0 0 0 0 0 0 0 0 0.1 0"/>
<feBlend mode="normal" in2="BackgroundImageFix" result="effect1_dropShadow_1812_34260"/>
<feColorMatrix in="SourceAlpha" type="matrix" values="0 0 0 0 0 0 0 0 0 0 0 0 0 0 0 0 0 0 127 0" result="hardAlpha"/>
<feOffset/>
<feGaussianBlur stdDeviation="0.5"/>
<feColorMatrix type="matrix" values="0 0 0 0 0 0 0 0 0 0 0 0 0 0 0 0 0 0 0.1 0"/>
<feBlend mode="normal" in2="effect1_dropShadow_1812_34260" result="effect2_dropShadow_1812_34260"/>
<feColorMatrix in="SourceAlpha" type="matrix" values="0 0 0 0 0 0 0 0 0 0 0 0 0 0 0 0 0 0 127 0" result="hardAlpha"/>
<feOffset dy="1"/>
<feGaussianBlur stdDeviation="0.5"/>
<feColorMatrix type="matrix" values="0 0 0 0 0 0 0 0 0 0 0 0 0 0 0 0 0 0 0.09 0"/>
<feBlend mode="normal" in2="effect2_dropShadow_1812_34260" result="effect3_dropShadow_1812_34260"/>
<feColorMatrix in="SourceAlpha" type="matrix" values="0 0 0 0 0 0 0 0 0 0 0 0 0 0 0 0 0 0 127 0" result="hardAlpha"/>
<feOffset dy="3"/>
<feGaussianBlur stdDeviation="1"/>
<feColorMatrix type="matrix" values="0 0 0 0 0 0 0 0 0 0 0 0 0 0 0 0 0 0 0.05 0"/>
<feBlend mode="normal" in2="effect3_dropShadow_1812_34260" result="effect4_dropShadow_1812_34260"/>
<feColorMatrix in="SourceAlpha" type="matrix" values="0 0 0 0 0 0 0 0 0 0 0 0 0 0 0 0 0 0 127 0" result="hardAlpha"/>
<feOffset dy="5"/>
<feGaussianBlur stdDeviation="1"/>
<feColorMatrix type="matrix" values="0 0 0 0 0 0 0 0 0 0 0 0 0 0 0 0 0 0 0.01 0"/>
<feBlend mode="normal" in2="effect4_dropShadow_1812_34260" result="effect5_dropShadow_1812_34260"/>
<feBlend mode="normal" in="SourceGraphic" in2="effect5_dropShadow_1812_34260" result="shape"/>
</filter>
<filter id="filter5_ddddd_1812_34260" x="75.293" y="85.0684" width="68.29" height="59.0723" filterUnits="userSpaceOnUse" color-interpolation-filters="sRGB">
<feFlood flood-opacity="0" result="BackgroundImageFix"/>
<feColorMatrix in="SourceAlpha" type="matrix" values="0 0 0 0 0 0 0 0 0 0 0 0 0 0 0 0 0 0 127 0" result="hardAlpha"/>
<feOffset/>
<feColorMatrix type="matrix" values="0 0 0 0 0 0 0 0 0 0 0 0 0 0 0 0 0 0 0.1 0"/>
<feBlend mode="normal" in2="BackgroundImageFix" result="effect1_dropShadow_1812_34260"/>
<feColorMatrix in="SourceAlpha" type="matrix" values="0 0 0 0 0 0 0 0 0 0 0 0 0 0 0 0 0 0 127 0" result="hardAlpha"/>
<feOffset/>
<feGaussianBlur stdDeviation="0.5"/>
<feColorMatrix type="matrix" values="0 0 0 0 0 0 0 0 0 0 0 0 0 0 0 0 0 0 0.1 0"/>
<feBlend mode="normal" in2="effect1_dropShadow_1812_34260" result="effect2_dropShadow_1812_34260"/>
<feColorMatrix in="SourceAlpha" type="matrix" values="0 0 0 0 0 0 0 0 0 0 0 0 0 0 0 0 0 0 127 0" result="hardAlpha"/>
<feOffset dy="2"/>
<feGaussianBlur stdDeviation="1"/>
<feColorMatrix type="matrix" values="0 0 0 0 0 0 0 0 0 0 0 0 0 0 0 0 0 0 0.09 0"/>
<feBlend mode="normal" in2="effect2_dropShadow_1812_34260" result="effect3_dropShadow_1812_34260"/>
<feColorMatrix in="SourceAlpha" type="matrix" values="0 0 0 0 0 0 0 0 0 0 0 0 0 0 0 0 0 0 127 0" result="hardAlpha"/>
<feOffset dy="3"/>
<feGaussianBlur stdDeviation="1"/>
<feColorMatrix type="matrix" values="0 0 0 0 0 0 0 0 0 0 0 0 0 0 0 0 0 0 0.05 0"/>
<feBlend mode="normal" in2="effect3_dropShadow_1812_34260" result="effect4_dropShadow_1812_34260"/>
<feColorMatrix in="SourceAlpha" type="matrix" values="0 0 0 0 0 0 0 0 0 0 0 0 0 0 0 0 0 0 127 0" result="hardAlpha"/>
<feOffset dy="6"/>
<feGaussianBlur stdDeviation="1"/>
<feColorMatrix type="matrix" values="0 0 0 0 0 0 0 0 0 0 0 0 0 0 0 0 0 0 0.01 0"/>
<feBlend mode="normal" in2="effect4_dropShadow_1812_34260" result="effect5_dropShadow_1812_34260"/>
<feBlend mode="normal" in="SourceGraphic" in2="effect5_dropShadow_1812_34260" result="shape"/>
</filter>
<filter id="filter6_ddddd_1812_34260" x="75.293" y="85.0684" width="68.29" height="58.0723" filterUnits="userSpaceOnUse" color-interpolation-filters="sRGB">
<feFlood flood-opacity="0" result="BackgroundImageFix"/>
<feColorMatrix in="SourceAlpha" type="matrix" values="0 0 0 0 0 0 0 0 0 0 0 0 0 0 0 0 0 0 127 0" result="hardAlpha"/>
<feOffset/>
<feColorMatrix type="matrix" values="0 0 0 0 0 0 0 0 0 0 0 0 0 0 0 0 0 0 0.1 0"/>
<feBlend mode="normal" in2="BackgroundImageFix" result="effect1_dropShadow_1812_34260"/>
<feColorMatrix in="SourceAlpha" type="matrix" values="0 0 0 0 0 0 0 0 0 0 0 0 0 0 0 0 0 0 127 0" result="hardAlpha"/>
<feOffset/>
<feGaussianBlur stdDeviation="0.5"/>
<feColorMatrix type="matrix" values="0 0 0 0 0 0 0 0 0 0 0 0 0 0 0 0 0 0 0.1 0"/>
<feBlend mode="normal" in2="effect1_dropShadow_1812_34260" result="effect2_dropShadow_1812_34260"/>
<feColorMatrix in="SourceAlpha" type="matrix" values="0 0 0 0 0 0 0 0 0 0 0 0 0 0 0 0 0 0 127 0" result="hardAlpha"/>
<feOffset dy="1"/>
<feGaussianBlur stdDeviation="0.5"/>
<feColorMatrix type="matrix" values="0 0 0 0 0 0 0 0 0 0 0 0 0 0 0 0 0 0 0.09 0"/>
<feBlend mode="normal" in2="effect2_dropShadow_1812_34260" result="effect3_dropShadow_1812_34260"/>
<feColorMatrix in="SourceAlpha" type="matrix" values="0 0 0 0 0 0 0 0 0 0 0 0 0 0 0 0 0 0 127 0" result="hardAlpha"/>
<feOffset dy="3"/>
<feGaussianBlur stdDeviation="1"/>
<feColorMatrix type="matrix" values="0 0 0 0 0 0 0 0 0 0 0 0 0 0 0 0 0 0 0.05 0"/>
<feBlend mode="normal" in2="effect3_dropShadow_1812_34260" result="effect4_dropShadow_1812_34260"/>
<feColorMatrix in="SourceAlpha" type="matrix" values="0 0 0 0 0 0 0 0 0 0 0 0 0 0 0 0 0 0 127 0" result="hardAlpha"/>
<feOffset dy="5"/>
<feGaussianBlur stdDeviation="1"/>
<feColorMatrix type="matrix" values="0 0 0 0 0 0 0 0 0 0 0 0 0 0 0 0 0 0 0.01 0"/>
<feBlend mode="normal" in2="effect4_dropShadow_1812_34260" result="effect5_dropShadow_1812_34260"/>
<feBlend mode="normal" in="SourceGraphic" in2="effect5_dropShadow_1812_34260" result="shape"/>
</filter>
<filter id="filter7_ddddd_1812_34260" x="11.1055" y="76.1534" width="52.5254" height="55.3468" filterUnits="userSpaceOnUse" color-interpolation-filters="sRGB">
<feFlood flood-opacity="0" result="BackgroundImageFix"/>
<feColorMatrix in="SourceAlpha" type="matrix" values="0 0 0 0 0 0 0 0 0 0 0 0 0 0 0 0 0 0 127 0" result="hardAlpha"/>
<feOffset/>
<feColorMatrix type="matrix" values="0 0 0 0 0 0 0 0 0 0 0 0 0 0 0 0 0 0 0.1 0"/>
<feBlend mode="normal" in2="BackgroundImageFix" result="effect1_dropShadow_1812_34260"/>
<feColorMatrix in="SourceAlpha" type="matrix" values="0 0 0 0 0 0 0 0 0 0 0 0 0 0 0 0 0 0 127 0" result="hardAlpha"/>
<feOffset/>
<feGaussianBlur stdDeviation="0.5"/>
<feColorMatrix type="matrix" values="0 0 0 0 0 0 0 0 0 0 0 0 0 0 0 0 0 0 0.1 0"/>
<feBlend mode="normal" in2="effect1_dropShadow_1812_34260" result="effect2_dropShadow_1812_34260"/>
<feColorMatrix in="SourceAlpha" type="matrix" values="0 0 0 0 0 0 0 0 0 0 0 0 0 0 0 0 0 0 127 0" result="hardAlpha"/>
<feOffset dy="2"/>
<feGaussianBlur stdDeviation="1"/>
<feColorMatrix type="matrix" values="0 0 0 0 0 0 0 0 0 0 0 0 0 0 0 0 0 0 0.09 0"/>
<feBlend mode="normal" in2="effect2_dropShadow_1812_34260" result="effect3_dropShadow_1812_34260"/>
<feColorMatrix in="SourceAlpha" type="matrix" values="0 0 0 0 0 0 0 0 0 0 0 0 0 0 0 0 0 0 127 0" result="hardAlpha"/>
<feOffset dy="4"/>
<feGaussianBlur stdDeviation="1.5"/>
<feColorMatrix type="matrix" values="0 0 0 0 0 0 0 0 0 0 0 0 0 0 0 0 0 0 0.05 0"/>
<feBlend mode="normal" in2="effect3_dropShadow_1812_34260" result="effect4_dropShadow_1812_34260"/>
<feColorMatrix in="SourceAlpha" type="matrix" values="0 0 0 0 0 0 0 0 0 0 0 0 0 0 0 0 0 0 127 0" result="hardAlpha"/>
<feOffset dy="8"/>
<feGaussianBlur stdDeviation="1.5"/>
<feColorMatrix type="matrix" values="0 0 0 0 0 0 0 0 0 0 0 0 0 0 0 0 0 0 0.01 0"/>
<feBlend mode="normal" in2="effect4_dropShadow_1812_34260" result="effect5_dropShadow_1812_34260"/>
<feBlend mode="normal" in="SourceGraphic" in2="effect5_dropShadow_1812_34260" result="shape"/>
</filter>
<filter id="filter8_ddddd_1812_34260" x="26.552" y="86.3129" width="23.6887" height="29.0229" filterUnits="userSpaceOnUse" color-interpolation-filters="sRGB">
<feFlood flood-opacity="0" result="BackgroundImageFix"/>
<feColorMatrix in="SourceAlpha" type="matrix" values="0 0 0 0 0 0 0 0 0 0 0 0 0 0 0 0 0 0 127 0" result="hardAlpha"/>
<feOffset/>
<feColorMatrix type="matrix" values="0 0 0 0 0 0 0 0 0 0 0 0 0 0 0 0 0 0 0.1 0"/>
<feBlend mode="normal" in2="BackgroundImageFix" result="effect1_dropShadow_1812_34260"/>
<feColorMatrix in="SourceAlpha" type="matrix" values="0 0 0 0 0 0 0 0 0 0 0 0 0 0 0 0 0 0 127 0" result="hardAlpha"/>
<feOffset/>
<feColorMatrix type="matrix" values="0 0 0 0 0 0 0 0 0 0 0 0 0 0 0 0 0 0 0.1 0"/>
<feBlend mode="normal" in2="effect1_dropShadow_1812_34260" result="effect2_dropShadow_1812_34260"/>
<feColorMatrix in="SourceAlpha" type="matrix" values="0 0 0 0 0 0 0 0 0 0 0 0 0 0 0 0 0 0 127 0" result="hardAlpha"/>
<feOffset dy="1"/>
<feGaussianBlur stdDeviation="0.5"/>
<feColorMatrix type="matrix" values="0 0 0 0 0 0 0 0 0 0 0 0 0 0 0 0 0 0 0.09 0"/>
<feBlend mode="normal" in2="effect2_dropShadow_1812_34260" result="effect3_dropShadow_1812_34260"/>
<feColorMatrix in="SourceAlpha" type="matrix" values="0 0 0 0 0 0 0 0 0 0 0 0 0 0 0 0 0 0 127 0" result="hardAlpha"/>
<feOffset dy="2"/>
<feGaussianBlur stdDeviation="0.5"/>
<feColorMatrix type="matrix" values="0 0 0 0 0 0 0 0 0 0 0 0 0 0 0 0 0 0 0.05 0"/>
<feBlend mode="normal" in2="effect3_dropShadow_1812_34260" result="effect4_dropShadow_1812_34260"/>
<feColorMatrix in="SourceAlpha" type="matrix" values="0 0 0 0 0 0 0 0 0 0 0 0 0 0 0 0 0 0 127 0" result="hardAlpha"/>
<feOffset dy="3"/>
<feGaussianBlur stdDeviation="0.5"/>
<feColorMatrix type="matrix" values="0 0 0 0 0 0 0 0 0 0 0 0 0 0 0 0 0 0 0.01 0"/>
<feBlend mode="normal" in2="effect4_dropShadow_1812_34260" result="effect5_dropShadow_1812_34260"/>
<feBlend mode="normal" in="SourceGraphic" in2="effect5_dropShadow_1812_34260" result="shape"/>
</filter>
<linearGradient id="paint0_linear_1812_34260" x1="50.1526" y1="18.9857" x2="144.366" y2="177.035" gradientUnits="userSpaceOnUse">
<stop offset="0.0001" stop-color="#50E6FF"/>
<stop offset="0.96471" stop-color="#0078D4"/>
</linearGradient>
<linearGradient id="paint1_linear_1812_34260" x1="36.3053" y1="4.81305" x2="202.983" y2="287.144" gradientUnits="userSpaceOnUse">
<stop stop-color="#007ED8"/>
<stop offset="0.7065" stop-color="#002D4C"/>
</linearGradient>
<linearGradient id="paint2_linear_1812_34260" x1="44.519" y1="51.4629" x2="128.723" y2="50.4838" gradientUnits="userSpaceOnUse">
<stop stop-color="#742774"/>
<stop offset="1" stop-color="#5C085C"/>
</linearGradient>
<linearGradient id="paint3_linear_1812_34260" x1="22.1692" y1="89.7888" x2="50.7986" y2="94.6072" gradientUnits="userSpaceOnUse">
<stop stop-color="#FFBDE5"/>
<stop offset="1" stop-color="#E591C8"/>
</linearGradient>
<linearGradient id="paint4_linear_1812_34260" x1="22.1677" y1="98.5554" x2="40.1707" y2="98.5554" gradientUnits="userSpaceOnUse">
<stop stop-color="#E184C4"/>
<stop offset="1" stop-color="#D76EBC"/>
</linearGradient>
<linearGradient id="paint5_linear_1812_34260" x1="26.7192" y1="106.245" x2="25.2452" y2="115.408" gradientUnits="userSpaceOnUse">
<stop stop-color="#A23093"/>
<stop offset="1" stop-color="#692266"/>
</linearGradient>
<clipPath id="clip0_1812_34260">
<rect width="180" height="190" fill="white"/>
</clipPath>
</defs>
</svg>
