<svg width="103" height="102" viewBox="0 0 103 102" fill="none" xmlns="http://www.w3.org/2000/svg">
<path d="M51.0892 97.3511C25.4927 97.3511 4.73816 76.6065 4.73816 51C4.73816 25.3935 25.4927 4.64893 51.0892 4.64893C76.6858 4.64893 97.4403 25.4034 97.4403 51C97.4403 76.5966 76.6858 97.3511 51.0892 97.3511Z" fill="url(#paint0_linear_1660_7180)"/>
<path fill-rule="evenodd" clip-rule="evenodd" d="M96.5395 51.0003C96.5395 76.1017 76.191 96.4502 51.0895 96.4502C25.988 96.4502 5.63949 76.1017 5.63949 51.0003C5.63949 25.8988 25.988 5.55026 51.0895 5.55026C76.191 5.55026 96.5395 25.8988 96.5395 51.0003ZM51.0895 1.84692C78.2407 1.84692 100.243 23.8491 100.243 51.0003C100.243 78.1514 78.2308 100.154 51.0895 100.154C23.9383 100.154 1.93616 78.1415 1.93616 51.0003C1.93616 23.8491 23.9383 1.84692 51.0895 1.84692Z" fill="#F2F1F0"/>
<path fill-rule="evenodd" clip-rule="evenodd" d="M93.7568 51C93.7568 74.5667 74.6559 93.6676 51.0893 93.6676C27.5226 93.6676 8.42172 74.5667 8.42172 51C8.42172 27.4334 27.5226 8.33249 51.0893 8.33249C74.6559 8.33249 93.7568 27.4334 93.7568 51ZM51.0893 4.62915C76.6957 4.62915 97.4601 25.3936 97.4601 51C97.4601 76.6065 76.6957 97.3709 51.0893 97.3709C25.4828 97.3709 4.71838 76.6065 4.71838 51C4.71838 25.3936 25.4729 4.62915 51.0893 4.62915Z" fill="url(#paint1_linear_1660_7180)"/>
<g filter="url(#filter0_ddddd_1660_7180)">
<path d="M20.6609 76.1895H81.6441C81.9646 76.1886 82.2716 76.0609 82.4981 75.8343C82.7247 75.6078 82.8524 75.3008 82.8533 74.9804V27.3687H19.4517V74.9803C19.4526 75.3007 19.5803 75.6078 19.8069 75.8343C20.0335 76.0609 20.3405 76.1886 20.6609 76.1895V76.1895Z" fill="#F2F2F2"/>
</g>
<path d="M19.4517 32.6385H82.8533V26.9554C82.8537 26.8335 82.8299 26.7128 82.7834 26.6002C82.7369 26.4876 82.6687 26.3853 82.5825 26.2991C82.4964 26.213 82.3941 26.1447 82.2814 26.0982C82.1688 26.0518 82.0481 26.028 81.9263 26.0283H20.3787C20.2569 26.028 20.1362 26.0518 20.0236 26.0982C19.9109 26.1447 19.8086 26.213 19.7225 26.2991C19.6363 26.3853 19.568 26.4876 19.5216 26.6002C19.4751 26.7128 19.4513 26.8335 19.4517 26.9554V32.6385Z" fill="url(#paint2_linear_1660_7180)"/>
<path d="M24.3286 31.0763C24.6465 31.0753 24.9569 30.98 25.2207 30.8026C25.4844 30.6252 25.6896 30.3735 25.8104 30.0794C25.9311 29.7854 25.9619 29.4621 25.8989 29.1505C25.8359 28.839 25.682 28.5531 25.4565 28.329C25.231 28.1049 24.9441 27.9528 24.6322 27.8917C24.3202 27.8307 23.9972 27.8635 23.7039 27.9861C23.4106 28.1087 23.1602 28.3155 22.9844 28.5803C22.8087 28.8452 22.7154 29.1562 22.7164 29.4741C22.7146 29.6858 22.7552 29.8958 22.8358 30.0916C22.9163 30.2874 23.0352 30.4652 23.1854 30.6144C23.3355 30.7637 23.514 30.8814 23.7104 30.9607C23.9067 31.04 24.1169 31.0793 24.3286 31.0763V31.0763Z" fill="#50E6FF"/>
<g filter="url(#filter1_ddddd_1660_7180)">
<path d="M54.127 36.4507H25.5527C24.7243 36.4507 24.0527 37.1223 24.0527 37.9507V49.616C24.0527 50.4444 24.7243 51.116 25.5527 51.116H54.127C54.9555 51.116 55.627 50.4444 55.627 49.616V37.9507C55.627 37.1223 54.9555 36.4507 54.127 36.4507Z" fill="#FFFFFE"/>
</g>
<g filter="url(#filter2_ddddd_1660_7180)">
<path d="M54.1268 54.7336H25.5525C24.7241 54.7336 24.0525 55.4052 24.0525 56.2336V67.8989C24.0525 68.7273 24.7241 69.3989 25.5525 69.3989H54.1268C54.9552 69.3989 55.6268 68.7273 55.6268 67.8989V56.2336C55.6268 55.4052 54.9552 54.7336 54.1268 54.7336Z" fill="#FFFFFE"/>
</g>
<path d="M75.3542 45.6665L77.0325 43.9597V39.4961H71.769V43.9311L73.4473 45.638H73.4759V54.8651H71.7976V65.5419C71.7976 66.9988 72.976 68.1772 74.4329 68.1772C75.8898 68.1772 77.0682 66.9988 77.0682 65.5419V54.8722H75.3399L75.3542 45.6665Z" fill="url(#paint3_linear_1660_7180)"/>
<path d="M65.8632 61.742V47.6014C67.52 46.973 68.6984 45.3947 68.6984 43.5378C68.6984 41.7595 67.62 40.2026 66.0631 39.5527V44.0663H62.628V39.5527C61.0711 40.2026 59.9927 41.731 59.9927 43.5378C59.9927 45.3947 61.1711 46.9944 62.8279 47.6014V61.7135C61.7281 62.2634 60.9497 63.4203 60.9497 64.7487C60.9497 66.627 62.478 68.1339 64.3348 68.1339C66.2131 68.1339 67.72 66.6055 67.72 64.7487C67.7414 63.4203 66.9916 62.2919 65.8632 61.742ZM64.3634 65.9271C63.7135 65.9271 63.2136 65.3986 63.2136 64.7773C63.2136 64.1274 63.7421 63.6274 64.3634 63.6274C64.9919 63.6274 65.5132 64.1559 65.5132 64.7773C65.5132 65.3986 64.9847 65.9271 64.3634 65.9271Z" fill="url(#paint4_linear_1660_7180)"/>
<defs>
<filter id="filter0_ddddd_1660_7180" x="17.4517" y="27.3687" width="72.4017" height="62.8208" filterUnits="userSpaceOnUse" color-interpolation-filters="sRGB">
<feFlood flood-opacity="0" result="BackgroundImageFix"/>
<feColorMatrix in="SourceAlpha" type="matrix" values="0 0 0 0 0 0 0 0 0 0 0 0 0 0 0 0 0 0 127 0" result="hardAlpha"/>
<feOffset/>
<feColorMatrix type="matrix" values="0 0 0 0 0 0 0 0 0 0 0 0 0 0 0 0 0 0 0.1 0"/>
<feBlend mode="normal" in2="BackgroundImageFix" result="effect1_dropShadow_1660_7180"/>
<feColorMatrix in="SourceAlpha" type="matrix" values="0 0 0 0 0 0 0 0 0 0 0 0 0 0 0 0 0 0 127 0" result="hardAlpha"/>
<feOffset dy="1"/>
<feGaussianBlur stdDeviation="0.5"/>
<feColorMatrix type="matrix" values="0 0 0 0 0 0 0 0 0 0 0 0 0 0 0 0 0 0 0.1 0"/>
<feBlend mode="normal" in2="effect1_dropShadow_1660_7180" result="effect2_dropShadow_1660_7180"/>
<feColorMatrix in="SourceAlpha" type="matrix" values="0 0 0 0 0 0 0 0 0 0 0 0 0 0 0 0 0 0 127 0" result="hardAlpha"/>
<feOffset dx="1" dy="2"/>
<feGaussianBlur stdDeviation="1"/>
<feColorMatrix type="matrix" values="0 0 0 0 0 0 0 0 0 0 0 0 0 0 0 0 0 0 0.09 0"/>
<feBlend mode="normal" in2="effect2_dropShadow_1660_7180" result="effect3_dropShadow_1660_7180"/>
<feColorMatrix in="SourceAlpha" type="matrix" values="0 0 0 0 0 0 0 0 0 0 0 0 0 0 0 0 0 0 127 0" result="hardAlpha"/>
<feOffset dx="1" dy="5"/>
<feGaussianBlur stdDeviation="1.5"/>
<feColorMatrix type="matrix" values="0 0 0 0 0 0 0 0 0 0 0 0 0 0 0 0 0 0 0.05 0"/>
<feBlend mode="normal" in2="effect3_dropShadow_1660_7180" result="effect4_dropShadow_1660_7180"/>
<feColorMatrix in="SourceAlpha" type="matrix" values="0 0 0 0 0 0 0 0 0 0 0 0 0 0 0 0 0 0 127 0" result="hardAlpha"/>
<feOffset dx="3" dy="10"/>
<feGaussianBlur stdDeviation="2"/>
<feColorMatrix type="matrix" values="0 0 0 0 0 0 0 0 0 0 0 0 0 0 0 0 0 0 0.01 0"/>
<feBlend mode="normal" in2="effect4_dropShadow_1660_7180" result="effect5_dropShadow_1660_7180"/>
<feBlend mode="normal" in="SourceGraphic" in2="effect5_dropShadow_1660_7180" result="shape"/>
</filter>
<filter id="filter1_ddddd_1660_7180" x="21.0527" y="36.4507" width="39.5743" height="28.6653" filterUnits="userSpaceOnUse" color-interpolation-filters="sRGB">
<feFlood flood-opacity="0" result="BackgroundImageFix"/>
<feColorMatrix in="SourceAlpha" type="matrix" values="0 0 0 0 0 0 0 0 0 0 0 0 0 0 0 0 0 0 127 0" result="hardAlpha"/>
<feOffset/>
<feColorMatrix type="matrix" values="0 0 0 0 0 0 0 0 0 0 0 0 0 0 0 0 0 0 0.1 0"/>
<feBlend mode="normal" in2="BackgroundImageFix" result="effect1_dropShadow_1660_7180"/>
<feColorMatrix in="SourceAlpha" type="matrix" values="0 0 0 0 0 0 0 0 0 0 0 0 0 0 0 0 0 0 127 0" result="hardAlpha"/>
<feOffset dy="1"/>
<feGaussianBlur stdDeviation="0.5"/>
<feColorMatrix type="matrix" values="0 0 0 0 0 0 0 0 0 0 0 0 0 0 0 0 0 0 0.1 0"/>
<feBlend mode="normal" in2="effect1_dropShadow_1660_7180" result="effect2_dropShadow_1660_7180"/>
<feColorMatrix in="SourceAlpha" type="matrix" values="0 0 0 0 0 0 0 0 0 0 0 0 0 0 0 0 0 0 127 0" result="hardAlpha"/>
<feOffset dy="3"/>
<feGaussianBlur stdDeviation="1.5"/>
<feColorMatrix type="matrix" values="0 0 0 0 0 0 0 0 0 0 0 0 0 0 0 0 0 0 0.09 0"/>
<feBlend mode="normal" in2="effect2_dropShadow_1660_7180" result="effect3_dropShadow_1660_7180"/>
<feColorMatrix in="SourceAlpha" type="matrix" values="0 0 0 0 0 0 0 0 0 0 0 0 0 0 0 0 0 0 127 0" result="hardAlpha"/>
<feOffset dx="1" dy="6"/>
<feGaussianBlur stdDeviation="1.5"/>
<feColorMatrix type="matrix" values="0 0 0 0 0 0 0 0 0 0 0 0 0 0 0 0 0 0 0.05 0"/>
<feBlend mode="normal" in2="effect3_dropShadow_1660_7180" result="effect4_dropShadow_1660_7180"/>
<feColorMatrix in="SourceAlpha" type="matrix" values="0 0 0 0 0 0 0 0 0 0 0 0 0 0 0 0 0 0 127 0" result="hardAlpha"/>
<feOffset dx="1" dy="10"/>
<feGaussianBlur stdDeviation="2"/>
<feColorMatrix type="matrix" values="0 0 0 0 0 0 0 0 0 0 0 0 0 0 0 0 0 0 0.01 0"/>
<feBlend mode="normal" in2="effect4_dropShadow_1660_7180" result="effect5_dropShadow_1660_7180"/>
<feBlend mode="normal" in="SourceGraphic" in2="effect5_dropShadow_1660_7180" result="shape"/>
</filter>
<filter id="filter2_ddddd_1660_7180" x="16.0525" y="53.7336" width="45.5743" height="39.6653" filterUnits="userSpaceOnUse" color-interpolation-filters="sRGB">
<feFlood flood-opacity="0" result="BackgroundImageFix"/>
<feColorMatrix in="SourceAlpha" type="matrix" values="0 0 0 0 0 0 0 0 0 0 0 0 0 0 0 0 0 0 127 0" result="hardAlpha"/>
<feOffset/>
<feColorMatrix type="matrix" values="0 0 0 0 0 0 0 0 0 0 0 0 0 0 0 0 0 0 0.1 0"/>
<feBlend mode="normal" in2="BackgroundImageFix" result="effect1_dropShadow_1660_7180"/>
<feColorMatrix in="SourceAlpha" type="matrix" values="0 0 0 0 0 0 0 0 0 0 0 0 0 0 0 0 0 0 127 0" result="hardAlpha"/>
<feOffset dy="1"/>
<feGaussianBlur stdDeviation="1"/>
<feColorMatrix type="matrix" values="0 0 0 0 0 0 0 0 0 0 0 0 0 0 0 0 0 0 0.1 0"/>
<feBlend mode="normal" in2="effect1_dropShadow_1660_7180" result="effect2_dropShadow_1660_7180"/>
<feColorMatrix in="SourceAlpha" type="matrix" values="0 0 0 0 0 0 0 0 0 0 0 0 0 0 0 0 0 0 127 0" result="hardAlpha"/>
<feOffset dy="4"/>
<feGaussianBlur stdDeviation="2"/>
<feColorMatrix type="matrix" values="0 0 0 0 0 0 0 0 0 0 0 0 0 0 0 0 0 0 0.09 0"/>
<feBlend mode="normal" in2="effect2_dropShadow_1660_7180" result="effect3_dropShadow_1660_7180"/>
<feColorMatrix in="SourceAlpha" type="matrix" values="0 0 0 0 0 0 0 0 0 0 0 0 0 0 0 0 0 0 127 0" result="hardAlpha"/>
<feOffset dx="-1" dy="10"/>
<feGaussianBlur stdDeviation="3"/>
<feColorMatrix type="matrix" values="0 0 0 0 0 0 0 0 0 0 0 0 0 0 0 0 0 0 0.05 0"/>
<feBlend mode="normal" in2="effect3_dropShadow_1660_7180" result="effect4_dropShadow_1660_7180"/>
<feColorMatrix in="SourceAlpha" type="matrix" values="0 0 0 0 0 0 0 0 0 0 0 0 0 0 0 0 0 0 127 0" result="hardAlpha"/>
<feOffset dx="-1" dy="17"/>
<feGaussianBlur stdDeviation="3.5"/>
<feColorMatrix type="matrix" values="0 0 0 0 0 0 0 0 0 0 0 0 0 0 0 0 0 0 0.01 0"/>
<feBlend mode="normal" in2="effect4_dropShadow_1660_7180" result="effect5_dropShadow_1660_7180"/>
<feBlend mode="normal" in="SourceGraphic" in2="effect5_dropShadow_1660_7180" result="shape"/>
</filter>
<linearGradient id="paint0_linear_1660_7180" x1="25.3745" y1="9.49709" x2="100.281" y2="148.693" gradientUnits="userSpaceOnUse">
<stop offset="0.0001" stop-color="#50E6FF"/>
<stop offset="0.623265" stop-color="#0078D4"/>
</linearGradient>
<linearGradient id="paint1_linear_1660_7180" x1="15.6761" y1="11.2232" x2="83.2186" y2="98.6209" gradientUnits="userSpaceOnUse">
<stop stop-color="#007ED8"/>
<stop offset="0.915361" stop-color="#002D4C"/>
</linearGradient>
<linearGradient id="paint2_linear_1660_7180" x1="26.3908" y1="26.4883" x2="73.383" y2="25.9419" gradientUnits="userSpaceOnUse">
<stop stop-color="#742774"/>
<stop offset="1" stop-color="#5C085C"/>
</linearGradient>
<linearGradient id="paint3_linear_1660_7180" x1="74.195" y1="40.5642" x2="80.4726" y2="63.5537" gradientUnits="userSpaceOnUse">
<stop stop-color="#A23093"/>
<stop offset="1" stop-color="#692266"/>
</linearGradient>
<linearGradient id="paint4_linear_1660_7180" x1="59.9889" y1="53.8289" x2="68.6903" y2="53.8289" gradientUnits="userSpaceOnUse">
<stop stop-color="#E184C4"/>
<stop offset="1" stop-color="#D76EBC"/>
</linearGradient>
</defs>
</svg>
