<svg width="103" height="102" viewBox="0 0 103 102" fill="none" xmlns="http://www.w3.org/2000/svg">
<path d="M51.0892 97.351C25.4927 97.351 4.73816 76.6064 4.73816 50.9999C4.73816 25.3935 25.4927 4.64886 51.0892 4.64886C76.6858 4.64886 97.4403 25.4034 97.4403 50.9999C97.4403 76.5965 76.6858 97.351 51.0892 97.351Z" fill="url(#paint0_linear_1661_25340)"/>
<path fill-rule="evenodd" clip-rule="evenodd" d="M96.5395 51.0003C96.5395 76.1018 76.191 96.4503 51.0895 96.4503C25.988 96.4503 5.63949 76.1018 5.63949 51.0003C5.63949 25.8989 25.988 5.55035 51.0895 5.55035C76.191 5.55035 96.5395 25.8989 96.5395 51.0003ZM51.0895 1.84702C78.2407 1.84702 100.243 23.8492 100.243 51.0003C100.243 78.1515 78.2308 100.154 51.0895 100.154C23.9383 100.154 1.93616 78.1416 1.93616 51.0003C1.93616 23.8492 23.9383 1.84702 51.0895 1.84702Z" fill="#F2F1F0"/>
<path fill-rule="evenodd" clip-rule="evenodd" d="M93.7568 50.9999C93.7568 74.5666 74.6559 93.6675 51.0893 93.6675C27.5226 93.6675 8.42172 74.5666 8.42172 50.9999C8.42172 27.4333 27.5226 8.33238 51.0893 8.33238C74.6559 8.33238 93.7568 27.4333 93.7568 50.9999ZM51.0893 4.62904C76.6957 4.62904 97.4601 25.3935 97.4601 50.9999C97.4601 76.6064 76.6957 97.3708 51.0893 97.3708C25.4828 97.3708 4.71838 76.6064 4.71838 50.9999C4.71838 25.3935 25.4729 4.62904 51.0893 4.62904Z" fill="url(#paint1_linear_1661_25340)"/>
<g filter="url(#filter0_ddddd_1661_25340)">
<path d="M20.6609 76.1897H81.6441C81.9646 76.1887 82.2716 76.061 82.4981 75.8345C82.7247 75.6079 82.8524 75.3009 82.8533 74.9805V27.3688H19.4517V74.9804C19.4526 75.3008 19.5803 75.6079 19.8069 75.8345C20.0335 76.061 20.3405 76.1887 20.6609 76.1897V76.1897Z" fill="#F2F2F2"/>
</g>
<path d="M19.4517 32.6385H82.8533V26.9554C82.8537 26.8335 82.8299 26.7128 82.7834 26.6002C82.7369 26.4876 82.6687 26.3853 82.5825 26.2991C82.4964 26.213 82.3941 26.1447 82.2814 26.0982C82.1688 26.0518 82.0481 26.028 81.9263 26.0283H20.3787C20.2569 26.028 20.1362 26.0518 20.0236 26.0982C19.9109 26.1447 19.8086 26.213 19.7225 26.2991C19.6363 26.3853 19.568 26.4876 19.5216 26.6002C19.4751 26.7128 19.4513 26.8335 19.4517 26.9554V32.6385Z" fill="url(#paint2_linear_1661_25340)"/>
<path d="M24.3286 31.0763C24.6465 31.0753 24.9569 30.98 25.2207 30.8026C25.4844 30.6252 25.6896 30.3735 25.8104 30.0794C25.9311 29.7854 25.9619 29.4621 25.8989 29.1505C25.8359 28.839 25.682 28.5531 25.4565 28.329C25.231 28.1049 24.9441 27.9528 24.6322 27.8917C24.3202 27.8307 23.9972 27.8635 23.7039 27.9861C23.4106 28.1087 23.1602 28.3155 22.9844 28.5803C22.8087 28.8452 22.7154 29.1562 22.7164 29.4741C22.7146 29.6858 22.7552 29.8958 22.8358 30.0916C22.9163 30.2874 23.0352 30.4652 23.1854 30.6144C23.3355 30.7637 23.514 30.8814 23.7104 30.9607C23.9067 31.04 24.1169 31.0793 24.3286 31.0763V31.0763Z" fill="#50E6FF"/>
<g filter="url(#filter1_ddddd_1661_25340)">
<path d="M76.2081 36.4506H25.5527C24.7243 36.4506 24.0527 37.1222 24.0527 37.9506V49.6159C24.0527 50.4443 24.7243 51.1159 25.5527 51.1159H76.2081C77.0366 51.1159 77.7081 50.4443 77.7081 49.6159V37.9506C77.7081 37.1222 77.0366 36.4506 76.2081 36.4506Z" fill="#6BB9F2"/>
<path d="M76.2081 36.4506H25.5527C24.7243 36.4506 24.0527 37.1222 24.0527 37.9506V49.6159C24.0527 50.4443 24.7243 51.1159 25.5527 51.1159H76.2081C77.0366 51.1159 77.7081 50.4443 77.7081 49.6159V37.9506C77.7081 37.1222 77.0366 36.4506 76.2081 36.4506Z" fill="#FFFFFE"/>
</g>
<g filter="url(#filter2_ddddd_1661_25340)">
<path d="M76.2079 54.7336H25.5525C24.7241 54.7336 24.0525 55.4052 24.0525 56.2336V67.8989C24.0525 68.7273 24.7241 69.3989 25.5525 69.3989H76.2079C77.0363 69.3989 77.7079 68.7273 77.7079 67.8989V56.2336C77.7079 55.4052 77.0363 54.7336 76.2079 54.7336Z" fill="#FFFFFE"/>
</g>
<path opacity="0.15" d="M42.9543 66.9252H15.8065C15.0457 66.9252 14.4351 66.3046 14.4351 65.5538V40.428C14.4351 39.6673 15.0457 39.0566 15.8065 39.0566H42.9543C43.7151 39.0566 44.3257 39.6673 44.3257 40.428V65.5438C44.3257 66.3046 43.705 66.9252 42.9543 66.9252Z" fill="#1F1D20"/>
<g filter="url(#filter3_ddddd_1661_25340)">
<path d="M42.9543 66.9155H15.8065C15.0457 66.9155 14.4351 66.3048 14.4351 65.544V40.4383C14.4351 39.6776 15.0457 39.0669 15.8065 39.0669H42.9543C43.7151 39.0669 44.3257 39.6776 44.3257 40.4383V65.5541C44.3257 66.3048 43.705 66.9155 42.9543 66.9155Z" fill="white"/>
</g>
<path d="M35.3257 47.1841C35.3257 46.5635 34.8252 46.063 34.2046 46.063H20.7408C20.1201 46.063 19.6196 46.5635 19.6196 47.1841C19.6196 47.8048 20.1201 48.3053 20.7408 48.3053H34.2146C34.8352 48.2953 35.3257 47.8048 35.3257 47.1841Z" fill="url(#paint3_linear_1661_25340)"/>
<path d="M39.1395 47.1841C39.1395 46.5635 38.639 46.063 38.0184 46.063H34.3546C33.734 46.063 34.1344 46.5635 34.1344 47.1841C34.1344 47.8048 33.744 48.3053 34.3546 48.3053H38.0284C38.629 48.2953 39.1395 47.8048 39.1395 47.1841Z" fill="#9B9BA0"/>
<path d="M31.1915 52.8191C31.1915 52.1985 30.691 51.698 30.0703 51.698H20.7408C20.1201 51.698 19.6196 52.1985 19.6196 52.8191C19.6196 53.4397 20.1201 53.9402 20.7408 53.9402H30.0904C30.701 53.9302 31.1915 53.4397 31.1915 52.8191Z" fill="url(#paint4_linear_1661_25340)"/>
<path d="M39.1397 52.8191C39.1397 52.1985 38.6392 51.698 38.0186 51.698H30.7512C30.1305 51.698 29.63 52.1985 29.63 52.8191C29.63 53.4397 30.1305 53.9402 30.7512 53.9402H38.0286C38.6292 53.9302 39.1397 53.4397 39.1397 52.8191Z" fill="#9B9BA0"/>
<path d="M25.9962 58.7955C25.9962 58.1748 25.4956 57.6743 24.875 57.6743H20.7408C20.1201 57.6843 19.6196 58.1748 19.6196 58.7955C19.6196 59.4161 20.1201 59.9166 20.7408 59.9166H24.875C25.4956 59.8966 25.9962 59.4061 25.9962 58.7955Z" fill="url(#paint5_linear_1661_25340)"/>
<path d="M39.1402 58.7955C39.1402 58.1748 38.6397 57.6743 38.0191 57.6743H25.9767C25.3561 57.6743 24.8556 58.1748 24.8556 58.7955C24.8556 59.4161 25.3561 59.9166 25.9767 59.9166H38.0191C38.6297 59.8966 39.1402 59.4061 39.1402 58.7955Z" fill="#9B9BA0"/>
<g filter="url(#filter4_ddddd_1661_25340)">
<path d="M32.5435 47.1837C32.5435 48.4149 33.5345 49.416 34.7757 49.416C36.017 49.416 37.008 48.425 37.008 47.1837C37.008 45.9524 35.997 44.9514 34.7657 44.9514C33.5445 44.9714 32.5435 45.9524 32.5435 47.1837Z" fill="#550555"/>
<path d="M27.6685 52.8194C27.6685 54.0507 28.6595 55.0517 29.9007 55.0517C31.142 55.0517 32.133 54.0607 32.133 52.8194C32.133 51.5882 31.142 50.5871 29.9007 50.5871C28.6595 50.5871 27.6685 51.5882 27.6685 52.8194Z" fill="#550555"/>
<path d="M23.0737 58.795C23.0737 60.0263 24.0647 61.0273 25.306 61.0273C26.5373 61.0273 27.5383 60.0363 27.5383 58.795C27.5383 57.5638 26.5473 56.5627 25.306 56.5627C24.0647 56.5627 23.0737 57.5638 23.0737 58.795Z" fill="#550555"/>
</g>
<defs>
<filter id="filter0_ddddd_1661_25340" x="17.4517" y="27.3688" width="72.4017" height="62.8209" filterUnits="userSpaceOnUse" color-interpolation-filters="sRGB">
<feFlood flood-opacity="0" result="BackgroundImageFix"/>
<feColorMatrix in="SourceAlpha" type="matrix" values="0 0 0 0 0 0 0 0 0 0 0 0 0 0 0 0 0 0 127 0" result="hardAlpha"/>
<feOffset/>
<feColorMatrix type="matrix" values="0 0 0 0 0 0 0 0 0 0 0 0 0 0 0 0 0 0 0.1 0"/>
<feBlend mode="normal" in2="BackgroundImageFix" result="effect1_dropShadow_1661_25340"/>
<feColorMatrix in="SourceAlpha" type="matrix" values="0 0 0 0 0 0 0 0 0 0 0 0 0 0 0 0 0 0 127 0" result="hardAlpha"/>
<feOffset dy="1"/>
<feGaussianBlur stdDeviation="0.5"/>
<feColorMatrix type="matrix" values="0 0 0 0 0 0 0 0 0 0 0 0 0 0 0 0 0 0 0.1 0"/>
<feBlend mode="normal" in2="effect1_dropShadow_1661_25340" result="effect2_dropShadow_1661_25340"/>
<feColorMatrix in="SourceAlpha" type="matrix" values="0 0 0 0 0 0 0 0 0 0 0 0 0 0 0 0 0 0 127 0" result="hardAlpha"/>
<feOffset dx="1" dy="2"/>
<feGaussianBlur stdDeviation="1"/>
<feColorMatrix type="matrix" values="0 0 0 0 0 0 0 0 0 0 0 0 0 0 0 0 0 0 0.09 0"/>
<feBlend mode="normal" in2="effect2_dropShadow_1661_25340" result="effect3_dropShadow_1661_25340"/>
<feColorMatrix in="SourceAlpha" type="matrix" values="0 0 0 0 0 0 0 0 0 0 0 0 0 0 0 0 0 0 127 0" result="hardAlpha"/>
<feOffset dx="1" dy="5"/>
<feGaussianBlur stdDeviation="1.5"/>
<feColorMatrix type="matrix" values="0 0 0 0 0 0 0 0 0 0 0 0 0 0 0 0 0 0 0.05 0"/>
<feBlend mode="normal" in2="effect3_dropShadow_1661_25340" result="effect4_dropShadow_1661_25340"/>
<feColorMatrix in="SourceAlpha" type="matrix" values="0 0 0 0 0 0 0 0 0 0 0 0 0 0 0 0 0 0 127 0" result="hardAlpha"/>
<feOffset dx="3" dy="10"/>
<feGaussianBlur stdDeviation="2"/>
<feColorMatrix type="matrix" values="0 0 0 0 0 0 0 0 0 0 0 0 0 0 0 0 0 0 0.01 0"/>
<feBlend mode="normal" in2="effect4_dropShadow_1661_25340" result="effect5_dropShadow_1661_25340"/>
<feBlend mode="normal" in="SourceGraphic" in2="effect5_dropShadow_1661_25340" result="shape"/>
</filter>
<filter id="filter1_ddddd_1661_25340" x="21.0527" y="36.4506" width="61.6554" height="28.6653" filterUnits="userSpaceOnUse" color-interpolation-filters="sRGB">
<feFlood flood-opacity="0" result="BackgroundImageFix"/>
<feColorMatrix in="SourceAlpha" type="matrix" values="0 0 0 0 0 0 0 0 0 0 0 0 0 0 0 0 0 0 127 0" result="hardAlpha"/>
<feOffset/>
<feColorMatrix type="matrix" values="0 0 0 0 0 0 0 0 0 0 0 0 0 0 0 0 0 0 0.1 0"/>
<feBlend mode="normal" in2="BackgroundImageFix" result="effect1_dropShadow_1661_25340"/>
<feColorMatrix in="SourceAlpha" type="matrix" values="0 0 0 0 0 0 0 0 0 0 0 0 0 0 0 0 0 0 127 0" result="hardAlpha"/>
<feOffset dy="1"/>
<feGaussianBlur stdDeviation="0.5"/>
<feColorMatrix type="matrix" values="0 0 0 0 0 0 0 0 0 0 0 0 0 0 0 0 0 0 0.1 0"/>
<feBlend mode="normal" in2="effect1_dropShadow_1661_25340" result="effect2_dropShadow_1661_25340"/>
<feColorMatrix in="SourceAlpha" type="matrix" values="0 0 0 0 0 0 0 0 0 0 0 0 0 0 0 0 0 0 127 0" result="hardAlpha"/>
<feOffset dy="3"/>
<feGaussianBlur stdDeviation="1.5"/>
<feColorMatrix type="matrix" values="0 0 0 0 0 0 0 0 0 0 0 0 0 0 0 0 0 0 0.09 0"/>
<feBlend mode="normal" in2="effect2_dropShadow_1661_25340" result="effect3_dropShadow_1661_25340"/>
<feColorMatrix in="SourceAlpha" type="matrix" values="0 0 0 0 0 0 0 0 0 0 0 0 0 0 0 0 0 0 127 0" result="hardAlpha"/>
<feOffset dx="1" dy="6"/>
<feGaussianBlur stdDeviation="1.5"/>
<feColorMatrix type="matrix" values="0 0 0 0 0 0 0 0 0 0 0 0 0 0 0 0 0 0 0.05 0"/>
<feBlend mode="normal" in2="effect3_dropShadow_1661_25340" result="effect4_dropShadow_1661_25340"/>
<feColorMatrix in="SourceAlpha" type="matrix" values="0 0 0 0 0 0 0 0 0 0 0 0 0 0 0 0 0 0 127 0" result="hardAlpha"/>
<feOffset dx="1" dy="10"/>
<feGaussianBlur stdDeviation="2"/>
<feColorMatrix type="matrix" values="0 0 0 0 0 0 0 0 0 0 0 0 0 0 0 0 0 0 0.01 0"/>
<feBlend mode="normal" in2="effect4_dropShadow_1661_25340" result="effect5_dropShadow_1661_25340"/>
<feBlend mode="normal" in="SourceGraphic" in2="effect5_dropShadow_1661_25340" result="shape"/>
</filter>
<filter id="filter2_ddddd_1661_25340" x="16.0525" y="53.7336" width="67.6554" height="39.6653" filterUnits="userSpaceOnUse" color-interpolation-filters="sRGB">
<feFlood flood-opacity="0" result="BackgroundImageFix"/>
<feColorMatrix in="SourceAlpha" type="matrix" values="0 0 0 0 0 0 0 0 0 0 0 0 0 0 0 0 0 0 127 0" result="hardAlpha"/>
<feOffset/>
<feColorMatrix type="matrix" values="0 0 0 0 0 0 0 0 0 0 0 0 0 0 0 0 0 0 0.1 0"/>
<feBlend mode="normal" in2="BackgroundImageFix" result="effect1_dropShadow_1661_25340"/>
<feColorMatrix in="SourceAlpha" type="matrix" values="0 0 0 0 0 0 0 0 0 0 0 0 0 0 0 0 0 0 127 0" result="hardAlpha"/>
<feOffset dy="1"/>
<feGaussianBlur stdDeviation="1"/>
<feColorMatrix type="matrix" values="0 0 0 0 0 0 0 0 0 0 0 0 0 0 0 0 0 0 0.1 0"/>
<feBlend mode="normal" in2="effect1_dropShadow_1661_25340" result="effect2_dropShadow_1661_25340"/>
<feColorMatrix in="SourceAlpha" type="matrix" values="0 0 0 0 0 0 0 0 0 0 0 0 0 0 0 0 0 0 127 0" result="hardAlpha"/>
<feOffset dy="4"/>
<feGaussianBlur stdDeviation="2"/>
<feColorMatrix type="matrix" values="0 0 0 0 0 0 0 0 0 0 0 0 0 0 0 0 0 0 0.09 0"/>
<feBlend mode="normal" in2="effect2_dropShadow_1661_25340" result="effect3_dropShadow_1661_25340"/>
<feColorMatrix in="SourceAlpha" type="matrix" values="0 0 0 0 0 0 0 0 0 0 0 0 0 0 0 0 0 0 127 0" result="hardAlpha"/>
<feOffset dx="-1" dy="10"/>
<feGaussianBlur stdDeviation="3"/>
<feColorMatrix type="matrix" values="0 0 0 0 0 0 0 0 0 0 0 0 0 0 0 0 0 0 0.05 0"/>
<feBlend mode="normal" in2="effect3_dropShadow_1661_25340" result="effect4_dropShadow_1661_25340"/>
<feColorMatrix in="SourceAlpha" type="matrix" values="0 0 0 0 0 0 0 0 0 0 0 0 0 0 0 0 0 0 127 0" result="hardAlpha"/>
<feOffset dx="-1" dy="17"/>
<feGaussianBlur stdDeviation="3.5"/>
<feColorMatrix type="matrix" values="0 0 0 0 0 0 0 0 0 0 0 0 0 0 0 0 0 0 0.01 0"/>
<feBlend mode="normal" in2="effect4_dropShadow_1661_25340" result="effect5_dropShadow_1661_25340"/>
<feBlend mode="normal" in="SourceGraphic" in2="effect5_dropShadow_1661_25340" result="shape"/>
</filter>
<filter id="filter3_ddddd_1661_25340" x="11.4351" y="38.0669" width="35.8906" height="39.8485" filterUnits="userSpaceOnUse" color-interpolation-filters="sRGB">
<feFlood flood-opacity="0" result="BackgroundImageFix"/>
<feColorMatrix in="SourceAlpha" type="matrix" values="0 0 0 0 0 0 0 0 0 0 0 0 0 0 0 0 0 0 127 0" result="hardAlpha"/>
<feOffset/>
<feColorMatrix type="matrix" values="0 0 0 0 0 0 0 0 0 0 0 0 0 0 0 0 0 0 0.1 0"/>
<feBlend mode="normal" in2="BackgroundImageFix" result="effect1_dropShadow_1661_25340"/>
<feColorMatrix in="SourceAlpha" type="matrix" values="0 0 0 0 0 0 0 0 0 0 0 0 0 0 0 0 0 0 127 0" result="hardAlpha"/>
<feOffset/>
<feGaussianBlur stdDeviation="0.5"/>
<feColorMatrix type="matrix" values="0 0 0 0 0 0 0 0 0 0 0 0 0 0 0 0 0 0 0.1 0"/>
<feBlend mode="normal" in2="effect1_dropShadow_1661_25340" result="effect2_dropShadow_1661_25340"/>
<feColorMatrix in="SourceAlpha" type="matrix" values="0 0 0 0 0 0 0 0 0 0 0 0 0 0 0 0 0 0 127 0" result="hardAlpha"/>
<feOffset dy="2"/>
<feGaussianBlur stdDeviation="1"/>
<feColorMatrix type="matrix" values="0 0 0 0 0 0 0 0 0 0 0 0 0 0 0 0 0 0 0.09 0"/>
<feBlend mode="normal" in2="effect2_dropShadow_1661_25340" result="effect3_dropShadow_1661_25340"/>
<feColorMatrix in="SourceAlpha" type="matrix" values="0 0 0 0 0 0 0 0 0 0 0 0 0 0 0 0 0 0 127 0" result="hardAlpha"/>
<feOffset dy="4"/>
<feGaussianBlur stdDeviation="1.5"/>
<feColorMatrix type="matrix" values="0 0 0 0 0 0 0 0 0 0 0 0 0 0 0 0 0 0 0.05 0"/>
<feBlend mode="normal" in2="effect3_dropShadow_1661_25340" result="effect4_dropShadow_1661_25340"/>
<feColorMatrix in="SourceAlpha" type="matrix" values="0 0 0 0 0 0 0 0 0 0 0 0 0 0 0 0 0 0 127 0" result="hardAlpha"/>
<feOffset dy="8"/>
<feGaussianBlur stdDeviation="1.5"/>
<feColorMatrix type="matrix" values="0 0 0 0 0 0 0 0 0 0 0 0 0 0 0 0 0 0 0.01 0"/>
<feBlend mode="normal" in2="effect4_dropShadow_1661_25340" result="effect5_dropShadow_1661_25340"/>
<feBlend mode="normal" in="SourceGraphic" in2="effect5_dropShadow_1661_25340" result="shape"/>
</filter>
<filter id="filter4_ddddd_1661_25340" x="22.0737" y="44.9514" width="15.9343" height="20.0759" filterUnits="userSpaceOnUse" color-interpolation-filters="sRGB">
<feFlood flood-opacity="0" result="BackgroundImageFix"/>
<feColorMatrix in="SourceAlpha" type="matrix" values="0 0 0 0 0 0 0 0 0 0 0 0 0 0 0 0 0 0 127 0" result="hardAlpha"/>
<feOffset/>
<feColorMatrix type="matrix" values="0 0 0 0 0 0 0 0 0 0 0 0 0 0 0 0 0 0 0.1 0"/>
<feBlend mode="normal" in2="BackgroundImageFix" result="effect1_dropShadow_1661_25340"/>
<feColorMatrix in="SourceAlpha" type="matrix" values="0 0 0 0 0 0 0 0 0 0 0 0 0 0 0 0 0 0 127 0" result="hardAlpha"/>
<feOffset/>
<feColorMatrix type="matrix" values="0 0 0 0 0 0 0 0 0 0 0 0 0 0 0 0 0 0 0.1 0"/>
<feBlend mode="normal" in2="effect1_dropShadow_1661_25340" result="effect2_dropShadow_1661_25340"/>
<feColorMatrix in="SourceAlpha" type="matrix" values="0 0 0 0 0 0 0 0 0 0 0 0 0 0 0 0 0 0 127 0" result="hardAlpha"/>
<feOffset dy="1"/>
<feGaussianBlur stdDeviation="0.5"/>
<feColorMatrix type="matrix" values="0 0 0 0 0 0 0 0 0 0 0 0 0 0 0 0 0 0 0.09 0"/>
<feBlend mode="normal" in2="effect2_dropShadow_1661_25340" result="effect3_dropShadow_1661_25340"/>
<feColorMatrix in="SourceAlpha" type="matrix" values="0 0 0 0 0 0 0 0 0 0 0 0 0 0 0 0 0 0 127 0" result="hardAlpha"/>
<feOffset dy="2"/>
<feGaussianBlur stdDeviation="0.5"/>
<feColorMatrix type="matrix" values="0 0 0 0 0 0 0 0 0 0 0 0 0 0 0 0 0 0 0.05 0"/>
<feBlend mode="normal" in2="effect3_dropShadow_1661_25340" result="effect4_dropShadow_1661_25340"/>
<feColorMatrix in="SourceAlpha" type="matrix" values="0 0 0 0 0 0 0 0 0 0 0 0 0 0 0 0 0 0 127 0" result="hardAlpha"/>
<feOffset dy="3"/>
<feGaussianBlur stdDeviation="0.5"/>
<feColorMatrix type="matrix" values="0 0 0 0 0 0 0 0 0 0 0 0 0 0 0 0 0 0 0.01 0"/>
<feBlend mode="normal" in2="effect4_dropShadow_1661_25340" result="effect5_dropShadow_1661_25340"/>
<feBlend mode="normal" in="SourceGraphic" in2="effect5_dropShadow_1661_25340" result="shape"/>
</filter>
<linearGradient id="paint0_linear_1661_25340" x1="25.3745" y1="9.49703" x2="100.281" y2="148.693" gradientUnits="userSpaceOnUse">
<stop offset="0.0001" stop-color="#50E6FF"/>
<stop offset="0.623265" stop-color="#0078D4"/>
</linearGradient>
<linearGradient id="paint1_linear_1661_25340" x1="15.6761" y1="11.2231" x2="83.2186" y2="98.6208" gradientUnits="userSpaceOnUse">
<stop stop-color="#007ED8"/>
<stop offset="0.915361" stop-color="#002D4C"/>
</linearGradient>
<linearGradient id="paint2_linear_1661_25340" x1="26.3908" y1="26.4883" x2="73.383" y2="25.9419" gradientUnits="userSpaceOnUse">
<stop stop-color="#742774"/>
<stop offset="1" stop-color="#5C085C"/>
</linearGradient>
<linearGradient id="paint3_linear_1661_25340" x1="19.6156" y1="47.1852" x2="38.0087" y2="50.2807" gradientUnits="userSpaceOnUse">
<stop stop-color="#FFBDE5"/>
<stop offset="1" stop-color="#E591C8"/>
</linearGradient>
<linearGradient id="paint4_linear_1661_25340" x1="19.6146" y1="52.818" x2="31.1807" y2="52.818" gradientUnits="userSpaceOnUse">
<stop stop-color="#E184C4"/>
<stop offset="1" stop-color="#D76EBC"/>
</linearGradient>
<linearGradient id="paint5_linear_1661_25340" x1="22.5388" y1="57.7578" x2="21.5918" y2="63.6451" gradientUnits="userSpaceOnUse">
<stop stop-color="#A23093"/>
<stop offset="1" stop-color="#692266"/>
</linearGradient>
</defs>
</svg>
