<svg width="103" height="103" viewBox="0 0 103 103" fill="none" xmlns="http://www.w3.org/2000/svg">
<path d="M51.6506 98.7098C25.8006 98.7098 4.84058 77.7598 4.84058 51.8998C4.84058 26.0398 25.8006 5.08984 51.6506 5.08984C77.5006 5.08984 98.4606 26.0498 98.4606 51.8998C98.4606 77.7498 77.5006 98.7098 51.6506 98.7098Z" fill="url(#paint0_linear)"/>
<path fill-rule="evenodd" clip-rule="evenodd" d="M97.5505 51.8998C97.5505 77.2498 77.0005 97.7998 51.6505 97.7998C26.3005 97.7998 5.7505 77.2498 5.7505 51.8998C5.7505 26.5498 26.3005 5.99977 51.6505 5.99977C77.0005 5.99977 97.5505 26.5498 97.5505 51.8998ZM51.6505 2.25977C79.0705 2.25977 101.29 24.4798 101.29 51.8998C101.29 79.3198 79.0605 101.54 51.6505 101.54C24.2305 101.54 2.0105 79.3098 2.0105 51.8998C2.0105 24.4798 24.2305 2.25977 51.6505 2.25977Z" fill="#F2F1F0"/>
<path fill-rule="evenodd" clip-rule="evenodd" d="M94.7406 51.8998C94.7406 75.6998 75.4506 94.9898 51.6506 94.9898C27.8506 94.9898 8.56056 75.6998 8.56056 51.8998C8.56056 28.0998 27.8506 8.80982 51.6506 8.80982C75.4506 8.80982 94.7406 28.0998 94.7406 51.8998ZM51.6506 5.06982C77.5106 5.06982 98.4806 26.0398 98.4806 51.8998C98.4806 77.7598 77.5106 98.7298 51.6506 98.7298C25.7906 98.7298 4.82056 77.7598 4.82056 51.8998C4.82056 26.0398 25.7806 5.06982 51.6506 5.06982Z" fill="#0078D4"/>
<path d="M78.4705 52.4797V45.4497L71.2905 42.9397L69.5305 38.1697L73.0605 30.7597V30.0097L70.7905 27.7497L68.1405 24.7397H67.1305L60.0705 28.5097L55.2805 27.1297L52.1305 19.2197H45.2005L42.8105 26.3697L37.5205 28.4997L29.3305 24.6097L24.4105 29.5097V30.3897L28.0605 37.4197L25.9205 42.6897L17.4805 45.8297V52.8597H18.4905L25.9305 55.3697L27.9505 60.1397L24.1505 68.2997L29.0705 73.3197H30.0805L37.0105 69.8097L41.9305 71.8197L44.9505 80.2297H52.0105V79.2297L54.4005 71.6997L59.1905 69.6897L67.5105 73.5797L72.4305 68.6797V67.6797L68.9005 60.6497L70.2905 55.7497L78.4705 52.4797Z" fill="url(#paint1_linear)"/>
<path d="M48.8605 37.6198L46.0405 34.7098C45.6605 34.3098 45.0205 34.3298 44.6505 34.7498L32.7305 48.3498C32.2005 48.9598 32.2005 49.8598 32.7305 50.4698L44.5405 64.0498C44.9805 64.5598 45.7805 64.5598 46.2205 64.0498L49.7505 59.9798L50.1405 39.0298L48.8605 37.6198Z" fill="url(#paint2_linear)"/>
<path d="M62.7306 47.7596L50.9806 34.9196C50.4706 34.3796 49.6106 34.3696 49.1006 34.8996L43.6806 40.5096C43.0906 41.1196 43.0806 42.0796 43.6606 42.6996L49.2206 48.6696C49.6306 49.1096 49.6306 49.7896 49.2206 50.2196L43.6306 56.2596C43.0606 56.8796 43.0706 57.8396 43.6506 58.4396L49.0906 64.0796C49.6106 64.6196 50.4706 64.6096 50.9806 64.0596L62.7306 51.1196C63.6006 50.1696 63.6006 48.7096 62.7306 47.7596Z" fill="url(#paint3_linear)"/>
<path d="M63.2905 50.5199L58.0505 56.3299C57.6505 56.7699 56.9705 56.7799 56.5505 56.3599L51.2805 50.9799C50.4305 50.1099 50.4205 48.7199 51.2705 47.8399L56.4405 42.4999C56.8505 42.0699 57.5405 42.0799 57.9405 42.5199L63.2905 48.4199C63.8305 49.0099 63.8305 49.9199 63.2905 50.5199Z" fill="url(#paint4_linear)"/>
<path fill-rule="evenodd" clip-rule="evenodd" d="M60.2505 66.2598V80.4498C60.2505 82.0598 61.5605 83.3698 63.1705 83.3698C63.9805 83.3698 64.7505 83.0398 65.3005 82.4498L65.3605 82.3798C67.9005 79.6598 72.1605 79.5198 74.8805 82.0698C75.0105 82.1898 75.1405 82.3198 75.2605 82.4498C76.3105 83.5998 78.0905 83.6898 79.2505 82.6398C79.8405 82.1098 80.1705 81.3498 80.1705 80.5498V66.2598" fill="url(#paint5_linear)"/>
<path fill-rule="evenodd" clip-rule="evenodd" d="M68.0105 42.03L67.9705 42.07C66.7605 43.16 65.0905 43.58 63.5105 43.2L63.3905 43.17C62.0605 42.85 60.7105 43.67 60.3805 45C60.0105 46.49 58.8705 47.66 57.4005 48.07L57.2205 48.12C55.8305 48.51 55.0105 49.95 55.4005 51.35C55.4005 51.37 55.4105 51.38 55.4105 51.4L55.4905 51.68C55.9405 53.17 55.5005 54.78 54.3605 55.85C53.3605 56.79 53.3005 58.36 54.2405 59.36C54.2505 59.37 54.2605 59.39 54.2805 59.4L54.6505 59.78C55.6305 60.79 56.0405 62.23 55.7305 63.6C55.4505 64.85 56.1705 66.11 57.3805 66.51L58.3705 66.83C59.6205 67.24 60.5505 68.28 60.8205 69.57C61.0605 70.74 62.1705 71.52 63.3505 71.34L63.6405 71.3C65.1705 71.08 66.7205 71.49 67.9405 72.44L68.0105 72.49C69.1805 73.4 70.8105 73.41 72.0005 72.53L72.3005 72.31C73.4705 71.44 74.9305 71.08 76.3605 71.31H76.3905C77.6905 71.51 78.9505 70.79 79.4305 69.57C79.9605 68.25 81.0405 67.23 82.3805 66.77L82.7805 66.63C84.1605 66.16 84.9505 64.72 84.6205 63.31L84.6005 63.22C84.2505 61.71 84.6605 60.13 85.7005 58.98C86.6405 57.94 86.6505 56.35 85.7105 55.3L85.7005 55.29C84.6605 54.13 84.2405 52.53 84.5905 51.01L84.6505 50.73C84.9405 49.44 84.1305 48.17 82.8505 47.88C82.8105 47.87 82.7705 47.86 82.7305 47.86L82.6705 47.85C81.2105 47.6 80.0505 46.48 79.7505 45.03C79.4805 43.73 78.2105 42.9 76.9205 43.17C76.9005 43.17 76.8805 43.18 76.8605 43.18L76.7005 43.2C75.0805 43.58 73.3805 43.16 72.1205 42.08L72.0105 41.98C70.8505 40.99 69.1405 41.01 68.0105 42.03Z" fill="url(#paint6_linear)"/>
<path d="M70.2204 67.9199C76.025 67.9199 80.7304 63.2144 80.7304 57.4099C80.7304 51.6054 76.025 46.8999 70.2204 46.8999C64.4159 46.8999 59.7104 51.6054 59.7104 57.4099C59.7104 63.2144 64.4159 67.9199 70.2204 67.9199Z" fill="url(#paint7_linear)"/>
<path d="M71.9105 64.7899L71.0705 65.6699C70.9905 65.7499 70.8905 65.7899 70.7805 65.7899H69.3505C69.2505 65.7899 69.1505 65.7499 69.0705 65.6699L68.2305 64.7899C68.1505 64.7099 68.1105 64.5999 68.1105 64.4899V62.4199H72.0905V64.4899C72.0705 64.6099 72.0105 64.7199 71.9105 64.7899Z" fill="#A3A3A3"/>
<path d="M69.9404 48.9701C68.2904 48.9501 66.7204 49.6501 65.6104 50.8801C64.5004 52.1101 63.9804 53.7601 64.1604 55.4101C64.4304 57.8401 66.7304 58.9701 67.3804 62.0501C67.4304 62.2701 67.6204 62.4301 67.8404 62.4301H72.0304C72.2504 62.4301 72.4504 62.2701 72.4904 62.0501C73.1404 58.9701 75.4404 57.8401 75.7104 55.4101C75.8904 53.7601 75.3704 52.1101 74.2604 50.8801C73.1504 49.6501 71.5904 48.9501 69.9404 48.9701Z" fill="url(#paint8_radial)"/>
<path d="M72.0805 63.6499L68.1005 64.4999V64.5599C68.1005 64.6799 68.1405 64.7899 68.2205 64.8699L72.0805 64.0899V63.6499Z" fill="#E6E6E6"/>
<path d="M68.1005 63.6499L72.0805 62.8499V62.4199L68.1005 63.2299V63.6499Z" fill="#E6E6E6"/>
<defs>
<linearGradient id="paint0_linear" x1="49.8806" y1="-12.8934" x2="53.8634" y2="132.875" gradientUnits="userSpaceOnUse">
<stop stop-color="#00ABDE"/>
<stop offset="1" stop-color="#007ED8"/>
</linearGradient>
<linearGradient id="paint1_linear" x1="47.9757" y1="13.1512" x2="47.9757" y2="80.2207" gradientUnits="userSpaceOnUse">
<stop stop-color="white"/>
<stop offset="1" stop-color="#CBCBCB"/>
</linearGradient>
<linearGradient id="paint2_linear" x1="40.4925" y1="35.5353" x2="42.6784" y2="61.2197" gradientUnits="userSpaceOnUse">
<stop stop-color="#A23093"/>
<stop offset="1" stop-color="#692266"/>
</linearGradient>
<linearGradient id="paint3_linear" x1="43.2126" y1="49.4902" x2="63.3865" y2="49.4902" gradientUnits="userSpaceOnUse">
<stop stop-color="#E184C4"/>
<stop offset="1" stop-color="#D76EBC"/>
</linearGradient>
<linearGradient id="paint4_linear" x1="50.6388" y1="49.4263" x2="63.6943" y2="49.4263" gradientUnits="userSpaceOnUse">
<stop stop-color="#E89BCA"/>
<stop offset="1" stop-color="#E591C8"/>
</linearGradient>
<linearGradient id="paint5_linear" x1="70.2312" y1="68.7012" x2="70.2312" y2="88.1103" gradientUnits="userSpaceOnUse">
<stop stop-color="#1E4A93"/>
<stop offset="1" stop-color="#252862"/>
</linearGradient>
<linearGradient id="paint6_linear" x1="70.0173" y1="72.3947" x2="70.0173" y2="39.5611" gradientUnits="userSpaceOnUse">
<stop stop-color="#2C8FDA"/>
<stop offset="0.16" stop-color="#469EE0"/>
<stop offset="0.53" stop-color="#6EB0E1"/>
<stop offset="0.82" stop-color="#86B3E5"/>
<stop offset="1" stop-color="#BCE3F6"/>
</linearGradient>
<linearGradient id="paint7_linear" x1="70.2081" y1="46.9089" x2="70.2081" y2="67.9392" gradientUnits="userSpaceOnUse">
<stop stop-color="#1E5CA5"/>
<stop offset="1" stop-color="#225496"/>
</linearGradient>
<radialGradient id="paint8_radial" cx="0" cy="0" r="1" gradientUnits="userSpaceOnUse" gradientTransform="translate(69.8898 54.603) scale(5.4204)">
<stop stop-color="#FBDA44"/>
<stop offset="0.2" stop-color="#FFDC28"/>
<stop offset="1" stop-color="#FFBC1B"/>
</radialGradient>
</defs>
</svg>
