<svg width="103" height="102" viewBox="0 0 103 102" fill="none" xmlns="http://www.w3.org/2000/svg">
<path d="M51.0892 97.3511C25.4927 97.3511 4.73816 76.6065 4.73816 51C4.73816 25.3935 25.4927 4.64893 51.0892 4.64893C76.6858 4.64893 97.4403 25.4034 97.4403 51C97.4403 76.5966 76.6858 97.3511 51.0892 97.3511Z" fill="url(#paint0_linear_1549_14208)"/>
<path fill-rule="evenodd" clip-rule="evenodd" d="M96.5395 51.0005C96.5395 76.102 76.191 96.4505 51.0895 96.4505C25.988 96.4505 5.63949 76.102 5.63949 51.0005C5.63949 25.899 25.988 5.55051 51.0895 5.55051C76.191 5.55051 96.5395 25.899 96.5395 51.0005ZM51.0895 1.84717C78.2407 1.84717 100.243 23.8493 100.243 51.0005C100.243 78.1517 78.2308 100.154 51.0895 100.154C23.9383 100.154 1.93616 78.1418 1.93616 51.0005C1.93616 23.8493 23.9383 1.84717 51.0895 1.84717Z" fill="#F2F1F0"/>
<path fill-rule="evenodd" clip-rule="evenodd" d="M93.7568 50.9998C93.7568 74.5665 74.6559 93.6673 51.0893 93.6673C27.5226 93.6673 8.42172 74.5665 8.42172 50.9998C8.42172 27.4331 27.5226 8.33224 51.0893 8.33224C74.6559 8.33224 93.7568 27.4331 93.7568 50.9998ZM51.0893 4.62891C76.6957 4.62891 97.4601 25.3933 97.4601 50.9998C97.4601 76.6063 76.6957 97.3707 51.0893 97.3707C25.4828 97.3707 4.71838 76.6063 4.71838 50.9998C4.71838 25.3933 25.4729 4.62891 51.0893 4.62891Z" fill="url(#paint1_linear_1549_14208)"/>
<path d="M42.0341 32.2417H28.0269V71.657H42.0341" stroke="white" stroke-miterlimit="10" stroke-linejoin="round"/>
<path d="M83.1068 27.8105H44.6286C44.0712 27.8105 43.6138 28.2679 43.6138 28.8254V43.3762C43.6138 43.9337 44.0712 44.391 44.6286 44.391H83.1068C83.6643 44.391 84.1216 43.9337 84.1216 43.3762V28.8254C84.1216 28.2679 83.6643 27.8105 83.1068 27.8105Z" fill="#7E7E7E"/>
<path d="M48.5297 32.084H48.1723C47.9436 32.084 47.7578 32.2698 47.7578 32.4985V32.6557C47.7578 32.8844 47.9436 33.0702 48.1723 33.0702H48.5297C48.7584 33.0702 48.9442 32.8844 48.9442 32.6557V32.4985C48.9442 32.2555 48.7584 32.084 48.5297 32.084Z" fill="#D5F9FD"/>
<path d="M48.9442 34.4565H47.7578V35.4428H48.9442V34.4565Z" fill="#ACF3FD"/>
<path d="M48.9442 36.6294H47.7578V37.6157H48.9442V36.6294Z" fill="#84ECFD"/>
<path d="M48.9442 39.0161H47.7578V40.0024H48.9442V39.0161Z" fill="#50E6FF"/>
<path d="M55.2768 36.6294H52.1036V37.6157H55.2768V36.6294Z" fill="#84ECFD"/>
<path d="M67.569 32.0698H52.6036C52.3463 32.0698 52.1462 32.2699 52.1462 32.5272C52.1462 32.7845 52.3463 32.9846 52.6036 32.9846H67.5833C67.8405 32.9846 68.0406 32.7845 68.0406 32.5272C68.0406 32.2699 67.8262 32.0698 67.569 32.0698Z" fill="#D5F9FD"/>
<path d="M72.572 36.6865H56.8491C56.5918 36.6865 56.3917 36.8866 56.3917 37.1439C56.3917 37.4012 56.5918 37.6013 56.8491 37.6013H72.572C72.8293 37.6013 73.0294 37.4012 73.0294 37.1439C73.0294 36.9009 72.8293 36.6865 72.572 36.6865Z" fill="#84ECFD"/>
<path d="M62.5793 39.0879H52.7739C52.5166 39.0879 52.3165 39.288 52.3165 39.5453C52.3165 39.8026 52.5166 40.0027 52.7739 40.0027H62.5793C62.8366 40.0027 63.0367 39.8026 63.0367 39.5453C63.0367 39.3023 62.8366 39.0879 62.5793 39.0879Z" fill="#50E6FF"/>
<path d="M83.1068 58.8701H44.6286C44.0712 58.8701 43.6138 59.3275 43.6138 59.885V74.4358C43.6138 74.9932 44.0712 75.4506 44.6286 75.4506H83.1068C83.6643 75.4506 84.1216 74.9932 84.1216 74.4358V59.885C84.1216 59.3132 83.6643 58.8701 83.1068 58.8701Z" fill="#282828"/>
<path d="M48.5297 63.1294H48.1723C47.9436 63.1294 47.7578 63.3152 47.7578 63.5439V63.7011C47.7578 63.9298 47.9436 64.1156 48.1723 64.1156H48.5297C48.7584 64.1156 48.9442 63.9298 48.9442 63.7011V63.5439C48.9442 63.3152 48.7584 63.1294 48.5297 63.1294Z" fill="#0179CE"/>
<path d="M48.9442 65.5024H47.7578V66.4887H48.9442V65.5024Z" fill="#016CB8"/>
<path d="M48.9442 67.689H47.7578V68.6752H48.9442V67.689Z" fill="#01538D"/>
<path d="M48.9442 70.0615H47.7578V71.0478H48.9442V70.0615Z" fill="#01416E"/>
<path d="M55.2768 67.689H52.1036V68.6752H55.2768V67.689Z" fill="#01538D"/>
<path d="M67.569 63.1152H52.6036C52.3463 63.1152 52.1462 63.3153 52.1462 63.5726C52.1462 63.8299 52.3463 64.03 52.6036 64.03H67.5833C67.8405 64.03 68.0406 63.8299 68.0406 63.5726C68.0406 63.3296 67.8262 63.1152 67.569 63.1152Z" fill="#0179CE"/>
<path d="M72.572 67.7461H56.8491C56.5918 67.7461 56.3917 67.9462 56.3917 68.2035C56.3917 68.4608 56.5918 68.6609 56.8491 68.6609H72.572C72.8293 68.6609 73.0294 68.4608 73.0294 68.2035C73.0294 67.9462 72.8293 67.7461 72.572 67.7461Z" fill="#01538D"/>
<path d="M62.5793 70.1475H52.7739C52.5166 70.1475 52.3165 70.3476 52.3165 70.6049C52.3165 70.8621 52.5166 71.0622 52.7739 71.0622H62.5793C62.8366 71.0622 63.0367 70.8621 63.0367 70.6049C63.0367 70.3476 62.8366 70.1475 62.5793 70.1475Z" fill="#01416E"/>
<path d="M83.1068 46.2349H44.6286C44.0712 46.2349 43.6138 46.6923 43.6138 47.2497V56.0831C43.6138 56.6406 44.0712 57.0979 44.6286 57.0979H83.1068C83.6643 57.0979 84.1216 56.6406 84.1216 56.0831V47.2497C84.1216 46.6923 83.6643 46.2349 83.1068 46.2349Z" fill="#4F4F4F"/>
<path d="M48.5297 50.4941H48.1723C47.9436 50.4941 47.7578 50.68 47.7578 50.9087V51.0659C47.7578 51.2946 47.9436 51.4804 48.1723 51.4804H48.5297C48.7584 51.4804 48.9442 51.2946 48.9442 51.0659V50.9087C48.9442 50.68 48.7584 50.4941 48.5297 50.4941Z" fill="#34C1F1"/>
<path d="M48.9442 52.8667H47.7578V53.853H48.9442V52.8667Z" fill="#1497E2"/>
<path d="M67.569 50.48H52.6036C52.3463 50.48 52.1462 50.6801 52.1462 50.9374C52.1462 51.1947 52.3463 51.3948 52.6036 51.3948H67.5833C67.8405 51.3948 68.0406 51.1947 68.0406 50.9374C68.0406 50.6944 67.8262 50.48 67.569 50.48Z" fill="#34C1F1"/>
<g filter="url(#filter0_ddddd_1549_14208)">
<rect x="13.9946" y="35.814" width="32.4097" height="32.4097" rx="1.5" fill="white"/>
</g>
<path d="M34.5223 48.732L26.9918 53.1302L19.0752 44.3116C18.4902 43.6619 18.9524 42.626 19.8253 42.626H34.52V48.732H34.5223Z" fill="url(#paint2_linear_1549_14208)"/>
<path d="M38.6986 47.4349L34.4567 42.6572L19.0186 59.8993C18.4962 60.4842 18.9092 61.4107 19.695 61.4107H26.1471L38.6986 47.4349Z" fill="url(#paint3_linear_1549_14208)"/>
<path d="M42.2756 51.4398L38.6655 47.3721L25.9265 61.4104H34.1379C34.3098 61.4104 34.4728 61.339 34.5889 61.2117L42.2644 52.8485C42.6283 52.4511 42.635 51.8439 42.2756 51.4398Z" fill="url(#paint4_linear_1549_14208)"/>
<path d="M43.5762 73.3936C44.4875 73.3936 45.2262 72.6549 45.2262 71.7437C45.2262 70.8325 44.4875 70.0938 43.5762 70.0938C42.665 70.0938 41.9263 70.8325 41.9263 71.7437C41.9263 72.6549 42.665 73.3936 43.5762 73.3936Z" fill="#282828" stroke="white" stroke-width="1.25" stroke-miterlimit="10"/>
<path d="M43.5762 33.9151C44.4875 33.9151 45.2262 33.1764 45.2262 32.2652C45.2262 31.3539 44.4875 30.6152 43.5762 30.6152C42.665 30.6152 41.9263 31.3539 41.9263 32.2652C41.9263 33.1764 42.665 33.9151 43.5762 33.9151Z" fill="#7E7E7E" stroke="white" stroke-width="1.25" stroke-miterlimit="10"/>
<defs>
<filter id="filter0_ddddd_1549_14208" x="9.99463" y="34.814" width="40.4097" height="48.4097" filterUnits="userSpaceOnUse" color-interpolation-filters="sRGB">
<feFlood flood-opacity="0" result="BackgroundImageFix"/>
<feColorMatrix in="SourceAlpha" type="matrix" values="0 0 0 0 0 0 0 0 0 0 0 0 0 0 0 0 0 0 127 0" result="hardAlpha"/>
<feOffset/>
<feColorMatrix type="matrix" values="0 0 0 0 0 0 0 0 0 0 0 0 0 0 0 0 0 0 0.1 0"/>
<feBlend mode="normal" in2="BackgroundImageFix" result="effect1_dropShadow_1549_14208"/>
<feColorMatrix in="SourceAlpha" type="matrix" values="0 0 0 0 0 0 0 0 0 0 0 0 0 0 0 0 0 0 127 0" result="hardAlpha"/>
<feOffset dy="1"/>
<feGaussianBlur stdDeviation="1"/>
<feColorMatrix type="matrix" values="0 0 0 0 0 0 0 0 0 0 0 0 0 0 0 0 0 0 0.1 0"/>
<feBlend mode="normal" in2="effect1_dropShadow_1549_14208" result="effect2_dropShadow_1549_14208"/>
<feColorMatrix in="SourceAlpha" type="matrix" values="0 0 0 0 0 0 0 0 0 0 0 0 0 0 0 0 0 0 127 0" result="hardAlpha"/>
<feOffset dy="3"/>
<feGaussianBlur stdDeviation="1.5"/>
<feColorMatrix type="matrix" values="0 0 0 0 0 0 0 0 0 0 0 0 0 0 0 0 0 0 0.09 0"/>
<feBlend mode="normal" in2="effect2_dropShadow_1549_14208" result="effect3_dropShadow_1549_14208"/>
<feColorMatrix in="SourceAlpha" type="matrix" values="0 0 0 0 0 0 0 0 0 0 0 0 0 0 0 0 0 0 127 0" result="hardAlpha"/>
<feOffset dy="6"/>
<feGaussianBlur stdDeviation="2"/>
<feColorMatrix type="matrix" values="0 0 0 0 0 0 0 0 0 0 0 0 0 0 0 0 0 0 0.05 0"/>
<feBlend mode="normal" in2="effect3_dropShadow_1549_14208" result="effect4_dropShadow_1549_14208"/>
<feColorMatrix in="SourceAlpha" type="matrix" values="0 0 0 0 0 0 0 0 0 0 0 0 0 0 0 0 0 0 127 0" result="hardAlpha"/>
<feOffset dy="11"/>
<feGaussianBlur stdDeviation="2"/>
<feColorMatrix type="matrix" values="0 0 0 0 0 0 0 0 0 0 0 0 0 0 0 0 0 0 0.01 0"/>
<feBlend mode="normal" in2="effect4_dropShadow_1549_14208" result="effect5_dropShadow_1549_14208"/>
<feBlend mode="normal" in="SourceGraphic" in2="effect5_dropShadow_1549_14208" result="shape"/>
</filter>
<linearGradient id="paint0_linear_1549_14208" x1="25.3745" y1="9.49709" x2="100.281" y2="148.693" gradientUnits="userSpaceOnUse">
<stop offset="0.0001" stop-color="#50E6FF"/>
<stop offset="0.623265" stop-color="#0078D4"/>
</linearGradient>
<linearGradient id="paint1_linear_1549_14208" x1="15.6761" y1="11.223" x2="83.2186" y2="98.6206" gradientUnits="userSpaceOnUse">
<stop stop-color="#007ED8"/>
<stop offset="0.915361" stop-color="#002D4C"/>
</linearGradient>
<linearGradient id="paint2_linear_1549_14208" x1="19.7992" y1="37.5694" x2="36.9284" y2="53.686" gradientUnits="userSpaceOnUse">
<stop offset="0.4598" stop-color="#1152D4"/>
<stop offset="0.6156" stop-color="#0D3FB3"/>
</linearGradient>
<linearGradient id="paint3_linear_1549_14208" x1="18.7864" y1="52.0344" x2="38.6978" y2="52.0344" gradientUnits="userSpaceOnUse">
<stop stop-color="#388CF4"/>
<stop offset="1" stop-color="#2C7CEF"/>
</linearGradient>
<linearGradient id="paint4_linear_1549_14208" x1="25.9268" y1="54.3914" x2="42.5415" y2="54.3914" gradientUnits="userSpaceOnUse">
<stop stop-color="#76C0FD"/>
<stop offset="1" stop-color="#63B2FB"/>
</linearGradient>
</defs>
</svg>
