<svg width="160" height="188" viewBox="0 0 160 188" fill="none" xmlns="http://www.w3.org/2000/svg">
<g clip-path="url(#clip0_1437_1139)">
<path d="M80.0338 188.003C83.1155 187.997 86.1361 187.143 88.7638 185.533L150.733 147.873C153.515 146.109 155.8 143.664 157.37 140.769C158.94 137.874 159.743 134.626 159.703 131.333V56.6228C159.739 53.3304 158.935 50.0832 157.365 47.1888C155.795 44.2944 153.513 41.8485 150.733 40.0828L88.7638 2.42281C86.1295 0.837786 83.1132 0.000305176 80.0388 0.000305176C76.9644 0.000305176 73.9481 0.837786 71.3138 2.42281L9.3438 40.1028C6.55957 41.8647 4.27205 44.3092 2.69859 47.2041C1.12512 50.099 0.317968 53.3481 0.353804 56.6428V131.342C0.335494 134.125 0.910165 136.88 2.03956 139.423C3.16896 141.967 4.82717 144.24 6.9038 146.092V146.122L71.3138 185.553C73.9423 187.15 76.958 187.997 80.0338 188.003V188.003ZM80.6838 6.9528C82.6338 6.9528 85.1138 8.1628 86.8238 9.2128L147.583 46.4028C151.333 48.6828 153.453 55.2828 153.453 60.0328L152.823 131.332C152.823 136.082 149.623 140.352 145.873 142.632L85.4738 179.012C82.0438 181.102 79.2538 181.102 75.8138 179.012L14.6038 142.542C10.8538 140.262 7.8338 136.062 7.8338 131.332V57.6928C7.86591 55.3271 8.47472 53.0049 9.60741 50.9278C10.7401 48.8506 12.3625 47.0811 14.3338 45.7728L74.9138 9.21284C76.6138 8.17281 78.7338 6.9528 80.6838 6.9528V6.9528Z" fill="#F2F1F0"/>
<path fill-rule="evenodd" clip-rule="evenodd" d="M87.9338 10.5325C85.5612 9.06177 82.8252 8.28253 80.0338 8.28253C77.2424 8.28253 74.5063 9.06177 72.1338 10.5325L16.0038 44.8625C13.4774 46.4742 11.4046 48.7044 9.98176 51.3417C8.55895 53.9791 7.83337 56.9361 7.87379 59.9325V128.033C7.83358 131.029 8.55926 133.986 9.98204 136.623C11.4048 139.26 13.4776 141.491 16.0038 143.103L72.1338 177.433C74.5063 178.903 77.2424 179.683 80.0338 179.683C82.8252 179.683 85.5612 178.903 87.9338 177.433L144.063 143.103C146.588 141.489 148.66 139.259 150.082 136.622C151.505 133.985 152.231 131.028 152.193 128.033V59.9325C152.231 56.9366 151.505 53.9805 150.082 51.3436C148.659 48.7067 146.588 46.4761 144.063 44.8625L87.9338 10.5325Z" fill="url(#paint0_linear_1437_1139)"/>
<g opacity="0.5">
<path d="M12.7292 119.335L21.9592 124.625L12.8092 129.885L8.20923 127.245V127.775L12.3692 130.164L8.68923 132.284L8.82923 132.715L12.8292 130.424L22.0193 135.705L12.8993 140.944L11.2492 139.995L11.4592 140.625L79.9692 180.225L80.3993 179.934L71.0692 174.554L80.3392 169.225L89.5393 174.505L89.9492 174.225L80.7992 168.955L90.0293 163.645L99.3893 169.015L99.6192 168.605L90.4992 163.385L99.6192 158.145L108.859 163.455L109.189 163.095L100.089 157.865L109.289 152.585L118.479 157.865L119.019 157.655L109.729 152.324L118.959 147.025L128.099 152.275L128.639 152.064L119.409 146.765L128.549 141.505L137.699 146.765L138.229 146.554L128.999 141.255L138.229 135.944L147.319 141.174L147.849 140.965L138.669 135.694L147.849 130.414L152.539 133.105V132.615L148.269 130.155L152.809 127.544V127.015L147.809 129.905L138.639 124.635L147.899 119.304L153.079 122.304V121.794L109.779 96.794L90.5193 85.674L90.3292 85.604L80.9392 80.184L80.5092 79.9041L8.72923 121.125V121.664L12.7292 119.335ZM13.2592 130.145L22.3993 124.875L31.6192 130.164L22.4492 135.434L13.2592 130.145ZM71.0892 130.145L80.3192 124.845L89.4592 130.085L80.2292 135.395L71.0892 130.145ZM79.7893 135.655L70.5792 140.944L61.4392 135.694L70.6493 130.405L79.7893 135.655ZM80.7893 124.585L89.9392 119.324L99.0692 124.574L89.9192 129.835L80.7893 124.585ZM80.3392 124.324L71.1092 119.025L80.2693 113.765L89.4992 119.064L80.3392 124.324ZM79.8993 124.585L70.6692 129.885L61.4392 124.585L70.6692 119.284L79.8993 124.585ZM70.2192 130.145L61.0092 135.434L51.7793 130.135L60.9892 124.845L70.2192 130.145ZM60.5492 135.705L51.3993 140.965L42.1593 135.664L51.3192 130.395L60.5492 135.705ZM60.9992 135.955L70.1393 141.205L60.9992 146.465L51.8392 141.215L60.9992 135.955ZM70.5792 141.465L79.8092 146.765L70.6792 152.015L61.4392 146.725L70.5792 141.465ZM71.0492 141.194L80.2492 135.905L89.4792 141.205L80.2793 146.505L71.0492 141.194ZM80.6992 135.655L89.9192 130.345L99.1493 135.645L89.9292 140.955L80.6992 135.655ZM90.3692 130.085L99.5193 124.824L108.749 130.135L99.5992 135.395L90.3692 130.085ZM99.9594 124.574L109.189 119.265L118.419 124.574L109.189 129.875L99.9594 124.574ZM99.5193 124.314L90.3893 119.064L99.6192 113.765L108.739 119.015L99.5193 124.314ZM89.9392 118.814L80.7092 113.505L89.9392 108.205L99.1692 113.505L89.9392 118.814ZM80.2693 113.255L71.1092 107.985L80.3392 102.684L89.4992 107.944L80.2693 113.255ZM79.8192 113.505L70.6692 118.775L61.4992 113.505L70.6593 108.245L79.8192 113.505ZM70.2192 119.025L60.9892 124.324L51.8292 119.064L61.0592 113.765L70.2192 119.025ZM60.5492 124.585L51.3292 129.885L42.1692 124.615L51.3792 119.324L60.5492 124.585ZM50.8792 130.145L41.7092 135.405L32.5393 130.145L41.7292 124.845L50.8792 130.145ZM41.2492 135.674L32.0792 140.944L22.9192 135.674L32.0792 130.414L41.2492 135.674ZM41.6992 135.924L50.9392 141.225L41.7492 146.505L32.5193 141.205L41.6992 135.924ZM51.3792 141.485L60.5293 146.735L51.3292 152.025L42.1892 146.765L51.3792 141.485ZM60.9792 146.985L70.2092 152.284L60.9992 157.585L51.7793 152.275L60.9792 146.985ZM70.6593 152.544L79.9392 157.865L70.7192 163.164L61.4492 157.835L70.6593 152.544ZM71.1292 152.275L80.2592 147.025L89.5293 152.355L80.4093 157.595L71.1292 152.275ZM80.7192 146.755L89.9292 141.465L99.1992 146.794L89.9992 152.085L80.7192 146.755ZM90.3692 141.205L99.5992 135.905L108.869 141.235L99.6393 146.534L90.3692 141.205ZM100.039 135.645L109.189 130.385L118.459 135.715L109.319 140.975L100.039 135.645ZM109.639 130.135L118.859 124.824L128.139 130.155L118.909 135.455L109.639 130.135ZM119.309 124.574L128.479 119.294L137.759 124.625L128.579 129.895L119.309 124.574ZM118.859 124.314L109.639 119.015L118.809 113.735L128.039 119.044L118.859 124.314ZM109.189 118.755L100.059 113.505L109.229 108.235L118.359 113.485L109.189 118.755ZM99.6192 113.255L90.3893 107.944L99.5592 102.684L108.789 107.985L99.6192 113.255ZM89.9392 107.694L80.7793 102.424L89.9492 97.164L99.1092 102.424L89.9392 107.694ZM80.3392 102.174L71.0692 96.844L80.2192 91.5741L89.4992 96.9041L80.3392 102.174ZM79.8893 102.424L70.6593 107.735L61.4093 102.414L70.6292 97.104L79.8893 102.424ZM70.2192 107.985L61.0592 113.255L51.8192 107.944L60.9692 102.674L70.2192 107.985ZM60.6092 113.505L51.3792 118.804L42.1493 113.505L51.3692 108.194L60.6092 113.505ZM50.9392 119.064L41.7192 124.365L32.4992 119.064L41.7092 113.765L50.9392 119.064ZM41.2693 124.625L32.0992 129.895L22.8792 124.605L32.0492 119.324L41.2693 124.625ZM13.2693 141.194L22.3893 135.955L31.5492 141.215L22.4093 146.475L13.2693 141.194ZM22.8492 146.735L31.9992 141.475L41.2192 146.775L32.0492 152.044L22.8492 146.735ZM32.4992 152.304L41.6692 147.034L50.8192 152.284L41.6192 157.574L32.4992 152.304ZM42.0692 157.835L51.2592 152.544L60.4892 157.845L51.2693 163.145L42.0692 157.835ZM51.7192 163.405L60.9392 158.105L70.2092 163.434L60.9692 168.745L51.7192 163.405ZM70.5492 174.284L61.4093 169.005L70.6593 163.684L79.8192 168.955L70.5492 174.284ZM80.2693 168.694L71.1092 163.424L80.3392 158.125L89.5092 163.385L80.2693 168.694ZM89.9792 163.115L80.7992 157.855L89.9292 152.605L99.0892 157.875L89.9792 163.115ZM99.5592 157.605L90.3993 152.335L99.5892 147.044L108.759 152.314L99.5592 157.605ZM109.209 152.054L100.039 146.794L109.269 141.485L118.429 146.755L109.209 152.054ZM118.879 146.495L109.709 141.235L118.859 135.975L128.029 141.245L118.879 146.495ZM128.469 140.985L119.309 135.715L128.529 130.414L137.699 135.684L128.469 140.985ZM147.319 130.145L138.149 135.424L128.979 130.155L138.149 124.875L147.319 130.145ZM147.409 119.044L138.149 124.365L128.879 119.034L138.159 113.694L147.409 119.044ZM137.719 113.444L128.429 118.784L119.199 113.485L128.509 108.125L137.719 113.444ZM128.069 107.875L118.759 113.225L109.629 107.985L118.969 102.615L128.069 107.875ZM118.519 102.355L109.179 107.725L99.9494 102.424L109.319 97.044L118.519 102.355ZM108.869 96.784L99.5092 102.164L90.3392 96.9041L99.7292 91.5141L108.869 96.784ZM99.2893 91.2541L89.8993 96.6442L80.6192 91.324L90.0193 85.9041L99.2893 91.2541ZM80.4792 80.3941L89.5792 85.6441L80.1692 91.064L71.0293 85.814L80.4792 80.3941ZM70.5892 86.074L79.7292 91.324L70.5792 96.594L61.4292 91.334L70.5892 86.074ZM60.9792 91.584L70.1292 96.844L60.9093 102.155L51.7492 96.8941L60.9792 91.584ZM51.2992 97.1441L60.4692 102.414L51.3192 107.684L42.1393 102.414L51.2992 97.1441ZM41.6992 102.664L50.8692 107.944L41.6593 113.245L32.4592 107.965L41.6992 102.664ZM32.0193 108.225L41.2092 113.505L31.9992 118.804L22.7992 113.525L32.0193 108.225ZM22.3492 113.775L31.5492 119.064L22.3792 124.355L13.1493 119.054L22.3492 113.775Z" fill="white"/>
</g>
<path fill-rule="evenodd" clip-rule="evenodd" d="M80.0338 9.75273C81.7138 9.75273 83.6037 10.6227 85.6637 11.8727L144.133 47.4127C146.025 48.6259 147.575 50.3029 148.636 52.2843C149.697 54.2658 150.233 56.4856 150.193 58.7327V129.213C150.232 131.459 149.695 133.679 148.634 135.66C147.574 137.641 146.024 139.319 144.133 140.533L85.6738 176.073C84.0037 177.21 82.0599 177.88 80.0438 178.013C78.0276 177.88 76.0838 177.21 74.4137 176.073L15.9338 140.543C14.1467 139.578 12.6225 138.191 11.4938 136.503C10.5138 134.903 9.87375 132.683 9.87375 129.223V58.7427C9.83424 56.4956 10.3703 54.2758 11.4311 52.2943C12.4918 50.3129 14.0418 48.6359 15.9338 47.4227L74.3938 11.8827C76.4838 10.6327 78.3438 9.75273 80.0338 9.75273ZM87.7438 179.503L146.203 143.963C148.682 142.392 150.717 140.213 152.114 137.632C153.511 135.052 154.223 132.157 154.183 129.223V58.7427C154.223 55.8087 153.511 52.9134 152.114 50.333C150.717 47.7527 148.682 45.5732 146.203 44.0027L87.7438 8.46273C85.6338 7.18273 82.9238 5.75273 80.0338 5.75273C77.1338 5.75273 74.4238 7.19273 72.3338 8.45273H72.3238L13.8538 44.0027C11.3752 45.5732 9.34031 47.7527 7.94333 50.333C6.54635 52.9134 5.83383 55.8087 5.87375 58.7427V129.223C5.72119 132.487 6.48314 135.728 8.07375 138.583C9.52886 140.821 11.5143 142.666 13.8538 143.953L72.3138 179.493C74.6071 181.019 77.272 181.893 80.0238 182.023C82.7777 181.897 85.4459 181.026 87.7438 179.503V179.503Z" fill="url(#paint1_linear_1437_1139)"/>
<g opacity="0.2">
<path opacity="0.6" d="M138.397 118.723C141.088 120.277 141.092 122.794 138.419 124.347L133.476 127.22L73.3497 92.5058L78.2923 89.6334C79.7956 88.8666 81.4589 88.4663 83.1464 88.4653C84.8339 88.4643 86.4977 88.8626 88.0019 89.6276L138.397 118.723Z" fill="#463668"/>
<path d="M138.419 124.347L133.476 127.22L133.469 129.755L138.412 126.883C138.963 126.635 139.438 126.245 139.789 125.754C140.141 125.262 140.356 124.687 140.412 124.085L140.419 121.549C140.363 122.151 140.148 122.727 139.797 123.218C139.445 123.71 138.97 124.099 138.419 124.347V124.347Z" fill="#463668"/>
<path opacity="0.6" d="M133.476 127.22L103.09 144.878C101.588 145.644 99.9264 146.043 98.2404 146.043C96.5545 146.043 94.8925 145.644 93.3905 144.878L42.9956 115.782C40.3046 114.229 40.2906 111.718 42.9641 110.164L73.3498 92.5058L133.476 127.22Z" fill="#8661C5"/>
<path d="M103.09 144.878C101.588 145.644 99.9264 146.043 98.2404 146.043C96.5544 146.043 94.8924 145.644 93.3904 144.878L42.9957 115.782C42.4364 115.534 41.9536 115.141 41.5971 114.644C41.2407 114.147 41.0235 113.563 40.968 112.954L40.9608 115.489C41.0162 116.099 41.2334 116.682 41.5899 117.179C41.9464 117.677 42.4292 118.07 42.9885 118.318L93.3832 147.414C94.8852 148.179 96.5472 148.579 98.2332 148.579C99.9191 148.579 101.581 148.179 103.083 147.414L133.469 129.755L133.476 127.22L103.09 144.878Z" fill="#8661C5"/>
</g>
<g opacity="0.6">
<path opacity="0.6" d="M138.397 113.155C141.088 114.708 141.092 117.225 138.419 118.779L133.476 121.651L73.3497 86.9374L78.2923 84.0651C79.7956 83.2982 81.4589 82.8979 83.1464 82.8969C84.8339 82.8959 86.4977 83.2942 88.0019 84.0593L138.397 113.155Z" fill="#463668"/>
<path d="M138.419 118.779L133.476 121.651L133.469 124.187L138.412 121.315C138.963 121.067 139.438 120.677 139.789 120.186C140.141 119.694 140.356 119.118 140.412 118.517L140.419 115.981C140.363 116.582 140.148 117.158 139.797 117.65C139.445 118.141 138.97 118.531 138.419 118.779V118.779Z" fill="#463668"/>
<path opacity="0.6" d="M133.476 121.651L103.09 139.31C101.588 140.075 99.9264 140.475 98.2404 140.475C96.5545 140.475 94.8925 140.075 93.3905 139.31L42.9956 110.214C40.3046 108.66 40.2906 106.149 42.9641 104.596L73.3498 86.9374L133.476 121.651Z" fill="#8661C5"/>
<path d="M103.09 139.31C101.588 140.075 99.9264 140.475 98.2404 140.475C96.5544 140.475 94.8924 140.075 93.3904 139.31L42.9957 110.214C42.4364 109.966 41.9536 109.573 41.5971 109.075C41.2407 108.578 41.0235 107.995 40.968 107.385L40.9608 109.921C41.0162 110.53 41.2334 111.114 41.5899 111.611C41.9464 112.108 42.4292 112.501 42.9885 112.75L93.3832 141.845C94.8852 142.611 96.5472 143.01 98.2332 143.01C99.9191 143.01 101.581 142.611 103.083 141.845L133.469 124.187L133.476 121.651L103.09 139.31Z" fill="#8661C5"/>
</g>
<path opacity="0.6" d="M138.397 107.586C141.088 109.14 141.092 111.657 138.419 113.211L133.476 116.083L73.3497 81.3691L78.2923 78.4968C79.7956 77.7299 81.4589 77.3296 83.1464 77.3286C84.8339 77.3276 86.4978 77.7259 88.0019 78.4909L138.397 107.586Z" fill="#463668"/>
<path d="M138.419 113.211L133.476 116.083L133.469 118.619L138.411 115.746C138.962 115.498 139.438 115.109 139.789 114.617C140.141 114.126 140.356 113.55 140.412 112.948L140.419 110.413C140.363 111.014 140.148 111.59 139.796 112.081C139.445 112.573 138.97 112.963 138.419 113.211Z" fill="#463668"/>
<path opacity="0.6" d="M133.476 116.083L103.09 133.741C101.588 134.507 99.9264 134.906 98.2404 134.906C96.5545 134.906 94.8925 134.507 93.3905 133.741L42.9956 104.646C40.3046 103.092 40.2906 100.581 42.9641 99.0273L73.3498 81.3691L133.476 116.083Z" fill="#8661C5"/>
<path d="M103.09 133.741C101.588 134.507 99.9264 134.906 98.2404 134.906C96.5544 134.906 94.8924 134.507 93.3904 133.741L42.9957 104.646C42.4364 104.398 41.9536 104.004 41.5971 103.507C41.2407 103.01 41.0235 102.426 40.968 101.817L40.9608 104.353C41.0162 104.962 41.2334 105.545 41.5899 106.043C41.9464 106.54 42.4292 106.933 42.9885 107.181L93.3832 136.277C94.8852 137.043 96.5472 137.442 98.2332 137.442C99.9191 137.442 101.581 137.043 103.083 136.277L133.469 118.619L133.476 116.083L103.09 133.741Z" fill="#8661C5"/>
<g opacity="0.2">
<path d="M108.935 117.114C109.172 117.194 109.379 117.347 109.525 117.55C109.672 117.754 109.751 117.998 109.752 118.249C109.752 118.5 109.675 118.744 109.529 118.949C109.384 119.153 109.178 119.307 108.941 119.388L106.074 121.054C105.466 121.365 104.794 121.527 104.111 121.528C103.429 121.528 102.756 121.367 102.147 121.058L67.3766 100.983C67.1381 100.904 66.9306 100.752 66.783 100.548C66.6355 100.345 66.5554 100.1 66.554 99.8488C66.5526 99.5974 66.6299 99.352 66.7751 99.1469C66.9204 98.9417 67.1262 98.7873 67.3637 98.7051L70.2308 97.0389C70.8398 96.7282 71.5137 96.5662 72.1973 96.5662C72.8809 96.5662 73.5548 96.7282 74.1637 97.0389L108.935 117.114Z" fill="#463668"/>
</g>
<path d="M61.8396 46.9396L58.3555 48.9642C58.3687 48.9567 58.3817 48.9493 58.3953 48.9423L61.8791 46.9176L61.8396 46.9396Z" fill="#463668"/>
<path d="M63.4592 47.0671C63.2351 46.8991 62.9689 46.7963 62.6901 46.77C62.4112 46.7436 62.1305 46.7948 61.8789 46.9177L58.3954 48.9424C58.647 48.8194 58.9276 48.7683 59.2064 48.7946C59.4852 48.821 59.7513 48.9238 59.9754 49.0917L79.2747 60.234L82.7586 58.2094L63.4592 47.0671Z" fill="#463668"/>
<path d="M88.1063 89.7576L88.154 72.9667L84.6701 74.9913L84.6225 91.7822C84.655 92.0592 84.6098 92.3397 84.4918 92.5924C84.3738 92.8451 84.1877 93.0599 83.9545 93.2128L87.4383 91.1881C87.6716 91.0354 87.8578 90.8206 87.9758 90.5679C88.0938 90.3152 88.139 90.0346 88.1063 89.7576Z" fill="#463668"/>
<path d="M93.6764 104.325C92.2865 104.171 90.9486 103.709 89.7602 102.972C89.68 102.928 89.6001 102.883 89.5207 102.837C88.2935 102.114 87.1742 101.222 86.1959 100.188C85.0879 99.0469 84.0961 97.7989 83.2349 96.462C82.3492 95.0977 81.6115 93.6428 81.0342 92.1221C80.4577 90.6441 80.0434 89.1078 79.7988 87.5402L76.3149 89.5648C76.5595 91.1324 76.9736 92.6687 77.5501 94.1467C78.1276 95.6673 78.8654 97.1222 79.7508 98.4867C80.612 99.8236 81.604 101.072 82.712 102.212C83.6903 103.247 84.8095 104.139 86.0366 104.862C86.1162 104.908 86.1961 104.952 86.2761 104.996C87.4645 105.733 88.8024 106.196 90.1923 106.349C91.3045 106.479 92.4298 106.267 93.4187 105.742L96.9022 103.717C95.9134 104.242 94.7884 104.454 93.6764 104.325V104.325Z" fill="#463668"/>
<path d="M108.615 103.596C107.908 103.515 107.229 103.278 106.625 102.901C105.963 102.497 105.354 102.011 104.812 101.455C104.21 100.848 103.691 100.163 103.269 99.4196L103.319 81.7221L99.8349 83.7467L99.7848 101.444C100.207 102.188 100.726 102.872 101.328 103.479C101.479 103.632 101.635 103.757 101.788 103.894L99.1886 105.405C98.8245 106.657 98.1592 107.8 97.2507 108.735C96.8285 109.162 96.3523 109.532 95.8342 109.836L99.3183 107.811C99.8362 107.507 100.312 107.137 100.735 106.711C101.394 106.018 101.914 105.205 102.265 104.315C102.545 104.536 102.837 104.74 103.142 104.926C103.745 105.303 104.424 105.54 105.131 105.621C105.684 105.671 106.24 105.556 106.728 105.29L110.212 103.265C109.724 103.531 109.169 103.646 108.615 103.596V103.596Z" fill="#463668"/>
<path d="M95.4048 68.0566L91.9209 70.0813L91.9546 70.0614L95.4385 68.0368L95.4048 68.0566Z" fill="black"/>
<path d="M80.8066 50.8708L84.2905 48.8462L84.3183 48.8302L80.8344 50.8548L80.8066 50.8708Z" fill="black"/>
<path d="M97.1237 59.0749C96.2993 56.3837 94.8741 53.915 92.9556 51.8555C92.0696 50.8865 91.0437 50.0554 89.9119 49.3898C88.9642 48.8306 87.91 48.4756 86.817 48.3477C85.9541 48.2415 85.0796 48.4103 84.3183 48.8303L80.8345 50.8549C81.5958 50.435 82.4703 50.2661 83.3332 50.3723C84.4262 50.5003 85.4804 50.8552 86.4281 51.4144C87.5598 52.0801 88.5857 52.9112 89.4718 53.8801C91.3903 55.9396 92.8155 58.4083 93.6398 61.0995C94.0347 62.3626 94.244 63.6765 94.2611 64.9998C94.2962 66.0892 94.0879 67.1727 93.6513 68.1714C93.312 68.9348 92.7493 69.5775 92.0375 70.0148L95.5216 67.99C96.2332 67.5526 96.7957 66.91 97.1351 66.1467C97.5719 65.1481 97.7802 64.0646 97.7449 62.9752C97.7279 61.6519 97.5187 60.338 97.1237 59.0749V59.0749Z" fill="#463668"/>
<path d="M114.389 85.0805C113.966 84.3039 113.347 83.6518 112.593 83.1897L88.1651 69.0863L88.1729 66.3121L84.6891 68.3367L84.6813 71.111L109.109 85.2143C109.863 85.6765 110.482 86.3286 110.905 87.1053C111.361 87.849 111.61 88.7011 111.626 89.5733L111.585 103.971C111.615 105.132 111.39 106.285 110.927 107.35C110.544 108.203 109.915 108.922 109.119 109.413L112.603 107.388C113.399 106.897 114.028 106.179 114.411 105.326C114.874 104.261 115.098 103.107 115.069 101.946L115.109 87.5487C115.094 86.6765 114.845 85.8244 114.389 85.0805V85.0805Z" fill="#463668"/>
<path d="M110.905 87.1052C111.361 87.849 111.61 88.7011 111.625 89.5732L111.585 103.971C111.614 105.132 111.39 106.285 110.927 107.351C110.544 108.203 109.915 108.922 109.119 109.413C108.304 109.876 107.361 110.065 106.431 109.949C105.259 109.807 104.133 109.41 103.131 108.788C102.42 108.378 101.744 107.909 101.111 107.386C100.403 106.795 99.7586 106.13 99.1885 105.405C98.8246 106.657 98.1592 107.8 97.2507 108.736C96.4371 109.57 95.4148 110.171 94.2901 110.477C93.0615 110.811 91.7698 110.838 90.5281 110.557C89.0248 110.234 87.5846 109.666 86.2651 108.877C84.4745 107.83 82.8394 106.538 81.4078 105.037C78.3439 101.834 75.9714 98.0342 74.4375 93.8751C73.6866 91.8526 73.1778 89.7482 72.922 87.606L59.8875 80.0805C59.24 79.6539 58.7009 79.082 58.3131 78.4104C57.9254 77.7389 57.6997 76.9861 57.6539 76.2119L57.7272 50.3728C57.6924 50.0957 57.7367 49.8143 57.8549 49.5612C57.9731 49.3081 58.1604 49.0936 58.3952 48.9423C58.6468 48.8194 58.9275 48.7683 59.2063 48.7946C59.4851 48.821 59.7513 48.9238 59.9754 49.0917L79.2745 60.2341C78.7954 58.8443 78.5434 57.3864 78.5281 55.9164C78.4926 54.8329 78.701 53.7553 79.1377 52.7631C79.4933 51.9675 80.0859 51.3011 80.8344 50.8548C81.5958 50.4349 82.4702 50.2661 83.3331 50.3723C84.4261 50.5002 85.4803 50.8552 86.428 51.4144C87.5597 52.0801 88.5856 52.9111 89.4717 53.8801C91.3902 55.9396 92.8155 58.4083 93.6399 61.0995C94.0349 62.3627 94.2441 63.6765 94.261 64.9999C94.2963 66.0892 94.088 67.1727 93.6513 68.1714C93.3004 68.9653 92.7063 69.6272 91.9547 70.0614C91.1984 70.4958 90.3211 70.6716 89.4559 70.5621C88.3659 70.4369 87.3157 70.0783 86.3767 69.5108C86.0927 69.3468 85.8087 69.1647 85.5248 68.9645C85.2409 68.7642 84.9728 68.555 84.6889 68.3367L84.6811 71.111L109.109 85.2144C109.863 85.6766 110.482 86.3286 110.905 87.1052V87.1052ZM96.4084 99.2225L96.4578 81.797L84.6701 74.9914L84.6225 91.7822C84.6551 92.0592 84.6098 92.3398 84.4918 92.5925C84.3738 92.8451 84.1878 93.06 83.9545 93.2128C83.7029 93.3357 83.4222 93.3868 83.1434 93.3604C82.8646 93.334 82.5984 93.2312 82.3743 93.0633L76.3148 89.5648C76.5595 91.1324 76.9738 92.6687 77.5504 94.1467C78.1276 95.6675 78.8653 97.1224 79.7509 98.4867C80.612 99.8237 81.6039 101.072 82.712 102.212C83.6903 103.247 84.8095 104.139 86.0366 104.862C86.1162 104.908 86.196 104.953 86.2761 104.997C87.4644 105.733 88.8024 106.196 90.1922 106.349C91.3045 106.508 92.4378 106.294 93.4166 105.743C94.3955 105.192 95.1652 104.333 95.6066 103.3C96.1949 102.024 96.4698 100.626 96.4084 99.2225M73.2967 66.9719L78.3463 69.8873L78.3601 65.0459L64.0473 56.7824L64.0335 61.6238L69.0832 64.5393L69.0393 80.0246L73.2528 82.4572L73.2967 66.9719M108.224 102.03L108.262 88.6119L99.8348 83.7467L99.7847 101.444C100.207 102.188 100.726 102.872 101.328 103.479C101.87 104.035 102.479 104.521 103.141 104.926C103.745 105.303 104.424 105.54 105.131 105.621C105.685 105.671 106.24 105.556 106.728 105.29C107.209 105.011 107.591 104.591 107.823 104.087C108.101 103.438 108.237 102.736 108.223 102.03M82.2738 56.0811C82.0038 56.6332 81.8718 57.2426 81.8892 57.857C81.8902 58.6018 82.0054 59.3421 82.2308 60.052C82.4595 60.8345 82.7866 61.5849 83.2044 62.285C83.5905 62.9808 84.067 63.6224 84.6216 64.193C85.1505 64.7464 85.7434 65.235 86.3876 65.6485C86.9194 65.9661 87.5106 66.1715 88.1248 66.2519C88.62 66.3138 89.1216 66.2066 89.5481 65.9476C89.9717 65.6785 90.3078 65.2919 90.5153 64.8351C90.7873 64.2836 90.9193 63.6738 90.8998 63.0592C90.8976 62.3145 90.7824 61.5744 90.5583 60.8641C90.3258 60.0944 89.9987 59.3565 89.5846 58.6674C89.1708 57.9718 88.691 57.3177 88.1519 56.7141C87.6464 56.1584 87.0618 55.6801 86.417 55.2948C85.8847 54.9649 85.2864 54.7558 84.6644 54.6825C84.1716 54.6235 83.6727 54.7237 83.2409 54.9685C82.8254 55.2468 82.4915 55.6308 82.2737 56.081" fill="#8661C5"/>
<path d="M96.4084 99.2225L96.4578 81.797L84.6701 74.9914L84.6226 91.7822C84.6551 92.0592 84.6098 92.3398 84.4919 92.5925C84.3739 92.8451 84.1878 93.06 83.9546 93.2128C83.7029 93.3357 83.4222 93.3868 83.1434 93.3604C82.8646 93.334 82.5985 93.2312 82.3743 93.0633L76.3148 89.5648C76.5595 91.1324 76.9738 92.6687 77.5504 94.1467C78.1276 95.6675 78.8653 97.1224 79.7509 98.4867C80.6121 99.8237 81.604 101.072 82.712 102.212C83.6903 103.247 84.8095 104.139 86.0366 104.862C86.1162 104.908 86.1961 104.953 86.2761 104.997C87.4645 105.733 88.8024 106.196 90.1923 106.349C91.3045 106.508 92.4378 106.294 93.4166 105.743C94.3955 105.192 95.1652 104.333 95.6066 103.3C96.1949 102.024 96.4698 100.626 96.4084 99.2225M108.224 102.03L108.262 88.6119L99.8348 83.7468L99.7846 101.444C100.207 102.188 100.726 102.872 101.328 103.48C101.87 104.035 102.479 104.521 103.141 104.926C103.745 105.303 104.424 105.54 105.131 105.621C105.684 105.671 106.24 105.556 106.728 105.29C107.208 105.011 107.591 104.591 107.823 104.087C108.101 103.438 108.237 102.736 108.223 102.03" fill="#C5B4E3"/>
<path d="M73.2966 66.9719L78.3463 69.8873L78.36 65.0459L64.0472 56.7824L64.0334 61.6238L69.0831 64.5393L69.0392 80.0246L73.2527 82.4572L73.2966 66.9719" fill="white"/>
<path d="M82.2737 56.0811C82.0037 56.6332 81.8718 57.2427 81.8892 57.857C81.8901 58.6019 82.0053 59.3421 82.2308 60.052C82.4594 60.8346 82.7866 61.5849 83.2044 62.285C83.5904 62.9808 84.067 63.6224 84.6216 64.193C85.1505 64.7465 85.7433 65.2351 86.3876 65.6486C86.9194 65.9662 87.5106 66.1715 88.1248 66.252C88.62 66.3139 89.1215 66.2066 89.5481 65.9476C89.9717 65.6785 90.3077 65.292 90.5153 64.8351C90.7873 64.2837 90.9193 63.6738 90.8998 63.0593C90.8975 62.3145 90.7824 61.5744 90.5583 60.8642C90.3258 60.0945 89.9987 59.3566 89.5846 58.6674C89.1708 57.9719 88.691 57.3177 88.1518 56.7142C87.6464 56.1584 87.0618 55.6802 86.417 55.2948C85.8846 54.9649 85.2864 54.7559 84.6644 54.6825C84.1716 54.6235 83.6727 54.7238 83.2409 54.9686C82.8254 55.2469 82.4915 55.6309 82.2737 56.0811" fill="#C5B4E3"/>
<path d="M111.699 78.7753L108.215 80.8L108.252 80.7784L111.736 78.7537L111.699 78.7753Z" fill="black"/>
<path d="M99.8237 66.4272L103.308 64.4026C103.333 64.388 103.358 64.3738 103.384 64.3601L99.8997 66.3847C99.8742 66.3985 99.8489 66.4126 99.8237 66.4272Z" fill="black"/>
<path d="M99.9041 75.9951C99.3788 75.0828 98.9575 74.1146 98.6479 73.1085C98.3547 72.162 98.1978 71.1785 98.1819 70.1877C98.159 69.3674 98.3123 68.5516 98.6314 67.7955C98.8892 67.1996 99.3346 66.7043 99.8998 66.3847C100.482 66.0925 101.133 65.9657 101.782 66.0183C102.607 66.0993 103.402 66.3716 104.103 66.8136C104.95 67.3092 105.72 67.9252 106.39 68.6423C107.11 69.4049 107.734 70.2532 108.248 71.168C108.768 72.0889 109.189 73.0626 109.504 74.0727C109.819 75.0177 109.981 76.0066 109.986 77.0026C110.006 77.8155 109.847 78.623 109.521 79.3677C109.26 79.9617 108.815 80.4562 108.252 80.7783C107.677 81.1047 107.009 81.2304 106.354 81.1357C105.546 81.0349 104.767 80.7705 104.065 80.3587C103.215 79.8675 102.444 79.251 101.778 78.5299C101.061 77.7575 100.432 76.9072 99.9041 75.9951ZM102.291 70.4895C102.03 70.6708 101.823 70.9204 101.694 71.211C101.565 71.5016 101.518 71.8221 101.559 72.1375C101.575 73.0097 101.823 73.8619 102.279 74.6056C102.7 75.3838 103.32 76.0363 104.076 76.4965C104.329 76.6856 104.629 76.802 104.944 76.8332C105.258 76.8645 105.576 76.8093 105.861 76.6737C106.123 76.4982 106.331 76.2542 106.462 75.9682C106.594 75.6823 106.645 75.3656 106.609 75.0529C106.564 74.1765 106.313 73.3231 105.876 72.5624C105.438 71.8017 104.827 71.1552 104.092 70.6759C103.837 70.4837 103.535 70.3647 103.217 70.3318C102.9 70.299 102.58 70.3535 102.291 70.4895" fill="#8661C5"/>
<path d="M102.291 70.4895C102.03 70.6708 101.823 70.9204 101.694 71.211C101.565 71.5016 101.518 71.8221 101.559 72.1375C101.575 73.0097 101.823 73.8619 102.279 74.6056C102.7 75.3838 103.32 76.0363 104.076 76.4965C104.329 76.6856 104.629 76.802 104.944 76.8332C105.258 76.8645 105.576 76.8093 105.861 76.6737C106.123 76.4982 106.331 76.2541 106.462 75.9682C106.594 75.6823 106.645 75.3656 106.609 75.0529C106.564 74.1765 106.313 73.3231 105.876 72.5624C105.438 71.8017 104.827 71.1552 104.092 70.6759C103.837 70.4837 103.535 70.3647 103.217 70.3318C102.9 70.299 102.58 70.3535 102.291 70.4895" fill="#C5B4E3"/>
<path d="M111.81 78.7123L108.326 80.7369C108.853 80.4117 109.27 79.9343 109.521 79.3677C109.847 78.623 110.006 77.8155 109.986 77.0026C109.981 76.0066 109.819 75.0177 109.504 74.0727C109.189 73.0626 108.768 72.0889 108.248 71.168C107.734 70.2531 107.11 69.4049 106.39 68.6423C105.72 67.9252 104.95 67.3092 104.103 66.8136C103.402 66.3716 102.607 66.0993 101.782 66.0183C101.133 65.9657 100.482 66.0925 99.8998 66.3847L103.384 64.3601C103.966 64.0678 104.617 63.9411 105.266 63.9937C106.091 64.0747 106.886 64.347 107.587 64.7889C108.434 65.2845 109.204 65.9005 109.874 66.6176C110.594 67.3803 111.218 68.2285 111.732 69.1434C112.252 70.0643 112.673 71.038 112.988 72.0481C113.302 72.9931 113.465 73.982 113.47 74.978C113.49 75.7909 113.331 76.5984 113.005 77.3431C112.754 77.9096 112.337 78.387 111.81 78.7123Z" fill="#463668"/>
<g opacity="0.2">
<path d="M101.123 125.862C101.223 125.896 101.31 125.961 101.372 126.048C101.433 126.134 101.466 126.237 101.466 126.343C101.466 126.449 101.433 126.553 101.371 126.639C101.31 126.725 101.223 126.79 101.122 126.824L100.088 127.425C99.8321 127.556 99.5486 127.624 99.261 127.624C98.9734 127.624 98.6898 127.556 98.4337 127.425L82.7146 118.349C82.6148 118.315 82.528 118.251 82.4664 118.166C82.4048 118.08 82.3713 117.978 82.3707 117.872C82.3701 117.767 82.4024 117.664 82.4631 117.577C82.5238 117.491 82.6098 117.426 82.7093 117.391L83.7432 116.79C84.0005 116.66 84.2848 116.591 84.5732 116.591C84.8617 116.59 85.1463 116.657 85.4041 116.786L101.123 125.862Z" fill="#463668"/>
</g>
<path d="M93.7215 118.604L92.0569 121.538C92.0249 121.596 91.9779 121.645 91.9209 121.679L93.3306 120.86C93.3875 120.826 93.4344 120.777 93.4664 120.719L95.1311 117.785L93.7215 118.604Z" fill="#003067"/>
<path d="M102.933 124.707L97.9944 116.154L96.5847 116.973L101.523 125.526C101.797 126 101.795 126.521 101.52 126.678L102.929 125.859C103.205 125.702 103.206 125.181 102.933 124.707Z" fill="#463668"/>
<path d="M100.169 116.979L101.579 116.159C101.937 115.951 101.811 115.111 101.273 114.622L89.7466 104.153C89.6854 104.097 89.6185 104.048 89.5469 104.005C89.4749 103.953 89.3903 103.922 89.3019 103.913C89.2135 103.905 89.1245 103.92 89.0441 103.958L87.6345 104.777C87.715 104.739 87.804 104.724 87.8923 104.732C87.9807 104.741 88.0652 104.773 88.1372 104.825C88.2089 104.867 88.2759 104.916 88.3372 104.973L99.8634 115.441C100.401 115.93 100.527 116.77 100.169 116.979Z" fill="#463668"/>
<path d="M88.1373 104.825C88.2089 104.867 88.2759 104.916 88.3371 104.973L99.8635 115.441C100.482 116.004 100.556 117.032 99.9741 117.026L96.5848 116.973L101.523 125.526C101.797 126 101.795 126.521 101.52 126.678L99.6623 127.737C99.5807 127.772 99.4914 127.785 99.4031 127.776C99.3147 127.766 99.2303 127.734 99.158 127.683C98.9498 127.553 98.7783 127.373 98.6599 127.158L93.7215 118.604L92.0569 121.538C91.9234 121.77 91.6691 121.772 91.4167 121.626C91.2436 121.516 91.0943 121.372 90.9774 121.203C90.8605 121.034 90.7783 120.844 90.7356 120.643L87.4595 105.473C87.3217 104.854 87.6857 104.564 88.1373 104.825Z" fill="#C5B4E3"/>
<path d="M43.8168 122.354C44.2603 122.641 44.6294 123.03 44.8936 123.487C45.1579 123.945 45.3097 124.459 45.3368 124.987L45.2758 142.745C45.273 143.715 44.5908 144.104 43.7459 143.617L37.0483 139.75C36.6038 139.462 36.2337 139.073 35.9683 138.615C35.7029 138.156 35.5498 137.642 35.5215 137.113L35.5825 119.355C35.5852 118.384 36.2744 117.999 37.1193 118.487L43.8168 122.354Z" fill="white"/>
<path opacity="0.6" d="M52.9164 117.066L46.2188 113.199C46.0627 113.085 45.8792 113.015 45.687 112.996C45.4949 112.977 45.3011 113.01 45.1258 113.091L36.0264 118.379C36.2017 118.298 36.3954 118.265 36.5876 118.284C36.7797 118.303 36.9633 118.373 37.1194 118.487L43.8168 122.354C44.2604 122.641 44.6294 123.03 44.8937 123.487C45.1579 123.945 45.3097 124.459 45.3368 124.987L45.2758 142.745C45.2951 142.933 45.2641 143.122 45.1861 143.294C45.1081 143.467 44.9859 143.615 44.8319 143.725L53.9314 138.437C54.0854 138.327 54.2076 138.179 54.2856 138.006C54.3636 137.834 54.3945 137.645 54.3753 137.457L54.4362 119.699C54.4092 119.171 54.2574 118.657 53.9932 118.199C53.729 117.742 53.3599 117.353 52.9164 117.066Z" fill="white"/>
<path d="M56.5911 103.931C57.0346 104.218 57.4037 104.607 57.6679 105.065C57.9321 105.522 58.084 106.036 58.1111 106.564L57.9771 150.078C57.9743 151.049 57.2919 151.437 56.4471 150.95L49.7495 147.083C49.305 146.795 48.9349 146.406 48.6695 145.948C48.4041 145.489 48.251 144.975 48.2227 144.446L48.3567 100.932C48.3594 99.9614 49.0486 99.5766 49.8934 100.064L56.5911 103.931Z" fill="white"/>
<path opacity="0.6" d="M65.6906 98.6431L58.993 94.7763C58.8369 94.6626 58.6533 94.5927 58.4612 94.5737C58.269 94.5547 58.0753 94.5874 57.9 94.6683L48.8005 99.9563C48.9759 99.8754 49.1696 99.8427 49.3617 99.8617C49.5539 99.8807 49.7375 99.9507 49.8935 100.064L56.5911 103.931C57.0346 104.218 57.4037 104.607 57.6679 105.065C57.9322 105.522 58.0841 106.036 58.1112 106.564L57.9771 150.078C57.9963 150.266 57.9653 150.455 57.8874 150.628C57.8094 150.8 57.6872 150.948 57.5332 151.058L66.6328 145.77C66.7867 145.66 66.9089 145.512 66.9869 145.339C67.0648 145.167 67.0958 144.978 67.0765 144.79L67.2106 101.276C67.1835 100.748 67.0316 100.234 66.7674 99.7766C66.5031 99.3189 66.1341 98.9305 65.6906 98.6431V98.6431Z" fill="white"/>
<path d="M69.2505 126.009C69.6943 126.298 70.0634 126.688 70.3276 127.147C70.5917 127.606 70.7435 128.121 70.7705 128.65L70.6783 157.411C70.6755 158.382 69.9933 158.77 69.1483 158.283L62.4438 154.412C62.001 154.124 61.6324 153.735 61.3683 153.278C61.1041 152.82 60.9518 152.307 60.9238 151.779L61.016 123.018C61.0188 122.047 61.708 121.654 62.5459 122.138L69.2505 126.009Z" fill="white"/>
<path opacity="0.6" d="M78.35 120.721L71.6456 116.85C71.4909 116.738 71.309 116.669 71.1187 116.651C70.9285 116.633 70.7369 116.666 70.5637 116.747L61.4642 122.035C61.6374 121.954 61.8291 121.921 62.0193 121.939C62.2095 121.957 62.3914 122.026 62.5462 122.138L69.2506 126.009C69.6944 126.298 70.0635 126.688 70.3277 127.147C70.5919 127.606 70.7437 128.121 70.7707 128.65L70.6785 157.411C70.6977 157.599 70.6667 157.788 70.5887 157.961C70.5107 158.133 70.3885 158.281 70.2346 158.391L79.334 153.103C79.488 152.993 79.6102 152.845 79.6882 152.673C79.7662 152.5 79.7971 152.311 79.7779 152.123L79.8701 123.362C79.8431 122.833 79.6914 122.318 79.4272 121.859C79.163 121.4 78.7939 121.01 78.35 120.721Z" fill="white"/>
</g>
<defs>
<linearGradient id="paint0_linear_1437_1139" x1="80.0336" y1="170.568" x2="80.0336" y2="19.7611" gradientUnits="userSpaceOnUse">
<stop stop-color="#659BFF"/>
<stop offset="1" stop-color="#ABF3FF"/>
</linearGradient>
<linearGradient id="paint1_linear_1437_1139" x1="82.6163" y1="160.581" x2="77.2644" y2="23.0855" gradientUnits="userSpaceOnUse">
<stop stop-color="#0B53CE"/>
<stop offset="1" stop-color="#50E6FF"/>
</linearGradient>
<clipPath id="clip0_1437_1139">
<rect width="159.356" height="188" fill="white" transform="translate(0.355469)"/>
</clipPath>
</defs>
</svg>
