<?xml version="1.0" encoding="UTF-8"?>
<svg width="107px" height="107px" viewBox="0 0 107 107" version="1.1" xmlns="http://www.w3.org/2000/svg" xmlns:xlink="http://www.w3.org/1999/xlink">
    <!-- Generator: Sketch 61.2 (89653) - https://sketch.com -->
    <title>Integrating with Common Data Service/Work-with-the-Common-Data-Service-Web-API</title>
    <desc>Created with Sketch.</desc>
    <defs>
        <rect id="path-1" x="0" y="0" width="100" height="100" rx="50"></rect>
        <filter x="-7.5%" y="-8.9%" width="115.1%" height="117.8%" filterUnits="objectBoundingBox" id="filter-3">
            <feOffset dx="0" dy="2" in="SourceAlpha" result="shadowOffsetOuter1"></feOffset>
            <feColorMatrix values="0 0 0 0 0   0 0 0 0 0   0 0 0 0 0  0 0 0 0.0982223732 0" type="matrix" in="shadowOffsetOuter1" result="shadowMatrixOuter1"></feColorMatrix>
            <feMerge>
                <feMergeNode in="shadowMatrixOuter1"></feMergeNode>
                <feMergeNode in="SourceGraphic"></feMergeNode>
            </feMerge>
        </filter>
        <polygon id="path-4" points="0 0.319892473 30 0.319892473 30 31.3198925 0 31.3198925"></polygon>
        <filter x="-16.0%" y="-15.2%" width="132.0%" height="127.3%" filterUnits="objectBoundingBox" id="filter-6">
            <feOffset dx="0" dy="2" in="SourceAlpha" result="shadowOffsetOuter1"></feOffset>
            <feColorMatrix values="0 0 0 0 0   0 0 0 0 0   0 0 0 0 0  0 0 0 0.099071558 0" type="matrix" in="shadowOffsetOuter1" result="shadowMatrixOuter1"></feColorMatrix>
            <feMerge>
                <feMergeNode in="shadowMatrixOuter1"></feMergeNode>
                <feMergeNode in="SourceGraphic"></feMergeNode>
            </feMerge>
        </filter>
        <linearGradient x1="78.4210223%" y1="-7.24023438%" x2="15.5786468%" y2="110.793945%" id="linearGradient-7">
            <stop stop-color="#FFFFFF" offset="0%"></stop>
            <stop stop-color="#000000" stop-opacity="0.5" offset="100%"></stop>
        </linearGradient>
        <rect id="path-8" x="-3" y="-3" width="106" height="106" rx="53"></rect>
        <filter x="-0.5%" y="-0.5%" width="101.9%" height="101.9%" filterUnits="objectBoundingBox" id="filter-9">
            <feOffset dx="1" dy="1" in="SourceAlpha" result="shadowOffsetOuter1"></feOffset>
            <feMorphology radius="4" operator="erode" in="SourceAlpha" result="shadowInner"></feMorphology>
            <feOffset dx="1" dy="1" in="shadowInner" result="shadowInner"></feOffset>
            <feComposite in="shadowOffsetOuter1" in2="shadowInner" operator="out" result="shadowOffsetOuter1"></feComposite>
            <feColorMatrix values="0 0 0 0 0   0 0 0 0 0   0 0 0 0 0  0 0 0 0.15 0" type="matrix" in="shadowOffsetOuter1"></feColorMatrix>
        </filter>
    </defs>
    <g id="Badges" stroke="none" stroke-width="1" fill="none" fill-rule="evenodd">
        <g id="Integrating-with-Common-Data-Service" transform="translate(-47.000000, -457.000000)">
            <g id="Integrating-with-Common-Data-Service/Work-with-the-Common-Data-Service-Web-API" transform="translate(50.000000, 460.000000)">
                <g id="Mask" transform="translate(2.000000, 2.000000)">
                    <g id="Circle-" transform="translate(-2.000000, -0.000000)">
                        <mask id="mask-2" fill="white">
                            <use xlink:href="#path-1"></use>
                        </mask>
                        <g id="BG"></g>
                        <g id="Color/Stone" mask="url(#mask-2)" fill="#965596" fill-rule="evenodd">
                            <rect id="Rectangle" x="0" y="0" width="100" height="100"></rect>
                        </g>
                    </g>
                    <g id="Browser" filter="url(#filter-3)" transform="translate(16.000000, 24.000000)">
                        <path d="M3.3125,45 C1.490625,45 0,43.5 0,41.6666667 L0,3.33333333 C0,1.5 1.490625,0 3.3125,0 L49.6875,0 C51.509375,0 53,1.5 53,3.33333333 L53,41.6666667 C53,43.5 51.509375,45 49.6875,45 L3.3125,45" id="Fill-1485" fill="#30404D"></path>
                        <path d="M3,40.3333333 L3,8.66666667 C3,7.75 3.72931034,7 4.62068966,7 L48.3793103,7 C49.2706897,7 50,7.75 50,8.66666667 L50,40.3333333 C50,41.25 49.2706897,42 48.3793103,42 L4.62068966,42 C3.72931034,42 3,41.25 3,40.3333333 Z" id="Fill-1486" fill="#E1E4E1"></path>
                        <path d="M4,4 C4,3.44733333 4.448,3 5,3 C5.55266667,3 6,3.44733333 6,4 C6,4.552 5.55266667,5 5,5 C4.448,5 4,4.552 4,4" id="Fill-1487" fill="#DF5142"></path>
                        <path d="M8,4 C8,3.44733333 8.448,3 9,3 C9.55266667,3 10,3.44733333 10,4 C10,4.552 9.55266667,5 9,5 C8.448,5 8,4.552 8,4" id="Fill-1488" fill="#EFB252"></path>
                        <path d="M12,4 C12,3.44733333 12.448,3 13,3 C13.5526667,3 14,3.44733333 14,4 C14,4.552 13.5526667,5 13,5 C12.448,5 12,4.552 12,4" id="Fill-1489" fill="#7CB65A"></path>
                        <path d="M48.7837838,5 L21.2162162,5 C20.5448649,5 20,4.552 20,4 C20,3.448 20.5448649,3 21.2162162,3 L48.7837838,3 C49.4551351,3 50,3.448 50,4 C50,4.552 49.4551351,5 48.7837838,5" id="Fill-1490" fill="#697D85"></path>
                    </g>
                    <g id="Group-3" transform="translate(26.000000, 29.680108)">
                        <mask id="mask-5" fill="white">
                            <use xlink:href="#path-4"></use>
                        </mask>
                        <g id="Clip-2"></g>
                        <path d="M22.337709,23.7336916 C22.8246308,23.7336916 23.3063789,23.8589257 23.7309138,24.0959341 C25.0678183,24.8420718 25.5264377,26.5020086 24.7537538,27.7961916 C24.255572,28.630988 23.3267688,29.1494805 22.3294922,29.1494805 C21.8425705,29.1494805 21.3608223,29.0242464 20.9362875,28.787238 C19.599383,28.0408077 19.1404593,26.3808709 19.9128389,25.0869805 C20.4116293,24.2524767 21.3407368,23.7336916 22.337709,23.7336916 M10.4406898,19.7730175 C9.75047826,20.9287993 8.46409194,21.6468471 7.08306021,21.6468471 C6.40867363,21.6468471 5.74128654,21.4733335 5.15302424,21.1450329 C3.30241738,20.1118517 2.66698453,17.814333 3.73608203,16.0236027 C4.4265979,14.8678208 5.71298422,14.1497731 7.09371162,14.1497731 C7.7680982,14.1497731 8.43548529,14.3232867 9.02344326,14.6515872 C10.8743545,15.6844758 11.509483,17.9819945 10.4406898,19.7730175 M20.9365918,6.85254697 C21.361431,6.61553854 21.8431792,6.49030446 22.3297966,6.49030446 C23.3267688,6.49030446 24.2558763,7.00879697 24.7540581,7.84359332 C25.526742,9.13748377 25.0678183,10.7974206 23.7312181,11.5438508 C23.3063789,11.7808592 22.8246308,11.9060933 22.3383177,11.9060933 C21.3410412,11.9060933 20.4119336,11.3876008 19.9131432,10.5528045 C19.1407636,9.25862141 19.599383,7.59897721 20.9365918,6.85254697 M23.986852,15.1124369 C25.5279593,15.1124369 26.7823914,16.327032 26.7823914,17.8198925 C26.7823914,19.312753 25.5282636,20.527348 23.986852,20.527348 C22.4451362,20.527348 21.1903997,19.312753 21.1903997,17.8198925 C21.1903997,16.327032 22.4451362,15.1124369 23.986852,15.1124369 M12.1461331,18.4050985 L20.0242222,18.4050985 C20.3178969,20.2660535 21.9801259,21.69776 23.9871564,21.69776 C26.1996069,21.69776 28,19.9582352 28,17.8198925 C28,15.6815498 26.1996069,13.942025 23.986852,13.942025 C21.9801259,13.942025 20.3175926,15.3737314 20.0239179,17.2346865 L12.123613,17.2346865 C12.0539223,16.743406 11.9102804,16.2647075 11.6926873,15.8146841 L19.2043678,11.6216832 C19.9594008,12.5299229 21.1121879,13.0762127 22.3380134,13.0762127 C23.0391807,13.0762127 23.7321311,12.8962619 24.3420006,12.555672 C26.2565159,11.4867932 26.9147732,9.1114421 25.8094609,7.26072815 C25.0952076,6.06368929 23.7616508,5.31989247 22.3297966,5.31989247 C21.628325,5.31989247 20.9353745,5.49984332 20.325505,5.8404332 C18.5887161,6.80982693 17.8902878,8.85307365 18.5996719,10.6060582 L11.0514722,14.8195413 C10.6683257,14.3575212 10.196316,13.9528513 9.63453002,13.6394735 C8.86123746,13.2075914 7.98234376,12.9793611 7.09340729,12.9793611 C5.27779793,12.9793611 3.58696226,13.9224206 2.68037488,15.4407375 C1.27834465,17.7882913 2.11311108,20.8012244 4.54132883,22.1571467 C5.31492571,22.5890287 6.19381942,22.817259 7.08275588,22.817259 C8.68290238,22.817259 10.1859689,22.0837033 11.1409441,20.8702787 L18.5996719,25.0337267 C17.8905921,26.7867113 18.5887161,28.829958 20.325505,29.7993517 C20.9353745,30.1402342 21.628325,30.3198925 22.3294922,30.3198925 L22.3297966,30.3198925 C23.7613464,30.3198925 25.0952076,29.5760957 25.8100696,28.3787642 C26.9153819,26.5277576 26.2568202,24.1526991 24.3423049,23.0838204 C23.7324354,22.7432305 23.0391807,22.5632796 22.3380134,22.5632796 C21.1121879,22.5632796 19.9597051,23.109862 19.2043678,24.0178091 L11.7529438,19.8584575 C11.9653634,19.3873667 12.093789,18.8975493 12.1461331,18.4050985" id="Fill-1" stroke="#000000" stroke-width="0.5" fill="#000000" mask="url(#mask-5)"></path>
                    </g>
                    <g id="Database" transform="translate(54.000000, 45.000000)">
                        <g filter="url(#filter-6)" transform="translate(0.617647, 0.000000)">
                            <g id="Lower" transform="translate(0.000000, 17.015625)">
                                <path d="M12.5,8.9525017 C5.83717671,8.9525017 0.435132107,6.93841097 0.435132107,4.45229897 L0.435132107,10.4525693 C0.435132107,12.9386813 5.83717671,14.952772 12.5,14.952772 C19.163326,14.952772 24.5648679,12.9386813 24.5648679,10.4525693 L24.5648679,4.45229897 C24.5648679,6.93841097 19.163326,8.9525017 12.5,8.9525017" id="Fill-101" fill="#E1E4E1"></path>
                                <path d="M12.5,10.9360911 L12.5,12.9346811 C12.5,13.5022067 12.0249458,13.954227 11.4548808,13.9362262 C5.28118738,13.7387173 0.435132107,11.8071303 0.435132107,9.45252423 L0.435132107,10.4525693 C0.435132107,12.9386813 5.83717671,14.952772 12.5,14.952772 C19.163326,14.952772 24.5648679,12.9386813 24.5648679,10.4525693 L24.5648679,5.45234403 C24.5648679,7.81695055 19.6790991,9.75453783 13.4682056,9.9380461 C12.9283028,9.95404682 12.5,10.3985668 12.5,10.9360911" id="Fill-106" fill="#D3DAD8"></path>
                                <path d="M24.5,4.50413603 C24.5,6.99242096 19.1275,9.00827206 12.5,9.00827206 C5.873,9.00827206 0.5,6.99242096 0.5,4.50413603 C0.5,2.0158511 5.873,0 12.5,0 C19.1275,0 24.5,2.0158511 24.5,4.50413603" id="Fill-100" stroke="#E1E4E1" stroke-width="0.25" fill="#BAC0C2"></path>
                            </g>
                            <g id="Mid" transform="translate(0.000000, 8.507812)">
                                <path d="M12.5,8.95993127 C5.83717671,8.95993127 0.435132107,6.94584054 0.435132107,4.45972854 L0.435132107,10.4599988 C0.435132107,12.9461108 5.83717671,14.9602016 12.5,14.9602016 C19.163326,14.9602016 24.5648679,12.9461108 24.5648679,10.4599988 L24.5648679,4.45972854 C24.5648679,6.94584054 19.163326,8.95993127 12.5,8.95993127" id="Fill-102" fill="#E1E4E1"></path>
                                <path d="M12.5,10.9435206 L12.5,12.9421107 C12.5,13.5096362 12.0249458,13.9616566 11.4548808,13.9436558 C5.28118738,13.7461469 0.435132107,11.8145599 0.435132107,9.4599538 L0.435132107,10.4599988 C0.435132107,12.9461108 5.83717671,14.9602016 12.5,14.9602016 C19.163326,14.9602016 24.5648679,12.9461108 24.5648679,10.4599988 L24.5648679,5.45977359 C24.5648679,7.82438012 19.6790991,9.7619674 13.4682056,9.94547567 C12.9283028,9.96147639 12.5,10.4059964 12.5,10.9435206" id="Fill-107" fill="#D3DAD8"></path>
                                <path d="M24.5,4.50413603 C24.5,6.99242096 19.1275,9.00827206 12.5,9.00827206 C5.873,9.00827206 0.5,6.99242096 0.5,4.50413603 C0.5,2.0158511 5.873,0 12.5,0 C19.1275,0 24.5,2.0158511 24.5,4.50413603" id="Fill-103" stroke="#E1E4E1" stroke-width="0.25" fill="#BAC0C2"></path>
                            </g>
                            <g id="Top">
                                <path d="M12.5,8.96736084 C5.83717671,8.96736084 0.435132107,6.95327011 0.435132107,4.46715811 L0.435132107,10.4674284 C0.435132107,12.9535404 5.83717671,14.9676311 12.5,14.9676311 C19.163326,14.9676311 24.5648679,12.9535404 24.5648679,10.4674284 L24.5648679,4.46715811 C24.5648679,6.95327011 19.163326,8.96736084 12.5,8.96736084" id="Fill-104" fill="#E1E4E1"></path>
                                <path d="M12.5,10.9509502 L12.5,12.9495402 C12.5,13.5170658 12.0249458,13.9690862 11.4548808,13.9510854 C5.28118738,13.7535765 0.435132107,11.8219894 0.435132107,9.46738337 L0.435132107,10.4674284 C0.435132107,12.9535404 5.83717671,14.9676311 12.5,14.9676311 C19.163326,14.9676311 24.5648679,12.9535404 24.5648679,10.4674284 L24.5648679,5.46720316 C24.5648679,7.83180969 19.6790991,9.76939697 13.4682056,9.95290524 C12.9283028,9.96890596 12.5,10.413426 12.5,10.9509502" id="Fill-108" fill="#D3DAD8"></path>
                                <path d="M24.0249206,4.50413603 C24.0249206,6.99242096 18.8762748,9.00827206 12.5249206,9.00827206 C6.17404559,9.00827206 1.02492059,6.99242096 1.02492059,4.50413603 C1.02492059,2.0158511 6.17404559,0 12.5249206,0 C18.8762748,0 24.0249206,2.0158511 24.0249206,4.50413603" id="Fill-105" stroke="#E1E4E1" stroke-width="1.75" fill="#C4CBCD"></path>
                            </g>
                        </g>
                    </g>
                </g>
                <g id="PowerApps-Border">
                    <path d="M50,0 C74.5263677,-4.50542066e-15 94.9281966,17.6592499 99.1842495,40.9565123 L94.2027317,73.3905473 C85.8096395,89.2186645 69.1638777,100 50,100 C30.9551233,100 14.3971863,89.3521454 5.95457608,73.6848234 L0.0261464987,48.3675131 C0.887696267,21.508872 22.932015,4.97230817e-15 50,0 Z" id="Combined-Shape" fill="url(#linearGradient-7)" fill-rule="evenodd" opacity="0.400000006" style="mix-blend-mode: overlay;"></path>
                    <g id="Azure-Border">
                        <use fill="black" fill-opacity="1" filter="url(#filter-9)" xlink:href="#path-8"></use>
                        <rect stroke="#F2F1F0" stroke-width="4" stroke-linejoin="square" x="-1" y="-1" width="102" height="102" rx="51"></rect>
                    </g>
                    <rect id="Azure-Border" stroke="#742774" stroke-width="4" x="2" y="2" width="96" height="96" rx="48"></rect>
                </g>
            </g>
        </g>
    </g>
</svg>