<svg width="103" height="103" viewBox="0 0 103 103" fill="none" xmlns="http://www.w3.org/2000/svg">
<path fill-rule="evenodd" clip-rule="evenodd" d="M96.9458 51.7088C96.9458 77.0588 76.3958 97.6088 51.0458 97.6088C25.6958 97.6088 5.14576 77.0588 5.14576 51.7088C5.14576 26.3588 25.6958 5.80885 51.0458 5.80885C76.3958 5.80885 96.9458 26.3588 96.9458 51.7088ZM51.0458 2.06885C78.4658 2.06885 100.686 24.2888 100.686 51.7088C100.686 79.1288 78.4558 101.349 51.0458 101.349C23.6258 101.349 1.40576 79.1188 1.40576 51.7088C1.40576 24.2888 23.6258 2.06885 51.0458 2.06885Z" fill="url(#paint0_linear_1166_8964)"/>
<path d="M50.7958 95.0209C26.8776 95.0209 7.48389 75.6364 7.48389 51.7089C7.48389 27.7814 26.8776 8.39697 50.7958 8.39697C74.7141 8.39697 94.1078 27.7907 94.1078 51.7089C94.1078 75.6272 74.7141 95.0209 50.7958 95.0209Z" fill="url(#paint1_linear_1166_8964)"/>
<path d="M82.926 19.8226C75.5487 12.4469 65.8425 7.8574 55.4607 6.83608C45.0789 5.81475 34.6641 8.42477 25.991 14.2215C17.3178 20.0181 10.923 28.6429 7.89598 38.6259C4.86901 48.609 5.39724 59.3328 9.39061 68.9701C13.384 78.6074 20.5953 86.5619 29.7961 91.4782C38.9969 96.3945 49.6177 97.9684 59.8489 95.9318C70.08 93.8952 79.2885 88.374 85.9053 80.3091C92.522 72.2442 96.1376 62.1345 96.136 51.7026C96.1499 45.7794 94.9896 39.9123 92.7222 34.4403C90.4547 28.9683 87.1252 24 82.926 19.8226V19.8226ZM50.5661 12.2526H50.636L58.696 7.54256C60.3257 7.81686 61.9384 8.18416 63.5261 8.64259L50.636 16.1726L37.9861 8.84255C39.5461 8.3688 41.1321 7.98487 42.7361 7.69258L50.5661 12.2526ZM43.176 7.62257C45.0468 7.28485 46.9375 7.06771 48.8362 6.97255L50.5962 7.97255H50.666L52.5261 6.88258C54.456 6.94729 56.3799 7.13433 58.2861 7.44258L50.636 11.9126L43.176 7.62257ZM50.5661 16.4926H50.636L63.896 8.74257C65.316 9.17257 66.7162 9.66255 68.0862 10.2226L50.636 20.4226L33.5361 10.4226C34.8856 9.84486 36.264 9.33749 37.666 8.90254L50.5661 16.4926ZM50.5661 20.7326H50.636L68.396 10.3526C69.656 10.8826 70.8962 11.4726 72.1062 12.1226L50.636 24.6626L29.5661 12.3526C30.7561 11.7026 31.9861 11.1026 33.2261 10.5626L50.5661 20.7326ZM50.5661 24.9725H50.636L72.386 12.2725C73.516 12.8825 74.616 13.5525 75.696 14.2725L50.636 28.9126L25.9861 14.5626C27.0561 13.8426 28.1561 13.1726 29.2761 12.5626L50.5661 24.9725ZM50.5661 29.2125H50.636L75.9861 14.4725C76.9861 15.1625 77.9861 15.9026 78.9861 16.6826L50.676 33.2225L22.8362 16.9526C23.7962 16.1726 24.7962 15.4326 25.8362 14.7326L50.5661 29.2125ZM50.5661 33.4926H50.636L79.176 16.8226C80.096 17.5626 80.9862 18.3526 81.8562 19.1726L50.666 37.3926L19.9861 19.4926C20.8261 18.6726 21.6962 17.8826 22.5962 17.1326L50.5661 33.4926ZM52.0161 6.94258L50.666 7.73256L49.3562 6.96254C49.9162 6.96254 50.4761 6.96254 51.0461 6.96254L52.0161 6.94258ZM19.376 20.0426C19.496 19.9126 19.6261 19.8026 19.7461 19.6826L50.5962 37.6826H50.666L82.0561 19.3526C82.2761 19.5626 82.496 19.7626 82.716 19.9826C83.316 20.5826 83.906 21.2125 84.466 21.8425L51.7661 40.9526L52.0261 41.1126L84.646 22.1126C85.416 22.9726 86.1362 23.8625 86.8262 24.7725L55.396 43.1126L55.666 43.2725L86.9861 24.9826C87.6661 25.9026 88.306 26.8426 88.906 27.7926L59.0261 45.2526L59.2861 45.4126L89.0561 28.0225C89.6561 29.0225 90.2161 29.9626 90.7461 30.9526L62.646 47.3726L62.916 47.5325L90.866 31.2026C91.386 32.2026 91.8661 33.2026 92.3161 34.2926L66.3161 49.4926L66.5862 49.6525L92.456 34.5426C92.896 35.6026 93.286 36.6825 93.636 37.7725L69.946 51.6126L70.216 51.7725L93.7261 38.0325C94.0861 39.1525 94.396 40.2826 94.666 41.4226L73.5862 53.7426L73.8462 53.8926L94.7261 41.7026C94.9861 42.8726 95.216 44.0526 95.386 45.2426L77.216 55.8626L77.4861 56.0126L95.426 45.5325C95.5993 46.7659 95.7195 48.0059 95.7861 49.2526L80.8462 57.9826L81.116 58.1326L95.7961 49.5626C95.7961 50.2726 95.8562 50.9926 95.8562 51.7026C95.8562 52.4126 95.8562 52.8925 95.8562 53.4725L84.456 60.1126L84.7261 60.2626L95.7761 53.8026C95.717 55.2049 95.5867 56.6034 95.386 57.9926L88.116 62.2426L88.386 62.4025L95.386 58.3325C95.1688 59.82 94.8752 61.2954 94.5061 62.7526L91.7661 64.3526L92.0361 64.5126L94.406 63.1226C94.106 64.2626 93.7727 65.3826 93.406 66.4826L50.9861 41.7125H50.916L8.73607 66.3526C8.43607 65.4826 8.16601 64.6126 7.92601 63.7326L9.31615 64.5426L9.58617 64.3826L7.82616 63.3826C7.41704 61.9173 7.08327 60.432 6.82616 58.9326L12.876 62.4625L13.146 62.3026L6.7661 58.5825C6.5561 57.1925 6.40616 55.7826 6.32616 54.3626L16.5361 60.3626L16.8061 60.2125L6.30614 54.0726C6.30614 53.3226 6.24608 52.5726 6.24608 51.8126C6.24608 51.2526 6.24608 50.7026 6.24608 50.1426L20.126 58.2426L20.396 58.0925L6.25609 49.8325C6.31609 48.5825 6.42617 47.3325 6.58617 46.0925L23.7561 56.0925L24.0261 55.9326L6.61595 45.7626C6.77595 44.5626 6.98608 43.3726 7.24608 42.2026L27.386 53.9625L27.656 53.8126L7.30614 41.9226C7.56614 40.7726 7.85604 39.6326 8.20604 38.5126L31.0261 51.8425L31.2961 51.6826L8.29613 38.2526C8.64613 37.1526 9.02604 36.0726 9.45604 35.0026L34.666 49.7225L34.936 49.5626L9.55614 34.7526C9.99614 33.6926 10.4761 32.6626 10.9861 31.6426L38.3061 47.6426L38.5762 47.4826L11.116 31.4826C11.626 30.4826 12.1761 29.4826 12.7661 28.4826L41.926 45.4826L42.196 45.3226L12.9861 28.1126C13.5861 27.1126 14.216 26.2025 14.886 25.2825L45.646 43.2825L45.916 43.1226L14.9861 25.1126C15.6661 24.1926 16.396 23.3126 17.146 22.4426L49.216 41.1826L49.4861 41.0225L17.3262 22.2326C17.9862 21.4826 18.666 20.7426 19.376 20.0426V20.0426ZM50.9861 58.6826H50.916L15.7361 79.2225C15.0361 78.3225 14.3561 77.4025 13.7361 76.4625L50.926 54.7225L88.366 76.5925C87.736 77.5425 87.046 78.4626 86.366 79.3626L50.9861 58.6826ZM86.156 79.5526C85.446 80.4526 84.686 81.3226 83.896 82.1726L50.956 62.9326H50.886L18.126 82.0626C17.346 81.2226 16.616 80.3426 15.906 79.4526L50.906 59.0026L86.156 79.5526ZM50.9861 54.4126H50.916L13.5862 76.2326C12.9662 75.2326 12.3862 74.3125 11.8362 73.3325L50.916 50.5026L90.2461 73.5026C89.7061 74.4826 89.1261 75.4426 88.5061 76.3826L50.9861 54.4126ZM50.9861 50.2026H50.916L11.666 73.1126C11.116 72.1126 10.666 71.1126 10.156 70.0626L50.876 46.2725L91.876 70.2225C91.406 71.2225 90.8762 72.2725 90.3562 73.2225L50.9861 50.2026ZM50.9861 45.9526H50.916L10.0862 69.8026C9.62617 68.8026 9.19615 67.6926 8.81615 66.6126L50.916 42.0325L93.2961 66.7825C92.9161 67.8625 92.4761 68.9125 92.0161 69.9625L50.9861 45.9526ZM50.896 88.3425L39.5261 94.9826C38.0661 94.5926 36.626 94.1326 35.216 93.6026L50.936 84.4226L66.7561 93.6726C65.3158 94.2155 63.847 94.6795 62.3562 95.0626L50.896 88.3425ZM61.9861 95.1626C60.3379 95.5671 58.6687 95.8809 56.9861 96.1026L50.9861 92.5925H50.916L44.916 96.1026C43.2308 95.8695 41.5612 95.5355 39.916 95.1026L50.916 88.6726L61.9861 95.1626ZM50.9861 84.1626H50.916L34.916 93.5225C33.606 93.0125 32.3161 92.4526 31.0661 91.8226L50.866 80.1126L70.866 91.8226C69.596 92.4526 68.3061 93.0125 66.9961 93.5225L50.9861 84.1626ZM50.9861 79.8826H50.926L30.7761 91.6726C29.6161 91.0826 28.486 90.4326 27.376 89.7426L50.936 75.9826L74.676 89.8425C73.566 90.5325 72.4261 91.1726 71.2661 91.7626L50.9861 79.8826ZM50.9861 75.6626H50.916L27.0962 89.5825C26.0462 88.9125 25.0261 88.2026 24.0261 87.4426L50.916 71.7426L77.9861 87.5126C76.9861 88.2726 75.986 88.9726 74.906 89.6326L50.9861 75.6626ZM50.9861 71.4226H50.916L23.7961 87.2626C22.8461 86.5326 21.9161 85.7626 21.0261 84.9526L50.916 67.4926L80.9861 85.0325C80.0861 85.8425 79.156 86.6025 78.206 87.3325L50.9861 71.4226ZM45.366 96.1326L50.916 92.8726L56.5361 96.1626C54.7281 96.3869 52.9081 96.5005 51.0862 96.5026C49.1598 96.4956 47.2359 96.3653 45.3262 96.1126L45.366 96.1326ZM82.7561 83.3826C82.2461 83.8926 81.756 84.3826 81.216 84.8526L50.9861 67.1726H50.916L20.8161 84.7526C20.3461 84.3126 19.876 83.8726 19.416 83.4126C18.956 82.9526 18.6861 82.6526 18.3161 82.2626L50.886 63.2626L83.706 82.4226C83.356 82.7126 83.046 83.0526 82.716 83.3726L82.7561 83.3826Z" fill="url(#paint2_linear_1166_8964)"/>
<path fill-rule="evenodd" clip-rule="evenodd" d="M94.1358 51.7094C94.1358 75.5094 74.8458 94.7994 51.0458 94.7994C27.2458 94.7994 7.95582 75.5094 7.95582 51.7094C7.95582 27.9094 27.2458 8.6194 51.0458 8.6194C74.8458 8.6194 94.1358 27.9094 94.1358 51.7094ZM51.0458 4.87939C76.9058 4.87939 97.8758 25.8494 97.8758 51.7094C97.8758 77.5694 76.9058 98.5394 51.0458 98.5394C25.1858 98.5394 4.21582 77.5694 4.21582 51.7094C4.21582 25.8494 25.1758 4.87939 51.0458 4.87939Z" fill="url(#paint3_linear_1166_8964)"/>
<g filter="url(#filter0_ddd_1166_8964)">
<g clip-path="url(#clip0_1166_8964)">
<rect x="82.0459" y="20.916" width="59" height="62" rx="8.914" transform="rotate(90 82.0459 20.916)" fill="#E8E6DF"/>
<g filter="url(#filter1_dd_1166_8964)">
<rect x="78.4805" y="24.4817" width="51.8688" height="54.8688" rx="5.3484" transform="rotate(90 78.4805 24.4817)" fill="#E8E6DF"/>
</g>
</g>
</g>
<path d="M73.396 32.0586H28.6861C28.5185 32.0586 28.3525 32.0918 28.1978 32.1562C28.0431 32.2207 27.9023 32.3151 27.7842 32.4341C27.6662 32.5531 27.573 32.6944 27.5098 32.8496C27.4466 33.0048 27.4147 33.171 27.4161 33.3386V35.4187C27.4161 35.7555 27.55 36.0785 27.7881 36.3167C28.0263 36.5548 28.3492 36.6885 28.6861 36.6885H73.396C73.7329 36.6885 74.0558 36.5548 74.294 36.3167C74.5322 36.0785 74.6661 35.7555 74.6661 35.4187V33.3386C74.6674 33.171 74.6355 33.0048 74.5723 32.8496C74.5091 32.6944 74.4155 32.5531 74.2974 32.4341C74.1793 32.3151 74.0391 32.2207 73.8843 32.1562C73.7296 32.0918 73.5637 32.0586 73.396 32.0586Z" fill="url(#paint4_linear_1166_8964)"/>
<path d="M73.396 37.7583H28.6861C28.5185 37.7583 28.3525 37.7915 28.1978 37.856C28.0431 37.9204 27.9023 38.0148 27.7842 38.1338C27.6662 38.2528 27.573 38.3941 27.5098 38.5493C27.4466 38.7046 27.4147 38.8707 27.4161 39.0383V41.1184C27.4161 41.4552 27.55 41.7782 27.7881 42.0164C28.0263 42.2545 28.3492 42.3884 28.6861 42.3884H73.396C73.7329 42.3884 74.0558 42.2545 74.294 42.0164C74.5322 41.7782 74.6661 41.4552 74.6661 41.1184V39.0583C74.6701 38.8891 74.6402 38.7208 74.5782 38.5632C74.5161 38.4057 74.4231 38.262 74.3047 38.1409C74.1864 38.0197 74.0453 37.9236 73.8892 37.8579C73.7331 37.7922 73.5654 37.7583 73.396 37.7583V37.7583Z" fill="url(#paint5_linear_1166_8964)"/>
<path d="M37.4258 48.9683H28.4258C28.1606 48.9683 27.9063 49.0737 27.7188 49.2612C27.5312 49.4488 27.4258 49.703 27.4258 49.9683V52.3784C27.4258 52.6436 27.5312 52.8979 27.7188 53.0854C27.9063 53.273 28.1606 53.3784 28.4258 53.3784H37.4258C37.691 53.3784 37.9453 53.273 38.1328 53.0854C38.3203 52.8979 38.4258 52.6436 38.4258 52.3784V49.9683C38.4258 49.703 38.3203 49.4488 38.1328 49.2612C37.9453 49.0737 37.691 48.9683 37.4258 48.9683Z" fill="url(#paint6_linear_1166_8964)"/>
<path d="M49.6157 48.9683H40.6157C40.3505 48.9683 40.0962 49.0737 39.9087 49.2612C39.7212 49.4488 39.6157 49.703 39.6157 49.9683V52.3784C39.6157 52.6436 39.7212 52.8979 39.9087 53.0854C40.0962 53.273 40.3505 53.3784 40.6157 53.3784H49.6157C49.8809 53.3784 50.1357 53.273 50.3232 53.0854C50.5108 52.8979 50.6157 52.6436 50.6157 52.3784V49.9683C50.6157 49.703 50.5108 49.4488 50.3232 49.2612C50.1357 49.0737 49.8809 48.9683 49.6157 48.9683Z" fill="url(#paint7_linear_1166_8964)"/>
<path d="M61.7461 48.9683H52.6758C52.4106 48.9683 52.1563 49.0737 51.9688 49.2612C51.7812 49.4488 51.6758 49.703 51.6758 49.9683V52.3784C51.6758 52.6436 51.7812 52.8979 51.9688 53.0854C52.1563 53.273 52.4106 53.3784 52.6758 53.3784H61.7461C62.0113 53.3784 62.2656 53.273 62.4531 53.0854C62.6407 52.8979 62.7461 52.6436 62.7461 52.3784V49.9683C62.7461 49.703 62.6407 49.4488 62.4531 49.2612C62.2656 49.0737 62.0113 48.9683 61.7461 48.9683Z" fill="url(#paint8_linear_1166_8964)"/>
<path d="M73.6758 48.9683H64.6758C64.4106 48.9683 64.1563 49.0737 63.9688 49.2612C63.7812 49.4488 63.6758 49.703 63.6758 49.9683V52.3784C63.6758 52.6436 63.7812 52.8979 63.9688 53.0854C64.1563 53.273 64.4106 53.3784 64.6758 53.3784H73.6758C73.941 53.3784 74.1953 53.273 74.3828 53.0854C74.5703 52.8979 74.6758 52.6436 74.6758 52.3784V49.9683C74.6758 49.703 74.5703 49.4488 74.3828 49.2612C74.1953 49.0737 73.941 48.9683 73.6758 48.9683Z" fill="url(#paint9_linear_1166_8964)"/>
<path d="M37.4258 43.4883H28.4258C28.1606 43.4883 27.9063 43.5937 27.7188 43.7812C27.5312 43.9688 27.4258 44.2231 27.4258 44.4883V46.8984C27.4258 47.1637 27.5312 47.4179 27.7188 47.6055C27.9063 47.793 28.1606 47.8984 28.4258 47.8984H37.4258C37.691 47.8984 37.9453 47.793 38.1328 47.6055C38.3203 47.4179 38.4258 47.1637 38.4258 46.8984V44.4883C38.4258 44.2231 38.3203 43.9688 38.1328 43.7812C37.9453 43.5937 37.691 43.4883 37.4258 43.4883Z" fill="url(#paint10_linear_1166_8964)"/>
<path d="M49.6157 43.4883H40.6157C40.3505 43.4883 40.0962 43.5937 39.9087 43.7812C39.7212 43.9688 39.6157 44.2231 39.6157 44.4883V46.8984C39.6157 47.1637 39.7212 47.4179 39.9087 47.6055C40.0962 47.793 40.3505 47.8984 40.6157 47.8984H49.6157C49.8809 47.8984 50.1357 47.793 50.3232 47.6055C50.5108 47.4179 50.6157 47.1637 50.6157 46.8984V44.4883C50.6157 44.2231 50.5108 43.9688 50.3232 43.7812C50.1357 43.5937 49.8809 43.4883 49.6157 43.4883Z" fill="url(#paint11_linear_1166_8964)"/>
<path d="M61.7461 43.4883H52.6758C52.4106 43.4883 52.1563 43.5937 51.9688 43.7812C51.7812 43.9688 51.6758 44.2231 51.6758 44.4883V46.8984C51.6758 47.1637 51.7812 47.4179 51.9688 47.6055C52.1563 47.793 52.4106 47.8984 52.6758 47.8984H61.7461C62.0113 47.8984 62.2656 47.793 62.4531 47.6055C62.6407 47.4179 62.7461 47.1637 62.7461 46.8984V44.4883C62.7461 44.2231 62.6407 43.9688 62.4531 43.7812C62.2656 43.5937 62.0113 43.4883 61.7461 43.4883Z" fill="url(#paint12_linear_1166_8964)"/>
<path d="M73.6758 43.4883H64.6758C64.4106 43.4883 64.1563 43.5937 63.9688 43.7812C63.7812 43.9688 63.6758 44.2231 63.6758 44.4883V46.8984C63.6758 47.1637 63.7812 47.4179 63.9688 47.6055C64.1563 47.793 64.4106 47.8984 64.6758 47.8984H73.6758C73.941 47.8984 74.1953 47.793 74.3828 47.6055C74.5703 47.4179 74.6758 47.1637 74.6758 46.8984V44.4883C74.6758 44.2231 74.5703 43.9688 74.3828 43.7812C74.1953 43.5937 73.941 43.4883 73.6758 43.4883Z" fill="url(#paint13_linear_1166_8964)"/>
<path d="M31.4961 60.0586H28.416C28.1508 60.0586 27.8965 60.164 27.709 60.3516C27.5214 60.5391 27.416 60.7934 27.416 61.0586V63.5986C27.416 63.8638 27.5214 64.1181 27.709 64.3057C27.8965 64.4932 28.1508 64.5986 28.416 64.5986H31.4961C31.7613 64.5986 32.0156 64.4932 32.2031 64.3057C32.3907 64.1181 32.4961 63.8638 32.4961 63.5986V61.0586C32.4961 60.7934 32.3907 60.5391 32.2031 60.3516C32.0156 60.164 31.7613 60.0586 31.4961 60.0586Z" fill="#FFED9F"/>
<path d="M37.416 60.0586H34.3359C34.0707 60.0586 33.8164 60.164 33.6289 60.3516C33.4414 60.5391 33.3359 60.7934 33.3359 61.0586V63.5986C33.3359 63.8638 33.4414 64.1181 33.6289 64.3057C33.8164 64.4932 34.0707 64.5986 34.3359 64.5986H37.416C37.6812 64.5986 37.9355 64.4932 38.123 64.3057C38.3106 64.1181 38.416 63.8638 38.416 63.5986V61.0586C38.416 60.7934 38.3106 60.5391 38.123 60.3516C37.9355 60.164 37.6812 60.0586 37.416 60.0586Z" fill="#FFED9F"/>
<path d="M43.646 60.0586H40.5659C40.3007 60.0586 40.0464 60.164 39.8589 60.3516C39.6714 60.5391 39.5659 60.7934 39.5659 61.0586V63.5986C39.5659 63.8638 39.6714 64.1181 39.8589 64.3057C40.0464 64.4932 40.3007 64.5986 40.5659 64.5986H43.646C43.9112 64.5986 44.1655 64.4932 44.353 64.3057C44.5406 64.1181 44.646 63.8638 44.646 63.5986V61.0586C44.646 60.7934 44.5406 60.5391 44.353 60.3516C44.1655 60.164 43.9112 60.0586 43.646 60.0586Z" fill="#FFED9F"/>
<path d="M49.5757 60.0586H46.4961C46.2309 60.0586 45.9761 60.164 45.7886 60.3516C45.601 60.5391 45.4961 60.7934 45.4961 61.0586V63.5986C45.4961 63.8638 45.601 64.1181 45.7886 64.3057C45.9761 64.4932 46.2309 64.5986 46.4961 64.5986H49.5757C49.8409 64.5986 50.0957 64.4932 50.2832 64.3057C50.4707 64.1181 50.5757 63.8638 50.5757 63.5986V61.0586C50.5757 60.7934 50.4707 60.5391 50.2832 60.3516C50.0957 60.164 49.8409 60.0586 49.5757 60.0586Z" fill="#FFED9F"/>
<path d="M55.7261 60.0586H52.646C52.3808 60.0586 52.1265 60.164 51.939 60.3516C51.7514 60.5391 51.646 60.7934 51.646 61.0586V63.5986C51.646 63.8638 51.7514 64.1181 51.939 64.3057C52.1265 64.4932 52.3808 64.5986 52.646 64.5986H55.7261C55.9913 64.5986 56.2456 64.4932 56.4331 64.3057C56.6206 64.1181 56.7261 63.8638 56.7261 63.5986V61.0586C56.7261 60.7934 56.6206 60.5391 56.4331 60.3516C56.2456 60.164 55.9913 60.0586 55.7261 60.0586Z" fill="#FFED9F"/>
<path d="M61.686 60.0586H58.5361C58.2709 60.0586 58.0161 60.164 57.8286 60.3516C57.6411 60.5391 57.5361 60.7934 57.5361 61.0586V63.5986C57.5361 63.8638 57.6411 64.1181 57.8286 64.3057C58.0161 64.4932 58.2709 64.5986 58.5361 64.5986H61.686C61.9513 64.5986 62.2055 64.4932 62.3931 64.3057C62.5806 64.1181 62.686 63.8638 62.686 63.5986V61.0586C62.686 60.7934 62.5806 60.5391 62.3931 60.3516C62.2055 60.164 61.9513 60.0586 61.686 60.0586Z" fill="#FFED9F"/>
<path d="M67.6758 60.0586H64.5957C64.3305 60.0586 64.0762 60.164 63.8887 60.3516C63.7011 60.5391 63.5957 60.7934 63.5957 61.0586V63.5986C63.5957 63.8638 63.7011 64.1181 63.8887 64.3057C64.0762 64.4932 64.3305 64.5986 64.5957 64.5986H67.6758C67.941 64.5986 68.1953 64.4932 68.3828 64.3057C68.5703 64.1181 68.6758 63.8638 68.6758 63.5986V61.0586C68.6758 60.7934 68.5703 60.5391 68.3828 60.3516C68.1953 60.164 67.941 60.0586 67.6758 60.0586Z" fill="#FFED9F"/>
<path d="M73.6758 60.0586H70.5957C70.3305 60.0586 70.0762 60.164 69.8887 60.3516C69.7011 60.5391 69.5957 60.7934 69.5957 61.0586V63.5986C69.5957 63.8638 69.7011 64.1181 69.8887 64.3057C70.0762 64.4932 70.3305 64.5986 70.5957 64.5986H73.6758C73.941 64.5986 74.1953 64.4932 74.3828 64.3057C74.5703 64.1181 74.6758 63.8638 74.6758 63.5986V61.0586C74.6758 60.7934 74.5703 60.5391 74.3828 60.3516C74.1953 60.164 73.941 60.0586 73.6758 60.0586Z" fill="#FFED9F"/>
<path d="M37.4258 54.4883H28.4258C28.1606 54.4883 27.9063 54.5937 27.7188 54.7812C27.5312 54.9688 27.4258 55.2231 27.4258 55.4883V57.8984C27.4258 58.1637 27.5312 58.4179 27.7188 58.6055C27.9063 58.793 28.1606 58.8984 28.4258 58.8984H37.4258C37.691 58.8984 37.9453 58.793 38.1328 58.6055C38.3203 58.4179 38.4258 58.1637 38.4258 57.8984V55.4883C38.4258 55.2231 38.3203 54.9688 38.1328 54.7812C37.9453 54.5937 37.691 54.4883 37.4258 54.4883Z" fill="url(#paint14_linear_1166_8964)"/>
<path d="M49.5757 54.4883H40.5757C40.3105 54.4883 40.0562 54.5937 39.8687 54.7812C39.6811 54.9688 39.5757 55.2231 39.5757 55.4883V57.8984C39.5757 58.1637 39.6811 58.4179 39.8687 58.6055C40.0562 58.793 40.3105 58.8984 40.5757 58.8984H49.5757C49.8409 58.8984 50.0957 58.793 50.2832 58.6055C50.4707 58.4179 50.5757 58.1637 50.5757 57.8984V55.4883C50.5757 55.2231 50.4707 54.9688 50.2832 54.7812C50.0957 54.5937 49.8409 54.4883 49.5757 54.4883Z" fill="url(#paint15_linear_1166_8964)"/>
<path d="M61.7061 54.4883H52.6357C52.3705 54.4883 52.1162 54.5937 51.9287 54.7812C51.7412 54.9688 51.6357 55.2231 51.6357 55.4883V57.8984C51.6357 58.1637 51.7412 58.4179 51.9287 58.6055C52.1162 58.793 52.3705 58.8984 52.6357 58.8984H61.7061C61.9713 58.8984 62.2255 58.793 62.4131 58.6055C62.6006 58.4179 62.7061 58.1637 62.7061 57.8984V55.4883C62.7061 55.2231 62.6006 54.9688 62.4131 54.7812C62.2255 54.5937 61.9713 54.4883 61.7061 54.4883Z" fill="url(#paint16_linear_1166_8964)"/>
<path d="M73.5361 54.4883H64.7559C64.4579 54.4883 64.1721 54.6059 63.9604 54.8157C63.7488 55.0254 63.6286 55.3104 63.626 55.6084V57.7683C63.6286 58.0672 63.7486 58.3531 63.96 58.5645C64.1713 58.7758 64.457 58.8958 64.7559 58.8984H73.5361C73.835 58.8958 74.1207 58.7758 74.332 58.5645C74.5434 58.3531 74.6634 58.0672 74.666 57.7683V55.6084C74.6634 55.3104 74.5432 55.0254 74.3315 54.8157C74.1199 54.6059 73.8341 54.4883 73.5361 54.4883V54.4883Z" fill="url(#paint17_linear_1166_8964)"/>
<path opacity="0.15" d="M64.2613 85.0317C64.7068 85.0317 65.066 84.6726 65.066 84.227V57.6785H37.022V84.2305C37.022 84.676 37.3812 85.0352 37.8267 85.0352H64.2613V85.0317Z" fill="#1F1D20"/>
<path opacity="0.15" d="M65.0625 58.3539V57.9188C65.0625 57.38 64.6274 56.9448 64.0886 56.9448H37.9959C37.4571 56.9448 37.022 57.38 37.022 57.9188V58.4023V58.8444V83.8146C37.022 84.3534 37.4571 84.7885 37.9959 84.7885H64.0955C64.6343 84.7885 65.0694 84.3534 65.0694 83.8146V58.4023C65.0694 58.385 65.0625 58.3712 65.0625 58.3539Z" fill="#1F1D20"/>
<g filter="url(#filter2_d_1166_8964)">
<path d="M65.0625 57.9164V57.4813C65.0625 56.9425 64.6274 56.5073 64.0886 56.5073H37.9959C37.4571 56.5073 37.022 56.9425 37.022 57.4813V57.9648V58.4069V83.3771C37.022 83.9159 37.4571 84.351 37.9959 84.351H64.0955C64.6343 84.351 65.0694 83.9159 65.0694 83.3771V57.9648C65.0694 57.9475 65.0625 57.9337 65.0625 57.9164Z" fill="white"/>
</g>
<path d="M41.2443 80.6601C42.2211 80.6601 43.0875 80.4051 43.8436 79.895C44.5997 79.3849 45.2599 78.5981 45.8242 77.5345C46.3886 76.4709 46.9674 74.7562 47.5607 72.3903L48.8305 67.3763H50.3607L50.7405 66.1065H49.1669C49.6155 64.276 50.2088 62.9375 50.9467 62.0909C51.3953 61.5628 51.8331 61.2987 52.2599 61.2987C52.3468 61.2987 52.4173 61.324 52.4716 61.3746C52.5258 61.4253 52.553 61.4904 52.553 61.57C52.553 61.6424 52.4933 61.7798 52.3739 61.9824C52.2545 62.185 52.1948 62.3767 52.1948 62.5576C52.1948 62.8108 52.2889 63.0279 52.477 63.2088C52.6651 63.3897 52.9039 63.4801 53.1933 63.4801C53.5044 63.4801 53.7649 63.3698 53.9747 63.1491C54.1845 62.9284 54.2894 62.63 54.2894 62.2537C54.2894 61.8269 54.1321 61.4796 53.8173 61.2119C53.5026 60.9442 52.9979 60.8103 52.3034 60.8103C51.2181 60.8103 50.2341 61.1287 49.3514 61.7654C48.4687 62.402 47.6294 63.4548 46.8335 64.9235C46.5586 65.43 46.2981 65.7556 46.0521 65.9003C45.8061 66.045 45.4118 66.1137 44.8692 66.1065L44.511 67.3763H46.0196L43.8056 76.0477C43.4366 77.473 43.187 78.3521 43.0567 78.6849C42.8686 79.1697 42.5828 79.5821 42.1994 79.9221C42.0474 80.0596 41.8629 80.1283 41.6459 80.1283C41.588 80.1283 41.5374 80.1102 41.4939 80.0741L41.4397 79.9981C41.4397 79.9619 41.4939 79.8878 41.6025 79.7756C41.711 79.6635 41.7653 79.4916 41.7653 79.2601C41.7653 79.0069 41.6784 78.797 41.5048 78.6306C41.3312 78.4642 41.0815 78.381 40.756 78.381C40.3652 78.381 40.0505 78.4895 39.8118 78.7066C39.573 78.9237 39.4536 79.1805 39.4536 79.4772C39.4536 79.7955 39.5983 80.0723 39.8877 80.3074C40.1771 80.5425 40.6293 80.6601 41.2443 80.6601ZM57.6646 76.167C58.1132 76.167 58.569 76.0043 59.0321 75.6787C59.6399 75.259 60.2621 74.5355 60.8988 73.5081L60.5081 73.2802C60.074 73.888 59.752 74.2678 59.5422 74.4197C59.4047 74.5138 59.2419 74.5608 59.0538 74.5608C58.8295 74.5608 58.6088 74.4197 58.3918 74.1376C58.0228 73.66 57.5308 72.336 56.9158 70.1654C57.4657 69.1959 57.9287 68.5628 58.305 68.2662C58.5799 68.0491 58.8693 67.9406 59.1732 67.9406C59.2889 67.9406 59.497 67.9822 59.7972 68.0654C60.0975 68.1486 60.3634 68.1902 60.5949 68.1902C60.9133 68.1902 61.1792 68.0799 61.3926 67.8592C61.606 67.6385 61.7127 67.3546 61.7127 67.0073C61.7127 66.6383 61.606 66.3452 61.3926 66.1282C61.1792 65.9111 60.8735 65.8026 60.4755 65.8026C60.121 65.8026 59.7864 65.8876 59.4716 66.0576C59.1569 66.2277 58.7572 66.5949 58.2724 67.1592C57.9106 67.5788 57.3752 68.3132 56.6662 69.3623C56.384 68.0672 55.8993 66.8806 55.2119 65.8026L51.4243 66.4538L51.3483 66.8662C51.6305 66.8083 51.8692 66.7794 52.0646 66.7794C52.4408 66.7794 52.7519 66.9421 52.9979 67.2677C53.3886 67.7742 53.9313 69.3153 54.6259 71.891C54.0832 72.6218 53.7106 73.0993 53.508 73.3236C53.1752 73.6854 52.9003 73.9205 52.6832 74.029C52.5168 74.1159 52.3287 74.1593 52.1189 74.1593C51.9597 74.1593 51.6992 74.0724 51.3375 73.8988C51.0915 73.783 50.8708 73.7252 50.6754 73.7252C50.3064 73.7252 50.0026 73.8445 49.7638 74.0833C49.525 74.3221 49.4056 74.6259 49.4056 74.9949C49.4056 75.3422 49.516 75.6244 49.7367 75.8415C49.9573 76.0585 50.2558 76.167 50.632 76.167C50.9938 76.167 51.3338 76.0911 51.6522 75.9391C51.9705 75.7872 52.3703 75.4634 52.8514 74.9678C53.3326 74.4722 53.9964 73.6854 54.8429 72.6073C55.1685 73.6347 55.4507 74.3818 55.6894 74.8484C55.9282 75.3151 56.2013 75.6515 56.5088 75.8577C56.8163 76.0639 57.2016 76.167 57.6646 76.167Z" fill="#333238"/>
<path opacity="0.15" d="M65.1448 88.0489C66.7694 88.0453 68.3266 87.3982 69.4754 86.2495C70.6241 85.1007 71.2709 83.5438 71.2745 81.9192C71.2745 80.2935 70.6289 78.7342 69.4793 77.5847C68.3298 76.4352 66.7705 75.7896 65.1448 75.7896C63.5202 75.7931 61.963 76.4399 60.8142 77.5887C59.6655 78.7374 59.0187 80.2946 59.0151 81.9192C59.0151 82.7242 59.1739 83.5213 59.482 84.2649C59.79 85.0086 60.2411 85.6842 60.8103 86.2534C61.3795 86.8226 62.0557 87.274 62.7994 87.5821C63.5431 87.8901 64.3398 88.0489 65.1448 88.0489V88.0489Z" fill="#1F1D20"/>
<path d="M65.1448 87.4664C66.7705 87.4664 68.3298 86.8204 69.4793 85.6709C70.6289 84.5214 71.2745 82.9624 71.2745 81.3367C71.2745 79.711 70.6289 78.152 69.4793 77.0025C68.3298 75.853 66.7705 75.207 65.1448 75.207C63.5202 75.2106 61.963 75.8577 60.8142 77.0065C59.6655 78.1552 59.0187 79.7121 59.0151 81.3367C59.0151 82.1417 59.1739 82.9387 59.482 83.6824C59.79 84.4261 60.2411 85.1017 60.8103 85.6709C61.3795 86.2401 62.0557 86.6918 62.7994 86.9999C63.5431 87.3079 64.3398 87.4664 65.1448 87.4664V87.4664Z" fill="#333238"/>
<path d="M65.7143 77.4441H64.6157V85.2282H65.7143V77.4441Z" fill="white"/>
<path d="M69.0642 80.8479H61.2798V81.9329H69.0642V80.8479Z" fill="white"/>
<defs>
<filter id="filter0_ddd_1166_8964" x="14.6975" y="17.7961" width="70.914" height="65.6855" filterUnits="userSpaceOnUse" color-interpolation-filters="sRGB">
<feFlood flood-opacity="0" result="BackgroundImageFix"/>
<feColorMatrix in="SourceAlpha" type="matrix" values="0 0 0 0 0 0 0 0 0 0 0 0 0 0 0 0 0 0 127 0" result="hardAlpha"/>
<feOffset dx="-0.4457" dy="0.4457"/>
<feGaussianBlur stdDeviation="0.8914"/>
<feComposite in2="hardAlpha" operator="out"/>
<feColorMatrix type="matrix" values="0 0 0 0 0.85098 0 0 0 0 0.85098 0 0 0 0 0.839216 0 0 0 1 0"/>
<feBlend mode="multiply" in2="BackgroundImageFix" result="effect1_dropShadow_1166_8964"/>
<feColorMatrix in="SourceAlpha" type="matrix" values="0 0 0 0 0 0 0 0 0 0 0 0 0 0 0 0 0 0 127 0" result="hardAlpha"/>
<feOffset dx="-2.6742" dy="0.8914"/>
<feGaussianBlur stdDeviation="1.3371"/>
<feComposite in2="hardAlpha" operator="out"/>
<feColorMatrix type="matrix" values="0 0 0 0 0.85098 0 0 0 0 0.85098 0 0 0 0 0.839216 0 0 0 1 0"/>
<feBlend mode="multiply" in2="effect1_dropShadow_1166_8964" result="effect2_dropShadow_1166_8964"/>
<feColorMatrix in="SourceAlpha" type="matrix" values="0 0 0 0 0 0 0 0 0 0 0 0 0 0 0 0 0 0 127 0" result="hardAlpha"/>
<feOffset dx="0.8914" dy="-0.4457"/>
<feGaussianBlur stdDeviation="1.3371"/>
<feComposite in2="hardAlpha" operator="out"/>
<feColorMatrix type="matrix" values="0 0 0 0 0.85098 0 0 0 0 0.85098 0 0 0 0 0.839216 0 0 0 1 0"/>
<feBlend mode="screen" in2="effect2_dropShadow_1166_8964" result="effect3_dropShadow_1166_8964"/>
<feBlend mode="normal" in="SourceGraphic" in2="effect3_dropShadow_1166_8964" result="shape"/>
</filter>
<filter id="filter1_dd_1166_8964" x="15.5892" y="22.6989" width="62.8912" height="57.2173" filterUnits="userSpaceOnUse" color-interpolation-filters="sRGB">
<feFlood flood-opacity="0" result="BackgroundImageFix"/>
<feColorMatrix in="SourceAlpha" type="matrix" values="0 0 0 0 0 0 0 0 0 0 0 0 0 0 0 0 0 0 127 0" result="hardAlpha"/>
<feOffset dx="-1.7828" dy="1.7828"/>
<feGaussianBlur stdDeviation="0.8914"/>
<feComposite in2="hardAlpha" operator="out"/>
<feColorMatrix type="matrix" values="0 0 0 0 0.85098 0 0 0 0 0.85098 0 0 0 0 0.839216 0 0 0 1 0"/>
<feBlend mode="multiply" in2="BackgroundImageFix" result="effect1_dropShadow_1166_8964"/>
<feColorMatrix in="SourceAlpha" type="matrix" values="0 0 0 0 0 0 0 0 0 0 0 0 0 0 0 0 0 0 127 0" result="hardAlpha"/>
<feOffset dx="-5.3484" dy="0.8914"/>
<feGaussianBlur stdDeviation="1.3371"/>
<feComposite in2="hardAlpha" operator="out"/>
<feColorMatrix type="matrix" values="0 0 0 0 0.85098 0 0 0 0 0.85098 0 0 0 0 0.839216 0 0 0 1 0"/>
<feBlend mode="multiply" in2="effect1_dropShadow_1166_8964" result="effect2_dropShadow_1166_8964"/>
<feBlend mode="normal" in="SourceGraphic" in2="effect2_dropShadow_1166_8964" result="shape"/>
</filter>
<filter id="filter2_d_1166_8964" x="33.022" y="56.5073" width="36.0474" height="35.8438" filterUnits="userSpaceOnUse" color-interpolation-filters="sRGB">
<feFlood flood-opacity="0" result="BackgroundImageFix"/>
<feColorMatrix in="SourceAlpha" type="matrix" values="0 0 0 0 0 0 0 0 0 0 0 0 0 0 0 0 0 0 127 0" result="hardAlpha"/>
<feOffset dy="4"/>
<feGaussianBlur stdDeviation="2"/>
<feComposite in2="hardAlpha" operator="out"/>
<feColorMatrix type="matrix" values="0 0 0 0 0 0 0 0 0 0 0 0 0 0 0 0 0 0 0.25 0"/>
<feBlend mode="normal" in2="BackgroundImageFix" result="effect1_dropShadow_1166_8964"/>
<feBlend mode="normal" in="SourceGraphic" in2="effect1_dropShadow_1166_8964" result="shape"/>
</filter>
<linearGradient id="paint0_linear_1166_8964" x1="54.5224" y1="100.647" x2="56.2724" y2="-42.853" gradientUnits="userSpaceOnUse">
<stop offset="0.203125" stop-color="white"/>
<stop offset="0.630208" stop-color="#F4F3F5"/>
<stop offset="1" stop-color="#E8E6DF"/>
</linearGradient>
<linearGradient id="paint1_linear_1166_8964" x1="48.9953" y1="13.3088" x2="50.2721" y2="95.0296" gradientUnits="userSpaceOnUse">
<stop offset="0.2" stop-color="white"/>
<stop offset="0.63" stop-color="#F4F3F5"/>
<stop offset="1" stop-color="#E8E6DF"/>
</linearGradient>
<linearGradient id="paint2_linear_1166_8964" x1="13.1861" y1="13.2626" x2="85.0061" y2="86.1925" gradientUnits="userSpaceOnUse">
<stop offset="0.01" stop-color="#F8DF70"/>
<stop offset="0.19" stop-color="#F2CC40"/>
<stop offset="0.58" stop-color="#E7B116"/>
<stop offset="0.78" stop-color="#E0A310"/>
<stop offset="0.94" stop-color="#CA810E"/>
</linearGradient>
<linearGradient id="paint3_linear_1166_8964" x1="52.8358" y1="-3.88965" x2="51.3925" y2="106.052" gradientUnits="userSpaceOnUse">
<stop offset="0.00520833" stop-color="#F8DF70"/>
<stop offset="0.192708" stop-color="#F2CC40"/>
<stop offset="0.583333" stop-color="#E7B116"/>
<stop offset="0.78125" stop-color="#E0A310"/>
<stop offset="0.942708" stop-color="#CA810E"/>
</linearGradient>
<linearGradient id="paint4_linear_1166_8964" x1="32.9261" y1="27.8187" x2="69.2358" y2="40.989" gradientUnits="userSpaceOnUse">
<stop offset="0.01" stop-color="#E0A310"/>
<stop offset="1" stop-color="#CA810E"/>
</linearGradient>
<linearGradient id="paint5_linear_1166_8964" x1="31.1361" y1="32.8582" x2="67.4363" y2="46.0279" gradientUnits="userSpaceOnUse">
<stop offset="0.01" stop-color="#E0A310"/>
<stop offset="1" stop-color="#CA810E"/>
</linearGradient>
<linearGradient id="paint6_linear_1166_8964" x1="25.3858" y1="48.3682" x2="69.6962" y2="64.8678" gradientUnits="userSpaceOnUse">
<stop offset="0.01" stop-color="#F2CC40"/>
<stop offset="1" stop-color="#E7B116"/>
</linearGradient>
<linearGradient id="paint7_linear_1166_8964" x1="26.8757" y1="44.3881" x2="71.1861" y2="60.8877" gradientUnits="userSpaceOnUse">
<stop offset="0.01" stop-color="#F2CC40"/>
<stop offset="1" stop-color="#E7B116"/>
</linearGradient>
<linearGradient id="paint8_linear_1166_8964" x1="28.3451" y1="40.428" x2="72.6565" y2="56.9283" gradientUnits="userSpaceOnUse">
<stop offset="0.01" stop-color="#F2CC40"/>
<stop offset="1" stop-color="#E7B116"/>
</linearGradient>
<linearGradient id="paint9_linear_1166_8964" x1="29.8058" y1="36.5178" x2="74.1162" y2="53.0174" gradientUnits="userSpaceOnUse">
<stop offset="0.01" stop-color="#F2CC40"/>
<stop offset="1" stop-color="#E7B116"/>
</linearGradient>
<linearGradient id="paint10_linear_1166_8964" x1="27.1758" y1="43.5583" x2="71.4962" y2="60.0578" gradientUnits="userSpaceOnUse">
<stop offset="0.01" stop-color="#F2CC40"/>
<stop offset="1" stop-color="#E7B116"/>
</linearGradient>
<linearGradient id="paint11_linear_1166_8964" x1="28.6657" y1="39.5681" x2="72.9761" y2="56.0677" gradientUnits="userSpaceOnUse">
<stop offset="0.01" stop-color="#F2CC40"/>
<stop offset="1" stop-color="#E7B116"/>
</linearGradient>
<linearGradient id="paint12_linear_1166_8964" x1="30.1352" y1="35.618" x2="74.4465" y2="52.1184" gradientUnits="userSpaceOnUse">
<stop offset="0.01" stop-color="#F2CC40"/>
<stop offset="1" stop-color="#E7B116"/>
</linearGradient>
<linearGradient id="paint13_linear_1166_8964" x1="31.5958" y1="31.7079" x2="75.9062" y2="48.2074" gradientUnits="userSpaceOnUse">
<stop offset="0.01" stop-color="#F2CC40"/>
<stop offset="1" stop-color="#E7B116"/>
</linearGradient>
<linearGradient id="paint14_linear_1166_8964" x1="23.5858" y1="53.2082" x2="67.8962" y2="69.7078" gradientUnits="userSpaceOnUse">
<stop offset="0.01" stop-color="#F2CC40"/>
<stop offset="1" stop-color="#E7B116"/>
</linearGradient>
<linearGradient id="paint15_linear_1166_8964" x1="25.0657" y1="49.2381" x2="69.3761" y2="65.7377" gradientUnits="userSpaceOnUse">
<stop offset="0.01" stop-color="#F2CC40"/>
<stop offset="1" stop-color="#E7B116"/>
</linearGradient>
<linearGradient id="paint16_linear_1166_8964" x1="26.535" y1="45.278" x2="70.8564" y2="61.7783" gradientUnits="userSpaceOnUse">
<stop offset="0.01" stop-color="#F2CC40"/>
<stop offset="1" stop-color="#E7B116"/>
</linearGradient>
<linearGradient id="paint17_linear_1166_8964" x1="27.9959" y1="41.3678" x2="72.3064" y2="57.8675" gradientUnits="userSpaceOnUse">
<stop offset="0.01" stop-color="#F2CC40"/>
<stop offset="1" stop-color="#E7B116"/>
</linearGradient>
<clipPath id="clip0_1166_8964">
<rect x="82.0459" y="20.916" width="59" height="62" rx="8.914" transform="rotate(90 82.0459 20.916)" fill="white"/>
</clipPath>
</defs>
</svg>
