<svg width="103" height="103" viewBox="0 0 103 103" fill="none" xmlns="http://www.w3.org/2000/svg">
<path fill-rule="evenodd" clip-rule="evenodd" d="M97.6401 51.0826C97.6401 76.4326 77.0901 96.9826 51.7401 96.9826C26.3901 96.9826 5.8401 76.4326 5.8401 51.0826C5.8401 25.7326 26.3901 5.18263 51.7401 5.18263C77.0901 5.18263 97.6401 25.7326 97.6401 51.0826ZM51.7401 1.44263C79.1601 1.44263 101.38 23.6626 101.38 51.0826C101.38 78.5026 79.1501 100.723 51.7401 100.723C24.3201 100.723 2.1001 78.4926 2.1001 51.0826C2.1001 23.6626 24.3201 1.44263 51.7401 1.44263Z" fill="url(#paint0_linear_1202_62)"/>
<path d="M51.4902 94.3947C27.5719 94.3947 8.17822 75.0102 8.17822 51.0827C8.17822 27.1552 27.5719 7.77075 51.4902 7.77075C75.4084 7.77075 94.8021 27.1644 94.8021 51.0827C94.8021 75.001 75.4084 94.3947 51.4902 94.3947Z" fill="url(#paint1_linear_1202_62)"/>
<path d="M83.6203 19.1964C76.2431 11.8207 66.5368 7.23118 56.155 6.20985C45.7732 5.18853 35.3584 7.79855 26.6853 13.5952C18.0122 19.3919 11.6173 28.0166 8.59032 37.9997C5.56334 47.9828 6.09157 58.7066 10.0849 68.3439C14.0783 77.9812 21.2897 85.9356 30.4905 90.8519C39.6912 95.7683 50.312 97.3422 60.5432 95.3056C70.7744 93.269 79.9829 87.7478 86.5996 79.6829C93.2163 71.6179 96.8319 61.5083 96.8303 51.0764C96.8442 45.1532 95.6839 39.286 93.4165 33.814C91.1491 28.342 87.8196 23.3738 83.6203 19.1964V19.1964ZM51.2605 11.6264H51.3303L59.3904 6.91634C61.02 7.19064 62.6327 7.55794 64.2204 8.01637L51.3303 15.5463L38.6804 8.21632C40.2405 7.74258 41.8264 7.35865 43.4304 7.06636L51.2605 11.6264ZM43.8703 6.99635C45.7411 6.65863 47.6319 6.44149 49.5305 6.34633L51.2905 7.34633H51.3603L53.2204 6.25636C55.1504 6.32107 57.0742 6.50811 58.9805 6.81636L51.3303 11.2863L43.8703 6.99635ZM51.2605 15.8663H51.3303L64.5903 8.11635C66.0103 8.54635 67.4105 9.03633 68.7805 9.59633L51.3303 19.7963L34.2305 9.79634C35.5799 9.21864 36.9583 8.71127 38.3603 8.27632L51.2605 15.8663ZM51.2605 20.1063H51.3303L69.0903 9.72633C70.3503 10.2563 71.5905 10.8464 72.8005 11.4964L51.3303 24.0363L30.2605 11.7263C31.4505 11.0763 32.6804 10.4764 33.9204 9.93636L51.2605 20.1063ZM51.2605 24.3463H51.3303L73.0803 11.6463C74.2103 12.2563 75.3104 12.9263 76.3904 13.6463L51.3303 28.2863L26.6804 13.9364C27.7504 13.2164 28.8504 12.5464 29.9704 11.9364L51.2605 24.3463ZM51.2605 28.5863H51.3303L76.6804 13.8463C77.6804 14.5363 78.6804 15.2764 79.6804 16.0564L51.3703 32.5963L23.5305 16.3264C24.4905 15.5464 25.4905 14.8063 26.5305 14.1063L51.2605 28.5863ZM51.2605 32.8663H51.3303L79.8703 16.1964C80.7903 16.9364 81.6805 17.7263 82.5505 18.5463L51.3603 36.7664L20.6804 18.8663C21.5204 18.0463 22.3905 17.2564 23.2905 16.5064L51.2605 32.8663ZM52.7104 6.31636L51.3603 7.10634L50.0505 6.33632C50.6105 6.33632 51.1705 6.33632 51.7405 6.33632L52.7104 6.31636ZM20.0703 19.4163C20.1903 19.2863 20.3204 19.1764 20.4404 19.0564L51.2905 37.0564H51.3603L82.7505 18.7263C82.9705 18.9363 83.1904 19.1363 83.4104 19.3563C84.0104 19.9563 84.6004 20.5863 85.1604 21.2163L52.4604 40.3264L52.7204 40.4863L85.3403 21.4863C86.1103 22.3463 86.8305 23.2363 87.5205 24.1463L56.0903 42.4863L56.3603 42.6463L87.6804 24.3563C88.3604 25.2763 89.0003 26.2163 89.6003 27.1663L59.7204 44.6264L59.9805 44.7863L89.7505 27.3963C90.3505 28.3963 90.9104 29.3364 91.4404 30.3264L63.3403 46.7464L63.6103 46.9063L91.5603 30.5764C92.0803 31.5764 92.5605 32.5763 93.0105 33.6663L67.0105 48.8663L67.2805 49.0263L93.1504 33.9163C93.5904 34.9763 93.9803 36.0563 94.3303 37.1463L70.6404 50.9863L70.9104 51.1463L94.4204 37.4063C94.7804 38.5263 95.0903 39.6563 95.3603 40.7963L74.2805 53.1163L74.5405 53.2664L95.4204 41.0764C95.6804 42.2464 95.9103 43.4263 96.0803 44.6163L77.9104 55.2363L78.1804 55.3864L96.1203 44.9063C96.2937 46.1397 96.4138 47.3797 96.4805 48.6264L81.5405 57.3563L81.8103 57.5064L96.4905 48.9364C96.4905 49.6464 96.5505 50.3664 96.5505 51.0764C96.5505 51.7864 96.5505 52.2663 96.5505 52.8463L85.1504 59.4863L85.4204 59.6364L96.4704 53.1763C96.4113 54.5787 96.281 55.9772 96.0803 57.3663L88.8103 61.6163L89.0803 61.7763L96.0803 57.7063C95.8631 59.1938 95.5695 60.6691 95.2004 62.1264L92.4604 63.7263L92.7305 63.8864L95.1003 62.4964C94.8003 63.6364 94.467 64.7563 94.1003 65.8563L51.6804 41.0863H51.6103L9.4304 65.7263C9.1304 64.8563 8.86035 63.9863 8.62035 63.1063L10.0105 63.9163L10.2805 63.7564L8.52049 62.7564C8.11138 61.2911 7.77761 59.8058 7.52049 58.3064L13.5703 61.8363L13.8403 61.6763L7.46043 57.9563C7.25043 56.5663 7.10049 55.1563 7.02049 53.7363L17.2305 59.7363L17.5005 59.5863L7.00047 53.4464C7.00047 52.6964 6.94041 51.9464 6.94041 51.1864C6.94041 50.6264 6.94041 50.0764 6.94041 49.5164L20.8203 57.6163L21.0903 57.4663L6.95042 49.2063C7.01042 47.9563 7.1205 46.7063 7.2805 45.4663L24.4504 55.4663L24.7204 55.3064L7.31029 45.1364C7.47029 43.9364 7.68041 42.7464 7.94041 41.5764L28.0803 53.3363L28.3503 53.1864L8.00047 41.2963C8.26047 40.1463 8.55037 39.0064 8.90037 37.8864L31.7204 51.2163L31.9905 51.0564L8.99046 37.6264C9.34046 36.5264 9.72037 35.4464 10.1504 34.3764L35.3603 49.0963L35.6304 48.9364L10.2505 34.1264C10.6905 33.0664 11.1704 32.0364 11.6804 31.0164L39.0005 47.0164L39.2705 46.8563L11.8103 30.8563C12.3203 29.8563 12.8704 28.8563 13.4604 27.8563L42.6203 44.8563L42.8904 44.6964L13.6804 27.4863C14.2804 26.4863 14.9103 25.5763 15.5803 24.6563L46.3403 42.6563L46.6103 42.4964L15.6804 24.4863C16.3604 23.5663 17.0903 22.6864 17.8403 21.8164L49.9104 40.5564L50.1804 40.3963L18.0205 21.6063C18.6805 20.8563 19.3603 20.1163 20.0703 19.4163V19.4163ZM51.6804 58.0564H51.6103L16.4304 78.5963C15.7304 77.6963 15.0504 76.7763 14.4304 75.8363L51.6203 54.0963L89.0603 75.9663C88.4303 76.9163 87.7403 77.8363 87.0603 78.7363L51.6804 58.0564ZM86.8503 78.9263C86.1403 79.8263 85.3803 80.6963 84.5903 81.5463L51.6504 62.3064H51.5803L18.8203 81.4364C18.0403 80.5964 17.3103 79.7164 16.6003 78.8264L51.6003 58.3764L86.8503 78.9263ZM51.6804 53.7863H51.6103L14.2805 75.6063C13.6605 74.6063 13.0805 73.6863 12.5305 72.7063L51.6103 49.8764L90.9404 72.8764C90.4004 73.8564 89.8204 74.8164 89.2004 75.7564L51.6804 53.7863ZM51.6804 49.5764H51.6103L12.3603 72.4863C11.8103 71.4863 11.3603 70.4864 10.8503 69.4364L51.5703 45.6463L92.5703 69.5963C92.1003 70.5963 91.5705 71.6463 91.0505 72.5963L51.6804 49.5764ZM51.6804 45.3264H51.6103L10.7805 69.1763C10.3205 68.1763 9.89048 67.0663 9.51048 65.9863L51.6103 41.4063L93.9905 66.1563C93.6105 67.2363 93.1704 68.2863 92.7104 69.3363L51.6804 45.3264ZM51.5903 87.7163L40.2204 94.3563C38.7604 93.9663 37.3204 93.5063 35.9104 92.9763L51.6304 83.7963L67.4504 93.0463C66.0101 93.5893 64.5413 94.0533 63.0505 94.4364L51.5903 87.7163ZM62.6804 94.5363C61.0322 94.9409 59.363 95.2547 57.6804 95.4763L51.6804 91.9663H51.6103L45.6103 95.4763C43.9252 95.2432 42.2555 94.9093 40.6103 94.4763L51.6103 88.0463L62.6804 94.5363ZM51.6804 83.5363H51.6103L35.6103 92.8963C34.3003 92.3863 33.0105 91.8264 31.7605 91.1964L51.5603 79.4863L71.5603 91.1964C70.2903 91.8264 69.0004 92.3863 67.6904 92.8963L51.6804 83.5363ZM51.6804 79.2564H51.6203L31.4704 91.0463C30.3104 90.4563 29.1803 89.8063 28.0703 89.1163L51.6304 75.3563L75.3703 89.2163C74.2603 89.9063 73.1204 90.5464 71.9604 91.1364L51.6804 79.2564ZM51.6804 75.0363H51.6103L27.7905 88.9563C26.7405 88.2863 25.7204 87.5764 24.7204 86.8164L51.6103 71.1163L78.6804 86.8864C77.6804 87.6464 76.6803 88.3464 75.6003 89.0064L51.6804 75.0363ZM51.6804 70.7963H51.6103L24.4905 86.6364C23.5405 85.9064 22.6104 85.1364 21.7204 84.3264L51.6103 66.8663L81.6804 84.4063C80.7804 85.2163 79.8504 85.9763 78.9004 86.7063L51.6804 70.7963ZM46.0603 95.5064L51.6103 92.2464L57.2305 95.5363C55.4224 95.7607 53.6024 95.8743 51.7805 95.8764C49.8541 95.8693 47.9302 95.7391 46.0205 95.4863L46.0603 95.5064ZM83.4504 82.7564C82.9404 83.2664 82.4504 83.7563 81.9104 84.2263L51.6804 66.5463H51.6103L21.5105 84.1264C21.0405 83.6864 20.5703 83.2463 20.1103 82.7863C19.6503 82.3263 19.3805 82.0264 19.0105 81.6364L51.5803 62.6364L84.4004 81.7963C84.0504 82.0863 83.7404 82.4264 83.4104 82.7464L83.4504 82.7564Z" fill="url(#paint2_linear_1202_62)"/>
<path fill-rule="evenodd" clip-rule="evenodd" d="M94.8302 51.0832C94.8302 74.8832 75.5402 94.1732 51.7402 94.1732C27.9402 94.1732 8.65016 74.8832 8.65016 51.0832C8.65016 27.2832 27.9402 7.99318 51.7402 7.99318C75.5402 7.99318 94.8302 27.2832 94.8302 51.0832ZM51.7402 4.25317C77.6002 4.25317 98.5702 25.2232 98.5702 51.0832C98.5702 76.9432 77.6002 97.9132 51.7402 97.9132C25.8802 97.9132 4.91016 76.9432 4.91016 51.0832C4.91016 25.2232 25.8702 4.25317 51.7402 4.25317Z" fill="url(#paint3_linear_1202_62)"/>
<path opacity="0.15" d="M24.7255 74.3361H78.7553C80.2687 74.3361 81.4984 73.1065 81.4984 71.593V28.5073H21.9824V71.593C21.9824 73.1065 23.2121 74.3361 24.7255 74.3361Z" fill="#1F1D20"/>
<g filter="url(#filter0_dd_1202_62)">
<path d="M23.1175 73.0861H80.3633C80.9876 73.0861 81.4984 72.5754 81.4984 71.9511V32.6057C81.4984 29.6519 79.1038 27.2573 76.15 27.2573H27.3308C24.377 27.2573 21.9824 29.6519 21.9824 32.6057V71.9511C21.9824 72.5754 22.4932 73.0861 23.1175 73.0861Z" fill="#E8E6DF"/>
</g>
<path d="M21.9824 32.2044H81.4984V26.8695C81.4984 26.3871 81.1106 25.9993 80.6282 25.9993H22.8526C22.3702 25.9993 21.9824 26.3871 21.9824 26.8695V32.2044Z" fill="url(#paint4_linear_1202_62)"/>
<path d="M26.5608 30.7381C27.3932 30.7381 28.0742 30.0665 28.0742 29.2247C28.0742 28.3828 27.3837 27.7207 26.5608 27.7207C25.7284 27.7207 25.0474 28.3923 25.0474 29.2341C25.0474 30.076 25.7095 30.7381 26.5608 30.7381Z" fill="white"/>
<g opacity="0.15">
<path d="M74.0904 35.9099H29.3804C29.2128 35.9099 29.0469 35.9431 28.8921 36.0076C28.7374 36.072 28.5966 36.1664 28.4786 36.2854C28.3605 36.4044 28.2674 36.5457 28.2041 36.7009C28.1409 36.8562 28.1091 37.0223 28.1104 37.1899V39.27C28.1104 39.6068 28.2443 39.9298 28.4825 40.168C28.7206 40.4061 29.0436 40.5398 29.3804 40.5398H74.0904C74.4272 40.5398 74.7501 40.4061 74.9883 40.168C75.2265 39.9298 75.3604 39.6068 75.3604 39.27V37.1899C75.3617 37.0223 75.3299 36.8562 75.2666 36.7009C75.2034 36.5457 75.1098 36.4044 74.9917 36.2854C74.8737 36.1664 74.7334 36.072 74.5787 36.0076C74.4239 35.9431 74.258 35.9099 74.0904 35.9099Z" fill="#1F1D20"/>
<path d="M74.0904 41.6096H29.3804C29.2128 41.6096 29.0469 41.6428 28.8921 41.7073C28.7374 41.7717 28.5966 41.8661 28.4786 41.9851C28.3605 42.1041 28.2674 42.2454 28.2041 42.4006C28.1409 42.5559 28.1091 42.722 28.1104 42.8896V44.9697C28.1104 45.3066 28.2443 45.6295 28.4825 45.8677C28.7206 46.1058 29.0436 46.2397 29.3804 46.2397H74.0904C74.4272 46.2397 74.7501 46.1058 74.9883 45.8677C75.2265 45.6295 75.3604 45.3066 75.3604 44.9697V42.9097C75.3644 42.7404 75.3345 42.5721 75.2725 42.4146C75.2105 42.257 75.1174 42.1133 74.9991 41.9922C74.8807 41.8711 74.7396 41.7749 74.5835 41.7092C74.4275 41.6435 74.2597 41.6096 74.0904 41.6096V41.6096Z" fill="#1F1D20"/>
<path d="M38.1201 52.8196H29.1201C28.8549 52.8196 28.6006 52.925 28.4131 53.1125C28.2255 53.3001 28.1201 53.5544 28.1201 53.8196V56.2297C28.1201 56.495 28.2255 56.7492 28.4131 56.9368C28.6006 57.1243 28.8549 57.2297 29.1201 57.2297H38.1201C38.3853 57.2297 38.6396 57.1243 38.8271 56.9368C39.0147 56.7492 39.1201 56.495 39.1201 56.2297V53.8196C39.1201 53.5544 39.0147 53.3001 38.8271 53.1125C38.6396 52.925 38.3853 52.8196 38.1201 52.8196Z" fill="#1F1D20"/>
<path d="M50.3101 52.8196H41.3101C41.0448 52.8196 40.7906 52.925 40.603 53.1125C40.4155 53.3001 40.3101 53.5544 40.3101 53.8196V56.2297C40.3101 56.495 40.4155 56.7492 40.603 56.9368C40.7906 57.1243 41.0448 57.2297 41.3101 57.2297H50.3101C50.5753 57.2297 50.83 57.1243 51.0176 56.9368C51.2051 56.7492 51.3101 56.495 51.3101 56.2297V53.8196C51.3101 53.5544 51.2051 53.3001 51.0176 53.1125C50.83 52.925 50.5753 52.8196 50.3101 52.8196Z" fill="#1F1D20"/>
<path d="M62.4404 52.8196H53.3701C53.1049 52.8196 52.8506 52.925 52.6631 53.1125C52.4755 53.3001 52.3701 53.5544 52.3701 53.8196V56.2297C52.3701 56.495 52.4755 56.7492 52.6631 56.9368C52.8506 57.1243 53.1049 57.2297 53.3701 57.2297H62.4404C62.7056 57.2297 62.9599 57.1243 63.1475 56.9368C63.335 56.7492 63.4404 56.495 63.4404 56.2297V53.8196C63.4404 53.5544 63.335 53.3001 63.1475 53.1125C62.9599 52.925 62.7056 52.8196 62.4404 52.8196Z" fill="#1F1D20"/>
<path d="M74.3701 52.8196H65.3701C65.1049 52.8196 64.8506 52.925 64.6631 53.1125C64.4755 53.3001 64.3701 53.5544 64.3701 53.8196V56.2297C64.3701 56.495 64.4755 56.7492 64.6631 56.9368C64.8506 57.1243 65.1049 57.2297 65.3701 57.2297H74.3701C74.6353 57.2297 74.8896 57.1243 75.0771 56.9368C75.2647 56.7492 75.3701 56.495 75.3701 56.2297V53.8196C75.3701 53.5544 75.2647 53.3001 75.0771 53.1125C74.8896 52.925 74.6353 52.8196 74.3701 52.8196Z" fill="#1F1D20"/>
<path d="M38.1201 47.3396H29.1201C28.8549 47.3396 28.6006 47.445 28.4131 47.6326C28.2255 47.8201 28.1201 48.0744 28.1201 48.3396V50.7498C28.1201 51.015 28.2255 51.2693 28.4131 51.4568C28.6006 51.6443 28.8549 51.7498 29.1201 51.7498H38.1201C38.3853 51.7498 38.6396 51.6443 38.8271 51.4568C39.0147 51.2693 39.1201 51.015 39.1201 50.7498V48.3396C39.1201 48.0744 39.0147 47.8201 38.8271 47.6326C38.6396 47.445 38.3853 47.3396 38.1201 47.3396Z" fill="#1F1D20"/>
<path d="M50.3101 47.3396H41.3101C41.0448 47.3396 40.7906 47.445 40.603 47.6326C40.4155 47.8201 40.3101 48.0744 40.3101 48.3396V50.7498C40.3101 51.015 40.4155 51.2693 40.603 51.4568C40.7906 51.6443 41.0448 51.7498 41.3101 51.7498H50.3101C50.5753 51.7498 50.83 51.6443 51.0176 51.4568C51.2051 51.2693 51.3101 51.015 51.3101 50.7498V48.3396C51.3101 48.0744 51.2051 47.8201 51.0176 47.6326C50.83 47.445 50.5753 47.3396 50.3101 47.3396Z" fill="#1F1D20"/>
<path d="M62.4404 47.3396H53.3701C53.1049 47.3396 52.8506 47.445 52.6631 47.6326C52.4755 47.8201 52.3701 48.0744 52.3701 48.3396V50.7498C52.3701 51.015 52.4755 51.2693 52.6631 51.4568C52.8506 51.6443 53.1049 51.7498 53.3701 51.7498H62.4404C62.7056 51.7498 62.9599 51.6443 63.1475 51.4568C63.335 51.2693 63.4404 51.015 63.4404 50.7498V48.3396C63.4404 48.0744 63.335 47.8201 63.1475 47.6326C62.9599 47.445 62.7056 47.3396 62.4404 47.3396Z" fill="#1F1D20"/>
<path d="M74.3701 47.3396H65.3701C65.1049 47.3396 64.8506 47.445 64.6631 47.6326C64.4755 47.8201 64.3701 48.0744 64.3701 48.3396V50.7498C64.3701 51.015 64.4755 51.2693 64.6631 51.4568C64.8506 51.6443 65.1049 51.7498 65.3701 51.7498H74.3701C74.6353 51.7498 74.8896 51.6443 75.0771 51.4568C75.2647 51.2693 75.3701 51.015 75.3701 50.7498V48.3396C75.3701 48.0744 75.2647 47.8201 75.0771 47.6326C74.8896 47.445 74.6353 47.3396 74.3701 47.3396Z" fill="#1F1D20"/>
<path d="M32.1904 63.9099H29.1104C28.8451 63.9099 28.5909 64.0153 28.4033 64.2029C28.2158 64.3904 28.1104 64.6447 28.1104 64.9099V67.45C28.1104 67.7152 28.2158 67.9694 28.4033 68.157C28.5909 68.3445 28.8451 68.45 29.1104 68.45H32.1904C32.4556 68.45 32.7099 68.3445 32.8975 68.157C33.085 67.9694 33.1904 67.7152 33.1904 67.45V64.9099C33.1904 64.6447 33.085 64.3904 32.8975 64.2029C32.7099 64.0153 32.4556 63.9099 32.1904 63.9099Z" fill="#1F1D20"/>
<path d="M38.1104 63.9099H35.0303C34.7651 63.9099 34.5108 64.0153 34.3232 64.2029C34.1357 64.3904 34.0303 64.6447 34.0303 64.9099V67.45C34.0303 67.7152 34.1357 67.9694 34.3232 68.157C34.5108 68.3445 34.7651 68.45 35.0303 68.45H38.1104C38.3756 68.45 38.6298 68.3445 38.8174 68.157C39.0049 67.9694 39.1104 67.7152 39.1104 67.45V64.9099C39.1104 64.6447 39.0049 64.3904 38.8174 64.2029C38.6298 64.0153 38.3756 63.9099 38.1104 63.9099Z" fill="#1F1D20"/>
<path d="M44.3403 63.9099H41.2603C40.995 63.9099 40.7408 64.0153 40.5532 64.2029C40.3657 64.3904 40.2603 64.6447 40.2603 64.9099V67.45C40.2603 67.7152 40.3657 67.9694 40.5532 68.157C40.7408 68.3445 40.995 68.45 41.2603 68.45H44.3403C44.6055 68.45 44.8598 68.3445 45.0474 68.157C45.2349 67.9694 45.3403 67.7152 45.3403 67.45V64.9099C45.3403 64.6447 45.2349 64.3904 45.0474 64.2029C44.8598 64.0153 44.6055 63.9099 44.3403 63.9099Z" fill="#1F1D20"/>
<path d="M50.27 63.9099H47.1904C46.9252 63.9099 46.6704 64.0153 46.4829 64.2029C46.2954 64.3904 46.1904 64.6447 46.1904 64.9099V67.45C46.1904 67.7152 46.2954 67.9694 46.4829 68.157C46.6704 68.3445 46.9252 68.45 47.1904 68.45H50.27C50.5352 68.45 50.79 68.3445 50.9775 68.157C51.1651 67.9694 51.27 67.7152 51.27 67.45V64.9099C51.27 64.6447 51.1651 64.3904 50.9775 64.2029C50.79 64.0153 50.5352 63.9099 50.27 63.9099Z" fill="#1F1D20"/>
<path d="M56.4204 63.9099H53.3403C53.0751 63.9099 52.8208 64.0153 52.6333 64.2029C52.4458 64.3904 52.3403 64.6447 52.3403 64.9099V67.45C52.3403 67.7152 52.4458 67.9694 52.6333 68.157C52.8208 68.3445 53.0751 68.45 53.3403 68.45H56.4204C56.6856 68.45 56.9399 68.3445 57.1274 68.157C57.315 67.9694 57.4204 67.7152 57.4204 67.45V64.9099C57.4204 64.6447 57.315 64.3904 57.1274 64.2029C56.9399 64.0153 56.6856 63.9099 56.4204 63.9099Z" fill="#1F1D20"/>
<path d="M62.3804 63.9099H59.2305C58.9653 63.9099 58.7105 64.0153 58.5229 64.2029C58.3354 64.3904 58.2305 64.6447 58.2305 64.9099V67.45C58.2305 67.7152 58.3354 67.9694 58.5229 68.157C58.7105 68.3445 58.9653 68.45 59.2305 68.45H62.3804C62.6456 68.45 62.8999 68.3445 63.0874 68.157C63.2749 67.9694 63.3804 67.7152 63.3804 67.45V64.9099C63.3804 64.6447 63.2749 64.3904 63.0874 64.2029C62.8999 64.0153 62.6456 63.9099 62.3804 63.9099Z" fill="#1F1D20"/>
<path d="M68.3701 63.9099H65.29C65.0248 63.9099 64.7705 64.0153 64.583 64.2029C64.3955 64.3904 64.29 64.6447 64.29 64.9099V67.45C64.29 67.7152 64.3955 67.9694 64.583 68.157C64.7705 68.3445 65.0248 68.45 65.29 68.45H68.3701C68.6353 68.45 68.8896 68.3445 69.0771 68.157C69.2647 67.9694 69.3701 67.7152 69.3701 67.45V64.9099C69.3701 64.6447 69.2647 64.3904 69.0771 64.2029C68.8896 64.0153 68.6353 63.9099 68.3701 63.9099Z" fill="#1F1D20"/>
<path d="M74.3701 63.9099H71.29C71.0248 63.9099 70.7705 64.0153 70.583 64.2029C70.3955 64.3904 70.29 64.6447 70.29 64.9099V67.45C70.29 67.7152 70.3955 67.9694 70.583 68.157C70.7705 68.3445 71.0248 68.45 71.29 68.45H74.3701C74.6353 68.45 74.8896 68.3445 75.0771 68.157C75.2647 67.9694 75.3701 67.7152 75.3701 67.45V64.9099C75.3701 64.6447 75.2647 64.3904 75.0771 64.2029C74.8896 64.0153 74.6353 63.9099 74.3701 63.9099Z" fill="#1F1D20"/>
<path d="M38.1201 58.3396H29.1201C28.8549 58.3396 28.6006 58.445 28.4131 58.6326C28.2255 58.8201 28.1201 59.0744 28.1201 59.3396V61.7498C28.1201 62.015 28.2255 62.2693 28.4131 62.4568C28.6006 62.6443 28.8549 62.7498 29.1201 62.7498H38.1201C38.3853 62.7498 38.6396 62.6443 38.8271 62.4568C39.0147 62.2693 39.1201 62.015 39.1201 61.7498V59.3396C39.1201 59.0744 39.0147 58.8201 38.8271 58.6326C38.6396 58.445 38.3853 58.3396 38.1201 58.3396Z" fill="#1F1D20"/>
<path d="M50.27 58.3396H41.27C41.0048 58.3396 40.7505 58.445 40.563 58.6326C40.3755 58.8201 40.27 59.0744 40.27 59.3396V61.7498C40.27 62.015 40.3755 62.2693 40.563 62.4568C40.7505 62.6443 41.0048 62.7498 41.27 62.7498H50.27C50.5352 62.7498 50.79 62.6443 50.9775 62.4568C51.1651 62.2693 51.27 62.015 51.27 61.7498V59.3396C51.27 59.0744 51.1651 58.8201 50.9775 58.6326C50.79 58.445 50.5352 58.3396 50.27 58.3396Z" fill="#1F1D20"/>
<path d="M62.4004 58.3396H53.3301C53.0649 58.3396 52.8106 58.445 52.623 58.6326C52.4355 58.8201 52.3301 59.0744 52.3301 59.3396V61.7498C52.3301 62.015 52.4355 62.2693 52.623 62.4568C52.8106 62.6443 53.0649 62.7498 53.3301 62.7498H62.4004C62.6656 62.7498 62.9199 62.6443 63.1074 62.4568C63.295 62.2693 63.4004 62.015 63.4004 61.7498V59.3396C63.4004 59.0744 63.295 58.8201 63.1074 58.6326C62.9199 58.445 62.6656 58.3396 62.4004 58.3396Z" fill="#1F1D20"/>
<path d="M74.2305 58.3396H65.4502C65.1522 58.3396 64.8664 58.4572 64.6548 58.667C64.4432 58.8768 64.3229 59.1618 64.3203 59.4597V61.6196C64.3229 61.9185 64.4429 62.2044 64.6543 62.4158C64.8656 62.6271 65.1513 62.7471 65.4502 62.7498H74.2305C74.5294 62.7471 74.815 62.6271 75.0264 62.4158C75.2377 62.2044 75.3577 61.9185 75.3604 61.6196V59.4597C75.3577 59.1618 75.2375 58.8768 75.0259 58.667C74.8142 58.4572 74.5284 58.3396 74.2305 58.3396V58.3396Z" fill="#1F1D20"/>
</g>
<path d="M74.0904 35.697H29.3804C29.2128 35.697 29.0469 35.7302 28.8921 35.7947C28.7374 35.8591 28.5966 35.9535 28.4786 36.0725C28.3605 36.1915 28.2674 36.3328 28.2041 36.488C28.1409 36.6433 28.1091 36.8094 28.1104 36.9771V39.0571C28.1104 39.394 28.2443 39.7169 28.4825 39.9551C28.7206 40.1932 29.0436 40.3269 29.3804 40.3269H74.0904C74.4272 40.3269 74.7501 40.1932 74.9883 39.9551C75.2265 39.7169 75.3604 39.394 75.3604 39.0571V36.9771C75.3617 36.8094 75.3299 36.6433 75.2666 36.488C75.2034 36.3328 75.1098 36.1915 74.9917 36.0725C74.8737 35.9535 74.7334 35.8591 74.5787 35.7947C74.4239 35.7302 74.258 35.697 74.0904 35.697Z" fill="url(#paint5_linear_1202_62)"/>
<path d="M74.0904 41.3967H29.3804C29.2128 41.3967 29.0469 41.4299 28.8921 41.4944C28.7374 41.5588 28.5966 41.6532 28.4786 41.7722C28.3605 41.8912 28.2674 42.0325 28.2041 42.1877C28.1409 42.343 28.1091 42.5091 28.1104 42.6768V44.7568C28.1104 45.0937 28.2443 45.4166 28.4825 45.6548C28.7206 45.893 29.0436 46.0269 29.3804 46.0269H74.0904C74.4272 46.0269 74.7501 45.893 74.9883 45.6548C75.2265 45.4166 75.3604 45.0937 75.3604 44.7568V42.6968C75.3644 42.5275 75.3345 42.3592 75.2725 42.2017C75.2105 42.0441 75.1174 41.9004 74.9991 41.7793C74.8807 41.6582 74.7396 41.562 74.5835 41.4963C74.4275 41.4306 74.2597 41.3967 74.0904 41.3967V41.3967Z" fill="url(#paint6_linear_1202_62)"/>
<path d="M38.1201 52.6067H29.1201C28.8549 52.6067 28.6006 52.7121 28.4131 52.8997C28.2255 53.0872 28.1201 53.3415 28.1201 53.6067V56.0168C28.1201 56.2821 28.2255 56.5363 28.4131 56.7239C28.6006 56.9114 28.8549 57.0168 29.1201 57.0168H38.1201C38.3853 57.0168 38.6396 56.9114 38.8271 56.7239C39.0147 56.5363 39.1201 56.2821 39.1201 56.0168V53.6067C39.1201 53.3415 39.0147 53.0872 38.8271 52.8997C38.6396 52.7121 38.3853 52.6067 38.1201 52.6067Z" fill="url(#paint7_linear_1202_62)"/>
<path d="M50.3101 52.6067H41.3101C41.0448 52.6067 40.7906 52.7121 40.603 52.8997C40.4155 53.0872 40.3101 53.3415 40.3101 53.6067V56.0168C40.3101 56.2821 40.4155 56.5363 40.603 56.7239C40.7906 56.9114 41.0448 57.0168 41.3101 57.0168H50.3101C50.5753 57.0168 50.83 56.9114 51.0176 56.7239C51.2051 56.5363 51.3101 56.2821 51.3101 56.0168V53.6067C51.3101 53.3415 51.2051 53.0872 51.0176 52.8997C50.83 52.7121 50.5753 52.6067 50.3101 52.6067Z" fill="url(#paint8_linear_1202_62)"/>
<path d="M62.4404 52.6067H53.3701C53.1049 52.6067 52.8506 52.7121 52.6631 52.8997C52.4755 53.0872 52.3701 53.3415 52.3701 53.6067V56.0168C52.3701 56.2821 52.4755 56.5363 52.6631 56.7239C52.8506 56.9114 53.1049 57.0168 53.3701 57.0168H62.4404C62.7056 57.0168 62.9599 56.9114 63.1475 56.7239C63.335 56.5363 63.4404 56.2821 63.4404 56.0168V53.6067C63.4404 53.3415 63.335 53.0872 63.1475 52.8997C62.9599 52.7121 62.7056 52.6067 62.4404 52.6067Z" fill="url(#paint9_linear_1202_62)"/>
<path d="M74.3701 52.6067H65.3701C65.1049 52.6067 64.8506 52.7121 64.6631 52.8997C64.4755 53.0872 64.3701 53.3415 64.3701 53.6067V56.0168C64.3701 56.2821 64.4755 56.5363 64.6631 56.7239C64.8506 56.9114 65.1049 57.0168 65.3701 57.0168H74.3701C74.6353 57.0168 74.8896 56.9114 75.0771 56.7239C75.2647 56.5363 75.3701 56.2821 75.3701 56.0168V53.6067C75.3701 53.3415 75.2647 53.0872 75.0771 52.8997C74.8896 52.7121 74.6353 52.6067 74.3701 52.6067Z" fill="url(#paint10_linear_1202_62)"/>
<path d="M38.1201 47.1267H29.1201C28.8549 47.1267 28.6006 47.2321 28.4131 47.4197C28.2255 47.6072 28.1201 47.8615 28.1201 48.1267V50.5369C28.1201 50.8021 28.2255 51.0564 28.4131 51.2439C28.6006 51.4314 28.8549 51.5369 29.1201 51.5369H38.1201C38.3853 51.5369 38.6396 51.4314 38.8271 51.2439C39.0147 51.0564 39.1201 50.8021 39.1201 50.5369V48.1267C39.1201 47.8615 39.0147 47.6072 38.8271 47.4197C38.6396 47.2321 38.3853 47.1267 38.1201 47.1267Z" fill="url(#paint11_linear_1202_62)"/>
<path d="M50.3101 47.1267H41.3101C41.0448 47.1267 40.7906 47.2321 40.603 47.4197C40.4155 47.6072 40.3101 47.8615 40.3101 48.1267V50.5369C40.3101 50.8021 40.4155 51.0564 40.603 51.2439C40.7906 51.4314 41.0448 51.5369 41.3101 51.5369H50.3101C50.5753 51.5369 50.83 51.4314 51.0176 51.2439C51.2051 51.0564 51.3101 50.8021 51.3101 50.5369V48.1267C51.3101 47.8615 51.2051 47.6072 51.0176 47.4197C50.83 47.2321 50.5753 47.1267 50.3101 47.1267Z" fill="url(#paint12_linear_1202_62)"/>
<path d="M62.4404 47.1267H53.3701C53.1049 47.1267 52.8506 47.2321 52.6631 47.4197C52.4755 47.6072 52.3701 47.8615 52.3701 48.1267V50.5369C52.3701 50.8021 52.4755 51.0564 52.6631 51.2439C52.8506 51.4314 53.1049 51.5369 53.3701 51.5369H62.4404C62.7056 51.5369 62.9599 51.4314 63.1475 51.2439C63.335 51.0564 63.4404 50.8021 63.4404 50.5369V48.1267C63.4404 47.8615 63.335 47.6072 63.1475 47.4197C62.9599 47.2321 62.7056 47.1267 62.4404 47.1267Z" fill="url(#paint13_linear_1202_62)"/>
<path d="M74.3701 47.1267H65.3701C65.1049 47.1267 64.8506 47.2321 64.6631 47.4197C64.4755 47.6072 64.3701 47.8615 64.3701 48.1267V50.5369C64.3701 50.8021 64.4755 51.0564 64.6631 51.2439C64.8506 51.4314 65.1049 51.5369 65.3701 51.5369H74.3701C74.6353 51.5369 74.8896 51.4314 75.0771 51.2439C75.2647 51.0564 75.3701 50.8021 75.3701 50.5369V48.1267C75.3701 47.8615 75.2647 47.6072 75.0771 47.4197C74.8896 47.2321 74.6353 47.1267 74.3701 47.1267Z" fill="url(#paint14_linear_1202_62)"/>
<path d="M32.1904 63.697H29.1104C28.8451 63.697 28.5909 63.8025 28.4033 63.99C28.2158 64.1775 28.1104 64.4318 28.1104 64.697V67.2371C28.1104 67.5023 28.2158 67.7566 28.4033 67.9441C28.5909 68.1316 28.8451 68.2371 29.1104 68.2371H32.1904C32.4556 68.2371 32.7099 68.1316 32.8975 67.9441C33.085 67.7566 33.1904 67.5023 33.1904 67.2371V64.697C33.1904 64.4318 33.085 64.1775 32.8975 63.99C32.7099 63.8025 32.4556 63.697 32.1904 63.697Z" fill="#FFED9F"/>
<path d="M38.1104 63.697H35.0303C34.7651 63.697 34.5108 63.8025 34.3232 63.99C34.1357 64.1775 34.0303 64.4318 34.0303 64.697V67.2371C34.0303 67.5023 34.1357 67.7566 34.3232 67.9441C34.5108 68.1316 34.7651 68.2371 35.0303 68.2371H38.1104C38.3756 68.2371 38.6298 68.1316 38.8174 67.9441C39.0049 67.7566 39.1104 67.5023 39.1104 67.2371V64.697C39.1104 64.4318 39.0049 64.1775 38.8174 63.99C38.6298 63.8025 38.3756 63.697 38.1104 63.697Z" fill="#FFED9F"/>
<path d="M44.3403 63.697H41.2603C40.995 63.697 40.7408 63.8025 40.5532 63.99C40.3657 64.1775 40.2603 64.4318 40.2603 64.697V67.2371C40.2603 67.5023 40.3657 67.7566 40.5532 67.9441C40.7408 68.1316 40.995 68.2371 41.2603 68.2371H44.3403C44.6055 68.2371 44.8598 68.1316 45.0474 67.9441C45.2349 67.7566 45.3403 67.5023 45.3403 67.2371V64.697C45.3403 64.4318 45.2349 64.1775 45.0474 63.99C44.8598 63.8025 44.6055 63.697 44.3403 63.697Z" fill="#FFED9F"/>
<path d="M50.27 63.697H47.1904C46.9252 63.697 46.6704 63.8025 46.4829 63.99C46.2954 64.1775 46.1904 64.4318 46.1904 64.697V67.2371C46.1904 67.5023 46.2954 67.7566 46.4829 67.9441C46.6704 68.1316 46.9252 68.2371 47.1904 68.2371H50.27C50.5352 68.2371 50.79 68.1316 50.9775 67.9441C51.1651 67.7566 51.27 67.5023 51.27 67.2371V64.697C51.27 64.4318 51.1651 64.1775 50.9775 63.99C50.79 63.8025 50.5352 63.697 50.27 63.697Z" fill="#FFED9F"/>
<path d="M56.4204 63.697H53.3403C53.0751 63.697 52.8208 63.8025 52.6333 63.99C52.4458 64.1775 52.3403 64.4318 52.3403 64.697V67.2371C52.3403 67.5023 52.4458 67.7566 52.6333 67.9441C52.8208 68.1316 53.0751 68.2371 53.3403 68.2371H56.4204C56.6856 68.2371 56.9399 68.1316 57.1274 67.9441C57.315 67.7566 57.4204 67.5023 57.4204 67.2371V64.697C57.4204 64.4318 57.315 64.1775 57.1274 63.99C56.9399 63.8025 56.6856 63.697 56.4204 63.697Z" fill="#FFED9F"/>
<path d="M62.3804 63.697H59.2305C58.9653 63.697 58.7105 63.8025 58.5229 63.99C58.3354 64.1775 58.2305 64.4318 58.2305 64.697V67.2371C58.2305 67.5023 58.3354 67.7566 58.5229 67.9441C58.7105 68.1316 58.9653 68.2371 59.2305 68.2371H62.3804C62.6456 68.2371 62.8999 68.1316 63.0874 67.9441C63.2749 67.7566 63.3804 67.5023 63.3804 67.2371V64.697C63.3804 64.4318 63.2749 64.1775 63.0874 63.99C62.8999 63.8025 62.6456 63.697 62.3804 63.697Z" fill="#FFED9F"/>
<path d="M68.3701 63.697H65.29C65.0248 63.697 64.7705 63.8025 64.583 63.99C64.3955 64.1775 64.29 64.4318 64.29 64.697V67.2371C64.29 67.5023 64.3955 67.7566 64.583 67.9441C64.7705 68.1316 65.0248 68.2371 65.29 68.2371H68.3701C68.6353 68.2371 68.8896 68.1316 69.0771 67.9441C69.2647 67.7566 69.3701 67.5023 69.3701 67.2371V64.697C69.3701 64.4318 69.2647 64.1775 69.0771 63.99C68.8896 63.8025 68.6353 63.697 68.3701 63.697Z" fill="#FFED9F"/>
<path d="M74.3701 63.697H71.29C71.0248 63.697 70.7705 63.8025 70.583 63.99C70.3955 64.1775 70.29 64.4318 70.29 64.697V67.2371C70.29 67.5023 70.3955 67.7566 70.583 67.9441C70.7705 68.1316 71.0248 68.2371 71.29 68.2371H74.3701C74.6353 68.2371 74.8896 68.1316 75.0771 67.9441C75.2647 67.7566 75.3701 67.5023 75.3701 67.2371V64.697C75.3701 64.4318 75.2647 64.1775 75.0771 63.99C74.8896 63.8025 74.6353 63.697 74.3701 63.697Z" fill="#FFED9F"/>
<path d="M38.1201 58.1267H29.1201C28.8549 58.1267 28.6006 58.2321 28.4131 58.4197C28.2255 58.6072 28.1201 58.8615 28.1201 59.1267V61.5369C28.1201 61.8021 28.2255 62.0564 28.4131 62.2439C28.6006 62.4314 28.8549 62.5369 29.1201 62.5369H38.1201C38.3853 62.5369 38.6396 62.4314 38.8271 62.2439C39.0147 62.0564 39.1201 61.8021 39.1201 61.5369V59.1267C39.1201 58.8615 39.0147 58.6072 38.8271 58.4197C38.6396 58.2321 38.3853 58.1267 38.1201 58.1267Z" fill="url(#paint15_linear_1202_62)"/>
<path d="M50.27 58.1267H41.27C41.0048 58.1267 40.7505 58.2321 40.563 58.4197C40.3755 58.6072 40.27 58.8615 40.27 59.1267V61.5369C40.27 61.8021 40.3755 62.0564 40.563 62.2439C40.7505 62.4314 41.0048 62.5369 41.27 62.5369H50.27C50.5352 62.5369 50.79 62.4314 50.9775 62.2439C51.1651 62.0564 51.27 61.8021 51.27 61.5369V59.1267C51.27 58.8615 51.1651 58.6072 50.9775 58.4197C50.79 58.2321 50.5352 58.1267 50.27 58.1267Z" fill="url(#paint16_linear_1202_62)"/>
<path d="M62.4004 58.1267H53.3301C53.0649 58.1267 52.8106 58.2321 52.623 58.4197C52.4355 58.6072 52.3301 58.8615 52.3301 59.1267V61.5369C52.3301 61.8021 52.4355 62.0564 52.623 62.2439C52.8106 62.4314 53.0649 62.5369 53.3301 62.5369H62.4004C62.6656 62.5369 62.9199 62.4314 63.1074 62.2439C63.295 62.0564 63.4004 61.8021 63.4004 61.5369V59.1267C63.4004 58.8615 63.295 58.6072 63.1074 58.4197C62.9199 58.2321 62.6656 58.1267 62.4004 58.1267Z" fill="url(#paint17_linear_1202_62)"/>
<path d="M74.2305 58.1267H65.4502C65.1522 58.1267 64.8664 58.2443 64.6548 58.4541C64.4432 58.6639 64.3229 58.9489 64.3203 59.2468V61.4067C64.3229 61.7056 64.4429 61.9915 64.6543 62.2029C64.8656 62.4142 65.1513 62.5343 65.4502 62.5369H74.2305C74.5294 62.5343 74.815 62.4142 75.0264 62.2029C75.2377 61.9915 75.3577 61.7056 75.3604 61.4067V59.2468C75.3577 58.9489 75.2375 58.6639 75.0259 58.4541C74.8142 58.2443 74.5284 58.1267 74.2305 58.1267V58.1267Z" fill="url(#paint18_linear_1202_62)"/>
<path opacity="0.15" d="M83.1056 69.3534C83.5579 69.3534 83.9224 68.9888 83.9224 68.5366V41.5901H55.458V68.5401C55.458 68.9923 55.8226 69.3569 56.2748 69.3569H83.1056V69.3534Z" fill="#1F1D20"/>
<path opacity="0.15" d="M83.9189 42.2764V41.8347C83.9189 41.2879 83.4772 40.8462 82.9304 40.8462H56.4466C55.8997 40.8462 55.458 41.2879 55.458 41.8347V42.3255V42.7742V68.1187C55.458 68.6656 55.8997 69.1073 56.4466 69.1073H82.9374C83.4842 69.1073 83.9259 68.6656 83.9259 68.1187V42.3255C83.9259 42.308 83.9189 42.294 83.9189 42.2764Z" fill="#1F1D20"/>
<g filter="url(#filter1_d_1202_62)">
<path d="M83.9189 41.8323V41.3906C83.9189 40.8438 83.4772 40.4021 82.9304 40.4021H56.4466C55.8997 40.4021 55.458 40.8438 55.458 41.3906V41.8814V42.3301V67.6747C55.458 68.2215 55.8997 68.6632 56.4466 68.6632H82.9374C83.4842 68.6632 83.9259 68.2215 83.9259 67.6747V41.8814C83.9259 41.8639 83.9189 41.8499 83.9189 41.8323Z" fill="white"/>
</g>
<path d="M59.7433 64.9174C60.7347 64.9174 61.6141 64.6585 62.3816 64.1408C63.149 63.6231 63.8191 62.8244 64.3919 61.7449C64.9647 60.6654 65.5522 58.9249 66.1544 56.5236L67.4432 51.4344H68.9964L69.3819 50.1456H67.7847C68.24 48.2876 68.8422 46.9291 69.5912 46.0698C70.0465 45.5338 70.4908 45.2657 70.9241 45.2657C71.0122 45.2657 71.0838 45.2914 71.1389 45.3428C71.194 45.3942 71.2215 45.4603 71.2215 45.5411C71.2215 45.6145 71.1609 45.7541 71.0397 45.9597C70.9186 46.1653 70.858 46.3599 70.858 46.5435C70.858 46.8005 70.9535 47.0209 71.1444 47.2044C71.3353 47.388 71.5777 47.4798 71.8714 47.4798C72.1872 47.4798 72.4516 47.3678 72.6645 47.1439C72.8775 46.9199 72.984 46.617 72.984 46.2351C72.984 45.8018 72.8243 45.4493 72.5048 45.1776C72.1854 44.9059 71.6731 44.77 70.9681 44.77C69.8666 44.77 68.8679 45.0931 67.9719 45.7394C67.076 46.3856 66.2241 47.4541 65.4163 48.9449C65.1373 49.459 64.8729 49.7894 64.6232 49.9363C64.3735 50.0832 63.9733 50.1529 63.4225 50.1456L63.059 51.4344H64.5902L62.343 60.2358C61.9685 61.6825 61.7151 62.5748 61.5829 62.9126C61.392 63.4046 61.1019 63.8232 60.7127 64.1683C60.5585 64.3079 60.3712 64.3776 60.1509 64.3776C60.0922 64.3776 60.0408 64.3593 59.9967 64.3225L59.9416 64.2454C59.9416 64.2087 59.9967 64.1334 60.1069 64.0196C60.217 63.9058 60.2721 63.7314 60.2721 63.4964C60.2721 63.2394 60.184 63.0264 60.0077 62.8575C59.8315 62.6886 59.5781 62.6041 59.2476 62.6041C58.8511 62.6041 58.5316 62.7143 58.2893 62.9346C58.047 63.1549 57.9258 63.4156 57.9258 63.7167C57.9258 64.0398 58.0727 64.3207 58.3664 64.5594C58.6601 64.7981 59.1191 64.9174 59.7433 64.9174ZM76.4098 60.357C76.8651 60.357 77.3278 60.1917 77.7978 59.8613C78.4146 59.4353 79.0462 58.701 79.6924 57.6582L79.2959 57.4268C78.8552 58.0437 78.5285 58.4293 78.3155 58.5835C78.176 58.6789 78.0107 58.7267 77.8198 58.7267C77.5921 58.7267 77.3682 58.5835 77.1478 58.2971C76.7733 57.8124 76.2739 56.4685 75.6497 54.2654C76.2079 53.2813 76.6779 52.6388 77.0597 52.3377C77.3388 52.1174 77.6325 52.0072 77.941 52.0072C78.0585 52.0072 78.2696 52.0494 78.5744 52.1339C78.8791 52.2183 79.149 52.2606 79.384 52.2606C79.7071 52.2606 79.977 52.1486 80.1936 51.9246C80.4103 51.7006 80.5186 51.4124 80.5186 51.0599C80.5186 50.6853 80.4103 50.3879 80.1936 50.1676C79.977 49.9473 79.6667 49.8372 79.2628 49.8372C78.903 49.8372 78.5633 49.9234 78.2439 50.096C77.9244 50.2686 77.5187 50.6413 77.0267 51.2141C76.6595 51.64 76.1161 52.3854 75.3964 53.4502C75.11 52.1357 74.6179 50.9314 73.9203 49.8372L70.0759 50.4981L69.9988 50.9167C70.2852 50.8579 70.5275 50.8285 70.7258 50.8285C71.1077 50.8285 71.4235 50.9938 71.6731 51.3242C72.0697 51.8383 72.6205 53.4025 73.3255 56.0169C72.7747 56.7586 72.3965 57.2432 72.1909 57.4709C71.8531 57.8381 71.574 58.0768 71.3537 58.1869C71.1848 58.275 70.9938 58.3191 70.7809 58.3191C70.6193 58.3191 70.3549 58.231 69.9878 58.0547C69.7381 57.9372 69.5141 57.8785 69.3158 57.8785C68.9413 57.8785 68.6329 57.9996 68.3905 58.242C68.1482 58.4843 68.027 58.7928 68.027 59.1673C68.027 59.5198 68.139 59.8062 68.363 60.0265C68.587 60.2468 68.8899 60.357 69.2718 60.357C69.6389 60.357 69.9841 60.2799 70.3072 60.1256C70.6303 59.9714 71.0361 59.6428 71.5244 59.1398C72.0128 58.6367 72.6866 57.8381 73.5458 56.7439C73.8762 57.7867 74.1626 58.5449 74.405 59.0186C74.6473 59.4922 74.9245 59.8337 75.2367 60.043C75.5488 60.2523 75.9398 60.357 76.4098 60.357Z" fill="#333238"/>
<path opacity="0.15" d="M80.9787 76.903C85.1387 76.903 88.5087 73.533 88.5087 69.373C88.5087 65.213 85.1387 61.843 80.9787 61.843C76.8187 61.843 73.4487 65.213 73.4487 69.373C73.4587 73.533 76.8287 76.903 80.9787 76.903Z" fill="#1F1D20"/>
<path d="M80.9787 76.0529C85.1387 76.0529 88.5087 72.6829 88.5087 68.5229C88.5087 64.3629 85.1387 60.9929 80.9787 60.9929C76.8187 60.9929 73.4487 64.3629 73.4487 68.5229C73.4587 72.6829 76.8287 76.0529 80.9787 76.0529Z" fill="#333238"/>
<path opacity="0.3" d="M85.0788 65.2329L78.8788 71.4629L77.0188 69.5929L75.7788 70.8429L78.8788 73.9529L86.3288 66.4829L85.0788 65.2329Z" fill="#1F1D20"/>
<path d="M85.0788 64.7029L78.8788 70.9329L77.0188 69.0629L75.7788 70.3129L78.8788 73.4229L86.3288 65.9529L85.0788 64.7029Z" fill="#FAF9F8"/>
<defs>
<filter id="filter0_dd_1202_62" x="13.9598" y="25.4745" width="67.5387" height="51.1773" filterUnits="userSpaceOnUse" color-interpolation-filters="sRGB">
<feFlood flood-opacity="0" result="BackgroundImageFix"/>
<feColorMatrix in="SourceAlpha" type="matrix" values="0 0 0 0 0 0 0 0 0 0 0 0 0 0 0 0 0 0 127 0" result="hardAlpha"/>
<feOffset dx="-1.7828" dy="1.7828"/>
<feGaussianBlur stdDeviation="0.8914"/>
<feComposite in2="hardAlpha" operator="out"/>
<feColorMatrix type="matrix" values="0 0 0 0 0.85098 0 0 0 0 0.85098 0 0 0 0 0.839216 0 0 0 1 0"/>
<feBlend mode="multiply" in2="BackgroundImageFix" result="effect1_dropShadow_1202_62"/>
<feColorMatrix in="SourceAlpha" type="matrix" values="0 0 0 0 0 0 0 0 0 0 0 0 0 0 0 0 0 0 127 0" result="hardAlpha"/>
<feOffset dx="-5.3484" dy="0.8914"/>
<feGaussianBlur stdDeviation="1.3371"/>
<feComposite in2="hardAlpha" operator="out"/>
<feColorMatrix type="matrix" values="0 0 0 0 0.85098 0 0 0 0 0.85098 0 0 0 0 0.839216 0 0 0 1 0"/>
<feBlend mode="multiply" in2="effect1_dropShadow_1202_62" result="effect2_dropShadow_1202_62"/>
<feBlend mode="normal" in="SourceGraphic" in2="effect2_dropShadow_1202_62" result="shape"/>
</filter>
<filter id="filter1_d_1202_62" x="51.458" y="40.4021" width="36.4678" height="36.261" filterUnits="userSpaceOnUse" color-interpolation-filters="sRGB">
<feFlood flood-opacity="0" result="BackgroundImageFix"/>
<feColorMatrix in="SourceAlpha" type="matrix" values="0 0 0 0 0 0 0 0 0 0 0 0 0 0 0 0 0 0 127 0" result="hardAlpha"/>
<feOffset dy="4"/>
<feGaussianBlur stdDeviation="2"/>
<feComposite in2="hardAlpha" operator="out"/>
<feColorMatrix type="matrix" values="0 0 0 0 0 0 0 0 0 0 0 0 0 0 0 0 0 0 0.25 0"/>
<feBlend mode="normal" in2="BackgroundImageFix" result="effect1_dropShadow_1202_62"/>
<feBlend mode="normal" in="SourceGraphic" in2="effect1_dropShadow_1202_62" result="shape"/>
</filter>
<linearGradient id="paint0_linear_1202_62" x1="55.2167" y1="100.021" x2="56.9667" y2="-43.4792" gradientUnits="userSpaceOnUse">
<stop offset="0.203125" stop-color="white"/>
<stop offset="0.630208" stop-color="#F4F3F5"/>
<stop offset="1" stop-color="#E8E6DF"/>
</linearGradient>
<linearGradient id="paint1_linear_1202_62" x1="49.6896" y1="12.6826" x2="50.9664" y2="94.4034" gradientUnits="userSpaceOnUse">
<stop offset="0.2" stop-color="white"/>
<stop offset="0.63" stop-color="#F4F3F5"/>
<stop offset="1" stop-color="#E8E6DF"/>
</linearGradient>
<linearGradient id="paint2_linear_1202_62" x1="13.8804" y1="12.6363" x2="85.7004" y2="85.5663" gradientUnits="userSpaceOnUse">
<stop offset="0.01" stop-color="#F8DF70"/>
<stop offset="0.19" stop-color="#F2CC40"/>
<stop offset="0.58" stop-color="#E7B116"/>
<stop offset="0.78" stop-color="#E0A310"/>
<stop offset="0.94" stop-color="#CA810E"/>
</linearGradient>
<linearGradient id="paint3_linear_1202_62" x1="53.5302" y1="-4.51587" x2="52.0868" y2="105.426" gradientUnits="userSpaceOnUse">
<stop offset="0.00520833" stop-color="#F8DF70"/>
<stop offset="0.192708" stop-color="#F2CC40"/>
<stop offset="0.583333" stop-color="#E7B116"/>
<stop offset="0.78125" stop-color="#E0A310"/>
<stop offset="0.942708" stop-color="#CA810E"/>
</linearGradient>
<linearGradient id="paint4_linear_1202_62" x1="51.5464" y1="26.8183" x2="51.5538" y2="34.3467" gradientUnits="userSpaceOnUse">
<stop offset="0.01" stop-color="#E0A310"/>
<stop offset="1" stop-color="#CA810E"/>
</linearGradient>
<linearGradient id="paint5_linear_1202_62" x1="33.6204" y1="31.4571" x2="69.9302" y2="44.6274" gradientUnits="userSpaceOnUse">
<stop offset="0.01" stop-color="#E0A310"/>
<stop offset="1" stop-color="#CA810E"/>
</linearGradient>
<linearGradient id="paint6_linear_1202_62" x1="-18.9253" y1="37.2811" x2="46.3332" y2="136.702" gradientUnits="userSpaceOnUse">
<stop offset="0.01" stop-color="#F2CC40"/>
<stop offset="1" stop-color="#E7B116"/>
</linearGradient>
<linearGradient id="paint7_linear_1202_62" x1="26.0801" y1="52.0067" x2="70.3905" y2="68.5062" gradientUnits="userSpaceOnUse">
<stop offset="0.01" stop-color="#F2CC40"/>
<stop offset="1" stop-color="#E7B116"/>
</linearGradient>
<linearGradient id="paint8_linear_1202_62" x1="27.5701" y1="48.0265" x2="71.8804" y2="64.5261" gradientUnits="userSpaceOnUse">
<stop offset="0.01" stop-color="#F2CC40"/>
<stop offset="1" stop-color="#E7B116"/>
</linearGradient>
<linearGradient id="paint9_linear_1202_62" x1="29.0395" y1="44.0664" x2="73.3508" y2="60.5668" gradientUnits="userSpaceOnUse">
<stop offset="0.01" stop-color="#F2CC40"/>
<stop offset="1" stop-color="#E7B116"/>
</linearGradient>
<linearGradient id="paint10_linear_1202_62" x1="30.5001" y1="40.1562" x2="74.8105" y2="56.6558" gradientUnits="userSpaceOnUse">
<stop offset="0.01" stop-color="#F2CC40"/>
<stop offset="1" stop-color="#E7B116"/>
</linearGradient>
<linearGradient id="paint11_linear_1202_62" x1="27.8701" y1="47.1967" x2="72.1905" y2="63.6963" gradientUnits="userSpaceOnUse">
<stop offset="0.01" stop-color="#F2CC40"/>
<stop offset="1" stop-color="#E7B116"/>
</linearGradient>
<linearGradient id="paint12_linear_1202_62" x1="29.3601" y1="43.2066" x2="73.6704" y2="59.7061" gradientUnits="userSpaceOnUse">
<stop offset="0.01" stop-color="#F2CC40"/>
<stop offset="1" stop-color="#E7B116"/>
</linearGradient>
<linearGradient id="paint13_linear_1202_62" x1="30.8295" y1="39.2564" x2="75.1408" y2="55.7568" gradientUnits="userSpaceOnUse">
<stop offset="0.01" stop-color="#F2CC40"/>
<stop offset="1" stop-color="#E7B116"/>
</linearGradient>
<linearGradient id="paint14_linear_1202_62" x1="32.2901" y1="35.3463" x2="76.6005" y2="51.8459" gradientUnits="userSpaceOnUse">
<stop offset="0.01" stop-color="#F2CC40"/>
<stop offset="1" stop-color="#E7B116"/>
</linearGradient>
<linearGradient id="paint15_linear_1202_62" x1="24.2801" y1="56.8467" x2="68.5905" y2="73.3462" gradientUnits="userSpaceOnUse">
<stop offset="0.01" stop-color="#F2CC40"/>
<stop offset="1" stop-color="#E7B116"/>
</linearGradient>
<linearGradient id="paint16_linear_1202_62" x1="25.76" y1="52.8765" x2="70.0704" y2="69.3761" gradientUnits="userSpaceOnUse">
<stop offset="0.01" stop-color="#F2CC40"/>
<stop offset="1" stop-color="#E7B116"/>
</linearGradient>
<linearGradient id="paint17_linear_1202_62" x1="27.2294" y1="48.9164" x2="71.5507" y2="65.4168" gradientUnits="userSpaceOnUse">
<stop offset="0.01" stop-color="#F2CC40"/>
<stop offset="1" stop-color="#E7B116"/>
</linearGradient>
<linearGradient id="paint18_linear_1202_62" x1="28.6902" y1="45.0062" x2="73.0007" y2="61.5059" gradientUnits="userSpaceOnUse">
<stop offset="0.01" stop-color="#F2CC40"/>
<stop offset="1" stop-color="#E7B116"/>
</linearGradient>
</defs>
</svg>
