<?xml version="1.0" encoding="UTF-8"?>
<svg width="100px" height="100px" viewBox="0 0 100 100" version="1.1" xmlns="http://www.w3.org/2000/svg" xmlns:xlink="http://www.w3.org/1999/xlink">
    <!-- Generator: Sketch 55.2 (78181) - https://sketchapp.com -->
    <title>Introduction to Developing with Power Platform/use-developer-tooling</title>
    <desc>Created with Sketch.</desc>
    <defs>
        <rect id="path-1" x="0" y="0" width="96" height="96" rx="48"></rect>
        <filter x="-8.2%" y="-7.8%" width="116.3%" height="115.7%" filterUnits="objectBoundingBox" id="filter-3">
            <feOffset dx="0" dy="2" in="SourceAlpha" result="shadowOffsetOuter1"></feOffset>
            <feColorMatrix values="0 0 0 0 0   0 0 0 0 0   0 0 0 0 0  0 0 0 0.097486413 0" type="matrix" in="shadowOffsetOuter1" result="shadowMatrixOuter1"></feColorMatrix>
            <feMerge>
                <feMergeNode in="shadowMatrixOuter1"></feMergeNode>
                <feMergeNode in="SourceGraphic"></feMergeNode>
            </feMerge>
        </filter>
    </defs>
    <g id="Badges" stroke="none" stroke-width="1" fill="none" fill-rule="evenodd">
        <g id="Introduction-to-Developing-with-Power-Platform" transform="translate(-50.000000, -660.000000)">
            <g id="Introduction-to-Developing-with-Power-Platform/use-developer-tooling" transform="translate(50.000000, 660.000000)">
                <g id="Mask" transform="translate(2.000000, 2.000000)">
                    <mask id="mask-2" fill="white">
                        <use xlink:href="#path-1"></use>
                    </mask>
                    <use id="BG" fill="#55A2FF" xlink:href="#path-1"></use>
                    <path d="M82.247197,49.3073409 C82.9681061,48.5855076 82.9681061,47.4154167 82.247197,46.6926591 C82.2462727,46.6908106 82.2435,46.6898864 82.2425758,46.6889621 L77.3108182,41.7581288 C76.5889848,41.0353712 75.4188939,41.0353712 74.6970606,41.7581288 C73.9752273,42.4790379 73.9752273,43.6491288 74.6970606,44.3718864 L78.3247121,48.0004621 L74.6961364,51.6281136 L74.6970606,51.6290379 C73.9752273,52.349947 73.9752273,53.5209621 74.6970606,54.2427955 C75.4179697,54.9646288 76.5889848,54.9646288 77.3108182,54.2427955 C77.3126667,54.240947 77.3135909,54.2390985 77.3154394,54.2390985 L82.2370303,49.3147348 C82.2407273,49.3119621 82.2444242,49.3091894 82.247197,49.3073409" id="Fill-1462" fill="#30404D" mask="url(#mask-2)"></path>
                    <path d="M21.3029394,41.7572045 C20.5820303,41.0353712 19.4110152,41.0353712 18.6891818,41.7572045 C18.6873333,41.759053 18.6864091,41.7599773 18.6845606,41.7618258 L13.7629697,46.6852652 C13.7592727,46.6880379 13.7555758,46.6898864 13.752803,46.6926591 C13.0318939,47.4144924 13.0318939,48.5845833 13.752803,49.3073409 C13.7537273,49.3082652 13.7565,49.3091894 13.7574242,49.3101136 L18.6845606,54.2363258 C18.6864091,54.2390985 18.6873333,54.2400227 18.6891818,54.2418712 C19.4110152,54.9646288 20.5820303,54.9646288 21.3029394,54.2418712 C22.0247727,53.5209621 22.0247727,52.349947 21.3029394,51.6290379 L21.3038636,51.6281136 L17.6752879,48.0004621 L21.3038636,44.3718864 L21.3029394,44.3709621 C22.0247727,43.6491288 22.0247727,42.4790379 21.3029394,41.7572045" id="Fill-1463" fill="#30404D" mask="url(#mask-2)"></path>
                    <g id="Wrench" filter="url(#filter-3)" mask="url(#mask-2)" fill-rule="nonzero">
                        <g transform="translate(23.488777, 23.400000)">
                            <path d="M17.1081944,35.3435031 L32.9442833,18.2389197 C38.55697,18.7756734 40.4348169,17.584888 42.0905425,15.7970067 C44.7977072,12.8733293 44.2254294,9.17493574 43.7971911,7.11162146 L38.2887754,12.8626234 C37.9201897,13.2470617 37.3125084,13.2645804 36.9225835,12.9020405 L34.6703312,10.8027155 L32.4180788,8.7038772 C32.028154,8.34085067 32.000995,7.73110237 32.3564862,7.33449833 L37.6670296,1.39809008 C35.5845206,1.12168383 31.8695651,0.821919299 29.1604605,3.74559671 C27.4829108,5.55780954 26.5323478,7.47075493 27.3539058,12.7375593 L11.2287682,30.1550463 C7.65882204,29.861608 4.78482385,30.0747522 2.42490566,32.6251839 C-0.282259019,35.547888 0.288563774,39.2448217 0.717772075,41.3100825 L6.22570279,35.5581073 C6.59428845,35.1726957 7.20196981,35.1561503 7.59189464,35.5191768 L9.84414702,37.619475 L12.0963994,39.7173401 C12.4863242,40.0808533 12.5139682,40.6906016 12.158962,41.0876922 L6.84793358,47.0216673 C8.89503894,47.2941805 12.5222128,47.5885921 15.216283,44.8201499 C17.0000436,42.9884719 18.0548776,40.9207779 17.1081944,35.3435031 Z" id="Shape" fill="#D9D9D9"></path>
                            <polygon id="Rectangle-path" fill="#7E8C8D" opacity="0.2" transform="translate(20.541048, 23.973169) rotate(42.913092) translate(-20.541048, -23.973169) " points="19.5965306 11.6502491 21.4855648 11.6502491 21.4855648 36.2960883 19.5965306 36.2960883"></polygon>
                            <polygon id="Shape" fill="#000000" opacity="0.17" points="22.6073955 17.4058079 29.5935487 21.9095753 26.8049072 25.3028513"></polygon>
                            <polygon id="Rectangle-path" fill="#8392A2" transform="translate(22.253759, 19.323374) rotate(-37.662916) translate(-22.253759, -19.323374) " points="20.8100049 4.68563295 23.6975126 4.68563295 23.6975126 33.9611151 20.8100049 33.9611151"></polygon>
                            <path d="M30.5698157,30.4105274 L26.5711463,33.5093919 C26.166672,33.8222955 26.0924699,34.4062523 26.4043128,34.8111291 L28.9955669,38.1766672 L31.7817835,38.7202337 L31.5329882,41.4735904 L37.7911848,49.6032433 C38.9881182,51.1585151 41.2146666,51.4461139 42.7641813,50.2446226 L44.6885864,48.7530995 L30.5698157,30.4105274 Z" id="Shape" fill="#FDBD0F"></path>
                            <path d="M30.5698157,30.4105274 L34.7716922,27.153508 C35.1950808,26.8250322 35.7935475,26.8868343 36.1058753,27.2917111 L38.6971295,30.6582225 L38.4415445,33.5595149 L41.2345508,33.9556323 L47.4937173,42.0852852 C48.6906507,43.6400704 48.3400094,45.9238284 46.7119277,47.1861485 L44.6900414,48.7530995 L30.5698157,30.4105274 Z" id="Shape" fill="#FCD116"></path>
                            <path d="M11.3694127,0.687122588 C10.9591186,0.154261941 10.1962433,0.0559625337 9.664704,0.467165499 L7.25919758,2.33144782 C6.72814325,2.74313741 6.63017706,3.50860755 7.03998611,4.04244146 L10.2219473,8.17685612 L12.1958205,8.62066334 L14.4810516,6.85030075 L14.5280948,4.79136615 L11.3694127,0.687122588 Z" id="Shape" fill="#8596A7"></path>
                            <polygon id="Shape" fill="#5B6A7D" points="10.152595 8.08536954 10.2243722 8.17782938 12.1967905 8.62017671 14.4820216 6.84981412 14.5300347 4.79087951 14.4829915 4.73005067"></polygon>
                            <path d="M41.4004143,45.8917108 C41.6099262,46.164224 41.5599731,46.5545018 41.2883837,46.7647263 L40.9071885,47.0605978 C40.7767286,47.1613304 40.611835,47.2061004 40.4488814,47.1851753 C40.2859277,47.1642501 40.1380085,47.0786031 40.0371324,46.9486727 L34.3846773,39.6049284 C34.1751654,39.3324152 34.2251185,38.9421374 34.4967079,38.7319129 L34.8779031,38.4360414 C35.008363,38.3353088 35.1732566,38.2905388 35.3362103,38.3114639 C35.4991639,38.3323891 35.6480531,38.4180361 35.7479592,38.5479665 L41.4004143,45.8917108 Z" id="Shape" fill="#6D572C"></path>
                            <path d="M44.5654012,43.4386053 C44.7749131,43.7106319 44.72496,44.1009097 44.4543405,44.3111342 L44.0726604,44.6070057 C43.9422005,44.7082249 43.7773069,44.7525082 43.6143532,44.7315831 C43.4513995,44.710658 43.3034803,44.6259843 43.2026042,44.4950806 L37.553059,37.1537694 C37.4521829,37.0233524 37.4080497,36.857898 37.4289038,36.6939034 C37.449758,36.5303955 37.5351147,36.3819731 37.6646047,36.2807539 L38.0453149,35.9863423 C38.3169043,35.7766045 38.7058592,35.8267274 38.914886,36.098754 L44.5654012,43.4386053 Z" id="Shape" fill="#6D572C"></path>
                        </g>
                    </g>
                </g>
                <g id="Azure-Border" stroke="#0078D4" stroke-width="4">
                    <rect x="2" y="2" width="96" height="96" rx="48"></rect>
                </g>
            </g>
        </g>
    </g>
</svg>