<svg width="180" height="190" viewBox="0 0 180 190" fill="none" xmlns="http://www.w3.org/2000/svg">
<path d="M89.9999 188.999C93.0816 188.994 96.1024 188.139 98.73 186.529L160.73 148.869C163.517 147.11 165.807 144.666 167.383 141.771C168.958 138.875 169.766 135.625 169.73 132.329V57.6193C169.763 54.3239 168.954 51.0747 167.379 48.1799C165.804 45.2852 163.515 42.841 160.73 41.0792L98.73 3.41919C96.0958 1.83381 93.0794 0.996094 90.0049 0.996094C86.9304 0.996094 83.9141 1.83381 81.2799 3.41919L19.2799 41.0992C16.4935 42.8596 14.2038 45.3034 12.6285 48.1985C11.0532 51.0935 10.2447 54.3435 10.2799 57.6392V132.339C10.2614 135.122 10.8361 137.877 11.9655 140.42C13.0949 142.963 14.7532 145.237 16.83 147.089L81.24 186.519C83.8769 188.134 86.9076 188.993 89.9999 188.999ZM90.6499 7.99927C92.6499 7.99927 95.0799 9.20916 96.7899 10.2592L157.55 47.4492C161.3 49.7292 163.42 56.3292 163.42 61.0792L162.79 132.379C162.79 137.129 159.59 141.379 155.79 143.679L95.3899 180.059C91.9599 182.149 89.17 182.149 85.73 180.059L24.5199 143.589C20.7699 141.309 17.7499 137.109 17.7499 132.379V58.6892C17.7817 56.3234 18.3905 54.0012 19.5232 51.924C20.6559 49.8467 22.2784 48.0772 24.2499 46.7692L84.83 10.2092C86.58 9.16923 88.6999 7.94922 90.6499 7.94922V7.99927Z" fill="url(#paint0_linear_1660_22794)"/>
<path fill-rule="evenodd" clip-rule="evenodd" d="M97.8999 11.5302C95.5272 10.0601 92.7912 9.28125 89.9999 9.28125C87.2086 9.28125 84.4728 10.0601 82.1 11.5302L25.97 45.8602C23.4434 47.4716 21.3703 49.7017 19.9474 52.3391C18.5246 54.9765 17.7992 57.9337 17.84 60.9302V129.03C17.8002 132.026 18.526 134.983 19.9488 137.62C21.3715 140.258 23.4441 142.488 25.97 144.1L82.1 178.43C84.4728 179.9 87.2086 180.679 89.9999 180.679C92.7912 180.679 95.5272 179.9 97.8999 178.43L154.03 144.1C156.555 142.487 158.626 140.256 160.049 137.619C161.471 134.982 162.198 132.026 162.16 129.03V60.9302C162.198 57.9342 161.471 54.9781 160.049 52.3412C158.626 49.7043 156.555 47.4737 154.03 45.8602L97.8999 11.5302Z" fill="url(#paint1_linear_1660_22794)"/>
<path d="M22.3101 120.18L31.54 125.47L22.39 130.73L17.79 128.09V128.62L21.9501 131.01L18.27 133.13L18.41 133.56L22.41 131.27L31.6001 136.55L22.4801 141.79L20.8301 140.84L21.04 141.47L89.55 181.07L89.9801 180.78L80.65 175.4L89.92 170.07L99.1201 175.35L99.53 175.07L90.38 169.8L99.6101 164.49L108.97 169.86L109.2 169.45L100.08 164.23L109.2 158.99L118.44 164.3L118.77 163.94L109.67 158.71L118.87 153.43L128.06 158.71L128.6 158.5L119.31 153.17L128.54 147.87L137.68 153.12L138.22 152.91L128.99 147.61L138.13 142.35L147.28 147.61L147.81 147.4L138.58 142.1L147.81 136.79L156.9 142.02L157.43 141.81L148.25 136.54L157.43 131.26L162.12 133.95V133.46L157.85 131L162.39 128.39V127.86L157.39 130.75L148.22 125.48L157.48 120.15L162.66 123.15V122.64L119.36 97.6399L100.1 86.5199L99.91 86.45L90.52 81.0299L90.0901 80.75L18.3101 121.97V122.51L22.3101 120.18ZM22.8401 130.99L31.9801 125.72L41.2001 131.01L32.03 136.28L22.8401 130.99ZM80.67 130.99L89.9 125.69L99.04 130.93L89.8101 136.24L80.67 130.99ZM89.3701 136.5L80.16 141.79L71.02 136.54L80.2301 131.25L89.3701 136.5ZM90.3701 125.43L99.52 120.17L108.65 125.42L99.5 130.68L90.3701 125.43ZM89.92 125.17L80.6901 119.87L89.8501 114.61L99.0801 119.91L89.92 125.17ZM89.4801 125.43L80.25 130.73L71.02 125.43L80.25 120.13L89.4801 125.43ZM79.8 130.99L70.5901 136.28L61.3601 130.98L70.5701 125.69L79.8 130.99ZM70.13 136.55L60.9801 141.81L51.7401 136.51L60.9 131.24L70.13 136.55ZM70.5801 136.8L79.7201 142.05L70.5801 147.31L61.42 142.06L70.5801 136.8ZM80.16 142.31L89.39 147.61L80.26 152.86L71.02 147.57L80.16 142.31ZM80.63 142.04L89.8301 136.75L99.0601 142.05L89.8601 147.35L80.63 142.04ZM90.28 136.5L99.5 131.19L108.73 136.49L99.51 141.8L90.28 136.5ZM99.9501 130.93L109.1 125.67L118.33 130.98L109.18 136.24L99.9501 130.93ZM109.54 125.42L118.77 120.11L128 125.42L118.77 130.72L109.54 125.42ZM109.1 125.16L99.9701 119.91L109.2 114.61L118.32 119.86L109.1 125.16ZM99.52 119.66L90.29 114.35L99.52 109.05L108.75 114.35L99.52 119.66ZM89.8501 114.1L80.6901 108.83L89.92 103.53L99.0801 108.79L89.8501 114.1ZM89.4 114.35L80.25 119.62L71.0801 114.35L80.2401 109.09L89.4 114.35ZM79.8 119.87L70.5701 125.17L61.41 119.91L70.64 114.61L79.8 119.87ZM70.13 125.43L60.91 130.73L51.75 125.46L60.9601 120.17L70.13 125.43ZM60.4601 130.99L51.29 136.25L42.1201 130.99L51.3101 125.69L60.4601 130.99ZM50.8301 136.52L41.66 141.79L32.5 136.52L41.66 131.26L50.8301 136.52ZM51.28 136.77L60.52 142.07L51.3301 147.35L42.1001 142.05L51.28 136.77ZM60.9601 142.33L70.1101 147.58L60.91 152.87L51.77 147.61L60.9601 142.33ZM70.5601 147.83L79.79 153.13L70.5801 158.43L61.3601 153.12L70.5601 147.83ZM80.2401 153.39L89.52 158.71L80.3 164.01L71.03 158.68L80.2401 153.39ZM80.7101 153.12L89.8401 147.87L99.1101 153.2L89.9901 158.44L80.7101 153.12ZM90.3 147.6L99.51 142.31L108.78 147.64L99.5801 152.93L90.3 147.6ZM99.9501 142.05L109.18 136.75L118.45 142.08L109.22 147.38L99.9501 142.05ZM109.62 136.49L118.77 131.23L128.04 136.56L118.9 141.82L109.62 136.49ZM119.22 130.98L128.44 125.67L137.72 131L128.49 136.3L119.22 130.98ZM128.89 125.42L138.06 120.14L147.34 125.47L138.16 130.74L128.89 125.42ZM128.44 125.16L119.22 119.86L128.39 114.58L137.62 119.89L128.44 125.16ZM118.77 119.6L109.64 114.35L118.81 109.08L127.94 114.33L118.77 119.6ZM109.2 114.1L99.9701 108.79L109.14 103.53L118.37 108.83L109.2 114.1ZM99.52 108.54L90.3601 103.27L99.53 98.0099L108.69 103.27L99.52 108.54ZM89.92 103.02L80.65 97.6899L89.8 92.4199L99.0801 97.75L89.92 103.02ZM89.4701 103.27L80.2401 108.58L70.9901 103.26L80.2101 97.95L89.4701 103.27ZM79.8 108.83L70.64 114.1L61.4 108.79L70.55 103.52L79.8 108.83ZM70.1901 114.35L60.9601 119.65L51.7301 114.35L60.9501 109.04L70.1901 114.35ZM60.52 119.91L51.3 125.21L42.0801 119.91L51.29 114.61L60.52 119.91ZM50.8501 125.47L41.6801 130.74L32.4601 125.45L41.63 120.17L50.8501 125.47ZM22.8501 142.04L31.9701 136.8L41.13 142.06L31.9901 147.32L22.8501 142.04ZM32.4301 147.58L41.5801 142.32L50.8 147.62L41.63 152.89L32.4301 147.58ZM42.0801 153.15L51.25 147.88L60.4 153.13L51.2001 158.42L42.0801 153.15ZM51.65 158.68L60.8401 153.39L70.0701 158.69L60.8501 163.99L51.65 158.68ZM61.3 164.25L70.52 158.95L79.79 164.28L70.55 169.59L61.3 164.25ZM80.13 175.13L70.9901 169.85L80.2401 164.53L89.4 169.8L80.13 175.13ZM89.8501 169.54L80.6901 164.27L89.92 158.97L99.0901 164.23L89.8501 169.54ZM99.5601 163.96L90.38 158.7L99.51 153.45L108.67 158.72L99.5601 163.96ZM109.14 158.45L99.9801 153.18L109.17 147.89L118.34 153.16L109.14 158.45ZM118.79 152.9L109.62 147.64L118.85 142.33L128.01 147.6L118.79 152.9ZM128.46 147.34L119.29 142.08L128.44 136.82L137.61 142.09L128.46 147.34ZM138.05 141.83L128.89 136.56L138.11 131.26L147.28 136.53L138.05 141.83ZM156.9 130.99L147.73 136.27L138.56 131L147.73 125.72L156.9 130.99ZM156.99 119.89L147.73 125.21L138.46 119.88L147.74 114.54L156.99 119.89ZM147.3 114.29L138.01 119.63L128.78 114.33L138.09 108.97L147.3 114.29ZM137.65 108.72L128.34 114.07L119.21 108.83L128.55 103.46L137.65 108.72ZM128.1 103.2L118.76 108.57L109.53 103.27L118.9 97.8899L128.1 103.2ZM118.45 97.6299L109.09 103.01L99.92 97.75L109.31 92.36L118.45 97.6299ZM108.87 92.1L99.4801 97.49L90.2001 92.1699L99.6001 86.75L108.87 92.1ZM90.0601 81.24L99.16 86.49L89.75 91.9099L80.6101 86.6599L90.0601 81.24ZM80.17 86.9199L89.3101 92.1699L80.16 97.4399L71.01 92.1799L80.17 86.9199ZM70.5601 92.4299L79.7101 97.6899L70.4901 103L61.3301 97.74L70.5601 92.4299ZM60.88 97.99L70.05 103.26L60.9 108.53L51.7201 103.26L60.88 97.99ZM51.28 103.51L60.4501 108.79L51.2401 114.09L42.04 108.81L51.28 103.51ZM41.6001 109.07L50.79 114.35L41.5801 119.65L32.38 114.37L41.6001 109.07ZM31.9301 114.62L41.13 119.91L31.9601 125.2L22.7301 119.9L31.9301 114.62Z" fill="white"/>
<path fill-rule="evenodd" clip-rule="evenodd" d="M90.4298 10.75C92.1098 10.75 93.9999 11.62 96.0599 12.87L154.54 48.4099C156.432 49.6229 157.982 51.2999 159.043 53.2814C160.104 55.2628 160.64 57.4828 160.6 59.73V130.21C160.639 132.457 160.102 134.677 159.042 136.658C157.981 138.639 156.431 140.316 154.54 141.53L96.0699 177.07C94.4624 178.327 92.4804 179.01 90.4399 179.01C88.3993 179.01 86.4174 178.327 84.8099 177.07L26.3098 141.54C24.5273 140.587 23.0035 139.214 21.8699 137.54C20.8699 135.94 20.2498 133.72 20.2498 130.26V59.7799C20.2101 57.5328 20.7462 55.3129 21.8069 53.3314C22.8677 51.35 24.4178 49.673 26.3098 48.46L84.7698 12.9199C86.8798 11.6299 88.7398 10.75 90.4298 10.75ZM98.1398 180.5L156.61 144.96C159.092 143.392 161.131 141.214 162.532 138.633C163.932 136.053 164.648 133.156 164.61 130.22V59.74C164.648 56.8041 163.932 53.9074 162.532 51.3268C161.131 48.7462 159.092 46.5679 156.61 45L98.1398 9.45996C96.0298 8.17996 93.3198 6.75 90.4298 6.75C87.5398 6.75 84.8199 8.18995 82.7299 9.44995L24.2598 45C21.7773 46.5679 19.7384 48.7462 18.3378 51.3268C16.9372 53.9074 16.2217 56.8041 16.2598 59.74V130.22C16.1075 133.484 16.8695 136.726 18.4599 139.58C19.9149 141.819 21.9004 143.663 24.2399 144.95L82.6999 180.49C84.9346 182.138 87.6382 183.027 90.4148 183.027C93.1914 183.027 95.895 182.138 98.1298 180.49L98.1398 180.5Z" fill="url(#paint2_linear_1660_22794)"/>
<path fill-rule="evenodd" clip-rule="evenodd" d="M58.9063 144.817C58.9063 144.145 59.4512 143.6 60.1234 143.6L113.829 143.6C114.501 143.6 115.046 144.145 115.046 144.817C115.046 145.489 114.501 146.034 113.829 146.034L60.1234 146.034C59.4512 146.034 58.9063 145.489 58.9063 144.817Z" fill="#959595"/>
<path d="M112.301 139.585L121.357 144.817L112.301 150.039V139.585Z" fill="#959595"/>
<g filter="url(#filter0_d_1660_22794)">
<path d="M39.4148 133.292H141.08C142.189 133.292 143.096 132.385 143.096 131.276V51.9028H37.3989V131.276C37.3989 132.385 38.3061 133.292 39.4148 133.292Z" fill="#F2F2F2"/>
</g>
<path d="M37.3989 60.6881H143.096V51.2137C143.096 50.357 142.407 49.6682 141.55 49.6682H38.9444C38.0877 49.6682 37.3989 50.357 37.3989 51.2137V60.6881Z" fill="url(#paint3_linear_1660_22794)"/>
<path d="M136.405 57.1002C137.478 57.1002 138.356 56.2346 138.356 55.1496C138.356 54.0646 137.466 53.2112 136.405 53.2112C135.332 53.2112 134.454 54.0768 134.454 55.1618C134.454 56.2468 135.308 57.1002 136.405 57.1002Z" fill="white"/>
<path d="M72.6581 82.7495V102.003C72.6581 103.108 71.7627 104.003 70.6581 104.003H63.0503" stroke="#78787D" stroke-width="0.5" stroke-miterlimit="10" stroke-linejoin="round"/>
<path d="M72.6518 99.1626V81.7935C72.6518 80.6889 71.7563 79.7935 70.6518 79.7935H63.1436" stroke="#78787D" stroke-width="0.5" stroke-miterlimit="10" stroke-linejoin="round"/>
<path d="M79.5716 91.9268L63.2061 91.9268" stroke="#78787D" stroke-width="0.5" stroke-miterlimit="10" stroke-linejoin="round"/>
<path d="M86.3106 99.0419H93.9878C95.0924 99.0419 95.9878 98.1465 95.9878 97.0419V84.7473C95.9878 83.6427 96.8833 82.7473 97.9878 82.7473H104.413" stroke="#78787D" stroke-width="0.5" stroke-miterlimit="10" stroke-linejoin="round"/>
<path d="M110.806 87.205H118.484C119.588 87.205 120.484 86.3096 120.484 85.205V83.0674C120.484 81.9628 121.379 81.0674 122.484 81.0674H128.909" stroke="#78787D" stroke-width="0.5" stroke-miterlimit="10" stroke-linejoin="round"/>
<path d="M130.113 103.162H122.436C121.331 103.162 120.436 102.267 120.436 101.162V94.1039C120.436 92.9993 119.54 92.1039 118.436 92.1039H112.01" stroke="#78787D" stroke-width="0.5" stroke-miterlimit="10" stroke-linejoin="round"/>
<g filter="url(#filter1_ddddd_1660_22794)">
<path d="M137.465 93.0211H124.108C123.89 93.0217 123.675 92.9793 123.474 92.8963C123.273 92.8133 123.09 92.6914 122.936 92.5375C122.782 92.3837 122.66 92.2009 122.577 91.9998C122.494 91.7987 122.452 91.5832 122.452 91.3656V77.7564C122.452 77.5388 122.494 77.3233 122.577 77.1221C122.66 76.921 122.782 76.7383 122.936 76.5844C123.09 76.4306 123.273 76.3087 123.474 76.2257C123.675 76.1427 123.89 76.1003 124.108 76.1008H137.461C137.678 76.1003 137.894 76.1427 138.095 76.2257C138.296 76.3087 138.479 76.4306 138.633 76.5844C138.787 76.7383 138.908 76.921 138.991 77.1221C139.074 77.3233 139.117 77.5388 139.116 77.7564V91.3656C139.117 91.5828 139.075 91.798 138.992 91.9988C138.909 92.1997 138.788 92.3822 138.634 92.536C138.481 92.6898 138.299 92.8118 138.098 92.895C137.897 92.9783 137.682 93.0211 137.465 93.0211Z" fill="url(#paint4_linear_1660_22794)"/>
</g>
<g filter="url(#filter2_ddddd_1660_22794)">
<path d="M137.466 109.352H124.108C123.891 109.353 123.675 109.31 123.474 109.227C123.273 109.144 123.09 109.022 122.936 108.868C122.783 108.715 122.661 108.532 122.578 108.331C122.495 108.13 122.452 107.914 122.453 107.696V98.867C122.452 98.6494 122.495 98.4339 122.578 98.2327C122.661 98.0316 122.783 97.8489 122.936 97.695C123.09 97.5412 123.273 97.4193 123.474 97.3363C123.675 97.2533 123.891 97.2109 124.108 97.2114H137.461C137.679 97.2109 137.894 97.2533 138.095 97.3363C138.297 97.4193 138.479 97.5412 138.633 97.695C138.787 97.8489 138.909 98.0316 138.992 98.2327C139.075 98.4339 139.117 98.6494 139.117 98.867V107.696C139.117 107.914 139.075 108.129 138.992 108.33C138.91 108.531 138.788 108.713 138.635 108.867C138.481 109.021 138.299 109.143 138.099 109.226C137.898 109.309 137.683 109.352 137.466 109.352Z" fill="url(#paint5_linear_1660_22794)"/>
</g>
<g filter="url(#filter3_ddddd_1660_22794)">
<path d="M114.553 96.7005H100.57C100.209 96.6994 99.8623 96.5553 99.6067 96.2996C99.3511 96.044 99.207 95.6976 99.2058 95.3361V77.4642C99.2058 77.1024 99.3496 76.7553 99.6054 76.4995C99.8613 76.2436 100.208 76.0999 100.57 76.0999H114.518C114.88 76.0999 115.227 76.2436 115.483 76.4995C115.739 76.7553 115.883 77.1024 115.883 77.4642V95.3753C115.886 95.5505 115.853 95.7245 115.787 95.8869C115.722 96.0493 115.624 96.1968 115.5 96.3205C115.376 96.4442 115.228 96.5416 115.065 96.6069C114.902 96.6722 114.728 96.7041 114.553 96.7005Z" fill="url(#paint6_linear_1660_22794)"/>
</g>
<g filter="url(#filter4_ddddd_1660_22794)">
<path d="M91.3068 106.695H77.3239C76.9624 106.693 76.616 106.549 76.3604 106.294C76.1047 106.038 75.9606 105.692 75.9595 105.33V77.4642C75.9595 77.1024 76.1032 76.7553 76.3591 76.4995C76.615 76.2436 76.962 76.0999 77.3239 76.0999H91.272C91.6339 76.0999 91.9809 76.2436 92.2368 76.4995C92.4927 76.7553 92.6364 77.1024 92.6364 77.4642V105.369C92.6394 105.544 92.607 105.718 92.5412 105.881C92.4753 106.043 92.3774 106.191 92.2533 106.315C92.1292 106.438 91.9814 106.536 91.8188 106.601C91.6561 106.666 91.482 106.698 91.3068 106.695Z" fill="url(#paint7_linear_1660_22794)"/>
</g>
<path d="M99.6411 83.6005C99.8071 83.6 99.9691 83.5502 100.107 83.4576C100.244 83.365 100.352 83.2337 100.415 83.0802C100.478 82.9267 100.494 82.7579 100.461 82.5953C100.428 82.4327 100.348 82.2834 100.23 82.1665C100.112 82.0495 99.9624 81.9701 99.7996 81.9382C99.6368 81.9064 99.4681 81.9235 99.315 81.9875C99.1619 82.0515 99.0313 82.1594 98.9395 82.2976C98.8478 82.4359 98.7991 82.5982 98.7996 82.7642C98.7987 82.8747 98.8199 82.9843 98.8619 83.0865C98.904 83.1887 98.966 83.2815 99.0444 83.3594C99.1228 83.4373 99.216 83.4988 99.3184 83.5402C99.4209 83.5816 99.5306 83.6021 99.6411 83.6005Z" fill="#1B93EB"/>
<path d="M76.3218 92.7263C76.4877 92.7258 76.6498 92.6761 76.7875 92.5835C76.9251 92.4909 77.0322 92.3595 77.0953 92.206C77.1583 92.0525 77.1744 91.8838 77.1415 91.7212C77.1086 91.5585 77.0282 91.4093 76.9105 91.2923C76.7928 91.1754 76.6431 91.0959 76.4803 91.0641C76.3174 91.0322 76.1488 91.0494 75.9957 91.1133C75.8426 91.1773 75.7119 91.2852 75.6202 91.4235C75.5284 91.5618 75.4797 91.7241 75.4803 91.89C75.4794 92.0005 75.5005 92.1101 75.5426 92.2123C75.5846 92.3146 75.6467 92.4074 75.7251 92.4853C75.8035 92.5632 75.8966 92.6246 75.9991 92.666C76.1016 92.7074 76.2113 92.7279 76.3218 92.7263Z" fill="#50E6FF"/>
<path d="M122.813 81.834C122.979 81.8335 123.141 81.7838 123.279 81.6911C123.416 81.5985 123.523 81.4672 123.586 81.3137C123.649 81.1602 123.666 80.9915 123.633 80.8288C123.6 80.6662 123.519 80.5169 123.402 80.4C123.284 80.283 123.134 80.2036 122.971 80.1717C122.809 80.1399 122.64 80.157 122.487 80.221C122.334 80.285 122.203 80.3929 122.111 80.5312C122.02 80.6694 121.971 80.8318 121.971 80.9977C121.971 81.1082 121.992 81.2178 122.034 81.32C122.076 81.4222 122.138 81.515 122.216 81.5929C122.295 81.6708 122.388 81.7323 122.49 81.7737C122.593 81.8151 122.703 81.8356 122.813 81.834Z" fill="#1F56A3"/>
<path d="M122.926 104.037C123.092 104.036 123.254 103.986 123.391 103.894C123.529 103.801 123.636 103.67 123.699 103.516C123.762 103.363 123.778 103.194 123.745 103.031C123.713 102.869 123.632 102.72 123.515 102.603C123.397 102.486 123.247 102.406 123.084 102.374C122.921 102.343 122.753 102.36 122.6 102.424C122.447 102.488 122.316 102.596 122.224 102.734C122.132 102.872 122.084 103.034 122.084 103.2C122.083 103.311 122.105 103.42 122.147 103.523C122.189 103.625 122.251 103.718 122.329 103.796C122.407 103.873 122.501 103.935 122.603 103.976C122.706 104.018 122.815 104.038 122.926 104.037Z" fill="#1F56A3"/>
<rect x="47.54" y="76.6013" width="16.5908" height="8.00896" rx="2" fill="url(#paint8_linear_1660_22794)"/>
<rect x="47.54" y="88.1757" width="16.5908" height="8.00896" rx="2" fill="url(#paint9_linear_1660_22794)"/>
<rect x="47.54" y="99.751" width="16.5908" height="8.00896" rx="2" fill="url(#paint10_linear_1660_22794)"/>
<defs>
<filter id="filter0_d_1660_22794" x="33.3989" y="49.9028" width="113.697" height="89.3892" filterUnits="userSpaceOnUse" color-interpolation-filters="sRGB">
<feFlood flood-opacity="0" result="BackgroundImageFix"/>
<feColorMatrix in="SourceAlpha" type="matrix" values="0 0 0 0 0 0 0 0 0 0 0 0 0 0 0 0 0 0 127 0" result="hardAlpha"/>
<feOffset dy="2"/>
<feGaussianBlur stdDeviation="2"/>
<feComposite in2="hardAlpha" operator="out"/>
<feColorMatrix type="matrix" values="0 0 0 0 0 0 0 0 0 0 0 0 0 0 0 0 0 0 0.25 0"/>
<feBlend mode="normal" in2="BackgroundImageFix" result="effect1_dropShadow_1660_22794"/>
<feBlend mode="normal" in="SourceGraphic" in2="effect1_dropShadow_1660_22794" result="shape"/>
</filter>
<filter id="filter1_ddddd_1660_22794" x="121.452" y="76.1008" width="18.6638" height="20.9203" filterUnits="userSpaceOnUse" color-interpolation-filters="sRGB">
<feFlood flood-opacity="0" result="BackgroundImageFix"/>
<feColorMatrix in="SourceAlpha" type="matrix" values="0 0 0 0 0 0 0 0 0 0 0 0 0 0 0 0 0 0 127 0" result="hardAlpha"/>
<feOffset/>
<feColorMatrix type="matrix" values="0 0 0 0 0 0 0 0 0 0 0 0 0 0 0 0 0 0 0.1 0"/>
<feBlend mode="normal" in2="BackgroundImageFix" result="effect1_dropShadow_1660_22794"/>
<feColorMatrix in="SourceAlpha" type="matrix" values="0 0 0 0 0 0 0 0 0 0 0 0 0 0 0 0 0 0 127 0" result="hardAlpha"/>
<feOffset/>
<feColorMatrix type="matrix" values="0 0 0 0 0 0 0 0 0 0 0 0 0 0 0 0 0 0 0.1 0"/>
<feBlend mode="normal" in2="effect1_dropShadow_1660_22794" result="effect2_dropShadow_1660_22794"/>
<feColorMatrix in="SourceAlpha" type="matrix" values="0 0 0 0 0 0 0 0 0 0 0 0 0 0 0 0 0 0 127 0" result="hardAlpha"/>
<feOffset dy="1"/>
<feGaussianBlur stdDeviation="0.5"/>
<feColorMatrix type="matrix" values="0 0 0 0 0 0 0 0 0 0 0 0 0 0 0 0 0 0 0.09 0"/>
<feBlend mode="normal" in2="effect2_dropShadow_1660_22794" result="effect3_dropShadow_1660_22794"/>
<feColorMatrix in="SourceAlpha" type="matrix" values="0 0 0 0 0 0 0 0 0 0 0 0 0 0 0 0 0 0 127 0" result="hardAlpha"/>
<feOffset dy="2"/>
<feGaussianBlur stdDeviation="0.5"/>
<feColorMatrix type="matrix" values="0 0 0 0 0 0 0 0 0 0 0 0 0 0 0 0 0 0 0.05 0"/>
<feBlend mode="normal" in2="effect3_dropShadow_1660_22794" result="effect4_dropShadow_1660_22794"/>
<feColorMatrix in="SourceAlpha" type="matrix" values="0 0 0 0 0 0 0 0 0 0 0 0 0 0 0 0 0 0 127 0" result="hardAlpha"/>
<feOffset dy="3"/>
<feGaussianBlur stdDeviation="0.5"/>
<feColorMatrix type="matrix" values="0 0 0 0 0 0 0 0 0 0 0 0 0 0 0 0 0 0 0.01 0"/>
<feBlend mode="normal" in2="effect4_dropShadow_1660_22794" result="effect5_dropShadow_1660_22794"/>
<feBlend mode="normal" in="SourceGraphic" in2="effect5_dropShadow_1660_22794" result="shape"/>
</filter>
<filter id="filter2_ddddd_1660_22794" x="121.453" y="97.2114" width="18.6638" height="15.1405" filterUnits="userSpaceOnUse" color-interpolation-filters="sRGB">
<feFlood flood-opacity="0" result="BackgroundImageFix"/>
<feColorMatrix in="SourceAlpha" type="matrix" values="0 0 0 0 0 0 0 0 0 0 0 0 0 0 0 0 0 0 127 0" result="hardAlpha"/>
<feOffset/>
<feColorMatrix type="matrix" values="0 0 0 0 0 0 0 0 0 0 0 0 0 0 0 0 0 0 0.1 0"/>
<feBlend mode="normal" in2="BackgroundImageFix" result="effect1_dropShadow_1660_22794"/>
<feColorMatrix in="SourceAlpha" type="matrix" values="0 0 0 0 0 0 0 0 0 0 0 0 0 0 0 0 0 0 127 0" result="hardAlpha"/>
<feOffset/>
<feColorMatrix type="matrix" values="0 0 0 0 0 0 0 0 0 0 0 0 0 0 0 0 0 0 0.1 0"/>
<feBlend mode="normal" in2="effect1_dropShadow_1660_22794" result="effect2_dropShadow_1660_22794"/>
<feColorMatrix in="SourceAlpha" type="matrix" values="0 0 0 0 0 0 0 0 0 0 0 0 0 0 0 0 0 0 127 0" result="hardAlpha"/>
<feOffset dy="1"/>
<feGaussianBlur stdDeviation="0.5"/>
<feColorMatrix type="matrix" values="0 0 0 0 0 0 0 0 0 0 0 0 0 0 0 0 0 0 0.09 0"/>
<feBlend mode="normal" in2="effect2_dropShadow_1660_22794" result="effect3_dropShadow_1660_22794"/>
<feColorMatrix in="SourceAlpha" type="matrix" values="0 0 0 0 0 0 0 0 0 0 0 0 0 0 0 0 0 0 127 0" result="hardAlpha"/>
<feOffset dy="1"/>
<feGaussianBlur stdDeviation="0.5"/>
<feColorMatrix type="matrix" values="0 0 0 0 0 0 0 0 0 0 0 0 0 0 0 0 0 0 0.05 0"/>
<feBlend mode="normal" in2="effect3_dropShadow_1660_22794" result="effect4_dropShadow_1660_22794"/>
<feColorMatrix in="SourceAlpha" type="matrix" values="0 0 0 0 0 0 0 0 0 0 0 0 0 0 0 0 0 0 127 0" result="hardAlpha"/>
<feOffset dy="2"/>
<feGaussianBlur stdDeviation="0.5"/>
<feColorMatrix type="matrix" values="0 0 0 0 0 0 0 0 0 0 0 0 0 0 0 0 0 0 0.01 0"/>
<feBlend mode="normal" in2="effect4_dropShadow_1660_22794" result="effect5_dropShadow_1660_22794"/>
<feBlend mode="normal" in="SourceGraphic" in2="effect5_dropShadow_1660_22794" result="shape"/>
</filter>
<filter id="filter3_ddddd_1660_22794" x="97.2058" y="75.0999" width="20.6772" height="27.601" filterUnits="userSpaceOnUse" color-interpolation-filters="sRGB">
<feFlood flood-opacity="0" result="BackgroundImageFix"/>
<feColorMatrix in="SourceAlpha" type="matrix" values="0 0 0 0 0 0 0 0 0 0 0 0 0 0 0 0 0 0 127 0" result="hardAlpha"/>
<feOffset/>
<feColorMatrix type="matrix" values="0 0 0 0 0 0 0 0 0 0 0 0 0 0 0 0 0 0 0.1 0"/>
<feBlend mode="normal" in2="BackgroundImageFix" result="effect1_dropShadow_1660_22794"/>
<feColorMatrix in="SourceAlpha" type="matrix" values="0 0 0 0 0 0 0 0 0 0 0 0 0 0 0 0 0 0 127 0" result="hardAlpha"/>
<feOffset/>
<feGaussianBlur stdDeviation="0.5"/>
<feColorMatrix type="matrix" values="0 0 0 0 0 0 0 0 0 0 0 0 0 0 0 0 0 0 0.1 0"/>
<feBlend mode="normal" in2="effect1_dropShadow_1660_22794" result="effect2_dropShadow_1660_22794"/>
<feColorMatrix in="SourceAlpha" type="matrix" values="0 0 0 0 0 0 0 0 0 0 0 0 0 0 0 0 0 0 127 0" result="hardAlpha"/>
<feOffset dy="1"/>
<feGaussianBlur stdDeviation="0.5"/>
<feColorMatrix type="matrix" values="0 0 0 0 0 0 0 0 0 0 0 0 0 0 0 0 0 0 0.09 0"/>
<feBlend mode="normal" in2="effect2_dropShadow_1660_22794" result="effect3_dropShadow_1660_22794"/>
<feColorMatrix in="SourceAlpha" type="matrix" values="0 0 0 0 0 0 0 0 0 0 0 0 0 0 0 0 0 0 127 0" result="hardAlpha"/>
<feOffset dy="2"/>
<feGaussianBlur stdDeviation="0.5"/>
<feColorMatrix type="matrix" values="0 0 0 0 0 0 0 0 0 0 0 0 0 0 0 0 0 0 0.05 0"/>
<feBlend mode="normal" in2="effect3_dropShadow_1660_22794" result="effect4_dropShadow_1660_22794"/>
<feColorMatrix in="SourceAlpha" type="matrix" values="0 0 0 0 0 0 0 0 0 0 0 0 0 0 0 0 0 0 127 0" result="hardAlpha"/>
<feOffset dy="4"/>
<feGaussianBlur stdDeviation="1"/>
<feColorMatrix type="matrix" values="0 0 0 0 0 0 0 0 0 0 0 0 0 0 0 0 0 0 0.01 0"/>
<feBlend mode="normal" in2="effect4_dropShadow_1660_22794" result="effect5_dropShadow_1660_22794"/>
<feBlend mode="normal" in="SourceGraphic" in2="effect5_dropShadow_1660_22794" result="shape"/>
</filter>
<filter id="filter4_ddddd_1660_22794" x="73.9595" y="75.0999" width="20.6772" height="39.595" filterUnits="userSpaceOnUse" color-interpolation-filters="sRGB">
<feFlood flood-opacity="0" result="BackgroundImageFix"/>
<feColorMatrix in="SourceAlpha" type="matrix" values="0 0 0 0 0 0 0 0 0 0 0 0 0 0 0 0 0 0 127 0" result="hardAlpha"/>
<feOffset/>
<feColorMatrix type="matrix" values="0 0 0 0 0 0 0 0 0 0 0 0 0 0 0 0 0 0 0.1 0"/>
<feBlend mode="normal" in2="BackgroundImageFix" result="effect1_dropShadow_1660_22794"/>
<feColorMatrix in="SourceAlpha" type="matrix" values="0 0 0 0 0 0 0 0 0 0 0 0 0 0 0 0 0 0 127 0" result="hardAlpha"/>
<feOffset/>
<feGaussianBlur stdDeviation="0.5"/>
<feColorMatrix type="matrix" values="0 0 0 0 0 0 0 0 0 0 0 0 0 0 0 0 0 0 0.1 0"/>
<feBlend mode="normal" in2="effect1_dropShadow_1660_22794" result="effect2_dropShadow_1660_22794"/>
<feColorMatrix in="SourceAlpha" type="matrix" values="0 0 0 0 0 0 0 0 0 0 0 0 0 0 0 0 0 0 127 0" result="hardAlpha"/>
<feOffset dy="1"/>
<feGaussianBlur stdDeviation="0.5"/>
<feColorMatrix type="matrix" values="0 0 0 0 0 0 0 0 0 0 0 0 0 0 0 0 0 0 0.09 0"/>
<feBlend mode="normal" in2="effect2_dropShadow_1660_22794" result="effect3_dropShadow_1660_22794"/>
<feColorMatrix in="SourceAlpha" type="matrix" values="0 0 0 0 0 0 0 0 0 0 0 0 0 0 0 0 0 0 127 0" result="hardAlpha"/>
<feOffset dy="3"/>
<feGaussianBlur stdDeviation="1"/>
<feColorMatrix type="matrix" values="0 0 0 0 0 0 0 0 0 0 0 0 0 0 0 0 0 0 0.05 0"/>
<feBlend mode="normal" in2="effect3_dropShadow_1660_22794" result="effect4_dropShadow_1660_22794"/>
<feColorMatrix in="SourceAlpha" type="matrix" values="0 0 0 0 0 0 0 0 0 0 0 0 0 0 0 0 0 0 127 0" result="hardAlpha"/>
<feOffset dy="6"/>
<feGaussianBlur stdDeviation="1"/>
<feColorMatrix type="matrix" values="0 0 0 0 0 0 0 0 0 0 0 0 0 0 0 0 0 0 0.01 0"/>
<feBlend mode="normal" in2="effect4_dropShadow_1660_22794" result="effect5_dropShadow_1660_22794"/>
<feBlend mode="normal" in="SourceGraphic" in2="effect5_dropShadow_1660_22794" result="shape"/>
</filter>
<linearGradient id="paint0_linear_1660_22794" x1="88.66" y1="187.569" x2="92.57" y2="-84.1509" gradientUnits="userSpaceOnUse">
<stop offset="0.2" stop-color="white"/>
<stop offset="0.63" stop-color="#F4F3F5"/>
<stop offset="1" stop-color="#E8E6DF"/>
</linearGradient>
<linearGradient id="paint1_linear_1660_22794" x1="86.9999" y1="19" x2="90" y2="180.68" gradientUnits="userSpaceOnUse">
<stop offset="0.2" stop-color="white"/>
<stop offset="0.63" stop-color="#F4F3F5"/>
<stop offset="1" stop-color="#E8E6DF"/>
</linearGradient>
<linearGradient id="paint2_linear_1660_22794" x1="93.2616" y1="-9.75414" x2="90.0344" y2="197.151" gradientUnits="userSpaceOnUse">
<stop offset="0.00520833" stop-color="#F8DF70"/>
<stop offset="0.192708" stop-color="#F2CC40"/>
<stop offset="0.583333" stop-color="#E7B116"/>
<stop offset="0.78125" stop-color="#E0A310"/>
<stop offset="0.942708" stop-color="#CA810E"/>
</linearGradient>
<linearGradient id="paint3_linear_1660_22794" x1="89.9028" y1="51.1228" x2="89.9159" y2="64.4928" gradientUnits="userSpaceOnUse">
<stop offset="0.01" stop-color="#E0A310"/>
<stop offset="1" stop-color="#CA810E"/>
</linearGradient>
<linearGradient id="paint4_linear_1660_22794" x1="130.73" y1="78.3343" x2="130.926" y2="98.8611" gradientUnits="userSpaceOnUse">
<stop offset="0.01" stop-color="#E0A310"/>
<stop offset="1" stop-color="#CA810E"/>
</linearGradient>
<linearGradient id="paint5_linear_1660_22794" x1="130.731" y1="99.4449" x2="130.926" y2="119.972" gradientUnits="userSpaceOnUse">
<stop offset="0.01" stop-color="#E0A310"/>
<stop offset="1" stop-color="#CA810E"/>
</linearGradient>
<linearGradient id="paint6_linear_1660_22794" x1="103.612" y1="76.8168" x2="104.203" y2="98.5299" gradientUnits="userSpaceOnUse">
<stop offset="0.01" stop-color="#F2CC40"/>
<stop offset="1" stop-color="#E7B116"/>
</linearGradient>
<linearGradient id="paint7_linear_1660_22794" x1="80.3655" y1="76.8168" x2="80.9565" y2="98.5299" gradientUnits="userSpaceOnUse">
<stop offset="0.01" stop-color="#F2CC40"/>
<stop offset="1" stop-color="#E7B116"/>
</linearGradient>
<linearGradient id="paint8_linear_1660_22794" x1="55.436" y1="77.2179" x2="55.5752" y2="86.3104" gradientUnits="userSpaceOnUse">
<stop stop-color="#F8E17B"/>
<stop offset="0.5302" stop-color="#F6D856"/>
<stop offset="1" stop-color="#F6D856"/>
</linearGradient>
<linearGradient id="paint9_linear_1660_22794" x1="55.3942" y1="88.4878" x2="55.4568" y2="97.9323" gradientUnits="userSpaceOnUse">
<stop offset="0.00753769" stop-color="#F2CC40"/>
<stop offset="1" stop-color="#E7B116"/>
</linearGradient>
<linearGradient id="paint10_linear_1660_22794" x1="55.6505" y1="100.484" x2="55.662" y2="107.129" gradientUnits="userSpaceOnUse">
<stop offset="0.00753769" stop-color="#E0A310"/>
<stop offset="1" stop-color="#CA810E"/>
</linearGradient>
</defs>
</svg>
