<svg width="103" height="103" viewBox="0 0 103 103" fill="none" xmlns="http://www.w3.org/2000/svg">
<path d="M51.1469 98.4425C25.2969 98.4425 4.33691 77.4925 4.33691 51.6325C4.33691 25.7725 25.2969 4.82251 51.1469 4.82251C76.9969 4.82251 97.9569 25.7825 97.9569 51.6325C97.9569 77.4825 76.9969 98.4425 51.1469 98.4425Z" fill="url(#paint0_linear_1310_1669)"/>
<path fill-rule="evenodd" clip-rule="evenodd" d="M97.0468 51.6326C97.0468 76.9826 76.4968 97.5325 51.1468 97.5325C25.7968 97.5325 5.24684 76.9826 5.24684 51.6326C5.24684 26.2826 25.7968 5.73256 51.1468 5.73256C76.4968 5.73256 97.0468 26.2826 97.0468 51.6326ZM51.1468 1.99255C78.5668 1.99255 100.787 24.2126 100.787 51.6326C100.787 79.0526 78.5568 101.273 51.1468 101.273C23.7268 101.273 1.50684 79.0426 1.50684 51.6326C1.50684 24.2126 23.7268 1.99255 51.1468 1.99255Z" fill="#F2F1F0"/>
<path fill-rule="evenodd" clip-rule="evenodd" d="M94.2364 51.6325C94.2364 75.4325 74.9464 94.7225 51.1464 94.7225C27.3464 94.7225 8.05641 75.4325 8.05641 51.6325C8.05641 27.8325 27.3464 8.5425 51.1464 8.5425C74.9464 8.5425 94.2364 27.8325 94.2364 51.6325ZM51.1464 4.80249C77.0064 4.80249 97.9764 25.7725 97.9764 51.6325C97.9764 77.4925 77.0064 98.4625 51.1464 98.4625C25.2864 98.4625 4.31641 77.4925 4.31641 51.6325C4.31641 25.7725 25.2764 4.80249 51.1464 4.80249Z" fill="url(#paint1_linear_1310_1669)"/>
<path opacity="0.15" d="M86.7599 70.0347C87.3181 70.0347 87.7681 69.5847 87.7681 69.0265V35.7629H52.6309V69.0308C52.6309 69.589 53.0809 70.0391 53.6391 70.0391H86.7599V70.0347Z" fill="#1F1D20"/>
<g filter="url(#filter0_d_1310_1669)">
<path d="M87.7638 36.061V35.5158C87.7638 34.8408 87.2186 34.2955 86.5435 34.2955H53.8511C53.1761 34.2955 52.6309 34.8408 52.6309 35.5158V36.1216V36.6755V67.9615C52.6309 68.6366 53.1761 69.1818 53.8511 69.1818H86.5522C87.2272 69.1818 87.7724 68.6366 87.7724 67.9615V36.1216C87.7724 36.1 87.7638 36.0827 87.7638 36.061Z" fill="white"/>
</g>
<path d="M73.3496 51.595L63.6172 49.8776V62.568C63.6172 63.1476 64.087 63.6174 64.6666 63.6174H81.4601C82.0397 63.6174 82.5095 63.1476 82.5095 62.568V57.8925L73.3496 51.595Z" fill="#185C37"/>
<path d="M73.3496 40.7173H64.6666C64.087 40.7173 63.6172 41.1871 63.6172 41.7667V46.4422L73.3496 52.1672L78.502 53.8846L82.5095 52.1672V46.4422L73.3496 40.7173Z" fill="#21A366"/>
<path d="M63.6172 46.4425H73.3496V52.1674H63.6172V46.4425Z" fill="#107C41"/>
<path opacity="0.1" d="M70.5827 45.2979H63.6172V59.6102H70.5827C71.1615 59.6083 71.6302 59.1396 71.6321 58.5608V46.3472C71.6302 45.7685 71.1615 45.2997 70.5827 45.2979Z" fill="black"/>
<path opacity="0.2" d="M70.0102 45.8699H63.6172V60.1822H70.0102C70.589 60.1803 71.0577 59.7116 71.0596 59.1328V46.9193C71.0577 46.3405 70.589 45.8718 70.0102 45.8699Z" fill="black"/>
<path opacity="0.2" d="M70.0102 45.8699H63.6172V59.0372H70.0102C70.589 59.0353 71.0577 58.5666 71.0596 57.9879V46.9193C71.0577 46.3405 70.589 45.8718 70.0102 45.8699Z" fill="black"/>
<path opacity="0.2" d="M69.4377 45.8699H63.6172V59.0372H69.4377C70.0165 59.0353 70.4852 58.5666 70.4871 57.9879V46.9193C70.4852 46.3405 70.0165 45.8718 69.4377 45.8699Z" fill="black"/>
<path d="M58.942 45.8699H69.4381C70.0176 45.8699 70.4874 46.3397 70.4874 46.9193V57.4153C70.4874 57.9949 70.0176 58.4647 69.4381 58.4647H58.942C58.3624 58.4647 57.8926 57.9949 57.8926 57.4154V46.9193C57.8926 46.3397 58.3624 45.8699 58.942 45.8699Z" fill="url(#paint2_linear_1310_1669)"/>
<path d="M61.1426 55.5784L63.3501 52.1577L61.3275 48.756H62.9545L64.0583 50.9315C64.1602 51.1381 64.23 51.2916 64.2678 51.3929H64.2821C64.3547 51.228 64.431 51.0679 64.5111 50.9126L65.691 48.7571H67.1847L65.1105 52.1389L67.2374 55.5784H65.6481L64.3732 53.1905C64.3131 53.0889 64.2621 52.9822 64.2209 52.8716H64.202C64.1646 52.98 64.1151 53.0837 64.0543 53.1808L62.7416 55.5784H61.1426Z" fill="white"/>
<path d="M81.4601 40.7173H73.3496V46.4422H82.5095V41.7667C82.5095 41.1871 82.0397 40.7173 81.4601 40.7173Z" fill="#33C481"/>
<path d="M73.3496 52.1676H82.5095V57.8925H73.3496V52.1676Z" fill="#107C41"/>
<g filter="url(#filter1_d_1310_1669)">
<path d="M62.0962 79.7242L54.0262 75.0842C53.5662 74.8242 52.9862 75.1542 52.9862 75.6842V78.0142L41.3262 77.9842V82.6842C41.5862 82.7042 41.4562 82.7042 41.3262 82.7142V82.7342H52.9862V85.0442C52.9862 85.5742 53.5562 85.9042 54.0162 85.6442L62.0862 81.0842C62.6162 80.7842 62.6162 80.0342 62.0962 79.7242Z" fill="white"/>
</g>
<path opacity="0.15" d="M50.0056 70.1898C50.5676 70.1898 51.0207 69.7367 51.0207 69.1747V35.6849H15.6445V69.179C15.6445 69.741 16.0976 70.1941 16.6596 70.1941H50.0056V70.1898Z" fill="#1F1D20"/>
<g filter="url(#filter2_d_1310_1669)">
<path d="M51.0163 35.9854V35.4365C51.0163 34.7568 50.4674 34.2079 49.7878 34.2079H16.8731C16.1935 34.2079 15.6445 34.7568 15.6445 35.4365V36.0464V36.6041V68.1028C15.6445 68.7824 16.1935 69.3314 16.8731 69.3314H49.7965C50.4761 69.3314 51.0251 68.7824 51.0251 68.1028V36.0464C51.0251 36.0246 51.0163 36.0072 51.0163 35.9854Z" fill="white"/>
</g>
<path d="M47.7919 46.7276C47.4689 45.0516 46.8753 42.1448 43.8987 41.3766C41.0005 40.6346 39.2198 42.1448 38.4167 43.524C38.7222 43.7946 38.9841 44.0827 39.211 44.3882C40.8172 46.5618 41.952 48.683 41.4021 51.8866C40.8609 55.0903 38.4429 58.0058 35.1869 57.9273C32.6467 57.8662 31.119 56.9932 30.8921 56.7226C30.8659 56.6964 30.8484 56.6266 30.8222 56.5393C30.3334 57.4646 29.5216 59.0097 28.8669 60.127C28.7272 60.3627 28.5701 60.6071 28.3955 60.8516C29.2946 61.611 30.3421 62.2482 31.4071 62.6934C32.8125 63.287 34.8377 63.802 37.6922 63.3569C40.5554 62.9117 44.1518 60.9912 46.4738 56.9234C48.8045 52.8381 48.0363 47.9934 47.7919 46.7276Z" fill="url(#paint3_linear_1310_1669)"/>
<path d="M27.592 60.0659C26.5532 58.9573 24.6851 55.9021 25.3224 52.3929C25.9596 48.8925 28.2292 46.8935 30.7432 46.5007C33.0827 46.134 35.7451 47.6093 35.7451 47.6093L35.1515 48.9449C35.1515 48.9449 37.5695 45.0516 38.3289 43.6462C38.3551 43.6026 38.3726 43.5677 38.3988 43.524C36.522 41.8393 33.2834 40.7568 30.7345 40.8878C27.7753 41.0362 25.558 42.0488 23.7336 43.4542C21.9092 44.8596 19.5785 47.4434 18.8191 51.6073C18.0509 55.7711 19.1857 58.6343 19.6047 59.7168C20.0237 60.7992 20.6609 62.58 23.2535 63.2172C25.4795 63.7671 27.3126 62.3268 28.4038 60.8341C28.1157 60.5897 27.8451 60.3365 27.592 60.0659Z" fill="url(#paint4_linear_1310_1669)"/>
<path d="M30.7524 46.5006C28.2384 46.8934 25.9688 48.8924 25.3228 52.3928C24.6856 55.8932 26.5537 58.9485 27.5924 60.0658C27.8456 60.3364 28.1162 60.5896 28.4043 60.834C28.5788 60.5896 28.736 60.3451 28.8756 60.1095C29.5216 58.9921 30.3422 57.447 30.831 56.5217C30.6477 55.7623 30.5342 53.1784 30.5342 53.1784L31.25 55.7186C31.25 55.7186 31.0841 56.0329 30.831 56.5217C30.8572 56.6178 30.8746 56.6789 30.9008 56.705C30.9532 56.7749 31.1016 56.8796 31.3198 57.0106L35.4051 47.4259C34.5933 47.0505 32.5768 46.2125 30.7524 46.5006Z" fill="url(#paint5_linear_1310_1669)"/>
<path d="M39.2107 44.3792C38.9837 44.0737 38.7218 43.7856 38.4163 43.515C38.3901 43.5587 38.3727 43.5936 38.3465 43.6372C37.8664 44.5276 36.7228 46.4044 35.9459 47.6701L31.0488 56.9581L33.1875 57.6826C33.7549 57.8048 34.427 57.9008 35.1865 57.9183C38.4425 57.9881 40.8605 55.0813 41.4017 51.8776C41.9429 48.674 40.8081 46.5528 39.2107 44.3792Z" fill="url(#paint6_linear_1310_1669)"/>
<path d="M30.5254 53.1871C30.5254 53.1871 30.6389 55.771 30.8222 56.5304C31.0753 56.0503 31.2412 55.7273 31.2412 55.7273L30.5254 53.1871Z" stroke="black" stroke-miterlimit="10"/>
<path d="M33.3616 57.421C36.2494 57.421 38.5905 55.0878 38.5905 52.2097C38.5905 49.3315 36.2494 46.9983 33.3616 46.9983C30.4738 46.9983 28.1328 49.3315 28.1328 52.2097C28.1328 55.0878 30.4738 57.421 33.3616 57.421Z" fill="url(#paint7_linear_1310_1669)"/>
<defs>
<filter id="filter0_d_1310_1669" x="48.6309" y="32.2955" width="43.1416" height="42.8862" filterUnits="userSpaceOnUse" color-interpolation-filters="sRGB">
<feFlood flood-opacity="0" result="BackgroundImageFix"/>
<feColorMatrix in="SourceAlpha" type="matrix" values="0 0 0 0 0 0 0 0 0 0 0 0 0 0 0 0 0 0 127 0" result="hardAlpha"/>
<feOffset dy="2"/>
<feGaussianBlur stdDeviation="2"/>
<feComposite in2="hardAlpha" operator="out"/>
<feColorMatrix type="matrix" values="0 0 0 0 0 0 0 0 0 0 0 0 0 0 0 0 0 0 0.25 0"/>
<feBlend mode="normal" in2="BackgroundImageFix" result="effect1_dropShadow_1310_1669"/>
<feBlend mode="normal" in="SourceGraphic" in2="effect1_dropShadow_1310_1669" result="shape"/>
</filter>
<filter id="filter1_d_1310_1669" x="37.3262" y="74.9935" width="29.1592" height="18.7413" filterUnits="userSpaceOnUse" color-interpolation-filters="sRGB">
<feFlood flood-opacity="0" result="BackgroundImageFix"/>
<feColorMatrix in="SourceAlpha" type="matrix" values="0 0 0 0 0 0 0 0 0 0 0 0 0 0 0 0 0 0 127 0" result="hardAlpha"/>
<feOffset dy="4"/>
<feGaussianBlur stdDeviation="2"/>
<feComposite in2="hardAlpha" operator="out"/>
<feColorMatrix type="matrix" values="0 0 0 0 0 0 0 0 0 0 0 0 0 0 0 0 0 0 0.25 0"/>
<feBlend mode="normal" in2="BackgroundImageFix" result="effect1_dropShadow_1310_1669"/>
<feBlend mode="normal" in="SourceGraphic" in2="effect1_dropShadow_1310_1669" result="shape"/>
</filter>
<filter id="filter2_d_1310_1669" x="11.6445" y="32.2079" width="43.3809" height="43.1235" filterUnits="userSpaceOnUse" color-interpolation-filters="sRGB">
<feFlood flood-opacity="0" result="BackgroundImageFix"/>
<feColorMatrix in="SourceAlpha" type="matrix" values="0 0 0 0 0 0 0 0 0 0 0 0 0 0 0 0 0 0 127 0" result="hardAlpha"/>
<feOffset dy="2"/>
<feGaussianBlur stdDeviation="2"/>
<feComposite in2="hardAlpha" operator="out"/>
<feColorMatrix type="matrix" values="0 0 0 0 0 0 0 0 0 0 0 0 0 0 0 0 0 0 0.25 0"/>
<feBlend mode="normal" in2="BackgroundImageFix" result="effect1_dropShadow_1310_1669"/>
<feBlend mode="normal" in="SourceGraphic" in2="effect1_dropShadow_1310_1669" result="shape"/>
</filter>
<linearGradient id="paint0_linear_1310_1669" x1="58.6683" y1="-48.5342" x2="65.7486" y2="110.866" gradientUnits="userSpaceOnUse">
<stop offset="0.474" stop-color="#50E6FF"/>
<stop offset="1" stop-color="#0078D4"/>
</linearGradient>
<linearGradient id="paint1_linear_1310_1669" x1="2.57681" y1="-19.9901" x2="98.1043" y2="120.891" gradientUnits="userSpaceOnUse">
<stop stop-color="#007ED8"/>
<stop offset="0.7065" stop-color="#002D4C"/>
</linearGradient>
<linearGradient id="paint2_linear_1310_1669" x1="60.0806" y1="45.0499" x2="68.2995" y2="59.2847" gradientUnits="userSpaceOnUse">
<stop stop-color="#18884F"/>
<stop offset="0.5" stop-color="#117E43"/>
<stop offset="1" stop-color="#0B6631"/>
</linearGradient>
<linearGradient id="paint3_linear_1310_1669" x1="35.98" y1="43.6457" x2="39.3091" y2="59.5512" gradientUnits="userSpaceOnUse">
<stop offset="0.045" stop-color="#58D570"/>
<stop offset="0.9625" stop-color="#088D30"/>
</linearGradient>
<linearGradient id="paint4_linear_1310_1669" x1="20.5618" y1="42.8649" x2="31.8066" y2="55.0714" gradientUnits="userSpaceOnUse">
<stop offset="0.0625" stop-color="#0D8851"/>
<stop offset="0.4775" stop-color="#0A6339"/>
<stop offset="0.8775" stop-color="#043D1F"/>
</linearGradient>
<linearGradient id="paint5_linear_1310_1669" x1="24.0447" y1="43.5553" x2="32.7742" y2="55.5399" gradientUnits="userSpaceOnUse">
<stop stop-color="#0A904E"/>
<stop offset="0.4325" stop-color="#088748"/>
<stop offset="0.8575" stop-color="#02632E"/>
<stop offset="0.9775" stop-color="#024D24"/>
</linearGradient>
<linearGradient id="paint6_linear_1310_1669" x1="36.0138" y1="44.5082" x2="36.4576" y2="58.8601" gradientUnits="userSpaceOnUse">
<stop stop-color="#0A904E"/>
<stop offset="0.4125" stop-color="#037737"/>
<stop offset="0.8425" stop-color="#01622B"/>
<stop offset="1" stop-color="#00210F"/>
</linearGradient>
<linearGradient id="paint7_linear_1310_1669" x1="30.0461" y1="47.217" x2="37.2221" y2="58.018" gradientUnits="userSpaceOnUse">
<stop offset="0.0925" stop-color="#A3E6A4"/>
<stop offset="0.9075" stop-color="#6AE66F"/>
</linearGradient>
</defs>
</svg>
