<svg width="103" height="102" viewBox="0 0 103 102" fill="none" xmlns="http://www.w3.org/2000/svg">
<path d="M51.0892 97.351C25.4927 97.351 4.73816 76.6064 4.73816 51C4.73816 25.3935 25.4927 4.6489 51.0892 4.6489C76.6858 4.6489 97.4403 25.4034 97.4403 51C97.4403 76.5965 76.6858 97.351 51.0892 97.351Z" fill="url(#paint0_linear_1645_2174)"/>
<path fill-rule="evenodd" clip-rule="evenodd" d="M96.5395 51.0004C96.5395 76.1018 76.191 96.4504 51.0895 96.4504C25.988 96.4504 5.63949 76.1018 5.63949 51.0004C5.63949 25.8989 25.988 5.55038 51.0895 5.55038C76.191 5.55038 96.5395 25.8989 96.5395 51.0004ZM51.0895 1.84705C78.2407 1.84705 100.243 23.8492 100.243 51.0004C100.243 78.1516 78.2308 100.154 51.0895 100.154C23.9383 100.154 1.93616 78.1417 1.93616 51.0004C1.93616 23.8492 23.9383 1.84705 51.0895 1.84705Z" fill="#F2F1F0"/>
<path fill-rule="evenodd" clip-rule="evenodd" d="M93.7568 50.9999C93.7568 74.5666 74.6559 93.6675 51.0893 93.6675C27.5226 93.6675 8.42172 74.5666 8.42172 50.9999C8.42172 27.4333 27.5226 8.3324 51.0893 8.3324C74.6559 8.3324 93.7568 27.4333 93.7568 50.9999ZM51.0893 4.62906C76.6957 4.62906 97.4601 25.3935 97.4601 50.9999C97.4601 76.6064 76.6957 97.3708 51.0893 97.3708C25.4828 97.3708 4.71838 76.6064 4.71838 50.9999C4.71838 25.3935 25.4729 4.62906 51.0893 4.62906Z" fill="url(#paint1_linear_1645_2174)"/>
<path d="M23.2721 67.0471C20.6938 67.0499 18.2109 66.0746 16.3233 64.3182C14.4358 62.5618 13.2841 60.155 13.1015 57.5832C12.9189 55.0113 13.719 52.4659 15.3395 50.4604C16.9599 48.4549 19.2804 47.1387 21.8332 46.7771C21.4191 45.1315 21.2063 43.4418 21.1993 41.7449C21.204 37.1956 22.7286 32.7787 25.5308 29.1947C28.3329 25.6108 32.2517 23.0654 36.6656 21.9634C41.0794 20.8613 45.735 21.2657 49.8929 23.1118C54.0508 24.958 57.4728 28.1405 59.6153 32.1536C61.3758 31.3018 63.3051 30.858 65.2609 30.8553C68.6448 30.8606 71.8888 32.2067 74.2826 34.5985C76.6763 36.9904 78.0252 40.2333 78.0331 43.6172C78.0248 44.6756 77.8934 45.7291 77.641 46.757C78.0253 46.7153 78.4113 46.6987 78.7978 46.7068C80.133 46.6921 81.4576 46.9431 82.6948 47.4455C83.932 47.9478 85.0571 48.6914 86.0041 49.6328C86.9511 50.5742 87.7019 51.6947 88.2116 52.9288C88.7213 54.163 88.9801 55.4862 88.9734 56.8215C88.9707 59.529 87.8931 62.125 85.9776 64.0386C84.0621 65.9522 81.4651 67.027 78.7575 67.027L23.2721 67.0471Z" fill="url(#paint2_linear_1645_2174)"/>
<path opacity="0.6" d="M23.2719 67.0471C20.6936 67.0499 18.2106 66.0746 16.3231 64.3182C14.4355 62.5618 13.2839 60.155 13.1013 57.5832C12.9187 55.0113 13.7188 52.4659 15.3392 50.4604C16.9597 48.4549 19.2801 47.1387 21.833 46.7771C21.4188 45.1315 21.2061 43.4418 21.199 41.7449C21.2038 37.1956 22.7284 32.7787 25.5305 29.1947C28.3326 25.6108 32.2515 23.0654 36.6653 21.9634C41.0792 20.8613 45.7348 21.2657 49.8926 23.1118C54.0505 24.958 57.4725 28.1405 59.6151 32.1536C61.3756 31.3018 63.3049 30.858 65.2606 30.8553C68.6446 30.8606 71.8886 32.2067 74.2823 34.5985C76.6761 36.9904 78.0249 40.2333 78.0329 43.6172C78.0245 44.6756 77.8932 45.7291 77.6407 46.757C78.0251 46.7153 78.4111 46.6987 78.7976 46.7068C80.1328 46.6921 81.4574 46.9431 82.6946 47.4455C83.9318 47.9478 85.0569 48.6914 86.0039 49.6328C86.9509 50.5742 87.7017 51.6947 88.2114 52.9288C88.7211 54.163 88.9799 55.4862 88.9731 56.8215C88.9704 59.529 87.8928 62.125 85.9774 64.0386C84.0619 65.9522 81.4648 67.027 78.7573 67.027L23.2719 67.0471Z" fill="url(#paint3_linear_1645_2174)"/>
<path d="M23.2719 67.0471C20.6936 67.0499 18.2106 66.0746 16.3231 64.3182C14.4355 62.5618 13.2839 60.155 13.1013 57.5832C12.9187 55.0113 13.7188 52.4659 15.3392 50.4604C16.9597 48.4549 19.2801 47.1387 21.833 46.7771C21.4188 45.1315 21.2061 43.4418 21.199 41.7449C21.2038 37.1956 22.7284 32.7787 25.5305 29.1947C28.3326 25.6108 32.2515 23.0654 36.6653 21.9634C41.0792 20.8613 45.7348 21.2657 49.8926 23.1118C54.0505 24.958 57.4725 28.1405 59.6151 32.1536C61.3756 31.3018 63.3049 30.858 65.2606 30.8553C68.6446 30.8606 71.8886 32.2067 74.2823 34.5985C76.6761 36.9904 78.0249 40.2333 78.0329 43.6172C78.0245 44.6756 77.8932 45.7291 77.6407 46.757C78.0251 46.7153 78.4111 46.6987 78.7976 46.7068C80.1328 46.6921 81.4574 46.9431 82.6946 47.4455C83.9318 47.9478 85.0569 48.6914 86.0039 49.6328C86.9509 50.5742 87.7017 51.6947 88.2114 52.9288C88.7211 54.163 88.9799 55.4862 88.9731 56.8215C88.9704 59.529 87.8928 62.125 85.9774 64.0386C84.0619 65.9522 81.4648 67.027 78.7573 67.027L23.2719 67.0471Z" stroke="white" stroke-miterlimit="10" stroke-linejoin="round"/>
<path opacity="0.25" d="M21.3582 44.1607C21.2638 44.9357 21.2099 45.7149 21.197 46.4955C21.197 46.6263 21.197 46.7573 21.197 46.8881C21.3996 46.8407 21.6039 46.8033 21.8103 46.777C21.6016 45.9158 21.4511 45.042 21.3582 44.1607Z" fill="url(#paint4_linear_1645_2174)"/>
<path d="M35.9113 37.7071H71.9156C72.1664 37.7071 72.3694 37.9101 72.3694 38.1608V74.1174C72.3694 74.3921 72.1425 74.6309 71.8559 74.6309H35.971C35.6844 74.6189 35.4575 74.3921 35.4575 74.1174V38.1608C35.4575 37.9101 35.6605 37.7071 35.9113 37.7071Z" fill="white"/>
<g filter="url(#filter0_ddddd_1645_2174)">
<path d="M35.971 74.6191H71.8679C72.1425 74.6191 72.3813 74.3922 72.3813 74.1056V41.1703H35.4575V74.1175C35.4575 74.3922 35.6844 74.6191 35.971 74.6191Z" fill="white"/>
</g>
<path d="M35.4575 41.6239H72.3694V38.1608C72.3694 37.9101 72.1664 37.7071 71.9156 37.7071H35.9113C35.6605 37.7071 35.4575 37.9101 35.4575 38.1608V41.6239Z" fill="url(#paint5_linear_1645_2174)"/>
<path d="M44.1151 64.815H40.246V68.6841H44.1151V64.815Z" fill="#8ACCFF"/>
<path d="M49.9668 64.815H46.0977V68.6841H49.9668V64.815Z" fill="#8ACCFF"/>
<path d="M55.7828 64.815H51.9137V68.6841H55.7828V64.815Z" fill="#8ACCFF"/>
<path d="M61.6098 64.815H57.7407V68.6841H61.6098V64.815Z" fill="#0078D4"/>
<path d="M67.4492 64.815H63.5801V68.6841H67.4492V64.815Z" fill="#8ACCFF"/>
<path d="M44.1151 58.9996H40.246V62.8688H44.1151V58.9996Z" fill="#92D5FF"/>
<path d="M49.9668 58.9996H46.0977V62.8688H49.9668V58.9996Z" fill="#2195DC"/>
<path d="M55.7828 58.9996H51.9137V62.8688H55.7828V58.9996Z" fill="#92D5FF"/>
<path d="M61.6098 58.9996H57.7407V62.8688H61.6098V58.9996Z" fill="#92D5FF"/>
<path d="M67.4492 58.9996H63.5801V62.8688H67.4492V58.9996Z" fill="#92D5FF"/>
<path d="M44.1151 53.1829H40.246V57.052H44.1151V53.1829Z" fill="#BFECFF"/>
<path d="M49.9668 53.1829H46.0977V57.052H49.9668V53.1829Z" fill="#BFECFF"/>
<path d="M55.7828 53.1829H51.9137V57.052H55.7828V53.1829Z" fill="#32B0E7"/>
<path d="M61.6098 53.1829H57.7407V57.052H61.6098V53.1829Z" fill="#BFECFF"/>
<path d="M67.4492 53.1829H63.5801V57.052H67.4492V53.1829Z" fill="#BFECFF"/>
<path d="M44.1151 47.4044H40.246V51.2735H44.1151V47.4044Z" fill="#50E6FF"/>
<path d="M49.9668 47.4044H46.0977V51.2735H49.9668V47.4044Z" fill="#ADF1FF"/>
<path d="M55.7828 47.4044H51.9137V51.2735H55.7828V47.4044Z" fill="#ADF1FF"/>
<path d="M61.6098 47.4044H57.7407V51.2735H61.6098V47.4044Z" fill="#ADF1FF"/>
<path d="M67.4492 47.4044H63.5801V51.2735H67.4492V47.4044Z" fill="#ADF1FF"/>
<path d="M37.7399 40.747C38.33 40.747 38.8127 40.271 38.8127 39.6742C38.8127 39.0775 38.3233 38.6081 37.7399 38.6081C37.1499 38.6081 36.6671 39.0842 36.6671 39.6809C36.6671 40.2777 37.1365 40.747 37.7399 40.747Z" fill="#32B0E7"/>
<g filter="url(#filter1_ddddd_1645_2174)">
<path d="M38.2959 53.6543C38.2959 53.102 37.8482 52.6543 37.2959 52.6543H22.4341C21.8818 52.6543 21.4341 53.102 21.4341 53.6543V76.1783C21.4341 76.7306 21.8818 77.1783 22.4341 77.1783H37.2959C37.8482 77.1783 38.2959 76.7306 38.2959 76.1783V53.6543Z" fill="url(#paint6_linear_1645_2174)"/>
</g>
<g filter="url(#filter2_ddddd_1645_2174)">
<path d="M35.2258 55.7227H24.5015V60.316H35.2323V55.7227H35.2258Z" fill="#C3F1FF"/>
<path d="M26.0326 63.3848H24.5015V64.9159H26.0326V63.3848Z" fill="#2BC0E4"/>
<path d="M26.0326 67.9785H24.5015V69.5096H26.0326V67.9785Z" fill="#057DD8"/>
<path d="M26.0326 72.5859H24.5015V74.1171H26.0326V72.5859Z" fill="#2056A3"/>
<path d="M30.6341 63.3848H29.103V64.9159H30.6341V63.3848Z" fill="#2BC0E4"/>
<path d="M30.6341 67.9785H29.103V69.5096H30.6341V67.9785Z" fill="#057DD8"/>
<path d="M30.6341 72.5859H29.103V74.1171H30.6341V72.5859Z" fill="#2056A3"/>
<path d="M35.225 63.3848H33.6938V64.9159H35.225V63.3848Z" fill="#2BC0E4"/>
<path d="M35.225 67.9785H33.6938V69.5096H35.225V67.9785Z" fill="#057DD8"/>
<path d="M35.225 72.5859H33.6938V74.1171H35.225V72.5859Z" fill="#2056A3"/>
</g>
<g filter="url(#filter3_ddddd_1645_2174)">
<path d="M70.7295 76.6182C74.1249 76.6182 76.8755 73.8676 76.8755 70.4722C76.8755 67.0768 74.1249 64.3262 70.7295 64.3262C67.3341 64.3262 64.5835 67.0768 64.5835 70.4722C64.5917 73.8676 67.3423 76.6182 70.7295 76.6182Z" fill="#002D4C"/>
<path opacity="0.3" d="M74.0761 67.7864L69.0157 72.8714L67.4976 71.3451L66.4855 72.3653L69.0157 74.9037L75.0964 68.8067L74.0761 67.7864Z" fill="#1F1D20"/>
<path d="M74.0761 67.3544L69.0157 72.4393L67.4976 70.913L66.4855 71.9333L69.0157 74.4716L75.0964 68.3746L74.0761 67.3544Z" fill="#84ECFD"/>
</g>
<defs>
<filter id="filter0_ddddd_1645_2174" x="30.4575" y="40.1703" width="46.9238" height="51.4488" filterUnits="userSpaceOnUse" color-interpolation-filters="sRGB">
<feFlood flood-opacity="0" result="BackgroundImageFix"/>
<feColorMatrix in="SourceAlpha" type="matrix" values="0 0 0 0 0 0 0 0 0 0 0 0 0 0 0 0 0 0 127 0" result="hardAlpha"/>
<feOffset/>
<feColorMatrix type="matrix" values="0 0 0 0 0 0 0 0 0 0 0 0 0 0 0 0 0 0 0.1 0"/>
<feBlend mode="normal" in2="BackgroundImageFix" result="effect1_dropShadow_1645_2174"/>
<feColorMatrix in="SourceAlpha" type="matrix" values="0 0 0 0 0 0 0 0 0 0 0 0 0 0 0 0 0 0 127 0" result="hardAlpha"/>
<feOffset dy="1"/>
<feGaussianBlur stdDeviation="1"/>
<feColorMatrix type="matrix" values="0 0 0 0 0 0 0 0 0 0 0 0 0 0 0 0 0 0 0.1 0"/>
<feBlend mode="normal" in2="effect1_dropShadow_1645_2174" result="effect2_dropShadow_1645_2174"/>
<feColorMatrix in="SourceAlpha" type="matrix" values="0 0 0 0 0 0 0 0 0 0 0 0 0 0 0 0 0 0 127 0" result="hardAlpha"/>
<feOffset dy="3"/>
<feGaussianBlur stdDeviation="1.5"/>
<feColorMatrix type="matrix" values="0 0 0 0 0 0 0 0 0 0 0 0 0 0 0 0 0 0 0.09 0"/>
<feBlend mode="normal" in2="effect2_dropShadow_1645_2174" result="effect3_dropShadow_1645_2174"/>
<feColorMatrix in="SourceAlpha" type="matrix" values="0 0 0 0 0 0 0 0 0 0 0 0 0 0 0 0 0 0 127 0" result="hardAlpha"/>
<feOffset dy="7"/>
<feGaussianBlur stdDeviation="2"/>
<feColorMatrix type="matrix" values="0 0 0 0 0 0 0 0 0 0 0 0 0 0 0 0 0 0 0.05 0"/>
<feBlend mode="normal" in2="effect3_dropShadow_1645_2174" result="effect4_dropShadow_1645_2174"/>
<feColorMatrix in="SourceAlpha" type="matrix" values="0 0 0 0 0 0 0 0 0 0 0 0 0 0 0 0 0 0 127 0" result="hardAlpha"/>
<feOffset dy="12"/>
<feGaussianBlur stdDeviation="2.5"/>
<feColorMatrix type="matrix" values="0 0 0 0 0 0 0 0 0 0 0 0 0 0 0 0 0 0 0.01 0"/>
<feBlend mode="normal" in2="effect4_dropShadow_1645_2174" result="effect5_dropShadow_1645_2174"/>
<feBlend mode="normal" in="SourceGraphic" in2="effect5_dropShadow_1645_2174" result="shape"/>
</filter>
<filter id="filter1_ddddd_1645_2174" x="18.4341" y="52.6543" width="22.8618" height="35.524" filterUnits="userSpaceOnUse" color-interpolation-filters="sRGB">
<feFlood flood-opacity="0" result="BackgroundImageFix"/>
<feColorMatrix in="SourceAlpha" type="matrix" values="0 0 0 0 0 0 0 0 0 0 0 0 0 0 0 0 0 0 127 0" result="hardAlpha"/>
<feOffset/>
<feColorMatrix type="matrix" values="0 0 0 0 0 0 0 0 0 0 0 0 0 0 0 0 0 0 0.1 0"/>
<feBlend mode="normal" in2="BackgroundImageFix" result="effect1_dropShadow_1645_2174"/>
<feColorMatrix in="SourceAlpha" type="matrix" values="0 0 0 0 0 0 0 0 0 0 0 0 0 0 0 0 0 0 127 0" result="hardAlpha"/>
<feOffset dy="1"/>
<feGaussianBlur stdDeviation="0.5"/>
<feColorMatrix type="matrix" values="0 0 0 0 0 0 0 0 0 0 0 0 0 0 0 0 0 0 0.1 0"/>
<feBlend mode="normal" in2="effect1_dropShadow_1645_2174" result="effect2_dropShadow_1645_2174"/>
<feColorMatrix in="SourceAlpha" type="matrix" values="0 0 0 0 0 0 0 0 0 0 0 0 0 0 0 0 0 0 127 0" result="hardAlpha"/>
<feOffset dy="2"/>
<feGaussianBlur stdDeviation="1"/>
<feColorMatrix type="matrix" values="0 0 0 0 0 0 0 0 0 0 0 0 0 0 0 0 0 0 0.09 0"/>
<feBlend mode="normal" in2="effect2_dropShadow_1645_2174" result="effect3_dropShadow_1645_2174"/>
<feColorMatrix in="SourceAlpha" type="matrix" values="0 0 0 0 0 0 0 0 0 0 0 0 0 0 0 0 0 0 127 0" result="hardAlpha"/>
<feOffset dy="5"/>
<feGaussianBlur stdDeviation="1.5"/>
<feColorMatrix type="matrix" values="0 0 0 0 0 0 0 0 0 0 0 0 0 0 0 0 0 0 0.05 0"/>
<feBlend mode="normal" in2="effect3_dropShadow_1645_2174" result="effect4_dropShadow_1645_2174"/>
<feColorMatrix in="SourceAlpha" type="matrix" values="0 0 0 0 0 0 0 0 0 0 0 0 0 0 0 0 0 0 127 0" result="hardAlpha"/>
<feOffset dy="8"/>
<feGaussianBlur stdDeviation="1.5"/>
<feColorMatrix type="matrix" values="0 0 0 0 0 0 0 0 0 0 0 0 0 0 0 0 0 0 0.01 0"/>
<feBlend mode="normal" in2="effect4_dropShadow_1645_2174" result="effect5_dropShadow_1645_2174"/>
<feBlend mode="normal" in="SourceGraphic" in2="effect5_dropShadow_1645_2174" result="shape"/>
</filter>
<filter id="filter2_ddddd_1645_2174" x="22.5015" y="54.7227" width="14.7308" height="27.3944" filterUnits="userSpaceOnUse" color-interpolation-filters="sRGB">
<feFlood flood-opacity="0" result="BackgroundImageFix"/>
<feColorMatrix in="SourceAlpha" type="matrix" values="0 0 0 0 0 0 0 0 0 0 0 0 0 0 0 0 0 0 127 0" result="hardAlpha"/>
<feOffset/>
<feColorMatrix type="matrix" values="0 0 0 0 0 0 0 0 0 0 0 0 0 0 0 0 0 0 0.1 0"/>
<feBlend mode="normal" in2="BackgroundImageFix" result="effect1_dropShadow_1645_2174"/>
<feColorMatrix in="SourceAlpha" type="matrix" values="0 0 0 0 0 0 0 0 0 0 0 0 0 0 0 0 0 0 127 0" result="hardAlpha"/>
<feOffset/>
<feGaussianBlur stdDeviation="0.5"/>
<feColorMatrix type="matrix" values="0 0 0 0 0 0 0 0 0 0 0 0 0 0 0 0 0 0 0.1 0"/>
<feBlend mode="normal" in2="effect1_dropShadow_1645_2174" result="effect2_dropShadow_1645_2174"/>
<feColorMatrix in="SourceAlpha" type="matrix" values="0 0 0 0 0 0 0 0 0 0 0 0 0 0 0 0 0 0 127 0" result="hardAlpha"/>
<feOffset dy="1"/>
<feGaussianBlur stdDeviation="0.5"/>
<feColorMatrix type="matrix" values="0 0 0 0 0 0 0 0 0 0 0 0 0 0 0 0 0 0 0.09 0"/>
<feBlend mode="normal" in2="effect2_dropShadow_1645_2174" result="effect3_dropShadow_1645_2174"/>
<feColorMatrix in="SourceAlpha" type="matrix" values="0 0 0 0 0 0 0 0 0 0 0 0 0 0 0 0 0 0 127 0" result="hardAlpha"/>
<feOffset dy="3"/>
<feGaussianBlur stdDeviation="1"/>
<feColorMatrix type="matrix" values="0 0 0 0 0 0 0 0 0 0 0 0 0 0 0 0 0 0 0.05 0"/>
<feBlend mode="normal" in2="effect3_dropShadow_1645_2174" result="effect4_dropShadow_1645_2174"/>
<feColorMatrix in="SourceAlpha" type="matrix" values="0 0 0 0 0 0 0 0 0 0 0 0 0 0 0 0 0 0 127 0" result="hardAlpha"/>
<feOffset dy="6"/>
<feGaussianBlur stdDeviation="1"/>
<feColorMatrix type="matrix" values="0 0 0 0 0 0 0 0 0 0 0 0 0 0 0 0 0 0 0.01 0"/>
<feBlend mode="normal" in2="effect4_dropShadow_1645_2174" result="effect5_dropShadow_1645_2174"/>
<feBlend mode="normal" in="SourceGraphic" in2="effect5_dropShadow_1645_2174" result="shape"/>
</filter>
<filter id="filter3_ddddd_1645_2174" x="61.5835" y="64.3262" width="18.292" height="23.292" filterUnits="userSpaceOnUse" color-interpolation-filters="sRGB">
<feFlood flood-opacity="0" result="BackgroundImageFix"/>
<feColorMatrix in="SourceAlpha" type="matrix" values="0 0 0 0 0 0 0 0 0 0 0 0 0 0 0 0 0 0 127 0" result="hardAlpha"/>
<feOffset/>
<feColorMatrix type="matrix" values="0 0 0 0 0 0 0 0 0 0 0 0 0 0 0 0 0 0 0.1 0"/>
<feBlend mode="normal" in2="BackgroundImageFix" result="effect1_dropShadow_1645_2174"/>
<feColorMatrix in="SourceAlpha" type="matrix" values="0 0 0 0 0 0 0 0 0 0 0 0 0 0 0 0 0 0 127 0" result="hardAlpha"/>
<feOffset dy="1"/>
<feGaussianBlur stdDeviation="0.5"/>
<feColorMatrix type="matrix" values="0 0 0 0 0 0 0 0 0 0 0 0 0 0 0 0 0 0 0.1 0"/>
<feBlend mode="normal" in2="effect1_dropShadow_1645_2174" result="effect2_dropShadow_1645_2174"/>
<feColorMatrix in="SourceAlpha" type="matrix" values="0 0 0 0 0 0 0 0 0 0 0 0 0 0 0 0 0 0 127 0" result="hardAlpha"/>
<feOffset dy="2"/>
<feGaussianBlur stdDeviation="1"/>
<feColorMatrix type="matrix" values="0 0 0 0 0 0 0 0 0 0 0 0 0 0 0 0 0 0 0.09 0"/>
<feBlend mode="normal" in2="effect2_dropShadow_1645_2174" result="effect3_dropShadow_1645_2174"/>
<feColorMatrix in="SourceAlpha" type="matrix" values="0 0 0 0 0 0 0 0 0 0 0 0 0 0 0 0 0 0 127 0" result="hardAlpha"/>
<feOffset dy="5"/>
<feGaussianBlur stdDeviation="1.5"/>
<feColorMatrix type="matrix" values="0 0 0 0 0 0 0 0 0 0 0 0 0 0 0 0 0 0 0.05 0"/>
<feBlend mode="normal" in2="effect3_dropShadow_1645_2174" result="effect4_dropShadow_1645_2174"/>
<feColorMatrix in="SourceAlpha" type="matrix" values="0 0 0 0 0 0 0 0 0 0 0 0 0 0 0 0 0 0 127 0" result="hardAlpha"/>
<feOffset dy="8"/>
<feGaussianBlur stdDeviation="1.5"/>
<feColorMatrix type="matrix" values="0 0 0 0 0 0 0 0 0 0 0 0 0 0 0 0 0 0 0.01 0"/>
<feBlend mode="normal" in2="effect4_dropShadow_1645_2174" result="effect5_dropShadow_1645_2174"/>
<feBlend mode="normal" in="SourceGraphic" in2="effect5_dropShadow_1645_2174" result="shape"/>
</filter>
<linearGradient id="paint0_linear_1645_2174" x1="25.3745" y1="9.49706" x2="100.281" y2="148.693" gradientUnits="userSpaceOnUse">
<stop offset="0.0001" stop-color="#50E6FF"/>
<stop offset="0.623265" stop-color="#0078D4"/>
</linearGradient>
<linearGradient id="paint1_linear_1645_2174" x1="15.6761" y1="11.2232" x2="83.2186" y2="98.6208" gradientUnits="userSpaceOnUse">
<stop stop-color="#007ED8"/>
<stop offset="0.915361" stop-color="#002D4C"/>
</linearGradient>
<linearGradient id="paint2_linear_1645_2174" x1="51.0247" y1="21.3555" x2="51.0247" y2="67.047" gradientUnits="userSpaceOnUse">
<stop stop-color="#00ABDE"/>
<stop offset="1" stop-color="#007ED8"/>
</linearGradient>
<linearGradient id="paint3_linear_1645_2174" x1="49.3491" y1="-10.6307" x2="51.3519" y2="70.6502" gradientUnits="userSpaceOnUse">
<stop offset="0.57" stop-color="white" stop-opacity="0"/>
<stop offset="0.78" stop-color="white" stop-opacity="0.43"/>
<stop offset="0.9" stop-color="white" stop-opacity="0.5"/>
<stop offset="1" stop-color="white"/>
</linearGradient>
<linearGradient id="paint4_linear_1645_2174" x1="5306.4" y1="15236.7" x2="5330.26" y2="15019" gradientUnits="userSpaceOnUse">
<stop offset="0.57" stop-color="white" stop-opacity="0"/>
<stop offset="0.78" stop-color="white" stop-opacity="0.43"/>
<stop offset="0.9" stop-color="white" stop-opacity="0.5"/>
<stop offset="1" stop-color="white"/>
</linearGradient>
<linearGradient id="paint5_linear_1645_2174" x1="28.7578" y1="13.9266" x2="70.7929" y2="55.5772" gradientUnits="userSpaceOnUse">
<stop stop-color="#007ED8"/>
<stop offset="0.7065" stop-color="#002D4C"/>
</linearGradient>
<linearGradient id="paint6_linear_1645_2174" x1="9.83442" y1="45.2575" x2="17.392" y2="81.9656" gradientUnits="userSpaceOnUse">
<stop stop-color="#007ED8"/>
<stop offset="0.886694" stop-color="#002D4C"/>
</linearGradient>
</defs>
</svg>
