<svg width="103" height="103" viewBox="0 0 103 103" fill="none" xmlns="http://www.w3.org/2000/svg">
<path d="M51.7949 98.1005C25.9449 98.1005 4.98486 77.1505 4.98486 51.2905C4.98486 25.4305 25.9449 4.48047 51.7949 4.48047C77.6449 4.48047 98.6049 25.4405 98.6049 51.2905C98.6049 77.1405 77.6449 98.1005 51.7949 98.1005Z" fill="url(#paint0_linear)"/>
<path fill-rule="evenodd" clip-rule="evenodd" d="M97.6948 51.2914C97.6948 76.6414 77.1448 97.1914 51.7948 97.1914C26.4448 97.1914 5.89478 76.6414 5.89478 51.2914C5.89478 25.9414 26.4448 5.39137 51.7948 5.39137C77.1448 5.39137 97.6948 25.9414 97.6948 51.2914ZM51.7948 1.65137C79.2148 1.65137 101.435 23.8714 101.435 51.2914C101.435 78.7114 79.2048 100.931 51.7948 100.931C24.3748 100.931 2.15479 78.7014 2.15479 51.2914C2.15479 23.8714 24.3748 1.65137 51.7948 1.65137Z" fill="#F2F1F0"/>
<path fill-rule="evenodd" clip-rule="evenodd" d="M94.8848 51.2909C94.8848 75.0909 75.5948 94.3809 51.7948 94.3809C27.9948 94.3809 8.70484 75.0909 8.70484 51.2909C8.70484 27.4909 27.9948 8.20094 51.7948 8.20094C75.5948 8.20094 94.8848 27.4909 94.8848 51.2909ZM51.7948 4.46094C77.6548 4.46094 98.6248 25.4309 98.6248 51.2909C98.6248 77.1509 77.6548 98.1209 51.7948 98.1209C25.9348 98.1209 4.96484 77.1509 4.96484 51.2909C4.96484 25.4309 25.9248 4.46094 51.7948 4.46094Z" fill="#0078D4"/>
<path fill-rule="evenodd" clip-rule="evenodd" d="M32.6349 21.4715C32.0349 21.4615 31.4749 21.7215 31.0849 22.1815L26.7949 27.1915L73.9049 75.3715L66.8649 81.8715H70.3849C70.9749 81.8715 71.5549 81.6615 72.0049 81.2715L76.1249 77.4715C76.5449 77.0815 76.7949 76.5215 76.7949 75.9415V24.4115C76.8549 22.8215 75.6249 21.4915 74.0449 21.4315C73.8649 21.4215 73.6949 21.4315 73.5149 21.4615H32.6349V21.4715Z" fill="#F5AE06"/>
<path fill-rule="evenodd" clip-rule="evenodd" d="M29.855 27.1314L32.455 24.1214C32.765 23.7414 33.205 23.5114 33.685 23.4814H71.905C72.915 23.4814 73.735 24.3114 73.735 25.3414V74.6614C73.735 75.1814 73.515 75.6714 73.135 76.0214L69.095 79.8114" fill="white"/>
<mask id="mask0" mask-type="alpha" maskUnits="userSpaceOnUse" x="26" y="26" width="45" height="56">
<path fill-rule="evenodd" clip-rule="evenodd" d="M26.865 26.5918H70.515V81.8618H26.865V26.5918Z" fill="white"/>
</mask>
<g mask="url(#mask0)">
<path fill-rule="evenodd" clip-rule="evenodd" d="M27.045 26.5911C26.945 26.6111 26.865 26.7011 26.865 26.8011V80.5011C26.865 81.2511 27.465 81.8611 28.195 81.8611H69.175C69.915 81.8611 70.505 81.2511 70.505 80.5011V27.9811C70.525 27.2311 69.945 26.6011 69.205 26.5811C69.195 26.5811 69.185 26.5811 69.165 26.5811H27.045V26.5911Z" fill="url(#paint1_linear)"/>
<path d="M66.0549 53.5911V49.4111L61.7849 47.9211L60.7349 45.0911L62.8349 40.6911V40.2411L61.4849 38.9011L59.9149 37.1111H59.3149L55.1249 39.3511L52.2749 38.5311L50.4049 33.8311H46.2849L44.8649 38.0811L41.7149 39.3511L36.8449 37.0411L33.9249 39.9511V40.4711L36.0949 44.6511L34.8249 47.7811L29.8049 49.6411V53.8211H30.4049L34.8249 55.3111L36.0249 58.1411L33.7749 62.9911L36.6949 65.9711H37.2949L41.4149 63.8811L44.3349 65.0711L46.1349 70.0711H50.3249V69.4711L51.7449 64.9911L54.5949 63.8011L59.5349 66.1111L62.4549 63.2011V62.6011L60.3549 58.4211L61.1749 55.5111L66.0549 53.5911ZM48.2349 57.1311C45.1149 56.7911 42.7549 54.2911 42.7549 51.3011C42.7549 48.3211 45.1149 45.8111 48.2349 45.4711C49.8649 45.4511 51.4349 46.0511 52.5949 47.1411C53.7549 48.2311 54.4049 49.7111 54.4049 51.2611C54.4249 52.8211 53.7849 54.3211 52.6249 55.4311C51.4549 56.5411 49.8749 57.1511 48.2349 57.1311Z" fill="url(#paint2_linear)"/>
<path d="M49.125 43.5713L47.245 41.6313C46.985 41.3613 46.565 41.3813 46.315 41.6513L38.355 50.7413C37.995 51.1513 37.995 51.7513 38.355 52.1613L46.245 61.2313C46.545 61.5713 47.075 61.5713 47.365 61.2313L49.725 58.5113L49.985 44.5213L49.125 43.5713Z" fill="url(#paint3_linear)"/>
<path d="M58.3949 50.3511L50.5449 41.7711C50.2049 41.4111 49.6349 41.4011 49.2849 41.7611L45.6649 45.5111C45.2749 45.9211 45.2649 46.5611 45.6549 46.9811L49.3749 50.9711C49.6449 51.2611 49.6449 51.7211 49.3749 52.0111L45.6449 56.0411C45.2649 56.4511 45.2649 57.0911 45.6649 57.5011L49.2949 61.2711C49.6449 61.6311 50.2149 61.6211 50.5549 61.2611L58.4049 52.6211C58.9749 51.9611 58.9749 50.9911 58.3949 50.3511Z" fill="url(#paint4_linear)"/>
<path d="M58.7649 52.2015L55.2649 56.0815C54.9949 56.3715 54.5449 56.3815 54.2649 56.1015L50.7449 52.5015C50.1749 51.9215 50.1749 50.9915 50.7349 50.4015L54.1849 46.8315C54.4649 46.5415 54.9249 46.5515 55.1849 46.8515L58.7549 50.7915C59.1249 51.1915 59.1249 51.8015 58.7649 52.2015Z" fill="url(#paint5_linear)"/>
</g>
<defs>
<linearGradient id="paint0_linear" x1="50.0246" y1="-13.503" x2="54.0074" y2="132.266" gradientUnits="userSpaceOnUse">
<stop stop-color="#00ABDE"/>
<stop offset="1" stop-color="#007ED8"/>
</linearGradient>
<linearGradient id="paint1_linear" x1="48.7067" y1="27.648" x2="48.7067" y2="81.7927" gradientUnits="userSpaceOnUse">
<stop stop-color="#FFE02A"/>
<stop offset="1" stop-color="#FFB518"/>
</linearGradient>
<linearGradient id="paint2_linear" x1="47.9291" y1="30.2241" x2="47.9291" y2="70.0755" gradientUnits="userSpaceOnUse">
<stop stop-color="white"/>
<stop offset="1" stop-color="#CBCBCB"/>
</linearGradient>
<linearGradient id="paint3_linear" x1="43.5332" y1="42.1858" x2="44.9937" y2="59.346" gradientUnits="userSpaceOnUse">
<stop stop-color="#A23093"/>
<stop offset="1" stop-color="#692266"/>
</linearGradient>
<linearGradient id="paint4_linear" x1="45.3504" y1="51.5094" x2="58.8288" y2="51.5094" gradientUnits="userSpaceOnUse">
<stop stop-color="#E184C4"/>
<stop offset="1" stop-color="#D76EBC"/>
</linearGradient>
<linearGradient id="paint5_linear" x1="50.312" y1="51.4668" x2="59.0346" y2="51.4668" gradientUnits="userSpaceOnUse">
<stop stop-color="#E89BCA"/>
<stop offset="1" stop-color="#E591C8"/>
</linearGradient>
</defs>
</svg>
