<svg width="102" height="102" viewBox="0 0 102 102" fill="none" xmlns="http://www.w3.org/2000/svg">
<g clip-path="url(#clip0_2026_304)">
<g filter="url(#filter0_dddd_2026_304)">
<path d="M50.9999 97.3511C25.4033 97.3511 4.6488 76.6065 4.6488 51C4.6488 25.3935 25.4033 4.64893 50.9999 4.64893C76.5964 4.64893 97.351 25.4034 97.351 51C97.351 76.5966 76.5964 97.3511 50.9999 97.3511Z" fill="#EAEAEA"/>
</g>
<path fill-rule="evenodd" clip-rule="evenodd" d="M96.4501 51.0005C96.4501 76.102 76.1016 96.4505 51.0001 96.4505C25.8987 96.4505 5.55013 76.102 5.55013 51.0005C5.55013 25.899 25.8987 5.55051 51.0001 5.55051C76.1016 5.55051 96.4501 25.899 96.4501 51.0005ZM51.0001 1.84717C78.1513 1.84717 100.153 23.8493 100.153 51.0005C100.153 78.1517 78.1414 100.154 51.0001 100.154C23.849 100.154 1.8468 78.1418 1.8468 51.0005C1.8468 23.8493 23.849 1.84717 51.0001 1.84717Z" fill="#F2F1F0"/>
<path fill-rule="evenodd" clip-rule="evenodd" d="M93.6675 50.9998C93.6675 74.5665 74.5666 93.6673 50.9999 93.6673C27.4332 93.6673 8.33236 74.5665 8.33236 50.9998C8.33236 27.4331 27.4332 8.33224 50.9999 8.33224C74.5666 8.33224 93.6675 27.4331 93.6675 50.9998ZM50.9999 4.62891C76.6064 4.62891 97.3708 25.3933 97.3708 50.9998C97.3708 76.6063 76.6064 97.3707 50.9999 97.3707C25.3934 97.3707 4.62903 76.6063 4.62903 50.9998C4.62903 25.3933 25.3835 4.62891 50.9999 4.62891Z" fill="url(#paint0_linear_2026_304)"/>
<g filter="url(#filter1_ddddd_2026_304)">
<rect x="29.3594" y="28.7676" width="45.2833" height="45.2833" rx="1.5" fill="white"/>
</g>
<path d="M85.1024 51.4131L12.8856 51.4131" stroke="white" stroke-width="1.5" stroke-miterlimit="10" stroke-linecap="round"/>
<path d="M83.8826 48.1012C83.8826 47.7162 84.2994 47.4757 84.6327 47.6682L90.3648 50.9798C90.6981 51.1724 90.6979 51.6536 90.3644 51.8459L84.6323 55.1512C84.299 55.3434 83.8826 55.1028 83.8826 54.7181V48.1012Z" fill="white"/>
<g filter="url(#filter2_ddddd_2026_304)">
<g filter="url(#filter3_dddd_2026_304)">
<path d="M71.0732 78.2319C75.1713 78.2319 78.4912 74.9121 78.4912 70.814C78.4912 66.7159 75.1713 63.396 71.0732 63.396C66.9751 63.396 63.6553 66.7159 63.6553 70.814C63.6651 74.9121 66.985 78.2319 71.0732 78.2319Z" fill="#D2D2D2"/>
</g>
<path d="M74.6632 67.5376L69.2471 72.9799L67.6223 71.3463L66.5391 72.4383L69.2471 75.1551L75.7551 68.6295L74.6632 67.5376Z" fill="#292929"/>
</g>
<path d="M51.004 53.2711C50.8703 53.2377 46.3092 62.3701 44.264 66.4803C44.1743 66.6608 44.0358 66.8125 43.8643 66.9183C43.6928 67.0241 43.4951 67.0796 43.2935 67.0787C43.092 67.0779 42.8948 67.0205 42.7242 66.9132C42.5536 66.8059 42.4165 66.653 42.3285 66.4718L38.2422 58.4142C38.0644 58.0636 37.9799 57.6731 37.9969 57.2804C38.0139 56.8876 38.1319 56.5059 38.3395 56.172C38.547 55.8381 38.8372 55.5634 39.1818 55.3743C39.5265 55.1853 39.9141 55.0882 40.3072 55.0926L42.4313 55.1158L47.0173 53.53L51.004 53.2711Z" fill="url(#paint1_linear_2026_304)"/>
<path d="M47.9911 36.8432L44.8195 43.2249C44.7301 43.4057 44.6883 43.6062 44.6979 43.8076C44.7074 44.009 44.7681 44.2047 44.8742 44.3762C44.9802 44.5477 45.1282 44.6894 45.3041 44.7879C45.4801 44.8864 45.6782 44.9385 45.8798 44.9393L58.5859 44.9762C58.5859 44.9762 59.9574 45.1476 60.8146 45.7691C61.6718 46.3905 62.1638 47.312 62.1638 47.312L62.2495 46.3262H62.5067C63.8309 46.3262 65.1009 45.8002 66.0373 44.8638C66.9737 43.9274 67.4998 42.6574 67.4998 41.3331C67.4998 39.9748 66.9602 38.672 65.9997 37.7115C65.0392 36.751 63.7364 36.2114 62.3781 36.2114H49.0068C48.7954 36.2115 48.5883 36.2707 48.4088 36.3824C48.2293 36.494 48.0846 36.6536 47.9911 36.8432Z" fill="url(#paint2_linear_2026_304)"/>
<path d="M63.6526 46.1953C63.5788 46.2133 63.5043 46.2287 63.4297 46.2425H63.5823L63.6526 46.1953Z" fill="url(#paint3_linear_2026_304)"/>
<path d="M63.6527 46.1952L63.4298 46.2424C63.1271 46.2992 62.8198 46.3279 62.5118 46.3281L44.7757 46.2424C44.3353 46.2424 43.9035 46.3648 43.5286 46.596C43.1537 46.8271 42.8503 47.1578 42.6524 47.5513L38.2319 56.3143L38.2474 56.3083C38.417 55.9429 38.6885 55.6343 39.0292 55.4194C39.37 55.2046 39.7655 55.0927 40.1683 55.0971L41.3358 55.1057L58.0432 55.0714C58.9571 55.0716 59.8533 54.8199 60.6334 54.344C61.4136 53.8682 62.0475 53.1865 62.4655 52.3738L65.6208 46.2424L66.6065 44.2065L66.5877 44.2185C65.8835 45.2137 64.8395 45.9168 63.6527 46.1952Z" fill="url(#paint4_linear_2026_304)"/>
</g>
<defs>
<filter id="filter0_dddd_2026_304" x="0.648804" y="4.64893" width="100.702" height="106.702" filterUnits="userSpaceOnUse" color-interpolation-filters="sRGB">
<feFlood flood-opacity="0" result="BackgroundImageFix"/>
<feColorMatrix in="SourceAlpha" type="matrix" values="0 0 0 0 0 0 0 0 0 0 0 0 0 0 0 0 0 0 127 0" result="hardAlpha"/>
<feOffset dy="1"/>
<feGaussianBlur stdDeviation="0.5"/>
<feColorMatrix type="matrix" values="0 0 0 0 0 0 0 0 0 0 0 0 0 0 0 0 0 0 0.1 0"/>
<feBlend mode="normal" in2="BackgroundImageFix" result="effect1_dropShadow_2026_304"/>
<feColorMatrix in="SourceAlpha" type="matrix" values="0 0 0 0 0 0 0 0 0 0 0 0 0 0 0 0 0 0 127 0" result="hardAlpha"/>
<feOffset dy="3"/>
<feGaussianBlur stdDeviation="1.5"/>
<feColorMatrix type="matrix" values="0 0 0 0 0 0 0 0 0 0 0 0 0 0 0 0 0 0 0.09 0"/>
<feBlend mode="normal" in2="effect1_dropShadow_2026_304" result="effect2_dropShadow_2026_304"/>
<feColorMatrix in="SourceAlpha" type="matrix" values="0 0 0 0 0 0 0 0 0 0 0 0 0 0 0 0 0 0 127 0" result="hardAlpha"/>
<feOffset dy="6"/>
<feGaussianBlur stdDeviation="2"/>
<feColorMatrix type="matrix" values="0 0 0 0 0 0 0 0 0 0 0 0 0 0 0 0 0 0 0.05 0"/>
<feBlend mode="normal" in2="effect2_dropShadow_2026_304" result="effect3_dropShadow_2026_304"/>
<feColorMatrix in="SourceAlpha" type="matrix" values="0 0 0 0 0 0 0 0 0 0 0 0 0 0 0 0 0 0 127 0" result="hardAlpha"/>
<feOffset dy="10"/>
<feGaussianBlur stdDeviation="2"/>
<feColorMatrix type="matrix" values="0 0 0 0 0 0 0 0 0 0 0 0 0 0 0 0 0 0 0.01 0"/>
<feBlend mode="normal" in2="effect3_dropShadow_2026_304" result="effect4_dropShadow_2026_304"/>
<feBlend mode="normal" in="SourceGraphic" in2="effect4_dropShadow_2026_304" result="shape"/>
</filter>
<filter id="filter1_ddddd_2026_304" x="25.3594" y="27.7676" width="53.2833" height="61.2832" filterUnits="userSpaceOnUse" color-interpolation-filters="sRGB">
<feFlood flood-opacity="0" result="BackgroundImageFix"/>
<feColorMatrix in="SourceAlpha" type="matrix" values="0 0 0 0 0 0 0 0 0 0 0 0 0 0 0 0 0 0 127 0" result="hardAlpha"/>
<feOffset/>
<feColorMatrix type="matrix" values="0 0 0 0 0 0 0 0 0 0 0 0 0 0 0 0 0 0 0.1 0"/>
<feBlend mode="normal" in2="BackgroundImageFix" result="effect1_dropShadow_2026_304"/>
<feColorMatrix in="SourceAlpha" type="matrix" values="0 0 0 0 0 0 0 0 0 0 0 0 0 0 0 0 0 0 127 0" result="hardAlpha"/>
<feOffset dy="1"/>
<feGaussianBlur stdDeviation="1"/>
<feColorMatrix type="matrix" values="0 0 0 0 0 0 0 0 0 0 0 0 0 0 0 0 0 0 0.1 0"/>
<feBlend mode="normal" in2="effect1_dropShadow_2026_304" result="effect2_dropShadow_2026_304"/>
<feColorMatrix in="SourceAlpha" type="matrix" values="0 0 0 0 0 0 0 0 0 0 0 0 0 0 0 0 0 0 127 0" result="hardAlpha"/>
<feOffset dy="3"/>
<feGaussianBlur stdDeviation="1.5"/>
<feColorMatrix type="matrix" values="0 0 0 0 0 0 0 0 0 0 0 0 0 0 0 0 0 0 0.09 0"/>
<feBlend mode="normal" in2="effect2_dropShadow_2026_304" result="effect3_dropShadow_2026_304"/>
<feColorMatrix in="SourceAlpha" type="matrix" values="0 0 0 0 0 0 0 0 0 0 0 0 0 0 0 0 0 0 127 0" result="hardAlpha"/>
<feOffset dy="6"/>
<feGaussianBlur stdDeviation="2"/>
<feColorMatrix type="matrix" values="0 0 0 0 0 0 0 0 0 0 0 0 0 0 0 0 0 0 0.05 0"/>
<feBlend mode="normal" in2="effect3_dropShadow_2026_304" result="effect4_dropShadow_2026_304"/>
<feColorMatrix in="SourceAlpha" type="matrix" values="0 0 0 0 0 0 0 0 0 0 0 0 0 0 0 0 0 0 127 0" result="hardAlpha"/>
<feOffset dy="11"/>
<feGaussianBlur stdDeviation="2"/>
<feColorMatrix type="matrix" values="0 0 0 0 0 0 0 0 0 0 0 0 0 0 0 0 0 0 0.01 0"/>
<feBlend mode="normal" in2="effect4_dropShadow_2026_304" result="effect5_dropShadow_2026_304"/>
<feBlend mode="normal" in="SourceGraphic" in2="effect5_dropShadow_2026_304" result="shape"/>
</filter>
<filter id="filter2_ddddd_2026_304" x="60.6553" y="63.396" width="20.8359" height="25.8359" filterUnits="userSpaceOnUse" color-interpolation-filters="sRGB">
<feFlood flood-opacity="0" result="BackgroundImageFix"/>
<feColorMatrix in="SourceAlpha" type="matrix" values="0 0 0 0 0 0 0 0 0 0 0 0 0 0 0 0 0 0 127 0" result="hardAlpha"/>
<feOffset/>
<feColorMatrix type="matrix" values="0 0 0 0 0 0 0 0 0 0 0 0 0 0 0 0 0 0 0.1 0"/>
<feBlend mode="normal" in2="BackgroundImageFix" result="effect1_dropShadow_2026_304"/>
<feColorMatrix in="SourceAlpha" type="matrix" values="0 0 0 0 0 0 0 0 0 0 0 0 0 0 0 0 0 0 127 0" result="hardAlpha"/>
<feOffset dy="1"/>
<feGaussianBlur stdDeviation="0.5"/>
<feColorMatrix type="matrix" values="0 0 0 0 0 0 0 0 0 0 0 0 0 0 0 0 0 0 0.1 0"/>
<feBlend mode="normal" in2="effect1_dropShadow_2026_304" result="effect2_dropShadow_2026_304"/>
<feColorMatrix in="SourceAlpha" type="matrix" values="0 0 0 0 0 0 0 0 0 0 0 0 0 0 0 0 0 0 127 0" result="hardAlpha"/>
<feOffset dy="2"/>
<feGaussianBlur stdDeviation="1"/>
<feColorMatrix type="matrix" values="0 0 0 0 0 0 0 0 0 0 0 0 0 0 0 0 0 0 0.09 0"/>
<feBlend mode="normal" in2="effect2_dropShadow_2026_304" result="effect3_dropShadow_2026_304"/>
<feColorMatrix in="SourceAlpha" type="matrix" values="0 0 0 0 0 0 0 0 0 0 0 0 0 0 0 0 0 0 127 0" result="hardAlpha"/>
<feOffset dy="5"/>
<feGaussianBlur stdDeviation="1.5"/>
<feColorMatrix type="matrix" values="0 0 0 0 0 0 0 0 0 0 0 0 0 0 0 0 0 0 0.05 0"/>
<feBlend mode="normal" in2="effect3_dropShadow_2026_304" result="effect4_dropShadow_2026_304"/>
<feColorMatrix in="SourceAlpha" type="matrix" values="0 0 0 0 0 0 0 0 0 0 0 0 0 0 0 0 0 0 127 0" result="hardAlpha"/>
<feOffset dy="8"/>
<feGaussianBlur stdDeviation="1.5"/>
<feColorMatrix type="matrix" values="0 0 0 0 0 0 0 0 0 0 0 0 0 0 0 0 0 0 0.01 0"/>
<feBlend mode="normal" in2="effect4_dropShadow_2026_304" result="effect5_dropShadow_2026_304"/>
<feBlend mode="normal" in="SourceGraphic" in2="effect5_dropShadow_2026_304" result="shape"/>
</filter>
<filter id="filter3_dddd_2026_304" x="61.6553" y="62.396" width="18.8359" height="21.8359" filterUnits="userSpaceOnUse" color-interpolation-filters="sRGB">
<feFlood flood-opacity="0" result="BackgroundImageFix"/>
<feColorMatrix in="SourceAlpha" type="matrix" values="0 0 0 0 0 0 0 0 0 0 0 0 0 0 0 0 0 0 127 0" result="hardAlpha"/>
<feOffset/>
<feGaussianBlur stdDeviation="0.5"/>
<feColorMatrix type="matrix" values="0 0 0 0 0 0 0 0 0 0 0 0 0 0 0 0 0 0 0.1 0"/>
<feBlend mode="normal" in2="BackgroundImageFix" result="effect1_dropShadow_2026_304"/>
<feColorMatrix in="SourceAlpha" type="matrix" values="0 0 0 0 0 0 0 0 0 0 0 0 0 0 0 0 0 0 127 0" result="hardAlpha"/>
<feOffset dy="1"/>
<feGaussianBlur stdDeviation="0.5"/>
<feColorMatrix type="matrix" values="0 0 0 0 0 0 0 0 0 0 0 0 0 0 0 0 0 0 0.09 0"/>
<feBlend mode="normal" in2="effect1_dropShadow_2026_304" result="effect2_dropShadow_2026_304"/>
<feColorMatrix in="SourceAlpha" type="matrix" values="0 0 0 0 0 0 0 0 0 0 0 0 0 0 0 0 0 0 127 0" result="hardAlpha"/>
<feOffset dy="2"/>
<feGaussianBlur stdDeviation="0.5"/>
<feColorMatrix type="matrix" values="0 0 0 0 0 0 0 0 0 0 0 0 0 0 0 0 0 0 0.05 0"/>
<feBlend mode="normal" in2="effect2_dropShadow_2026_304" result="effect3_dropShadow_2026_304"/>
<feColorMatrix in="SourceAlpha" type="matrix" values="0 0 0 0 0 0 0 0 0 0 0 0 0 0 0 0 0 0 127 0" result="hardAlpha"/>
<feOffset dy="4"/>
<feGaussianBlur stdDeviation="1"/>
<feColorMatrix type="matrix" values="0 0 0 0 0 0 0 0 0 0 0 0 0 0 0 0 0 0 0.01 0"/>
<feBlend mode="normal" in2="effect3_dropShadow_2026_304" result="effect4_dropShadow_2026_304"/>
<feBlend mode="normal" in="SourceGraphic" in2="effect4_dropShadow_2026_304" result="shape"/>
</filter>
<linearGradient id="paint0_linear_2026_304" x1="50.9999" y1="10.6052" x2="50.9999" y2="104.755" gradientUnits="userSpaceOnUse">
<stop offset="0.0885417" stop-color="#065778"/>
<stop offset="0.527388" stop-color="#0B888A"/>
<stop offset="1" stop-color="#6BCC86"/>
</linearGradient>
<linearGradient id="paint1_linear_2026_304" x1="44.3291" y1="54.8792" x2="47.1261" y2="64.8123" gradientUnits="userSpaceOnUse">
<stop stop-color="#14834E"/>
<stop offset="0.38" stop-color="#209D69"/>
<stop offset="0.71" stop-color="#2DAC85"/>
<stop offset="1" stop-color="#3AB89F"/>
</linearGradient>
<linearGradient id="paint2_linear_2026_304" x1="46.8039" y1="35.0799" x2="68.405" y2="50.0267" gradientUnits="userSpaceOnUse">
<stop offset="0.16" stop-color="#1B9D90"/>
<stop offset="0.37" stop-color="#088488"/>
<stop offset="0.65" stop-color="#055976"/>
<stop offset="1" stop-color="#054D7C"/>
</linearGradient>
<linearGradient id="paint3_linear_2026_304" x1="63.4297" y1="46.2193" x2="63.6526" y2="46.2193" gradientUnits="userSpaceOnUse">
<stop stop-color="#94DF8C"/>
<stop offset="0.35" stop-color="#2FB07B"/>
<stop offset="0.71" stop-color="#009180"/>
<stop offset="1" stop-color="#007D83"/>
</linearGradient>
<linearGradient id="paint4_linear_2026_304" x1="38.2319" y1="50.2609" x2="66.6048" y2="50.2609" gradientUnits="userSpaceOnUse">
<stop stop-color="#94DF8C"/>
<stop offset="0.43" stop-color="#2FB07B"/>
<stop offset="0.78" stop-color="#009180"/>
<stop offset="1" stop-color="#007D83"/>
</linearGradient>
<clipPath id="clip0_2026_304">
<rect width="102" height="102" fill="white"/>
</clipPath>
</defs>
</svg>
