<svg width="103" height="102" viewBox="0 0 103 102" fill="none" xmlns="http://www.w3.org/2000/svg">
<g clip-path="url(#clip0_1716_693)">
<path d="M51.0892 97.3511C25.4927 97.3511 4.73816 76.6065 4.73816 51C4.73816 25.3935 25.4927 4.64893 51.0892 4.64893C76.6858 4.64893 97.4403 25.4034 97.4403 51C97.4403 76.5966 76.6858 97.3511 51.0892 97.3511Z" fill="url(#paint0_linear_1716_693)"/>
<path fill-rule="evenodd" clip-rule="evenodd" d="M96.5395 51.0003C96.5395 76.1017 76.191 96.4502 51.0895 96.4502C25.988 96.4502 5.63949 76.1017 5.63949 51.0003C5.63949 25.8988 25.988 5.55026 51.0895 5.55026C76.191 5.55026 96.5395 25.8988 96.5395 51.0003ZM51.0895 1.84692C78.2407 1.84692 100.243 23.8491 100.243 51.0003C100.243 78.1514 78.2308 100.154 51.0895 100.154C23.9383 100.154 1.93616 78.1415 1.93616 51.0003C1.93616 23.8491 23.9383 1.84692 51.0895 1.84692Z" fill="#F2F1F0"/>
<path fill-rule="evenodd" clip-rule="evenodd" d="M93.7568 51C93.7568 74.5667 74.6559 93.6676 51.0893 93.6676C27.5226 93.6676 8.42172 74.5667 8.42172 51C8.42172 27.4334 27.5226 8.33249 51.0893 8.33249C74.6559 8.33249 93.7568 27.4334 93.7568 51ZM51.0893 4.62915C76.6957 4.62915 97.4602 25.3936 97.4602 51C97.4602 76.6065 76.6957 97.3709 51.0893 97.3709C25.4828 97.3709 4.71838 76.6065 4.71838 51C4.71838 25.3936 25.4729 4.62915 51.0893 4.62915Z" fill="url(#paint1_linear_1716_693)"/>
<g filter="url(#filter0_ddddd_1716_693)">
<path d="M79.4173 27.3782H67.9962C67.3055 27.3782 66.73 27.9409 66.73 28.6443V35.6403C66.73 36.3309 67.2927 36.9064 67.9962 36.9064H79.4301C80.1207 36.9192 80.6962 36.3565 80.6962 35.6403V28.6571C80.6834 27.9537 80.1207 27.3782 79.4173 27.3782Z" fill="url(#paint2_linear_1716_693)"/>
<path d="M79.4173 50.6675H67.9962C67.3055 50.6675 66.73 51.2302 66.73 51.9336V58.9424C66.73 59.633 67.2927 60.2085 67.9962 60.2085H79.4301C80.1207 60.2085 80.6962 59.6458 80.6962 58.9424V51.9592C80.6834 51.2302 80.1207 50.6675 79.4173 50.6675Z" fill="url(#paint3_linear_1716_693)"/>
<path d="M79.4173 39.0037H67.9962C67.3055 39.0037 66.73 39.5664 66.73 40.2698V47.2658C66.73 47.9564 67.2927 48.5319 67.9962 48.5319H79.4301C80.1207 48.5447 80.6962 47.982 80.6962 47.2658V40.2698C80.6834 39.5792 80.1207 39.0037 79.4173 39.0037Z" fill="url(#paint4_linear_1716_693)"/>
<path d="M79.4173 62.2942H67.9962C67.3055 62.2942 66.73 62.8569 66.73 63.5604V70.5691C66.73 71.2597 67.2927 71.8352 67.9962 71.8352H79.4301C80.1207 71.8352 80.6962 71.2725 80.6962 70.5691V63.5731C80.6834 62.8697 80.1207 62.2942 79.4173 62.2942Z" fill="url(#paint5_linear_1716_693)"/>
</g>
<g filter="url(#filter1_ddddd_1716_693)">
<path d="M75.5151 26.434V25.6247C75.5151 24.625 74.7058 23.8157 73.7061 23.8157H25.2529C24.2531 23.8157 23.4438 24.625 23.4438 25.6247V26.5197V27.3385V73.7066C23.4438 74.7063 24.2531 75.5156 25.2529 75.5156H31.7749V82.3518C31.7749 82.866 32.3937 83.123 32.7651 82.7612L40.0678 75.5156H73.7156C74.7153 75.5156 75.5246 74.7063 75.5246 73.7066V26.5197C75.5246 26.4911 75.5151 26.4626 75.5151 26.434Z" fill="white"/>
</g>
<path d="M47.0647 53.1383C46.8925 53.0953 41.02 64.8535 38.3867 70.1455C38.2712 70.3778 38.093 70.5732 37.8721 70.7094C37.6513 70.8455 37.3967 70.9171 37.1372 70.916C36.8778 70.9148 36.6239 70.841 36.4042 70.7029C36.1846 70.5647 36.0081 70.3678 35.8947 70.1345L30.6336 59.7602C30.4046 59.3088 30.2958 58.806 30.3177 58.3003C30.3396 57.7946 30.4916 57.3031 30.7588 56.8733C31.026 56.4434 31.3996 56.0897 31.8433 55.8463C32.2871 55.6028 32.7861 55.4779 33.2923 55.4836L36.0271 55.5134L41.9316 53.4716L47.0647 53.1383Z" fill="url(#paint6_linear_1716_693)"/>
<path d="M43.1861 31.9875L39.1026 40.2041C38.9876 40.4369 38.9337 40.695 38.9461 40.9544C38.9584 41.2137 39.0365 41.4656 39.1731 41.6864C39.3096 41.9072 39.5001 42.0896 39.7266 42.2164C39.9532 42.3433 40.2082 42.4104 40.4678 42.4114L56.8272 42.4589C56.8272 42.4589 58.593 42.6796 59.6967 43.4797C60.8003 44.2799 61.4338 45.4663 61.4338 45.4663L61.5442 44.1971H61.8753C63.5803 44.1971 65.2154 43.5198 66.4211 42.3142C67.6267 41.1085 68.304 39.4734 68.304 37.7684C68.304 36.0194 67.6093 34.3422 66.3726 33.1055C65.1359 31.8688 63.4586 31.1741 61.7097 31.1741H44.4939C44.2218 31.1742 43.9551 31.2504 43.724 31.3941C43.4928 31.5379 43.3065 31.7434 43.1861 31.9875Z" fill="url(#paint7_linear_1716_693)"/>
<path d="M63.3505 44.0281C63.256 44.0511 63.1605 44.0709 63.0649 44.0885H63.2604L63.3505 44.0281Z" fill="url(#paint8_linear_1716_693)"/>
<path d="M63.3496 44.0277L63.0627 44.0884C62.6729 44.1616 62.2772 44.1986 61.8807 44.1988L39.0451 44.0884C38.478 44.0885 37.9221 44.2461 37.4394 44.5437C36.9567 44.8413 36.5662 45.2671 36.3114 45.7737L30.6199 57.0563L30.6397 57.0486C30.8581 56.5781 31.2077 56.1807 31.6464 55.9041C32.0851 55.6275 32.5944 55.4834 33.113 55.4891L34.6162 55.5002L56.1274 55.456C57.3039 55.4563 58.4578 55.1323 59.4623 54.5195C60.4667 53.9068 61.2829 53.0291 61.8211 51.9828L65.8836 44.0884L67.1528 41.4673L67.1285 41.4827C66.2219 42.764 64.8777 43.6693 63.3496 44.0277Z" fill="url(#paint9_linear_1716_693)"/>
</g>
<defs>
<filter id="filter0_ddddd_1716_693" x="62.73" y="27.3782" width="21.9663" height="58.457" filterUnits="userSpaceOnUse" color-interpolation-filters="sRGB">
<feFlood flood-opacity="0" result="BackgroundImageFix"/>
<feColorMatrix in="SourceAlpha" type="matrix" values="0 0 0 0 0 0 0 0 0 0 0 0 0 0 0 0 0 0 127 0" result="hardAlpha"/>
<feOffset/>
<feColorMatrix type="matrix" values="0 0 0 0 0 0 0 0 0 0 0 0 0 0 0 0 0 0 0.1 0"/>
<feBlend mode="normal" in2="BackgroundImageFix" result="effect1_dropShadow_1716_693"/>
<feColorMatrix in="SourceAlpha" type="matrix" values="0 0 0 0 0 0 0 0 0 0 0 0 0 0 0 0 0 0 127 0" result="hardAlpha"/>
<feOffset dy="1"/>
<feGaussianBlur stdDeviation="0.5"/>
<feColorMatrix type="matrix" values="0 0 0 0 0 0 0 0 0 0 0 0 0 0 0 0 0 0 0.1 0"/>
<feBlend mode="normal" in2="effect1_dropShadow_1716_693" result="effect2_dropShadow_1716_693"/>
<feColorMatrix in="SourceAlpha" type="matrix" values="0 0 0 0 0 0 0 0 0 0 0 0 0 0 0 0 0 0 127 0" result="hardAlpha"/>
<feOffset dy="2"/>
<feGaussianBlur stdDeviation="1"/>
<feColorMatrix type="matrix" values="0 0 0 0 0 0 0 0 0 0 0 0 0 0 0 0 0 0 0.09 0"/>
<feBlend mode="normal" in2="effect2_dropShadow_1716_693" result="effect3_dropShadow_1716_693"/>
<feColorMatrix in="SourceAlpha" type="matrix" values="0 0 0 0 0 0 0 0 0 0 0 0 0 0 0 0 0 0 127 0" result="hardAlpha"/>
<feOffset dy="6"/>
<feGaussianBlur stdDeviation="1.5"/>
<feColorMatrix type="matrix" values="0 0 0 0 0 0 0 0 0 0 0 0 0 0 0 0 0 0 0.05 0"/>
<feBlend mode="normal" in2="effect3_dropShadow_1716_693" result="effect4_dropShadow_1716_693"/>
<feColorMatrix in="SourceAlpha" type="matrix" values="0 0 0 0 0 0 0 0 0 0 0 0 0 0 0 0 0 0 127 0" result="hardAlpha"/>
<feOffset dy="10"/>
<feGaussianBlur stdDeviation="2"/>
<feColorMatrix type="matrix" values="0 0 0 0 0 0 0 0 0 0 0 0 0 0 0 0 0 0 0.01 0"/>
<feBlend mode="normal" in2="effect4_dropShadow_1716_693" result="effect5_dropShadow_1716_693"/>
<feBlend mode="normal" in="SourceGraphic" in2="effect5_dropShadow_1716_693" result="shape"/>
</filter>
<filter id="filter1_ddddd_1716_693" x="4.44385" y="19.8157" width="90.0808" height="129.115" filterUnits="userSpaceOnUse" color-interpolation-filters="sRGB">
<feFlood flood-opacity="0" result="BackgroundImageFix"/>
<feColorMatrix in="SourceAlpha" type="matrix" values="0 0 0 0 0 0 0 0 0 0 0 0 0 0 0 0 0 0 127 0" result="hardAlpha"/>
<feOffset/>
<feColorMatrix type="matrix" values="0 0 0 0 0 0 0 0 0 0 0 0 0 0 0 0 0 0 0.1 0"/>
<feBlend mode="normal" in2="BackgroundImageFix" result="effect1_dropShadow_1716_693"/>
<feColorMatrix in="SourceAlpha" type="matrix" values="0 0 0 0 0 0 0 0 0 0 0 0 0 0 0 0 0 0 127 0" result="hardAlpha"/>
<feOffset dy="3"/>
<feGaussianBlur stdDeviation="3.5"/>
<feColorMatrix type="matrix" values="0 0 0 0 0 0 0 0 0 0 0 0 0 0 0 0 0 0 0.1 0"/>
<feBlend mode="normal" in2="effect1_dropShadow_1716_693" result="effect2_dropShadow_1716_693"/>
<feColorMatrix in="SourceAlpha" type="matrix" values="0 0 0 0 0 0 0 0 0 0 0 0 0 0 0 0 0 0 127 0" result="hardAlpha"/>
<feOffset dy="12"/>
<feGaussianBlur stdDeviation="6"/>
<feColorMatrix type="matrix" values="0 0 0 0 0 0 0 0 0 0 0 0 0 0 0 0 0 0 0.09 0"/>
<feBlend mode="normal" in2="effect2_dropShadow_1716_693" result="effect3_dropShadow_1716_693"/>
<feColorMatrix in="SourceAlpha" type="matrix" values="0 0 0 0 0 0 0 0 0 0 0 0 0 0 0 0 0 0 127 0" result="hardAlpha"/>
<feOffset dy="27"/>
<feGaussianBlur stdDeviation="8"/>
<feColorMatrix type="matrix" values="0 0 0 0 0 0 0 0 0 0 0 0 0 0 0 0 0 0 0.05 0"/>
<feBlend mode="normal" in2="effect3_dropShadow_1716_693" result="effect4_dropShadow_1716_693"/>
<feColorMatrix in="SourceAlpha" type="matrix" values="0 0 0 0 0 0 0 0 0 0 0 0 0 0 0 0 0 0 127 0" result="hardAlpha"/>
<feOffset dy="47"/>
<feGaussianBlur stdDeviation="9.5"/>
<feColorMatrix type="matrix" values="0 0 0 0 0 0 0 0 0 0 0 0 0 0 0 0 0 0 0.01 0"/>
<feBlend mode="normal" in2="effect4_dropShadow_1716_693" result="effect5_dropShadow_1716_693"/>
<feBlend mode="normal" in="SourceGraphic" in2="effect5_dropShadow_1716_693" result="shape"/>
</filter>
<linearGradient id="paint0_linear_1716_693" x1="25.3745" y1="9.49709" x2="100.281" y2="148.693" gradientUnits="userSpaceOnUse">
<stop offset="0.0001" stop-color="#50E6FF"/>
<stop offset="0.623265" stop-color="#0078D4"/>
</linearGradient>
<linearGradient id="paint1_linear_1716_693" x1="15.6761" y1="11.2232" x2="83.2186" y2="98.6209" gradientUnits="userSpaceOnUse">
<stop stop-color="#007ED8"/>
<stop offset="0.915361" stop-color="#002D4C"/>
</linearGradient>
<linearGradient id="paint2_linear_1716_693" x1="70.6064" y1="27.1683" x2="75.386" y2="48.9666" gradientUnits="userSpaceOnUse">
<stop stop-color="#94DF8C"/>
<stop offset="0.43" stop-color="#2FB07B"/>
<stop offset="0.78" stop-color="#009180"/>
<stop offset="1" stop-color="#007D83"/>
</linearGradient>
<linearGradient id="paint3_linear_1716_693" x1="70.2648" y1="38.3013" x2="75.3293" y2="61.3208" gradientUnits="userSpaceOnUse">
<stop stop-color="#94DF8C"/>
<stop offset="0.43" stop-color="#2FB07B"/>
<stop offset="0.78" stop-color="#009180"/>
<stop offset="1" stop-color="#007D83"/>
</linearGradient>
<linearGradient id="paint4_linear_1716_693" x1="77.2529" y1="50.578" x2="78.8923" y2="27.6736" gradientUnits="userSpaceOnUse">
<stop stop-color="#14834E"/>
<stop offset="0.38" stop-color="#209D69"/>
<stop offset="0.71" stop-color="#2DAC85"/>
<stop offset="1" stop-color="#3AB89F"/>
</linearGradient>
<linearGradient id="paint5_linear_1716_693" x1="67.5959" y1="61.1763" x2="70.732" y2="75.8443" gradientUnits="userSpaceOnUse">
<stop offset="0.16" stop-color="#1B9D90"/>
<stop offset="0.37" stop-color="#088488"/>
<stop offset="0.65" stop-color="#055976"/>
<stop offset="1" stop-color="#054D7C"/>
</linearGradient>
<linearGradient id="paint6_linear_1716_693" x1="38.4706" y1="55.2087" x2="42.0718" y2="67.9978" gradientUnits="userSpaceOnUse">
<stop stop-color="#14834E"/>
<stop offset="0.38" stop-color="#209D69"/>
<stop offset="0.71" stop-color="#2DAC85"/>
<stop offset="1" stop-color="#3AB89F"/>
</linearGradient>
<linearGradient id="paint7_linear_1716_693" x1="41.6576" y1="29.7173" x2="69.4695" y2="48.9615" gradientUnits="userSpaceOnUse">
<stop offset="0.16" stop-color="#1B9D90"/>
<stop offset="0.37" stop-color="#088488"/>
<stop offset="0.65" stop-color="#055976"/>
<stop offset="1" stop-color="#054D7C"/>
</linearGradient>
<linearGradient id="paint8_linear_1716_693" x1="63.0649" y1="44.0588" x2="63.3505" y2="44.0588" gradientUnits="userSpaceOnUse">
<stop stop-color="#94DF8C"/>
<stop offset="0.35" stop-color="#2FB07B"/>
<stop offset="0.71" stop-color="#009180"/>
<stop offset="1" stop-color="#007D83"/>
</linearGradient>
<linearGradient id="paint9_linear_1716_693" x1="30.6199" y1="49.2623" x2="67.1506" y2="49.2623" gradientUnits="userSpaceOnUse">
<stop stop-color="#94DF8C"/>
<stop offset="0.43" stop-color="#2FB07B"/>
<stop offset="0.78" stop-color="#009180"/>
<stop offset="1" stop-color="#007D83"/>
</linearGradient>
<clipPath id="clip0_1716_693">
<rect width="102" height="102" fill="white" transform="translate(0.0893555)"/>
</clipPath>
</defs>
</svg>
