<svg width="102" height="102" viewBox="0 0 102 102" fill="none" xmlns="http://www.w3.org/2000/svg">
<path d="M50.9999 97.351C25.4033 97.351 4.6488 76.6063 4.6488 50.9999C4.6488 25.3934 25.4033 4.6488 50.9999 4.6488C76.5964 4.6488 97.351 25.4033 97.351 50.9999C97.351 76.5964 76.5964 97.351 50.9999 97.351Z" fill="url(#paint0_linear_1642_884)"/>
<path fill-rule="evenodd" clip-rule="evenodd" d="M96.4501 51.0004C96.4501 76.1018 76.1016 96.4504 51.0001 96.4504C25.8987 96.4504 5.55013 76.1018 5.55013 51.0004C5.55013 25.8989 25.8987 5.55038 51.0001 5.55038C76.1016 5.55038 96.4501 25.8989 96.4501 51.0004ZM51.0001 1.84705C78.1513 1.84705 100.153 23.8492 100.153 51.0004C100.153 78.1516 78.1414 100.154 51.0001 100.154C23.849 100.154 1.8468 78.1417 1.8468 51.0004C1.8468 23.8492 23.849 1.84705 51.0001 1.84705Z" fill="#F2F1F0"/>
<path fill-rule="evenodd" clip-rule="evenodd" d="M93.6675 50.9999C93.6675 74.5666 74.5666 93.6675 50.9999 93.6675C27.4332 93.6675 8.33236 74.5666 8.33236 50.9999C8.33236 27.4332 27.4332 8.33237 50.9999 8.33237C74.5666 8.33237 93.6675 27.4332 93.6675 50.9999ZM50.9999 4.62903C76.6064 4.62903 97.3708 25.3934 97.3708 50.9999C97.3708 76.6064 76.6064 97.3708 50.9999 97.3708C25.3934 97.3708 4.62903 76.6064 4.62903 50.9999C4.62903 25.3934 25.3835 4.62903 50.9999 4.62903Z" fill="url(#paint1_linear_1642_884)"/>
<path d="M76.378 65.7734H67.543V67.1333H76.378V65.7734Z" fill="white"/>
<path d="M76.378 54.3691H67.543V55.729H76.378V54.3691Z" fill="white"/>
<path d="M76.378 42.957H67.543V44.3169H76.378V42.957Z" fill="white"/>
<path d="M76.378 31.5332H67.543V32.8931H76.378V31.5332Z" fill="white"/>
<g filter="url(#filter0_ddddd_1642_884)">
<path d="M82.5752 27.1816H71.2198C71.0552 27.1816 70.8927 27.214 70.7407 27.277C70.5887 27.3399 70.4501 27.4324 70.3338 27.5487C70.2174 27.6651 70.1255 27.8032 70.0625 27.9552C69.9995 28.1072 69.9667 28.2702 69.9667 28.4347V35.3992C69.9667 35.5638 69.9995 35.7267 70.0625 35.8787C70.1255 36.0307 70.2174 36.1688 70.3338 36.2852C70.4501 36.4015 70.5887 36.494 70.7407 36.557C70.8927 36.6199 71.0552 36.6523 71.2198 36.6523H82.5752C82.7397 36.6536 82.9031 36.622 83.0552 36.5593C83.2073 36.4967 83.3454 36.4043 83.4612 36.2876C83.5771 36.1708 83.6682 36.0322 83.7297 35.8797C83.7911 35.7271 83.8214 35.5637 83.8188 35.3992V28.4542C83.8214 28.2888 83.7909 28.1245 83.7297 27.9709C83.6685 27.8172 83.5777 27.677 83.4622 27.5587C83.3466 27.4404 83.2084 27.3465 83.0562 27.2817C82.904 27.217 82.7406 27.1829 82.5752 27.1816V27.1816Z" fill="#9CEBFF"/>
</g>
<g filter="url(#filter1_ddddd_1642_884)">
<path d="M82.5752 50.2996H71.2198C71.0552 50.2996 70.8927 50.3319 70.7407 50.3949C70.5887 50.4579 70.4501 50.5503 70.3338 50.6667C70.2174 50.783 70.1255 50.9211 70.0625 51.0731C69.9995 51.2252 69.9667 51.3881 69.9667 51.5526V58.5076C69.9667 58.6722 69.9995 58.8351 70.0625 58.9872C70.1255 59.1392 70.2174 59.2773 70.3338 59.3936C70.4501 59.51 70.5887 59.6024 70.7407 59.6654C70.8927 59.7284 71.0552 59.7607 71.2198 59.7607H82.5752C82.7393 59.7607 82.9018 59.728 83.0533 59.6649C83.2048 59.6018 83.3418 59.5096 83.4574 59.3932C83.573 59.2767 83.6649 59.1382 83.7268 58.9862C83.7887 58.8342 83.8201 58.6717 83.8188 58.5076V51.5721C83.8214 51.2388 83.6922 50.9183 83.4593 50.6799C83.2264 50.4416 82.9085 50.3047 82.5752 50.2996V50.2996Z" fill="#4BC8EF"/>
</g>
<g filter="url(#filter2_ddddd_1642_884)">
<path d="M82.5752 38.7212H71.2198C71.0552 38.7212 70.8927 38.7536 70.7407 38.8165C70.5887 38.8795 70.4501 38.9719 70.3338 39.0883C70.2174 39.2046 70.1255 39.3427 70.0625 39.4948C69.9995 39.6468 69.9667 39.8097 69.9667 39.9743V46.9193C69.9667 47.0839 69.9995 47.2468 70.0625 47.3988C70.1255 47.5509 70.2174 47.6889 70.3338 47.8053C70.4501 47.9217 70.5887 48.0141 70.7407 48.0771C70.8927 48.14 71.0552 48.1724 71.2198 48.1724H82.5752C82.7397 48.1737 82.9031 48.1421 83.0552 48.0794C83.2073 48.0168 83.3454 47.9244 83.4612 47.8077C83.5771 47.6909 83.6682 47.5523 83.7297 47.3998C83.7911 47.2472 83.8214 47.0838 83.8188 46.9193V39.9743C83.8188 39.6436 83.6875 39.3263 83.4546 39.0916C83.2217 38.8569 82.9059 38.7238 82.5752 38.7212V38.7212Z" fill="#74CFEB"/>
</g>
<g filter="url(#filter3_ddddd_1642_884)">
<path d="M82.5752 61.8495H71.2198C71.0552 61.8495 70.8927 61.8814 70.7407 61.9443C70.5887 62.0073 70.4501 62.0993 70.3338 62.2156C70.2174 62.332 70.1255 62.4706 70.0625 62.6226C69.9995 62.7746 69.9667 62.9371 69.9667 63.1016V70.0566C69.9667 70.2212 69.9995 70.3846 70.0625 70.5366C70.1255 70.6886 70.2174 70.8262 70.3338 70.9426C70.4501 71.059 70.5887 71.1519 70.7407 71.2148C70.8927 71.2778 71.0552 71.3097 71.2198 71.3097H82.5752C82.7393 71.3097 82.9018 71.2779 83.0533 71.2148C83.2048 71.1518 83.3418 71.0591 83.4574 70.9426C83.573 70.8261 83.6649 70.6876 83.7268 70.5357C83.7887 70.3837 83.8201 70.2207 83.8188 70.0566V63.1121C83.8189 62.7805 83.6882 62.4623 83.4555 62.2261C83.2229 61.9898 82.9068 61.8546 82.5752 61.8495V61.8495Z" fill="#35AFE4"/>
</g>
<path d="M67.4709 29.5712V28.8332C67.4709 28.3978 67.2978 27.9799 66.99 27.6721C66.6821 27.3642 66.2643 27.1912 65.8289 27.1912H21.6525C21.2162 27.1912 20.797 27.364 20.4876 27.6716C20.1782 27.9792 20.0035 28.3969 20.001 28.8332V72.6795C20.001 72.8964 20.0432 73.1109 20.1262 73.3113C20.2092 73.5116 20.3314 73.6939 20.4848 73.8472C20.6381 74.0005 20.8204 74.1218 21.0207 74.2048C21.221 74.2878 21.4356 74.331 21.6525 74.331H65.8384C66.0553 74.331 66.2708 74.2878 66.4711 74.2048C66.6715 74.1218 66.8528 74.0005 67.0061 73.8472C67.1594 73.6939 67.2817 73.5116 67.3647 73.3113C67.4477 73.1109 67.4899 72.8964 67.4899 72.6795V29.6584L67.4709 29.5712Z" fill="url(#paint2_linear_1642_884)"/>
<path fill-rule="evenodd" clip-rule="evenodd" d="M48.9623 40.2138C46.7294 37.4812 43.3324 35.7466 39.5294 35.7616C32.8414 35.788 27.4462 41.227 27.4726 47.904C27.4767 48.9463 27.6111 49.9609 27.8648 50.9262C25.4148 51.001 23.456 53.0119 23.4657 55.4764C23.4756 57.9844 25.5156 60.0066 28.0256 59.9967L59.3028 59.8732C61.8074 59.8633 63.8367 57.825 63.8268 55.3171C63.817 52.8146 61.777 50.7869 59.267 50.7968L59.1855 50.7971C59.5621 49.8619 59.7646 48.8406 59.7603 47.7712C59.7428 43.3198 56.1156 39.7187 51.6552 39.7363C50.7099 39.7509 49.8033 39.9173 48.9623 40.2138Z" fill="white"/>
<path fill-rule="evenodd" clip-rule="evenodd" d="M53.2656 59.3108L43.2006 68.595L33.6833 58.2773C31.1834 55.5672 31.354 51.3371 34.0645 48.8288L34.2998 48.6118C37.01 46.1119 41.24 46.2826 43.7483 48.9931L53.2656 59.3108Z" fill="url(#paint3_linear_1642_884)"/>
<path fill-rule="evenodd" clip-rule="evenodd" d="M43.1619 68.5427L34.2072 58.8349L44.525 49.3176C47.2351 46.8177 51.4651 46.9884 53.9734 49.6989L54.1905 49.9342C56.6904 52.6443 56.5197 56.8743 53.8092 59.3826L43.8404 68.57C43.6483 68.7553 43.3468 68.7431 43.1619 68.5427Z" fill="url(#paint4_linear_1642_884)"/>
<g filter="url(#filter4_ddddd_1642_884)">
<path fill-rule="evenodd" clip-rule="evenodd" d="M53.2657 59.3102L43.2007 68.5944L33.6834 58.2767C31.1835 55.5665 31.3542 51.3365 34.0647 48.8282L34.2999 48.6112C37.0101 46.1113 41.2401 46.282 43.7484 48.9925L53.2657 59.3102Z" fill="url(#paint5_linear_1642_884)"/>
<path fill-rule="evenodd" clip-rule="evenodd" d="M43.162 68.5419L34.2074 58.8342L44.5251 49.3169C47.2352 46.817 51.4653 46.9876 53.9736 49.6981L54.1906 49.9334C56.6905 52.6436 56.5198 56.8736 53.8093 59.3819L43.8405 68.5693C43.6484 68.7545 43.3469 68.7424 43.162 68.5419Z" fill="url(#paint6_linear_1642_884)"/>
</g>
<g filter="url(#filter5_ddddd_1642_884)">
<path d="M48.515 55.9019L45.2159 55.7688L45.349 52.4697L42.6602 52.3612L42.5271 55.6603L39.228 55.5271L39.1195 58.216L42.4186 58.3491L42.2854 61.6482L44.9743 61.7567L45.1074 58.4576L48.4065 58.5907L48.515 55.9019Z" fill="white"/>
</g>
<defs>
<filter id="filter0_ddddd_1642_884" x="68.9667" y="27.1816" width="15.8523" height="14.4707" filterUnits="userSpaceOnUse" color-interpolation-filters="sRGB">
<feFlood flood-opacity="0" result="BackgroundImageFix"/>
<feColorMatrix in="SourceAlpha" type="matrix" values="0 0 0 0 0 0 0 0 0 0 0 0 0 0 0 0 0 0 127 0" result="hardAlpha"/>
<feOffset/>
<feColorMatrix type="matrix" values="0 0 0 0 0 0 0 0 0 0 0 0 0 0 0 0 0 0 0.1 0"/>
<feBlend mode="normal" in2="BackgroundImageFix" result="effect1_dropShadow_1642_884"/>
<feColorMatrix in="SourceAlpha" type="matrix" values="0 0 0 0 0 0 0 0 0 0 0 0 0 0 0 0 0 0 127 0" result="hardAlpha"/>
<feOffset/>
<feColorMatrix type="matrix" values="0 0 0 0 0 0 0 0 0 0 0 0 0 0 0 0 0 0 0.1 0"/>
<feBlend mode="normal" in2="effect1_dropShadow_1642_884" result="effect2_dropShadow_1642_884"/>
<feColorMatrix in="SourceAlpha" type="matrix" values="0 0 0 0 0 0 0 0 0 0 0 0 0 0 0 0 0 0 127 0" result="hardAlpha"/>
<feOffset dy="1"/>
<feGaussianBlur stdDeviation="0.5"/>
<feColorMatrix type="matrix" values="0 0 0 0 0 0 0 0 0 0 0 0 0 0 0 0 0 0 0.09 0"/>
<feBlend mode="normal" in2="effect2_dropShadow_1642_884" result="effect3_dropShadow_1642_884"/>
<feColorMatrix in="SourceAlpha" type="matrix" values="0 0 0 0 0 0 0 0 0 0 0 0 0 0 0 0 0 0 127 0" result="hardAlpha"/>
<feOffset dy="2"/>
<feGaussianBlur stdDeviation="0.5"/>
<feColorMatrix type="matrix" values="0 0 0 0 0 0 0 0 0 0 0 0 0 0 0 0 0 0 0.05 0"/>
<feBlend mode="normal" in2="effect3_dropShadow_1642_884" result="effect4_dropShadow_1642_884"/>
<feColorMatrix in="SourceAlpha" type="matrix" values="0 0 0 0 0 0 0 0 0 0 0 0 0 0 0 0 0 0 127 0" result="hardAlpha"/>
<feOffset dy="4"/>
<feGaussianBlur stdDeviation="0.5"/>
<feColorMatrix type="matrix" values="0 0 0 0 0 0 0 0 0 0 0 0 0 0 0 0 0 0 0.01 0"/>
<feBlend mode="normal" in2="effect4_dropShadow_1642_884" result="effect5_dropShadow_1642_884"/>
<feBlend mode="normal" in="SourceGraphic" in2="effect5_dropShadow_1642_884" result="shape"/>
</filter>
<filter id="filter1_ddddd_1642_884" x="68.9667" y="50.2996" width="15.8522" height="13.4612" filterUnits="userSpaceOnUse" color-interpolation-filters="sRGB">
<feFlood flood-opacity="0" result="BackgroundImageFix"/>
<feColorMatrix in="SourceAlpha" type="matrix" values="0 0 0 0 0 0 0 0 0 0 0 0 0 0 0 0 0 0 127 0" result="hardAlpha"/>
<feOffset/>
<feColorMatrix type="matrix" values="0 0 0 0 0 0 0 0 0 0 0 0 0 0 0 0 0 0 0.1 0"/>
<feBlend mode="normal" in2="BackgroundImageFix" result="effect1_dropShadow_1642_884"/>
<feColorMatrix in="SourceAlpha" type="matrix" values="0 0 0 0 0 0 0 0 0 0 0 0 0 0 0 0 0 0 127 0" result="hardAlpha"/>
<feOffset/>
<feColorMatrix type="matrix" values="0 0 0 0 0 0 0 0 0 0 0 0 0 0 0 0 0 0 0.1 0"/>
<feBlend mode="normal" in2="effect1_dropShadow_1642_884" result="effect2_dropShadow_1642_884"/>
<feColorMatrix in="SourceAlpha" type="matrix" values="0 0 0 0 0 0 0 0 0 0 0 0 0 0 0 0 0 0 127 0" result="hardAlpha"/>
<feOffset dy="1"/>
<feGaussianBlur stdDeviation="0.5"/>
<feColorMatrix type="matrix" values="0 0 0 0 0 0 0 0 0 0 0 0 0 0 0 0 0 0 0.09 0"/>
<feBlend mode="normal" in2="effect2_dropShadow_1642_884" result="effect3_dropShadow_1642_884"/>
<feColorMatrix in="SourceAlpha" type="matrix" values="0 0 0 0 0 0 0 0 0 0 0 0 0 0 0 0 0 0 127 0" result="hardAlpha"/>
<feOffset dy="2"/>
<feGaussianBlur stdDeviation="0.5"/>
<feColorMatrix type="matrix" values="0 0 0 0 0 0 0 0 0 0 0 0 0 0 0 0 0 0 0.05 0"/>
<feBlend mode="normal" in2="effect3_dropShadow_1642_884" result="effect4_dropShadow_1642_884"/>
<feColorMatrix in="SourceAlpha" type="matrix" values="0 0 0 0 0 0 0 0 0 0 0 0 0 0 0 0 0 0 127 0" result="hardAlpha"/>
<feOffset dy="3"/>
<feGaussianBlur stdDeviation="0.5"/>
<feColorMatrix type="matrix" values="0 0 0 0 0 0 0 0 0 0 0 0 0 0 0 0 0 0 0.01 0"/>
<feBlend mode="normal" in2="effect4_dropShadow_1642_884" result="effect5_dropShadow_1642_884"/>
<feBlend mode="normal" in="SourceGraphic" in2="effect5_dropShadow_1642_884" result="shape"/>
</filter>
<filter id="filter2_ddddd_1642_884" x="68.9667" y="38.7212" width="15.8523" height="12.4513" filterUnits="userSpaceOnUse" color-interpolation-filters="sRGB">
<feFlood flood-opacity="0" result="BackgroundImageFix"/>
<feColorMatrix in="SourceAlpha" type="matrix" values="0 0 0 0 0 0 0 0 0 0 0 0 0 0 0 0 0 0 127 0" result="hardAlpha"/>
<feOffset/>
<feColorMatrix type="matrix" values="0 0 0 0 0 0 0 0 0 0 0 0 0 0 0 0 0 0 0.1 0"/>
<feBlend mode="normal" in2="BackgroundImageFix" result="effect1_dropShadow_1642_884"/>
<feColorMatrix in="SourceAlpha" type="matrix" values="0 0 0 0 0 0 0 0 0 0 0 0 0 0 0 0 0 0 127 0" result="hardAlpha"/>
<feOffset/>
<feColorMatrix type="matrix" values="0 0 0 0 0 0 0 0 0 0 0 0 0 0 0 0 0 0 0.1 0"/>
<feBlend mode="normal" in2="effect1_dropShadow_1642_884" result="effect2_dropShadow_1642_884"/>
<feColorMatrix in="SourceAlpha" type="matrix" values="0 0 0 0 0 0 0 0 0 0 0 0 0 0 0 0 0 0 127 0" result="hardAlpha"/>
<feOffset dy="1"/>
<feGaussianBlur stdDeviation="0.5"/>
<feColorMatrix type="matrix" values="0 0 0 0 0 0 0 0 0 0 0 0 0 0 0 0 0 0 0.09 0"/>
<feBlend mode="normal" in2="effect2_dropShadow_1642_884" result="effect3_dropShadow_1642_884"/>
<feColorMatrix in="SourceAlpha" type="matrix" values="0 0 0 0 0 0 0 0 0 0 0 0 0 0 0 0 0 0 127 0" result="hardAlpha"/>
<feOffset dy="1"/>
<feGaussianBlur stdDeviation="0.5"/>
<feColorMatrix type="matrix" values="0 0 0 0 0 0 0 0 0 0 0 0 0 0 0 0 0 0 0.05 0"/>
<feBlend mode="normal" in2="effect3_dropShadow_1642_884" result="effect4_dropShadow_1642_884"/>
<feColorMatrix in="SourceAlpha" type="matrix" values="0 0 0 0 0 0 0 0 0 0 0 0 0 0 0 0 0 0 127 0" result="hardAlpha"/>
<feOffset dy="2"/>
<feGaussianBlur stdDeviation="0.5"/>
<feColorMatrix type="matrix" values="0 0 0 0 0 0 0 0 0 0 0 0 0 0 0 0 0 0 0.01 0"/>
<feBlend mode="normal" in2="effect4_dropShadow_1642_884" result="effect5_dropShadow_1642_884"/>
<feBlend mode="normal" in="SourceGraphic" in2="effect5_dropShadow_1642_884" result="shape"/>
</filter>
<filter id="filter3_ddddd_1642_884" x="68.9667" y="61.8495" width="15.8522" height="12.4602" filterUnits="userSpaceOnUse" color-interpolation-filters="sRGB">
<feFlood flood-opacity="0" result="BackgroundImageFix"/>
<feColorMatrix in="SourceAlpha" type="matrix" values="0 0 0 0 0 0 0 0 0 0 0 0 0 0 0 0 0 0 127 0" result="hardAlpha"/>
<feOffset/>
<feColorMatrix type="matrix" values="0 0 0 0 0 0 0 0 0 0 0 0 0 0 0 0 0 0 0.1 0"/>
<feBlend mode="normal" in2="BackgroundImageFix" result="effect1_dropShadow_1642_884"/>
<feColorMatrix in="SourceAlpha" type="matrix" values="0 0 0 0 0 0 0 0 0 0 0 0 0 0 0 0 0 0 127 0" result="hardAlpha"/>
<feOffset/>
<feColorMatrix type="matrix" values="0 0 0 0 0 0 0 0 0 0 0 0 0 0 0 0 0 0 0.1 0"/>
<feBlend mode="normal" in2="effect1_dropShadow_1642_884" result="effect2_dropShadow_1642_884"/>
<feColorMatrix in="SourceAlpha" type="matrix" values="0 0 0 0 0 0 0 0 0 0 0 0 0 0 0 0 0 0 127 0" result="hardAlpha"/>
<feOffset dy="1"/>
<feGaussianBlur stdDeviation="0.5"/>
<feColorMatrix type="matrix" values="0 0 0 0 0 0 0 0 0 0 0 0 0 0 0 0 0 0 0.09 0"/>
<feBlend mode="normal" in2="effect2_dropShadow_1642_884" result="effect3_dropShadow_1642_884"/>
<feColorMatrix in="SourceAlpha" type="matrix" values="0 0 0 0 0 0 0 0 0 0 0 0 0 0 0 0 0 0 127 0" result="hardAlpha"/>
<feOffset dy="1"/>
<feGaussianBlur stdDeviation="0.5"/>
<feColorMatrix type="matrix" values="0 0 0 0 0 0 0 0 0 0 0 0 0 0 0 0 0 0 0.05 0"/>
<feBlend mode="normal" in2="effect3_dropShadow_1642_884" result="effect4_dropShadow_1642_884"/>
<feColorMatrix in="SourceAlpha" type="matrix" values="0 0 0 0 0 0 0 0 0 0 0 0 0 0 0 0 0 0 127 0" result="hardAlpha"/>
<feOffset dy="2"/>
<feGaussianBlur stdDeviation="0.5"/>
<feColorMatrix type="matrix" values="0 0 0 0 0 0 0 0 0 0 0 0 0 0 0 0 0 0 0.01 0"/>
<feBlend mode="normal" in2="effect4_dropShadow_1642_884" result="effect5_dropShadow_1642_884"/>
<feBlend mode="normal" in="SourceGraphic" in2="effect5_dropShadow_1642_884" result="shape"/>
</filter>
<filter id="filter4_ddddd_1642_884" x="23.9147" y="44.8424" width="40.0447" height="50.8582" filterUnits="userSpaceOnUse" color-interpolation-filters="sRGB">
<feFlood flood-opacity="0" result="BackgroundImageFix"/>
<feColorMatrix in="SourceAlpha" type="matrix" values="0 0 0 0 0 0 0 0 0 0 0 0 0 0 0 0 0 0 127 0" result="hardAlpha"/>
<feOffset/>
<feColorMatrix type="matrix" values="0 0 0 0 0 0 0 0 0 0 0 0 0 0 0 0 0 0 0.1 0"/>
<feBlend mode="normal" in2="BackgroundImageFix" result="effect1_dropShadow_1642_884"/>
<feColorMatrix in="SourceAlpha" type="matrix" values="0 0 0 0 0 0 0 0 0 0 0 0 0 0 0 0 0 0 127 0" result="hardAlpha"/>
<feOffset dy="1"/>
<feGaussianBlur stdDeviation="1.5"/>
<feColorMatrix type="matrix" values="0 0 0 0 0 0 0 0 0 0 0 0 0 0 0 0 0 0 0.1 0"/>
<feBlend mode="normal" in2="effect1_dropShadow_1642_884" result="effect2_dropShadow_1642_884"/>
<feColorMatrix in="SourceAlpha" type="matrix" values="0 0 0 0 0 0 0 0 0 0 0 0 0 0 0 0 0 0 127 0" result="hardAlpha"/>
<feOffset dy="5"/>
<feGaussianBlur stdDeviation="2.5"/>
<feColorMatrix type="matrix" values="0 0 0 0 0 0 0 0 0 0 0 0 0 0 0 0 0 0 0.09 0"/>
<feBlend mode="normal" in2="effect2_dropShadow_1642_884" result="effect3_dropShadow_1642_884"/>
<feColorMatrix in="SourceAlpha" type="matrix" values="0 0 0 0 0 0 0 0 0 0 0 0 0 0 0 0 0 0 127 0" result="hardAlpha"/>
<feOffset dy="11"/>
<feGaussianBlur stdDeviation="3.5"/>
<feColorMatrix type="matrix" values="0 0 0 0 0 0 0 0 0 0 0 0 0 0 0 0 0 0 0.05 0"/>
<feBlend mode="normal" in2="effect3_dropShadow_1642_884" result="effect4_dropShadow_1642_884"/>
<feColorMatrix in="SourceAlpha" type="matrix" values="0 0 0 0 0 0 0 0 0 0 0 0 0 0 0 0 0 0 127 0" result="hardAlpha"/>
<feOffset dy="19"/>
<feGaussianBlur stdDeviation="4"/>
<feColorMatrix type="matrix" values="0 0 0 0 0 0 0 0 0 0 0 0 0 0 0 0 0 0 0.01 0"/>
<feBlend mode="normal" in2="effect4_dropShadow_1642_884" result="effect5_dropShadow_1642_884"/>
<feBlend mode="normal" in="SourceGraphic" in2="effect5_dropShadow_1642_884" result="shape"/>
</filter>
<filter id="filter5_ddddd_1642_884" x="36.1195" y="51.3612" width="15.3955" height="19.3955" filterUnits="userSpaceOnUse" color-interpolation-filters="sRGB">
<feFlood flood-opacity="0" result="BackgroundImageFix"/>
<feColorMatrix in="SourceAlpha" type="matrix" values="0 0 0 0 0 0 0 0 0 0 0 0 0 0 0 0 0 0 127 0" result="hardAlpha"/>
<feOffset/>
<feColorMatrix type="matrix" values="0 0 0 0 0 0 0 0 0 0 0 0 0 0 0 0 0 0 0.1 0"/>
<feBlend mode="normal" in2="BackgroundImageFix" result="effect1_dropShadow_1642_884"/>
<feColorMatrix in="SourceAlpha" type="matrix" values="0 0 0 0 0 0 0 0 0 0 0 0 0 0 0 0 0 0 127 0" result="hardAlpha"/>
<feOffset/>
<feGaussianBlur stdDeviation="0.5"/>
<feColorMatrix type="matrix" values="0 0 0 0 0 0 0 0 0 0 0 0 0 0 0 0 0 0 0.1 0"/>
<feBlend mode="normal" in2="effect1_dropShadow_1642_884" result="effect2_dropShadow_1642_884"/>
<feColorMatrix in="SourceAlpha" type="matrix" values="0 0 0 0 0 0 0 0 0 0 0 0 0 0 0 0 0 0 127 0" result="hardAlpha"/>
<feOffset dy="2"/>
<feGaussianBlur stdDeviation="1"/>
<feColorMatrix type="matrix" values="0 0 0 0 0 0 0 0 0 0 0 0 0 0 0 0 0 0 0.09 0"/>
<feBlend mode="normal" in2="effect2_dropShadow_1642_884" result="effect3_dropShadow_1642_884"/>
<feColorMatrix in="SourceAlpha" type="matrix" values="0 0 0 0 0 0 0 0 0 0 0 0 0 0 0 0 0 0 127 0" result="hardAlpha"/>
<feOffset dy="4"/>
<feGaussianBlur stdDeviation="1"/>
<feColorMatrix type="matrix" values="0 0 0 0 0 0 0 0 0 0 0 0 0 0 0 0 0 0 0.05 0"/>
<feBlend mode="normal" in2="effect3_dropShadow_1642_884" result="effect4_dropShadow_1642_884"/>
<feColorMatrix in="SourceAlpha" type="matrix" values="0 0 0 0 0 0 0 0 0 0 0 0 0 0 0 0 0 0 127 0" result="hardAlpha"/>
<feOffset dy="6"/>
<feGaussianBlur stdDeviation="1.5"/>
<feColorMatrix type="matrix" values="0 0 0 0 0 0 0 0 0 0 0 0 0 0 0 0 0 0 0.01 0"/>
<feBlend mode="normal" in2="effect4_dropShadow_1642_884" result="effect5_dropShadow_1642_884"/>
<feBlend mode="normal" in="SourceGraphic" in2="effect5_dropShadow_1642_884" result="shape"/>
</filter>
<linearGradient id="paint0_linear_1642_884" x1="25.2852" y1="9.49697" x2="100.192" y2="148.693" gradientUnits="userSpaceOnUse">
<stop offset="0.0001" stop-color="#50E6FF"/>
<stop offset="0.623265" stop-color="#0078D4"/>
</linearGradient>
<linearGradient id="paint1_linear_1642_884" x1="15.5867" y1="11.2231" x2="83.1292" y2="98.6208" gradientUnits="userSpaceOnUse">
<stop stop-color="#007ED8"/>
<stop offset="0.915361" stop-color="#002D4C"/>
</linearGradient>
<linearGradient id="paint2_linear_1642_884" x1="43.043" y1="15.7908" x2="43.793" y2="81.6658" gradientUnits="userSpaceOnUse">
<stop stop-color="white"/>
<stop offset="0.380208" stop-color="#9CEBFF"/>
<stop offset="1" stop-color="#9CEBFF" stop-opacity="0"/>
</linearGradient>
<linearGradient id="paint3_linear_1642_884" x1="27.2691" y1="45.3487" x2="80.996" y2="89.7978" gradientUnits="userSpaceOnUse">
<stop stop-color="#FFB900"/>
<stop offset="0.17" stop-color="#EF8400"/>
<stop offset="0.31" stop-color="#E25C01"/>
<stop offset="0.43" stop-color="#DB4401"/>
<stop offset="0.5" stop-color="#D83B01"/>
</linearGradient>
<linearGradient id="paint4_linear_1642_884" x1="31.8354" y1="51.2931" x2="72.6604" y2="69.739" gradientUnits="userSpaceOnUse">
<stop stop-color="#FFB900"/>
<stop offset="0.17" stop-color="#EF8400"/>
<stop offset="0.31" stop-color="#E25C01"/>
<stop offset="0.43" stop-color="#DB4401"/>
<stop offset="0.5" stop-color="#D83B01"/>
</linearGradient>
<linearGradient id="paint5_linear_1642_884" x1="27.2692" y1="45.3481" x2="80.9961" y2="89.7972" gradientUnits="userSpaceOnUse">
<stop stop-color="#FFB900"/>
<stop offset="0.17" stop-color="#EF8400"/>
<stop offset="0.31" stop-color="#E25C01"/>
<stop offset="0.43" stop-color="#DB4401"/>
<stop offset="0.5" stop-color="#D83B01"/>
</linearGradient>
<linearGradient id="paint6_linear_1642_884" x1="31.8356" y1="51.2923" x2="72.6605" y2="69.7382" gradientUnits="userSpaceOnUse">
<stop stop-color="#FFB900"/>
<stop offset="0.17" stop-color="#EF8400"/>
<stop offset="0.31" stop-color="#E25C01"/>
<stop offset="0.43" stop-color="#DB4401"/>
<stop offset="0.5" stop-color="#D83B01"/>
</linearGradient>
</defs>
</svg>
