<?xml version="1.0" encoding="UTF-8"?>
<svg width="107px" height="127px" viewBox="0 0 107 127" version="1.1" xmlns="http://www.w3.org/2000/svg" xmlns:xlink="http://www.w3.org/1999/xlink">
    <!-- Generator: Sketch 61.2 (89653) - https://sketch.com -->
    <title>Integrating with Common Data Service/Integrating-with-common-Data-Services</title>
    <desc>Created with Sketch.</desc>
    <defs>
        <path d="M44.5234375,1.54914609 C46.2234375,0.516382029 48.1109375,0 50,0 C51.8890625,0 53.778125,0.516382029 55.475,1.54914609 L94.365625,25.1853599 C97.846875,27.3028615 100,31.2629081 100,35.5582677 L100,82.4417323 C100,86.7354153 97.846875,90.698815 94.365625,92.8146401 L55.475,116.45253 C53.778125,117.483618 51.8890625,118 50,118 C48.1109375,118 46.2234375,117.483618 44.5234375,116.45253 L5.634375,92.8146401 C2.1515625,90.698815 0,86.7354153 0,82.4417323 L0,35.5582677 C0,31.2629081 2.1515625,27.3028615 5.634375,25.1853599 L44.5234375,1.54914609 Z" id="path-1"></path>
        <filter x="-16.0%" y="-15.2%" width="132.0%" height="127.3%" filterUnits="objectBoundingBox" id="filter-3">
            <feOffset dx="0" dy="2" in="SourceAlpha" result="shadowOffsetOuter1"></feOffset>
            <feColorMatrix values="0 0 0 0 0   0 0 0 0 0   0 0 0 0 0  0 0 0 0.099071558 0" type="matrix" in="shadowOffsetOuter1" result="shadowMatrixOuter1"></feColorMatrix>
            <feMerge>
                <feMergeNode in="shadowMatrixOuter1"></feMergeNode>
                <feMergeNode in="SourceGraphic"></feMergeNode>
            </feMerge>
        </filter>
        <filter x="-12.5%" y="-12.1%" width="125.0%" height="124.2%" filterUnits="objectBoundingBox" id="filter-4">
            <feOffset dx="0" dy="2" in="SourceAlpha" result="shadowOffsetOuter1"></feOffset>
            <feColorMatrix values="0 0 0 0 0   0 0 0 0 0   0 0 0 0 0  0 0 0 0.0964956975 0" type="matrix" in="shadowOffsetOuter1" result="shadowMatrixOuter1"></feColorMatrix>
            <feMerge>
                <feMergeNode in="shadowMatrixOuter1"></feMergeNode>
                <feMergeNode in="SourceGraphic"></feMergeNode>
            </feMerge>
        </filter>
        <linearGradient x1="58.5494807%" y1="-10.4657707%" x2="34.1382236%" y2="116.311077%" id="linearGradient-5">
            <stop stop-color="#FFFFFF" offset="0%"></stop>
            <stop stop-color="#000000" stop-opacity="0.5" offset="100%"></stop>
        </linearGradient>
        <path d="M44.1948437,-2.35790515 C45.9968437,-3.45263505 47.9975937,-4 50,-4 C52.0024062,-4 54.0048125,-3.45263505 55.8035,-2.35790515 L97.0275625,22.6964815 C100.717687,24.9410332 103,29.1386826 103,33.6917638 L103,83.3882362 C103,87.9395402 100.717687,92.1407439 97.0275625,94.3835185 L55.8035,119.439682 C54.0048125,120.532635 52.0024062,121.08 50,121.08 C47.9975937,121.08 45.9968437,120.532635 44.1948437,119.439682 L2.9724375,94.3835185 C-0.71934375,92.1407439 -3,87.9395402 -3,83.3882362 L-3,33.6917638 C-3,29.1386826 -0.71934375,24.9410332 2.9724375,22.6964815 L44.1948437,-2.35790515 Z" id="path-6"></path>
        <filter x="-0.5%" y="-0.4%" width="101.9%" height="101.6%" filterUnits="objectBoundingBox" id="filter-7">
            <feOffset dx="1" dy="1" in="SourceAlpha" result="shadowOffsetOuter1"></feOffset>
            <feMorphology radius="4" operator="erode" in="SourceAlpha" result="shadowInner"></feMorphology>
            <feOffset dx="1" dy="1" in="shadowInner" result="shadowInner"></feOffset>
            <feComposite in="shadowOffsetOuter1" in2="shadowInner" operator="out" result="shadowOffsetOuter1"></feComposite>
            <feColorMatrix values="0 0 0 0 0   0 0 0 0 0   0 0 0 0 0  0 0 0 0.15 0" type="matrix" in="shadowOffsetOuter1"></feColorMatrix>
        </filter>
    </defs>
    <g id="Badges" stroke="none" stroke-width="1" fill="none" fill-rule="evenodd">
        <g id="Integrating-with-Common-Data-Service" transform="translate(-47.000000, -46.000000)">
            <g id="Integrating-with-Common-Data-Service/Integrating-with-common-Data-Services" transform="translate(50.000000, 50.000000)">
                <g id="Mask" transform="translate(2.000000, 2.000000)">
                    <g id="Hex" transform="translate(-1.000000, 0.000000)">
                        <mask id="mask-2" fill="white">
                            <use xlink:href="#path-1"></use>
                        </mask>
                        <use id="Trophy-1" fill="#FF0000" fill-rule="evenodd" xlink:href="#path-1"></use>
                        <g id="Color/Stone" mask="url(#mask-2)" fill="#965596" fill-rule="evenodd">
                            <rect id="Rectangle" x="0" y="0" width="100" height="118"></rect>
                        </g>
                    </g>
                    <g id="Database" transform="translate(16.382353, 26.000000)">
                        <g filter="url(#filter-3)" transform="translate(0.617647, 0.000000)">
                            <g id="Lower" transform="translate(0.000000, 17.015625)">
                                <path d="M12.5,8.9525017 C5.83717671,8.9525017 0.435132107,6.93841097 0.435132107,4.45229897 L0.435132107,10.4525693 C0.435132107,12.9386813 5.83717671,14.952772 12.5,14.952772 C19.163326,14.952772 24.5648679,12.9386813 24.5648679,10.4525693 L24.5648679,4.45229897 C24.5648679,6.93841097 19.163326,8.9525017 12.5,8.9525017" id="Fill-101" fill="#E1E4E1"></path>
                                <path d="M12.5,10.9360911 L12.5,12.9346811 C12.5,13.5022067 12.0249458,13.954227 11.4548808,13.9362262 C5.28118738,13.7387173 0.435132107,11.8071303 0.435132107,9.45252423 L0.435132107,10.4525693 C0.435132107,12.9386813 5.83717671,14.952772 12.5,14.952772 C19.163326,14.952772 24.5648679,12.9386813 24.5648679,10.4525693 L24.5648679,5.45234403 C24.5648679,7.81695055 19.6790991,9.75453783 13.4682056,9.9380461 C12.9283028,9.95404682 12.5,10.3985668 12.5,10.9360911" id="Fill-106" fill="#D3DAD8"></path>
                                <path d="M24.5,4.50413603 C24.5,6.99242096 19.1275,9.00827206 12.5,9.00827206 C5.873,9.00827206 0.5,6.99242096 0.5,4.50413603 C0.5,2.0158511 5.873,0 12.5,0 C19.1275,0 24.5,2.0158511 24.5,4.50413603" id="Fill-100" stroke="#E1E4E1" stroke-width="0.25" fill="#BAC0C2"></path>
                            </g>
                            <g id="Mid" transform="translate(0.000000, 8.507812)">
                                <path d="M12.5,8.95993127 C5.83717671,8.95993127 0.435132107,6.94584054 0.435132107,4.45972854 L0.435132107,10.4599988 C0.435132107,12.9461108 5.83717671,14.9602016 12.5,14.9602016 C19.163326,14.9602016 24.5648679,12.9461108 24.5648679,10.4599988 L24.5648679,4.45972854 C24.5648679,6.94584054 19.163326,8.95993127 12.5,8.95993127" id="Fill-102" fill="#E1E4E1"></path>
                                <path d="M12.5,10.9435206 L12.5,12.9421107 C12.5,13.5096362 12.0249458,13.9616566 11.4548808,13.9436558 C5.28118738,13.7461469 0.435132107,11.8145599 0.435132107,9.4599538 L0.435132107,10.4599988 C0.435132107,12.9461108 5.83717671,14.9602016 12.5,14.9602016 C19.163326,14.9602016 24.5648679,12.9461108 24.5648679,10.4599988 L24.5648679,5.45977359 C24.5648679,7.82438012 19.6790991,9.7619674 13.4682056,9.94547567 C12.9283028,9.96147639 12.5,10.4059964 12.5,10.9435206" id="Fill-107" fill="#D3DAD8"></path>
                                <path d="M24.5,4.50413603 C24.5,6.99242096 19.1275,9.00827206 12.5,9.00827206 C5.873,9.00827206 0.5,6.99242096 0.5,4.50413603 C0.5,2.0158511 5.873,0 12.5,0 C19.1275,0 24.5,2.0158511 24.5,4.50413603" id="Fill-103" stroke="#E1E4E1" stroke-width="0.25" fill="#BAC0C2"></path>
                            </g>
                            <g id="Top">
                                <path d="M12.5,8.96736084 C5.83717671,8.96736084 0.435132107,6.95327011 0.435132107,4.46715811 L0.435132107,10.4674284 C0.435132107,12.9535404 5.83717671,14.9676311 12.5,14.9676311 C19.163326,14.9676311 24.5648679,12.9535404 24.5648679,10.4674284 L24.5648679,4.46715811 C24.5648679,6.95327011 19.163326,8.96736084 12.5,8.96736084" id="Fill-104" fill="#E1E4E1"></path>
                                <path d="M12.5,10.9509502 L12.5,12.9495402 C12.5,13.5170658 12.0249458,13.9690862 11.4548808,13.9510854 C5.28118738,13.7535765 0.435132107,11.8219894 0.435132107,9.46738337 L0.435132107,10.4674284 C0.435132107,12.9535404 5.83717671,14.9676311 12.5,14.9676311 C19.163326,14.9676311 24.5648679,12.9535404 24.5648679,10.4674284 L24.5648679,5.46720316 C24.5648679,7.83180969 19.6790991,9.76939697 13.4682056,9.95290524 C12.9283028,9.96890596 12.5,10.413426 12.5,10.9509502" id="Fill-108" fill="#D3DAD8"></path>
                                <path d="M24.0249206,4.50413603 C24.0249206,6.99242096 18.8762748,9.00827206 12.5249206,9.00827206 C6.17404559,9.00827206 1.02492059,6.99242096 1.02492059,4.50413603 C1.02492059,2.0158511 6.17404559,0 12.5249206,0 C18.8762748,0 24.0249206,2.0158511 24.0249206,4.50413603" id="Fill-105" stroke="#E1E4E1" stroke-width="1.75" fill="#C4CBCD"></path>
                            </g>
                        </g>
                    </g>
                    <g id="Gear" filter="url(#filter-4)" transform="translate(49.000000, 58.000000)">
                        <path d="M21,16.5 C21,19.257 18.7565,21.5 16,21.5 C13.243,21.5 11,19.257 11,16.5 C11,13.743 13.243,11.5 16,11.5 C18.7565,11.5 21,13.743 21,16.5 Z M30.2405,13.807 L27.9155,13.29 C27.725,13.248 27.4285,12.978 27.369,12.792 C27.3615,12.7665 27.352,12.7415 27.3415,12.717 L26.7,11.158 C26.689,11.131 26.6765,11.104 26.663,11.078 C26.573,10.9055 26.5905,10.508 26.695,10.3445 L27.974,8.3345 C28.5165,7.482 28.3815,6.2545 27.6675,5.54 L26.96,4.8325 C26.2625,4.1345 25,3.995 24.1655,4.526 L22.155,5.8045 C22.088,5.848 21.9295,5.8945 21.7415,5.8945 C21.5875,5.8945 21.473,5.8635 21.422,5.837 C21.3965,5.823 21.369,5.811 21.3415,5.8 L19.783,5.158 C19.7585,5.148 19.7335,5.1385 19.708,5.131 C19.5225,5.0715 19.252,4.775 19.21,4.584 L18.6935,2.2595 C18.474,1.273 17.5105,0.5 16.5,0.5 L15.5,0.5 C14.489,0.5 13.526,1.273 13.307,2.259 L12.79,4.585 C12.7475,4.775 12.4775,5.0715 12.292,5.131 C12.2665,5.1385 12.2415,5.148 12.2165,5.158 L10.658,5.8 C10.6305,5.811 10.6035,5.823 10.5775,5.837 C10.527,5.8635 10.4125,5.8945 10.258,5.8945 C10.07,5.8945 9.9115,5.8475 9.844,5.8045 L7.8345,4.5265 C7,3.9955 5.737,4.1355 5.04,4.833 L4.3325,5.54 C3.618,6.255 3.4835,7.4825 4.026,8.335 L5.305,10.3445 C5.409,10.5085 5.4265,10.905 5.337,11.0775 C5.3235,11.104 5.3105,11.131 5.2995,11.158 L4.658,12.717 C4.648,12.7415 4.6385,12.7665 4.6305,12.792 C4.571,12.978 4.275,13.248 4.084,13.2905 L1.7595,13.8065 C0.773,14.026 0,14.989 0,16 L0,17 C0,18.0105 0.773,18.974 1.759,19.193 L4.0845,19.7095 C4.275,19.752 4.571,20.022 4.6305,20.208 C4.6385,20.2335 4.648,20.2585 4.658,20.283 L5.2995,21.842 C5.3105,21.869 5.323,21.8955 5.337,21.922 C5.4265,22.094 5.409,22.4915 5.3045,22.6555 L4.026,24.665 C3.483,25.5175 3.618,26.7455 4.3325,27.46 L5.04,28.1675 C5.7365,28.8635 6.998,29.0055 7.835,28.474 L9.8435,27.1955 C9.9115,27.152 10.07,27.1055 10.258,27.1055 C10.4125,27.1055 10.527,27.136 10.5775,27.163 C10.604,27.176 10.6305,27.189 10.658,27.2 L12.2165,27.842 C12.2415,27.852 12.2665,27.861 12.292,27.869 C12.4775,27.9285 12.7475,28.225 12.79,28.4155 L13.307,30.7405 C13.526,31.727 14.489,32.5 15.5,32.5 L16.5,32.5 C17.5105,32.5 18.4735,31.727 18.693,30.7405 L19.21,28.4155 C19.252,28.225 19.5225,27.9285 19.708,27.869 C19.7335,27.861 19.7585,27.852 19.783,27.842 L21.3415,27.2 C21.369,27.189 21.396,27.176 21.422,27.163 C21.473,27.136 21.5875,27.1055 21.741,27.1055 C21.929,27.1055 22.088,27.152 22.155,27.1955 L24.165,28.4735 C24.999,29.0055 26.2625,28.8645 26.96,28.1675 L27.667,27.4605 C28.3815,26.746 28.5165,25.518 27.974,24.665 L26.695,22.6555 C26.5905,22.4915 26.573,22.0945 26.663,21.9225 C26.6765,21.896 26.689,21.8695 26.7,21.8425 L27.3415,20.283 C27.352,20.2585 27.3615,20.2335 27.369,20.208 C27.4285,20.022 27.725,19.752 27.916,19.7095 L30.24,19.193 C31.227,18.974 32,18.0105 32,17 L32,16 C32,14.989 31.227,14.026 30.2405,13.807 L30.2405,13.807 Z" id="Fill-376" fill="#ADBDC4"></path>
                        <path d="M8.53486053,28.6877372 L10.4467722,27.3771273 C10.5115021,27.3325348 10.6623799,27.2848669 10.841339,27.2848669 C10.9884091,27.2848669 11.0974029,27.3161329 11.1454743,27.343811 C11.1707,27.3571375 11.1959256,27.370464 11.2221031,27.3817403 L12.7056552,28.0398643 C12.7294529,28.0501155 12.7532507,28.0593415 12.7775244,28.0675424 C12.9541038,28.1285368 13.2111195,28.4324835 13.2515757,28.627768 L13.7437133,31.0111611 C13.9521816,32.0224374 14.8688712,32.8148515 15.8312524,32.8148515 L16.7831627,32.8148515 C17.7450679,32.8148515 18.6617575,32.0224374 18.8707018,31.0111611 L19.3628394,28.627768 C19.4028196,28.4324835 19.6603113,28.1285368 19.8368907,28.0675424 C19.8611644,28.0593415 19.8849621,28.0501155 19.9082839,28.0398643 L21.391836,27.3817403 C21.4180136,27.370464 21.4437151,27.3571375 21.4684648,27.343811 C21.5170122,27.3161329 21.6260059,27.2848669 21.7721242,27.2848669 C21.9510833,27.2848669 22.102437,27.3325348 22.166215,27.3771273 L24.0795545,28.6872247 C24.8734477,29.232586 26.0761862,29.0880447 26.7401436,28.3735394 L27.4131442,27.6487828 C28.093284,26.9163379 28.2217919,25.6574963 27.7053806,24.7830729 L26.4878874,22.7231037 C26.3884128,22.5549848 26.3717544,22.148014 26.4574263,21.9716942 C26.4702771,21.9445286 26.482176,21.917363 26.492647,21.8896849 L27.1032974,20.2910176 C27.1132924,20.2659023 27.1223356,20.2402744 27.1294749,20.2141339 C27.1861136,20.0234625 27.468355,19.7466813 27.6501698,19.7031139 L29.8624092,19.1736419 C30.8019446,18.9491416 31.5377712,17.961443 31.5377712,16.925564 L31.5377712,15.9004486 C31.5377712,14.8640571 30.8019446,13.876871 29.8628851,13.6523707 L27.6496939,13.1223861 C27.468355,13.0793313 27.1861136,12.8025501 27.1294749,12.6118787 C27.1223356,12.5857382 27.1132924,12.5601104 27.1032974,12.534995 L26.492647,10.9368402 C26.482176,10.9091621 26.4702771,10.881484 26.4574263,10.854831 C26.3717544,10.6779986 26.3884128,10.2705153 26.4878874,10.1029089 L27.7053806,8.04242712 C28.2217919,7.1685163 28.093284,5.91018724 27.4136201,5.17774234 L27.0766439,4.81485152 L19.6707823,12.7902487 C20.532737,13.7184907 21.0667587,14.9998848 21.0667587,16.4130063 C21.0667587,19.2392493 18.9311481,21.5385829 16.3072075,21.5385829 C14.9949993,21.5385829 13.8051115,20.9634932 12.9431568,20.0357639 L5.53777118,28.0106485 L5.87427145,28.3735394 C6.53727692,29.0870196 7.73811167,29.232586 8.53486053,28.6877372" id="Fill-377" fill="#8BA6B1"></path>
                        <path d="M15.5,21.5 C12.93575,21.5 10.8571429,19.2615 10.8571429,16.5 C10.8571429,13.7385 12.93575,11.5 15.5,11.5 C18.06425,11.5 20.1428571,13.7385 20.1428571,16.5 C20.1428571,19.2615 18.06425,21.5 15.5,21.5 Z M15.5,9.5 C11.9101429,9.5 9,12.634 9,16.5 C9,20.366 11.9101429,23.5 15.5,23.5 C19.0898571,23.5 22,20.366 22,16.5 C22,12.634 19.0898571,9.5 15.5,9.5 L15.5,9.5 Z" id="Fill-378" fill="#8BA6B1"></path>
                        <path d="M20.9916318,16.4707113 C20.9916318,19.2437657 18.7437657,21.4916318 15.9707113,21.4916318 C14.5839331,21.4916318 13.3287029,20.9297908 12.4204184,20.0210042 L11,21.4409205 C12.2723013,22.7132218 14.0296234,23.5 15.9707113,23.5 C19.852887,23.5 23,20.352887 23,16.4707113 C23,14.5296234 22.2132218,12.7723013 20.9414226,11.5 L19.5210042,12.9204184 C20.4297908,13.8287029 20.9916318,15.0839331 20.9916318,16.4707113" id="Fill-379" fill="#ADBDC4"></path>
                    </g>
                    <g id="Group" transform="translate(48.000000, 36.000000)">
                        <path d="M0,0 L16,0 C17.6568542,-3.04359188e-16 19,1.34314575 19,3 L19,11.1903566 L19,11.1903566" id="Path-292" stroke="#E1E4E1" stroke-width="3"></path>
                        <polygon id="Rectangle" fill="#E1E4E1" transform="translate(19.000000, 10.000000) rotate(-45.000000) translate(-19.000000, -10.000000) " points="14 5 24 15 14 15"></polygon>
                    </g>
                    <g id="Group" transform="translate(29.500000, 73.000000) rotate(-180.000000) translate(-29.500000, -73.000000) translate(16.000000, 64.000000)">
                        <path d="M0,0 L16,0 C17.6568542,-3.04359188e-16 19,1.34314575 19,3 L19,11.1903566 L19,11.1903566" id="Path-292" stroke="#E1E4E1" stroke-width="3"></path>
                        <polygon id="Rectangle" fill="#E1E4E1" transform="translate(19.000000, 10.000000) rotate(-45.000000) translate(-19.000000, -10.000000) " points="14 5 24 15 14 15"></polygon>
                    </g>
                </g>
                <g id="PowerApps-Hex-Border">
                    <path d="M44.5234375,1.54914609 C46.2234375,0.516382029 48.1109375,0 50,0 C51.8890625,0 53.778125,0.516382029 55.475,1.54914609 L94.365625,25.1853599 C97.846875,27.3028615 100,31.2629081 100,35.5582677 L100,82.4417323 C100,86.7354153 97.846875,90.698815 94.365625,92.8146401 L55.475,116.45253 C53.778125,117.483618 51.8890625,118 50,118 C48.1109375,118 46.2234375,117.483618 44.5234375,116.45253 L5.634375,92.8146401 C2.1515625,90.698815 0,86.7354153 0,82.4417323 L0,35.5582677 C0,31.2629081 2.1515625,27.3028615 5.634375,25.1853599 L44.5234375,1.54914609 Z" id="Combined-Shape" fill="url(#linearGradient-5)" fill-rule="evenodd" opacity="0.400000006" style="mix-blend-mode: overlay;"></path>
                    <g id="Azure-Hex-Border">
                        <use fill="black" fill-opacity="1" filter="url(#filter-7)" xlink:href="#path-6"></use>
                        <path stroke="#F2F1F0" stroke-width="4" d="M45.2332564,-0.648607259 L45.2336026,-0.64881765 L4.01144651,24.4054169 C0.925809217,26.2814415 -1,29.8266197 -1,33.6917638 L-1,83.3882362 C-1,87.2528359 0.926781978,90.8006347 4.01125014,92.6744637 L45.2320242,117.729637 C46.7012131,118.620732 48.3399349,119.08 50,119.08 C51.660622,119.08 53.3002463,118.620479 54.7647178,117.730609 L95.9888139,92.6744248 C99.072436,90.800269 101,87.2517424 101,83.3882362 L101,33.6917638 C101,29.8277131 99.0734096,26.2818084 95.9888341,24.4055875 L54.7636916,-0.649455998 C53.3000291,-1.54028063 51.6610283,-2 50,-2 C48.3395281,-2 46.7014267,-1.54053289 45.2332564,-0.648607259 Z" stroke-linejoin="square"></path>
                    </g>
                    <path d="M45.5618501,3.25844398 L45.5621963,3.25823359 L6.67338401,26.8942953 C3.79673288,28.6432593 2,31.9508238 2,35.5582677 L2,82.4417323 C2,86.0486597 3.79764663,89.3586805 6.67318764,91.1055853 L45.560618,114.742485 C46.9289662,115.572418 48.4546283,116 50,116 C51.5458817,116 53.0723633,115.572188 54.4362178,114.743457 L93.3268764,91.1055464 C96.2016145,89.3583456 98,86.0476286 98,82.4417323 L98,35.5582677 C98,31.9518547 96.202529,28.6435953 93.3268966,26.8944659 L54.4351916,3.25759524 C53.0721095,2.42798656 51.5462432,2 50,2 C48.4542664,2 46.9292165,2.42775755 45.5618501,3.25844398 Z" id="Azure-Hex-Border" stroke="#742774" stroke-width="4"></path>
                </g>
            </g>
        </g>
    </g>
</svg>