<svg width="103" height="102" viewBox="0 0 103 102" fill="none" xmlns="http://www.w3.org/2000/svg">
<g clip-path="url(#clip0_1708_2354)">
<path d="M51.0893 97.8099C25.2393 97.8099 4.2793 76.8599 4.2793 50.9999C4.2793 25.1399 25.2393 4.18994 51.0893 4.18994C76.9393 4.18994 97.8993 25.1499 97.8993 50.9999C97.8993 76.8499 76.9393 97.8099 51.0893 97.8099Z" fill="url(#paint0_linear_1708_2354)"/>
<path fill-rule="evenodd" clip-rule="evenodd" d="M96.9893 51.0001C96.9893 76.3501 76.4393 96.9001 51.0893 96.9001C25.7393 96.9001 5.18934 76.3501 5.18934 51.0001C5.18934 25.6501 25.7393 5.10011 51.0893 5.10011C76.4393 5.10011 96.9893 25.6501 96.9893 51.0001ZM51.0893 1.36011C78.5093 1.36011 100.729 23.5801 100.729 51.0001C100.729 78.4201 78.4993 100.64 51.0893 100.64C23.6693 100.64 1.44934 78.4101 1.44934 51.0001C1.44934 23.5801 23.6693 1.36011 51.0893 1.36011Z" fill="#F2F1F0"/>
<path fill-rule="evenodd" clip-rule="evenodd" d="M94.1794 51C94.1794 74.8 74.8894 94.09 51.0894 94.09C27.2894 94.09 7.9994 74.8 7.9994 51C7.9994 27.2 27.2894 7.91005 51.0894 7.91005C74.8894 7.91005 94.1794 27.2 94.1794 51ZM51.0894 4.17004C76.9494 4.17004 97.9194 25.14 97.9194 51C97.9194 76.86 76.9494 97.8301 51.0894 97.8301C25.2294 97.8301 4.2594 76.86 4.2594 51C4.2594 25.14 25.2194 4.17004 51.0894 4.17004Z" fill="url(#paint1_linear_1708_2354)"/>
<g filter="url(#filter0_ddddd_1708_2354)">
<path d="M86.3796 45.9664C86.3796 45.2035 85.7554 44.5693 84.9825 44.5693C84.4772 44.5693 81.356 44.2919 79.6715 42.984C79.6715 42.984 79.6814 42.9641 79.6715 42.984C79.0374 40.6753 78.106 38.5152 76.9566 36.4641C76.6593 34.522 78.6708 33.1051 79.5923 31.5891C79.7508 31.3216 79.8499 31.1729 79.9093 31.0639C80.0778 30.5685 79.9886 30.0037 79.5923 29.6173C79.5923 29.6173 78.0465 27.4077 76.4612 25.8322C74.8758 24.2568 72.4779 22.5029 72.4779 22.5029C71.9329 21.958 71.0511 21.958 70.5061 22.5029C70.1494 22.8497 67.7713 24.8116 65.6212 25.1287C65.5915 25.1287 65.5915 25.1287 65.5915 25.1287C63.5998 23.9991 61.3605 23.0677 59.1212 22.4336H59.0914C57.5061 21.2644 57.9222 18.8467 57.5061 17.1226C57.5061 16.3596 56.8818 15.7255 56.109 15.7255C56.109 15.7255 53.4535 15.2598 51.2141 15.2598C48.9748 15.2598 46.0517 15.7255 46.0517 15.7255C45.2888 15.7255 44.6546 16.3497 44.6546 17.1226C44.6546 17.6279 44.3772 20.7491 43.0693 22.4336C40.8497 23.0578 38.5212 24.0487 36.5494 25.1485C34.6073 25.4458 33.1904 23.4343 31.6744 22.5128C31.4069 22.3543 31.2582 22.2552 31.1492 22.1958C30.6538 22.0273 30.089 22.1165 29.7026 22.5128C29.7026 22.5128 27.493 24.0586 25.9175 25.644C24.3421 27.2293 22.5882 29.6272 22.5882 29.6272C22.0433 30.1722 22.0433 31.054 22.5882 31.599C22.935 31.9458 24.9564 34.3635 25.2239 36.474V36.4938C24.1241 38.4656 23.1629 40.7843 22.5288 43.0038C22.5288 43.0038 22.5585 42.9641 22.5288 43.0038C21.1713 44.6486 18.9419 44.173 17.2178 44.5891C16.4548 44.5891 15.8207 45.2134 15.8207 45.9863C15.8207 45.9863 15.355 48.6418 15.355 50.8811C15.355 53.1204 15.8207 56.0435 15.8207 56.0435C15.8207 56.8064 16.4449 57.4406 17.2178 57.4406C17.7231 57.4406 20.8443 57.718 22.5288 59.0259C22.5684 59.0061 22.5486 59.0557 22.5486 59.0557C23.1927 61.2851 24.1142 63.5145 25.2338 65.4764C25.214 65.5062 25.2338 65.4764 25.2437 65.5458C25.432 67.577 23.5296 68.9048 22.6081 70.4208C22.4495 70.6883 22.3504 70.837 22.291 70.946C22.1225 71.4414 22.2117 72.0062 22.6081 72.3926C22.6081 72.3926 24.1538 74.6022 25.7392 76.1777C27.3245 77.7631 29.7224 79.507 29.7224 79.507C30.2674 80.0519 31.1493 80.0519 31.6942 79.507C32.041 79.1602 34.4587 77.1388 36.5692 76.8713C36.5692 76.8713 36.5593 76.8812 36.599 76.8911C38.6302 78.0207 40.7209 78.9124 43.0098 79.5367C43.0296 79.5466 43.099 79.5664 43.099 79.5664C44.6844 80.7356 44.2682 83.1533 44.6844 84.8774C44.7735 85.6503 45.1996 86.1457 46.0815 86.2745C46.0815 86.2745 48.737 86.7402 50.9763 86.7402C53.2156 86.7402 56.1387 86.2844 56.1387 86.2844C56.9016 86.1556 57.5358 85.6602 57.5358 84.8873C57.5358 84.382 57.8132 81.2608 59.1212 79.5763C59.1212 79.5763 59.1806 79.5268 59.2302 79.4772C61.5587 78.8233 63.3323 78.0999 65.3933 76.9208C65.5023 76.8812 65.3834 76.8911 65.6311 76.8515C67.5732 76.5542 68.9901 78.5657 70.5061 79.4872C70.7736 79.6457 70.9223 79.7448 71.0313 79.8042C71.5267 79.9727 72.0915 79.8835 72.4779 79.4872C72.4779 79.4872 74.6875 77.9414 76.263 76.356C77.8484 74.7707 79.5923 72.3728 79.5923 72.3728C80.1372 71.8278 80.1372 70.946 79.5923 70.401C79.2455 70.0542 77.2241 67.6365 76.9566 65.526C76.9269 65.308 76.9467 65.2783 76.9764 65.2188C78.1555 63.1479 78.8888 61.6319 79.5328 59.2737C79.5328 59.2737 79.5031 59.1944 79.6517 58.9962C80.8209 57.4108 83.2386 57.827 84.9627 57.4108C85.7257 57.4108 86.3598 56.7866 86.3598 56.0137C86.3598 56.0137 86.8255 53.3582 86.8255 51.1189C86.8354 48.8895 86.3796 45.9664 86.3796 45.9664Z" fill="url(#paint2_linear_1708_2354)"/>
</g>
<path d="M71.0697 79.7935C71.0604 79.7935 71.0604 79.7842 71.0511 79.7842C71.0604 79.7842 71.0697 79.7935 71.0697 79.7935Z" fill="#9FC2F6"/>
<path d="M71.0513 79.7841C70.8531 79.6652 70.5261 79.467 70.5261 79.467C70.6847 79.6157 70.863 79.7148 71.0513 79.7841Z" fill="#9FC2F6"/>
<path d="M71.0704 79.7947C71.255 79.8918 71.2161 79.8821 71.0704 79.7947V79.7947Z" fill="#9FC2F6"/>
<path d="M31.2083 22.215C31.4064 22.3339 31.7334 22.532 31.7334 22.532C31.5749 22.3834 31.3965 22.2744 31.2083 22.215Z" fill="#9FC2F6"/>
<path d="M31.1891 22.2062C31.1984 22.2062 31.1984 22.2154 31.2076 22.2154C31.1984 22.2154 31.1891 22.2062 31.1891 22.2062Z" fill="#9FC2F6"/>
<path d="M31.1854 22.2034C31.012 22.0974 31.0409 22.1167 31.1854 22.2034V22.2034Z" fill="#9FC2F6"/>
<path d="M22.329 70.9454C22.2327 71.1188 22.252 71.0803 22.329 70.9454V70.9454Z" fill="#9FC2F6"/>
<path d="M22.3302 70.9448C22.3302 70.9355 22.3395 70.9355 22.3395 70.9263C22.3395 70.9355 22.3302 70.9448 22.3302 70.9448Z" fill="#9FC2F6"/>
<path d="M22.3407 70.9273C22.4596 70.7291 22.6578 70.4021 22.6578 70.4021C22.5191 70.5507 22.4101 70.739 22.3407 70.9273Z" fill="#9FC2F6"/>
<path d="M79.9196 31.0737C79.8007 31.2719 79.6025 31.5989 79.6025 31.5989C79.7413 31.4403 79.8503 31.262 79.9196 31.0737Z" fill="#9FC2F6"/>
<path d="M79.929 31.0536C79.929 31.0629 79.9197 31.0629 79.9197 31.0721C79.9197 31.0629 79.929 31.0536 79.929 31.0536Z" fill="#9FC2F6"/>
<path d="M79.9292 31.0517C80.0255 30.8783 80.0063 30.9169 79.9292 31.0517V31.0517Z" fill="#9FC2F6"/>
<path d="M55.7968 62.9219C55.7883 62.9219 55.7883 62.9133 55.7968 62.9219V62.9219Z" fill="#F2F1F0"/>
<path d="M55.7866 62.9108C55.7259 62.8502 55.6349 62.7592 55.6349 62.7592C55.6753 62.8299 55.7259 62.8805 55.7866 62.9108Z" fill="#F2F1F0"/>
<path d="M55.7974 62.9225C55.8465 62.9716 55.8367 62.9618 55.7974 62.9225V62.9225Z" fill="#F2F1F0"/>
<path d="M46.3802 38.8525C46.4409 38.9132 46.5319 39.0042 46.5319 39.0042C46.5016 38.9435 46.4409 38.8829 46.3802 38.8525Z" fill="#F2F1F0"/>
<path d="M46.3802 38.8412C46.3888 38.8412 46.3888 38.8497 46.3802 38.8412V38.8412Z" fill="#F2F1F0"/>
<path d="M46.3795 38.8394C46.3303 38.7903 46.3401 38.8001 46.3795 38.8394V38.8394Z" fill="#F2F1F0"/>
<g filter="url(#filter1_ddddd_1708_2354)">
<path d="M53.5076 70.9909C61.8006 70.0501 68.7336 63.9863 70.7685 55.8877C72.7216 48.106 69.8686 39.9255 63.5185 35.0376C63.3856 34.9354 63.3651 34.7922 63.3651 34.7104C63.3651 34.649 63.3856 34.4854 63.539 34.373L64.4286 33.7492C65.1342 33.2584 66.126 33.3299 66.7703 33.923C73.059 39.6494 75.687 48.3411 73.6214 56.6034C71.29 65.919 63.2935 72.8724 53.7224 73.9052L52.8021 74.0074L53.1088 77.4842C53.1293 77.7193 52.8839 77.9034 52.6691 77.8011L44.1921 73.9256C43.8444 73.762 43.8035 73.2917 44.1205 73.0769L51.8 67.7596C51.9942 67.6267 52.2806 67.7494 52.2908 67.9948L52.5566 71.1136L53.5076 70.9909Z" fill="white"/>
<path d="M52.0254 34.6181C51.8311 34.7511 51.555 34.6284 51.5346 34.3829L51.2074 30.8551L50.3075 30.896C41.5033 31.2948 33.8443 37.5529 31.7071 46.1015C29.5597 54.6706 33.3739 63.7918 40.9715 68.2911C41.1454 68.3933 41.176 68.557 41.176 68.6388C41.176 68.6797 41.176 68.7103 41.1658 68.7615C41.1454 68.833 41.0942 68.9353 40.992 68.9967L39.9183 69.7431C39.2741 70.1931 38.3947 70.1726 37.73 69.692C29.9381 64.0679 26.4614 54.374 28.9258 45.0789C31.5128 35.3032 40.3887 28.4828 50.5018 27.9306L50.9211 27.9101L50.645 24.8629C50.6245 24.6277 50.8699 24.4436 51.0949 24.5561L59.6946 28.5237C60.0423 28.6873 60.0832 29.1577 59.7662 29.3826L52.0254 34.6181Z" fill="white"/>
</g>
<g filter="url(#filter2_ddddd_1708_2354)">
<path d="M60.9602 41.4582C60.7646 41.2626 60.4474 41.263 60.2523 41.459L47.5855 54.1871C47.39 54.3835 47.072 54.3835 46.8766 54.187L43.5735 50.8662C43.3779 50.6695 43.0594 50.6697 42.864 50.8666L40.8937 52.8528C40.7 53.0481 40.7004 53.3632 40.8946 53.558L46.877 59.5596C47.0723 59.7556 47.3897 59.7557 47.5851 59.5597L62.9498 44.1539C63.1446 43.9585 63.1444 43.6423 62.9493 43.4472L60.9602 41.4582Z" fill="white"/>
</g>
</g>
<defs>
<filter id="filter0_ddddd_1708_2354" x="5.35498" y="13.2598" width="91.4707" height="107.48" filterUnits="userSpaceOnUse" color-interpolation-filters="sRGB">
<feFlood flood-opacity="0" result="BackgroundImageFix"/>
<feColorMatrix in="SourceAlpha" type="matrix" values="0 0 0 0 0 0 0 0 0 0 0 0 0 0 0 0 0 0 127 0" result="hardAlpha"/>
<feOffset/>
<feColorMatrix type="matrix" values="0 0 0 0 0 0 0 0 0 0 0 0 0 0 0 0 0 0 0.1 0"/>
<feBlend mode="normal" in2="BackgroundImageFix" result="effect1_dropShadow_1708_2354"/>
<feColorMatrix in="SourceAlpha" type="matrix" values="0 0 0 0 0 0 0 0 0 0 0 0 0 0 0 0 0 0 127 0" result="hardAlpha"/>
<feOffset dy="1"/>
<feGaussianBlur stdDeviation="1.5"/>
<feColorMatrix type="matrix" values="0 0 0 0 0 0 0 0 0 0 0 0 0 0 0 0 0 0 0.1 0"/>
<feBlend mode="normal" in2="effect1_dropShadow_1708_2354" result="effect2_dropShadow_1708_2354"/>
<feColorMatrix in="SourceAlpha" type="matrix" values="0 0 0 0 0 0 0 0 0 0 0 0 0 0 0 0 0 0 127 0" result="hardAlpha"/>
<feOffset dy="6"/>
<feGaussianBlur stdDeviation="3"/>
<feColorMatrix type="matrix" values="0 0 0 0 0 0 0 0 0 0 0 0 0 0 0 0 0 0 0.09 0"/>
<feBlend mode="normal" in2="effect2_dropShadow_1708_2354" result="effect3_dropShadow_1708_2354"/>
<feColorMatrix in="SourceAlpha" type="matrix" values="0 0 0 0 0 0 0 0 0 0 0 0 0 0 0 0 0 0 127 0" result="hardAlpha"/>
<feOffset dy="13"/>
<feGaussianBlur stdDeviation="4"/>
<feColorMatrix type="matrix" values="0 0 0 0 0 0 0 0 0 0 0 0 0 0 0 0 0 0 0.05 0"/>
<feBlend mode="normal" in2="effect3_dropShadow_1708_2354" result="effect4_dropShadow_1708_2354"/>
<feColorMatrix in="SourceAlpha" type="matrix" values="0 0 0 0 0 0 0 0 0 0 0 0 0 0 0 0 0 0 127 0" result="hardAlpha"/>
<feOffset dy="24"/>
<feGaussianBlur stdDeviation="5"/>
<feColorMatrix type="matrix" values="0 0 0 0 0 0 0 0 0 0 0 0 0 0 0 0 0 0 0.01 0"/>
<feBlend mode="normal" in2="effect4_dropShadow_1708_2354" result="effect5_dropShadow_1708_2354"/>
<feBlend mode="normal" in="SourceGraphic" in2="effect5_dropShadow_1708_2354" result="shape"/>
</filter>
<filter id="filter1_ddddd_1708_2354" x="21.1439" y="23.5222" width="60.1707" height="77.3079" filterUnits="userSpaceOnUse" color-interpolation-filters="sRGB">
<feFlood flood-opacity="0" result="BackgroundImageFix"/>
<feColorMatrix in="SourceAlpha" type="matrix" values="0 0 0 0 0 0 0 0 0 0 0 0 0 0 0 0 0 0 127 0" result="hardAlpha"/>
<feOffset/>
<feColorMatrix type="matrix" values="0 0 0 0 0 0 0 0 0 0 0 0 0 0 0 0 0 0 0.1 0"/>
<feBlend mode="normal" in2="BackgroundImageFix" result="effect1_dropShadow_1708_2354"/>
<feColorMatrix in="SourceAlpha" type="matrix" values="0 0 0 0 0 0 0 0 0 0 0 0 0 0 0 0 0 0 127 0" result="hardAlpha"/>
<feOffset dy="1"/>
<feGaussianBlur stdDeviation="1"/>
<feColorMatrix type="matrix" values="0 0 0 0 0 0 0 0 0 0 0 0 0 0 0 0 0 0 0.1 0"/>
<feBlend mode="normal" in2="effect1_dropShadow_1708_2354" result="effect2_dropShadow_1708_2354"/>
<feColorMatrix in="SourceAlpha" type="matrix" values="0 0 0 0 0 0 0 0 0 0 0 0 0 0 0 0 0 0 127 0" result="hardAlpha"/>
<feOffset dy="4"/>
<feGaussianBlur stdDeviation="2"/>
<feColorMatrix type="matrix" values="0 0 0 0 0 0 0 0 0 0 0 0 0 0 0 0 0 0 0.09 0"/>
<feBlend mode="normal" in2="effect2_dropShadow_1708_2354" result="effect3_dropShadow_1708_2354"/>
<feColorMatrix in="SourceAlpha" type="matrix" values="0 0 0 0 0 0 0 0 0 0 0 0 0 0 0 0 0 0 127 0" result="hardAlpha"/>
<feOffset dy="9"/>
<feGaussianBlur stdDeviation="2.5"/>
<feColorMatrix type="matrix" values="0 0 0 0 0 0 0 0 0 0 0 0 0 0 0 0 0 0 0.05 0"/>
<feBlend mode="normal" in2="effect3_dropShadow_1708_2354" result="effect4_dropShadow_1708_2354"/>
<feColorMatrix in="SourceAlpha" type="matrix" values="0 0 0 0 0 0 0 0 0 0 0 0 0 0 0 0 0 0 127 0" result="hardAlpha"/>
<feOffset dy="16"/>
<feGaussianBlur stdDeviation="3.5"/>
<feColorMatrix type="matrix" values="0 0 0 0 0 0 0 0 0 0 0 0 0 0 0 0 0 0 0.01 0"/>
<feBlend mode="normal" in2="effect4_dropShadow_1708_2354" result="effect5_dropShadow_1708_2354"/>
<feBlend mode="normal" in="SourceGraphic" in2="effect5_dropShadow_1708_2354" result="shape"/>
</filter>
<filter id="filter2_ddddd_1708_2354" x="37.7487" y="41.3118" width="28.347" height="29.3949" filterUnits="userSpaceOnUse" color-interpolation-filters="sRGB">
<feFlood flood-opacity="0" result="BackgroundImageFix"/>
<feColorMatrix in="SourceAlpha" type="matrix" values="0 0 0 0 0 0 0 0 0 0 0 0 0 0 0 0 0 0 127 0" result="hardAlpha"/>
<feOffset/>
<feColorMatrix type="matrix" values="0 0 0 0 0 0 0 0 0 0 0 0 0 0 0 0 0 0 0.1 0"/>
<feBlend mode="normal" in2="BackgroundImageFix" result="effect1_dropShadow_1708_2354"/>
<feColorMatrix in="SourceAlpha" type="matrix" values="0 0 0 0 0 0 0 0 0 0 0 0 0 0 0 0 0 0 127 0" result="hardAlpha"/>
<feOffset dy="1"/>
<feGaussianBlur stdDeviation="0.5"/>
<feColorMatrix type="matrix" values="0 0 0 0 0 0 0 0 0 0 0 0 0 0 0 0 0 0 0.1 0"/>
<feBlend mode="normal" in2="effect1_dropShadow_1708_2354" result="effect2_dropShadow_1708_2354"/>
<feColorMatrix in="SourceAlpha" type="matrix" values="0 0 0 0 0 0 0 0 0 0 0 0 0 0 0 0 0 0 127 0" result="hardAlpha"/>
<feOffset dy="2"/>
<feGaussianBlur stdDeviation="1"/>
<feColorMatrix type="matrix" values="0 0 0 0 0 0 0 0 0 0 0 0 0 0 0 0 0 0 0.09 0"/>
<feBlend mode="normal" in2="effect2_dropShadow_1708_2354" result="effect3_dropShadow_1708_2354"/>
<feColorMatrix in="SourceAlpha" type="matrix" values="0 0 0 0 0 0 0 0 0 0 0 0 0 0 0 0 0 0 127 0" result="hardAlpha"/>
<feOffset dy="5"/>
<feGaussianBlur stdDeviation="1.5"/>
<feColorMatrix type="matrix" values="0 0 0 0 0 0 0 0 0 0 0 0 0 0 0 0 0 0 0.05 0"/>
<feBlend mode="normal" in2="effect3_dropShadow_1708_2354" result="effect4_dropShadow_1708_2354"/>
<feColorMatrix in="SourceAlpha" type="matrix" values="0 0 0 0 0 0 0 0 0 0 0 0 0 0 0 0 0 0 127 0" result="hardAlpha"/>
<feOffset dy="8"/>
<feGaussianBlur stdDeviation="1.5"/>
<feColorMatrix type="matrix" values="0 0 0 0 0 0 0 0 0 0 0 0 0 0 0 0 0 0 0.01 0"/>
<feBlend mode="normal" in2="effect4_dropShadow_1708_2354" result="effect5_dropShadow_1708_2354"/>
<feBlend mode="normal" in="SourceGraphic" in2="effect5_dropShadow_1708_2354" result="shape"/>
</filter>
<linearGradient id="paint0_linear_1708_2354" x1="51.0893" y1="92.831" x2="51.0893" y2="10.4596" gradientUnits="userSpaceOnUse">
<stop stop-color="#659BFF"/>
<stop offset="1" stop-color="#E6CFFF"/>
</linearGradient>
<linearGradient id="paint1_linear_1708_2354" x1="62.6077" y1="86.1134" x2="60.214" y2="13.0237" gradientUnits="userSpaceOnUse">
<stop stop-color="#0B53CE"/>
<stop offset="1" stop-color="#7252AA"/>
</linearGradient>
<linearGradient id="paint2_linear_1708_2354" x1="59.8798" y1="77.7982" x2="58.0527" y2="22.0168" gradientUnits="userSpaceOnUse">
<stop stop-color="#0B53CE"/>
<stop offset="1" stop-color="#7252AA"/>
</linearGradient>
<clipPath id="clip0_1708_2354">
<rect width="102" height="102" fill="white" transform="translate(0.0893555)"/>
</clipPath>
</defs>
</svg>
