<svg width="103" height="103" viewBox="0 0 103 103" fill="none" xmlns="http://www.w3.org/2000/svg">
<path d="M51.6506 98.2528C25.8006 98.2528 4.84058 77.3028 4.84058 51.4428C4.84058 25.5828 25.8006 4.63281 51.6506 4.63281C77.5006 4.63281 98.4606 25.5928 98.4606 51.4428C98.4606 77.2928 77.5006 98.2528 51.6506 98.2528Z" fill="#55A2FF"/>
<path fill-rule="evenodd" clip-rule="evenodd" d="M97.5505 51.4437C97.5505 76.7937 77.0005 97.3437 51.6505 97.3437C26.3005 97.3437 5.7505 76.7937 5.7505 51.4437C5.7505 26.0937 26.3005 5.54371 51.6505 5.54371C77.0005 5.54371 97.5505 26.0937 97.5505 51.4437ZM51.6505 1.80371C79.0705 1.80371 101.29 24.0237 101.29 51.4437C101.29 78.8637 79.0605 101.084 51.6505 101.084C24.2305 101.084 2.0105 78.8537 2.0105 51.4437C2.0105 24.0237 24.2305 1.80371 51.6505 1.80371Z" fill="#F2F1F0"/>
<path fill-rule="evenodd" clip-rule="evenodd" d="M94.7406 51.4433C94.7406 75.2433 75.4506 94.5333 51.6506 94.5333C27.8506 94.5333 8.56056 75.2433 8.56056 51.4433C8.56056 27.6433 27.8506 8.35328 51.6506 8.35328C75.4506 8.35328 94.7406 27.6433 94.7406 51.4433ZM51.6506 4.61328C77.5106 4.61328 98.4806 25.5833 98.4806 51.4433C98.4806 77.3033 77.5106 98.2733 51.6506 98.2733C25.7906 98.2733 4.82056 77.3033 4.82056 51.4433C4.82056 25.5833 25.7806 4.61328 51.6506 4.61328Z" fill="#0078D4"/>
<path fill-rule="evenodd" clip-rule="evenodd" d="M67.6605 73.1828H35.6405C34.8005 73.1828 34.1105 72.5028 34.1105 71.6528C34.1105 70.8128 34.7905 70.1328 35.6405 70.1328H67.6705C68.5105 70.1328 69.2005 70.8128 69.2005 71.6528C69.1905 72.5028 68.5005 73.1828 67.6605 73.1828Z" fill="#182A37"/>
<path fill-rule="evenodd" clip-rule="evenodd" d="M49.3605 74.8831H53.9405V58.873H49.3605V74.8831Z" fill="#182A37"/>
<path fill-rule="evenodd" clip-rule="evenodd" d="M49.3605 60.3928V61.1528H50.8905C51.3105 61.1528 51.6505 61.4928 51.6505 61.9128V71.0628H53.9405V60.3828H49.3605" fill="#12202B"/>
<path fill-rule="evenodd" clip-rule="evenodd" d="M34.1105 71.6631C34.1105 72.5031 34.7905 73.1931 35.6405 73.1931H67.6705C68.5105 73.1931 69.2005 72.5131 69.2005 71.6631H34.1105Z" fill="#12202B"/>
<path fill-rule="evenodd" clip-rule="evenodd" d="M29.4105 60.3032C27.6705 60.3032 26.2405 58.8732 26.2405 57.1332V20.7032C26.2405 18.9632 27.6705 17.5332 29.4105 17.5332H73.7605C75.5005 17.5332 76.9305 18.9632 76.9305 20.7032V57.1332C76.9305 58.8732 75.5005 60.3032 73.7605 60.3032H29.4105Z" fill="#30404D"/>
<path fill-rule="evenodd" clip-rule="evenodd" d="M30.2005 57.9336C29.3305 57.9336 28.6205 57.2236 28.6205 56.3536V26.2636C28.6205 25.3936 29.3305 24.6836 30.2005 24.6836H72.9605C73.8305 24.6836 74.5405 25.3936 74.5405 26.2636V56.3536C74.5405 57.2236 73.8305 57.9336 72.9605 57.9336H30.2005Z" fill="#E1E4E1"/>
<path fill-rule="evenodd" clip-rule="evenodd" d="M65.8305 42.6132C66.5505 41.8932 66.5505 40.7232 65.8305 40.0032L60.9005 35.0732C60.1805 34.3532 59.0105 34.3532 58.2905 35.0732C57.5705 35.7932 57.5705 36.9632 58.2905 37.6832L61.9205 41.3132L58.2905 44.9432C57.5705 45.6632 57.5705 46.8332 58.2905 47.5532C59.0105 48.2732 60.1805 48.2732 60.9005 47.5532L65.8205 42.6332C65.8205 42.6132 65.8305 42.6132 65.8305 42.6132Z" fill="#30404D"/>
<path fill-rule="evenodd" clip-rule="evenodd" d="M44.8905 35.0634C44.1705 34.3434 43.0005 34.3434 42.2805 35.0634L37.3605 39.9835C37.3605 39.9835 37.3505 39.9834 37.3505 39.9934C36.6305 40.7134 36.6305 41.8834 37.3505 42.6034L42.2805 47.5334C42.2805 47.5334 42.2805 47.5334 42.2805 47.5434C43.0005 48.2634 44.1705 48.2634 44.8905 47.5434C45.6105 46.8234 45.6105 45.6534 44.8905 44.9334L41.2606 41.3034L44.8905 37.6735C45.6105 36.9535 45.6105 35.7834 44.8905 35.0634Z" fill="#30404D"/>
<path fill-rule="evenodd" clip-rule="evenodd" d="M55.3805 34.4932C54.7205 34.1132 53.8705 34.3332 53.4905 35.0032L47.0205 46.2132C46.6405 46.8732 46.8605 47.7232 47.5305 48.1032C48.1905 48.4832 49.0405 48.2632 49.4205 47.5932L55.8905 36.3832C56.2705 35.7332 56.0405 34.8832 55.3805 34.4932Z" fill="#30404D"/>
<path fill-rule="evenodd" clip-rule="evenodd" d="M72.1705 21.1031C72.1705 20.4431 72.7005 19.9131 73.3605 19.9131C74.0205 19.9131 74.5505 20.4431 74.5505 21.1031C74.5505 21.7631 74.0205 22.2931 73.3605 22.2931C72.7105 22.2931 72.1705 21.7631 72.1705 21.1031Z" fill="#DF5142"/>
<path fill-rule="evenodd" clip-rule="evenodd" d="M67.4205 21.1031C67.4205 20.4431 67.9505 19.9131 68.6105 19.9131C69.2705 19.9131 69.8005 20.4431 69.8005 21.1031C69.8005 21.7631 69.2705 22.2931 68.6105 22.2931C67.9505 22.2931 67.4205 21.7631 67.4205 21.1031Z" fill="#697D85"/>
<path fill-rule="evenodd" clip-rule="evenodd" d="M62.6705 21.1031C62.6705 20.4431 63.2005 19.9131 63.8605 19.9131C64.5205 19.9131 65.0505 20.4431 65.0505 21.1031C65.0505 21.7631 64.5205 22.2931 63.8605 22.2931C63.2005 22.2931 62.6705 21.7631 62.6705 21.1031Z" fill="#697D85"/>
<path fill-rule="evenodd" clip-rule="evenodd" d="M56.7305 22.2931H29.8105C29.1505 22.2931 28.6205 21.7631 28.6205 21.1031C28.6205 20.4431 29.1505 19.9131 29.8105 19.9131H56.7405C57.4005 19.9131 57.9305 20.4431 57.9305 21.1031C57.9205 21.7631 57.3905 22.2931 56.7305 22.2931Z" fill="#697D85"/>
<path fill-rule="evenodd" clip-rule="evenodd" d="M61.1405 76.4036C61.1405 77.0536 60.6105 77.5936 59.9505 77.5936H43.3505C42.7005 77.5936 42.1605 77.0636 42.1605 76.4036V66.9136C42.1605 66.2636 42.6905 65.7236 43.3505 65.7236H59.9505C60.6005 65.7236 61.1405 66.2536 61.1405 66.9136V76.4036Z" fill="#30404D"/>
<path fill-rule="evenodd" clip-rule="evenodd" d="M59.9505 65.7334H51.6505V72.8434C51.6505 74.1534 50.5905 75.2134 49.2805 75.2134H42.1705V76.4034C42.1705 77.0534 42.7005 77.5934 43.3605 77.5934H59.9605C60.6105 77.5934 61.1505 77.0634 61.1505 76.4034V66.9134C61.1405 66.2634 60.6005 65.7334 59.9505 65.7334Z" fill="#182A37"/>
<path fill-rule="evenodd" clip-rule="evenodd" d="M84.0105 76.4036C84.0105 77.0536 83.4805 77.5936 82.8205 77.5936H66.2205C65.5705 77.5936 65.0305 77.0636 65.0305 76.4036V66.9136C65.0305 66.2636 65.5605 65.7236 66.2205 65.7236H82.8205C83.4705 65.7236 84.0105 66.2536 84.0105 66.9136V76.4036Z" fill="#30404D"/>
<path fill-rule="evenodd" clip-rule="evenodd" d="M82.8305 65.7334H74.5305V72.8434C74.5305 74.1534 73.4705 75.2134 72.1605 75.2134H65.0505V76.4034C65.0505 77.0534 65.5805 77.5934 66.2405 77.5934H82.8405C83.4905 77.5934 84.0305 77.0634 84.0305 76.4034V66.9134C84.0105 66.2634 83.4805 65.7334 82.8305 65.7334Z" fill="#182A37"/>
<path fill-rule="evenodd" clip-rule="evenodd" d="M38.2605 76.4036C38.2605 77.0536 37.7305 77.5936 37.0705 77.5936H20.4705C19.8205 77.5936 19.2805 77.0636 19.2805 76.4036V66.9136C19.2805 66.2636 19.8105 65.7236 20.4705 65.7236H37.0705C37.7205 65.7236 38.2605 66.2536 38.2605 66.9136V76.4036Z" fill="#30404D"/>
<path fill-rule="evenodd" clip-rule="evenodd" d="M37.0805 65.7334H28.7805V72.8434C28.7805 74.1534 27.7205 75.2134 26.4105 75.2134H19.3005V76.4034C19.3005 77.0534 19.8305 77.5934 20.4905 77.5934H37.0905C37.7405 77.5934 38.2805 77.0634 38.2805 76.4034V66.9134C38.2605 66.2634 37.7305 65.7334 37.0805 65.7334Z" fill="#182A37"/>
<path d="M51.9005 68.1034L51.0705 67.2434C50.9605 67.1234 50.7705 67.1334 50.6605 67.2534L47.1305 71.2834C46.9705 71.4634 46.9705 71.7334 47.1305 71.9134L50.6205 75.9334C50.7505 76.0834 50.9905 76.0834 51.1205 75.9334L52.1605 74.7334L52.2705 68.5334L51.9005 68.1034Z" fill="url(#paint0_linear)"/>
<path d="M56.0105 71.1029L52.5305 67.3029C52.3805 67.1429 52.1305 67.1429 51.9705 67.2929L50.3705 68.9529C50.2005 69.1329 50.1905 69.4229 50.3605 69.6029L52.0105 71.3729C52.1305 71.5029 52.1305 71.7029 52.0105 71.8329L50.3605 73.6229C50.1905 73.8029 50.1905 74.0929 50.3705 74.2729L51.9805 75.9429C52.1305 76.1029 52.3905 76.1029 52.5405 75.9329L56.0205 72.1029C56.2705 71.8129 56.2705 71.3829 56.0105 71.1029Z" fill="url(#paint1_linear)"/>
<path d="M56.1705 71.9236L54.6205 73.6436C54.5005 73.7736 54.3005 73.7736 54.1805 73.6536L52.6205 72.0636C52.3705 71.8036 52.3705 71.3936 52.6205 71.1336L54.1505 69.5536C54.2705 69.4236 54.4805 69.4336 54.5905 69.5636L56.1705 71.3136C56.3305 71.4736 56.3305 71.7436 56.1705 71.9236Z" fill="url(#paint2_linear)"/>
<path d="M31.3605 76.2433H28.5105V67.7133C28.5105 67.4033 28.7605 67.1533 29.0705 67.1533H31.3705C31.6805 67.1533 31.9305 67.4033 31.9305 67.7133V75.6933C31.9205 75.9933 31.6705 76.2433 31.3605 76.2433Z" fill="url(#paint3_linear)"/>
<path d="M29.5105 76.2434H26.5905V69.9634C26.5905 69.6934 26.8105 69.4834 27.0705 69.4834H29.5105C29.7805 69.4834 29.9905 69.7034 29.9905 69.9634V75.7634C30.0005 76.0234 29.7805 76.2434 29.5105 76.2434Z" fill="url(#paint4_linear)"/>
<path d="M27.5405 76.2431H25.4005C25.0505 76.2431 24.7705 75.9631 24.7705 75.6131V72.3331C24.7705 71.9831 25.0505 71.7031 25.4005 71.7031H27.5505C27.9005 71.7031 28.1805 71.9831 28.1805 72.3331V75.6131C28.1705 75.9631 27.8805 76.2431 27.5405 76.2431Z" fill="url(#paint5_linear)"/>
<path d="M76.7723 70.0959L73.3228 72.1105L69.6964 68.071C69.4284 67.7734 69.6401 67.2988 70.04 67.2988H76.7713V70.0959H76.7723Z" fill="url(#paint6_linear)"/>
<path d="M78.6864 69.502L76.7433 67.3135L69.6715 75.2116C69.4322 75.4796 69.6214 75.904 69.9814 75.904H72.9369L78.6864 69.502Z" fill="url(#paint7_linear)"/>
<path d="M80.3248 71.337L78.6711 69.4736L72.8357 75.9042H76.5971C76.6759 75.9042 76.7505 75.8715 76.8037 75.8132L80.3197 71.9823C80.4864 71.8002 80.4894 71.5221 80.3248 71.337Z" fill="url(#paint8_linear)"/>
<defs>
<linearGradient id="paint0_linear" x1="49.4284" y1="67.4844" x2="50.0753" y2="75.085" gradientUnits="userSpaceOnUse">
<stop stop-color="#A23093"/>
<stop offset="1" stop-color="#692266"/>
</linearGradient>
<linearGradient id="paint1_linear" x1="50.2333" y1="71.6138" x2="56.2032" y2="71.6138" gradientUnits="userSpaceOnUse">
<stop stop-color="#E184C4"/>
<stop offset="1" stop-color="#D76EBC"/>
</linearGradient>
<linearGradient id="paint2_linear" x1="52.4309" y1="71.5955" x2="56.2943" y2="71.5955" gradientUnits="userSpaceOnUse">
<stop stop-color="#E89BCA"/>
<stop offset="1" stop-color="#E591C8"/>
</linearGradient>
<linearGradient id="paint3_linear" x1="30.1737" y1="67.9863" x2="30.2462" y2="75.5278" gradientUnits="userSpaceOnUse">
<stop offset="0.00753769" stop-color="#E0A310"/>
<stop offset="1" stop-color="#CA810E"/>
</linearGradient>
<linearGradient id="paint4_linear" x1="28.2012" y1="69.7388" x2="28.4188" y2="77.7154" gradientUnits="userSpaceOnUse">
<stop offset="0.00753769" stop-color="#F2CC40"/>
<stop offset="1" stop-color="#E7B116"/>
</linearGradient>
<linearGradient id="paint5_linear" x1="26.3827" y1="72.051" x2="26.6002" y2="77.1995" gradientUnits="userSpaceOnUse">
<stop stop-color="#F8E17B"/>
<stop offset="0.5302" stop-color="#F6D856"/>
<stop offset="1" stop-color="#F6D856"/>
</linearGradient>
<linearGradient id="paint6_linear" x1="70.0281" y1="64.9825" x2="77.8745" y2="72.3651" gradientUnits="userSpaceOnUse">
<stop offset="0.4598" stop-color="#1152D4"/>
<stop offset="0.6156" stop-color="#0D3FB3"/>
</linearGradient>
<linearGradient id="paint7_linear" x1="69.5652" y1="71.6089" x2="78.686" y2="71.6089" gradientUnits="userSpaceOnUse">
<stop stop-color="#388CF4"/>
<stop offset="1" stop-color="#2C7CEF"/>
</linearGradient>
<linearGradient id="paint8_linear" x1="72.8358" y1="72.689" x2="80.4466" y2="72.689" gradientUnits="userSpaceOnUse">
<stop stop-color="#76C0FD"/>
<stop offset="1" stop-color="#63B2FB"/>
</linearGradient>
</defs>
</svg>
