<?xml version="1.0" encoding="UTF-8"?>
<svg width="100px" height="100px" viewBox="0 0 100 100" version="1.1" xmlns="http://www.w3.org/2000/svg" xmlns:xlink="http://www.w3.org/1999/xlink">
    <!-- Generator: Sketch 55.2 (78181) - https://sketchapp.com -->
    <title>Introduction to Developing with Power Platform/power-platform-extensibility-model</title>
    <desc>Created with Sketch.</desc>
    <defs>
        <rect id="path-1" x="0" y="0" width="96" height="96" rx="48"></rect>
        <filter x="-6.8%" y="-6.8%" width="115.3%" height="113.6%" filterUnits="objectBoundingBox" id="filter-3">
            <feOffset dx="0" dy="2" in="SourceAlpha" result="shadowOffsetOuter1"></feOffset>
            <feColorMatrix values="0 0 0 0 0   0 0 0 0 0   0 0 0 0 0  0 0 0 0.0980386801 0" type="matrix" in="shadowOffsetOuter1" result="shadowMatrixOuter1"></feColorMatrix>
            <feMerge>
                <feMergeNode in="shadowMatrixOuter1"></feMergeNode>
                <feMergeNode in="SourceGraphic"></feMergeNode>
            </feMerge>
        </filter>
        <path d="M48.859375,7.375 L37.7959531,7.375 C36.2684062,7.375 35.0303281,8.6103125 35.0303281,10.140625 C35.0303281,11.6709375 36.2684062,12.90625 37.7959531,12.90625 L42.1831563,12.90625 L33.9978281,21.0925 C32.9173906,22.1710937 32.9173906,23.9226562 33.9978281,25.00125 C34.5380469,25.5451563 35.245125,25.8125 35.953125,25.8125 C36.661125,25.8125 37.3682031,25.5451563 37.9084219,25.00125 L46.09375,16.815 L46.09375,21.203125 C46.09375,22.7334375 47.3318281,23.96875 48.859375,23.96875 C50.3869219,23.96875 51.625,22.7334375 51.625,21.203125 L51.625,10.140625 C51.625,8.6103125 50.3869219,7.375 48.859375,7.375" id="path-4"></path>
        <filter x="-5.4%" y="-5.4%" width="110.8%" height="110.8%" filterUnits="objectBoundingBox" id="filter-5">
            <feOffset dx="-2" dy="2" in="SourceAlpha" result="shadowOffsetInner1"></feOffset>
            <feComposite in="shadowOffsetInner1" in2="SourceAlpha" operator="arithmetic" k2="-1" k3="1" result="shadowInnerInner1"></feComposite>
            <feColorMatrix values="0 0 0 0 1   0 0 0 0 1   0 0 0 0 1  0 0 0 0.250355114 0" type="matrix" in="shadowInnerInner1"></feColorMatrix>
        </filter>
    </defs>
    <g id="Badges" stroke="none" stroke-width="1" fill="none" fill-rule="evenodd">
        <g id="Introduction-to-Developing-with-Power-Platform" transform="translate(-50.000000, -460.000000)">
            <g id="Introduction-to-Developing-with-Power-Platform/power-platform-extensibility-model" transform="translate(50.000000, 460.000000)">
                <g id="Mask" transform="translate(2.000000, 2.000000)">
                    <mask id="mask-2" fill="white">
                        <use xlink:href="#path-1"></use>
                    </mask>
                    <use id="BG" fill="#55A2FF" xlink:href="#path-1"></use>
                    <g id="Group-18" filter="url(#filter-3)" mask="url(#mask-2)">
                        <g transform="translate(18.500000, 18.500000)">
                            <g id="Fill-150" fill="none">
                                <use fill="#EEC360" fill-rule="evenodd" xlink:href="#path-4"></use>
                                <use fill="black" fill-opacity="1" filter="url(#filter-5)" xlink:href="#path-4"></use>
                            </g>
                            <path d="M3.6875,55.3125 L25.8125,55.3125 L25.8125,33.1875 L3.6875,33.1875 L3.6875,55.3125 Z M27.65625,59 L1.84375,59 C0.825078125,59 0,58.1703125 0,57.15625 L0,31.34375 C0,30.3296875 0.825078125,29.5 1.84375,29.5 L27.65625,29.5 C28.674,29.5 29.5,30.3296875 29.5,31.34375 L29.5,57.15625 C29.5,58.1703125 28.674,59 27.65625,59 L27.65625,59 Z" id="Fill-151" fill="#30404D" fill-rule="evenodd"></path>
                            <path d="M57.15625,47.9375 L54.390625,47.9375 C53.3719531,47.9375 52.546875,47.1078125 52.546875,46.09375 C52.546875,45.0796875 53.3719531,44.25 54.390625,44.25 L55.3125,44.25 L55.3125,43.328125 C55.3125,42.3140625 56.1375781,41.484375 57.15625,41.484375 C58.174,41.484375 59,42.3140625 59,43.328125 L59,46.09375 C59,47.1078125 58.174,47.9375 57.15625,47.9375" id="Fill-152" fill="#FFFFFF" fill-rule="evenodd"></path>
                            <path d="M30.7297813,47.9375 L24.2766563,47.9375 C23.2579844,47.9375 22.4329063,47.1078125 22.4329063,46.09375 C22.4329063,45.0796875 23.2579844,44.25 24.2766563,44.25 L30.7297813,44.25 C31.7475313,44.25 32.5735313,45.0796875 32.5735313,46.09375 C32.5735313,47.1078125 31.7475313,47.9375 30.7297813,47.9375 Z M45.7867656,47.9375 L39.3336406,47.9375 C38.3149688,47.9375 37.4898906,47.1078125 37.4898906,46.09375 C37.4898906,45.0796875 38.3149688,44.25 39.3336406,44.25 L45.7867656,44.25 C46.8045156,44.25 47.6305156,45.0796875 47.6305156,46.09375 C47.6305156,47.1078125 46.8045156,47.9375 45.7867656,47.9375 L45.7867656,47.9375 Z" id="Fill-153" fill="#FFFFFF" fill-rule="evenodd"></path>
                            <path d="M15.671875,47.9375 L12.90625,47.9375 C11.8875781,47.9375 11.0625,47.1078125 11.0625,46.09375 L11.0625,43.328125 C11.0625,42.3140625 11.8875781,41.484375 12.90625,41.484375 C13.924,41.484375 14.75,42.3140625 14.75,43.328125 L14.75,44.25 L15.671875,44.25 C16.689625,44.25 17.515625,45.0796875 17.515625,46.09375 C17.515625,47.1078125 16.689625,47.9375 15.671875,47.9375" id="Fill-154" fill="#FFFFFF" fill-rule="evenodd"></path>
                            <path d="M12.90625,21.5073438 C11.8875781,21.5073438 11.0625,20.686875 11.0625,19.6635938 L11.0625,13.2104688 C11.0625,12.1964062 11.8875781,11.3667188 12.90625,11.3667188 C13.924,11.3667188 14.75,12.1964062 14.75,13.2104688 L14.75,19.6635938 C14.75,20.686875 13.924,21.5073438 12.90625,21.5073438 Z M12.90625,36.5707812 C11.8875781,36.5707812 11.0625,35.7410937 11.0625,34.7270312 L11.0625,28.2739062 C11.0625,27.250625 11.8875781,26.4301562 12.90625,26.4301562 C13.924,26.4301562 14.75,27.250625 14.75,28.2739062 L14.75,34.7270312 C14.75,35.7410937 13.924,36.5707812 12.90625,36.5707812 L12.90625,36.5707812 Z" id="Fill-155" fill="#FFFFFF" fill-rule="evenodd"></path>
                            <path d="M12.90625,6.453125 C11.8875781,6.453125 11.0625,5.6234375 11.0625,4.609375 L11.0625,1.84375 C11.0625,0.8296875 11.8875781,0 12.90625,0 L15.671875,0 C16.689625,0 17.515625,0.8296875 17.515625,1.84375 C17.515625,2.8578125 16.689625,3.6875 15.671875,3.6875 L14.75,3.6875 L14.75,4.609375 C14.75,5.6234375 13.924,6.453125 12.90625,6.453125" id="Fill-156" fill="#FFFFFF" fill-rule="evenodd"></path>
                            <path d="M30.7288594,3.6875 L24.2757344,3.6875 C23.2570625,3.6875 22.4319844,2.8578125 22.4319844,1.84375 C22.4319844,0.8296875 23.2570625,0 24.2757344,0 L30.7288594,0 C31.7466094,0 32.5726094,0.8296875 32.5726094,1.84375 C32.5726094,2.8578125 31.7466094,3.6875 30.7288594,3.6875 Z M45.7858437,3.6875 L39.3327187,3.6875 C38.3140469,3.6875 37.4889687,2.8578125 37.4889687,1.84375 C37.4889687,0.8296875 38.3140469,0 39.3327187,0 L45.7858437,0 C46.8035937,0 47.6295937,0.8296875 47.6295937,1.84375 C47.6295937,2.8578125 46.8035937,3.6875 45.7858437,3.6875 L45.7858437,3.6875 Z" id="Fill-157" fill="#FFFFFF" fill-rule="evenodd"></path>
                            <path d="M57.15625,6.453125 C56.1375781,6.453125 55.3125,5.6234375 55.3125,4.609375 L55.3125,3.6875 L54.390625,3.6875 C53.3719531,3.6875 52.546875,2.8578125 52.546875,1.84375 C52.546875,0.8296875 53.3719531,0 54.390625,0 L57.15625,0 C58.174,0 59,0.8296875 59,1.84375 L59,4.609375 C59,5.6234375 58.174,6.453125 57.15625,6.453125" id="Fill-158" fill="#FFFFFF" fill-rule="evenodd"></path>
                            <path d="M57.15625,21.5073438 C56.1375781,21.5073438 55.3125,20.686875 55.3125,19.6635938 L55.3125,13.2104688 C55.3125,12.1964062 56.1375781,11.3667188 57.15625,11.3667188 C58.174,11.3667188 59,12.1964062 59,13.2104688 L59,19.6635938 C59,20.686875 58.174,21.5073438 57.15625,21.5073438 Z M57.15625,36.5707812 C56.1375781,36.5707812 55.3125,35.7410937 55.3125,34.7270312 L55.3125,28.2739062 C55.3125,27.250625 56.1375781,26.4301562 57.15625,26.4301562 C58.174,26.4301562 59,27.250625 59,28.2739062 L59,34.7270312 C59,35.7410937 58.174,36.5707812 57.15625,36.5707812 L57.15625,36.5707812 Z" id="Fill-159" fill="#FFFFFF" fill-rule="evenodd"></path>
                        </g>
                    </g>
                </g>
                <g id="Azure-Border" stroke="#0078D4" stroke-width="4">
                    <rect x="2" y="2" width="96" height="96" rx="48"></rect>
                </g>
            </g>
        </g>
    </g>
</svg>