<svg width="180" height="190" viewBox="0 0 180 190" fill="none" xmlns="http://www.w3.org/2000/svg">
<g clip-path="url(#clip0_2141_2055)">
<path d="M89.9999 188.999C93.0816 188.994 96.1024 188.139 98.73 186.529L160.73 148.869C163.517 147.11 165.807 144.666 167.383 141.771C168.958 138.875 169.766 135.625 169.73 132.329V57.6193C169.763 54.3239 168.954 51.0747 167.379 48.1799C165.804 45.2852 163.515 42.841 160.73 41.0792L98.73 3.41919C96.0958 1.83381 93.0794 0.996094 90.0049 0.996094C86.9304 0.996094 83.9141 1.83381 81.2799 3.41919L19.2799 41.0992C16.4935 42.8596 14.2038 45.3034 12.6285 48.1985C11.0532 51.0935 10.2447 54.3435 10.2799 57.6392V132.339C10.2614 135.122 10.8361 137.877 11.9655 140.42C13.0949 142.963 14.7532 145.237 16.83 147.089V147.089L81.24 186.519C83.8769 188.134 86.9076 188.993 89.9999 188.999V188.999ZM90.6499 7.99927C92.6499 7.99927 95.0799 9.20916 96.7899 10.2592L157.55 47.4492C161.3 49.7292 163.42 56.3292 163.42 61.0792L162.79 132.379C162.79 137.129 159.59 141.379 155.79 143.679L95.3899 180.059C91.9599 182.149 89.17 182.149 85.73 180.059L24.5199 143.589C20.7699 141.309 17.7499 137.109 17.7499 132.379V58.6892C17.7817 56.3234 18.3905 54.0012 19.5232 51.924C20.6559 49.8467 22.2784 48.0772 24.2499 46.7692L84.83 10.2092C86.58 9.16923 88.6999 7.94922 90.6499 7.94922V7.99927Z" fill="url(#paint0_linear_2141_2055)"/>
<path fill-rule="evenodd" clip-rule="evenodd" d="M97.8999 11.5302C95.5272 10.0601 92.7912 9.28125 89.9999 9.28125C87.2086 9.28125 84.4728 10.0601 82.1 11.5302L25.97 45.8602C23.4434 47.4716 21.3703 49.7017 19.9474 52.3391C18.5246 54.9765 17.7992 57.9337 17.84 60.9302V129.03C17.8002 132.026 18.526 134.983 19.9488 137.62C21.3715 140.258 23.4441 142.488 25.97 144.1L82.1 178.43C84.4728 179.9 87.2086 180.679 89.9999 180.679C92.7912 180.679 95.5272 179.9 97.8999 178.43L154.03 144.1C156.555 142.487 158.626 140.256 160.049 137.619C161.471 134.982 162.198 132.026 162.16 129.03V60.9302C162.198 57.9342 161.471 54.9781 160.049 52.3412C158.626 49.7043 156.555 47.4737 154.03 45.8602L97.8999 11.5302Z" fill="url(#paint1_linear_2141_2055)"/>
<path d="M22.3101 120.18L31.54 125.47L22.39 130.73L17.79 128.09V128.62L21.9501 131.01L18.27 133.13L18.41 133.56L22.41 131.27L31.6001 136.55L22.4801 141.79L20.8301 140.84L21.04 141.47L89.55 181.07L89.9801 180.78L80.65 175.4L89.92 170.07L99.1201 175.35L99.53 175.07L90.38 169.8L99.6101 164.49L108.97 169.86L109.2 169.45L100.08 164.23L109.2 158.99L118.44 164.3L118.77 163.94L109.67 158.71L118.87 153.43L128.06 158.71L128.6 158.5L119.31 153.17L128.54 147.87L137.68 153.12L138.22 152.91L128.99 147.61L138.13 142.35L147.28 147.61L147.81 147.4L138.58 142.1L147.81 136.79L156.9 142.02L157.43 141.81L148.25 136.54L157.43 131.26L162.12 133.95V133.46L157.85 131L162.39 128.39V127.86L157.39 130.75L148.22 125.48L157.48 120.15L162.66 123.15V122.64L119.36 97.6399L100.1 86.5199L99.91 86.45L90.52 81.0299L90.0901 80.75L18.3101 121.97V122.51L22.3101 120.18ZM22.8401 130.99L31.9801 125.72L41.2001 131.01L32.03 136.28L22.8401 130.99ZM80.67 130.99L89.9 125.69L99.04 130.93L89.8101 136.24L80.67 130.99ZM89.3701 136.5L80.16 141.79L71.02 136.54L80.2301 131.25L89.3701 136.5ZM90.3701 125.43L99.52 120.17L108.65 125.42L99.5 130.68L90.3701 125.43ZM89.92 125.17L80.6901 119.87L89.8501 114.61L99.0801 119.91L89.92 125.17ZM89.4801 125.43L80.25 130.73L71.02 125.43L80.25 120.13L89.4801 125.43ZM79.8 130.99L70.5901 136.28L61.3601 130.98L70.5701 125.69L79.8 130.99ZM70.13 136.55L60.9801 141.81L51.7401 136.51L60.9 131.24L70.13 136.55ZM70.5801 136.8L79.7201 142.05L70.5801 147.31L61.42 142.06L70.5801 136.8ZM80.16 142.31L89.39 147.61L80.26 152.86L71.02 147.57L80.16 142.31ZM80.63 142.04L89.8301 136.75L99.0601 142.05L89.8601 147.35L80.63 142.04ZM90.28 136.5L99.5 131.19L108.73 136.49L99.51 141.8L90.28 136.5ZM99.9501 130.93L109.1 125.67L118.33 130.98L109.18 136.24L99.9501 130.93ZM109.54 125.42L118.77 120.11L128 125.42L118.77 130.72L109.54 125.42ZM109.1 125.16L99.9701 119.91L109.2 114.61L118.32 119.86L109.1 125.16ZM99.52 119.66L90.29 114.35L99.52 109.05L108.75 114.35L99.52 119.66ZM89.8501 114.1L80.6901 108.83L89.92 103.53L99.0801 108.79L89.8501 114.1ZM89.4 114.35L80.25 119.62L71.0801 114.35L80.2401 109.09L89.4 114.35ZM79.8 119.87L70.5701 125.17L61.41 119.91L70.64 114.61L79.8 119.87ZM70.13 125.43L60.91 130.73L51.75 125.46L60.9601 120.17L70.13 125.43ZM60.4601 130.99L51.29 136.25L42.1201 130.99L51.3101 125.69L60.4601 130.99ZM50.8301 136.52L41.66 141.79L32.5 136.52L41.66 131.26L50.8301 136.52ZM51.28 136.77L60.52 142.07L51.3301 147.35L42.1001 142.05L51.28 136.77ZM60.9601 142.33L70.1101 147.58L60.91 152.87L51.77 147.61L60.9601 142.33ZM70.5601 147.83L79.79 153.13L70.5801 158.43L61.3601 153.12L70.5601 147.83ZM80.2401 153.39L89.52 158.71L80.3 164.01L71.03 158.68L80.2401 153.39ZM80.7101 153.12L89.8401 147.87L99.1101 153.2L89.9901 158.44L80.7101 153.12ZM90.3 147.6L99.51 142.31L108.78 147.64L99.5801 152.93L90.3 147.6ZM99.9501 142.05L109.18 136.75L118.45 142.08L109.22 147.38L99.9501 142.05ZM109.62 136.49L118.77 131.23L128.04 136.56L118.9 141.82L109.62 136.49ZM119.22 130.98L128.44 125.67L137.72 131L128.49 136.3L119.22 130.98ZM128.89 125.42L138.06 120.14L147.34 125.47L138.16 130.74L128.89 125.42ZM128.44 125.16L119.22 119.86L128.39 114.58L137.62 119.89L128.44 125.16ZM118.77 119.6L109.64 114.35L118.81 109.08L127.94 114.33L118.77 119.6ZM109.2 114.1L99.9701 108.79L109.14 103.53L118.37 108.83L109.2 114.1ZM99.52 108.54L90.3601 103.27L99.53 98.0099L108.69 103.27L99.52 108.54ZM89.92 103.02L80.65 97.6899L89.8 92.4199L99.0801 97.75L89.92 103.02ZM89.4701 103.27L80.2401 108.58L70.9901 103.26L80.2101 97.95L89.4701 103.27ZM79.8 108.83L70.64 114.1L61.4 108.79L70.55 103.52L79.8 108.83ZM70.1901 114.35L60.9601 119.65L51.7301 114.35L60.9501 109.04L70.1901 114.35ZM60.52 119.91L51.3 125.21L42.0801 119.91L51.29 114.61L60.52 119.91ZM50.8501 125.47L41.6801 130.74L32.4601 125.45L41.63 120.17L50.8501 125.47ZM22.8501 142.04L31.9701 136.8L41.13 142.06L31.9901 147.32L22.8501 142.04ZM32.4301 147.58L41.5801 142.32L50.8 147.62L41.63 152.89L32.4301 147.58ZM42.0801 153.15L51.25 147.88L60.4 153.13L51.2001 158.42L42.0801 153.15ZM51.65 158.68L60.8401 153.39L70.0701 158.69L60.8501 163.99L51.65 158.68ZM61.3 164.25L70.52 158.95L79.79 164.28L70.55 169.59L61.3 164.25ZM80.13 175.13L70.9901 169.85L80.2401 164.53L89.4 169.8L80.13 175.13ZM89.8501 169.54L80.6901 164.27L89.92 158.97L99.0901 164.23L89.8501 169.54ZM99.5601 163.96L90.38 158.7L99.51 153.45L108.67 158.72L99.5601 163.96ZM109.14 158.45L99.9801 153.18L109.17 147.89L118.34 153.16L109.14 158.45ZM118.79 152.9L109.62 147.64L118.85 142.33L128.01 147.6L118.79 152.9ZM128.46 147.34L119.29 142.08L128.44 136.82L137.61 142.09L128.46 147.34ZM138.05 141.83L128.89 136.56L138.11 131.26L147.28 136.53L138.05 141.83ZM156.9 130.99L147.73 136.27L138.56 131L147.73 125.72L156.9 130.99ZM156.99 119.89L147.73 125.21L138.46 119.88L147.74 114.54L156.99 119.89ZM147.3 114.29L138.01 119.63L128.78 114.33L138.09 108.97L147.3 114.29ZM137.65 108.72L128.34 114.07L119.21 108.83L128.55 103.46L137.65 108.72ZM128.1 103.2L118.76 108.57L109.53 103.27L118.9 97.8899L128.1 103.2ZM118.45 97.6299L109.09 103.01L99.92 97.75L109.31 92.36L118.45 97.6299ZM108.87 92.1L99.4801 97.49L90.2001 92.1699L99.6001 86.75L108.87 92.1ZM90.0601 81.24L99.16 86.49L89.75 91.9099L80.6101 86.6599L90.0601 81.24ZM80.17 86.9199L89.3101 92.1699L80.16 97.4399L71.01 92.1799L80.17 86.9199ZM70.5601 92.4299L79.7101 97.6899L70.4901 103L61.3301 97.74L70.5601 92.4299ZM60.88 97.99L70.05 103.26L60.9 108.53L51.7201 103.26L60.88 97.99ZM51.28 103.51L60.4501 108.79L51.2401 114.09L42.04 108.81L51.28 103.51ZM41.6001 109.07L50.79 114.35L41.5801 119.65L32.38 114.37L41.6001 109.07ZM31.9301 114.62L41.13 119.91L31.9601 125.2L22.7301 119.9L31.9301 114.62Z" fill="url(#paint2_linear_2141_2055)"/>
<path fill-rule="evenodd" clip-rule="evenodd" d="M90.4301 10.75C92.1101 10.75 94.0001 11.62 96.0601 12.87L154.54 48.4099C156.432 49.6229 157.982 51.2999 159.043 53.2814C160.104 55.2628 160.64 57.4828 160.6 59.73V130.21C160.639 132.457 160.102 134.677 159.042 136.658C157.981 138.639 156.431 140.316 154.54 141.53L96.0701 177.07C94.4626 178.327 92.4807 179.01 90.4401 179.01C88.3995 179.01 86.4176 178.327 84.8101 177.07L26.3101 141.54C24.5275 140.587 23.0038 139.214 21.8702 137.54C20.8702 135.94 20.25 133.72 20.25 130.26V59.7799C20.2103 57.5328 20.7464 55.3129 21.8072 53.3314C22.8679 51.35 24.418 49.673 26.3101 48.46L84.7701 12.9199C86.8801 11.6299 88.7401 10.75 90.4301 10.75ZM98.1401 180.5L156.61 144.96C159.093 143.392 161.132 141.214 162.532 138.633C163.933 136.053 164.648 133.156 164.61 130.22V59.74C164.648 56.8041 163.933 53.9074 162.532 51.3268C161.132 48.7462 159.093 46.5679 156.61 45L98.1401 9.45996C96.0301 8.17996 93.3201 6.75 90.4301 6.75C87.5401 6.75 84.8201 8.18995 82.7301 9.44995L24.26 45C21.7775 46.5679 19.7386 48.7462 18.338 51.3268C16.9374 53.9074 16.2219 56.8041 16.26 59.74V130.22C16.1077 133.484 16.8697 136.726 18.4601 139.58C19.9151 141.819 21.9006 143.663 24.2401 144.95L82.7001 180.49C84.9349 182.138 87.6385 183.027 90.4151 183.027C93.1917 183.027 95.8953 182.138 98.13 180.49L98.1401 180.5Z" fill="url(#paint3_radial_2141_2055)"/>
<path d="M140.597 102.576H122.039V104.001H140.597V102.576Z" fill="white"/>
<path d="M140.597 84.9111H122.039V86.3357H140.597V84.9111Z" fill="white"/>
<path d="M142.269 121.652H122.225C122.036 121.652 121.854 121.577 121.721 121.443C121.587 121.31 121.512 121.129 121.512 120.94V67.93C121.512 67.741 121.587 67.5599 121.721 67.4263C121.854 67.2928 122.036 67.2177 122.225 67.2177H142.269V68.6423H122.937V120.228H142.269V121.652Z" fill="white"/>
<path d="M122.262 94.2417H102.333V95.6663H122.262V94.2417Z" fill="white"/>
<g filter="url(#filter0_dddd_2141_2055)">
<path d="M155.069 61.5108V59.278C155.069 58.1615 154.156 57.248 153.039 57.248H129.154C128.037 57.248 127.124 58.1615 127.124 59.278V61.6326V62.9724V130.24C127.124 131.357 128.037 132.27 129.154 132.27H153.039C154.156 132.27 155.069 131.357 155.069 130.24V61.6326C155.089 61.592 155.069 61.5514 155.069 61.5108Z" fill="white"/>
</g>
<g filter="url(#filter1_dddd_2141_2055)">
<path d="M117.182 72.2083V69.9754C117.182 68.859 116.269 67.9455 115.152 67.9455H91.2672C90.1508 67.9455 89.2373 68.859 89.2373 69.9754V72.3301V73.6699L89.2373 119.291C89.2373 120.408 90.1508 121.321 91.2672 121.321H115.152C116.269 121.321 117.182 120.408 117.182 119.291L117.182 72.3301C117.203 72.2895 117.182 72.2489 117.182 72.2083Z" fill="white"/>
</g>
<path d="M103.366 113.388H84.747C84.5581 113.388 84.3769 113.313 84.2434 113.179C84.1098 113.046 84.0347 112.865 84.0347 112.676V77.2885C84.0347 77.0996 84.1098 76.9185 84.2434 76.7849C84.3769 76.6513 84.5581 76.5762 84.747 76.5762H103.366V78.0008H85.4878V111.963H103.395L103.366 113.388Z" fill="white"/>
<path d="M103.367 94.2571H83.323V95.6817H103.367V94.2571Z" fill="white"/>
<path d="M83.3941 94.2571H65.1021V95.6817H83.3941V94.2571Z" fill="white"/>
<g filter="url(#filter2_dddd_2141_2055)">
<path d="M111.057 72.3825H95.5125C95.0567 72.3825 94.6198 72.5637 94.2975 72.886C93.9752 73.2083 93.7939 73.6452 93.7939 74.101V83.643C93.7939 84.0989 93.9752 84.5357 94.2975 84.8581C94.6198 85.1804 95.0567 85.3616 95.5125 85.3616H111.108C111.334 85.3633 111.558 85.3197 111.767 85.2339C111.976 85.1481 112.167 85.0217 112.327 84.8618C112.487 84.7018 112.613 84.512 112.699 84.3027C112.785 84.0934 112.828 83.8692 112.827 83.643V74.114C112.827 73.8834 112.78 73.6552 112.691 73.4426C112.602 73.23 112.471 73.0374 112.306 72.8761C112.141 72.7149 111.946 72.5882 111.731 72.5034C111.517 72.4187 111.287 72.3774 111.057 72.3825V72.3825Z" fill="#5FA1F0"/>
<path d="M111.057 104.142H95.5125C95.0567 104.142 94.6198 104.323 94.2975 104.645C93.9752 104.968 93.7939 105.404 93.7939 105.86V115.415C93.7939 115.87 93.9752 116.308 94.2975 116.63C94.6198 116.953 95.0567 117.134 95.5125 117.134H111.108C111.563 117.134 112.001 116.953 112.323 116.63C112.645 116.308 112.827 115.87 112.827 115.415V105.886C112.828 105.654 112.783 105.425 112.695 105.211C112.606 104.996 112.476 104.802 112.311 104.64C112.146 104.477 111.95 104.349 111.734 104.264C111.519 104.178 111.289 104.137 111.057 104.142V104.142Z" fill="#0153B4"/>
<path d="M111.057 88.2419H95.5125C95.0567 88.2419 94.6198 88.4231 94.2975 88.7455C93.9752 89.0678 93.7939 89.5053 93.7939 89.9611V99.5025C93.7939 99.9583 93.9752 100.395 94.2975 100.718C94.6198 101.04 95.0567 101.221 95.5125 101.221H111.108C111.334 101.223 111.558 101.18 111.767 101.094C111.976 101.008 112.167 100.882 112.327 100.722C112.487 100.562 112.613 100.371 112.699 100.162C112.785 99.9529 112.828 99.7287 112.827 99.5025V89.9611C112.827 89.7311 112.78 89.5029 112.691 89.291C112.601 89.0791 112.47 88.8879 112.305 88.7276C112.14 88.5673 111.945 88.4413 111.73 88.3579C111.516 88.2746 111.287 88.2352 111.057 88.2419V88.2419Z" fill="#0181E6"/>
</g>
<g filter="url(#filter3_dddd_2141_2055)">
<path d="M148.833 64.0802H133.251C132.795 64.0802 132.358 64.2608 132.036 64.5832C131.713 64.9055 131.532 65.343 131.532 65.7988V75.3402C131.532 75.796 131.713 76.2335 132.036 76.5558C132.358 76.8782 132.795 77.0594 133.251 77.0594H148.846C149.073 77.0611 149.297 77.0174 149.506 76.9316C149.715 76.8459 149.905 76.7195 150.065 76.5595C150.225 76.3996 150.351 76.2091 150.437 75.9998C150.523 75.7906 150.567 75.5664 150.565 75.3402V65.8112C150.565 65.352 150.382 64.9116 150.058 64.5869C149.733 64.2622 149.293 64.0802 148.833 64.0802V64.0802Z" fill="#5FA1F0"/>
<path d="M148.833 95.8395H133.251C132.795 95.8395 132.358 96.0207 132.036 96.343C131.713 96.6654 131.532 97.1022 131.532 97.5581V107.112C131.532 107.568 131.713 108.005 132.036 108.327C132.358 108.65 132.795 108.831 133.251 108.831H148.846C149.302 108.831 149.739 108.65 150.061 108.327C150.384 108.005 150.565 107.568 150.565 107.112V97.5834C150.567 97.355 150.523 97.1285 150.437 96.9169C150.35 96.7054 150.223 96.5132 150.062 96.3511C149.901 96.189 149.71 96.06 149.499 95.9722C149.288 95.8844 149.062 95.8395 148.833 95.8395V95.8395Z" fill="#0078D4"/>
<path d="M148.833 79.9397H133.251C132.795 79.9397 132.358 80.1209 132.036 80.4432C131.713 80.7655 131.532 81.2024 131.532 81.6582V91.2002C131.532 91.6561 131.713 92.0929 132.036 92.4153C132.358 92.7376 132.795 92.9188 133.251 92.9188H148.846C149.073 92.9205 149.297 92.8768 149.506 92.7911C149.715 92.7053 149.905 92.5789 150.065 92.419C150.225 92.259 150.351 92.0692 150.437 91.8599C150.523 91.6506 150.567 91.4264 150.565 91.2002V81.6582C150.565 81.4315 150.52 81.2073 150.433 80.998C150.346 80.7886 150.218 80.598 150.057 80.4383C149.896 80.2785 149.705 80.1524 149.495 80.0668C149.285 79.9811 149.06 79.938 148.833 79.9397Z" fill="#1B93EB"/>
<path d="M148.833 111.699H133.251C132.795 111.699 132.358 111.88 132.036 112.202C131.713 112.525 131.532 112.962 131.532 113.417V122.972C131.532 123.428 131.713 123.865 132.036 124.187C132.358 124.51 132.795 124.691 133.251 124.691H148.846C149.302 124.691 149.739 124.51 150.061 124.187C150.384 123.865 150.565 123.428 150.565 122.972V113.43C150.565 112.971 150.382 112.531 150.058 112.206C149.733 111.881 149.293 111.699 148.833 111.699V111.699Z" fill="#0153B4"/>
</g>
<g filter="url(#filter4_dddd_2141_2055)">
<path d="M79.2113 70.5524V69.7228C79.2113 68.6905 78.3818 67.8793 77.3679 67.8793H27.7595C26.7456 67.8793 25.916 68.7089 25.916 69.7228V70.6446V71.4741V118.944C25.916 119.976 26.7456 120.788 27.7595 120.788H77.3494C78.3818 120.788 79.1929 119.958 79.1929 118.944V70.6446C79.2298 70.6077 79.2113 70.5893 79.2113 70.5524Z" fill="white"/>
</g>
<g filter="url(#filter5_dddd_2141_2055)">
<path d="M60.3476 88.7012L47.895 95.9741L34.8038 81.3913C33.8365 80.317 34.6007 78.604 36.0443 78.604H60.3439V88.7012H60.3476Z" fill="url(#paint4_linear_2141_2055)"/>
<path d="M67.2541 86.5563L60.2397 78.6558L34.7106 107.168C33.8467 108.135 34.5297 109.667 35.8293 109.667H46.4987L67.2541 86.5563Z" fill="url(#paint5_linear_2141_2055)"/>
<path d="M73.1684 93.1797L67.1987 86.4532L46.1331 109.667H59.7116C59.9959 109.667 60.2654 109.549 60.4574 109.339L73.1499 95.5092C73.7517 94.8521 73.7627 93.8479 73.1684 93.1797Z" fill="url(#paint6_linear_2141_2055)"/>
</g>
</g>
<defs>
<filter id="filter0_dddd_2141_2055" x="121.124" y="56.248" width="39.9541" height="98.022" filterUnits="userSpaceOnUse" color-interpolation-filters="sRGB">
<feFlood flood-opacity="0" result="BackgroundImageFix"/>
<feColorMatrix in="SourceAlpha" type="matrix" values="0 0 0 0 0 0 0 0 0 0 0 0 0 0 0 0 0 0 127 0" result="hardAlpha"/>
<feOffset dy="1"/>
<feGaussianBlur stdDeviation="1"/>
<feColorMatrix type="matrix" values="0 0 0 0 0 0 0 0 0 0 0 0 0 0 0 0 0 0 0.1 0"/>
<feBlend mode="normal" in2="BackgroundImageFix" result="effect1_dropShadow_2141_2055"/>
<feColorMatrix in="SourceAlpha" type="matrix" values="0 0 0 0 0 0 0 0 0 0 0 0 0 0 0 0 0 0 127 0" result="hardAlpha"/>
<feOffset dy="4"/>
<feGaussianBlur stdDeviation="2"/>
<feColorMatrix type="matrix" values="0 0 0 0 0 0 0 0 0 0 0 0 0 0 0 0 0 0 0.09 0"/>
<feBlend mode="normal" in2="effect1_dropShadow_2141_2055" result="effect2_dropShadow_2141_2055"/>
<feColorMatrix in="SourceAlpha" type="matrix" values="0 0 0 0 0 0 0 0 0 0 0 0 0 0 0 0 0 0 127 0" result="hardAlpha"/>
<feOffset dy="9"/>
<feGaussianBlur stdDeviation="2.5"/>
<feColorMatrix type="matrix" values="0 0 0 0 0 0 0 0 0 0 0 0 0 0 0 0 0 0 0.05 0"/>
<feBlend mode="normal" in2="effect2_dropShadow_2141_2055" result="effect3_dropShadow_2141_2055"/>
<feColorMatrix in="SourceAlpha" type="matrix" values="0 0 0 0 0 0 0 0 0 0 0 0 0 0 0 0 0 0 127 0" result="hardAlpha"/>
<feOffset dy="16"/>
<feGaussianBlur stdDeviation="3"/>
<feColorMatrix type="matrix" values="0 0 0 0 0 0 0 0 0 0 0 0 0 0 0 0 0 0 0.01 0"/>
<feBlend mode="normal" in2="effect3_dropShadow_2141_2055" result="effect4_dropShadow_2141_2055"/>
<feBlend mode="normal" in="SourceGraphic" in2="effect4_dropShadow_2141_2055" result="shape"/>
</filter>
<filter id="filter1_dddd_2141_2055" x="85.2373" y="67.9455" width="35.9541" height="67.3759" filterUnits="userSpaceOnUse" color-interpolation-filters="sRGB">
<feFlood flood-opacity="0" result="BackgroundImageFix"/>
<feColorMatrix in="SourceAlpha" type="matrix" values="0 0 0 0 0 0 0 0 0 0 0 0 0 0 0 0 0 0 127 0" result="hardAlpha"/>
<feOffset dy="1"/>
<feGaussianBlur stdDeviation="0.5"/>
<feColorMatrix type="matrix" values="0 0 0 0 0 0 0 0 0 0 0 0 0 0 0 0 0 0 0.1 0"/>
<feBlend mode="normal" in2="BackgroundImageFix" result="effect1_dropShadow_2141_2055"/>
<feColorMatrix in="SourceAlpha" type="matrix" values="0 0 0 0 0 0 0 0 0 0 0 0 0 0 0 0 0 0 127 0" result="hardAlpha"/>
<feOffset dy="3"/>
<feGaussianBlur stdDeviation="1.5"/>
<feColorMatrix type="matrix" values="0 0 0 0 0 0 0 0 0 0 0 0 0 0 0 0 0 0 0.09 0"/>
<feBlend mode="normal" in2="effect1_dropShadow_2141_2055" result="effect2_dropShadow_2141_2055"/>
<feColorMatrix in="SourceAlpha" type="matrix" values="0 0 0 0 0 0 0 0 0 0 0 0 0 0 0 0 0 0 127 0" result="hardAlpha"/>
<feOffset dy="6"/>
<feGaussianBlur stdDeviation="2"/>
<feColorMatrix type="matrix" values="0 0 0 0 0 0 0 0 0 0 0 0 0 0 0 0 0 0 0.05 0"/>
<feBlend mode="normal" in2="effect2_dropShadow_2141_2055" result="effect3_dropShadow_2141_2055"/>
<feColorMatrix in="SourceAlpha" type="matrix" values="0 0 0 0 0 0 0 0 0 0 0 0 0 0 0 0 0 0 127 0" result="hardAlpha"/>
<feOffset dy="10"/>
<feGaussianBlur stdDeviation="2"/>
<feColorMatrix type="matrix" values="0 0 0 0 0 0 0 0 0 0 0 0 0 0 0 0 0 0 0.01 0"/>
<feBlend mode="normal" in2="effect3_dropShadow_2141_2055" result="effect4_dropShadow_2141_2055"/>
<feBlend mode="normal" in="SourceGraphic" in2="effect4_dropShadow_2141_2055" result="shape"/>
</filter>
<filter id="filter2_dddd_2141_2055" x="90.7939" y="72.382" width="25.0327" height="55.7518" filterUnits="userSpaceOnUse" color-interpolation-filters="sRGB">
<feFlood flood-opacity="0" result="BackgroundImageFix"/>
<feColorMatrix in="SourceAlpha" type="matrix" values="0 0 0 0 0 0 0 0 0 0 0 0 0 0 0 0 0 0 127 0" result="hardAlpha"/>
<feOffset dy="1"/>
<feGaussianBlur stdDeviation="0.5"/>
<feColorMatrix type="matrix" values="0 0 0 0 0 0 0 0 0 0 0 0 0 0 0 0 0 0 0.1 0"/>
<feBlend mode="normal" in2="BackgroundImageFix" result="effect1_dropShadow_2141_2055"/>
<feColorMatrix in="SourceAlpha" type="matrix" values="0 0 0 0 0 0 0 0 0 0 0 0 0 0 0 0 0 0 127 0" result="hardAlpha"/>
<feOffset dy="2"/>
<feGaussianBlur stdDeviation="1"/>
<feColorMatrix type="matrix" values="0 0 0 0 0 0 0 0 0 0 0 0 0 0 0 0 0 0 0.09 0"/>
<feBlend mode="normal" in2="effect1_dropShadow_2141_2055" result="effect2_dropShadow_2141_2055"/>
<feColorMatrix in="SourceAlpha" type="matrix" values="0 0 0 0 0 0 0 0 0 0 0 0 0 0 0 0 0 0 127 0" result="hardAlpha"/>
<feOffset dy="5"/>
<feGaussianBlur stdDeviation="1.5"/>
<feColorMatrix type="matrix" values="0 0 0 0 0 0 0 0 0 0 0 0 0 0 0 0 0 0 0.05 0"/>
<feBlend mode="normal" in2="effect2_dropShadow_2141_2055" result="effect3_dropShadow_2141_2055"/>
<feColorMatrix in="SourceAlpha" type="matrix" values="0 0 0 0 0 0 0 0 0 0 0 0 0 0 0 0 0 0 127 0" result="hardAlpha"/>
<feOffset dy="8"/>
<feGaussianBlur stdDeviation="1.5"/>
<feColorMatrix type="matrix" values="0 0 0 0 0 0 0 0 0 0 0 0 0 0 0 0 0 0 0.01 0"/>
<feBlend mode="normal" in2="effect3_dropShadow_2141_2055" result="effect4_dropShadow_2141_2055"/>
<feBlend mode="normal" in="SourceGraphic" in2="effect4_dropShadow_2141_2055" result="shape"/>
</filter>
<filter id="filter3_dddd_2141_2055" x="126.532" y="63.0802" width="29.0327" height="77.6107" filterUnits="userSpaceOnUse" color-interpolation-filters="sRGB">
<feFlood flood-opacity="0" result="BackgroundImageFix"/>
<feColorMatrix in="SourceAlpha" type="matrix" values="0 0 0 0 0 0 0 0 0 0 0 0 0 0 0 0 0 0 127 0" result="hardAlpha"/>
<feOffset dy="1"/>
<feGaussianBlur stdDeviation="1"/>
<feColorMatrix type="matrix" values="0 0 0 0 0 0 0 0 0 0 0 0 0 0 0 0 0 0 0.1 0"/>
<feBlend mode="normal" in2="BackgroundImageFix" result="effect1_dropShadow_2141_2055"/>
<feColorMatrix in="SourceAlpha" type="matrix" values="0 0 0 0 0 0 0 0 0 0 0 0 0 0 0 0 0 0 127 0" result="hardAlpha"/>
<feOffset dy="3"/>
<feGaussianBlur stdDeviation="1.5"/>
<feColorMatrix type="matrix" values="0 0 0 0 0 0 0 0 0 0 0 0 0 0 0 0 0 0 0.09 0"/>
<feBlend mode="normal" in2="effect1_dropShadow_2141_2055" result="effect2_dropShadow_2141_2055"/>
<feColorMatrix in="SourceAlpha" type="matrix" values="0 0 0 0 0 0 0 0 0 0 0 0 0 0 0 0 0 0 127 0" result="hardAlpha"/>
<feOffset dy="6"/>
<feGaussianBlur stdDeviation="2"/>
<feColorMatrix type="matrix" values="0 0 0 0 0 0 0 0 0 0 0 0 0 0 0 0 0 0 0.05 0"/>
<feBlend mode="normal" in2="effect2_dropShadow_2141_2055" result="effect3_dropShadow_2141_2055"/>
<feColorMatrix in="SourceAlpha" type="matrix" values="0 0 0 0 0 0 0 0 0 0 0 0 0 0 0 0 0 0 127 0" result="hardAlpha"/>
<feOffset dy="11"/>
<feGaussianBlur stdDeviation="2.5"/>
<feColorMatrix type="matrix" values="0 0 0 0 0 0 0 0 0 0 0 0 0 0 0 0 0 0 0.01 0"/>
<feBlend mode="normal" in2="effect3_dropShadow_2141_2055" result="effect4_dropShadow_2141_2055"/>
<feBlend mode="normal" in="SourceGraphic" in2="effect4_dropShadow_2141_2055" result="shape"/>
</filter>
<filter id="filter4_dddd_2141_2055" x="20.916" y="66.8793" width="63.3" height="70.9082" filterUnits="userSpaceOnUse" color-interpolation-filters="sRGB">
<feFlood flood-opacity="0" result="BackgroundImageFix"/>
<feColorMatrix in="SourceAlpha" type="matrix" values="0 0 0 0 0 0 0 0 0 0 0 0 0 0 0 0 0 0 127 0" result="hardAlpha"/>
<feOffset dy="1"/>
<feGaussianBlur stdDeviation="1"/>
<feColorMatrix type="matrix" values="0 0 0 0 0 0 0 0 0 0 0 0 0 0 0 0 0 0 0.1 0"/>
<feBlend mode="normal" in2="BackgroundImageFix" result="effect1_dropShadow_2141_2055"/>
<feColorMatrix in="SourceAlpha" type="matrix" values="0 0 0 0 0 0 0 0 0 0 0 0 0 0 0 0 0 0 127 0" result="hardAlpha"/>
<feOffset dy="3"/>
<feGaussianBlur stdDeviation="1.5"/>
<feColorMatrix type="matrix" values="0 0 0 0 0 0 0 0 0 0 0 0 0 0 0 0 0 0 0.09 0"/>
<feBlend mode="normal" in2="effect1_dropShadow_2141_2055" result="effect2_dropShadow_2141_2055"/>
<feColorMatrix in="SourceAlpha" type="matrix" values="0 0 0 0 0 0 0 0 0 0 0 0 0 0 0 0 0 0 127 0" result="hardAlpha"/>
<feOffset dy="7"/>
<feGaussianBlur stdDeviation="2"/>
<feColorMatrix type="matrix" values="0 0 0 0 0 0 0 0 0 0 0 0 0 0 0 0 0 0 0.05 0"/>
<feBlend mode="normal" in2="effect2_dropShadow_2141_2055" result="effect3_dropShadow_2141_2055"/>
<feColorMatrix in="SourceAlpha" type="matrix" values="0 0 0 0 0 0 0 0 0 0 0 0 0 0 0 0 0 0 127 0" result="hardAlpha"/>
<feOffset dy="12"/>
<feGaussianBlur stdDeviation="2.5"/>
<feColorMatrix type="matrix" values="0 0 0 0 0 0 0 0 0 0 0 0 0 0 0 0 0 0 0.01 0"/>
<feBlend mode="normal" in2="effect3_dropShadow_2141_2055" result="effect4_dropShadow_2141_2055"/>
<feBlend mode="normal" in="SourceGraphic" in2="effect4_dropShadow_2141_2055" result="shape"/>
</filter>
<filter id="filter5_dddd_2141_2055" x="32.3254" y="77.604" width="43.2822" height="39.0634" filterUnits="userSpaceOnUse" color-interpolation-filters="sRGB">
<feFlood flood-opacity="0" result="BackgroundImageFix"/>
<feColorMatrix in="SourceAlpha" type="matrix" values="0 0 0 0 0 0 0 0 0 0 0 0 0 0 0 0 0 0 127 0" result="hardAlpha"/>
<feOffset/>
<feGaussianBlur stdDeviation="0.5"/>
<feColorMatrix type="matrix" values="0 0 0 0 0 0 0 0 0 0 0 0 0 0 0 0 0 0 0.1 0"/>
<feBlend mode="normal" in2="BackgroundImageFix" result="effect1_dropShadow_2141_2055"/>
<feColorMatrix in="SourceAlpha" type="matrix" values="0 0 0 0 0 0 0 0 0 0 0 0 0 0 0 0 0 0 127 0" result="hardAlpha"/>
<feOffset dy="1"/>
<feGaussianBlur stdDeviation="0.5"/>
<feColorMatrix type="matrix" values="0 0 0 0 0 0 0 0 0 0 0 0 0 0 0 0 0 0 0.09 0"/>
<feBlend mode="normal" in2="effect1_dropShadow_2141_2055" result="effect2_dropShadow_2141_2055"/>
<feColorMatrix in="SourceAlpha" type="matrix" values="0 0 0 0 0 0 0 0 0 0 0 0 0 0 0 0 0 0 127 0" result="hardAlpha"/>
<feOffset dy="3"/>
<feGaussianBlur stdDeviation="1"/>
<feColorMatrix type="matrix" values="0 0 0 0 0 0 0 0 0 0 0 0 0 0 0 0 0 0 0.05 0"/>
<feBlend mode="normal" in2="effect2_dropShadow_2141_2055" result="effect3_dropShadow_2141_2055"/>
<feColorMatrix in="SourceAlpha" type="matrix" values="0 0 0 0 0 0 0 0 0 0 0 0 0 0 0 0 0 0 127 0" result="hardAlpha"/>
<feOffset dy="5"/>
<feGaussianBlur stdDeviation="1"/>
<feColorMatrix type="matrix" values="0 0 0 0 0 0 0 0 0 0 0 0 0 0 0 0 0 0 0.01 0"/>
<feBlend mode="normal" in2="effect3_dropShadow_2141_2055" result="effect4_dropShadow_2141_2055"/>
<feBlend mode="normal" in="SourceGraphic" in2="effect4_dropShadow_2141_2055" result="shape"/>
</filter>
<linearGradient id="paint0_linear_2141_2055" x1="88.66" y1="187.569" x2="92.57" y2="-84.1509" gradientUnits="userSpaceOnUse">
<stop offset="0.2" stop-color="white"/>
<stop offset="0.63" stop-color="#F4F3F5"/>
<stop offset="1" stop-color="#E8E6DF"/>
</linearGradient>
<linearGradient id="paint1_linear_2141_2055" x1="49.966" y1="18.2451" x2="135.411" y2="240.059" gradientUnits="userSpaceOnUse">
<stop offset="0.0996678" stop-color="#C5E4FF"/>
<stop offset="0.623265" stop-color="#69B7FC"/>
</linearGradient>
<linearGradient id="paint2_linear_2141_2055" x1="50.0394" y1="85.9966" x2="81.9195" y2="227.929" gradientUnits="userSpaceOnUse">
<stop offset="0.0996678" stop-color="#83BFF5"/>
<stop offset="0.623265" stop-color="#3C9EF5"/>
</linearGradient>
<radialGradient id="paint3_radial_2141_2055" cx="0" cy="0" r="1" gradientUnits="userSpaceOnUse" gradientTransform="translate(29.5516 13.7784) rotate(52.8586) scale(180.884 346.521)">
<stop offset="0.00520833" stop-color="#68B6FC"/>
<stop offset="0.33" stop-color="#3082F1"/>
<stop offset="0.675" stop-color="#1152D4"/>
<stop offset="1" stop-color="#0E45BD"/>
</radialGradient>
<linearGradient id="paint4_linear_2141_2055" x1="36.0011" y1="70.2422" x2="64.3265" y2="96.8932" gradientUnits="userSpaceOnUse">
<stop offset="0.4598" stop-color="#1152D4"/>
<stop offset="0.6156" stop-color="#0D3FB3"/>
</linearGradient>
<linearGradient id="paint5_linear_2141_2055" x1="34.3267" y1="94.1621" x2="67.2527" y2="94.1621" gradientUnits="userSpaceOnUse">
<stop stop-color="#388CF4"/>
<stop offset="1" stop-color="#2C7CEF"/>
</linearGradient>
<linearGradient id="paint6_linear_2141_2055" x1="46.1336" y1="98.0606" x2="73.6082" y2="98.0606" gradientUnits="userSpaceOnUse">
<stop stop-color="#76C0FD"/>
<stop offset="1" stop-color="#63B2FB"/>
</linearGradient>
<clipPath id="clip0_2141_2055">
<rect width="180" height="190" fill="white"/>
</clipPath>
</defs>
</svg>
