<?xml version="1.0" encoding="UTF-8"?>
<svg width="100px" height="100px" viewBox="0 0 100 100" version="1.1" xmlns="http://www.w3.org/2000/svg" xmlns:xlink="http://www.w3.org/1999/xlink">
    <!-- Generator: Sketch 55.2 (78181) - https://sketchapp.com -->
    <title>Extending the Common Data Service Platform/introduction-to-common-data-service-for-developers</title>
    <desc>Created with Sketch.</desc>
    <defs>
        <rect id="path-1" x="0" y="0" width="96" height="96" rx="48"></rect>
        <filter x="-4.2%" y="-4.4%" width="108.3%" height="108.8%" filterUnits="objectBoundingBox" id="filter-3">
            <feOffset dx="0" dy="1" in="SourceAlpha" result="shadowOffsetOuter1"></feOffset>
            <feColorMatrix values="0 0 0 0 0   0 0 0 0 0   0 0 0 0 0  0 0 0 0.102043705 0" type="matrix" in="shadowOffsetOuter1" result="shadowMatrixOuter1"></feColorMatrix>
            <feMerge>
                <feMergeNode in="shadowMatrixOuter1"></feMergeNode>
                <feMergeNode in="SourceGraphic"></feMergeNode>
            </feMerge>
        </filter>
        <filter x="-17.4%" y="-20.0%" width="134.8%" height="136.0%" filterUnits="objectBoundingBox" id="filter-4">
            <feOffset dx="0" dy="2" in="SourceAlpha" result="shadowOffsetOuter1"></feOffset>
            <feColorMatrix values="0 0 0 0 0   0 0 0 0 0   0 0 0 0 0  0 0 0 0.099071558 0" type="matrix" in="shadowOffsetOuter1" result="shadowMatrixOuter1"></feColorMatrix>
            <feMerge>
                <feMergeNode in="shadowMatrixOuter1"></feMergeNode>
                <feMergeNode in="SourceGraphic"></feMergeNode>
            </feMerge>
        </filter>
    </defs>
    <g id="Badges" stroke="none" stroke-width="1" fill="none" fill-rule="evenodd">
        <g id="Extending-the-Common-Data-Service-Platform" transform="translate(-50.000000, -260.000000)">
            <g id="Extending-the-Common-Data-Service-Platform/introduction-to-common-data-service-for-developers" transform="translate(50.000000, 260.000000)">
                <g id="Mask" transform="translate(2.000000, 2.000000)">
                    <mask id="mask-2" fill="white">
                        <use xlink:href="#path-1"></use>
                    </mask>
                    <use id="BG" fill="#55A2FF" xlink:href="#path-1"></use>
                    <g id="Projector" mask="url(#mask-2)">
                        <g transform="translate(21.843750, 20.000000)">
                            <g id="Group-23" filter="url(#filter-3)" transform="translate(-0.000000, 0.000000)">
                                <path d="M38.5142977,53.3687407 L31.579876,46.572012 L31.579876,43.6641048 C31.579876,42.6511044 30.7418342,41.8306198 29.709247,41.8306198 C28.6766598,41.8306198 27.8386181,42.6511044 27.8386181,43.6641048 L27.8386181,46.572012 L20.9041964,53.3687407 C20.1737158,54.0847166 20.1737158,55.2453126 20.9041964,55.9612884 C21.2699044,56.3197347 21.7478501,56.4984995 22.2267311,56.4984995 C22.7056121,56.4984995 23.1835578,56.3197347 23.5492658,55.9612884 L27.8386181,51.7571074 L27.8386181,53.7482721 C27.8386181,54.7603558 28.6766598,55.581757 29.709247,55.581757 C30.7418342,55.581757 31.579876,54.7603558 31.579876,53.7482721 L31.579876,51.7571074 L35.8692283,55.9612884 C36.2349363,56.3197347 36.712882,56.4984995 37.191763,56.4984995 C37.670644,56.4984995 38.1485897,56.3197347 38.5142977,55.9612884 C39.2447783,55.2453126 39.2447783,54.0847166 38.5142977,53.3687407" id="Fill-1016" fill="#546670"></path>
                                <path d="M57.2178091,42.1737281 C57.2178091,43.1801791 56.3842997,44.0036391 55.3655659,44.0036391 L3.5027569,44.0036391 C2.48402316,44.0036391 1.65051372,43.1801791 1.65051372,42.1737281 L1.65051372,9.23533165 L57.2178091,9.23533165 L57.2178091,42.1737281 Z" id="Fill-1017" fill="#E1E4E1"></path>
                                <path d="M29.7642642,5.43254803 C28.7013333,5.43254803 27.8386648,4.62128753 27.8386648,3.62169869 L27.8386648,1.81084934 C27.8386648,0.810355081 28.7013333,-6.66133815e-15 29.7642642,-6.66133815e-15 C30.827195,-6.66133815e-15 31.6898635,0.810355081 31.6898635,1.81084934 L31.6898635,3.62169869 C31.6898635,4.62128753 30.827195,5.43254803 29.7642642,5.43254803" id="Fill-1018" fill="#546670"></path>
                                <path d="M59.4184941,8.32990698 C59.4184941,8.82789055 59.0007078,9.23533165 58.4900801,9.23533165 L0.92841397,9.23533165 C0.417786287,9.23533165 0,8.82789055 0,8.32990698 L0,4.70820829 C0,4.21022472 0.417786287,3.80278362 0.92841397,3.80278362 L58.4900801,3.80278362 C59.0007078,3.80278362 59.4184941,4.21022472 59.4184941,4.70820829 L59.4184941,8.32990698" id="Fill-1019" fill="#30404D"></path>
                                <polygon id="Fill-1020" fill="#C5CCCD" points="1.65051372 10.8650961 57.2178091 10.8650961 57.2178091 9.23533165 1.65051372 9.23533165"></polygon>
                                <path d="M22.3324482,54.5433798 C21.8832711,54.9857522 21.1140552,54.8721576 20.8305122,54.3106495 C20.7341262,54.1204016 20.6583276,53.9283067 20.6049878,53.7380589 C20.1960494,54.4436382 20.289628,55.3551655 20.8997603,55.9573091 C21.2656525,56.3184106 21.743839,56.4984995 22.2229613,56.4984995 C22.7020836,56.4984995 23.1802701,56.3184106 23.5461623,55.9573091 L29.709247,50.0337674 L29.709247,47.2631679 L22.3324482,54.5433798" id="Fill-1022" fill="#30404D"></path>
                                <path d="M37.0860459,54.5433798 C37.5342872,54.9857522 38.3044389,54.8721576 38.5879819,54.3106495 C38.6843679,54.1204016 38.7601665,53.9283067 38.8135063,53.7380589 C39.2224447,54.4436382 39.1288661,55.3551655 38.5187338,55.9573091 C38.1528416,56.3184106 37.6746551,56.4984995 37.1955328,56.4984995 C36.7164105,56.4984995 36.238224,56.3184106 35.8723318,55.9573091 L29.709247,50.0337674 L29.709247,47.2631679 L37.0860459,54.5433798" id="Fill-1023" fill="#30404D"></path>
                                <path d="M29.9460367,49.4361871 L29.9460367,53.9417128 C29.9460367,54.5889514 29.2684928,55.0303775 28.6233532,54.8189772 C28.421072,54.7528564 28.2315561,54.6727665 28.0587333,54.5805699 C28.3012744,55.4224457 29.1408396,56.0305706 30.1247512,55.9476868 C31.1577601,55.8610779 31.909932,54.9661192 31.909932,53.9826891 L31.909932,49.4361871 L29.9460367,49.4361871" id="Fill-1024" fill="#30404D"></path>
                                <path d="M28.0587333,44.0036391 L28.0587333,44.8599676 L28.9387322,44.8599676 C29.516412,44.8599676 29.9843327,45.2761432 29.9843327,45.7899403 C29.9843327,46.3037374 30.4522533,46.7199131 31.0299331,46.7199131 L31.909932,46.7199131 L31.909932,44.0036391 L28.0587333,44.0036391" id="Fill-1025" fill="#30404D"></path>
                                <path d="M0.92841397,9.23533165 L58.4900801,9.23533165 C59.0007078,9.23533165 59.4184941,8.82789055 59.4184941,8.32990698 L59.4184941,4.70820829 C59.4184941,4.21022472 59.0007078,3.80278362 58.4900801,3.80278362 L29.709247,3.80278362 L29.709247,5.61363297 C29.709247,6.11342738 29.2933176,6.51905764 28.7808331,6.51905764 L0,6.51905764 L0,8.32990698 C0,8.82789055 0.417786287,9.23533165 0.92841397,9.23533165" id="Fill-1026" fill="#182A37"></path>
                                <path d="M29.709247,1.96815435 L29.709247,3.80278362 L31.3597608,3.80278362 L31.3597608,2.05301798 C31.3597608,1.95240645 31.3515082,1.85441958 31.3366536,1.75905735 C31.174078,0.739818864 29.709247,0.934917733 29.709247,1.96815435" id="Fill-1027" fill="#30404D"></path>
                            </g>
                            <g id="Database" filter="url(#filter-4)" transform="translate(19.156250, 14.000000)">
                                <path d="M23,20.5 C23,22.986 17.8513542,25 11.5,25 C5.149125,25 0,22.986 0,20.5 C0,18.014 5.149125,16 11.5,16 C17.8513542,16 23,18.014 23,20.5" id="Shadow" fill-opacity="0.102807971" fill="#000000"></path>
                                <g id="Lower" transform="translate(2.500000, 12.000000)">
                                    <path d="M8.61295681,5.79721907 C4.02202807,5.79721907 0.299821923,4.49298864 0.299821923,2.88309943 L0.299821923,6.76859229 C0.299821923,8.3784815 4.02202807,9.68271193 8.61295681,9.68271193 C13.2042319,9.68271193 16.9260917,8.3784815 16.9260917,6.76859229 L16.9260917,2.88309943 C16.9260917,4.49298864 13.2042319,5.79721907 8.61295681,5.79721907" id="Fill-101" fill="#E1E4E1"></path>
                                    <path d="M8.61295681,7.08169826 L8.61295681,8.37589117 C8.61295681,8.74339404 8.28562712,9.03610116 7.8928315,9.02444469 C3.6389311,8.89654721 0.299821923,7.6457423 0.299821923,6.12101015 L0.299821923,6.76859229 C0.299821923,8.3784815 4.02202807,9.68271193 8.61295681,9.68271193 C13.2042319,9.68271193 16.9260917,8.3784815 16.9260917,6.76859229 L16.9260917,3.53068157 C16.9260917,5.06188955 13.5596184,6.31657995 9.28008589,6.43541128 C8.9080731,6.44577259 8.61295681,6.73362285 8.61295681,7.08169826" id="Fill-106" fill="#D3DAD8"></path>
                                    <path d="M16.8813953,2.91666667 C16.8813953,4.52796296 13.1795465,5.83333333 8.61295681,5.83333333 C4.04671163,5.83333333 0.344518272,4.52796296 0.344518272,2.91666667 C0.344518272,1.30537037 4.04671163,0 8.61295681,0 C13.1795465,0 16.8813953,1.30537037 16.8813953,2.91666667" id="Fill-100" stroke="#E1E4E1" stroke-width="0.25" fill="#BAC0C2"></path>
                                </g>
                                <g id="Mid" transform="translate(2.500000, 6.000000)">
                                    <path d="M8.61295681,5.80203011 C4.02202807,5.80203011 0.299821923,4.49779968 0.299821923,2.88791047 L0.299821923,6.77340333 C0.299821923,8.38329254 4.02202807,9.68752297 8.61295681,9.68752297 C13.2042319,9.68752297 16.9260917,8.38329254 16.9260917,6.77340333 L16.9260917,2.88791047 C16.9260917,4.49779968 13.2042319,5.80203011 8.61295681,5.80203011" id="Fill-102" fill="#E1E4E1"></path>
                                    <path d="M8.61295681,7.08650929 L8.61295681,8.38070221 C8.61295681,8.74820508 8.28562712,9.0409122 7.8928315,9.02925573 C3.6389311,8.90135825 0.299821923,7.65055334 0.299821923,6.12582119 L0.299821923,6.77340333 C0.299821923,8.38329254 4.02202807,9.68752297 8.61295681,9.68752297 C13.2042319,9.68752297 16.9260917,8.38329254 16.9260917,6.77340333 L16.9260917,3.53549261 C16.9260917,5.06670059 13.5596184,6.32139099 9.28008589,6.44022232 C8.9080731,6.45058363 8.61295681,6.73843389 8.61295681,7.08650929" id="Fill-107" fill="#D3DAD8"></path>
                                    <path d="M16.8813953,2.91666667 C16.8813953,4.52796296 13.1795465,5.83333333 8.61295681,5.83333333 C4.04671163,5.83333333 0.344518272,4.52796296 0.344518272,2.91666667 C0.344518272,1.30537037 4.04671163,0 8.61295681,0 C13.1795465,0 16.8813953,1.30537037 16.8813953,2.91666667" id="Fill-103" stroke="#E1E4E1" stroke-width="0.25" fill="#BAC0C2"></path>
                                </g>
                                <g id="Top" transform="translate(2.500000, 0.000000)">
                                    <path d="M8.61295681,5.80684115 C4.02202807,5.80684115 0.299821923,4.50261072 0.299821923,2.89272151 L0.299821923,6.77821437 C0.299821923,8.38810358 4.02202807,9.69233401 8.61295681,9.69233401 C13.2042319,9.69233401 16.9260917,8.38810358 16.9260917,6.77821437 L16.9260917,2.89272151 C16.9260917,4.50261072 13.2042319,5.80684115 8.61295681,5.80684115" id="Fill-104" fill="#E1E4E1"></path>
                                    <path d="M8.61295681,7.09132033 L8.61295681,8.38551325 C8.61295681,8.75301611 8.28562712,9.04572324 7.8928315,9.03406676 C3.6389311,8.90616929 0.299821923,7.65536438 0.299821923,6.13063222 L0.299821923,6.77821437 C0.299821923,8.38810358 4.02202807,9.69233401 8.61295681,9.69233401 C13.2042319,9.69233401 16.9260917,8.38810358 16.9260917,6.77821437 L16.9260917,3.54030365 C16.9260917,5.07151163 13.5596184,6.32620203 9.28008589,6.44503336 C8.9080731,6.45539467 8.61295681,6.74324493 8.61295681,7.09132033" id="Fill-108" fill="#D3DAD8"></path>
                                    <path d="M16.5540483,2.91666667 C16.5540483,4.52796296 12.9987554,5.83333333 8.61295681,5.83333333 C4.22748905,5.83333333 0.67186535,4.52796296 0.67186535,2.91666667 C0.67186535,1.30537037 4.22748905,0 8.61295681,0 C12.9987554,0 16.5540483,1.30537037 16.5540483,2.91666667" id="Fill-105" stroke="#E1E4E1" fill="#C4CBCD"></path>
                                </g>
                            </g>
                        </g>
                    </g>
                    <g id="Person" mask="url(#mask-2)">
                        <g transform="translate(12.000000, 33.172884)">
                            <ellipse id="Oval" stroke="#55A2FF" stroke-width="1.5" fill="none" fill-rule="nonzero" cx="10.3634747" cy="6.69118451" rx="6.80188366" ry="6.78616448"></ellipse>
                            <path d="M3.42514047,32.0473931 C1.64187815,31.7488121 0.252949445,30.251855 0.142792633,28.3901744 L-0.560693469,16.5010643 C-0.565057511,16.4273108 -0.567240962,16.3534444 -0.567240962,16.2795619 C-0.567240962,14.208494 1.11169123,12.5295619 3.18275904,12.5295619 L6.39311807,12.5295619 L10.3303238,17.2374636 L14.5155468,12.5295619 L29.4678187,12.5295619 C30.9866017,12.5295619 32.2178187,13.7607788 32.2178187,15.2795619 L32.2178187,16.3858114 C32.2178187,17.9045944 30.9866017,19.1358114 29.4678187,19.1358114 L21.2318317,19.1358114 L17.6632006,31.467292 L15.9892738,42.195913 C15.7044076,44.0216923 14.13197,45.3678156 12.2841012,45.3678156 L8.63153487,45.3678156 C6.77239452,45.3678156 5.19392797,44.0056517 4.92189578,42.1665212 L3.42514047,32.0473931 Z" id="Path-13" stroke="#55A2FF" stroke-width="1.5" fill="none" fill-rule="nonzero"></path>
                            <path d="M8.63153487,44.6178156 L12.2841012,44.6178156 C13.7623963,44.6178156 15.0203463,43.540917 15.2482393,42.0802935 L16.9221661,31.3516725 L20.6681018,18.3858114 L29.4678187,18.3858114 C30.5723882,18.3858114 31.4678187,17.4903809 31.4678187,16.3858114 L31.4678187,15.2795619 C31.4678187,14.1749924 30.5723882,13.2795619 29.4678187,13.2795619 L14.8523238,13.2795619 L10.3129782,18.3858114 L6.04263525,13.2795619 L3.18275904,13.2795619 C1.52590479,13.2795619 0.182759038,14.6227076 0.182759038,16.2795619 C0.182759038,16.3386679 0.184505799,16.397761 0.187997032,16.4567638 L0.891483135,28.3458739 C0.991364759,30.033901 2.38941445,31.3516725 4.08039403,31.3516725 L4.08039403,31.3516725 L5.6638236,42.05678 C5.88144935,43.5280845 7.14422259,44.6178156 8.63153487,44.6178156 Z" id="Path-13" stroke="none" fill="#30404D" fill-rule="nonzero"></path>
                            <path d="M5.85801564,42.1219835 L9.43990399,42.1219835 C9.99218874,42.1219835 10.439904,41.6742682 10.439904,41.1219835 L10.439904,23.0667408 C10.439904,22.1246398 10.7724321,21.2127709 11.3788899,20.4918248 L14.8148667,16.4071972 C15.1948579,15.9554704 15.754994,15.6946797 16.3452908,15.6946552 L31.4887885,15.6940276 C31.4887885,17.3540994 30.1430344,18.6998535 28.4829626,18.6998535 L20.5599656,18.6998535 L18.1392376,27.0829276 C17.3674032,29.7558199 16.7603311,32.4735604 16.3214445,35.2208244 L15.1902747,42.3015176 C14.9577204,43.7572193 13.7019997,44.8282564 12.2278393,44.8282564 L9.13814534,44.8282564 C7.53770107,44.8282564 6.16205905,43.6932821 5.85801564,42.1219835 L5.85801564,42.1219835 Z" id="Path-14" stroke="none" fill="#182A37" fill-rule="nonzero"></path>
                            <path d="M16.4070937,6.6943106 C16.4070937,10.0262734 13.6938326,12.7304751 10.3552101,12.7304751 C7.0105357,12.7304751 4.30332641,10.0262734 4.30332641,6.6943106 C4.30332641,3.3623478 7.0105357,0.658146117 10.3552101,0.658146117 C13.6938326,0.658146117 16.4070937,3.3623478 16.4070937,6.6943106" id="Fill-305" stroke="none" fill="#30404D" fill-rule="evenodd"></path>
                            <path d="M14.4460873,4.90541489 C14.4460873,8.14498981 11.8085337,10.77421 8.5630681,10.77421 C7.44137244,10.77421 6.40596106,10.4455575 5.51370314,9.90171582 C6.54715352,11.5919288 8.39442155,12.7304751 10.5240745,12.7304751 C13.7695401,12.7304751 16.4070937,10.1012549 16.4070937,6.86167994 C16.4070937,4.73913236 15.263827,2.89633069 13.5714785,1.86537901 C14.1146772,2.75352334 14.4460873,3.78838755 14.4460873,4.90541489 Z" id="Fill-306" stroke="none" fill="#182A37" fill-rule="evenodd"></path>
                            <polygon id="Path-15" stroke="none" fill="#55A2FF" fill-rule="nonzero" points="8.75 14.1818182 10.3265439 16.7994293 13.7151286 14.1818182"></polygon>
                        </g>
                    </g>
                </g>
                <g id="Azure-Border" stroke="#0078D4" stroke-width="4">
                    <rect x="2" y="2" width="96" height="96" rx="48"></rect>
                </g>
            </g>
        </g>
    </g>
</svg>