<?xml version="1.0" encoding="UTF-8"?>
<svg width="100px" height="118px" viewBox="0 0 100 118" version="1.1" xmlns="http://www.w3.org/2000/svg" xmlns:xlink="http://www.w3.org/1999/xlink">
    <!-- Generator: Sketch 55.2 (78181) - https://sketchapp.com -->
    <title>Introduction to Developing with Power Platform/introduction-to-developing-with-power-platform</title>
    <desc>Created with Sketch.</desc>
    <defs>
        <path d="M42.7425,1.49663266 C44.3745,0.498877554 46.1865,0 48,0 C49.8135,0 51.627,0.498877554 53.256,1.49663266 L90.591,24.3316189 C93.933,26.3773408 96,30.2031485 96,34.3529027 L96,79.6470973 C96,83.7952317 93.933,87.6242789 90.591,89.6683811 L53.256,112.504987 C51.627,113.501122 49.8135,114 48,114 C46.1865,114 44.3745,113.501122 42.7425,112.504987 L5.409,89.6683811 C2.0655,87.6242789 0,83.7952317 0,79.6470973 L0,34.3529027 C0,30.2031485 2.0655,26.3773408 5.409,24.3316189 L42.7425,1.49663266 Z" id="path-1"></path>
        <filter x="-7.3%" y="-8.5%" width="114.5%" height="117.0%" filterUnits="objectBoundingBox" id="filter-3">
            <feOffset dx="0" dy="2" in="SourceAlpha" result="shadowOffsetOuter1"></feOffset>
            <feColorMatrix values="0 0 0 0 0   0 0 0 0 0   0 0 0 0 0  0 0 0 0.0964956975 0" type="matrix" in="shadowOffsetOuter1" result="shadowMatrixOuter1"></feColorMatrix>
            <feMerge>
                <feMergeNode in="shadowMatrixOuter1"></feMergeNode>
                <feMergeNode in="SourceGraphic"></feMergeNode>
            </feMerge>
        </filter>
        <filter x="-7.5%" y="-11.2%" width="115.0%" height="122.5%" filterUnits="objectBoundingBox" id="filter-4">
            <feOffset dx="0" dy="-0.25" in="SourceAlpha" result="shadowOffsetOuter1"></feOffset>
            <feColorMatrix values="0 0 0 0 0   0 0 0 0 0   0 0 0 0 0  0 0 0 1 0" type="matrix" in="shadowOffsetOuter1" result="shadowMatrixOuter1"></feColorMatrix>
            <feMerge>
                <feMergeNode in="shadowMatrixOuter1"></feMergeNode>
                <feMergeNode in="SourceGraphic"></feMergeNode>
            </feMerge>
        </filter>
        <filter x="-8.0%" y="-11.2%" width="116.1%" height="122.5%" filterUnits="objectBoundingBox" id="filter-5">
            <feOffset dx="0" dy="-0.25" in="SourceAlpha" result="shadowOffsetOuter1"></feOffset>
            <feColorMatrix values="0 0 0 0 0   0 0 0 0 0   0 0 0 0 0  0 0 0 1 0" type="matrix" in="shadowOffsetOuter1" result="shadowMatrixOuter1"></feColorMatrix>
            <feMerge>
                <feMergeNode in="shadowMatrixOuter1"></feMergeNode>
                <feMergeNode in="SourceGraphic"></feMergeNode>
            </feMerge>
        </filter>
        <filter x="-8.0%" y="-11.2%" width="116.1%" height="122.5%" filterUnits="objectBoundingBox" id="filter-6">
            <feOffset dx="0" dy="-0.25" in="SourceAlpha" result="shadowOffsetOuter1"></feOffset>
            <feColorMatrix values="0 0 0 0 0   0 0 0 0 0   0 0 0 0 0  0 0 0 1 0" type="matrix" in="shadowOffsetOuter1" result="shadowMatrixOuter1"></feColorMatrix>
            <feMerge>
                <feMergeNode in="shadowMatrixOuter1"></feMergeNode>
                <feMergeNode in="SourceGraphic"></feMergeNode>
            </feMerge>
        </filter>
    </defs>
    <g id="Badges" stroke="none" stroke-width="1" fill="none" fill-rule="evenodd">
        <g id="Introduction-to-Developing-with-Power-Platform" transform="translate(-50.000000, -50.000000)">
            <g id="Introduction-to-Developing-with-Power-Platform/introduction-to-developing-with-power-platform" transform="translate(50.000000, 50.000000)">
                <g id="Mask" transform="translate(2.000000, 2.000000)">
                    <mask id="mask-2" fill="white">
                        <use xlink:href="#path-1"></use>
                    </mask>
                    <use id="Trophy-1" fill="#55A2FF" xlink:href="#path-1"></use>
                    <path d="M79.3449567,59.3182251 L70.4411905,59.3182251 C67.4409032,59.3182251 65,56.8773219 65,53.8770346 C65,50.8767473 67.4409032,48.4358441 70.4411905,48.4358441 C70.7165345,48.4358441 70.9933278,48.4607203 71.2904119,48.5131338 C72.3425155,44.9488721 75.5881955,42.5 79.3449567,42.5 C83.9818502,42.5 87.7540692,46.2722191 87.7540692,50.9091125 C87.7540692,55.546006 83.9818502,59.3182251 79.3449567,59.3182251 Z" id="Cloud" fill="#FFFFFF" fill-rule="nonzero" mask="url(#mask-2)" transform="translate(76.377035, 50.909113) scale(-1, 1) translate(-76.377035, -50.909113) "></path>
                    <g id="Group-2" mask="url(#mask-2)">
                        <g transform="translate(12.996799, 22.854017)">
                            <g id="Group-11" transform="translate(16.038578, 44.715000)">
                                <path d="M36.3,15.4897365 L1.65,15.4897365 C0.738375,15.4897365 0,14.7505365 0,13.8397365 C0,12.9281115 0.738375,12.1897365 1.65,12.1897365 L36.3,12.1897365 C37.2108,12.1897365 37.95,12.9281115 37.95,13.8397365 C37.95,14.7505365 37.2108,15.4897365 36.3,15.4897365" id="Fill-453" fill="#182A37"></path>
                                <polygon id="Fill-455" fill="#182A37" points="16.5 17.325825 21.45 17.325825 21.45 0.000825 16.5 0.000825"></polygon>
                                <path d="M16.5,1.65 L16.5,2.475 L18.15,2.475 C18.6054,2.475 18.975,2.8446 18.975,3.3 L18.975,13.2 L21.45,13.2 L21.45,1.65 L16.5,1.65" id="Fill-473" fill="#12202B"></path>
                                <path d="M0,13.8397365 C0,14.7505365 0.7392,15.4897365 1.65,15.4897365 L36.3,15.4897365 C37.2108,15.4897365 37.95,14.7505365 37.95,13.8397365 L37.95,13.8389115 L0,13.8389115 L0,13.8397365" id="Fill-474" fill="#12202B"></path>
                            </g>
                            <g id="Web" filter="url(#filter-3)" transform="translate(7.523609, 0.000000)">
                                <path d="M3.42733696,46.2690489 C1.54230163,46.2690489 0,44.7267473 0,42.841712 L0,3.42733696 C0,1.54230163 1.54230163,0 3.42733696,0 L51.4100543,0 C53.2950897,0 54.8373913,1.54230163 54.8373913,3.42733696 L54.8373913,42.841712 C54.8373913,44.7267473 53.2950897,46.2690489 51.4100543,46.2690489 L3.42733696,46.2690489" id="Fill-1465" fill="#30404D"></path>
                                <path d="M4.2841712,43.6985462 C3.34165353,43.6985462 2.57050272,42.9273954 2.57050272,41.9848777 L2.57050272,9.42517663 C2.57050272,8.48265897 3.34165353,7.71150815 4.2841712,7.71150815 L50.5532201,7.71150815 C51.4957378,7.71150815 52.2668886,8.48265897 52.2668886,9.42517663 L52.2668886,41.9848777 C52.2668886,42.9273954 51.4957378,43.6985462 50.5532201,43.6985462 L4.2841712,43.6985462" id="Fill-1466" fill="#E1E4E1"></path>
                                <path d="M49.6963859,3.85575408 C49.6963859,3.14543849 50.2721785,2.57050272 50.9816372,2.57050272 C51.6919528,2.57050272 52.2668886,3.14543849 52.2668886,3.85575408 C52.2668886,4.56521283 51.6919528,5.14100543 50.9816372,5.14100543 C50.2721785,5.14100543 49.6963859,4.56521283 49.6963859,3.85575408" id="Fill-1467" fill="#DF5142"></path>
                                <path d="M44.5553804,3.85575408 C44.5553804,3.14543849 45.131173,2.57050272 45.8406318,2.57050272 C46.5509474,2.57050272 47.1258832,3.14543849 47.1258832,3.85575408 C47.1258832,4.56521283 46.5509474,5.14100543 45.8406318,5.14100543 C45.131173,5.14100543 44.5553804,4.56521283 44.5553804,3.85575408" id="Fill-1468" fill="#697D85"></path>
                                <path d="M39.414375,3.85575408 C39.414375,3.14543849 39.9901676,2.57050272 40.6996264,2.57050272 C41.4099419,2.57050272 41.9848777,3.14543849 41.9848777,3.85575408 C41.9848777,4.56521283 41.4099419,5.14100543 40.6996264,5.14100543 C39.9901676,5.14100543 39.414375,4.56521283 39.414375,3.85575408" id="Fill-1469" fill="#697D85"></path>
                                <path d="M32.9881182,5.14100543 L3.85575408,5.14100543 C3.14543849,5.14100543 2.57050272,4.56521283 2.57050272,3.85575408 C2.57050272,3.14629533 3.14543849,2.57050272 3.85575408,2.57050272 L32.9881182,2.57050272 C33.6984338,2.57050272 34.2733696,3.14629533 34.2733696,3.85575408 C34.2733696,4.56521283 33.6984338,5.14100543 32.9881182,5.14100543" id="Fill-1470" fill="#697D85"></path>
                                <path d="M22.2776902,23.9913587 C22.2776902,24.4626175 21.8921148,24.8481929 21.420856,24.8481929 L7.71150815,24.8481929 C7.24024932,24.8481929 6.85467391,24.4626175 6.85467391,23.9913587 L6.85467391,12.8525136 C6.85467391,12.3812548 7.24024932,11.9956793 7.71150815,11.9956793 L21.420856,11.9956793 C21.8921148,11.9956793 22.2776902,12.3812548 22.2776902,12.8525136 L22.2776902,23.9913587" id="Fill-1471" fill="#C5CCCD"></path>
                                <path d="M47.1258832,13.7093478 L25.7050272,13.7093478 C25.2311978,13.7093478 24.8481929,13.3263429 24.8481929,12.8525136 C24.8481929,12.3786843 25.2311978,11.9956793 25.7050272,11.9956793 L47.1258832,11.9956793 C47.5997125,11.9956793 47.9827174,12.3786843 47.9827174,12.8525136 C47.9827174,13.3263429 47.5997125,13.7093478 47.1258832,13.7093478" id="Fill-1472" fill="#C5CCCD"></path>
                                <path d="M47.1258832,18.8503533 L25.7050272,18.8503533 C25.2311978,18.8503533 24.8481929,18.4673484 24.8481929,17.993519 C24.8481929,17.5196897 25.2311978,17.1366848 25.7050272,17.1366848 L47.1258832,17.1366848 C47.5997125,17.1366848 47.9827174,17.5196897 47.9827174,17.993519 C47.9827174,18.4673484 47.5997125,18.8503533 47.1258832,18.8503533" id="Fill-1473" fill="#C5CCCD"></path>
                                <path d="M47.1258832,23.9913587 L25.7050272,23.9913587 C25.2311978,23.9913587 24.8481929,23.6083538 24.8481929,23.1345245 C24.8481929,22.6606951 25.2311978,22.2776902 25.7050272,22.2776902 L47.1258832,22.2776902 C47.5997125,22.2776902 47.9827174,22.6606951 47.9827174,23.1345245 C47.9827174,23.6083538 47.5997125,23.9913587 47.1258832,23.9913587" id="Fill-1474" fill="#C5CCCD"></path>
                                <path d="M47.1258832,29.1323641 L7.71150815,29.1323641 C7.23767882,29.1323641 6.85467391,28.7493592 6.85467391,28.2755299 C6.85467391,27.8017006 7.23767882,27.4186957 7.71150815,27.4186957 L47.1258832,27.4186957 C47.5997125,27.4186957 47.9827174,27.8017006 47.9827174,28.2755299 C47.9827174,28.7493592 47.5997125,29.1323641 47.1258832,29.1323641" id="Fill-1475" fill="#C5CCCD"></path>
                                <path d="M47.1258832,34.2733696 L7.71150815,34.2733696 C7.23767882,34.2733696 6.85467391,33.8903647 6.85467391,33.4165353 C6.85467391,32.942706 7.23767882,32.5597011 7.71150815,32.5597011 L47.1258832,32.5597011 C47.5997125,32.5597011 47.9827174,32.942706 47.9827174,33.4165353 C47.9827174,33.8903647 47.5997125,34.2733696 47.1258832,34.2733696" id="Fill-1476" fill="#C5CCCD"></path>
                                <path d="M47.1258832,39.414375 L7.71150815,39.414375 C7.23767882,39.414375 6.85467391,39.0313701 6.85467391,38.5575408 C6.85467391,38.0837114 7.23767882,37.7007065 7.71150815,37.7007065 L47.1258832,37.7007065 C47.5997125,37.7007065 47.9827174,38.0837114 47.9827174,38.5575408 C47.9827174,39.0313701 47.5997125,39.414375 47.1258832,39.414375" id="Fill-1477" fill="#C5CCCD"></path>
                            </g>
                            <g id="Group" transform="translate(24.750000, 52.140000)">
                                <path d="M20.5271568,11.5465257 C20.5271568,12.2521467 19.9498305,12.829473 19.2442095,12.829473 L1.2829473,12.829473 C0.577326284,12.829473 7.26529947e-13,12.2521467 7.26529947e-13,11.5465257 L7.26529947e-13,1.2829473 C7.26529947e-13,0.577326284 0.577326284,0 1.2829473,0 L19.2442095,0 C19.9498305,0 20.5271568,0.577326284 20.5271568,1.2829473 L20.5271568,11.5465257" id="Fill-475" fill="#30404D"></path>
                                <path d="M19.2442095,0 L10.2635784,0 L10.2635784,7.69640084 C10.2635784,9.11405761 9.11534055,10.2622954 7.69768379,10.2622954 L7.26529947e-13,10.2622954 L7.26529947e-13,11.5465257 C7.26529947e-13,12.2521467 0.577326284,12.829473 1.2829473,12.829473 L19.2442095,12.829473 C19.9498305,12.829473 20.5271568,12.2521467 20.5271568,11.5465257 L20.5271568,1.2829473 C20.5271568,0.577326284 19.9498305,0 19.2442095,0" id="Fill-476" fill="#182A37"></path>
                            </g>
                            <g id="Group" transform="translate(49.500000, 52.140000)">
                                <path d="M20.5271568,11.5465257 C20.5271568,12.2521467 19.9498305,12.829473 19.2442095,12.829473 L1.2829473,12.829473 C0.577326284,12.829473 7.26529947e-13,12.2521467 7.26529947e-13,11.5465257 L7.26529947e-13,1.2829473 C7.26529947e-13,0.577326284 0.577326284,0 1.2829473,0 L19.2442095,0 C19.9498305,0 20.5271568,0.577326284 20.5271568,1.2829473 L20.5271568,11.5465257" id="Fill-475" fill="#30404D"></path>
                                <path d="M19.2442095,0 L10.2635784,0 L10.2635784,7.69640084 C10.2635784,9.11405761 9.11534055,10.2622954 7.69768379,10.2622954 L7.26529947e-13,10.2622954 L7.26529947e-13,11.5465257 C7.26529947e-13,12.2521467 0.577326284,12.829473 1.2829473,12.829473 L19.2442095,12.829473 C19.9498305,12.829473 20.5271568,12.2521467 20.5271568,11.5465257 L20.5271568,1.2829473 C20.5271568,0.577326284 19.9498305,0 19.2442095,0" id="Fill-476" fill="#182A37"></path>
                            </g>
                            <g id="Group" transform="translate(0.000000, 52.140000)">
                                <path d="M20.5271568,11.5465257 C20.5271568,12.2521467 19.9498305,12.829473 19.2442095,12.829473 L1.2829473,12.829473 C0.577326284,12.829473 7.26529947e-13,12.2521467 7.26529947e-13,11.5465257 L7.26529947e-13,1.2829473 C7.26529947e-13,0.577326284 0.577326284,0 1.2829473,0 L19.2442095,0 C19.9498305,0 20.5271568,0.577326284 20.5271568,1.2829473 L20.5271568,11.5465257" id="Fill-475" fill="#30404D"></path>
                                <path d="M19.2442095,0 L10.2635784,0 L10.2635784,7.69640084 C10.2635784,9.11405761 9.11534055,10.2622954 7.69768379,10.2622954 L7.26529947e-13,10.2622954 L7.26529947e-13,11.5465257 C7.26529947e-13,12.2521467 0.577326284,12.829473 1.2829473,12.829473 L19.2442095,12.829473 C19.9498305,12.829473 20.5271568,12.2521467 20.5271568,11.5465257 L20.5271568,1.2829473 C20.5271568,0.577326284 19.9498305,0 19.2442095,0" id="Fill-476" fill="#182A37"></path>
                            </g>
                            <g id="PowerApp" filter="url(#filter-4)" transform="translate(27.442990, 53.790000)">
                                <path d="M8.43807332,6.99019722 L9.5275987,5.90078593 C9.82523606,5.60317974 10.3077763,5.603205 10.6053825,5.90084236 L11.6947938,6.99036774 C11.9924,7.2880051 11.9923747,7.77054533 11.6947373,8.06815152 L10.605212,9.15756281 C10.3075746,9.455169 9.82503437,9.45514374 9.52742818,9.15750638 L8.43801689,8.067981 C8.1404107,7.77034364 8.14043597,7.28780341 8.43807332,6.99019722 L8.43807332,6.99019722 Z" id="Rectangle-path" fill="#E1E4E1" fill-rule="nonzero"></path>
                                <path d="M11.1469248,4.27719688 L12.2364502,3.18778559 C12.5340875,2.8901794 13.0166278,2.89020467 13.3142339,3.18784203 L14.4036452,4.27736741 C14.7012514,4.57500476 14.7012262,5.057545 14.4035888,5.35515119 L13.3140634,6.44456248 C13.0164261,6.74216867 12.5338858,6.7421434 12.2362796,6.44450605 L11.1468683,5.35498067 C10.8492622,5.05734331 10.8492874,4.57480307 11.1469248,4.27719688 Z" id="Rectangle-path" fill="#E1E4E1" fill-rule="nonzero"></path>
                                <path d="M9.09555786,4.38201709 L8.67236034,3.95912668 L5.0859303,0.373003744 C4.84625439,0.134244971 4.4586348,0.134244971 4.2189589,0.373003744 L0.632528851,3.95912668 L0.209638444,4.38201709 C-0.0291203293,4.62169299 -0.0291203293,5.00931258 0.209638444,5.24898849 L0.632528851,5.672186 L4.22080156,9.25646628 C4.46047746,9.49522505 4.84809705,9.49522505 5.08777296,9.25646628 L8.67389589,5.67187889 L9.09709341,5.24868138 C9.33585218,5.00900547 9.33585218,4.62138588 9.09709341,4.38170998 M4.22080156,6.54898492 L3.25248387,5.58097435 L2.9201909,5.24868138 C2.68143213,5.00900547 2.68143213,4.62138588 2.9201909,4.38170998 L4.22049445,3.08140643 C4.46017035,2.84264766 4.84778994,2.84264766 5.08746585,3.08140643 L6.38776939,4.38170998 C6.62652817,4.62138588 6.62652817,5.00900547 6.38776939,5.24868138 L6.05547642,5.58097435 L5.08746585,6.54898492 C4.84778994,6.7877437 4.46017035,6.7877437 4.22049445,6.54898492" id="Shape" fill="#E1E4E1" fill-rule="nonzero"></path>
                                <path d="M10.4993575,3.84027513 L11.799661,2.53997158 C12.0384198,2.30029568 12.0384198,1.91267609 11.799661,1.67300018 L10.4993575,0.372696634 C10.2596816,0.133937861 9.87206196,0.133937861 9.63238606,0.372696634 L8.33208251,1.67300018 C8.09332374,1.91267609 8.09332374,2.30029568 8.33208251,2.53997158 L9.63238606,3.84027513 C9.87206196,4.0790339 10.2596816,4.0790339 10.4993575,3.84027513" id="Shape" fill="#E1E4E1" fill-rule="nonzero"></path>
                            </g>
                            <g id="Power" filter="url(#filter-5)" transform="translate(3.538816, 53.790000)">
                                <path d="M0.799336024,5.8750938 L0.799336024,1.64175606 C0.800136133,1.08083742 1.25494043,0.626322323 1.81621595,0.625522722 L11.8291628,0.625522722 C12.3904857,0.626208361 12.8453567,1.08079013 12.8460427,1.64175606 L12.8460427,7.03691811 C12.8453567,7.59788404 12.3904857,8.05246581 11.8291628,8.05315145 L7.20650968,8.05315145 L7.20650968,8.58138539 L11.8295779,8.58138539 C12.6828416,8.58047095 13.3743203,7.88943192 13.3752354,7.03671072 L13.3752354,1.64175606 C13.3743203,0.789034858 12.6828416,0.0979958336 11.8295779,0.0970813865 L1.81642348,0.0970813865 C0.963159723,0.0979958336 0.271681017,0.789034858 0.270765988,1.64175606 L0.270765988,5.87467901 L0.799336024,5.8750938 Z" id="Shape" fill="#E1E4E1" fill-rule="nonzero"></path>
                                <path d="M7.22103653,4.81489281 C7.22076106,4.93725868 7.26915179,5.05471909 7.35555747,5.14141991 C7.44196316,5.22812072 7.55930156,5.27695551 7.6817454,5.27717528 L9.83109752,5.27717528 C9.95350537,5.27690057 10.0707905,5.22804154 10.1571513,5.14134669 C10.2435121,5.05465185 10.2918744,4.93722282 10.2916,4.81489281 L10.2916,2.6579894 C10.2918744,2.53565939 10.2435121,2.41823036 10.1571513,2.33153552 C10.0707905,2.24484067 9.95350537,2.19598164 9.83109752,2.19570693 L7.6817454,2.19570693 C7.55930156,2.1959267 7.44196316,2.24476149 7.35555747,2.33146231 C7.26915179,2.41816312 7.22076106,2.53562353 7.22103653,2.6579894 L7.22103653,3.35255378 L6.35316064,3.35255378 C5.98951105,3.35278854 5.66715126,3.58643653 5.55397603,3.93180678 L4.23306976,7.9218707 C4.22303097,7.95308492 4.19407255,7.9743299 4.16126558,7.97454892 L3.34112079,7.97454892 L3.34112079,7.28081412 C3.3413963,7.15848411 3.29303404,7.04105508 3.20667322,6.95436023 C3.1203124,6.86766539 3.00302729,6.81880636 2.88061945,6.81853164 L0.73168238,6.81853164 C0.609274539,6.81880636 0.491989437,6.86766539 0.405628617,6.95436023 C0.319267797,7.04105508 0.270905535,7.15848411 0.271179871,7.28081412 L0.271179871,9.43771753 C0.270905535,9.56004753 0.319267797,9.67747656 0.405628617,9.76417141 C0.491989437,9.85086626 0.609274539,9.89972529 0.73168238,9.9 L2.88103451,9.9 C3.00344235,9.89972529 3.12072745,9.85086626 3.20708827,9.76417141 C3.29344909,9.67747656 3.34181135,9.56004753 3.34153584,9.43771753 L3.34153584,8.74439752 L4.16168064,8.74439752 C4.52533023,8.74416275 4.84769001,8.51051477 4.96086525,8.16514452 L6.28177152,4.1750806 C6.29181031,4.14386637 6.32076873,4.12262139 6.3535757,4.12240238 L7.22145159,4.12240238 L7.22103653,4.81489281 Z M2.57368774,9.12869964 L1.03799152,9.12869964 L1.03799152,7.58796546 L2.57368774,7.58796546 L2.57368774,9.12869964 Z" id="Shape" fill="#E1E4E1" fill-rule="nonzero"></path>
                            </g>
                            <g id="powerbi_icon" filter="url(#filter-6)" transform="translate(53.038816, 53.790000)">
                                <path d="M11.838222,8.5248625 L11.5675395,8.5248625 L11.5675395,7.9941125 L11.838222,7.9941125 C12.4132138,7.99343063 12.8791632,7.53661741 12.8798588,6.9729 L12.8798588,1.5519625 C12.8792405,0.988191395 12.4132684,0.531294523 11.838222,0.5306125 L1.5828615,0.5306125 C1.00781506,0.531294523 0.541842992,0.988191395 0.54122475,1.5519625 L0.54122475,6.9733125 C0.541920259,7.53702991 1.00786974,7.99384313 1.5828615,7.994525 L1.853544,7.994525 L1.853544,8.525275 L1.5828615,8.525275 C0.709065061,8.52421421 0.0010045834,7.82997577 1.13686838e-13,6.9733125 L1.13686838e-13,1.5519625 C0.0010047386,0.695245627 0.709150539,0.000985037845 1.58300175,0 L11.838222,0 C12.7120732,0.000985037845 13.420219,0.695245627 13.4212238,1.5519625 L13.4212238,6.9733125 C13.420219,7.83002937 12.7120732,8.52428996 11.838222,8.525275" id="Shape" fill="#E1E4E1" fill-rule="nonzero"></path>
                                <path d="M3.245385,6.7480875 L3.245385,6.7480875 C3.44018366,6.7480875 3.62700388,6.82395364 3.76474733,6.95899625 C3.90249078,7.09403885 3.97987425,7.27719592 3.97987425,7.468175 L3.97987425,9.1287625 C3.97987425,9.52653178 3.65096942,9.84898755 3.24524475,9.84898755 L3.24524475,9.84898755 C3.05039749,9.84906045 2.86350521,9.77322652 2.72570108,9.63817601 C2.58789696,9.5031255 2.510475,9.31992674 2.510475,9.1289 L2.510475,7.4683125 C2.510475,7.07054322 2.83937983,6.7480875 3.2451045,6.7480875 L3.245385,6.7480875 Z" id="Shape" fill="#E1E4E1" fill-rule="nonzero"></path>
                                <path d="M5.55572325,9.849125 C5.14997589,9.84912501 4.82103095,9.52669152 4.8209535,9.1289 L4.8209535,4.8664 C4.8209535,4.46859275 5.14988973,4.14610625 5.55565313,4.14610625 C5.96141652,4.14610625 6.29035275,4.46859275 6.29035275,4.8664 L6.29035275,9.1289 C6.29035275,9.52669153 5.96147061,9.84918657 5.55572325,9.8492625" id="Shape" fill="#E1E4E1" fill-rule="nonzero"></path>
                                <path d="M10.1761193,9.8280875 C9.77037189,9.82808751 9.44142695,9.50565402 9.4413495,9.1078625 L9.4413495,3.0716125 C9.4413495,2.67380525 9.77028573,2.35131875 10.1760491,2.35131875 C10.5818125,2.35131875 10.9107488,2.67380525 10.9107488,3.0716125 L10.9107488,9.1078625 C10.9107488,9.50565403 10.5818666,9.82814907 10.1761193,9.828225" id="Shape" fill="#E1E4E1" fill-rule="nonzero"></path>
                                <path d="M7.86592125,9.849125 C7.46017389,9.84912501 7.13122895,9.52669152 7.1311515,9.1289 L7.1311515,5.9624125 C7.1311515,5.56460525 7.46008773,5.24211875 7.86585113,5.24211875 C8.27161452,5.24211875 8.60055075,5.56460525 8.60055075,5.9624125 L8.60055075,9.1289 C8.60055075,9.52669153 8.27166861,9.84918657 7.86592125,9.8492625" id="Shape" fill="#E1E4E1" fill-rule="nonzero"></path>
                            </g>
                        </g>
                    </g>
                    <path d="M32.3261062,44.3090648 L15.4306745,44.3090648 C12.4363212,44.3090648 10,41.8727435 10,38.8783903 C10,36.5484318 11.4896642,34.5010314 13.6734832,33.7559006 C14.1292797,28.812255 18.2665184,25 23.274982,25 C28.1561688,25 32.2598157,28.6793785 32.8470164,33.4724676 C35.598003,33.7355718 37.7567806,36.0596349 37.7567806,38.8783903 C37.7567806,41.8727435 35.3204594,44.3090648 32.3261062,44.3090648 Z" id="Cloud" fill="#FFFFFF" fill-rule="nonzero" opacity="0.900000036" mask="url(#mask-2)"></path>
                </g>
                <g id="Azure-Hex-Border" stroke="#0078D4" stroke-width="4">
                    <path d="M45.5618501,3.25844398 L45.5621963,3.25823359 L6.67338401,26.8942953 C3.79673288,28.6432593 2,31.9508238 2,35.5582677 L2,82.4417323 C2,86.0486597 3.79764663,89.3586805 6.67318764,91.1055853 L45.560618,114.742485 C46.9289662,115.572418 48.4546283,116 50,116 C51.5458817,116 53.0723633,115.572188 54.4362178,114.743457 L93.3268764,91.1055464 C96.2016145,89.3583456 98,86.0476286 98,82.4417323 L98,35.5582677 C98,31.9518547 96.202529,28.6435953 93.3268966,26.8944659 L54.4351916,3.25759524 C53.0721095,2.42798656 51.5462432,2 50,2 C48.4542664,2 46.9292165,2.42775755 45.5618501,3.25844398 Z"></path>
                </g>
            </g>
        </g>
    </g>
</svg>