<svg width="102" height="103" viewBox="0 0 102 103" fill="none" xmlns="http://www.w3.org/2000/svg">
<path d="M50.9999 98.2308C25.4033 98.2308 4.6488 77.4862 4.6488 51.8798C4.6488 26.2733 25.4033 5.52869 50.9999 5.52869C76.5964 5.52869 97.351 26.2832 97.351 51.8798C97.351 77.4763 76.5964 98.2308 50.9999 98.2308Z" fill="url(#paint0_linear_2141_1896)"/>
<path fill-rule="evenodd" clip-rule="evenodd" d="M96.4501 51.8803C96.4501 76.9817 76.1016 97.3303 51.0001 97.3303C25.8987 97.3303 5.55013 76.9817 5.55013 51.8803C5.55013 26.7788 25.8987 6.43027 51.0001 6.43027C76.1016 6.43027 96.4501 26.7788 96.4501 51.8803ZM51.0001 2.72693C78.1513 2.72693 100.153 24.7291 100.153 51.8803C100.153 79.0314 78.1414 101.034 51.0001 101.034C23.849 101.034 1.8468 79.0215 1.8468 51.8803C1.8468 24.7291 23.849 2.72693 51.0001 2.72693Z" fill="#F2F1F0"/>
<path fill-rule="evenodd" clip-rule="evenodd" d="M93.6675 51.8798C93.6675 75.4465 74.5666 94.5473 50.9999 94.5473C27.4332 94.5473 8.33236 75.4465 8.33236 51.8798C8.33236 28.3131 27.4332 9.21225 50.9999 9.21225C74.5666 9.21225 93.6675 28.3131 93.6675 51.8798ZM50.9999 5.50891C76.6064 5.50891 97.3708 26.2733 97.3708 51.8798C97.3708 77.4863 76.6064 98.2507 50.9999 98.2507C25.3934 98.2507 4.62903 77.4863 4.62903 51.8798C4.62903 26.2733 25.3835 5.50891 50.9999 5.50891Z" fill="url(#paint1_radial_2141_1896)"/>
<g filter="url(#filter0_dddd_2141_1896)">
<path d="M83.0937 32.8895V31.6088C83.0937 30.0233 82.9015 28.7427 80.68 28.7427L27.0222 28.7428C24.8007 28.7428 24.0537 30.0235 24.0537 31.609V33.0319V34.3329V70.972C24.0537 72.5576 24.8007 73.8382 27.0222 73.8382L80.7085 73.8381C82.93 73.8381 83.1221 72.5574 83.1221 70.9719V33.0318C83.1221 32.981 83.0937 32.9403 83.0937 32.8895Z" fill="white"/>
</g>
<path opacity="0.15" d="M78.2484 37.2514H70.3147C70.0826 37.2514 69.8602 37.3436 69.6961 37.5077C69.532 37.6719 69.4397 37.8943 69.4397 38.1264V42.9651C69.4397 43.1972 69.532 43.4196 69.6961 43.5837C69.8602 43.7478 70.0826 43.8401 70.3147 43.8401H78.255C78.3702 43.841 78.4843 43.8191 78.5909 43.7754C78.6975 43.7317 78.7941 43.6674 78.8756 43.5859C78.957 43.5045 79.0213 43.4075 79.065 43.301C79.1087 43.1944 79.1309 43.0803 79.13 42.9651V38.1135C79.1267 37.8825 79.0322 37.6623 78.8671 37.5008C78.7019 37.3393 78.4794 37.2496 78.2484 37.2514V37.2514Z" fill="#1F1D20"/>
<path opacity="0.15" d="M78.2484 53.4211H70.3147C70.0826 53.4211 69.8602 53.5134 69.6961 53.6775C69.532 53.8416 69.4397 54.0641 69.4397 54.2961V59.1606C69.4397 59.3927 69.532 59.6155 69.6961 59.7796C69.8602 59.9437 70.0826 60.0356 70.3147 60.0356H78.255C78.4871 60.0356 78.7096 59.9437 78.8737 59.7796C79.0378 59.6155 79.13 59.3927 79.13 59.1606V54.309C79.1309 54.1927 79.1086 54.0774 79.0647 53.9697C79.0208 53.862 78.9559 53.7641 78.874 53.6816C78.792 53.5991 78.6948 53.5337 78.5875 53.489C78.4801 53.4443 78.3648 53.4211 78.2484 53.4211V53.4211Z" fill="#1F1D20"/>
<path opacity="0.15" d="M78.2484 45.3203H70.3147C70.0826 45.3203 69.8602 45.4123 69.6961 45.5764C69.532 45.7405 69.4397 45.9632 69.4397 46.1953V51.0532C69.4397 51.2853 69.532 51.5081 69.6961 51.6722C69.8602 51.8363 70.0826 51.9285 70.3147 51.9285H78.255C78.3702 51.9294 78.4843 51.9072 78.5909 51.8635C78.6975 51.8198 78.7941 51.7555 78.8756 51.6741C78.957 51.5926 79.0213 51.4957 79.065 51.3891C79.1087 51.2825 79.1309 51.1684 79.13 51.0532V46.1825C79.1267 45.9515 79.0322 45.7313 78.8671 45.5698C78.7019 45.4083 78.4794 45.3186 78.2484 45.3203V45.3203Z" fill="#1F1D20"/>
<path opacity="0.15" d="M78.2484 61.49H70.3147C70.0826 61.49 69.8602 61.5823 69.6961 61.7464C69.532 61.9105 69.4397 62.1329 69.4397 62.365V67.2295C69.4397 67.4616 69.532 67.6843 69.6961 67.8484C69.8602 68.0125 70.0826 68.1045 70.3147 68.1045H78.255C78.4871 68.1045 78.7096 68.0125 78.8737 67.8484C79.0378 67.6843 79.13 67.4616 79.13 67.2295V62.3716C79.13 62.1378 79.0371 61.9136 78.8718 61.7482C78.7065 61.5829 78.4822 61.49 78.2484 61.49V61.49Z" fill="#1F1D20"/>
<path d="M73.9053 55.8341H64.8521V56.4776H73.9053V55.8341Z" fill="#78787D"/>
<path d="M73.9053 47.8553H64.8521V48.4988H73.9053V47.8553Z" fill="#78787D"/>
<path d="M73.9052 64.45H64.852C64.7667 64.45 64.6849 64.4161 64.6245 64.3557C64.5642 64.2954 64.5303 64.2136 64.5303 64.1282V40.1856C64.5303 40.1003 64.5642 40.0185 64.6245 39.9581C64.6849 39.8978 64.7667 39.8639 64.852 39.8639H73.9052V40.5073H65.1737V63.8065H73.9052V64.45Z" fill="#78787D"/>
<path d="M78.2484 36.6724H70.3147C70.0826 36.6724 69.8602 36.7643 69.6961 36.9284C69.532 37.0925 69.4397 37.3153 69.4397 37.5474V42.4053C69.4397 42.6373 69.532 42.8601 69.6961 43.0242C69.8602 43.1883 70.0826 43.2806 70.3147 43.2806H78.255C78.3702 43.2814 78.4843 43.2592 78.5909 43.2155C78.6975 43.1719 78.7941 43.1075 78.8756 43.0261C78.957 42.9447 79.0213 42.8477 79.065 42.7411C79.1087 42.6346 79.1309 42.5204 79.13 42.4053V37.5536C79.13 37.3199 79.0371 37.0956 78.8718 36.9303C78.7065 36.765 78.4822 36.6724 78.2484 36.6724V36.6724Z" fill="#6AB7FC"/>
<path d="M78.2484 52.8422H70.3147C70.0826 52.8422 69.8602 52.9344 69.6961 53.0985C69.532 53.2626 69.4397 53.4851 69.4397 53.7172V58.5817C69.4397 58.8137 69.532 59.0362 69.6961 59.2003C69.8602 59.3644 70.0826 59.4567 70.3147 59.4567H78.255C78.4871 59.4567 78.7096 59.3644 78.8737 59.2003C79.0378 59.0362 79.13 58.8137 79.13 58.5817V53.73C79.1309 53.6137 79.1086 53.4984 79.0647 53.3907C79.0208 53.283 78.9559 53.1852 78.874 53.1026C78.792 53.0201 78.6948 52.9544 78.5875 52.9097C78.4801 52.865 78.3648 52.8422 78.2484 52.8422V52.8422Z" fill="url(#paint2_linear_2141_1896)"/>
<path d="M78.2484 44.7475H70.3147C70.0826 44.7475 69.8602 44.8397 69.6961 45.0038C69.532 45.1679 69.4397 45.3904 69.4397 45.6225V50.4807C69.4397 50.7128 69.532 50.9352 69.6961 51.0993C69.8602 51.2634 70.0826 51.3557 70.3147 51.3557H78.255C78.3702 51.3565 78.4843 51.3343 78.5909 51.2906C78.6975 51.247 78.7941 51.1826 78.8756 51.1012C78.957 51.0198 79.0213 50.9231 79.065 50.8165C79.1087 50.71 79.1309 50.5958 79.13 50.4807V45.6225C79.13 45.507 79.1072 45.3929 79.0628 45.2863C79.0184 45.1797 78.9534 45.0827 78.8715 45.0013C78.7895 44.92 78.6922 44.8558 78.5853 44.8122C78.4783 44.7686 78.3639 44.7466 78.2484 44.7475Z" fill="#1B93EB"/>
<path d="M78.2484 60.9172H70.3147C70.0826 60.9172 69.8602 61.0095 69.6961 61.1736C69.532 61.3377 69.4397 61.5601 69.4397 61.7922V66.6567C69.4397 66.8888 69.532 67.1116 69.6961 67.2757C69.8602 67.4398 70.0826 67.532 70.3147 67.532H78.255C78.4871 67.532 78.7096 67.4398 78.8737 67.2757C79.0378 67.1116 79.13 66.8888 79.13 66.6567V61.7988C79.13 61.565 79.0371 61.3408 78.8718 61.1755C78.7065 61.0102 78.4822 60.9172 78.2484 60.9172V60.9172Z" fill="url(#paint3_linear_2141_1896)"/>
<path d="M64.8842 52.0698H56.6223V52.7133H64.8842V52.0698Z" fill="#78787D"/>
<path d="M54.8591 60.7178H46.4494C46.3641 60.7178 46.2823 60.6838 46.2219 60.6235C46.1616 60.5632 46.1277 60.4814 46.1277 60.396V44.4129C46.1277 44.3276 46.1616 44.2458 46.2219 44.1854C46.2823 44.1251 46.3641 44.0912 46.4494 44.0912H54.8591V44.7346H46.784V60.0743H54.872L54.8591 60.7178Z" fill="#78787D"/>
<path opacity="0.15" d="M59.2025 41.4788H51.2882C51.0561 41.4788 50.8337 41.5711 50.6696 41.7352C50.5055 41.8993 50.4132 42.1217 50.4132 42.3538V47.212C50.4098 47.3291 50.4299 47.4456 50.4723 47.5548C50.5147 47.6639 50.5786 47.7633 50.6602 47.8473C50.7418 47.9313 50.8394 47.9981 50.9473 48.0436C51.0552 48.0892 51.1711 48.1128 51.2882 48.1128H59.2283C59.3434 48.1136 59.4576 48.0917 59.5641 48.048C59.6707 48.0044 59.7676 47.9397 59.8491 47.8583C59.9305 47.7768 59.9949 47.6802 60.0385 47.5736C60.0822 47.4671 60.1044 47.3529 60.1036 47.2378V42.3862C60.108 42.2664 60.0878 42.1469 60.0442 42.0352C60.0006 41.9235 59.9345 41.8221 59.85 41.737C59.7656 41.652 59.6645 41.5851 59.5531 41.5407C59.4418 41.4963 59.3223 41.4752 59.2025 41.4788Z" fill="#1F1D20"/>
<path opacity="0.15" d="M59.2024 57.6484H51.2881C51.056 57.6484 50.8336 57.7407 50.6695 57.9048C50.5053 58.0689 50.4131 58.2916 50.4131 58.5237V63.3882C50.4131 63.6203 50.5053 63.8427 50.6695 64.0068C50.8336 64.171 51.056 64.2632 51.2881 64.2632H59.2281C59.4602 64.2632 59.683 64.171 59.8471 64.0068C60.0112 63.8427 60.1034 63.6203 60.1034 63.3882V58.5366C60.1043 58.4187 60.0813 58.3015 60.0362 58.1926C59.9911 58.0836 59.9248 57.9848 59.8408 57.9019C59.7568 57.8191 59.6569 57.7542 59.5473 57.7106C59.4377 57.6671 59.3203 57.6458 59.2024 57.6484V57.6484Z" fill="#1F1D20"/>
<path opacity="0.15" d="M59.2024 49.5476H51.2881C51.056 49.5476 50.8336 49.6399 50.6695 49.804C50.5053 49.9681 50.4131 50.1905 50.4131 50.4226V55.2808C50.4131 55.5129 50.5053 55.7353 50.6695 55.8995C50.8336 56.0636 51.056 56.1558 51.2881 56.1558H59.2281C59.3433 56.1567 59.4574 56.1348 59.564 56.0911C59.6705 56.0474 59.7675 55.9828 59.8489 55.9013C59.9304 55.8199 59.9947 55.7233 60.0384 55.6167C60.0821 55.5101 60.1043 55.396 60.1034 55.2808V50.4226C60.1035 50.3055 60.0799 50.1896 60.0343 50.0817C59.9887 49.9738 59.922 49.8762 59.8379 49.7946C59.7539 49.713 59.6543 49.6491 59.5451 49.6067C59.436 49.5643 59.3194 49.5442 59.2024 49.5476V49.5476Z" fill="#1F1D20"/>
<path d="M54.8592 52.0764H45.8059V52.7199H54.8592V52.0764Z" fill="#78787D"/>
<path d="M59.2024 40.8996H51.2881C51.056 40.8996 50.8336 40.9919 50.6695 41.156C50.5053 41.3201 50.4131 41.5425 50.4131 41.7746V46.6328C50.4131 46.8649 50.5053 47.0874 50.6695 47.2515C50.8336 47.4156 51.056 47.5078 51.2881 47.5078H59.2281C59.3433 47.5087 59.4574 47.4865 59.564 47.4428C59.6705 47.3991 59.7675 47.3348 59.8489 47.2533C59.9304 47.1719 59.9947 47.0753 60.0384 46.9687C60.0821 46.8621 60.1043 46.748 60.1034 46.6328V41.7812C60.1035 41.6638 60.0798 41.5476 60.0343 41.4394C59.9888 41.3312 59.9222 41.2331 59.8383 41.151C59.7544 41.0689 59.6549 41.0044 59.5458 40.9612C59.4366 40.9181 59.3197 40.8971 59.2024 40.8996V40.8996Z" fill="#6AB7FC"/>
<path d="M59.2024 57.0693H51.2881C51.056 57.0693 50.8336 57.1616 50.6695 57.3257C50.5053 57.4898 50.4131 57.7122 50.4131 57.9443V62.8088C50.4131 63.0409 50.5053 63.2636 50.6695 63.4277C50.8336 63.5918 51.056 63.6841 51.2881 63.6841H59.2281C59.4602 63.6841 59.683 63.5918 59.8471 63.4277C60.0112 63.2636 60.1034 63.0409 60.1034 62.8088V57.9572C60.1043 57.8392 60.0813 57.7224 60.0362 57.6135C59.9911 57.5045 59.9248 57.4056 59.8408 57.3228C59.7568 57.24 59.6569 57.1751 59.5473 57.1315C59.4377 57.088 59.3203 57.0667 59.2024 57.0693V57.0693Z" fill="url(#paint4_linear_2141_1896)"/>
<path d="M59.2024 48.9749H51.2881C51.056 48.9749 50.8336 49.0671 50.6695 49.2312C50.5053 49.3954 50.4131 49.6181 50.4131 49.8502V54.7081C50.4131 54.9402 50.5053 55.1626 50.6695 55.3267C50.8336 55.4908 51.056 55.5831 51.2881 55.5831H59.2281C59.3433 55.5839 59.4574 55.562 59.564 55.5184C59.6705 55.4747 59.7675 55.4103 59.8489 55.3289C59.9304 55.2475 59.9947 55.1505 60.0384 55.0439C60.0821 54.9374 60.1043 54.8232 60.1034 54.7081V49.8502C60.1035 49.7331 60.0799 49.6169 60.0343 49.509C59.9887 49.4011 59.922 49.3037 59.8379 49.2221C59.7539 49.1405 59.6543 49.0764 59.5451 49.0339C59.436 48.9915 59.3194 48.9714 59.2024 48.9749V48.9749Z" fill="#1B93EB"/>
<path d="M45.838 52.0764H37.5762V52.7199H45.838V52.0764Z" fill="#78787D"/>
<path opacity="0.15" d="M41.8746 49.5476H33.915C33.683 49.5476 33.4605 49.6399 33.2964 49.804C33.1323 49.9681 33.04 50.1905 33.04 50.4226V55.2808C33.04 55.5129 33.1323 55.7353 33.2964 55.8994C33.4605 56.0636 33.683 56.1558 33.915 56.1558H41.8551C41.9702 56.1567 42.0844 56.1348 42.1909 56.0911C42.2975 56.0474 42.3945 55.9828 42.4759 55.9013C42.5573 55.8199 42.6217 55.7232 42.6654 55.6167C42.709 55.5101 42.7312 55.396 42.7304 55.2808V50.4226C42.7304 50.1938 42.6409 49.9741 42.4809 49.8106C42.321 49.647 42.1033 49.5527 41.8746 49.5476V49.5476Z" fill="#1F1D20"/>
<path d="M41.8746 48.9749H33.915C33.683 48.9749 33.4605 49.0671 33.2964 49.2312C33.1323 49.3953 33.04 49.6181 33.04 49.8502V54.7081C33.04 54.9402 33.1323 55.1626 33.2964 55.3267C33.4605 55.4908 33.683 55.5831 33.915 55.5831H41.8551C41.9702 55.5839 42.0844 55.562 42.1909 55.5183C42.2975 55.4747 42.3945 55.4103 42.4759 55.3289C42.5573 55.2475 42.6217 55.1505 42.6654 55.0439C42.709 54.9374 42.7312 54.8232 42.7304 54.7081V49.8502C42.7304 49.6214 42.6409 49.4017 42.4809 49.2381C42.321 49.0746 42.1033 48.9799 41.8746 48.9749V48.9749Z" fill="#1B93EB"/>
<g filter="url(#filter1_dddd_2141_1896)">
<path d="M42.1428 41.8523H15.3568C14.8067 41.8523 14.3625 42.2765 14.3625 42.7935V61.2474C14.3625 61.7645 14.8067 62.1887 15.3568 62.1887H42.1428C42.693 62.1887 43.1371 61.7645 43.1371 61.2474V42.8002C43.1371 42.2765 42.6863 41.8523 42.1428 41.8523Z" fill="url(#paint5_linear_2141_1896)"/>
<path d="M44.0121 44.2187L43.2962 43.5293L31.8355 55.4673C31.1461 56.1898 30.2314 56.5942 29.257 56.6074C28.3157 56.6207 27.3678 56.2495 26.652 55.5535L14.8929 44.0728L14.2035 44.7821L22.814 53.1937L13.5341 60.8895L14.1704 61.6518L23.5299 53.8897L25.9692 56.2694C26.8508 57.1311 28.0042 57.6017 29.2106 57.6017C29.2371 57.6017 29.2636 57.6017 29.2835 57.6017C30.523 57.5818 31.683 57.0648 32.558 56.1567L34.7388 53.8831L42.5141 60.4122L43.1504 59.6499L35.4282 53.1606L44.0121 44.2187Z" fill="url(#paint6_linear_2141_1896)"/>
<path d="M43.1967 40.1685H14.3028C13.7129 40.1685 13.229 40.6523 13.229 41.2423V62.5067C13.229 63.0966 13.7129 63.5805 14.3028 63.5805H43.1967C43.7866 63.5805 44.2705 63.0966 44.2705 62.5067V41.2423C44.2639 40.6523 43.7866 40.1685 43.1967 40.1685ZM42.3615 60.7501C42.3615 61.2406 41.9373 61.645 41.4202 61.645H16.0793C15.5623 61.645 15.138 61.2406 15.138 60.7501V43.2971C15.138 42.8066 15.5623 42.4023 16.0793 42.4023H41.4202C41.9373 42.4023 42.3615 42.8 42.3615 43.2971V60.7501V60.7501Z" fill="url(#paint7_linear_2141_1896)"/>
<path opacity="0.15" d="M41.4201 61.6449H16.0792C15.5622 61.6449 15.1379 61.2405 15.1379 60.75V61.0483C15.1379 61.5388 15.5622 61.9431 16.0792 61.9431H41.4201C41.9372 61.9431 42.3614 61.5388 42.3614 61.0483V60.75C42.3614 61.2471 41.9372 61.6449 41.4201 61.6449Z" fill="#1F1D20"/>
</g>
<defs>
<filter id="filter0_dddd_2141_1896" x="22.0537" y="27.7427" width="68.0684" height="60.0956" filterUnits="userSpaceOnUse" color-interpolation-filters="sRGB">
<feFlood flood-opacity="0" result="BackgroundImageFix"/>
<feColorMatrix in="SourceAlpha" type="matrix" values="0 0 0 0 0 0 0 0 0 0 0 0 0 0 0 0 0 0 127 0" result="hardAlpha"/>
<feOffset dy="1"/>
<feGaussianBlur stdDeviation="0.5"/>
<feColorMatrix type="matrix" values="0 0 0 0 0 0 0 0 0 0 0 0 0 0 0 0 0 0 0.1 0"/>
<feBlend mode="normal" in2="BackgroundImageFix" result="effect1_dropShadow_2141_1896"/>
<feColorMatrix in="SourceAlpha" type="matrix" values="0 0 0 0 0 0 0 0 0 0 0 0 0 0 0 0 0 0 127 0" result="hardAlpha"/>
<feOffset dx="1" dy="2"/>
<feGaussianBlur stdDeviation="1.5"/>
<feColorMatrix type="matrix" values="0 0 0 0 0 0 0 0 0 0 0 0 0 0 0 0 0 0 0.09 0"/>
<feBlend mode="normal" in2="effect1_dropShadow_2141_1896" result="effect2_dropShadow_2141_1896"/>
<feColorMatrix in="SourceAlpha" type="matrix" values="0 0 0 0 0 0 0 0 0 0 0 0 0 0 0 0 0 0 127 0" result="hardAlpha"/>
<feOffset dx="2" dy="6"/>
<feGaussianBlur stdDeviation="1.5"/>
<feColorMatrix type="matrix" values="0 0 0 0 0 0 0 0 0 0 0 0 0 0 0 0 0 0 0.05 0"/>
<feBlend mode="normal" in2="effect2_dropShadow_2141_1896" result="effect3_dropShadow_2141_1896"/>
<feColorMatrix in="SourceAlpha" type="matrix" values="0 0 0 0 0 0 0 0 0 0 0 0 0 0 0 0 0 0 127 0" result="hardAlpha"/>
<feOffset dx="3" dy="10"/>
<feGaussianBlur stdDeviation="2"/>
<feColorMatrix type="matrix" values="0 0 0 0 0 0 0 0 0 0 0 0 0 0 0 0 0 0 0.01 0"/>
<feBlend mode="normal" in2="effect3_dropShadow_2141_1896" result="effect4_dropShadow_2141_1896"/>
<feBlend mode="normal" in="SourceGraphic" in2="effect4_dropShadow_2141_1896" result="shape"/>
</filter>
<filter id="filter1_dddd_2141_1896" x="12.229" y="40.1685" width="40.0415" height="36.412" filterUnits="userSpaceOnUse" color-interpolation-filters="sRGB">
<feFlood flood-opacity="0" result="BackgroundImageFix"/>
<feColorMatrix in="SourceAlpha" type="matrix" values="0 0 0 0 0 0 0 0 0 0 0 0 0 0 0 0 0 0 127 0" result="hardAlpha"/>
<feOffset dy="1"/>
<feGaussianBlur stdDeviation="0.5"/>
<feColorMatrix type="matrix" values="0 0 0 0 0 0 0 0 0 0 0 0 0 0 0 0 0 0 0.1 0"/>
<feBlend mode="normal" in2="BackgroundImageFix" result="effect1_dropShadow_2141_1896"/>
<feColorMatrix in="SourceAlpha" type="matrix" values="0 0 0 0 0 0 0 0 0 0 0 0 0 0 0 0 0 0 127 0" result="hardAlpha"/>
<feOffset dx="1" dy="2"/>
<feGaussianBlur stdDeviation="1"/>
<feColorMatrix type="matrix" values="0 0 0 0 0 0 0 0 0 0 0 0 0 0 0 0 0 0 0.09 0"/>
<feBlend mode="normal" in2="effect1_dropShadow_2141_1896" result="effect2_dropShadow_2141_1896"/>
<feColorMatrix in="SourceAlpha" type="matrix" values="0 0 0 0 0 0 0 0 0 0 0 0 0 0 0 0 0 0 127 0" result="hardAlpha"/>
<feOffset dx="2" dy="5"/>
<feGaussianBlur stdDeviation="1.5"/>
<feColorMatrix type="matrix" values="0 0 0 0 0 0 0 0 0 0 0 0 0 0 0 0 0 0 0.05 0"/>
<feBlend mode="normal" in2="effect2_dropShadow_2141_1896" result="effect3_dropShadow_2141_1896"/>
<feColorMatrix in="SourceAlpha" type="matrix" values="0 0 0 0 0 0 0 0 0 0 0 0 0 0 0 0 0 0 127 0" result="hardAlpha"/>
<feOffset dx="4" dy="9"/>
<feGaussianBlur stdDeviation="2"/>
<feColorMatrix type="matrix" values="0 0 0 0 0 0 0 0 0 0 0 0 0 0 0 0 0 0 0.01 0"/>
<feBlend mode="normal" in2="effect3_dropShadow_2141_1896" result="effect4_dropShadow_2141_1896"/>
<feBlend mode="normal" in="SourceGraphic" in2="effect4_dropShadow_2141_1896" result="shape"/>
</filter>
<linearGradient id="paint0_linear_2141_1896" x1="25.2852" y1="10.3768" x2="65.7189" y2="135.034" gradientUnits="userSpaceOnUse">
<stop offset="0.0996678" stop-color="#C5E4FF"/>
<stop offset="0.623265" stop-color="#69B7FC"/>
</linearGradient>
<radialGradient id="paint1_radial_2141_1896" cx="0" cy="0" r="1" gradientUnits="userSpaceOnUse" gradientTransform="translate(16.9061 28.6574) rotate(48.6382) scale(101.338 200.866)">
<stop offset="0.00520833" stop-color="#68B6FC"/>
<stop offset="0.33" stop-color="#3082F1"/>
<stop offset="0.675" stop-color="#1152D4"/>
<stop offset="1" stop-color="#0E45BD"/>
</radialGradient>
<linearGradient id="paint2_linear_2141_1896" x1="78.7355" y1="48.4281" x2="79.9125" y2="75.2871" gradientUnits="userSpaceOnUse">
<stop offset="0.345811" stop-color="#1152D4"/>
<stop offset="0.6156" stop-color="#0D3FB3"/>
</linearGradient>
<linearGradient id="paint3_linear_2141_1896" x1="79.517" y1="45.6146" x2="81.0713" y2="67.8501" gradientUnits="userSpaceOnUse">
<stop offset="0.4598" stop-color="#1152D4"/>
<stop offset="0.6156" stop-color="#0D3FB3"/>
</linearGradient>
<linearGradient id="paint4_linear_2141_1896" x1="60.4904" y1="41.766" x2="62.0448" y2="64.0022" gradientUnits="userSpaceOnUse">
<stop offset="0.4598" stop-color="#1152D4"/>
<stop offset="0.6156" stop-color="#0D3FB3"/>
</linearGradient>
<linearGradient id="paint5_linear_2141_1896" x1="13.8805" y1="33.3915" x2="96.8089" y2="137.316" gradientUnits="userSpaceOnUse">
<stop offset="0.0435" stop-color="white"/>
<stop offset="0.4857" stop-color="#4DC1EA"/>
<stop offset="0.8452" stop-color="#0078D4"/>
</linearGradient>
<linearGradient id="paint6_linear_2141_1896" x1="28.7731" y1="43.5293" x2="28.7731" y2="61.6518" gradientUnits="userSpaceOnUse">
<stop stop-color="#008BF1"/>
<stop offset="0.22" stop-color="#0086EC"/>
<stop offset="0.49" stop-color="#0078DD"/>
<stop offset="0.79" stop-color="#0061C4"/>
<stop offset="1" stop-color="#004DAE"/>
</linearGradient>
<linearGradient id="paint7_linear_2141_1896" x1="28.7498" y1="40.1685" x2="28.7498" y2="63.5805" gradientUnits="userSpaceOnUse">
<stop stop-color="#008BF1"/>
<stop offset="0.22" stop-color="#0086EC"/>
<stop offset="0.49" stop-color="#0078DD"/>
<stop offset="0.79" stop-color="#0061C4"/>
<stop offset="1" stop-color="#004DAE"/>
</linearGradient>
</defs>
</svg>
