<svg width="103" height="103" viewBox="0 0 103 103" fill="none" xmlns="http://www.w3.org/2000/svg">
<path d="M51.124 98.5992C25.274 98.5992 4.31396 77.6492 4.31396 51.7892C4.31396 25.9292 25.274 4.97925 51.124 4.97925C76.974 4.97925 97.934 25.9392 97.934 51.7892C97.934 77.6392 76.974 98.5992 51.124 98.5992Z" fill="url(#paint0_linear_1272_1471)"/>
<path fill-rule="evenodd" clip-rule="evenodd" d="M97.0239 51.7894C97.0239 77.1394 76.4739 97.6894 51.1239 97.6894C25.7739 97.6894 5.22389 77.1394 5.22389 51.7894C5.22389 26.4394 25.7739 5.88942 51.1239 5.88942C76.4739 5.88942 97.0239 26.4394 97.0239 51.7894ZM51.1239 2.14941C78.5439 2.14941 100.764 24.3694 100.764 51.7894C100.764 79.2094 78.5339 101.429 51.1239 101.429C23.7039 101.429 1.48389 79.1994 1.48389 51.7894C1.48389 24.3694 23.7039 2.14941 51.1239 2.14941Z" fill="#F2F1F0"/>
<path opacity="0.15" d="M22.8699 77.2319H78.6433C80.2061 77.2319 81.4707 75.9673 81.4707 74.4045V29.929H20.0425V74.4045C20.0425 75.9673 21.3071 77.2319 22.8699 77.2319Z" fill="#1F1D20"/>
<g filter="url(#filter0_bd_1272_1471)">
<path d="M21.2116 76.3931H80.3016C80.9458 76.3931 81.4707 75.8681 81.4707 75.2239V31.0901C81.4707 29.9855 80.5753 29.0901 79.4707 29.0901H22.0425C20.9379 29.0901 20.0425 29.9855 20.0425 31.0901V75.2239C20.0425 75.8681 20.5674 76.3931 21.2116 76.3931Z" fill="white" fill-opacity="0.65" shape-rendering="crispEdges"/>
</g>
<path d="M20.0425 34.1965H81.4827V28.6848C81.4827 28.1957 81.077 27.79 80.5879 27.79H20.9372C20.4481 27.79 20.0425 28.1957 20.0425 28.6848V34.1965Z" fill="#092E4C"/>
<path d="M24.7674 32.6819C25.6264 32.6819 26.3303 31.9899 26.3303 31.119C26.3303 30.2481 25.6145 29.5681 24.7674 29.5681C23.9085 29.5681 23.2046 30.2601 23.2046 31.131C23.2046 32.0019 23.8846 32.6819 24.7674 32.6819Z" fill="white"/>
<path d="M76.2415 39.6578V39.1109C76.2415 38.4338 75.6946 37.887 75.0175 37.887H51.4613C50.7842 37.887 50.2373 38.4338 50.2373 39.1109V39.7186V40.2741V71.6545C50.2373 72.3316 50.7842 72.8785 51.4613 72.8785H75.0262C75.7033 72.8785 76.2502 72.3316 76.2502 71.6545V39.7186C76.2502 39.6969 76.2415 39.6795 76.2415 39.6578Z" fill="url(#paint1_linear_1272_1471)"/>
<path d="M69.7405 39.6578V39.1109C69.7405 38.4338 69.1936 37.887 68.5165 37.887H44.9603C44.2832 37.887 43.7363 38.4338 43.7363 39.1109V39.7186V40.2741V71.6545C43.7363 72.3316 44.2832 72.8785 44.9603 72.8785H68.5252C69.2023 72.8785 69.7492 72.3316 69.7492 71.6545V39.7186C69.7492 39.6969 69.7405 39.6795 69.7405 39.6578Z" fill="url(#paint2_linear_1272_1471)"/>
<path d="M63.4817 39.6578V39.1109C63.4817 38.4338 62.9348 37.887 62.2577 37.887H38.7015C38.0244 37.887 37.4775 38.4338 37.4775 39.1109V39.7186V40.2741V71.6545C37.4775 72.3316 38.0244 72.8785 38.7015 72.8785H62.2664C62.9435 72.8785 63.4904 72.3316 63.4904 71.6545V39.7186C63.4904 39.6969 63.4817 39.6795 63.4817 39.6578Z" fill="url(#paint3_linear_1272_1471)"/>
<g filter="url(#filter1_d_1272_1471)">
<path d="M56.9207 39.6578V39.1109C56.9207 38.4338 56.3738 37.887 55.6967 37.887H32.1405C31.4634 37.887 30.9165 38.4338 30.9165 39.1109V39.7186V40.2741V71.6545C30.9165 72.3316 31.4634 72.8785 32.1405 72.8785H55.7054C56.3825 72.8785 56.9294 72.3316 56.9294 71.6545V39.7186C56.9294 39.6969 56.9207 39.6795 56.9207 39.6578Z" fill="url(#paint4_linear_1272_1471)"/>
</g>
<g filter="url(#filter2_bd_1272_1471)">
<path d="M73.5174 69.2383C79.2148 69.2383 83.8335 64.6196 83.8335 58.9221C83.8335 53.2247 79.2148 48.606 73.5174 48.606C67.8199 48.606 63.2012 53.2247 63.2012 58.9221C63.2012 64.6196 67.8199 69.2383 73.5174 69.2383Z" fill="white" fill-opacity="0.35" shape-rendering="crispEdges"/>
</g>
<path opacity="0.15" d="M90.3763 74.3463L82.4175 66.5086C83.8806 64.6053 84.7476 62.2209 84.7476 59.6402C84.7476 53.4017 79.681 48.3486 73.4493 48.3486C67.2176 48.3486 62.1577 53.4017 62.1577 59.6402C62.1577 65.8787 67.2108 70.9318 73.4493 70.9318C75.9555 70.9318 78.2585 70.119 80.1416 68.7371L88.1139 76.5952C88.1139 76.5952 88.9945 76.9406 89.9225 75.9585C90.8572 74.9898 90.3763 74.3463 90.3763 74.3463ZM63.8443 59.6809C63.8443 54.3907 68.132 50.103 73.4222 50.103C78.7124 50.103 83.0001 54.3907 83.0001 59.6809C83.0001 64.971 78.6988 69.2587 73.4087 69.2587C68.1185 69.2587 63.8443 64.971 63.8443 59.6809Z" fill="#1F1D20"/>
<path d="M63.8443 59.0578C63.8443 53.7676 68.132 49.4799 73.4222 49.4799C78.7124 49.4799 83.0001 53.7676 83.0001 59.0578C83.0001 64.348 78.6988 68.6357 73.4087 68.6357C68.1185 68.6357 63.8443 64.348 63.8443 59.0578ZM90.3145 73.6741L82.4175 65.8856C83.8806 63.9822 84.7476 61.5979 84.7476 59.0172C84.7476 52.7787 79.6878 47.7256 73.4493 47.7256C67.2108 47.7256 62.1577 52.7787 62.1577 59.0172C62.1577 65.2556 67.2108 70.3087 73.4493 70.3087C75.9555 70.3087 78.2585 69.4959 80.1416 68.1141L88.0522 75.9229C88.0522 75.9229 88.9327 76.2684 89.8607 75.2862C90.7955 74.3176 90.3145 73.6741 90.3145 73.6741Z" fill="#092E4C"/>
<path d="M75.3324 59.1666C75.3324 59.5194 75.2278 59.8643 75.0318 60.1577C74.8357 60.451 74.5571 60.6797 74.2311 60.8147C73.9052 60.9497 73.5465 60.9851 73.2004 60.9162C72.8544 60.8474 72.5365 60.6775 72.287 60.428C72.0375 60.1785 71.8676 59.8606 71.7988 59.5146C71.73 59.1685 71.7653 58.8098 71.9003 58.4839C72.0353 58.1579 72.264 57.8793 72.5574 57.6833C72.8507 57.4872 73.1956 57.3826 73.5485 57.3826C74.0214 57.3832 74.4748 57.5713 74.8093 57.9058C75.1437 58.2402 75.3318 58.6936 75.3324 59.1666ZM78.6293 58.2057L77.7997 58.0213C77.7139 57.99 77.6438 57.9262 77.6047 57.8436L77.5949 57.8168L77.3661 57.2606L77.3528 57.232C77.3218 57.1467 77.3259 57.0526 77.3643 56.9703L77.8206 56.2532C77.9139 56.0979 77.9538 55.9163 77.934 55.7362C77.9143 55.5561 77.836 55.3875 77.7112 55.2561L77.4588 55.0037C77.3263 54.8811 77.1578 54.8043 76.9783 54.7846C76.7988 54.7649 76.6178 54.8034 76.4618 54.8944L75.7445 55.3505C75.6987 55.3734 75.648 55.3844 75.5969 55.3826C75.5579 55.384 75.519 55.377 75.4829 55.3621C75.4736 55.3571 75.464 55.3527 75.4542 55.3489L74.8981 55.1198L74.8713 55.1102C74.7887 55.0711 74.7249 55.0009 74.6936 54.915L74.5094 54.0857C74.4655 53.9099 74.3653 53.7533 74.2239 53.6399C74.0826 53.5265 73.908 53.4626 73.7268 53.458H73.37C73.1889 53.4626 73.0143 53.5264 72.8729 53.6398C72.7316 53.7532 72.6314 53.9098 72.5876 54.0856L72.4031 54.9155C72.3717 55.0012 72.3079 55.0711 72.2255 55.1103L72.1985 55.1199L71.6425 55.349C71.6327 55.3528 71.6231 55.3572 71.6138 55.3622C71.5777 55.3772 71.5388 55.3842 71.4998 55.3827C71.4486 55.3844 71.3979 55.3733 71.352 55.3506L70.6351 54.8946C70.4791 54.8037 70.298 54.7652 70.1185 54.7849C69.939 54.8046 69.7706 54.8814 69.638 55.004L69.3856 55.2562C69.2608 55.3876 69.1825 55.5563 69.1628 55.7364C69.143 55.9165 69.1829 56.0982 69.2763 56.2535L69.7326 56.9704C69.7708 57.0527 69.7749 57.1467 69.744 57.2319L69.7306 57.2607L69.5018 57.817L69.4919 57.8437C69.4529 57.9264 69.3828 57.9903 69.297 58.0216L68.4676 58.2057C68.2918 58.2495 68.1351 58.3498 68.0217 58.4911C67.9083 58.6325 67.8444 58.8072 67.8398 58.9883V59.3451C67.8444 59.5262 67.9083 59.7008 68.0217 59.8422C68.135 59.9835 68.2916 60.0837 68.4674 60.1275L69.2971 60.3118C69.3829 60.3432 69.4529 60.4071 69.4919 60.4897L69.5018 60.5165L69.7306 61.0727L69.744 61.1012C69.7749 61.1866 69.7707 61.2807 69.7324 61.3629L69.2763 62.0799C69.1828 62.2352 69.1429 62.4168 69.1627 62.597C69.1824 62.7771 69.2608 62.9458 69.3856 63.0772L69.638 63.3296C69.7707 63.4521 69.9391 63.5289 70.1186 63.5486C70.2982 63.5683 70.4793 63.5298 70.6353 63.4389L71.3519 62.9828C71.3977 62.96 71.4486 62.9489 71.4997 62.9507C71.5388 62.9491 71.5777 62.9561 71.6137 62.9712L71.6425 62.9844L72.1985 63.2134L72.2255 63.2231C72.308 63.2623 72.3718 63.3323 72.4031 63.4181L72.5876 64.2476C72.6313 64.4235 72.7315 64.5801 72.8729 64.6935C73.0142 64.8069 73.1889 64.8708 73.37 64.8754H73.7268C73.908 64.8708 74.0826 64.8068 74.2239 64.6934C74.3652 64.5801 74.4655 64.4234 74.5093 64.2476L74.6937 63.4181C74.725 63.3322 74.7889 63.2622 74.8714 63.2231L74.8982 63.2134L75.4542 62.9844L75.483 62.9712C75.519 62.9562 75.5579 62.9492 75.5968 62.9507C75.648 62.9489 75.6988 62.9599 75.7445 62.9828L76.4617 63.4388C76.6177 63.5298 76.7988 63.5683 76.9783 63.5487C77.1578 63.529 77.3263 63.4522 77.4589 63.3296L77.7112 63.0774C77.836 62.946 77.9144 62.7773 77.9341 62.5971C77.9539 62.417 77.9141 62.2353 77.8207 62.08L77.3644 61.363C77.3454 61.3223 77.3346 61.2782 77.3327 61.2334C77.3307 61.1885 77.3376 61.1437 77.353 61.1015L77.3662 61.0729L77.595 60.5165L77.6049 60.4897C77.644 60.4071 77.7141 60.3432 77.8 60.3119L78.6292 60.1276C78.8051 60.0839 78.9617 59.9837 79.0752 59.8423C79.1886 59.701 79.2525 59.5263 79.2571 59.3452V58.9884C79.2526 58.8072 79.1887 58.6325 79.0753 58.4911C78.9619 58.3497 78.8052 58.2495 78.6293 58.2057Z" fill="url(#paint5_linear_1272_1471)"/>
<path opacity="0.15" d="M50.2438 73.5617C50.8577 73.5617 51.3527 73.0667 51.3527 72.4528V41.0059H25.5425V72.4576C25.5425 73.0715 26.0374 73.5665 26.6514 73.5665H50.2438V73.5617Z" fill="#1F1D20"/>
<g filter="url(#filter3_d_1272_1471)">
<path d="M51.3484 39.6578V39.1109C51.3484 38.4338 50.8015 37.887 50.1244 37.887H26.5682C25.8911 37.887 25.3442 38.4338 25.3442 39.1109V39.7186V40.2741V71.6545C25.3442 72.3316 25.8911 72.8785 26.5682 72.8785H50.1331C50.8102 72.8785 51.3571 72.3316 51.3571 71.6545V39.7186C51.3571 39.6969 51.3484 39.6795 51.3484 39.6578Z" fill="white"/>
</g>
<path d="M46.0741 70.175C48.2893 70.175 50.0793 68.385 50.0793 66.1698C50.0793 63.9546 48.2893 62.1646 46.0741 62.1646C43.8589 62.1646 42.0688 63.9546 42.0688 66.1698C42.0688 68.3775 43.8589 70.175 46.0741 70.175Z" fill="#092E4C"/>
<path d="M48.0951 42.2129H28.606V45.1143H48.0876V42.2129H48.0951Z" fill="url(#paint6_linear_1272_1471)"/>
<path d="M48.0951 46.4492H28.606V52.5055H48.0876V46.4492H48.0951Z" fill="url(#paint7_linear_1272_1471)"/>
<path d="M46.0664 61.1578C46.7899 61.1578 47.476 61.3069 48.0951 61.5904V53.7664H28.606V68.7655H41.8001C41.3302 68.0047 41.0617 67.1097 41.0617 66.155C41.0617 63.3953 43.3067 61.1578 46.0664 61.1578Z" fill="url(#paint8_linear_1272_1471)"/>
<path d="M48.2516 64.0818L44.955 67.4008L43.963 66.4088L43.3066 67.0727L44.955 68.7285L48.9229 64.7531L48.2516 64.0818Z" fill="#FAF9F8"/>
<path fill-rule="evenodd" clip-rule="evenodd" d="M94.214 51.7892C94.214 75.5892 74.924 94.8792 51.1239 94.8792C27.3239 94.8792 8.03395 75.5892 8.03395 51.7892C8.03395 27.9892 27.3239 8.69923 51.1239 8.69923C74.924 8.69923 94.214 27.9892 94.214 51.7892ZM51.1239 4.95923C76.9839 4.95923 97.9539 25.9292 97.9539 51.7892C97.9539 77.6492 76.9839 98.6192 51.1239 98.6192C25.2639 98.6192 4.29395 77.6492 4.29395 51.7892C4.29395 25.9292 25.2539 4.95923 51.1239 4.95923Z" fill="url(#paint9_linear_1272_1471)"/>
<defs>
<filter id="filter0_bd_1272_1471" x="5.87508" y="24.9227" width="89.763" height="75.6378" filterUnits="userSpaceOnUse" color-interpolation-filters="sRGB">
<feFlood flood-opacity="0" result="BackgroundImageFix"/>
<feGaussianBlur in="BackgroundImageFix" stdDeviation="1.5"/>
<feComposite in2="SourceAlpha" operator="in" result="effect1_backgroundBlur_1272_1471"/>
<feColorMatrix in="SourceAlpha" type="matrix" values="0 0 0 0 0 0 0 0 0 0 0 0 0 0 0 0 0 0 127 0" result="hardAlpha"/>
<feOffset dy="10"/>
<feGaussianBlur stdDeviation="7.0837"/>
<feComposite in2="hardAlpha" operator="out"/>
<feColorMatrix type="matrix" values="0 0 0 0 0 0 0 0 0 0 0 0 0 0 0 0 0 0 0.15 0"/>
<feBlend mode="normal" in2="effect1_backgroundBlur_1272_1471" result="effect2_dropShadow_1272_1471"/>
<feBlend mode="normal" in="SourceGraphic" in2="effect2_dropShadow_1272_1471" result="shape"/>
</filter>
<filter id="filter1_d_1272_1471" x="26.9165" y="34.887" width="34.0127" height="42.9915" filterUnits="userSpaceOnUse" color-interpolation-filters="sRGB">
<feFlood flood-opacity="0" result="BackgroundImageFix"/>
<feColorMatrix in="SourceAlpha" type="matrix" values="0 0 0 0 0 0 0 0 0 0 0 0 0 0 0 0 0 0 127 0" result="hardAlpha"/>
<feOffset dy="1"/>
<feGaussianBlur stdDeviation="2"/>
<feComposite in2="hardAlpha" operator="out"/>
<feColorMatrix type="matrix" values="0 0 0 0 0 0 0 0 0 0 0 0 0 0 0 0 0 0 0.25 0"/>
<feBlend mode="normal" in2="BackgroundImageFix" result="effect1_dropShadow_1272_1471"/>
<feBlend mode="normal" in="SourceGraphic" in2="effect1_dropShadow_1272_1471" result="shape"/>
</filter>
<filter id="filter2_bd_1272_1471" x="49.0338" y="34.4386" width="48.9671" height="63.1345" filterUnits="userSpaceOnUse" color-interpolation-filters="sRGB">
<feFlood flood-opacity="0" result="BackgroundImageFix"/>
<feGaussianBlur in="BackgroundImageFix" stdDeviation="7.0837"/>
<feComposite in2="SourceAlpha" operator="in" result="effect1_backgroundBlur_1272_1471"/>
<feColorMatrix in="SourceAlpha" type="matrix" values="0 0 0 0 0 0 0 0 0 0 0 0 0 0 0 0 0 0 127 0" result="hardAlpha"/>
<feOffset dy="14.1674"/>
<feGaussianBlur stdDeviation="7.0837"/>
<feComposite in2="hardAlpha" operator="out"/>
<feColorMatrix type="matrix" values="0 0 0 0 0 0 0 0 0 0 0 0 0 0 0 0 0 0 0.25 0"/>
<feBlend mode="normal" in2="effect1_backgroundBlur_1272_1471" result="effect2_dropShadow_1272_1471"/>
<feBlend mode="normal" in="SourceGraphic" in2="effect2_dropShadow_1272_1471" result="shape"/>
</filter>
<filter id="filter3_d_1272_1471" x="21.3442" y="34.887" width="34.0127" height="42.9915" filterUnits="userSpaceOnUse" color-interpolation-filters="sRGB">
<feFlood flood-opacity="0" result="BackgroundImageFix"/>
<feColorMatrix in="SourceAlpha" type="matrix" values="0 0 0 0 0 0 0 0 0 0 0 0 0 0 0 0 0 0 127 0" result="hardAlpha"/>
<feOffset dy="1"/>
<feGaussianBlur stdDeviation="2"/>
<feComposite in2="hardAlpha" operator="out"/>
<feColorMatrix type="matrix" values="0 0 0 0 0 0 0 0 0 0 0 0 0 0 0 0 0 0 0.25 0"/>
<feBlend mode="normal" in2="BackgroundImageFix" result="effect1_dropShadow_1272_1471"/>
<feBlend mode="normal" in="SourceGraphic" in2="effect1_dropShadow_1272_1471" result="shape"/>
</filter>
<linearGradient id="paint0_linear_1272_1471" x1="19.2573" y1="13.6792" x2="77.0517" y2="148.318" gradientUnits="userSpaceOnUse">
<stop offset="0.192708" stop-color="white"/>
<stop offset="1" stop-color="#D0C1F7"/>
</linearGradient>
<linearGradient id="paint1_linear_1272_1471" x1="63.1253" y1="52.2705" x2="64.5469" y2="66.5361" gradientUnits="userSpaceOnUse">
<stop stop-color="#433FA9"/>
<stop offset="1" stop-color="#3D3697"/>
</linearGradient>
<linearGradient id="paint2_linear_1272_1471" x1="54.9016" y1="50.9701" x2="62.9548" y2="58.2462" gradientUnits="userSpaceOnUse">
<stop stop-color="#7E70D3"/>
<stop offset="1" stop-color="#685AD3"/>
</linearGradient>
<linearGradient id="paint3_linear_1272_1471" x1="50.484" y1="42.1292" x2="50.484" y2="67.7736" gradientUnits="userSpaceOnUse">
<stop stop-color="#B2A1EC"/>
<stop offset="1" stop-color="#9889E3"/>
</linearGradient>
<linearGradient id="paint4_linear_1272_1471" x1="40.994" y1="46.124" x2="49.1564" y2="54.7233" gradientUnits="userSpaceOnUse">
<stop stop-color="#D4C6FA"/>
<stop offset="0.97" stop-color="#C7B7F6"/>
</linearGradient>
<linearGradient id="paint5_linear_1272_1471" x1="73.4965" y1="58.1512" x2="73.8429" y2="62.8265" gradientUnits="userSpaceOnUse">
<stop stop-color="#433FA9"/>
<stop offset="1" stop-color="#3D3697"/>
</linearGradient>
<linearGradient id="paint6_linear_1272_1471" x1="36.1562" y1="42.8959" x2="35.1036" y2="46.1417" gradientUnits="userSpaceOnUse">
<stop stop-color="#D4C6FA"/>
<stop offset="0.97" stop-color="#C7B7F6"/>
</linearGradient>
<linearGradient id="paint7_linear_1272_1471" x1="37.9827" y1="43.6179" x2="39.1014" y2="53.3139" gradientUnits="userSpaceOnUse">
<stop stop-color="#B2A1EC"/>
<stop offset="1" stop-color="#9889E3"/>
</linearGradient>
<linearGradient id="paint8_linear_1272_1471" x1="36.9711" y1="59.3745" x2="37.2451" y2="69.9189" gradientUnits="userSpaceOnUse">
<stop stop-color="#7E70D3"/>
<stop offset="1" stop-color="#685AD3"/>
</linearGradient>
<linearGradient id="paint9_linear_1272_1471" x1="3.68513" y1="-1.17367" x2="67.4111" y2="121.109" gradientUnits="userSpaceOnUse">
<stop stop-color="#9A89E6"/>
<stop offset="0.421875" stop-color="#6F61D3"/>
<stop offset="0.786458" stop-color="#403CAE"/>
</linearGradient>
</defs>
</svg>
