<svg width="103" height="102" viewBox="0 0 103 102" fill="none" xmlns="http://www.w3.org/2000/svg">
<g clip-path="url(#clip0_1563_1714)">
<path d="M51.0893 97.8099C25.2393 97.8099 4.2793 76.8599 4.2793 50.9999C4.2793 25.1399 25.2393 4.18994 51.0893 4.18994C76.9393 4.18994 97.8993 25.1499 97.8993 50.9999C97.8993 76.8499 76.9393 97.8099 51.0893 97.8099Z" fill="url(#paint0_linear_1563_1714)"/>
<path fill-rule="evenodd" clip-rule="evenodd" d="M96.9893 51.0001C96.9893 76.3501 76.4393 96.9001 51.0893 96.9001C25.7393 96.9001 5.18934 76.3501 5.18934 51.0001C5.18934 25.6501 25.7393 5.10011 51.0893 5.10011C76.4393 5.10011 96.9893 25.6501 96.9893 51.0001ZM51.0893 1.36011C78.5093 1.36011 100.729 23.5801 100.729 51.0001C100.729 78.4201 78.4993 100.64 51.0893 100.64C23.6693 100.64 1.44934 78.4101 1.44934 51.0001C1.44934 23.5801 23.6693 1.36011 51.0893 1.36011Z" fill="#F2F1F0"/>
<path fill-rule="evenodd" clip-rule="evenodd" d="M94.1794 50.9999C94.1794 74.7999 74.8894 94.0899 51.0894 94.0899C27.2894 94.0899 7.9994 74.7999 7.9994 50.9999C7.9994 27.1999 27.2894 7.90993 51.0894 7.90993C74.8894 7.90993 94.1794 27.1999 94.1794 50.9999ZM51.0894 4.16992C76.9494 4.16992 97.9194 25.1399 97.9194 50.9999C97.9194 76.8599 76.9494 97.8299 51.0894 97.8299C25.2294 97.8299 4.2594 76.8599 4.2594 50.9999C4.2594 25.1399 25.2194 4.16992 51.0894 4.16992Z" fill="url(#paint1_linear_1563_1714)"/>
<path d="M80.4917 42.7207L82.3847 40.769V35.665H76.4478V40.7363L78.3408 42.6881H78.373V53.239H76.48V65.4476C76.48 67.1135 77.8092 68.461 79.4525 68.461C81.0958 68.461 82.425 67.1135 82.425 65.4476V53.2471H80.4756L80.4917 42.7207Z" fill="url(#paint2_linear_1563_1714)"/>
<path d="M68.9806 61.0949V44.9256C70.8495 44.207 72.1787 42.4022 72.1787 40.279C72.1787 38.2456 70.9623 36.4653 69.2062 35.7222V40.8833H65.3314V35.7222C63.5753 36.4653 62.3589 38.2129 62.3589 40.279C62.3589 42.4022 63.6881 44.2315 65.557 44.9256V61.0623C64.3164 61.6911 63.4383 63.014 63.4383 64.5329C63.4383 66.6807 65.1622 68.4038 67.2567 68.4038C69.3753 68.4038 71.0751 66.6562 71.0751 64.5329C71.0992 63.014 70.2534 61.7237 68.9806 61.0949ZM67.2889 65.8804C66.5559 65.8804 65.992 65.2761 65.992 64.5656C65.992 63.8225 66.5881 63.2508 67.2889 63.2508C67.9978 63.2508 68.5859 63.8551 68.5859 64.5656C68.5859 65.2761 67.9898 65.8804 67.2889 65.8804Z" fill="url(#paint3_linear_1563_1714)"/>
<path d="M57.7802 59.0732L38.6891 73.389C38.1968 73.7584 37.5968 73.956 36.9814 73.9517C36.3659 73.9473 35.7689 73.7411 35.2819 73.3647L21.5291 62.7283C21.2699 62.5277 21.0605 62.2701 20.917 61.9755C20.7734 61.6809 20.6997 61.3571 20.7016 61.0294C20.7034 60.7017 20.7807 60.3789 20.9275 60.0859C21.0743 59.7929 21.2866 59.5376 21.5479 59.3399L42.4303 43.5159L57.7829 55.0546C58.095 55.2886 58.3482 55.5921 58.5225 55.941C58.6968 56.2899 58.7874 56.6746 58.7871 57.0647C58.7869 57.4547 58.6957 57.8392 58.521 58.1879C58.3462 58.5365 58.0926 58.8397 57.7802 59.0732V59.0732Z" fill="url(#paint4_linear_1563_1714)"/>
<path d="M57.766 59.0679L45.562 68.1421C44.9931 68.5662 44.3026 68.7953 43.5931 68.7953C42.8835 68.7953 42.193 68.5662 41.6242 68.1421L25.687 56.2074L42.4807 43.5159L57.7795 55.0465C58.0909 55.2817 58.3433 55.5861 58.5167 55.9357C58.69 56.2852 58.7796 56.6704 58.7783 57.0606C58.777 57.4508 58.6848 57.8353 58.5091 58.1837C58.3334 58.5321 58.079 58.8349 57.766 59.0679V59.0679Z" fill="url(#paint5_linear_1563_1714)"/>
<g filter="url(#filter0_d_1563_1714)">
<path d="M52.1231 44.8409L35.6824 57.3322C33.1898 59.226 29.743 59.2347 27.2409 57.3535L15.8288 48.7733C15.5823 48.5878 15.3823 48.3476 15.2446 48.0716C15.1069 47.7956 15.0352 47.4914 15.0352 47.1829C15.0352 46.8744 15.1069 46.5701 15.2446 46.2941C15.3823 46.0181 15.5823 45.7779 15.8288 45.5924L35.72 30.5845C36.0684 30.3211 36.4926 30.1773 36.9293 30.1744C37.3661 30.1714 37.7921 30.3096 38.1441 30.5683L52.0961 40.8169C52.4109 41.0485 52.6673 41.3503 52.8448 41.6985C53.0224 42.0466 53.1162 42.4314 53.1188 42.8221C53.1214 43.2129 53.0328 43.5989 52.8599 43.9494C52.687 44.2998 52.4347 44.6051 52.1231 44.8409Z" fill="url(#paint6_linear_1563_1714)"/>
</g>
<path d="M48.2356 47.7563L33.2223 59.1981C32.7167 59.5815 32.0995 59.789 31.4649 59.789C30.8303 59.789 30.2131 59.5815 29.7074 59.1981L15.828 48.7637C15.582 48.5779 15.3825 48.3375 15.2451 48.0615C15.1077 47.7855 15.0361 47.4815 15.0361 47.1732C15.0361 46.8649 15.1077 46.5608 15.2451 46.2848C15.3825 46.0088 15.582 45.7685 15.828 45.5827L30.3727 34.6177L48.2356 47.7563Z" fill="url(#paint7_linear_1563_1714)"/>
</g>
<defs>
<filter id="filter0_d_1563_1714" x="11.0352" y="27.1743" width="46.0837" height="36.5842" filterUnits="userSpaceOnUse" color-interpolation-filters="sRGB">
<feFlood flood-opacity="0" result="BackgroundImageFix"/>
<feColorMatrix in="SourceAlpha" type="matrix" values="0 0 0 0 0 0 0 0 0 0 0 0 0 0 0 0 0 0 127 0" result="hardAlpha"/>
<feOffset dy="1"/>
<feGaussianBlur stdDeviation="2"/>
<feComposite in2="hardAlpha" operator="out"/>
<feColorMatrix type="matrix" values="0 0 0 0 0 0 0 0 0 0 0 0 0 0 0 0 0 0 0.25 0"/>
<feBlend mode="normal" in2="BackgroundImageFix" result="effect1_dropShadow_1563_1714"/>
<feBlend mode="normal" in="SourceGraphic" in2="effect1_dropShadow_1563_1714" result="shape"/>
</filter>
<linearGradient id="paint0_linear_1563_1714" x1="19.2227" y1="12.8899" x2="77.0171" y2="147.529" gradientUnits="userSpaceOnUse">
<stop offset="0.192708" stop-color="white"/>
<stop offset="1" stop-color="#D0C1F7"/>
</linearGradient>
<linearGradient id="paint1_linear_1563_1714" x1="3.65059" y1="-1.96298" x2="67.3765" y2="120.319" gradientUnits="userSpaceOnUse">
<stop stop-color="#9A89E6"/>
<stop offset="0.421875" stop-color="#6F61D3"/>
<stop offset="0.786458" stop-color="#403CAE"/>
</linearGradient>
<linearGradient id="paint2_linear_1563_1714" x1="76.4089" y1="33.5175" x2="97.1364" y2="38.8795" gradientUnits="userSpaceOnUse">
<stop stop-color="#9A89E6"/>
<stop offset="0.421875" stop-color="#6F61D3"/>
<stop offset="0.786458" stop-color="#403CAE"/>
</linearGradient>
<linearGradient id="paint3_linear_1563_1714" x1="62.2951" y1="33.5822" x2="94.7038" y2="49.8158" gradientUnits="userSpaceOnUse">
<stop stop-color="#9A89E6"/>
<stop offset="0.421875" stop-color="#6F61D3"/>
<stop offset="0.786458" stop-color="#403CAE"/>
</linearGradient>
<linearGradient id="paint4_linear_1563_1714" x1="37.0488" y1="54.8957" x2="43.513" y2="64.7268" gradientUnits="userSpaceOnUse">
<stop stop-color="#7E70D3"/>
<stop offset="1" stop-color="#685AD3"/>
</linearGradient>
<linearGradient id="paint5_linear_1563_1714" x1="42.082" y1="53.9072" x2="42.6692" y2="64.2824" gradientUnits="userSpaceOnUse">
<stop stop-color="#433FA9"/>
<stop offset="1" stop-color="#3D3697"/>
</linearGradient>
<linearGradient id="paint6_linear_1563_1714" x1="29.789" y1="37.3208" x2="35.8493" y2="48.0946" gradientUnits="userSpaceOnUse">
<stop stop-color="#D4C6FA"/>
<stop offset="0.97" stop-color="#C7B7F6"/>
</linearGradient>
<linearGradient id="paint7_linear_1563_1714" x1="31.6359" y1="37.6694" x2="31.6359" y2="56.1168" gradientUnits="userSpaceOnUse">
<stop stop-color="#B2A1EC"/>
<stop offset="1" stop-color="#9889E3"/>
</linearGradient>
<clipPath id="clip0_1563_1714">
<rect width="102" height="102" fill="white" transform="translate(0.0893555)"/>
</clipPath>
</defs>
</svg>
