<svg width="103" height="102" viewBox="0 0 103 102" fill="none" xmlns="http://www.w3.org/2000/svg">
<g clip-path="url(#clip0_1549_14207)">
<path d="M51.0893 97.8099C25.2393 97.8099 4.2793 76.8599 4.2793 50.9999C4.2793 25.1399 25.2393 4.18994 51.0893 4.18994C76.9393 4.18994 97.8993 25.1499 97.8993 50.9999C97.8993 76.8499 76.9393 97.8099 51.0893 97.8099Z" fill="url(#paint0_linear_1549_14207)"/>
<path fill-rule="evenodd" clip-rule="evenodd" d="M96.9893 51.0004C96.9893 76.3504 76.4393 96.9003 51.0893 96.9003C25.7393 96.9003 5.18934 76.3504 5.18934 51.0004C5.18934 25.6504 25.7393 5.10036 51.0893 5.10036C76.4393 5.10036 96.9893 25.6504 96.9893 51.0004ZM51.0893 1.36035C78.5093 1.36035 100.729 23.5804 100.729 51.0004C100.729 78.4204 78.4993 100.64 51.0893 100.64C23.6693 100.64 1.44934 78.4104 1.44934 51.0004C1.44934 23.5804 23.6693 1.36035 51.0893 1.36035Z" fill="#F2F1F0"/>
<path fill-rule="evenodd" clip-rule="evenodd" d="M94.1794 50.9999C94.1794 74.7999 74.8894 94.0899 51.0894 94.0899C27.2894 94.0899 7.9994 74.7999 7.9994 50.9999C7.9994 27.1999 27.2894 7.90993 51.0894 7.90993C74.8894 7.90993 94.1794 27.1999 94.1794 50.9999ZM51.0894 4.16992C76.9494 4.16992 97.9194 25.1399 97.9194 50.9999C97.9194 76.8599 76.9494 97.8299 51.0894 97.8299C25.2294 97.8299 4.2594 76.8599 4.2594 50.9999C4.2594 25.1399 25.2194 4.16992 51.0894 4.16992Z" fill="url(#paint1_linear_1549_14207)"/>
<path d="M77.7397 59.4099H77.5284C77.1271 59.4099 76.7891 59.0739 76.7891 58.6749C76.7891 58.4229 76.9158 58.1919 77.1271 58.0659C77.465 57.5409 78.479 57.8139 78.479 58.4649V58.6749C78.5001 59.0949 78.1621 59.4099 77.7397 59.4099Z" fill="#695BD4"/>
<path d="M74.1262 59.4104H73.7038C73.3024 59.4104 72.9644 59.0744 72.9644 58.6754C72.9644 58.2764 73.3024 57.9404 73.7038 57.9404H74.1262C74.5276 57.9404 74.8656 58.2764 74.8656 58.6754C74.8656 59.0744 74.5487 59.4104 74.1262 59.4104ZM70.3027 59.4104H69.8802C69.4789 59.4104 69.1409 59.0744 69.1409 58.6754C69.1409 58.2764 69.4789 57.9404 69.8802 57.9404H70.3027C70.7041 57.9404 71.0421 58.2764 71.0421 58.6754C71.0421 59.0744 70.7252 59.4104 70.3027 59.4104ZM66.4792 59.4104H66.0567C65.6554 59.4104 65.3174 59.0744 65.3174 58.6754C65.3174 58.2764 65.6554 57.9404 66.0567 57.9404H66.4792C66.8806 57.9404 67.2186 58.2764 67.2186 58.6754C67.2186 59.0744 66.8806 59.4104 66.4792 59.4104ZM62.6557 59.4104H62.2332C61.8319 59.4104 61.4939 59.0744 61.4939 58.6754C61.4939 58.2764 61.8319 57.9404 62.2332 57.9404H62.6557C63.0571 57.9404 63.3951 58.2764 63.3951 58.6754C63.3951 59.0744 63.0571 59.4104 62.6557 59.4104ZM58.8322 59.4104H58.4097C58.0084 59.4104 57.6704 59.0744 57.6704 58.6754C57.6704 58.2764 58.0084 57.9404 58.4097 57.9404H58.8322C59.2336 57.9404 59.5716 58.2764 59.5716 58.6754C59.5716 59.0744 59.2336 59.4104 58.8322 59.4104ZM54.9876 59.4104H54.5651C54.1637 59.4104 53.8257 59.0744 53.8257 58.6754C53.8257 58.2764 54.1637 57.9404 54.5651 57.9404H54.9876C55.3889 57.9404 55.7269 58.2764 55.7269 58.6754C55.7269 59.0744 55.4101 59.4104 54.9876 59.4104ZM51.1641 59.4104H50.7416C50.3402 59.4104 50.0022 59.0744 50.0022 58.6754C50.0022 58.2764 50.3402 57.9404 50.7416 57.9404H51.1641C51.5654 57.9404 51.9034 58.2764 51.9034 58.6754C51.9034 59.0744 51.5654 59.4104 51.1641 59.4104ZM47.3406 59.4104H46.9181C46.5167 59.4104 46.1787 59.0744 46.1787 58.6754C46.1787 58.2764 46.5167 57.9404 46.9181 57.9404H47.3406C47.7419 57.9404 48.0799 58.2764 48.0799 58.6754C48.0799 59.0744 47.7419 59.4104 47.3406 59.4104ZM43.517 59.4104H43.0946C42.6932 59.4104 42.3552 59.0744 42.3552 58.6754C42.3552 58.2764 42.6932 57.9404 43.0946 57.9404H43.517C43.9184 57.9404 44.2564 58.2764 44.2564 58.6754C44.2564 59.0744 43.9184 59.4104 43.517 59.4104ZM39.6724 59.4104H39.2499C38.8486 59.4104 38.5106 59.0744 38.5106 58.6754C38.5106 58.2764 38.8486 57.9404 39.2499 57.9404H39.6724C40.0738 57.9404 40.4118 58.2764 40.4118 58.6754C40.4118 59.0744 40.0949 59.4104 39.6724 59.4104ZM35.8489 59.4104H35.4264C35.0251 59.4104 34.6871 59.0744 34.6871 58.6754C34.6871 58.2764 35.0251 57.9404 35.4264 57.9404H35.8489C36.2503 57.9404 36.5883 58.2764 36.5883 58.6754C36.5883 59.0744 36.2503 59.4104 35.8489 59.4104ZM32.0254 59.4104H31.6029C31.2015 59.4104 30.8636 59.0744 30.8636 58.6754C30.8636 58.2764 31.2015 57.9404 31.6029 57.9404H32.0254C32.4268 57.9404 32.7647 58.2764 32.7647 58.6754C32.7647 59.0744 32.4268 59.4104 32.0254 59.4104ZM28.2019 59.4104H27.7794C27.378 59.4104 27.04 59.0744 27.04 58.6754C27.04 58.2764 27.378 57.9404 27.7794 57.9404H28.2019C28.6032 57.9404 28.9412 58.2764 28.9412 58.6754C28.9412 59.0744 28.6032 59.4104 28.2019 59.4104Z" fill="#3F389C"/>
<path d="M24.3578 59.4103H24.1466C23.7452 59.4103 23.4072 59.0743 23.4072 58.6754V58.4654C23.4072 57.7934 24.4212 57.5414 24.7592 58.0664C24.9493 58.1924 25.0972 58.4234 25.0972 58.6754C25.1183 59.0953 24.7803 59.4103 24.3578 59.4103Z" fill="#695BD4"/>
<path d="M24.1466 55.7363C23.7452 55.7363 23.4072 55.4003 23.4072 55.0014V54.5604C23.4072 54.1614 23.7452 53.8254 24.1466 53.8254C24.5479 53.8254 24.8859 54.1614 24.8859 54.5604V55.0014C24.8859 55.4003 24.5691 55.7363 24.1466 55.7363ZM24.1466 51.8305C23.7452 51.8305 23.4072 51.4945 23.4072 51.0955V50.6545C23.4072 50.2555 23.7452 49.9195 24.1466 49.9195C24.5479 49.9195 24.8859 50.2555 24.8859 50.6545V51.0955C24.8859 51.4945 24.5691 51.8305 24.1466 51.8305ZM24.1466 47.9246C23.7452 47.9246 23.4072 47.5886 23.4072 47.1896V46.7486C23.4072 46.3497 23.7452 46.0137 24.1466 46.0137C24.5479 46.0137 24.8859 46.3497 24.8859 46.7486V47.1896C24.8859 47.6096 24.5691 47.9246 24.1466 47.9246ZM24.1466 44.0187C23.7452 44.0187 23.4072 43.6828 23.4072 43.2838V42.8428C23.4072 42.4438 23.7452 42.1078 24.1466 42.1078C24.5479 42.1078 24.8859 42.4438 24.8859 42.8428V43.2838C24.8859 43.7038 24.5691 44.0187 24.1466 44.0187ZM24.1466 40.1129C23.7452 40.1129 23.4072 39.7769 23.4072 39.3779V38.9369C23.4072 38.5379 23.7452 38.202 24.1466 38.202C24.5479 38.202 24.8859 38.5379 24.8859 38.9369V39.3779C24.8859 39.7979 24.5691 40.1129 24.1466 40.1129ZM24.1466 36.207C23.7452 36.207 23.4072 35.871 23.4072 35.4721V35.0311C23.4072 34.6321 23.7452 34.2961 24.1466 34.2961C24.5479 34.2961 24.8859 34.6321 24.8859 35.0311V35.4721C24.8859 35.892 24.5691 36.207 24.1466 36.207ZM24.1466 32.3222C23.7452 32.3222 23.4072 31.9862 23.4072 31.5872V31.1462C23.4072 30.7472 23.7452 30.4112 24.1466 30.4112C24.5479 30.4112 24.8859 30.7472 24.8859 31.1462V31.5872C24.8859 31.9862 24.5691 32.3222 24.1466 32.3222ZM24.1466 28.4163C23.7452 28.4163 23.4072 28.0803 23.4072 27.6813V27.2403C23.4072 26.8414 23.7452 26.5054 24.1466 26.5054C24.5479 26.5054 24.8859 26.8414 24.8859 27.2403V27.6813C24.8859 28.0803 24.5691 28.4163 24.1466 28.4163Z" fill="#3F389C"/>
<path d="M24.1466 24.51C23.7452 24.51 23.4072 24.174 23.4072 23.775V23.565C23.4072 23.1661 23.7452 22.8301 24.1466 22.8301H24.3578C24.7592 22.8301 25.0972 23.1661 25.0972 23.565C25.0972 23.817 24.9704 24.048 24.7592 24.174C24.6536 24.384 24.4212 24.51 24.1466 24.51Z" fill="#695BD4"/>
<path d="M74.1262 24.3H73.7038C73.3024 24.3 72.9644 23.964 72.9644 23.565C72.9644 23.1661 73.3024 22.8301 73.7038 22.8301H74.1262C74.5276 22.8301 74.8656 23.1661 74.8656 23.565C74.8656 23.964 74.5487 24.3 74.1262 24.3ZM70.3027 24.3H69.8802C69.4789 24.3 69.1409 23.964 69.1409 23.565C69.1409 23.1661 69.4789 22.8301 69.8802 22.8301H70.3027C70.7041 22.8301 71.0421 23.1661 71.0421 23.565C71.0421 23.964 70.7252 24.3 70.3027 24.3ZM66.4792 24.3H66.0567C65.6554 24.3 65.3174 23.964 65.3174 23.565C65.3174 23.1661 65.6554 22.8301 66.0567 22.8301H66.4792C66.8806 22.8301 67.2186 23.1661 67.2186 23.565C67.2186 23.964 66.8806 24.3 66.4792 24.3ZM62.6557 24.3H62.2332C61.8319 24.3 61.4939 23.964 61.4939 23.565C61.4939 23.1661 61.8319 22.8301 62.2332 22.8301H62.6557C63.0571 22.8301 63.3951 23.1661 63.3951 23.565C63.3951 23.964 63.0571 24.3 62.6557 24.3ZM58.8322 24.3H58.4097C58.0084 24.3 57.6704 23.964 57.6704 23.565C57.6704 23.1661 58.0084 22.8301 58.4097 22.8301H58.8322C59.2336 22.8301 59.5716 23.1661 59.5716 23.565C59.5716 23.964 59.2336 24.3 58.8322 24.3ZM54.9876 24.3H54.5651C54.1637 24.3 53.8257 23.964 53.8257 23.565C53.8257 23.1661 54.1637 22.8301 54.5651 22.8301H54.9876C55.3889 22.8301 55.7269 23.1661 55.7269 23.565C55.7269 23.964 55.4101 24.3 54.9876 24.3ZM51.1641 24.3H50.7416C50.3402 24.3 50.0022 23.964 50.0022 23.565C50.0022 23.1661 50.3402 22.8301 50.7416 22.8301H51.1641C51.5654 22.8301 51.9034 23.1661 51.9034 23.565C51.9034 23.964 51.5654 24.3 51.1641 24.3ZM47.3406 24.3H46.9181C46.5167 24.3 46.1787 23.964 46.1787 23.565C46.1787 23.1661 46.5167 22.8301 46.9181 22.8301H47.3406C47.7419 22.8301 48.0799 23.1661 48.0799 23.565C48.0799 23.964 47.7419 24.3 47.3406 24.3ZM43.517 24.3H43.0946C42.6932 24.3 42.3552 23.964 42.3552 23.565C42.3552 23.1661 42.6932 22.8301 43.0946 22.8301H43.517C43.9184 22.8301 44.2564 23.1661 44.2564 23.565C44.2564 23.964 43.9184 24.3 43.517 24.3ZM39.6724 24.3H39.2499C38.8486 24.3 38.5106 23.964 38.5106 23.565C38.5106 23.1661 38.8486 22.8301 39.2499 22.8301H39.6724C40.0738 22.8301 40.4118 23.1661 40.4118 23.565C40.4118 23.964 40.0949 24.3 39.6724 24.3ZM35.8489 24.3H35.4264C35.0251 24.3 34.6871 23.964 34.6871 23.565C34.6871 23.1661 35.0251 22.8301 35.4264 22.8301H35.8489C36.2503 22.8301 36.5883 23.1661 36.5883 23.565C36.5883 23.964 36.2714 24.3 35.8489 24.3ZM32.0254 24.3H31.6029C31.2015 24.3 30.8636 23.964 30.8636 23.565C30.8636 23.1661 31.2015 22.8301 31.6029 22.8301H32.0254C32.4268 22.8301 32.7647 23.1661 32.7647 23.565C32.7647 23.964 32.4268 24.3 32.0254 24.3ZM28.2019 24.3H27.7794C27.378 24.3 27.04 23.964 27.04 23.565C27.04 23.1661 27.378 22.8301 27.7794 22.8301H28.2019C28.6032 22.8301 28.9412 23.1661 28.9412 23.565C28.9412 23.964 28.6032 24.3 28.2019 24.3Z" fill="#3F389C"/>
<path d="M77.7397 24.51C77.4862 24.51 77.2538 24.384 77.1271 24.174C76.9369 24.048 76.7891 23.817 76.7891 23.565C76.7891 23.1661 77.1271 22.8301 77.5284 22.8301H77.7397C78.141 22.8301 78.479 23.1661 78.479 23.565V23.775C78.5001 24.174 78.1621 24.51 77.7397 24.51Z" fill="#695BD4"/>
<path d="M77.7395 55.7363C77.3381 55.7363 77.0001 55.4003 77.0001 55.0014V54.5604C77.0001 54.1614 77.3381 53.8254 77.7395 53.8254C78.1408 53.8254 78.4788 54.1614 78.4788 54.5604V55.0014C78.4999 55.4003 78.162 55.7363 77.7395 55.7363ZM77.7395 51.8305C77.3381 51.8305 77.0001 51.4945 77.0001 51.0955V50.6545C77.0001 50.2555 77.3381 49.9195 77.7395 49.9195C78.1408 49.9195 78.4788 50.2555 78.4788 50.6545V51.0955C78.4999 51.5155 78.162 51.8305 77.7395 51.8305ZM77.7395 47.9246C77.3381 47.9246 77.0001 47.5886 77.0001 47.1896V46.7486C77.0001 46.3497 77.3381 46.0137 77.7395 46.0137C78.1408 46.0137 78.4788 46.3497 78.4788 46.7486V47.1896C78.4999 47.6096 78.162 47.9246 77.7395 47.9246ZM77.7395 44.0187C77.3381 44.0187 77.0001 43.6828 77.0001 43.2838V42.8428C77.0001 42.4438 77.3381 42.1078 77.7395 42.1078C78.1408 42.1078 78.4788 42.4438 78.4788 42.8428V43.2838C78.4999 43.7038 78.162 44.0187 77.7395 44.0187ZM77.7395 40.1129C77.3381 40.1129 77.0001 39.7769 77.0001 39.3779V38.9369C77.0001 38.5379 77.3381 38.202 77.7395 38.202C78.1408 38.202 78.4788 38.5379 78.4788 38.9369V39.3779C78.4999 39.7979 78.162 40.1129 77.7395 40.1129ZM77.7395 36.207C77.3381 36.207 77.0001 35.871 77.0001 35.4721V35.0311C77.0001 34.6321 77.3381 34.2961 77.7395 34.2961C78.1408 34.2961 78.4788 34.6321 78.4788 35.0311V35.4721C78.4999 35.892 78.162 36.207 77.7395 36.207ZM77.7395 32.3222C77.3381 32.3222 77.0001 31.9862 77.0001 31.5872V31.1462C77.0001 30.7472 77.3381 30.4112 77.7395 30.4112C78.1408 30.4112 78.4788 30.7472 78.4788 31.1462V31.5872C78.4999 31.9862 78.162 32.3222 77.7395 32.3222ZM77.7395 28.4163C77.3381 28.4163 77.0001 28.0803 77.0001 27.6813V27.2403C77.0001 26.8414 77.3381 26.5054 77.7395 26.5054C78.1408 26.5054 78.4788 26.8414 78.4788 27.2403V27.6813C78.4999 28.0803 78.162 28.4163 77.7395 28.4163Z" fill="#403A9E"/>
<circle cx="45.3164" cy="44.3505" r="9.70887" fill="url(#paint2_linear_1549_14207)"/>
<path d="M73.7456 54.4992H29.2924C30.1793 49.8668 32.2326 44.6045 36.7836 44.6423C43.4978 44.6981 42.9875 49.5016 46.6344 49.403C50.2814 49.3045 50.7799 46.5151 52.357 41.1925C53.9341 35.8699 55.6989 33.6329 60.3408 33.6027C65.3797 33.57 68.4299 37.5189 69.7019 41.7026C70.7249 45.0673 72.5957 51.5421 73.7456 54.4992Z" fill="url(#paint3_linear_1549_14207)"/>
<circle cx="50.1601" cy="73.4472" r="1.78415" fill="#9767FF"/>
<circle cx="56.6921" cy="73.4472" r="1.78415" fill="#AA85FE"/>
<circle cx="62.8615" cy="73.4472" r="1.78415" fill="#B391FD"/>
<circle cx="69.5143" cy="73.4472" r="1.78415" fill="#D1C3FA"/>
<circle cx="50.1601" cy="79.979" r="1.78415" fill="#242069"/>
<circle cx="56.6921" cy="79.979" r="1.78415" fill="#231E68"/>
<circle cx="62.8615" cy="79.979" r="1.78415" fill="#4038BC"/>
<circle cx="69.5143" cy="79.979" r="1.78415" fill="#A9A7CB"/>
<circle cx="50.1601" cy="67.1567" r="1.78415" fill="#9768FF"/>
<circle cx="56.6921" cy="67.1567" r="1.78415" fill="#6862CB"/>
<circle cx="62.8615" cy="67.1567" r="1.78415" fill="#9A95DB"/>
<circle cx="69.5143" cy="67.1567" r="1.78415" fill="#BDBAE8"/>
<circle cx="76.1418" cy="73.4472" r="1.78415" fill="#E2D8FF"/>
<circle cx="76.1418" cy="79.979" r="1.78415" fill="#D1CFF1"/>
<circle cx="76.1417" cy="67.1567" r="1.78415" fill="#DFD5FF"/>
<path d="M33.0098 63.8008C27.6208 63.8008 23.2427 68.1789 23.2427 73.5679C23.2427 78.9569 27.6208 83.335 33.0098 83.335C38.3987 83.335 42.7769 78.9569 42.7769 73.5679C42.7769 68.1789 38.4114 63.8008 33.0098 63.8008ZM33.0098 78.1293C30.4953 78.1293 28.4484 76.0887 28.4484 73.5679C28.4484 71.0472 30.5016 69.0066 33.0098 69.0066C35.5179 69.0066 37.5711 71.0472 37.5711 73.5679C37.5711 76.0887 35.5242 78.1293 33.0098 78.1293Z" fill="url(#paint4_linear_1549_14207)"/>
<g filter="url(#filter0_d_1549_14207)">
<path d="M32.8375 69.0132L32.8122 63.8135C29.3817 63.8261 26.4339 65.6497 24.7029 68.3411L29.0239 71.3462C29.7947 69.9942 31.2352 69.0132 32.8375 69.0132Z" fill="url(#paint5_linear_1549_14207)"/>
</g>
<path d="M28.4925 73.3851C28.4925 72.5575 28.6088 72.178 29.1768 71.0926L24.8881 68.061L24.8075 68.1605C23.8409 69.6704 23.2402 71.3734 23.2402 73.3066C23.2402 74.7407 23.4619 76.1874 24.0305 77.413L28.794 75.3093C28.5287 74.728 28.4925 74.0737 28.4925 73.3851Z" fill="url(#paint6_linear_1549_14207)"/>
</g>
<defs>
<filter id="filter0_d_1549_14207" x="20.7029" y="60.8135" width="16.1346" height="15.5327" filterUnits="userSpaceOnUse" color-interpolation-filters="sRGB">
<feFlood flood-opacity="0" result="BackgroundImageFix"/>
<feColorMatrix in="SourceAlpha" type="matrix" values="0 0 0 0 0 0 0 0 0 0 0 0 0 0 0 0 0 0 127 0" result="hardAlpha"/>
<feOffset dy="1"/>
<feGaussianBlur stdDeviation="2"/>
<feComposite in2="hardAlpha" operator="out"/>
<feColorMatrix type="matrix" values="0 0 0 0 0 0 0 0 0 0 0 0 0 0 0 0 0 0 0.25 0"/>
<feBlend mode="normal" in2="BackgroundImageFix" result="effect1_dropShadow_1549_14207"/>
<feBlend mode="normal" in="SourceGraphic" in2="effect1_dropShadow_1549_14207" result="shape"/>
</filter>
<linearGradient id="paint0_linear_1549_14207" x1="19.2227" y1="12.8899" x2="77.0171" y2="147.529" gradientUnits="userSpaceOnUse">
<stop offset="0.192708" stop-color="white"/>
<stop offset="1" stop-color="#D0C1F7"/>
</linearGradient>
<linearGradient id="paint1_linear_1549_14207" x1="3.65059" y1="-1.96298" x2="67.3765" y2="120.319" gradientUnits="userSpaceOnUse">
<stop stop-color="#9A89E6"/>
<stop offset="0.421875" stop-color="#6F61D3"/>
<stop offset="0.786458" stop-color="#403CAE"/>
</linearGradient>
<linearGradient id="paint2_linear_1549_14207" x1="45.3164" y1="34.6416" x2="45.3164" y2="54.0593" gradientUnits="userSpaceOnUse">
<stop stop-color="#CBB3FF"/>
<stop offset="1" stop-color="#E6DDFB"/>
</linearGradient>
<linearGradient id="paint3_linear_1549_14207" x1="66.3953" y1="19.0026" x2="51.519" y2="54.4996" gradientUnits="userSpaceOnUse">
<stop stop-color="#C8B0FE"/>
<stop offset="1" stop-color="#9E71FE"/>
</linearGradient>
<linearGradient id="paint4_linear_1549_14207" x1="39.5469" y1="50.1527" x2="20.1694" y2="71.888" gradientUnits="userSpaceOnUse">
<stop stop-color="#C8B0FE"/>
<stop offset="1" stop-color="#9E71FE"/>
</linearGradient>
<linearGradient id="paint5_linear_1549_14207" x1="27.8101" y1="65.7156" x2="29.4" y2="68.1876" gradientUnits="userSpaceOnUse">
<stop stop-color="#D4C6FA"/>
<stop offset="0.97" stop-color="#C7B7F6"/>
</linearGradient>
<linearGradient id="paint6_linear_1549_14207" x1="26.2085" y1="69.1948" x2="26.2085" y2="76.0487" gradientUnits="userSpaceOnUse">
<stop stop-color="#B2A1EC"/>
<stop offset="1" stop-color="#9889E3"/>
</linearGradient>
<clipPath id="clip0_1549_14207">
<rect width="102" height="102" fill="white" transform="translate(0.0893555)"/>
</clipPath>
</defs>
</svg>
