<svg width="103" height="105" viewBox="0 0 103 105" fill="none" xmlns="http://www.w3.org/2000/svg">
<path d="M51.124 98.6508C25.274 98.6508 4.31396 77.7008 4.31396 51.8408C4.31396 25.9808 25.274 5.03076 51.124 5.03076C76.974 5.03076 97.934 25.9908 97.934 51.8408C97.934 77.6908 76.974 98.6508 51.124 98.6508Z" fill="url(#paint0_linear_1272_1379)"/>
<path fill-rule="evenodd" clip-rule="evenodd" d="M97.0239 51.8412C97.0239 77.1912 76.4739 97.7412 51.1239 97.7412C25.7739 97.7412 5.22389 77.1912 5.22389 51.8412C5.22389 26.4912 25.7739 5.94118 51.1239 5.94118C76.4739 5.94118 97.0239 26.4912 97.0239 51.8412ZM51.1239 2.20117C78.5439 2.20117 100.764 24.4212 100.764 51.8412C100.764 79.2612 78.5339 101.481 51.1239 101.481C23.7039 101.481 1.48389 79.2512 1.48389 51.8412C1.48389 24.4212 23.7039 2.20117 51.1239 2.20117Z" fill="#F2F1F0"/>
<path opacity="0.2" d="M22.0742 76.2749H77.8767C78.1699 76.274 78.4508 76.1572 78.6581 75.9498C78.8654 75.7425 78.9823 75.4616 78.9831 75.1684V31.6016H20.9678V75.1684C20.9686 75.4616 21.0855 75.7425 21.2928 75.9498C21.5001 76.1572 21.781 76.274 22.0742 76.2749Z" fill="#003067"/>
<path d="M22.0743 73.997H77.8767C78.1699 73.9962 78.4508 73.8793 78.6581 73.672C78.8654 73.4647 78.9823 73.1838 78.9831 72.8906V29.3237H20.9678V72.8905C20.9686 73.1837 21.0855 73.4647 21.2928 73.672C21.5002 73.8793 21.7811 73.9962 22.0743 73.997Z" fill="#F2F2F2"/>
<path d="M20.9678 34.1458H78.9831V28.9455C78.9834 28.834 78.9617 28.7235 78.9192 28.6205C78.8766 28.5174 78.8142 28.4238 78.7353 28.345C78.6565 28.2661 78.5629 28.2037 78.4598 28.1611C78.3568 28.1186 78.2463 28.0969 78.1349 28.0972H21.8161C21.7046 28.0969 21.5941 28.1186 21.4911 28.1611C21.388 28.2037 21.2944 28.2661 21.2156 28.345C21.1367 28.4238 21.0743 28.5174 21.0317 28.6205C20.9892 28.7235 20.9675 28.834 20.9678 28.9455V34.1458Z" fill="#092E4C"/>
<path d="M25.4309 32.7163C25.7218 32.7153 26.0058 32.6282 26.2472 32.4658C26.4885 32.3035 26.6763 32.0732 26.7868 31.8041C26.8972 31.535 26.9254 31.2393 26.8678 30.9541C26.8102 30.669 26.6693 30.4074 26.463 30.2024C26.2566 29.9974 25.9941 29.8581 25.7087 29.8023C25.4232 29.7464 25.1276 29.7765 24.8592 29.8886C24.5908 30.0008 24.3617 30.19 24.2009 30.4324C24.0401 30.6747 23.9547 30.9593 23.9556 31.2502C23.954 31.4439 23.9912 31.636 24.0649 31.8152C24.1386 31.9944 24.2473 32.1571 24.3848 32.2937C24.5222 32.4302 24.6855 32.538 24.8652 32.6105C25.0448 32.6831 25.2372 32.719 25.4309 32.7163Z" fill="white"/>
<path d="M20.9678 65.1084H78.9831V72.8902C78.9831 73.1836 78.8666 73.4651 78.6591 73.6726C78.4515 73.8801 78.1701 73.9967 77.8766 73.9967H22.0743C21.7809 73.9967 21.4994 73.8801 21.2919 73.6726C21.0844 73.4651 20.9678 73.1836 20.9678 72.8902V65.1084H20.9678Z" fill="url(#paint1_linear_1272_1379)"/>
<path d="M78.9832 34.146H68.8989V65.1088H78.9832V34.146Z" fill="url(#paint2_linear_1272_1379)"/>
<path d="M73.9679 40.7122C74.9321 40.7122 75.7137 39.9306 75.7137 38.9665C75.7137 38.0023 74.9321 37.2207 73.9679 37.2207C73.0038 37.2207 72.2222 38.0023 72.2222 38.9665C72.2222 39.9306 73.0038 40.7122 73.9679 40.7122Z" fill="#B3B3B3"/>
<path d="M73.9679 46.5105C74.9321 46.5105 75.7137 45.7289 75.7137 44.7648C75.7137 43.8006 74.9321 43.019 73.9679 43.019C73.0038 43.019 72.2222 43.8006 72.2222 44.7648C72.2222 45.7289 73.0038 46.5105 73.9679 46.5105Z" fill="#B3B3B3"/>
<g filter="url(#filter0_d_1272_1379)">
<path d="M44.9333 34.146H20.9678V49.6274H44.9333V34.146Z" fill="url(#paint3_linear_1272_1379)"/>
</g>
<path d="M68.8987 34.146H44.9331V49.6274H68.8987V34.146Z" fill="url(#paint4_linear_1272_1379)"/>
<path d="M44.9333 49.6274H20.9678V65.1088H44.9333V49.6274Z" fill="url(#paint5_linear_1272_1379)"/>
<path d="M68.8987 49.6274H44.9331V65.1088H68.8987V49.6274Z" fill="url(#paint6_linear_1272_1379)"/>
<path d="M68.8989 34.1455H20.9678V65.1083H68.8989V34.1455Z" fill="url(#paint7_linear_1272_1379)"/>
<g filter="url(#filter1_bd_1272_1379)">
<path d="M65.2563 76.5834C71.826 76.5834 77.1518 71.2576 77.1518 64.6879C77.1518 58.1183 71.826 52.7925 65.2563 52.7925C58.6866 52.7925 53.3608 58.1183 53.3608 64.6879C53.3608 71.2576 58.6866 76.5834 65.2563 76.5834Z" fill="white" fill-opacity="0.35" shape-rendering="crispEdges"/>
</g>
<path opacity="0.15" d="M84.6962 82.4737L75.5191 73.4362C77.2061 71.2414 78.2059 68.4921 78.2059 65.5163C78.2059 58.3228 72.3636 52.4961 65.1779 52.4961C57.9922 52.4961 52.1577 58.3228 52.1577 65.5163C52.1577 72.7098 57.9844 78.5365 65.1779 78.5365C68.0678 78.5365 70.7234 77.5992 72.8947 76.0058L82.0875 85.0668C82.0875 85.0668 83.1029 85.4652 84.1729 84.3326C85.2508 83.2157 84.6962 82.4737 84.6962 82.4737ZM54.1025 65.5631C54.1025 59.4631 59.0466 54.519 65.1467 54.519C71.2467 54.519 76.1908 59.4631 76.1908 65.5631C76.1908 71.6632 71.2311 76.6073 65.131 76.6073C59.031 76.6073 54.1025 71.6632 54.1025 65.5631Z" fill="#1F1D20"/>
<path d="M54.1025 64.8444C54.1025 58.7444 59.0466 53.8003 65.1467 53.8003C71.2467 53.8003 76.1908 58.7444 76.1908 64.8444C76.1908 70.9444 71.2311 75.8885 65.131 75.8885C59.031 75.8885 54.1025 70.9444 54.1025 64.8444ZM84.625 81.6982L75.5191 72.7174C77.2061 70.5227 78.2059 67.7733 78.2059 64.7975C78.2059 57.604 72.3714 51.7773 65.1779 51.7773C57.9844 51.7773 52.1577 57.604 52.1577 64.7975C52.1577 71.991 57.9844 77.8177 65.1779 77.8177C68.0678 77.8177 70.7234 76.8804 72.8947 75.2871L82.0163 84.2913C82.0163 84.2913 83.0316 84.6897 84.1017 83.5572C85.1795 82.4402 84.625 81.6982 84.625 81.6982Z" fill="#092E4C"/>
<path d="M67.3495 64.9692C67.3495 65.376 67.2289 65.7737 67.0029 66.112C66.7768 66.4503 66.4556 66.7139 66.0797 66.8696C65.7038 67.0253 65.2902 67.0661 64.8912 66.9867C64.4922 66.9073 64.1256 66.7114 63.838 66.4237C63.5503 66.136 63.3544 65.7695 63.275 65.3705C63.1956 64.9715 63.2364 64.5579 63.392 64.182C63.5477 63.8061 63.8114 63.4848 64.1497 63.2588C64.4879 63.0328 64.8857 62.9121 65.2925 62.9121C65.8379 62.9128 66.3607 63.1297 66.7463 63.5154C67.1319 63.901 67.3489 64.4238 67.3495 64.9692ZM71.1511 63.8613L70.1946 63.6486C70.0956 63.6125 70.0148 63.5389 69.9697 63.4437L69.9584 63.4128L69.6945 62.7714L69.6793 62.7385C69.6435 62.6401 69.6482 62.5316 69.6925 62.4367L70.2186 61.6098C70.3263 61.4307 70.3722 61.2213 70.3495 61.0137C70.3267 60.806 70.2364 60.6116 70.0926 60.4601L69.8015 60.169C69.6486 60.0276 69.4544 59.9391 69.2474 59.9164C69.0405 59.8937 68.8317 59.938 68.6518 60.043L67.8247 60.5689C67.772 60.5953 67.7135 60.6081 67.6546 60.606C67.6096 60.6076 67.5647 60.5995 67.5231 60.5823C67.5124 60.5766 67.5013 60.5715 67.4899 60.5671L66.8488 60.303L66.8179 60.2919C66.7226 60.2467 66.649 60.1659 66.613 60.0668L66.4005 59.1105C66.35 58.9078 66.2343 58.7272 66.0714 58.5965C65.9084 58.4657 65.707 58.3921 65.4982 58.3867H65.0868C64.8779 58.392 64.6765 58.4656 64.5136 58.5963C64.3506 58.7271 64.235 58.9076 64.1845 59.1104L63.9718 60.0673C63.9356 60.1661 63.8621 60.2468 63.767 60.2919L63.7359 60.303L63.0947 60.5672C63.0834 60.5716 63.0724 60.5767 63.0616 60.5824C63.02 60.5997 62.9752 60.6077 62.9302 60.606C62.8712 60.608 62.8127 60.5953 62.7598 60.569L61.9331 60.0432C61.7533 59.9384 61.5445 59.894 61.3375 59.9167C61.1305 59.9394 60.9363 60.028 60.7834 60.1693L60.4924 60.4602C60.3484 60.6117 60.2582 60.8062 60.2354 61.0139C60.2126 61.2216 60.2586 61.4311 60.3663 61.6101L60.8925 62.4368C60.9365 62.5317 60.9412 62.6401 60.9056 62.7384L60.8902 62.7716L60.6263 63.413L60.615 63.4439C60.5699 63.5391 60.4892 63.6128 60.3901 63.6489L59.4338 63.8612C59.2311 63.9117 59.0504 64.0273 58.9197 64.1904C58.7889 64.3534 58.7153 64.5548 58.71 64.7637V65.1751C58.7153 65.3839 58.7889 65.5852 58.9196 65.7482C59.0503 65.9112 59.2309 66.0268 59.4336 66.0773L60.3904 66.2898C60.4893 66.326 60.57 66.3996 60.615 66.4949L60.6263 66.5257L60.8902 67.1671L60.9056 67.2C60.9413 67.2984 60.9364 67.4069 60.8923 67.5018L60.3663 68.3285C60.2586 68.5076 60.2125 68.717 60.2353 68.9248C60.2581 69.1325 60.3484 69.327 60.4924 69.4784L60.7834 69.7695C60.9364 69.9108 61.1306 69.9993 61.3376 70.022C61.5446 70.0447 61.7534 70.0004 61.9334 69.8956L62.7597 69.3696C62.8125 69.3433 62.8711 69.3306 62.9302 69.3326C62.9752 69.3308 63.02 69.3389 63.0616 69.3562L63.0947 69.3715L63.7359 69.6356L63.767 69.6467C63.8621 69.6919 63.9357 69.7726 63.9718 69.8715L64.1845 70.8281C64.235 71.0309 64.3505 71.2115 64.5135 71.3422C64.6765 71.473 64.8779 71.5467 65.0867 71.5519H65.4982C65.707 71.5466 65.9084 71.4729 66.0713 71.3422C66.2343 71.2114 66.3499 71.0308 66.4004 70.8281L66.6131 69.8715C66.6492 69.7726 66.7228 69.6918 66.818 69.6467L66.8489 69.6356L67.49 69.3715L67.5232 69.3562C67.5647 69.3389 67.6095 69.3309 67.6545 69.3326C67.7134 69.3305 67.772 69.3432 67.8248 69.3696L68.6517 69.8954C68.8316 70.0004 69.0404 70.0448 69.2474 70.0221C69.4544 69.9995 69.6487 69.9109 69.8016 69.7695L70.0925 69.4787C70.2364 69.3272 70.3268 69.1327 70.3496 68.9249C70.3724 68.7172 70.3264 68.5077 70.2188 68.3286L69.6926 67.5019C69.6707 67.4549 69.6583 67.4041 69.656 67.3524C69.6538 67.3007 69.6617 67.249 69.6794 67.2003L69.6947 67.1674L69.9586 66.5258L69.9699 66.4949C70.015 66.3996 70.0959 66.3259 70.1949 66.2898L71.151 66.0773C71.3538 66.0269 71.5345 65.9114 71.6653 65.7484C71.7961 65.5854 71.8698 65.384 71.8751 65.1751V64.7637C71.8699 64.5548 71.7962 64.3533 71.6654 64.1903C71.5347 64.0273 71.354 63.9117 71.1511 63.8613Z" fill="url(#paint8_linear_1272_1379)"/>
<path fill-rule="evenodd" clip-rule="evenodd" d="M94.214 51.8407C94.214 75.6407 74.924 94.9307 51.1239 94.9307C27.3239 94.9307 8.03395 75.6407 8.03395 51.8407C8.03395 28.0407 27.3239 8.75075 51.1239 8.75075C74.924 8.75075 94.214 28.0407 94.214 51.8407ZM51.1239 5.01074C76.9839 5.01074 97.9539 25.9807 97.9539 51.8407C97.9539 77.7007 76.9839 98.6708 51.1239 98.6708C25.2639 98.6708 4.29395 77.7007 4.29395 51.8407C4.29395 25.9807 25.2539 5.01074 51.1239 5.01074Z" fill="url(#paint9_linear_1272_1379)"/>
<defs>
<filter id="filter0_d_1272_1379" x="16.9678" y="31.146" width="31.9653" height="23.4814" filterUnits="userSpaceOnUse" color-interpolation-filters="sRGB">
<feFlood flood-opacity="0" result="BackgroundImageFix"/>
<feColorMatrix in="SourceAlpha" type="matrix" values="0 0 0 0 0 0 0 0 0 0 0 0 0 0 0 0 0 0 127 0" result="hardAlpha"/>
<feOffset dy="1"/>
<feGaussianBlur stdDeviation="2"/>
<feComposite in2="hardAlpha" operator="out"/>
<feColorMatrix type="matrix" values="0 0 0 0 0 0 0 0 0 0 0 0 0 0 0 0 0 0 0.25 0"/>
<feBlend mode="normal" in2="BackgroundImageFix" result="effect1_dropShadow_1272_1379"/>
<feBlend mode="normal" in="SourceGraphic" in2="effect1_dropShadow_1272_1379" result="shape"/>
</filter>
<filter id="filter1_bd_1272_1379" x="39.1934" y="38.6251" width="52.1258" height="66.2932" filterUnits="userSpaceOnUse" color-interpolation-filters="sRGB">
<feFlood flood-opacity="0" result="BackgroundImageFix"/>
<feGaussianBlur in="BackgroundImageFix" stdDeviation="7.0837"/>
<feComposite in2="SourceAlpha" operator="in" result="effect1_backgroundBlur_1272_1379"/>
<feColorMatrix in="SourceAlpha" type="matrix" values="0 0 0 0 0 0 0 0 0 0 0 0 0 0 0 0 0 0 127 0" result="hardAlpha"/>
<feOffset dy="14.1674"/>
<feGaussianBlur stdDeviation="7.0837"/>
<feComposite in2="hardAlpha" operator="out"/>
<feColorMatrix type="matrix" values="0 0 0 0 0 0 0 0 0 0 0 0 0 0 0 0 0 0 0.25 0"/>
<feBlend mode="normal" in2="effect1_backgroundBlur_1272_1379" result="effect2_dropShadow_1272_1379"/>
<feBlend mode="normal" in="SourceGraphic" in2="effect2_dropShadow_1272_1379" result="shape"/>
</filter>
<linearGradient id="paint0_linear_1272_1379" x1="19.2573" y1="13.7307" x2="77.0517" y2="148.369" gradientUnits="userSpaceOnUse">
<stop offset="0.192708" stop-color="white"/>
<stop offset="1" stop-color="#D0C1F7"/>
</linearGradient>
<linearGradient id="paint1_linear_1272_1379" x1="20.9678" y1="69.5525" x2="78.9831" y2="69.5525" gradientUnits="userSpaceOnUse">
<stop stop-color="#CCCCCC"/>
<stop offset="0.32" stop-color="#DFDFDF"/>
<stop offset="0.67" stop-color="#ECECEC"/>
<stop offset="1" stop-color="#F0F0F0"/>
</linearGradient>
<linearGradient id="paint2_linear_1272_1379" x1="73.9411" y1="34.146" x2="73.9411" y2="65.1088" gradientUnits="userSpaceOnUse">
<stop stop-color="#F0F0F0"/>
<stop offset="0.33" stop-color="#ECECEC"/>
<stop offset="0.68" stop-color="#DFDFDF"/>
<stop offset="1" stop-color="#CCCCCC"/>
</linearGradient>
<linearGradient id="paint3_linear_1272_1379" x1="30.2522" y1="37.7903" x2="32.9818" y2="43.7786" gradientUnits="userSpaceOnUse">
<stop stop-color="#D4C6FA"/>
<stop offset="0.97" stop-color="#C7B7F6"/>
</linearGradient>
<linearGradient id="paint4_linear_1272_1379" x1="56.9159" y1="36.0229" x2="56.9159" y2="47.3688" gradientUnits="userSpaceOnUse">
<stop stop-color="#B2A1EC"/>
<stop offset="1" stop-color="#9889E3"/>
</linearGradient>
<linearGradient id="paint5_linear_1272_1379" x1="31.2543" y1="55.4159" x2="34.2228" y2="61.0008" gradientUnits="userSpaceOnUse">
<stop stop-color="#7E70D3"/>
<stop offset="1" stop-color="#685AD3"/>
</linearGradient>
<linearGradient id="paint6_linear_1272_1379" x1="56.8068" y1="55.9912" x2="57.1111" y2="62.3509" gradientUnits="userSpaceOnUse">
<stop stop-color="#433FA9"/>
<stop offset="1" stop-color="#3D3697"/>
</linearGradient>
<linearGradient id="paint7_linear_1272_1379" x1="44.9333" y1="65.1083" x2="44.9333" y2="34.1455" gradientUnits="userSpaceOnUse">
<stop stop-color="#7567D6"/>
<stop offset="0.59375" stop-color="#9379C6" stop-opacity="0"/>
</linearGradient>
<linearGradient id="paint8_linear_1272_1379" x1="65.2326" y1="63.7984" x2="65.632" y2="69.1894" gradientUnits="userSpaceOnUse">
<stop stop-color="#433FA9"/>
<stop offset="1" stop-color="#3D3697"/>
</linearGradient>
<linearGradient id="paint9_linear_1272_1379" x1="3.68513" y1="-1.12216" x2="67.4111" y2="121.16" gradientUnits="userSpaceOnUse">
<stop stop-color="#9A89E6"/>
<stop offset="0.421875" stop-color="#6F61D3"/>
<stop offset="0.786458" stop-color="#403CAE"/>
</linearGradient>
</defs>
</svg>
