<svg width="103" height="102" viewBox="0 0 103 102" fill="none" xmlns="http://www.w3.org/2000/svg">
<g clip-path="url(#clip0_1563_1721)">
<path d="M51.0893 97.8099C25.2393 97.8099 4.2793 76.8599 4.2793 50.9999C4.2793 25.1399 25.2393 4.18994 51.0893 4.18994C76.9393 4.18994 97.8993 25.1499 97.8993 50.9999C97.8993 76.8499 76.9393 97.8099 51.0893 97.8099Z" fill="url(#paint0_linear_1563_1721)"/>
<path fill-rule="evenodd" clip-rule="evenodd" d="M96.9893 51.0001C96.9893 76.3501 76.4393 96.9001 51.0893 96.9001C25.7393 96.9001 5.18934 76.3501 5.18934 51.0001C5.18934 25.6501 25.7393 5.10011 51.0893 5.10011C76.4393 5.10011 96.9893 25.6501 96.9893 51.0001ZM51.0893 1.36011C78.5093 1.36011 100.729 23.5801 100.729 51.0001C100.729 78.4201 78.4993 100.64 51.0893 100.64C23.6693 100.64 1.44934 78.4101 1.44934 51.0001C1.44934 23.5801 23.6693 1.36011 51.0893 1.36011Z" fill="#F2F1F0"/>
<path fill-rule="evenodd" clip-rule="evenodd" d="M94.1794 51C94.1794 74.8 74.8894 94.09 51.0894 94.09C27.2894 94.09 7.9994 74.8 7.9994 51C7.9994 27.2 27.2894 7.91005 51.0894 7.91005C74.8894 7.91005 94.1794 27.2 94.1794 51ZM51.0894 4.17004C76.9494 4.17004 97.9194 25.14 97.9194 51C97.9194 76.86 76.9494 97.8301 51.0894 97.8301C25.2294 97.8301 4.2594 76.86 4.2594 51C4.2594 25.14 25.2194 4.17004 51.0894 4.17004Z" fill="url(#paint1_linear_1563_1721)"/>
<g filter="url(#filter0_ddddd_1563_1721)">
<path d="M70.6731 23.2944H25.9182C25.2698 23.2944 24.7378 23.8264 24.7378 24.4748V41.3992C24.7378 42.0476 25.2698 42.5796 25.9182 42.5796H70.6731C71.3215 42.5796 71.8535 42.0476 71.8535 41.3992V24.4748C71.8535 23.8264 71.3215 23.2944 70.6731 23.2944Z" fill="url(#paint2_linear_1563_1721)"/>
<path d="M70.6731 59.4205H25.9182C25.2698 59.4205 24.7378 59.9525 24.7378 60.6009V77.5253C24.7378 78.1737 25.2698 78.7057 25.9182 78.7057H70.6731C71.3215 78.7057 71.8535 78.1737 71.8535 77.5253V60.6009C71.8535 59.9359 71.3215 59.4205 70.6731 59.4205Z" fill="url(#paint3_linear_1563_1721)"/>
<path d="M70.6731 44.7246H25.9182C25.2698 44.7246 24.7378 45.2566 24.7378 45.905V56.1793C24.7378 56.8277 25.2698 57.3597 25.9182 57.3597H70.6731C71.3215 57.3597 71.8535 56.8277 71.8535 56.1793V45.905C71.8535 45.2566 71.3215 44.7246 70.6731 44.7246Z" fill="url(#paint4_linear_1563_1721)"/>
<path d="M76.2607 23.2944H31.5058C30.8574 23.2944 30.3254 23.8264 30.3254 24.4748V41.3992C30.3254 42.0476 30.8574 42.5796 31.5058 42.5796H76.2607C76.9091 42.5796 77.4411 42.0476 77.4411 41.3992V24.4748C77.4411 23.8264 76.9091 23.2944 76.2607 23.2944Z" fill="url(#paint5_linear_1563_1721)"/>
<path d="M36.0445 28.2656H35.6289C35.3629 28.2656 35.1467 28.4818 35.1467 28.7478V28.9306C35.1467 29.1966 35.3629 29.4128 35.6289 29.4128H36.0445C36.3105 29.4128 36.5266 29.1966 36.5266 28.9306V28.7478C36.5266 28.4651 36.3105 28.2656 36.0445 28.2656Z" fill="#D1C3FA"/>
<path d="M36.5266 31.0251H35.1467V32.1723H36.5266V31.0251Z" fill="#B391FD"/>
<path d="M36.5266 33.5525H35.1467V34.6996H36.5266V33.5525Z" fill="#AA85FE"/>
<path d="M36.5266 36.3291H35.1467V37.4762H36.5266V36.3291Z" fill="#9767FF"/>
<path d="M43.8917 33.5525H40.2009V34.6996H43.8917V33.5525Z" fill="#AA85FE"/>
<path d="M58.1898 28.2494H40.7832C40.484 28.2494 40.2512 28.4821 40.2512 28.7814C40.2512 29.0806 40.484 29.3134 40.7832 29.3134H58.2064C58.5056 29.3134 58.7384 29.0806 58.7384 28.7814C58.7384 28.4821 58.489 28.2494 58.1898 28.2494Z" fill="#D1C3FA"/>
<path d="M64.0083 33.6195H45.7206C45.4214 33.6195 45.1886 33.8523 45.1886 34.1515C45.1886 34.4508 45.4214 34.6835 45.7206 34.6835H64.0083C64.3075 34.6835 64.5403 34.4508 64.5403 34.1515C64.5403 33.8689 64.3075 33.6195 64.0083 33.6195Z" fill="#AA85FE"/>
<path d="M52.3868 36.4119H40.982C40.6827 36.4119 40.45 36.6446 40.45 36.9439C40.45 37.2431 40.6827 37.4759 40.982 37.4759H52.3868C52.6861 37.4759 52.9188 37.2431 52.9188 36.9439C52.9188 36.6612 52.6861 36.4119 52.3868 36.4119Z" fill="#9767FF"/>
<path d="M76.2607 59.4205H31.5058C30.8574 59.4205 30.3254 59.9525 30.3254 60.6009V77.5253C30.3254 78.1737 30.8574 78.7057 31.5058 78.7057H76.2607C76.9091 78.7057 77.4411 78.1737 77.4411 77.5253V60.6009C77.4411 59.9359 76.9091 59.4205 76.2607 59.4205Z" fill="url(#paint6_linear_1563_1721)"/>
<path d="M36.0446 64.3751H35.629C35.363 64.3751 35.1469 64.5913 35.1469 64.8573V65.0401C35.1469 65.3061 35.363 65.5223 35.629 65.5223H36.0446C36.3106 65.5223 36.5267 65.3061 36.5267 65.0401V64.8573C36.5267 64.5913 36.3106 64.3751 36.0446 64.3751Z" fill="#4340A9"/>
<path d="M36.5266 67.1346H35.1467V68.2818H36.5266V67.1346Z" fill="#4340A9"/>
<path d="M36.5266 69.6786H35.1467V70.8257H36.5266V69.6786Z" fill="#413BA1"/>
<path d="M36.5266 72.4386H35.1467V73.5857H36.5266V72.4386Z" fill="#3D3697"/>
<path d="M43.8917 69.6786H40.2009V70.8257H43.8917V69.6786Z" fill="#413BA1"/>
<path d="M58.1898 64.3588H40.7832C40.484 64.3588 40.2512 64.5915 40.2512 64.8908C40.2512 65.19 40.484 65.4228 40.7832 65.4228H58.2064C58.5056 65.4228 58.7384 65.19 58.7384 64.8908C58.7384 64.6081 58.489 64.3588 58.1898 64.3588Z" fill="#4340A9"/>
<path d="M64.0083 69.7446H45.7206C45.4214 69.7446 45.1886 69.9774 45.1886 70.2766C45.1886 70.5759 45.4214 70.8086 45.7206 70.8086H64.0083C64.3075 70.8086 64.5403 70.5759 64.5403 70.2766C64.5403 69.9774 64.3075 69.7446 64.0083 69.7446Z" fill="#413BA1"/>
<path d="M52.3868 72.538H40.982C40.6827 72.538 40.45 72.7707 40.45 73.07C40.45 73.3692 40.6827 73.602 40.982 73.602H52.3868C52.6861 73.602 52.9188 73.3692 52.9188 73.07C52.9188 72.7707 52.6861 72.538 52.3868 72.538Z" fill="#3D3697"/>
<path d="M76.2607 44.7246H31.5058C30.8574 44.7246 30.3254 45.2566 30.3254 45.905V56.1793C30.3254 56.8277 30.8574 57.3597 31.5058 57.3597H76.2607C76.9091 57.3597 77.4411 56.8277 77.4411 56.1793V45.905C77.4411 45.2566 76.9091 44.7246 76.2607 44.7246Z" fill="url(#paint7_linear_1563_1721)"/>
<path d="M36.0446 49.6791H35.629C35.363 49.6791 35.1469 49.8952 35.1469 50.1612V50.3441C35.1469 50.6101 35.363 50.8262 35.629 50.8262H36.0446C36.3106 50.8262 36.5267 50.6101 36.5267 50.3441V50.1612C36.5267 49.8952 36.3106 49.6791 36.0446 49.6791Z" fill="#A87FFE"/>
<path d="M36.5267 52.4397H35.1469V53.5868H36.5267V52.4397Z" fill="#9E71FE"/>
<path d="M58.1899 49.6631H40.7833C40.4841 49.6631 40.2513 49.8958 40.2513 50.1951C40.2513 50.4943 40.4841 50.7271 40.7833 50.7271H58.2065C58.5058 50.7271 58.7385 50.4943 58.7385 50.1951C58.7385 49.9125 58.4891 49.6631 58.1899 49.6631Z" fill="#A87FFE"/>
</g>
</g>
<defs>
<filter id="filter0_ddddd_1563_1721" x="15.7378" y="21.2944" width="70.7034" height="88.4113" filterUnits="userSpaceOnUse" color-interpolation-filters="sRGB">
<feFlood flood-opacity="0" result="BackgroundImageFix"/>
<feColorMatrix in="SourceAlpha" type="matrix" values="0 0 0 0 0 0 0 0 0 0 0 0 0 0 0 0 0 0 127 0" result="hardAlpha"/>
<feOffset/>
<feColorMatrix type="matrix" values="0 0 0 0 0 0 0 0 0 0 0 0 0 0 0 0 0 0 0.1 0"/>
<feBlend mode="normal" in2="BackgroundImageFix" result="effect1_dropShadow_1563_1721"/>
<feColorMatrix in="SourceAlpha" type="matrix" values="0 0 0 0 0 0 0 0 0 0 0 0 0 0 0 0 0 0 127 0" result="hardAlpha"/>
<feOffset dy="1"/>
<feGaussianBlur stdDeviation="1.5"/>
<feColorMatrix type="matrix" values="0 0 0 0 0 0 0 0 0 0 0 0 0 0 0 0 0 0 0.1 0"/>
<feBlend mode="normal" in2="effect1_dropShadow_1563_1721" result="effect2_dropShadow_1563_1721"/>
<feColorMatrix in="SourceAlpha" type="matrix" values="0 0 0 0 0 0 0 0 0 0 0 0 0 0 0 0 0 0 127 0" result="hardAlpha"/>
<feOffset dy="5"/>
<feGaussianBlur stdDeviation="2.5"/>
<feColorMatrix type="matrix" values="0 0 0 0 0 0 0 0 0 0 0 0 0 0 0 0 0 0 0.09 0"/>
<feBlend mode="normal" in2="effect2_dropShadow_1563_1721" result="effect3_dropShadow_1563_1721"/>
<feColorMatrix in="SourceAlpha" type="matrix" values="0 0 0 0 0 0 0 0 0 0 0 0 0 0 0 0 0 0 127 0" result="hardAlpha"/>
<feOffset dy="12"/>
<feGaussianBlur stdDeviation="3.5"/>
<feColorMatrix type="matrix" values="0 0 0 0 0 0 0 0 0 0 0 0 0 0 0 0 0 0 0.05 0"/>
<feBlend mode="normal" in2="effect3_dropShadow_1563_1721" result="effect4_dropShadow_1563_1721"/>
<feColorMatrix in="SourceAlpha" type="matrix" values="0 0 0 0 0 0 0 0 0 0 0 0 0 0 0 0 0 0 127 0" result="hardAlpha"/>
<feOffset dy="22"/>
<feGaussianBlur stdDeviation="4.5"/>
<feColorMatrix type="matrix" values="0 0 0 0 0 0 0 0 0 0 0 0 0 0 0 0 0 0 0.01 0"/>
<feBlend mode="normal" in2="effect4_dropShadow_1563_1721" result="effect5_dropShadow_1563_1721"/>
<feBlend mode="normal" in="SourceGraphic" in2="effect5_dropShadow_1563_1721" result="shape"/>
</filter>
<linearGradient id="paint0_linear_1563_1721" x1="19.2227" y1="12.8899" x2="77.0171" y2="147.529" gradientUnits="userSpaceOnUse">
<stop offset="0.192708" stop-color="white"/>
<stop offset="1" stop-color="#D0C1F7"/>
</linearGradient>
<linearGradient id="paint1_linear_1563_1721" x1="3.65059" y1="-1.96286" x2="67.3765" y2="120.319" gradientUnits="userSpaceOnUse">
<stop stop-color="#9A89E6"/>
<stop offset="0.421875" stop-color="#6F61D3"/>
<stop offset="0.786458" stop-color="#403CAE"/>
</linearGradient>
<linearGradient id="paint2_linear_1563_1721" x1="42.9907" y1="27.8342" x2="45.3925" y2="36.15" gradientUnits="userSpaceOnUse">
<stop stop-color="#D4C6FA"/>
<stop offset="0.97" stop-color="#C7B7F6"/>
</linearGradient>
<linearGradient id="paint3_linear_1563_1721" x1="48.0812" y1="67.3479" x2="48.3217" y2="75.281" gradientUnits="userSpaceOnUse">
<stop stop-color="#433FA9"/>
<stop offset="1" stop-color="#3D3697"/>
</linearGradient>
<linearGradient id="paint4_linear_1563_1721" x1="64.0629" y1="35.8968" x2="58.3564" y2="59.7653" gradientUnits="userSpaceOnUse">
<stop stop-color="#C8B0FE"/>
<stop offset="1" stop-color="#9E71FE"/>
</linearGradient>
<linearGradient id="paint5_linear_1563_1721" x1="53.9256" y1="84.6739" x2="53.8834" y2="15.0944" gradientUnits="userSpaceOnUse">
<stop stop-color="#D2DBFF"/>
<stop offset="0.596657" stop-color="white"/>
</linearGradient>
<linearGradient id="paint6_linear_1563_1721" x1="53.8834" y1="91.8183" x2="50.0883" y2="0.637015" gradientUnits="userSpaceOnUse">
<stop stop-color="#D2DBFF"/>
<stop offset="0.596657" stop-color="white"/>
</linearGradient>
<linearGradient id="paint7_linear_1563_1721" x1="53.35" y1="82.7553" x2="53.1582" y2="19.0562" gradientUnits="userSpaceOnUse">
<stop stop-color="#D2DBFF"/>
<stop offset="0.596657" stop-color="white"/>
</linearGradient>
<clipPath id="clip0_1563_1721">
<rect width="102" height="102" fill="white" transform="translate(0.0893555)"/>
</clipPath>
</defs>
</svg>
