<svg width="103" height="102" viewBox="0 0 103 102" fill="none" xmlns="http://www.w3.org/2000/svg">
<g clip-path="url(#clip0_1563_1718)">
<path d="M51.0893 97.8099C25.2393 97.8099 4.2793 76.8599 4.2793 50.9999C4.2793 25.1399 25.2393 4.18994 51.0893 4.18994C76.9393 4.18994 97.8993 25.1499 97.8993 50.9999C97.8993 76.8499 76.9393 97.8099 51.0893 97.8099Z" fill="url(#paint0_linear_1563_1718)"/>
<path fill-rule="evenodd" clip-rule="evenodd" d="M96.9893 51.0001C96.9893 76.3501 76.4393 96.9001 51.0893 96.9001C25.7393 96.9001 5.18934 76.3501 5.18934 51.0001C5.18934 25.6501 25.7393 5.10011 51.0893 5.10011C76.4393 5.10011 96.9893 25.6501 96.9893 51.0001ZM51.0893 1.36011C78.5093 1.36011 100.729 23.5801 100.729 51.0001C100.729 78.4201 78.4993 100.64 51.0893 100.64C23.6693 100.64 1.44934 78.4101 1.44934 51.0001C1.44934 23.5801 23.6693 1.36011 51.0893 1.36011Z" fill="#F2F1F0"/>
<path fill-rule="evenodd" clip-rule="evenodd" d="M94.1794 50.9999C94.1794 74.7999 74.8894 94.0899 51.0894 94.0899C27.2894 94.0899 7.9994 74.7999 7.9994 50.9999C7.9994 27.1999 27.2894 7.90993 51.0894 7.90993C74.8894 7.90993 94.1794 27.1999 94.1794 50.9999ZM51.0894 4.16992C76.9494 4.16992 97.9194 25.1399 97.9194 50.9999C97.9194 76.8599 76.9494 97.8299 51.0894 97.8299C25.2294 97.8299 4.2594 76.8599 4.2594 50.9999C4.2594 25.1399 25.2194 4.16992 51.0894 4.16992Z" fill="url(#paint1_linear_1563_1718)"/>
<path d="M50.7618 31.3738C47.9532 31.3738 45.657 29.0681 45.657 26.231C45.657 23.3939 47.9532 21.0977 50.7618 21.0977C53.5705 21.0977 55.8667 23.4034 55.8667 26.2405C55.8667 29.0776 53.58 31.3738 50.7618 31.3738ZM50.7618 23.1282C49.0634 23.1282 47.6875 24.523 47.6875 26.2405C47.6875 27.9579 49.0729 29.3527 50.7618 29.3527C52.4603 29.3527 53.8362 27.9579 53.8362 26.2405C53.8362 24.523 52.4603 23.1282 50.7618 23.1282Z" fill="url(#paint2_linear_1563_1718)"/>
<path d="M63.8373 80.2117H38.3414L36.2037 83.8957C36.0785 84.1115 35.8478 84.2443 35.5983 84.2443H35.0425C34.5132 84.2443 34.1754 83.6796 34.4257 83.2133L41.2924 70.4194L43.0668 71.3968L39.4231 78.1811H62.7461L59.1025 71.3968L60.8864 70.4384L67.7531 83.2323C68.0034 83.6986 67.6655 84.2633 67.1363 84.2633H66.5088C66.255 84.2633 66.0211 84.126 65.8975 83.9044L63.8373 80.2117Z" fill="url(#paint3_linear_1563_1718)"/>
<path d="M78.7247 31.7344H23.4821V68.8633H78.7247V31.7344Z" fill="url(#paint4_linear_1563_1718)"/>
<path d="M22.4479 68.0757H79.7306C80.6794 68.0757 81.448 68.8443 81.448 69.7931C81.448 70.742 80.6794 71.5106 79.7306 71.5106H22.4479C21.499 71.52 20.7305 70.7515 20.7305 69.8026C20.7305 68.8538 21.499 68.0757 22.4479 68.0757Z" fill="url(#paint5_linear_1563_1718)"/>
<g filter="url(#filter0_ddddd_1563_1718)">
<path d="M78.7246 29.1257H23.4819V68.8633H78.7246V29.1257Z" fill="url(#paint6_linear_1563_1718)"/>
</g>
<path d="M22.761 26.231H79.4175C80.5371 26.231 81.448 26.7933 81.448 27.4845V28.7965C81.448 29.4877 80.5371 30.05 79.4175 30.05H22.761C21.6414 30.0442 20.7305 29.4819 20.7305 28.7907V27.4845C20.7305 26.7933 21.6414 26.231 22.761 26.231Z" fill="url(#paint7_linear_1563_1718)"/>
<path d="M22.4479 68.0757H79.7306C80.6794 68.0757 81.448 68.8443 81.448 69.7931C81.448 70.742 80.6794 71.5106 79.7306 71.5106H22.4479C21.499 71.52 20.7305 70.7515 20.7305 69.8026C20.7305 68.8538 21.499 68.0757 22.4479 68.0757Z" fill="url(#paint8_linear_1563_1718)"/>
<rect x="28.2646" y="34.1023" width="45.6772" height="29.9395" rx="5" stroke="#3F389C" stroke-width="0.75" stroke-linecap="round" stroke-linejoin="round" stroke-dasharray="0.5 2"/>
<rect x="31.8887" y="37.7932" width="20.4429" height="13.3994" rx="3" stroke="#3F389C" stroke-width="0.75" stroke-linecap="round" stroke-linejoin="round" stroke-dasharray="0.5 2"/>
<path d="M70.9568 66.1993C74.0134 66.1993 76.4923 63.7272 76.4923 60.6639C76.4856 57.6073 74.0067 55.1418 70.9568 55.1418C67.9137 55.1418 65.4214 57.614 65.4214 60.6773C65.4214 63.7339 67.8935 66.1993 70.9568 66.1993Z" fill="#002D4C"/>
<path d="M71.3937 57.426H70.4868V63.902H71.3937V57.426Z" fill="#F2F2F2"/>
<path d="M74.1748 60.261H67.7056V61.1679H74.1815L74.1748 60.261Z" fill="#F2F2F2"/>
</g>
<defs>
<filter id="filter0_ddddd_1563_1718" x="18.4819" y="28.1257" width="65.2427" height="57.7375" filterUnits="userSpaceOnUse" color-interpolation-filters="sRGB">
<feFlood flood-opacity="0" result="BackgroundImageFix"/>
<feColorMatrix in="SourceAlpha" type="matrix" values="0 0 0 0 0 0 0 0 0 0 0 0 0 0 0 0 0 0 127 0" result="hardAlpha"/>
<feOffset/>
<feColorMatrix type="matrix" values="0 0 0 0 0 0 0 0 0 0 0 0 0 0 0 0 0 0 0.1 0"/>
<feBlend mode="normal" in2="BackgroundImageFix" result="effect1_dropShadow_1563_1718"/>
<feColorMatrix in="SourceAlpha" type="matrix" values="0 0 0 0 0 0 0 0 0 0 0 0 0 0 0 0 0 0 127 0" result="hardAlpha"/>
<feOffset dy="1"/>
<feGaussianBlur stdDeviation="1"/>
<feColorMatrix type="matrix" values="0 0 0 0 0 0 0 0 0 0 0 0 0 0 0 0 0 0 0.1 0"/>
<feBlend mode="normal" in2="effect1_dropShadow_1563_1718" result="effect2_dropShadow_1563_1718"/>
<feColorMatrix in="SourceAlpha" type="matrix" values="0 0 0 0 0 0 0 0 0 0 0 0 0 0 0 0 0 0 127 0" result="hardAlpha"/>
<feOffset dy="3"/>
<feGaussianBlur stdDeviation="1.5"/>
<feColorMatrix type="matrix" values="0 0 0 0 0 0 0 0 0 0 0 0 0 0 0 0 0 0 0.09 0"/>
<feBlend mode="normal" in2="effect2_dropShadow_1563_1718" result="effect3_dropShadow_1563_1718"/>
<feColorMatrix in="SourceAlpha" type="matrix" values="0 0 0 0 0 0 0 0 0 0 0 0 0 0 0 0 0 0 127 0" result="hardAlpha"/>
<feOffset dy="7"/>
<feGaussianBlur stdDeviation="2"/>
<feColorMatrix type="matrix" values="0 0 0 0 0 0 0 0 0 0 0 0 0 0 0 0 0 0 0.05 0"/>
<feBlend mode="normal" in2="effect3_dropShadow_1563_1718" result="effect4_dropShadow_1563_1718"/>
<feColorMatrix in="SourceAlpha" type="matrix" values="0 0 0 0 0 0 0 0 0 0 0 0 0 0 0 0 0 0 127 0" result="hardAlpha"/>
<feOffset dy="12"/>
<feGaussianBlur stdDeviation="2.5"/>
<feColorMatrix type="matrix" values="0 0 0 0 0 0 0 0 0 0 0 0 0 0 0 0 0 0 0.01 0"/>
<feBlend mode="normal" in2="effect4_dropShadow_1563_1718" result="effect5_dropShadow_1563_1718"/>
<feBlend mode="normal" in="SourceGraphic" in2="effect5_dropShadow_1563_1718" result="shape"/>
</filter>
<linearGradient id="paint0_linear_1563_1718" x1="19.2227" y1="12.8899" x2="77.0171" y2="147.529" gradientUnits="userSpaceOnUse">
<stop offset="0.192708" stop-color="white"/>
<stop offset="1" stop-color="#D0C1F7"/>
</linearGradient>
<linearGradient id="paint1_linear_1563_1718" x1="3.65059" y1="-1.96298" x2="67.3765" y2="120.319" gradientUnits="userSpaceOnUse">
<stop stop-color="#9A89E6"/>
<stop offset="0.421875" stop-color="#6F61D3"/>
<stop offset="0.786458" stop-color="#403CAE"/>
</linearGradient>
<linearGradient id="paint2_linear_1563_1718" x1="43.4108" y1="11.0702" x2="70.7603" y2="67.4963" gradientUnits="userSpaceOnUse">
<stop stop-color="#5A62C3"/>
<stop offset="0.5" stop-color="#4D55BD"/>
<stop offset="1" stop-color="#3940AB"/>
</linearGradient>
<linearGradient id="paint3_linear_1563_1718" x1="57.0966" y1="157.952" x2="45.5811" y2="16.598" gradientUnits="userSpaceOnUse">
<stop stop-color="#5A62C3"/>
<stop offset="0.5" stop-color="#4D55BD"/>
<stop offset="1" stop-color="#3940AB"/>
</linearGradient>
<linearGradient id="paint4_linear_1563_1718" x1="51.102" y1="68.8617" x2="51.102" y2="31.7311" gradientUnits="userSpaceOnUse">
<stop stop-color="#D2EBFF"/>
<stop offset="1" stop-color="#F0FFFD"/>
</linearGradient>
<linearGradient id="paint5_linear_1563_1718" x1="51.0871" y1="68.0884" x2="51.0871" y2="71.5211" gradientUnits="userSpaceOnUse">
<stop stop-color="#0099BE"/>
<stop offset="1" stop-color="#006E97"/>
</linearGradient>
<linearGradient id="paint6_linear_1563_1718" x1="51.1033" y1="95.882" x2="51.1033" y2="12.2294" gradientUnits="userSpaceOnUse">
<stop stop-color="#D2DBFF"/>
<stop offset="0.596657" stop-color="white"/>
</linearGradient>
<linearGradient id="paint7_linear_1563_1718" x1="51.0921" y1="26.2788" x2="51.0921" y2="28.714" gradientUnits="userSpaceOnUse">
<stop stop-color="#5A62C3"/>
<stop offset="0.5" stop-color="#4D55BD"/>
<stop offset="1" stop-color="#3940AB"/>
</linearGradient>
<linearGradient id="paint8_linear_1563_1718" x1="51.0871" y1="67.5501" x2="51.0871" y2="70.4192" gradientUnits="userSpaceOnUse">
<stop stop-color="#5A62C3"/>
<stop offset="0.5" stop-color="#4D55BD"/>
<stop offset="1" stop-color="#3940AB"/>
</linearGradient>
<clipPath id="clip0_1563_1718">
<rect width="102" height="102" fill="white" transform="translate(0.0893555)"/>
</clipPath>
</defs>
</svg>
