<svg width="103" height="102" viewBox="0 0 103 102" fill="none" xmlns="http://www.w3.org/2000/svg">
<g clip-path="url(#clip0_1580_6893)">
<path d="M51.0893 97.8099C25.2393 97.8099 4.2793 76.8599 4.2793 50.9999C4.2793 25.1399 25.2393 4.18994 51.0893 4.18994C76.9393 4.18994 97.8993 25.1499 97.8993 50.9999C97.8993 76.8499 76.9393 97.8099 51.0893 97.8099Z" fill="url(#paint0_linear_1580_6893)"/>
<path fill-rule="evenodd" clip-rule="evenodd" d="M96.9893 51.0001C96.9893 76.3501 76.4393 96.9001 51.0893 96.9001C25.7393 96.9001 5.18934 76.3501 5.18934 51.0001C5.18934 25.6501 25.7393 5.10011 51.0893 5.10011C76.4393 5.10011 96.9893 25.6501 96.9893 51.0001ZM51.0893 1.36011C78.5093 1.36011 100.729 23.5801 100.729 51.0001C100.729 78.4201 78.4993 100.64 51.0893 100.64C23.6693 100.64 1.44934 78.4101 1.44934 51.0001C1.44934 23.5801 23.6693 1.36011 51.0893 1.36011Z" fill="#F2F1F0"/>
<g filter="url(#filter0_ddddd_1580_6893)">
<rect x="22.3306" y="22.2412" width="57.5166" height="57.5166" rx="1.5" fill="white"/>
</g>
<g filter="url(#filter1_ddddd_1580_6893)">
<path d="M55.7166 55.4264L42.2117 65.5531C41.8634 65.8144 41.4391 65.9543 41.0037 65.9512C40.5683 65.9481 40.146 65.8022 39.8015 65.536L30.073 58.0119C29.8896 57.87 29.7415 57.6878 29.6399 57.4794C29.5384 57.271 29.4863 57.0419 29.4876 56.8101C29.4889 56.5783 29.5435 56.3499 29.6474 56.1427C29.7512 55.9354 29.9014 55.7548 30.0863 55.615L44.8582 44.4213L55.7185 52.5836C55.9392 52.7492 56.1183 52.9638 56.2416 53.2106C56.3649 53.4574 56.429 53.7296 56.4288 54.0055C56.4287 54.2814 56.3642 54.5534 56.2405 54.8001C56.1169 55.0467 55.9375 55.2611 55.7166 55.4264V55.4264Z" fill="url(#paint1_linear_1580_6893)"/>
<path d="M55.7073 55.4226L47.0743 61.8416C46.6719 62.1416 46.1834 62.3036 45.6815 62.3036C45.1796 62.3036 44.6911 62.1416 44.2888 61.8416L33.015 53.3991L44.8946 44.4213L55.7168 52.5779C55.9371 52.7442 56.1157 52.9596 56.2383 53.2069C56.3609 53.4542 56.4243 53.7266 56.4234 54.0026C56.4225 54.2787 56.3573 54.5507 56.233 54.7971C56.1087 55.0436 55.9287 55.2578 55.7073 55.4226V55.4226Z" fill="url(#paint2_linear_1580_6893)"/>
<g filter="url(#filter2_d_1580_6893)">
<path d="M51.7154 45.3581L41.3181 53.2578C38.8256 55.1515 35.3787 55.1602 32.8767 53.2791L26.0413 48.1399C25.8669 48.0086 25.7254 47.8387 25.628 47.6435C25.5306 47.4482 25.4799 47.233 25.4799 47.0148C25.4799 46.7966 25.5306 46.5813 25.628 46.3861C25.7254 46.1908 25.8669 46.0209 26.0413 45.8897L40.112 35.2733C40.3585 35.087 40.6586 34.9852 40.9675 34.9832C41.2765 34.9811 41.5779 35.0789 41.8268 35.2619L51.6963 42.5116C51.919 42.6754 52.1004 42.8889 52.226 43.1352C52.3516 43.3815 52.4179 43.6536 52.4198 43.9301C52.4216 44.2065 52.3589 44.4795 52.2366 44.7275C52.1143 44.9754 51.9359 45.1913 51.7154 45.3581Z" fill="url(#paint3_linear_1580_6893)"/>
</g>
<path d="M48.9662 47.4205L38.346 55.5142C37.9883 55.7855 37.5517 55.9322 37.1028 55.9322C36.6539 55.9322 36.2173 55.7855 35.8596 55.5142L26.0415 48.1331C25.8675 48.0016 25.7263 47.8316 25.6291 47.6364C25.5319 47.4411 25.4813 47.226 25.4813 47.008C25.4813 46.7899 25.5319 46.5747 25.6291 46.3795C25.7263 46.1843 25.8675 46.0143 26.0415 45.8829L36.3302 38.1263L48.9662 47.4205Z" fill="url(#paint4_linear_1580_6893)"/>
</g>
<path d="M75.0356 32.8598C75.0356 29.1911 72.034 26.1895 68.3653 26.1895C65.0687 26.1895 62.3136 28.6111 61.7867 31.7626H64.5177C64.7014 31.1197 65.0494 30.5252 65.5376 30.0322C66.2965 29.2733 67.297 28.8576 68.3604 28.8576C69.419 28.8576 70.4244 29.2733 71.1833 30.0322C71.9421 30.7911 72.3578 31.7916 72.3578 32.855C72.3578 33.0677 72.3578 33.6719 72.353 34.4646H63.1997C62.3713 34.4646 61.6997 35.1362 61.6997 35.9646V46.344C61.6997 47.1725 62.3713 47.844 63.1997 47.844H73.5356C74.3641 47.844 75.0356 47.1725 75.0356 46.344V35.3443C75.0356 34.1311 75.0356 33.1547 75.0356 32.8598Z" fill="url(#paint5_linear_1580_6893)"/>
<path d="M70.9801 44.6823C71.2867 44.6823 71.5353 44.4337 71.5353 44.127C71.5353 43.8204 71.2867 43.5718 70.9801 43.5718C70.6734 43.5718 70.4248 43.8204 70.4248 44.127C70.4248 44.4337 70.6734 44.6823 70.9801 44.6823Z" fill="#CCBDF8"/>
<path d="M68.3691 44.6823C68.6758 44.6823 68.9244 44.4337 68.9244 44.127C68.9244 43.8204 68.6758 43.5718 68.3691 43.5718C68.0624 43.5718 67.8138 43.8204 67.8138 44.127C67.8138 44.4337 68.0624 44.6823 68.3691 44.6823Z" fill="#CCBDF8"/>
<path d="M65.7581 44.6823C66.0648 44.6823 66.3134 44.4337 66.3134 44.127C66.3134 43.8204 66.0648 43.5718 65.7581 43.5718C65.4515 43.5718 65.2029 43.8204 65.2029 44.127C65.2029 44.4337 65.4515 44.6823 65.7581 44.6823Z" fill="#CCBDF8"/>
<path d="M70.9801 42.0057C71.2867 42.0057 71.5353 41.7571 71.5353 41.4504C71.5353 41.1437 71.2867 40.8951 70.9801 40.8951C70.6734 40.8951 70.4248 41.1437 70.4248 41.4504C70.4248 41.7571 70.6734 42.0057 70.9801 42.0057Z" fill="#DFD5FF"/>
<path d="M68.3691 42.0057C68.6758 42.0057 68.9244 41.7571 68.9244 41.4504C68.9244 41.1437 68.6758 40.8951 68.3691 40.8951C68.0624 40.8951 67.8138 41.1437 67.8138 41.4504C67.8138 41.7571 68.0624 42.0057 68.3691 42.0057Z" fill="#DFD5FF"/>
<path d="M65.7581 42.0057C66.0648 42.0057 66.3134 41.7571 66.3134 41.4504C66.3134 41.1437 66.0648 40.8951 65.7581 40.8951C65.4515 40.8951 65.2029 41.1437 65.2029 41.4504C65.2029 41.7571 65.4515 42.0057 65.7581 42.0057Z" fill="#DFD5FF"/>
<path d="M70.9801 39.3279C71.2867 39.3279 71.5353 39.0793 71.5353 38.7727C71.5353 38.466 71.2867 38.2174 70.9801 38.2174C70.6734 38.2174 70.4248 38.466 70.4248 38.7727C70.4248 39.0793 70.6734 39.3279 70.9801 39.3279Z" fill="white"/>
<path d="M68.3691 39.3279C68.6758 39.3279 68.9244 39.0793 68.9244 38.7727C68.9244 38.466 68.6758 38.2174 68.3691 38.2174C68.0624 38.2174 67.8138 38.466 67.8138 38.7727C67.8138 39.0793 68.0624 39.3279 68.3691 39.3279Z" fill="white"/>
<path d="M65.7581 39.3279C66.0648 39.3279 66.3134 39.0793 66.3134 38.7727C66.3134 38.466 66.0648 38.2174 65.7581 38.2174C65.4515 38.2174 65.2029 38.466 65.2029 38.7727C65.2029 39.0793 65.4515 39.3279 65.7581 39.3279Z" fill="white"/>
<g filter="url(#filter3_ddddd_1580_6893)">
<path d="M76.306 50.6533H60.0869C60.0212 50.6533 59.9562 50.6663 59.8954 50.6914C59.8347 50.7166 59.7794 50.7535 59.7329 50.8C59.6864 50.8464 59.6497 50.9016 59.6245 50.9623C59.5994 51.0231 59.5864 51.0882 59.5864 51.1539C59.5864 51.2197 59.5994 51.2848 59.6245 51.3455C59.6497 51.4062 59.6864 51.4614 59.7329 51.5079C59.7794 51.5544 59.8347 51.5912 59.8954 51.6164C59.9562 51.6416 60.0212 51.6545 60.0869 51.6545H76.306C76.4388 51.6545 76.5661 51.6018 76.66 51.5079C76.7539 51.414 76.8067 51.2867 76.8067 51.1539C76.8067 51.0212 76.7539 50.8938 76.66 50.8C76.5661 50.7061 76.4388 50.6533 76.306 50.6533V50.6533Z" fill="#A3A3A3"/>
<path d="M60.5061 52.7271H60.0869C60.0212 52.7271 59.9562 52.74 59.8954 52.7652C59.8347 52.7903 59.7794 52.8272 59.7329 52.8737C59.6864 52.9202 59.6497 52.9753 59.6245 53.0361C59.5994 53.0968 59.5864 53.1619 59.5864 53.2276C59.5864 53.2934 59.5994 53.3585 59.6245 53.4192C59.6497 53.48 59.6864 53.5351 59.7329 53.5816C59.7794 53.6281 59.8347 53.665 59.8954 53.6901C59.9562 53.7153 60.0212 53.7282 60.0869 53.7282H60.5061C60.6389 53.7282 60.7662 53.6755 60.8601 53.5816C60.954 53.4877 61.0068 53.3604 61.0068 53.2276C61.0068 53.0949 60.954 52.9676 60.8601 52.8737C60.7662 52.7798 60.6389 52.7271 60.5061 52.7271Z" fill="#D1C3FA"/>
<path d="M62.2949 52.7271H61.8757C61.81 52.7271 61.745 52.74 61.6842 52.7652C61.6235 52.7903 61.5682 52.8272 61.5217 52.8737C61.4752 52.9202 61.4385 52.9753 61.4133 53.0361C61.3882 53.0968 61.3752 53.1619 61.3752 53.2276C61.3752 53.2934 61.3882 53.3585 61.4133 53.4192C61.4385 53.48 61.4752 53.5351 61.5217 53.5816C61.5682 53.6281 61.6235 53.665 61.6842 53.6901C61.745 53.7153 61.81 53.7282 61.8757 53.7282H62.2949C62.4277 53.7282 62.555 53.6755 62.6489 53.5816C62.7428 53.4877 62.7956 53.3604 62.7956 53.2276C62.7956 53.0949 62.7428 52.9676 62.6489 52.8737C62.555 52.7798 62.4277 52.7271 62.2949 52.7271Z" fill="#D1C3FA"/>
<path d="M76.3228 52.7271H63.7499C63.6841 52.7271 63.6191 52.74 63.5584 52.7652C63.4977 52.7903 63.4423 52.8272 63.3958 52.8737C63.3494 52.9202 63.3126 52.9753 63.2875 53.0361C63.2623 53.0968 63.2494 53.1619 63.2494 53.2276C63.2494 53.2934 63.2623 53.3585 63.2875 53.4192C63.3126 53.48 63.3494 53.5351 63.3958 53.5816C63.4423 53.6281 63.4977 53.665 63.5584 53.6901C63.6191 53.7153 63.6841 53.7282 63.7499 53.7282H76.3228C76.4556 53.7282 76.583 53.6755 76.6768 53.5816C76.7707 53.4877 76.8235 53.3604 76.8235 53.2276C76.8235 53.0949 76.7707 52.9676 76.6768 52.8737C76.583 52.7798 76.4556 52.7271 76.3228 52.7271Z" fill="#D1C3FA"/>
<path d="M60.5061 64.1669H60.0869C60.0212 64.1669 59.9562 64.1798 59.8954 64.205C59.8347 64.2301 59.7794 64.267 59.7329 64.3135C59.6864 64.36 59.6497 64.4152 59.6245 64.4759C59.5994 64.5366 59.5864 64.6017 59.5864 64.6675C59.5864 64.7332 59.5994 64.7983 59.6245 64.859C59.6497 64.9198 59.6864 64.9749 59.7329 65.0214C59.7794 65.0679 59.8347 65.1048 59.8954 65.1299C59.9562 65.1551 60.0212 65.1681 60.0869 65.1681H60.5061C60.6389 65.1681 60.7662 65.1153 60.8601 65.0214C60.954 64.9276 61.0068 64.8002 61.0068 64.6675C61.0068 64.5347 60.954 64.4074 60.8601 64.3135C60.7662 64.2196 60.6389 64.1669 60.5061 64.1669Z" fill="#A3A3A3"/>
<path d="M62.2949 64.1669H61.8757C61.81 64.1669 61.745 64.1798 61.6842 64.205C61.6235 64.2301 61.5682 64.267 61.5217 64.3135C61.4752 64.36 61.4385 64.4152 61.4133 64.4759C61.3882 64.5366 61.3752 64.6017 61.3752 64.6675C61.3752 64.7332 61.3882 64.7983 61.4133 64.859C61.4385 64.9198 61.4752 64.9749 61.5217 65.0214C61.5682 65.0679 61.6235 65.1048 61.6842 65.1299C61.745 65.1551 61.81 65.1681 61.8757 65.1681H62.2949C62.4277 65.1681 62.555 65.1153 62.6489 65.0214C62.7428 64.9276 62.7956 64.8002 62.7956 64.6675C62.7956 64.5347 62.7428 64.4074 62.6489 64.3135C62.555 64.2196 62.4277 64.1669 62.2949 64.1669Z" fill="#A3A3A3"/>
<path d="M76.3228 64.1669H63.7499C63.6841 64.1669 63.6191 64.1798 63.5584 64.205C63.4977 64.2301 63.4423 64.267 63.3958 64.3135C63.3494 64.36 63.3126 64.4152 63.2875 64.4759C63.2623 64.5366 63.2494 64.6017 63.2494 64.6675C63.2494 64.7332 63.2623 64.7983 63.2875 64.859C63.3126 64.9198 63.3494 64.9749 63.3958 65.0214C63.4423 65.0679 63.4977 65.1048 63.5584 65.1299C63.6191 65.1551 63.6841 65.1681 63.7499 65.1681H76.3228C76.4556 65.1681 76.583 65.1153 76.6768 65.0214C76.7707 64.9276 76.8235 64.8002 76.8235 64.6675C76.8235 64.5347 76.7707 64.4074 76.6768 64.3135C76.583 64.2196 76.4556 64.1669 76.3228 64.1669Z" fill="#A3A3A3"/>
<path d="M72.0062 54.6661H64.7009C64.5681 54.6661 64.4407 54.7189 64.3469 54.8128C64.253 54.9066 64.2002 55.034 64.2002 55.1667C64.2002 55.2995 64.253 55.4268 64.3469 55.5207C64.4407 55.6146 64.5681 55.6673 64.7009 55.6673H71.9979C72.0639 55.6685 72.1295 55.6563 72.1908 55.6315C72.252 55.6067 72.3078 55.5699 72.3545 55.5232C72.4012 55.4765 72.4379 55.4209 72.4627 55.3596C72.4874 55.2984 72.4997 55.2328 72.4985 55.1667C72.4986 55.0354 72.447 54.9093 72.3549 54.8157C72.2628 54.722 72.1375 54.6683 72.0062 54.6661Z" fill="#B391FD"/>
<path d="M62.9237 54.6661H60.0869C60.0212 54.6661 59.9562 54.6791 59.8954 54.7043C59.8347 54.7294 59.7794 54.7663 59.7329 54.8128C59.6864 54.8593 59.6497 54.9144 59.6245 54.9752C59.5994 55.0359 59.5864 55.101 59.5864 55.1667C59.5864 55.2325 59.5994 55.2976 59.6245 55.3583C59.6497 55.419 59.6864 55.4742 59.7329 55.5207C59.7794 55.5672 59.8347 55.6041 59.8954 55.6292C59.9562 55.6544 60.0212 55.6673 60.0869 55.6673H62.9237C62.9897 55.6685 63.0554 55.6563 63.1166 55.6315C63.1778 55.6067 63.2334 55.5699 63.2802 55.5232C63.3269 55.4765 63.3636 55.4209 63.3883 55.3596C63.4131 55.2984 63.4253 55.2328 63.4242 55.1667C63.4242 55.034 63.3714 54.9066 63.2775 54.8128C63.1836 54.7189 63.0565 54.6661 62.9237 54.6661V54.6661Z" fill="#B391FD"/>
<path d="M70.691 56.7045H60.0869C60.0212 56.7045 59.9562 56.7174 59.8954 56.7426C59.8347 56.7677 59.7794 56.8046 59.7329 56.8511C59.6864 56.8976 59.6497 56.9528 59.6245 57.0135C59.5994 57.0742 59.5864 57.1393 59.5864 57.2051C59.5864 57.2708 59.5994 57.3359 59.6245 57.3966C59.6497 57.4574 59.6864 57.5125 59.7329 57.559C59.7794 57.6055 59.8347 57.6424 59.8954 57.6675C59.9562 57.6927 60.0212 57.7057 60.0869 57.7057H70.691C70.7571 57.7068 70.8227 57.6946 70.8839 57.6698C70.9452 57.6451 71.0008 57.6083 71.0475 57.5615C71.0942 57.5148 71.1311 57.4592 71.1559 57.398C71.1806 57.3367 71.1928 57.2711 71.1917 57.2051C71.1917 57.0723 71.1389 56.945 71.0451 56.8511C70.9512 56.7572 70.8238 56.7045 70.691 56.7045V56.7045Z" fill="#AA85FE"/>
<path d="M76.5062 66.0374H60.0869C59.9541 66.0374 59.8268 66.0901 59.7329 66.184C59.639 66.2778 59.5864 66.4052 59.5864 66.5379C59.5864 66.6707 59.639 66.798 59.7329 66.8919C59.8268 66.9858 59.9541 67.0385 60.0869 67.0385H76.5062C76.639 67.0385 76.7664 66.9858 76.8602 66.8919C76.9541 66.798 77.0069 66.6707 77.0069 66.5379C77.0069 66.4052 76.9541 66.2778 76.8602 66.184C76.7664 66.0901 76.639 66.0374 76.5062 66.0374V66.0374Z" fill="#9A95DB"/>
<path d="M73.2327 68.0607H60.1203C60.0546 68.0607 59.9894 68.0736 59.9286 68.0988C59.8679 68.1239 59.8128 68.1608 59.7663 68.2073C59.7198 68.2538 59.6829 68.309 59.6577 68.3697C59.6326 68.4304 59.6196 68.4955 59.6196 68.5613C59.6196 68.627 59.6326 68.6921 59.6577 68.7528C59.6829 68.8136 59.7198 68.8687 59.7663 68.9152C59.8128 68.9617 59.8679 68.9986 59.9286 69.0237C59.9894 69.0489 60.0546 69.0619 60.1203 69.0619H73.2327C73.3655 69.0619 73.4929 69.0091 73.5868 68.9152C73.6806 68.8214 73.7334 68.694 73.7334 68.5613C73.7334 68.4285 73.6806 68.3012 73.5868 68.2073C73.4929 68.1134 73.3655 68.0607 73.2327 68.0607Z" fill="#6862CB"/>
<path d="M68.5087 70.0037H60.087C59.9542 70.0037 59.8268 70.0564 59.733 70.1503C59.6391 70.2441 59.5865 70.3715 59.5865 70.5042C59.5854 70.5703 59.5974 70.6359 59.6221 70.6971C59.6469 70.7584 59.6838 70.814 59.7305 70.8607C59.7772 70.9075 59.8328 70.9443 59.8941 70.969C59.9553 70.9938 60.0209 71.006 60.087 71.0048H68.5087C68.5747 71.006 68.6403 70.9938 68.7016 70.969C68.7628 70.9443 68.8184 70.9075 68.8652 70.8607C68.9119 70.814 68.9488 70.7584 68.9735 70.6971C68.9983 70.6359 69.0105 70.5703 69.0094 70.5042C69.0094 70.3715 68.9566 70.2441 68.8627 70.1503C68.7688 70.0564 68.6415 70.0037 68.5087 70.0037Z" fill="#4038BC"/>
<path d="M62.9237 66.0341H60.0869C60.0212 66.0341 59.9562 66.047 59.8954 66.0722C59.8347 66.0973 59.7794 66.1342 59.7329 66.1807C59.6864 66.2272 59.6497 66.2823 59.6245 66.3431C59.5994 66.4038 59.5864 66.4689 59.5864 66.5347C59.5864 66.6004 59.5994 66.6655 59.6245 66.7262C59.6497 66.787 59.6864 66.8421 59.7329 66.8886C59.7794 66.9351 59.8347 66.972 59.8954 66.9971C59.9562 67.0223 60.0212 67.0352 60.0869 67.0352H62.9237C62.9897 67.0364 63.0554 67.0242 63.1166 66.9994C63.1778 66.9747 63.2334 66.9378 63.2802 66.8911C63.3269 66.8444 63.3636 66.7888 63.3883 66.7275C63.4131 66.6663 63.4253 66.6007 63.4242 66.5347C63.4242 66.4019 63.3714 66.2746 63.2775 66.1807C63.1836 66.0868 63.0565 66.0341 62.9237 66.0341V66.0341Z" fill="#4038BC"/>
<path d="M68.3921 68.0607H65.5553C65.4895 68.0607 65.4245 68.0736 65.3638 68.0988C65.3031 68.1239 65.2477 68.1608 65.2013 68.2073C65.1548 68.2538 65.1181 68.309 65.0929 68.3697C65.0677 68.4304 65.0548 68.4955 65.0548 68.5613C65.0548 68.627 65.0677 68.6921 65.0929 68.7528C65.1181 68.8136 65.1548 68.8687 65.2013 68.9152C65.2477 68.9617 65.3031 68.9986 65.3638 69.0237C65.4245 69.0489 65.4895 69.0619 65.5553 69.0619H68.3921C68.4581 69.063 68.5237 69.0508 68.585 69.026C68.6462 69.0013 68.7018 68.9645 68.7485 68.9177C68.7953 68.871 68.8319 68.8154 68.8567 68.7542C68.8815 68.6929 68.8937 68.6273 68.8926 68.5613C68.8926 68.4285 68.8398 68.3012 68.7459 68.2073C68.652 68.1134 68.5248 68.0607 68.3921 68.0607V68.0607Z" fill="#242069"/>
<path d="M75.4371 56.7045H72.6003C72.5346 56.7045 72.4696 56.7174 72.4089 56.7426C72.3481 56.7677 72.2928 56.8046 72.2463 56.8511C72.1998 56.8976 72.1631 56.9528 72.1379 57.0135C72.1128 57.0742 72.0999 57.1393 72.0999 57.2051C72.0999 57.2708 72.1128 57.3359 72.1379 57.3966C72.1631 57.4574 72.1998 57.5125 72.2463 57.559C72.2928 57.6055 72.3481 57.6424 72.4089 57.6675C72.4696 57.6927 72.5346 57.7057 72.6003 57.7057H75.4371C75.5032 57.7068 75.5688 57.6946 75.63 57.6698C75.6913 57.6451 75.7469 57.6083 75.7936 57.5615C75.8403 57.5148 75.877 57.4592 75.9017 57.398C75.9265 57.3367 75.9387 57.2711 75.9376 57.2051C75.9376 57.0723 75.8848 56.945 75.7909 56.8511C75.6971 56.7572 75.5699 56.7045 75.4371 56.7045V56.7045Z" fill="#AA85FE"/>
<path d="M60.4929 58.5107H60.0869C60.0212 58.5107 59.9562 58.5237 59.8954 58.5489C59.8347 58.574 59.7794 58.6109 59.7329 58.6574C59.6864 58.7039 59.6497 58.759 59.6245 58.8198C59.5994 58.8805 59.5864 58.9456 59.5864 59.0113C59.5864 59.0771 59.5994 59.1422 59.6245 59.2029C59.6497 59.2636 59.6864 59.3188 59.7329 59.3653C59.7794 59.4118 59.8347 59.4487 59.8954 59.4738C59.9562 59.499 60.0212 59.5119 60.0869 59.5119H60.4929C60.559 59.5131 60.6246 59.5009 60.6858 59.4761C60.7471 59.4514 60.8027 59.4145 60.8494 59.3678C60.8961 59.3211 60.9328 59.2655 60.9576 59.2042C60.9823 59.143 60.9945 59.0774 60.9934 59.0113C60.9934 58.8786 60.9406 58.7513 60.8468 58.6574C60.7529 58.5635 60.6257 58.5107 60.4929 58.5107Z" fill="#9767FF"/>
<path d="M60.4929 71.9401H60.0869C60.0212 71.9401 59.9562 71.953 59.8954 71.9782C59.8347 72.0033 59.7794 72.0402 59.7329 72.0867C59.6864 72.1332 59.6497 72.1884 59.6245 72.2491C59.5994 72.3098 59.5864 72.3749 59.5864 72.4407C59.5864 72.5064 59.5994 72.5715 59.6245 72.6322C59.6497 72.693 59.6864 72.7481 59.7329 72.7946C59.7794 72.8411 59.8347 72.878 59.8954 72.9031C59.9562 72.9283 60.0212 72.9413 60.0869 72.9413H60.4929C60.559 72.9424 60.6246 72.9302 60.6858 72.9054C60.7471 72.8807 60.8027 72.8439 60.8494 72.7971C60.8961 72.7504 60.9328 72.6948 60.9576 72.6336C60.9823 72.5723 60.9945 72.5067 60.9934 72.4407C60.9934 72.3079 60.9406 72.1806 60.8468 72.0867C60.7529 71.9928 60.6257 71.9401 60.4929 71.9401Z" fill="#242069"/>
</g>
<g filter="url(#filter4_bii_1580_6893)">
<path d="M71.0436 80.1591C76.3588 80.1591 80.6677 75.8503 80.6677 70.5351C80.6677 65.2198 76.3588 60.911 71.0436 60.911C65.7284 60.911 61.4196 65.2198 61.4196 70.5351C61.4196 75.8503 65.7284 80.1591 71.0436 80.1591Z" fill="white" fill-opacity="0.01"/>
</g>
<path opacity="0.15" d="M83.4322 81.7097L79.3464 77.6128C80.7113 75.8371 81.5201 73.6127 81.5201 71.2052C81.5201 65.3852 76.7934 60.6711 70.9798 60.6711C65.1662 60.6711 60.4458 65.3852 60.4458 71.2052C60.4458 77.0251 65.1599 81.7392 70.9798 81.7392C73.3179 81.7392 75.4664 80.9809 77.2231 79.6918L81.3216 83.8076C81.3216 83.8076 82.1431 84.1299 83.0088 83.2136C83.8808 82.31 83.4322 81.7097 83.4322 81.7097ZM62.0193 71.2431C62.0193 66.3078 66.0193 62.3078 70.9545 62.3078C75.8898 62.3078 79.8898 66.3078 79.8898 71.2431C79.8898 76.1783 75.8771 80.1783 70.9419 80.1783C66.0066 80.1783 62.0193 76.1783 62.0193 71.2431Z" fill="#1F1D20"/>
<path d="M62.0193 70.6618C62.0193 65.7265 66.0193 61.7265 70.9545 61.7265C75.8898 61.7265 79.8898 65.7265 79.8898 70.6618C79.8898 75.597 75.8771 79.597 70.9419 79.597C66.0066 79.597 62.0193 75.597 62.0193 70.6618ZM84.1121 81.835L79.3464 77.0315C80.7113 75.2558 81.5201 73.0315 81.5201 70.6239C81.5201 64.8039 76.7997 60.0898 70.9798 60.0898C65.1599 60.0898 60.4458 64.8039 60.4458 70.6239C60.4458 76.4438 65.1599 81.1579 70.9798 81.1579C73.3179 81.1579 75.4664 80.3996 77.2231 79.1105L82.0016 83.9329C82.0016 83.9329 82.823 84.2552 83.6888 83.3389C84.5608 82.4353 84.1121 81.835 84.1121 81.835Z" fill="#092E4C"/>
<path fill-rule="evenodd" clip-rule="evenodd" d="M94.1793 50.9999C94.1793 74.7999 74.8893 94.0899 51.0893 94.0899C27.2893 94.0899 7.99928 74.7999 7.99928 50.9999C7.99928 27.1999 27.2893 7.90993 51.0893 7.90993C74.8893 7.90993 94.1793 27.1999 94.1793 50.9999ZM51.0893 4.16992C76.9493 4.16992 97.9193 25.1399 97.9193 50.9999C97.9193 76.8599 76.9493 97.8299 51.0893 97.8299C25.2293 97.8299 4.25928 76.8599 4.25928 50.9999C4.25928 25.1399 25.2193 4.16992 51.0893 4.16992Z" fill="url(#paint6_linear_1580_6893)"/>
</g>
<defs>
<filter id="filter0_ddddd_1580_6893" x="18.3306" y="21.2412" width="65.5166" height="73.5166" filterUnits="userSpaceOnUse" color-interpolation-filters="sRGB">
<feFlood flood-opacity="0" result="BackgroundImageFix"/>
<feColorMatrix in="SourceAlpha" type="matrix" values="0 0 0 0 0 0 0 0 0 0 0 0 0 0 0 0 0 0 127 0" result="hardAlpha"/>
<feOffset/>
<feColorMatrix type="matrix" values="0 0 0 0 0 0 0 0 0 0 0 0 0 0 0 0 0 0 0.1 0"/>
<feBlend mode="normal" in2="BackgroundImageFix" result="effect1_dropShadow_1580_6893"/>
<feColorMatrix in="SourceAlpha" type="matrix" values="0 0 0 0 0 0 0 0 0 0 0 0 0 0 0 0 0 0 127 0" result="hardAlpha"/>
<feOffset dy="1"/>
<feGaussianBlur stdDeviation="1"/>
<feColorMatrix type="matrix" values="0 0 0 0 0 0 0 0 0 0 0 0 0 0 0 0 0 0 0.1 0"/>
<feBlend mode="normal" in2="effect1_dropShadow_1580_6893" result="effect2_dropShadow_1580_6893"/>
<feColorMatrix in="SourceAlpha" type="matrix" values="0 0 0 0 0 0 0 0 0 0 0 0 0 0 0 0 0 0 127 0" result="hardAlpha"/>
<feOffset dy="3"/>
<feGaussianBlur stdDeviation="1.5"/>
<feColorMatrix type="matrix" values="0 0 0 0 0 0 0 0 0 0 0 0 0 0 0 0 0 0 0.09 0"/>
<feBlend mode="normal" in2="effect2_dropShadow_1580_6893" result="effect3_dropShadow_1580_6893"/>
<feColorMatrix in="SourceAlpha" type="matrix" values="0 0 0 0 0 0 0 0 0 0 0 0 0 0 0 0 0 0 127 0" result="hardAlpha"/>
<feOffset dy="6"/>
<feGaussianBlur stdDeviation="2"/>
<feColorMatrix type="matrix" values="0 0 0 0 0 0 0 0 0 0 0 0 0 0 0 0 0 0 0.05 0"/>
<feBlend mode="normal" in2="effect3_dropShadow_1580_6893" result="effect4_dropShadow_1580_6893"/>
<feColorMatrix in="SourceAlpha" type="matrix" values="0 0 0 0 0 0 0 0 0 0 0 0 0 0 0 0 0 0 127 0" result="hardAlpha"/>
<feOffset dy="11"/>
<feGaussianBlur stdDeviation="2"/>
<feColorMatrix type="matrix" values="0 0 0 0 0 0 0 0 0 0 0 0 0 0 0 0 0 0 0.01 0"/>
<feBlend mode="normal" in2="effect4_dropShadow_1580_6893" result="effect5_dropShadow_1580_6893"/>
<feBlend mode="normal" in="SourceGraphic" in2="effect5_dropShadow_1580_6893" result="shape"/>
</filter>
<filter id="filter1_ddddd_1580_6893" x="21.4799" y="33.9832" width="40.949" height="48.968" filterUnits="userSpaceOnUse" color-interpolation-filters="sRGB">
<feFlood flood-opacity="0" result="BackgroundImageFix"/>
<feColorMatrix in="SourceAlpha" type="matrix" values="0 0 0 0 0 0 0 0 0 0 0 0 0 0 0 0 0 0 127 0" result="hardAlpha"/>
<feOffset/>
<feColorMatrix type="matrix" values="0 0 0 0 0 0 0 0 0 0 0 0 0 0 0 0 0 0 0.1 0"/>
<feBlend mode="normal" in2="BackgroundImageFix" result="effect1_dropShadow_1580_6893"/>
<feColorMatrix in="SourceAlpha" type="matrix" values="0 0 0 0 0 0 0 0 0 0 0 0 0 0 0 0 0 0 127 0" result="hardAlpha"/>
<feOffset dy="1"/>
<feGaussianBlur stdDeviation="1"/>
<feColorMatrix type="matrix" values="0 0 0 0 0 0 0 0 0 0 0 0 0 0 0 0 0 0 0.1 0"/>
<feBlend mode="normal" in2="effect1_dropShadow_1580_6893" result="effect2_dropShadow_1580_6893"/>
<feColorMatrix in="SourceAlpha" type="matrix" values="0 0 0 0 0 0 0 0 0 0 0 0 0 0 0 0 0 0 127 0" result="hardAlpha"/>
<feOffset dy="3"/>
<feGaussianBlur stdDeviation="1.5"/>
<feColorMatrix type="matrix" values="0 0 0 0 0 0 0 0 0 0 0 0 0 0 0 0 0 0 0.09 0"/>
<feBlend mode="normal" in2="effect2_dropShadow_1580_6893" result="effect3_dropShadow_1580_6893"/>
<feColorMatrix in="SourceAlpha" type="matrix" values="0 0 0 0 0 0 0 0 0 0 0 0 0 0 0 0 0 0 127 0" result="hardAlpha"/>
<feOffset dy="7"/>
<feGaussianBlur stdDeviation="2"/>
<feColorMatrix type="matrix" values="0 0 0 0 0 0 0 0 0 0 0 0 0 0 0 0 0 0 0.05 0"/>
<feBlend mode="normal" in2="effect3_dropShadow_1580_6893" result="effect4_dropShadow_1580_6893"/>
<feColorMatrix in="SourceAlpha" type="matrix" values="0 0 0 0 0 0 0 0 0 0 0 0 0 0 0 0 0 0 127 0" result="hardAlpha"/>
<feOffset dx="1" dy="12"/>
<feGaussianBlur stdDeviation="2.5"/>
<feColorMatrix type="matrix" values="0 0 0 0 0 0 0 0 0 0 0 0 0 0 0 0 0 0 0.01 0"/>
<feBlend mode="normal" in2="effect4_dropShadow_1580_6893" result="effect5_dropShadow_1580_6893"/>
<feBlend mode="normal" in="SourceGraphic" in2="effect5_dropShadow_1580_6893" result="shape"/>
</filter>
<filter id="filter2_d_1580_6893" x="21.4799" y="31.9832" width="34.9399" height="27.7009" filterUnits="userSpaceOnUse" color-interpolation-filters="sRGB">
<feFlood flood-opacity="0" result="BackgroundImageFix"/>
<feColorMatrix in="SourceAlpha" type="matrix" values="0 0 0 0 0 0 0 0 0 0 0 0 0 0 0 0 0 0 127 0" result="hardAlpha"/>
<feOffset dy="1"/>
<feGaussianBlur stdDeviation="2"/>
<feComposite in2="hardAlpha" operator="out"/>
<feColorMatrix type="matrix" values="0 0 0 0 0 0 0 0 0 0 0 0 0 0 0 0 0 0 0.25 0"/>
<feBlend mode="normal" in2="BackgroundImageFix" result="effect1_dropShadow_1580_6893"/>
<feBlend mode="normal" in="SourceGraphic" in2="effect1_dropShadow_1580_6893" result="shape"/>
</filter>
<filter id="filter3_ddddd_1580_6893" x="56.5864" y="50.6533" width="23.4204" height="34.288" filterUnits="userSpaceOnUse" color-interpolation-filters="sRGB">
<feFlood flood-opacity="0" result="BackgroundImageFix"/>
<feColorMatrix in="SourceAlpha" type="matrix" values="0 0 0 0 0 0 0 0 0 0 0 0 0 0 0 0 0 0 127 0" result="hardAlpha"/>
<feOffset/>
<feColorMatrix type="matrix" values="0 0 0 0 0 0 0 0 0 0 0 0 0 0 0 0 0 0 0.1 0"/>
<feBlend mode="normal" in2="BackgroundImageFix" result="effect1_dropShadow_1580_6893"/>
<feColorMatrix in="SourceAlpha" type="matrix" values="0 0 0 0 0 0 0 0 0 0 0 0 0 0 0 0 0 0 127 0" result="hardAlpha"/>
<feOffset dy="1"/>
<feGaussianBlur stdDeviation="0.5"/>
<feColorMatrix type="matrix" values="0 0 0 0 0 0 0 0 0 0 0 0 0 0 0 0 0 0 0.1 0"/>
<feBlend mode="normal" in2="effect1_dropShadow_1580_6893" result="effect2_dropShadow_1580_6893"/>
<feColorMatrix in="SourceAlpha" type="matrix" values="0 0 0 0 0 0 0 0 0 0 0 0 0 0 0 0 0 0 127 0" result="hardAlpha"/>
<feOffset dy="2"/>
<feGaussianBlur stdDeviation="1"/>
<feColorMatrix type="matrix" values="0 0 0 0 0 0 0 0 0 0 0 0 0 0 0 0 0 0 0.09 0"/>
<feBlend mode="normal" in2="effect2_dropShadow_1580_6893" result="effect3_dropShadow_1580_6893"/>
<feColorMatrix in="SourceAlpha" type="matrix" values="0 0 0 0 0 0 0 0 0 0 0 0 0 0 0 0 0 0 127 0" result="hardAlpha"/>
<feOffset dy="5"/>
<feGaussianBlur stdDeviation="1.5"/>
<feColorMatrix type="matrix" values="0 0 0 0 0 0 0 0 0 0 0 0 0 0 0 0 0 0 0.05 0"/>
<feBlend mode="normal" in2="effect3_dropShadow_1580_6893" result="effect4_dropShadow_1580_6893"/>
<feColorMatrix in="SourceAlpha" type="matrix" values="0 0 0 0 0 0 0 0 0 0 0 0 0 0 0 0 0 0 127 0" result="hardAlpha"/>
<feOffset dy="9"/>
<feGaussianBlur stdDeviation="1.5"/>
<feColorMatrix type="matrix" values="0 0 0 0 0 0 0 0 0 0 0 0 0 0 0 0 0 0 0.01 0"/>
<feBlend mode="normal" in2="effect4_dropShadow_1580_6893" result="effect5_dropShadow_1580_6893"/>
<feBlend mode="normal" in="SourceGraphic" in2="effect5_dropShadow_1580_6893" result="shape"/>
</filter>
<filter id="filter4_bii_1580_6893" x="60.4196" y="59.911" width="21.2482" height="21.2482" filterUnits="userSpaceOnUse" color-interpolation-filters="sRGB">
<feFlood flood-opacity="0" result="BackgroundImageFix"/>
<feGaussianBlur in="BackgroundImageFix" stdDeviation="0.5"/>
<feComposite in2="SourceAlpha" operator="in" result="effect1_backgroundBlur_1580_6893"/>
<feBlend mode="normal" in="SourceGraphic" in2="effect1_backgroundBlur_1580_6893" result="shape"/>
<feColorMatrix in="SourceAlpha" type="matrix" values="0 0 0 0 0 0 0 0 0 0 0 0 0 0 0 0 0 0 127 0" result="hardAlpha"/>
<feOffset dy="0.5"/>
<feGaussianBlur stdDeviation="1"/>
<feComposite in2="hardAlpha" operator="arithmetic" k2="-1" k3="1"/>
<feColorMatrix type="matrix" values="0 0 0 0 1 0 0 0 0 0.701961 0 0 0 0 0.733333 0 0 0 1 0"/>
<feBlend mode="color-dodge" in2="shape" result="effect2_innerShadow_1580_6893"/>
<feColorMatrix in="SourceAlpha" type="matrix" values="0 0 0 0 0 0 0 0 0 0 0 0 0 0 0 0 0 0 127 0" result="hardAlpha"/>
<feOffset/>
<feGaussianBlur stdDeviation="2"/>
<feComposite in2="hardAlpha" operator="arithmetic" k2="-1" k3="1"/>
<feColorMatrix type="matrix" values="0 0 0 0 1 0 0 0 0 1 0 0 0 0 1 0 0 0 1 0"/>
<feBlend mode="screen" in2="effect2_innerShadow_1580_6893" result="effect3_innerShadow_1580_6893"/>
</filter>
<linearGradient id="paint0_linear_1580_6893" x1="19.2227" y1="12.8899" x2="77.0171" y2="147.529" gradientUnits="userSpaceOnUse">
<stop offset="0.192708" stop-color="white"/>
<stop offset="1" stop-color="#D0C1F7"/>
</linearGradient>
<linearGradient id="paint1_linear_1580_6893" x1="41.0514" y1="52.4712" x2="45.6241" y2="59.4256" gradientUnits="userSpaceOnUse">
<stop stop-color="#7E70D3"/>
<stop offset="1" stop-color="#685AD3"/>
</linearGradient>
<linearGradient id="paint2_linear_1580_6893" x1="44.6127" y1="51.772" x2="45.028" y2="59.1113" gradientUnits="userSpaceOnUse">
<stop stop-color="#433FA9"/>
<stop offset="1" stop-color="#3D3697"/>
</linearGradient>
<linearGradient id="paint3_linear_1580_6893" x1="35.9165" y1="40.0385" x2="40.2035" y2="47.6597" gradientUnits="userSpaceOnUse">
<stop stop-color="#D4C6FA"/>
<stop offset="0.97" stop-color="#C7B7F6"/>
</linearGradient>
<linearGradient id="paint4_linear_1580_6893" x1="37.2238" y1="40.2851" x2="37.2238" y2="53.3345" gradientUnits="userSpaceOnUse">
<stop stop-color="#B2A1EC"/>
<stop offset="1" stop-color="#9889E3"/>
</linearGradient>
<linearGradient id="paint5_linear_1580_6893" x1="68.3677" y1="17.4604" x2="71.9163" y2="55.4662" gradientUnits="userSpaceOnUse">
<stop offset="0.201389" stop-color="#A696E8"/>
<stop offset="0.672489" stop-color="#695BD4"/>
<stop offset="1" stop-color="#3D3697"/>
</linearGradient>
<linearGradient id="paint6_linear_1580_6893" x1="3.65047" y1="-1.96298" x2="67.3764" y2="120.319" gradientUnits="userSpaceOnUse">
<stop stop-color="#9A89E6"/>
<stop offset="0.421875" stop-color="#6F61D3"/>
<stop offset="0.786458" stop-color="#403CAE"/>
</linearGradient>
<clipPath id="clip0_1580_6893">
<rect width="102" height="102" fill="white" transform="translate(0.0893555)"/>
</clipPath>
</defs>
</svg>
