<svg width="103" height="102" viewBox="0 0 103 102" fill="none" xmlns="http://www.w3.org/2000/svg">
<g clip-path="url(#clip0_1563_1717)">
<path d="M51.0893 97.8099C25.2393 97.8099 4.2793 76.8599 4.2793 50.9999C4.2793 25.1399 25.2393 4.18994 51.0893 4.18994C76.9393 4.18994 97.8993 25.1499 97.8993 50.9999C97.8993 76.8499 76.9393 97.8099 51.0893 97.8099Z" fill="url(#paint0_linear_1563_1717)"/>
<path fill-rule="evenodd" clip-rule="evenodd" d="M96.9893 51.0001C96.9893 76.3501 76.4393 96.9001 51.0893 96.9001C25.7393 96.9001 5.18934 76.3501 5.18934 51.0001C5.18934 25.6501 25.7393 5.10011 51.0893 5.10011C76.4393 5.10011 96.9893 25.6501 96.9893 51.0001ZM51.0893 1.36011C78.5093 1.36011 100.729 23.5801 100.729 51.0001C100.729 78.4201 78.4993 100.64 51.0893 100.64C23.6693 100.64 1.44934 78.4101 1.44934 51.0001C1.44934 23.5801 23.6693 1.36011 51.0893 1.36011Z" fill="#F2F1F0"/>
<path fill-rule="evenodd" clip-rule="evenodd" d="M94.1794 51C94.1794 74.8 74.8894 94.09 51.0894 94.09C27.2894 94.09 7.9994 74.8 7.9994 51C7.9994 27.2 27.2894 7.91005 51.0894 7.91005C74.8894 7.91005 94.1794 27.2 94.1794 51ZM51.0894 4.17004C76.9494 4.17004 97.9194 25.14 97.9194 51C97.9194 76.86 76.9494 97.8301 51.0894 97.8301C25.2294 97.8301 4.2594 76.86 4.2594 51C4.2594 25.14 25.2194 4.17004 51.0894 4.17004Z" fill="url(#paint1_linear_1563_1717)"/>
<g filter="url(#filter0_ddddd_1563_1717)">
<path d="M52.9161 57.3082L36.4844 69.6297C36.0607 69.9476 35.5443 70.1178 35.0146 70.114C34.4848 70.1102 33.971 69.9327 33.5518 69.6088L21.7148 60.454C21.4918 60.2814 21.3115 60.0597 21.188 59.8061C21.0645 59.5525 21.001 59.2739 21.0026 58.9918C21.0042 58.7098 21.0707 58.4319 21.197 58.1797C21.3234 57.9275 21.5061 57.7078 21.7311 57.5377L39.7044 43.918L52.9184 53.8494C53.187 54.0508 53.4049 54.3119 53.555 54.6122C53.705 54.9125 53.783 55.2437 53.7828 55.5794C53.7825 55.9151 53.7041 56.246 53.5537 56.5461C53.4032 56.8462 53.1849 57.1071 52.9161 57.3082V57.3082Z" fill="url(#paint2_linear_1563_1717)"/>
<path d="M52.9043 57.3036L42.4003 65.1137C41.9107 65.4788 41.3163 65.6759 40.7056 65.6759C40.095 65.6759 39.5006 65.4788 39.011 65.1137L25.2939 54.8416L39.7482 43.918L52.9159 53.8424C53.1839 54.0448 53.4011 54.3068 53.5503 54.6077C53.6996 54.9085 53.7767 55.24 53.7755 55.5759C53.7744 55.9117 53.6951 56.2427 53.5439 56.5426C53.3926 56.8424 53.1737 57.103 52.9043 57.3036V57.3036Z" fill="url(#paint3_linear_1563_1717)"/>
<g filter="url(#filter1_d_1563_1717)">
<path d="M48.0475 45.0586L34.4838 55.364C31.9913 57.2577 28.5444 57.2664 26.0424 55.3853L16.8091 48.4432C16.5969 48.2835 16.4248 48.0768 16.3062 47.8392C16.1877 47.6016 16.126 47.3398 16.126 47.0743C16.126 46.8088 16.1877 46.5469 16.3062 46.3093C16.4248 46.0717 16.5969 45.865 16.8091 45.7054L33.9293 32.7881C34.2292 32.5614 34.5943 32.4376 34.9702 32.4351C35.3462 32.4326 35.7129 32.5515 36.0158 32.7742L48.0243 41.5951C48.2952 41.7944 48.5159 42.0542 48.6687 42.3539C48.8215 42.6535 48.9022 42.9847 48.9045 43.321C48.9067 43.6574 48.8304 43.9896 48.6817 44.2912C48.5329 44.5929 48.3157 44.8556 48.0475 45.0586Z" fill="url(#paint4_linear_1563_1717)"/>
</g>
<path d="M44.7014 47.5673L31.7795 57.4152C31.3443 57.7452 30.8131 57.9238 30.2669 57.9238C29.7207 57.9238 29.1895 57.7452 28.7542 57.4152L16.8083 48.4343C16.5965 48.2744 16.4248 48.0675 16.3065 47.83C16.1883 47.5925 16.1267 47.3308 16.1267 47.0654C16.1267 46.8001 16.1883 46.5383 16.3065 46.3008C16.4248 46.0632 16.5965 45.8564 16.8083 45.6965L29.3268 36.2589L44.7014 47.5673Z" fill="url(#paint5_linear_1563_1717)"/>
</g>
<g filter="url(#filter2_ddddd_1563_1717)">
<path d="M83.877 33.9668H59.0095C58.9087 33.9668 58.8091 33.9867 58.716 34.0252C58.6228 34.0638 58.538 34.1203 58.4667 34.1916C58.3955 34.2629 58.3392 34.3475 58.3006 34.4406C58.262 34.5337 58.2422 34.6335 58.2422 34.7343C58.2422 34.8351 58.262 34.9349 58.3006 35.028C58.3392 35.1212 58.3955 35.2058 58.4667 35.277C58.538 35.3483 58.6228 35.4048 58.716 35.4434C58.8091 35.482 58.9087 35.5018 59.0095 35.5018H83.877C84.0806 35.5018 84.2759 35.421 84.4198 35.277C84.5637 35.1331 84.6447 34.9379 84.6447 34.7343C84.6447 34.5308 84.5637 34.3356 84.4198 34.1916C84.2759 34.0477 84.0806 33.9668 83.877 33.9668V33.9668Z" fill="#A3A3A3"/>
<path d="M59.6522 37.147H59.0095C58.9087 37.147 58.8091 37.1668 58.716 37.2054C58.6228 37.244 58.538 37.3005 58.4667 37.3718C58.3955 37.4431 58.3392 37.5277 58.3006 37.6208C58.262 37.7139 58.2422 37.8137 58.2422 37.9145C58.2422 38.0153 58.262 38.1151 58.3006 38.2082C58.3392 38.3013 58.3955 38.3859 58.4667 38.4572C58.538 38.5285 58.6228 38.585 58.716 38.6236C58.8091 38.6622 58.9087 38.682 59.0095 38.682H59.6522C59.8558 38.682 60.0511 38.6011 60.195 38.4572C60.339 38.3133 60.4199 38.1181 60.4199 37.9145C60.4199 37.7109 60.339 37.5157 60.195 37.3718C60.0511 37.2279 59.8558 37.147 59.6522 37.147Z" fill="#D1C3FA"/>
<path d="M62.3953 37.1466H61.7526C61.6518 37.1466 61.5521 37.1665 61.459 37.205C61.3659 37.2436 61.281 37.3002 61.2098 37.3714C61.1385 37.4427 61.0822 37.5273 61.0436 37.6204C61.0051 37.7135 60.9852 37.8133 60.9852 37.9141C60.9852 38.0149 61.0051 38.1147 61.0436 38.2079C61.0822 38.301 61.1385 38.3856 61.2098 38.4568C61.281 38.5281 61.3659 38.5846 61.459 38.6232C61.5521 38.6618 61.6518 38.6817 61.7526 38.6817H62.3953C62.5988 38.6817 62.7941 38.6008 62.9381 38.4568C63.082 38.3129 63.1629 38.1177 63.1629 37.9141C63.1629 37.7106 63.082 37.5154 62.9381 37.3714C62.7941 37.2275 62.5988 37.1466 62.3953 37.1466Z" fill="#D1C3FA"/>
<path d="M83.9031 37.1466H64.626C64.5252 37.1466 64.4255 37.1665 64.3324 37.205C64.2393 37.2436 64.1545 37.3002 64.0832 37.3714C64.0119 37.4427 63.9556 37.5273 63.917 37.6204C63.8785 37.7135 63.8586 37.8133 63.8586 37.9141C63.8586 38.0149 63.8785 38.1147 63.917 38.2079C63.9556 38.301 64.0119 38.3856 64.0832 38.4568C64.1545 38.5281 64.2393 38.5846 64.3324 38.6232C64.4255 38.6618 64.5252 38.6817 64.626 38.6817H83.9031C84.1067 38.6817 84.302 38.6008 84.4459 38.4568C84.5899 38.3129 84.6708 38.1177 84.6708 37.9141C84.6708 37.7106 84.5899 37.5154 84.4459 37.3714C84.302 37.2275 84.1067 37.1466 83.9031 37.1466Z" fill="#D1C3FA"/>
<path d="M59.6522 54.6862H59.0095C58.9087 54.6862 58.8091 54.706 58.716 54.7446C58.6228 54.7832 58.538 54.8397 58.4667 54.911C58.3955 54.9822 58.3392 55.0668 58.3006 55.16C58.262 55.2531 58.2422 55.3529 58.2422 55.4537C58.2422 55.5545 58.262 55.6543 58.3006 55.7474C58.3392 55.8405 58.3955 55.9251 58.4667 55.9964C58.538 56.0677 58.6228 56.1242 58.716 56.1628C58.8091 56.2013 58.9087 56.2212 59.0095 56.2212H59.6522C59.8558 56.2212 60.0511 56.1403 60.195 55.9964C60.339 55.8525 60.4199 55.6572 60.4199 55.4537C60.4199 55.2501 60.339 55.0549 60.195 54.911C60.0511 54.767 59.8558 54.6862 59.6522 54.6862Z" fill="#A3A3A3"/>
<path d="M62.3953 54.6858H61.7526C61.6518 54.6858 61.5521 54.7057 61.459 54.7442C61.3659 54.7828 61.281 54.8393 61.2098 54.9106C61.1385 54.9819 61.0822 55.0665 61.0436 55.1596C61.0051 55.2527 60.9852 55.3525 60.9852 55.4533C60.9852 55.5541 61.0051 55.6539 61.0436 55.747C61.0822 55.8402 61.1385 55.9248 61.2098 55.996C61.281 56.0673 61.3659 56.1238 61.459 56.1624C61.5521 56.201 61.6518 56.2208 61.7526 56.2208H62.3953C62.5988 56.2208 62.7941 56.14 62.9381 55.996C63.082 55.8521 63.1629 55.6569 63.1629 55.4533C63.1629 55.2498 63.082 55.0545 62.9381 54.9106C62.7941 54.7667 62.5988 54.6858 62.3953 54.6858Z" fill="#A3A3A3"/>
<path d="M83.9031 54.6858H64.626C64.5252 54.6858 64.4255 54.7057 64.3324 54.7442C64.2393 54.7828 64.1545 54.8393 64.0832 54.9106C64.0119 54.9819 63.9556 55.0665 63.917 55.1596C63.8785 55.2527 63.8586 55.3525 63.8586 55.4533C63.8586 55.5541 63.8785 55.6539 63.917 55.747C63.9556 55.8402 64.0119 55.9248 64.0832 55.996C64.1545 56.0673 64.2393 56.1238 64.3324 56.1624C64.4255 56.201 64.5252 56.2208 64.626 56.2208H83.9031C84.1067 56.2208 84.302 56.14 84.4459 55.996C84.5899 55.8521 84.6708 55.6569 84.6708 55.4533C84.6708 55.2498 84.5899 55.0545 84.4459 54.9106C84.302 54.7667 84.1067 54.6858 83.9031 54.6858Z" fill="#A3A3A3"/>
<path d="M77.2844 40.1189H66.0837C65.8801 40.1189 65.6848 40.1998 65.5409 40.3437C65.397 40.4877 65.316 40.6829 65.316 40.8864C65.316 41.09 65.397 41.2852 65.5409 41.4291C65.6848 41.5731 65.8801 41.6539 66.0837 41.6539H77.2716C77.3729 41.6557 77.4735 41.637 77.5674 41.599C77.6613 41.5611 77.7468 41.5046 77.8184 41.433C77.8901 41.3614 77.9463 41.2761 77.9843 41.1822C78.0222 41.0883 78.041 40.9877 78.0392 40.8864C78.0393 40.6851 77.9603 40.4917 77.8191 40.3482C77.6779 40.2046 77.4857 40.1223 77.2844 40.1189Z" fill="#B391FD"/>
<path d="M63.359 40.1189H59.0095C58.9087 40.1189 58.8091 40.1388 58.716 40.1773C58.6228 40.2159 58.538 40.2724 58.4667 40.3437C58.3955 40.415 58.3392 40.4996 58.3006 40.5927C58.262 40.6858 58.2422 40.7856 58.2422 40.8864C58.2422 40.9872 58.262 41.087 58.3006 41.1801C58.3392 41.2733 58.3955 41.3579 58.4667 41.4291C58.538 41.5004 58.6228 41.5569 58.716 41.5955C58.8091 41.6341 58.9087 41.6539 59.0095 41.6539H63.359C63.4602 41.6557 63.5608 41.637 63.6547 41.599C63.7486 41.5611 63.8339 41.5046 63.9055 41.433C63.9771 41.3614 64.0334 41.2761 64.0713 41.1822C64.1093 41.0883 64.128 40.9877 64.1263 40.8864C64.1263 40.6829 64.0454 40.4877 63.9014 40.3437C63.7575 40.1998 63.5625 40.1189 63.359 40.1189V40.1189Z" fill="#B391FD"/>
<path d="M75.2681 43.245H59.0095C58.9087 43.245 58.8091 43.2649 58.716 43.3034C58.6228 43.342 58.538 43.3985 58.4667 43.4698C58.3955 43.5411 58.3392 43.6257 58.3006 43.7188C58.262 43.8119 58.2422 43.9117 58.2422 44.0125C58.2422 44.1133 58.262 44.2131 58.3006 44.3062C58.3392 44.3994 58.3955 44.484 58.4667 44.5552C58.538 44.6265 58.6228 44.683 58.716 44.7216C58.8091 44.7602 58.9087 44.78 59.0095 44.78H75.2681C75.3693 44.7818 75.4699 44.7631 75.5638 44.7251C75.6577 44.6872 75.743 44.6307 75.8146 44.5591C75.8862 44.4875 75.9428 44.4022 75.9807 44.3083C76.0187 44.2144 76.0374 44.1138 76.0357 44.0125C76.0357 43.809 75.9548 43.6138 75.8108 43.4698C75.6669 43.3259 75.4716 43.245 75.2681 43.245V43.245Z" fill="#AA85FE"/>
<path d="M84.184 57.5537H59.0095C58.806 57.5537 58.6107 57.6346 58.4667 57.7785C58.3228 57.9224 58.2422 58.1177 58.2422 58.3212C58.2422 58.5248 58.3228 58.72 58.4667 58.8639C58.6107 59.0079 58.806 59.0887 59.0095 59.0887H84.184C84.3876 59.0887 84.5829 59.0079 84.7268 58.8639C84.8707 58.72 84.9517 58.5248 84.9517 58.3212C84.9517 58.1177 84.8707 57.9224 84.7268 57.7785C84.5829 57.6346 84.3876 57.5537 84.184 57.5537V57.5537Z" fill="#9A95DB"/>
<path d="M79.1649 60.6567H59.0606C58.9598 60.6567 58.8599 60.6766 58.7667 60.7152C58.6736 60.7537 58.5891 60.8103 58.5178 60.8816C58.4466 60.9528 58.3899 61.0374 58.3514 61.1305C58.3128 61.2237 58.293 61.3235 58.293 61.4243C58.293 61.5251 58.3128 61.6249 58.3514 61.718C58.3899 61.8111 58.4466 61.8957 58.5178 61.967C58.5891 62.0382 58.6736 62.0948 58.7667 62.1334C58.8599 62.1719 58.9598 62.1918 59.0606 62.1918H79.1649C79.3685 62.1918 79.5638 62.1109 79.7077 61.967C79.8516 61.823 79.9325 61.6278 79.9325 61.4243C79.9325 61.2207 79.8516 61.0255 79.7077 60.8816C79.5638 60.7376 79.3685 60.6567 79.1649 60.6567Z" fill="#6862CB"/>
<path d="M71.922 63.6349H59.0096C58.8061 63.6349 58.6108 63.7157 58.4668 63.8597C58.3229 64.0036 58.2423 64.1988 58.2423 64.4024C58.2406 64.5036 58.259 64.6042 58.297 64.6981C58.3349 64.792 58.3915 64.8774 58.4631 64.949C58.5347 65.0206 58.62 65.0771 58.7139 65.115C58.8078 65.153 58.9084 65.1716 59.0096 65.1699H71.922C72.0233 65.1716 72.1239 65.153 72.2178 65.115C72.3117 65.0771 72.3969 65.0206 72.4686 64.949C72.5402 64.8774 72.5967 64.792 72.6347 64.6981C72.6727 64.6042 72.6914 64.5036 72.6897 64.4024C72.6897 64.1988 72.6087 64.0036 72.4648 63.8597C72.3209 63.7157 72.1256 63.6349 71.922 63.6349Z" fill="#4038BC"/>
<path d="M63.359 57.549H59.0095C58.9087 57.549 58.8091 57.5688 58.716 57.6074C58.6228 57.646 58.538 57.7025 58.4667 57.7738C58.3955 57.845 58.3392 57.9296 58.3006 58.0228C58.262 58.1159 58.2422 58.2157 58.2422 58.3165C58.2422 58.4173 58.262 58.5171 58.3006 58.6102C58.3392 58.7033 58.3955 58.7879 58.4667 58.8592C58.538 58.9305 58.6228 58.987 58.716 59.0256C58.8091 59.0641 58.9087 59.084 59.0095 59.084H63.359C63.4602 59.0857 63.5608 59.067 63.6547 59.0291C63.7486 58.9911 63.8339 58.9347 63.9055 58.863C63.9771 58.7914 64.0334 58.7061 64.0713 58.6122C64.1093 58.5183 64.128 58.4177 64.1263 58.3165C64.1263 58.1129 64.0454 57.9177 63.9014 57.7738C63.7575 57.6298 63.5625 57.549 63.359 57.549V57.549Z" fill="#4038BC"/>
<path d="M71.7442 60.6567H67.3948C67.294 60.6567 67.1943 60.6766 67.1012 60.7152C67.0081 60.7537 66.9233 60.8103 66.852 60.8816C66.7807 60.9528 66.7244 61.0374 66.6858 61.1305C66.6473 61.2237 66.6274 61.3235 66.6274 61.4243C66.6274 61.5251 66.6473 61.6249 66.6858 61.718C66.7244 61.8111 66.7807 61.8957 66.852 61.967C66.9233 62.0382 67.0081 62.0948 67.1012 62.1333C67.1943 62.1719 67.294 62.1918 67.3948 62.1918H71.7442C71.8455 62.1935 71.9461 62.1748 72.04 62.1369C72.1339 62.0989 72.2191 62.0425 72.2908 61.9708C72.3624 61.8992 72.4186 61.8139 72.4566 61.72C72.4946 61.6261 72.5133 61.5255 72.5116 61.4243C72.5116 61.2207 72.4306 61.0255 72.2867 60.8816C72.1428 60.7376 71.9478 60.6567 71.7442 60.6567V60.6567Z" fill="#242069"/>
<path d="M82.5444 43.245H78.1949C78.0942 43.245 77.9945 43.2649 77.9014 43.3034C77.8083 43.342 77.7234 43.3985 77.6522 43.4698C77.5809 43.5411 77.5246 43.6257 77.486 43.7188C77.4474 43.8119 77.4276 43.9117 77.4276 44.0125C77.4276 44.1133 77.4474 44.2131 77.486 44.3062C77.5246 44.3994 77.5809 44.484 77.6522 44.5552C77.7234 44.6265 77.8083 44.683 77.9014 44.7216C77.9945 44.7602 78.0942 44.78 78.1949 44.78H82.5444C82.6457 44.7818 82.7462 44.7631 82.8402 44.7251C82.9341 44.6872 83.0193 44.6307 83.0909 44.5591C83.1625 44.4875 83.2188 44.4022 83.2568 44.3083C83.2947 44.2144 83.3135 44.1138 83.3117 44.0125C83.3117 43.809 83.2308 43.6138 83.0869 43.4698C82.9429 43.3259 82.748 43.245 82.5444 43.245V43.245Z" fill="#AA85FE"/>
<path d="M59.6321 46.0134H59.0095C58.9087 46.0134 58.8091 46.0333 58.716 46.0719C58.6228 46.1104 58.538 46.167 58.4667 46.2382C58.3955 46.3095 58.3392 46.3941 58.3006 46.4872C58.262 46.5804 58.2422 46.6802 58.2422 46.781C58.2422 46.8817 58.262 46.9816 58.3006 47.0747C58.3392 47.1678 58.3955 47.2524 58.4667 47.3237C58.538 47.3949 58.6228 47.4515 58.716 47.49C58.8091 47.5286 58.9087 47.5485 59.0095 47.5485H59.6321C59.7334 47.5502 59.8339 47.5315 59.9278 47.4936C60.0217 47.4556 60.107 47.3991 60.1786 47.3275C60.2502 47.2559 60.3065 47.1706 60.3444 47.0767C60.3824 46.9828 60.4011 46.8822 60.3994 46.781C60.3994 46.5774 60.3185 46.3822 60.1746 46.2382C60.0306 46.0943 59.8356 46.0134 59.6321 46.0134Z" fill="#9767FF"/>
<path d="M59.6321 66.6049H59.0095C58.9087 66.6049 58.8091 66.6247 58.716 66.6633C58.6228 66.7019 58.538 66.7584 58.4667 66.8297C58.3955 66.9009 58.3392 66.9855 58.3006 67.0787C58.262 67.1718 58.2422 67.2716 58.2422 67.3724C58.2422 67.4732 58.262 67.573 58.3006 67.6661C58.3392 67.7592 58.3955 67.8438 58.4667 67.9151C58.538 67.9864 58.6228 68.0429 58.716 68.0815C58.8091 68.12 58.9087 68.1399 59.0095 68.1399H59.6321C59.7334 68.1416 59.8339 68.1229 59.9278 68.085C60.0217 68.047 60.107 67.9906 60.1786 67.919C60.2502 67.8473 60.3065 67.762 60.3444 67.6681C60.3824 67.5742 60.4011 67.4737 60.3994 67.3724C60.3994 67.1688 60.3185 66.9736 60.1746 66.8297C60.0306 66.6857 59.8356 66.6049 59.6321 66.6049Z" fill="#242069"/>
</g>
</g>
<defs>
<filter id="filter0_ddddd_1563_1717" x="12.126" y="31.4351" width="47.6567" height="55.679" filterUnits="userSpaceOnUse" color-interpolation-filters="sRGB">
<feFlood flood-opacity="0" result="BackgroundImageFix"/>
<feColorMatrix in="SourceAlpha" type="matrix" values="0 0 0 0 0 0 0 0 0 0 0 0 0 0 0 0 0 0 127 0" result="hardAlpha"/>
<feOffset/>
<feColorMatrix type="matrix" values="0 0 0 0 0 0 0 0 0 0 0 0 0 0 0 0 0 0 0.1 0"/>
<feBlend mode="normal" in2="BackgroundImageFix" result="effect1_dropShadow_1563_1717"/>
<feColorMatrix in="SourceAlpha" type="matrix" values="0 0 0 0 0 0 0 0 0 0 0 0 0 0 0 0 0 0 127 0" result="hardAlpha"/>
<feOffset dy="1"/>
<feGaussianBlur stdDeviation="1"/>
<feColorMatrix type="matrix" values="0 0 0 0 0 0 0 0 0 0 0 0 0 0 0 0 0 0 0.1 0"/>
<feBlend mode="normal" in2="effect1_dropShadow_1563_1717" result="effect2_dropShadow_1563_1717"/>
<feColorMatrix in="SourceAlpha" type="matrix" values="0 0 0 0 0 0 0 0 0 0 0 0 0 0 0 0 0 0 127 0" result="hardAlpha"/>
<feOffset dy="3"/>
<feGaussianBlur stdDeviation="1.5"/>
<feColorMatrix type="matrix" values="0 0 0 0 0 0 0 0 0 0 0 0 0 0 0 0 0 0 0.09 0"/>
<feBlend mode="normal" in2="effect2_dropShadow_1563_1717" result="effect3_dropShadow_1563_1717"/>
<feColorMatrix in="SourceAlpha" type="matrix" values="0 0 0 0 0 0 0 0 0 0 0 0 0 0 0 0 0 0 127 0" result="hardAlpha"/>
<feOffset dy="7"/>
<feGaussianBlur stdDeviation="2"/>
<feColorMatrix type="matrix" values="0 0 0 0 0 0 0 0 0 0 0 0 0 0 0 0 0 0 0.05 0"/>
<feBlend mode="normal" in2="effect3_dropShadow_1563_1717" result="effect4_dropShadow_1563_1717"/>
<feColorMatrix in="SourceAlpha" type="matrix" values="0 0 0 0 0 0 0 0 0 0 0 0 0 0 0 0 0 0 127 0" result="hardAlpha"/>
<feOffset dx="1" dy="12"/>
<feGaussianBlur stdDeviation="2.5"/>
<feColorMatrix type="matrix" values="0 0 0 0 0 0 0 0 0 0 0 0 0 0 0 0 0 0 0.01 0"/>
<feBlend mode="normal" in2="effect4_dropShadow_1563_1717" result="effect5_dropShadow_1563_1717"/>
<feBlend mode="normal" in="SourceGraphic" in2="effect5_dropShadow_1563_1717" result="shape"/>
</filter>
<filter id="filter1_d_1563_1717" x="12.126" y="29.4351" width="40.7786" height="32.3552" filterUnits="userSpaceOnUse" color-interpolation-filters="sRGB">
<feFlood flood-opacity="0" result="BackgroundImageFix"/>
<feColorMatrix in="SourceAlpha" type="matrix" values="0 0 0 0 0 0 0 0 0 0 0 0 0 0 0 0 0 0 127 0" result="hardAlpha"/>
<feOffset dy="1"/>
<feGaussianBlur stdDeviation="2"/>
<feComposite in2="hardAlpha" operator="out"/>
<feColorMatrix type="matrix" values="0 0 0 0 0 0 0 0 0 0 0 0 0 0 0 0 0 0 0.25 0"/>
<feBlend mode="normal" in2="BackgroundImageFix" result="effect1_dropShadow_1563_1717"/>
<feBlend mode="normal" in="SourceGraphic" in2="effect1_dropShadow_1563_1717" result="shape"/>
</filter>
<filter id="filter2_ddddd_1563_1717" x="55.2422" y="33.9668" width="32.7095" height="46.1732" filterUnits="userSpaceOnUse" color-interpolation-filters="sRGB">
<feFlood flood-opacity="0" result="BackgroundImageFix"/>
<feColorMatrix in="SourceAlpha" type="matrix" values="0 0 0 0 0 0 0 0 0 0 0 0 0 0 0 0 0 0 127 0" result="hardAlpha"/>
<feOffset/>
<feColorMatrix type="matrix" values="0 0 0 0 0 0 0 0 0 0 0 0 0 0 0 0 0 0 0.1 0"/>
<feBlend mode="normal" in2="BackgroundImageFix" result="effect1_dropShadow_1563_1717"/>
<feColorMatrix in="SourceAlpha" type="matrix" values="0 0 0 0 0 0 0 0 0 0 0 0 0 0 0 0 0 0 127 0" result="hardAlpha"/>
<feOffset dy="1"/>
<feGaussianBlur stdDeviation="0.5"/>
<feColorMatrix type="matrix" values="0 0 0 0 0 0 0 0 0 0 0 0 0 0 0 0 0 0 0.1 0"/>
<feBlend mode="normal" in2="effect1_dropShadow_1563_1717" result="effect2_dropShadow_1563_1717"/>
<feColorMatrix in="SourceAlpha" type="matrix" values="0 0 0 0 0 0 0 0 0 0 0 0 0 0 0 0 0 0 127 0" result="hardAlpha"/>
<feOffset dy="2"/>
<feGaussianBlur stdDeviation="1"/>
<feColorMatrix type="matrix" values="0 0 0 0 0 0 0 0 0 0 0 0 0 0 0 0 0 0 0.09 0"/>
<feBlend mode="normal" in2="effect2_dropShadow_1563_1717" result="effect3_dropShadow_1563_1717"/>
<feColorMatrix in="SourceAlpha" type="matrix" values="0 0 0 0 0 0 0 0 0 0 0 0 0 0 0 0 0 0 127 0" result="hardAlpha"/>
<feOffset dy="5"/>
<feGaussianBlur stdDeviation="1.5"/>
<feColorMatrix type="matrix" values="0 0 0 0 0 0 0 0 0 0 0 0 0 0 0 0 0 0 0.05 0"/>
<feBlend mode="normal" in2="effect3_dropShadow_1563_1717" result="effect4_dropShadow_1563_1717"/>
<feColorMatrix in="SourceAlpha" type="matrix" values="0 0 0 0 0 0 0 0 0 0 0 0 0 0 0 0 0 0 127 0" result="hardAlpha"/>
<feOffset dy="9"/>
<feGaussianBlur stdDeviation="1.5"/>
<feColorMatrix type="matrix" values="0 0 0 0 0 0 0 0 0 0 0 0 0 0 0 0 0 0 0.01 0"/>
<feBlend mode="normal" in2="effect4_dropShadow_1563_1717" result="effect5_dropShadow_1563_1717"/>
<feBlend mode="normal" in="SourceGraphic" in2="effect5_dropShadow_1563_1717" result="shape"/>
</filter>
<linearGradient id="paint0_linear_1563_1717" x1="19.2227" y1="12.8899" x2="77.0171" y2="147.529" gradientUnits="userSpaceOnUse">
<stop offset="0.192708" stop-color="white"/>
<stop offset="1" stop-color="#D0C1F7"/>
</linearGradient>
<linearGradient id="paint1_linear_1563_1717" x1="3.65059" y1="-1.96286" x2="67.3765" y2="120.319" gradientUnits="userSpaceOnUse">
<stop stop-color="#9A89E6"/>
<stop offset="0.421875" stop-color="#6F61D3"/>
<stop offset="0.786458" stop-color="#403CAE"/>
</linearGradient>
<linearGradient id="paint2_linear_1563_1717" x1="35.0726" y1="53.7126" x2="40.6364" y2="62.1742" gradientUnits="userSpaceOnUse">
<stop stop-color="#7E70D3"/>
<stop offset="1" stop-color="#685AD3"/>
</linearGradient>
<linearGradient id="paint3_linear_1563_1717" x1="39.4051" y1="52.8618" x2="39.9105" y2="61.7917" gradientUnits="userSpaceOnUse">
<stop stop-color="#433FA9"/>
<stop offset="1" stop-color="#3D3697"/>
</linearGradient>
<linearGradient id="paint4_linear_1563_1717" x1="28.8246" y1="38.586" x2="34.0406" y2="47.859" gradientUnits="userSpaceOnUse">
<stop stop-color="#D4C6FA"/>
<stop offset="0.97" stop-color="#C7B7F6"/>
</linearGradient>
<linearGradient id="paint5_linear_1563_1717" x1="30.4141" y1="38.8855" x2="30.4141" y2="54.7631" gradientUnits="userSpaceOnUse">
<stop stop-color="#B2A1EC"/>
<stop offset="1" stop-color="#9889E3"/>
</linearGradient>
<clipPath id="clip0_1563_1717">
<rect width="102" height="102" fill="white" transform="translate(0.0893555)"/>
</clipPath>
</defs>
</svg>
