<svg width="103" height="103" viewBox="0 0 103 103" fill="none" xmlns="http://www.w3.org/2000/svg">
<path d="M51.124 98.6503C25.274 98.6503 4.31396 77.7003 4.31396 51.8403C4.31396 25.9803 25.274 5.03027 51.124 5.03027C76.974 5.03027 97.934 25.9903 97.934 51.8403C97.934 77.6903 76.974 98.6503 51.124 98.6503Z" fill="url(#paint0_linear_1272_1408)"/>
<path fill-rule="evenodd" clip-rule="evenodd" d="M97.0239 51.8404C97.0239 77.1904 76.4739 97.7404 51.1239 97.7404C25.7739 97.7404 5.22389 77.1904 5.22389 51.8404C5.22389 26.4904 25.7739 5.94044 51.1239 5.94044C76.4739 5.94044 97.0239 26.4904 97.0239 51.8404ZM51.1239 2.20044C78.5439 2.20044 100.764 24.4204 100.764 51.8404C100.764 79.2604 78.5339 101.48 51.1239 101.48C23.7039 101.48 1.48389 79.2504 1.48389 51.8404C1.48389 24.4204 23.7039 2.20044 51.1239 2.20044Z" fill="#F2F1F0"/>
<path fill-rule="evenodd" clip-rule="evenodd" d="M94.214 51.8403C94.214 75.6403 74.924 94.9303 51.1239 94.9303C27.3239 94.9303 8.03395 75.6403 8.03395 51.8403C8.03395 28.0403 27.3239 8.75026 51.1239 8.75026C74.924 8.75026 94.214 28.0403 94.214 51.8403ZM51.1239 5.01025C76.9839 5.01025 97.9539 25.9803 97.9539 51.8403C97.9539 77.7003 76.9839 98.6703 51.1239 98.6703C25.2639 98.6703 4.29395 77.7003 4.29395 51.8403C4.29395 25.9803 25.2539 5.01025 51.1239 5.01025Z" fill="url(#paint1_linear_1272_1408)"/>
<path d="M40.5431 73.659H38.6382V34.7993L60.7348 34.7041L60.7825 36.609L40.5431 36.7042V73.659Z" fill="#9B9BA0"/>
<path d="M48.9272 52.6089H42.022V54.5138H48.9272V52.6089Z" fill="#C7C7C7"/>
<path d="M47.9238 57.0854L54.0195 53.5614L47.9238 50.0374V57.0854Z" fill="#C7C7C7"/>
<path d="M28.3979 52.6089H21.4927V54.5138H28.3979V52.6089Z" fill="#C7C7C7"/>
<path d="M27.354 57.0854L33.4496 53.5614L27.354 50.0374V57.0854Z" fill="#C7C7C7"/>
<path d="M71.1152 52.6089H64.21V54.5138H71.1152V52.6089Z" fill="#C7C7C7"/>
<path d="M70.1182 57.0854L76.2138 53.5614L70.1182 50.0374V57.0854Z" fill="#C7C7C7"/>
<path d="M67.0223 29.6548H54.8311V41.8937H67.0699V29.6548H67.0223Z" fill="#998AE4"/>
<path d="M90.5464 53.5642L83.4031 46.4209L76.2598 53.5642L83.4031 60.7075L90.5464 53.5642Z" fill="#998AE4"/>
<path d="M45.6412 47.4663H33.4023V59.6576H45.6412V47.4663Z" fill="#554FC7"/>
<path d="M42.3069 65.468H36.7828C34.9255 65.468 33.4492 66.9443 33.4492 68.8016V74.3257C33.4492 76.183 34.9255 77.6593 36.7828 77.6593H42.3069C44.1642 77.6593 45.6405 76.183 45.6405 74.3257V68.8016C45.6405 66.9443 44.1166 65.468 42.3069 65.468Z" fill="#413CA2"/>
<path d="M43.0687 29.6548H36.0206L32.4966 35.7504L36.0206 41.846H43.0687L46.5927 35.7504L43.0687 29.6548Z" fill="#7F71D4"/>
<path d="M18.114 60.516C21.9713 60.516 25.0668 57.4206 25.0668 53.5632C25.0668 49.7058 21.9713 46.6104 18.114 46.6104C14.2566 46.6104 11.1611 49.7058 11.1611 53.5632C11.1611 57.4206 14.2566 60.516 18.114 60.516Z" fill="#D5C7FB"/>
<path d="M60.925 60.516C64.7824 60.516 67.8778 57.4206 67.8778 53.5632C67.8778 49.7058 64.7824 46.6104 60.925 46.6104C57.0676 46.6104 53.9722 49.7058 53.9722 53.5632C53.9722 57.4206 57.1152 60.516 60.925 60.516Z" fill="#C8B8F7"/>
<defs>
<linearGradient id="paint0_linear_1272_1408" x1="19.2573" y1="13.7303" x2="77.0517" y2="148.369" gradientUnits="userSpaceOnUse">
<stop offset="0.192708" stop-color="white"/>
<stop offset="1" stop-color="#D0C1F7"/>
</linearGradient>
<linearGradient id="paint1_linear_1272_1408" x1="3.68513" y1="-1.12265" x2="67.4111" y2="121.16" gradientUnits="userSpaceOnUse">
<stop stop-color="#9A89E6"/>
<stop offset="0.421875" stop-color="#6F61D3"/>
<stop offset="0.786458" stop-color="#403CAE"/>
</linearGradient>
</defs>
</svg>
