<svg width="103" height="102" viewBox="0 0 103 102" fill="none" xmlns="http://www.w3.org/2000/svg">
<g clip-path="url(#clip0_1563_1720)">
<path d="M51.0893 97.8099C25.2393 97.8099 4.2793 76.8599 4.2793 50.9999C4.2793 25.1399 25.2393 4.18994 51.0893 4.18994C76.9393 4.18994 97.8993 25.1499 97.8993 50.9999C97.8993 76.8499 76.9393 97.8099 51.0893 97.8099Z" fill="url(#paint0_linear_1563_1720)"/>
<path fill-rule="evenodd" clip-rule="evenodd" d="M96.9893 51.0001C96.9893 76.3501 76.4393 96.9001 51.0893 96.9001C25.7393 96.9001 5.18934 76.3501 5.18934 51.0001C5.18934 25.6501 25.7393 5.10011 51.0893 5.10011C76.4393 5.10011 96.9893 25.6501 96.9893 51.0001ZM51.0893 1.36011C78.5093 1.36011 100.729 23.5801 100.729 51.0001C100.729 78.4201 78.4993 100.64 51.0893 100.64C23.6693 100.64 1.44934 78.4101 1.44934 51.0001C1.44934 23.5801 23.6693 1.36011 51.0893 1.36011Z" fill="#F2F1F0"/>
<path fill-rule="evenodd" clip-rule="evenodd" d="M94.1794 50.9999C94.1794 74.7999 74.8894 94.0899 51.0894 94.0899C27.2894 94.0899 7.9994 74.7999 7.9994 50.9999C7.9994 27.1999 27.2894 7.90993 51.0894 7.90993C74.8894 7.90993 94.1794 27.1999 94.1794 50.9999ZM51.0894 4.16992C76.9494 4.16992 97.9194 25.1399 97.9194 50.9999C97.9194 76.8599 76.9494 97.8299 51.0894 97.8299C25.2294 97.8299 4.2594 76.8599 4.2594 50.9999C4.2594 25.1399 25.2194 4.16992 51.0894 4.16992Z" fill="url(#paint1_linear_1563_1720)"/>
<g filter="url(#filter0_ddddd_1563_1720)">
<path d="M86.2564 46.082C86.2564 45.341 85.6501 44.6673 84.8417 44.6673C84.3701 44.6673 81.2037 44.3978 79.5195 43.1178C78.9132 40.8272 77.97 38.6714 76.8247 36.5829C76.5552 34.6292 78.5089 33.2145 79.4521 31.7323C79.5869 31.4629 79.7216 31.3281 79.789 31.1934C79.9911 30.7218 79.8563 30.1155 79.4521 29.7786C79.4521 29.7786 77.9026 27.5554 76.3531 26.006C74.8036 24.4565 72.3783 22.7048 72.3783 22.7048C71.8394 22.1659 70.9636 22.1659 70.4246 22.7048C70.0878 23.0417 67.6625 24.9954 65.574 25.3322C63.6203 24.187 61.3298 23.3112 59.1066 22.6375C57.5571 21.4922 57.9613 19.0669 57.5571 17.3153C57.5571 16.5742 56.9507 15.9005 56.1423 15.9005C56.1423 15.9005 53.5149 15.429 51.2917 15.429C49.0685 15.429 46.1043 15.9005 46.1043 15.9005C45.3632 15.9005 44.6895 16.5069 44.6895 17.3153C44.6895 17.7869 44.42 20.9532 43.14 22.6375C40.9168 23.2438 38.6262 24.2543 36.6052 25.3322C34.6515 25.6017 33.2367 23.648 31.7546 22.7048C31.4851 22.5701 31.3504 22.4354 31.2156 22.368C30.744 22.1659 30.1377 22.3006 29.8009 22.7048C29.8009 22.7048 27.5777 24.2544 26.0282 25.8039C24.4787 27.3533 22.7271 29.7786 22.7271 29.7786C22.1881 30.3176 22.1881 31.1934 22.7271 31.7323C23.0639 32.0692 25.085 34.4945 25.3545 36.5829C24.2766 38.5367 23.266 40.8946 22.6597 43.0504C22.6597 43.0504 22.6597 42.983 22.6597 43.0504C21.3123 44.6673 19.0891 44.1957 17.3375 44.5999C16.5964 44.5999 15.9228 45.2062 15.9228 46.0147C15.9228 46.0147 15.4512 48.6421 15.4512 50.8653C15.4512 53.0884 15.9228 56.0527 15.9228 56.0527C15.9228 56.7938 16.5291 57.4675 17.3375 57.4675C17.8091 57.4675 20.9755 57.7369 22.6597 59.017C22.7271 59.017 22.6597 59.017 22.6597 59.017C23.3334 61.2401 24.2092 63.4633 25.3545 65.4171C25.3545 65.4171 25.3545 65.4171 25.3545 65.4844C25.5566 67.5055 23.6703 68.8529 22.7271 70.335C22.5923 70.6045 22.4576 70.7392 22.3902 70.874C22.1881 71.3455 22.3229 71.9519 22.7271 72.2888C22.7271 72.2888 24.2766 74.5119 25.8261 76.0614C27.3756 77.6109 29.8009 79.3625 29.8009 79.3625C30.3398 79.9015 31.2156 79.9015 31.7546 79.3625C32.0914 79.0257 34.5167 77.0046 36.6052 76.7351C38.6262 77.8804 40.7147 78.7562 43.0053 79.3625H43.0726C44.6221 80.5078 44.2179 82.9331 44.6221 84.6847C44.6895 85.4931 45.1611 85.9647 46.0369 86.0995C46.0369 86.0995 48.6643 86.571 50.8875 86.571C53.1107 86.571 56.0749 86.0995 56.0749 86.0995C56.816 85.9647 57.4897 85.4931 57.4897 84.6847C57.4897 84.2131 57.7592 81.0468 59.0392 79.3625C59.0392 79.3625 59.1065 79.2951 59.1739 79.2951C61.5318 78.6214 63.2835 77.9478 65.3046 76.7351C65.4393 76.6677 65.3046 76.7351 65.574 76.6677C67.5277 76.3983 68.9425 78.352 70.4246 79.2951C70.6941 79.4299 70.8288 79.5646 70.9636 79.632C71.4351 79.8341 72.0415 79.6994 72.3783 79.2951C72.3783 79.2951 74.6015 77.7456 76.151 76.1961C77.7005 74.6467 79.4521 72.2214 79.4521 72.2214C79.9911 71.6824 79.9911 70.8066 79.4521 70.2677C79.1153 69.9308 77.0942 67.5055 76.8247 65.4171C76.8247 65.2149 76.8247 65.1476 76.8247 65.1476C77.97 63.0591 78.711 61.577 79.3847 59.2191C79.3847 59.2191 79.3848 59.1517 79.5195 58.9496C80.6648 57.4001 83.0901 57.8043 84.8417 57.4001C85.5828 57.4001 86.2564 56.7938 86.2564 55.9853C86.2564 55.9853 86.728 53.3579 86.728 51.1347C86.728 48.9116 86.2564 46.082 86.2564 46.082ZM71.7046 51C71.7046 62.4528 62.4076 71.7498 50.9548 71.7498C39.502 71.7498 30.2051 62.4528 30.2051 51C30.2051 39.5472 39.502 30.2502 50.9548 30.2502C62.4076 30.3176 71.7046 39.6146 71.7046 51Z" fill="url(#paint2_linear_1563_1720)"/>
</g>
<g filter="url(#filter1_d_1563_1720)">
<circle cx="51.0898" cy="51" r="22.4023" fill="white"/>
</g>
<g filter="url(#filter2_ddddd_1563_1720)">
<path fill-rule="evenodd" clip-rule="evenodd" d="M44.3943 44.5634H61.27C62.3746 44.5634 63.27 43.6679 63.27 42.5634V42.363C63.27 41.2585 62.3746 40.363 61.27 40.363H44.3943V44.5634Z" fill="white"/>
<g filter="url(#filter3_d_1563_1720)">
<path fill-rule="evenodd" clip-rule="evenodd" d="M38.9092 42.5634C38.9092 43.6679 39.8046 44.5634 40.9092 44.5634H49.125V40.363H40.9092C39.8046 40.363 38.9092 41.2585 38.9092 42.363V42.5634Z" fill="url(#paint3_linear_1563_1720)"/>
</g>
</g>
<g filter="url(#filter4_ddddd_1563_1720)">
<path fill-rule="evenodd" clip-rule="evenodd" d="M49.6982 53.026H61.2692C62.3738 53.026 63.2692 52.1306 63.2692 51.026V50.8257C63.2692 49.7211 62.3738 48.8257 61.2692 48.8257H49.6982V53.026Z" fill="white"/>
<path fill-rule="evenodd" clip-rule="evenodd" d="M38.9092 50.9259C38.9092 52.0857 39.8495 53.026 41.0094 53.026H55.0616V48.8257H41.0093C39.8495 48.8257 38.9092 49.766 38.9092 50.9259V50.9259Z" fill="url(#paint4_linear_1563_1720)"/>
</g>
<g filter="url(#filter5_ddddd_1563_1720)">
<path fill-rule="evenodd" clip-rule="evenodd" d="M47.5898 61.6005H61.2699C62.3745 61.6005 63.2699 60.7051 63.2699 59.6005V59.4001C63.2699 58.2956 62.3745 57.4001 61.2699 57.4001H47.5898V61.6005Z" fill="white"/>
<path fill-rule="evenodd" clip-rule="evenodd" d="M38.9092 59.5003C38.9092 60.6602 39.8495 61.6005 41.0094 61.6005H49.125V57.4001H41.0094C39.8495 57.4001 38.9092 58.3404 38.9092 59.5003V59.5003Z" fill="url(#paint5_linear_1563_1720)"/>
</g>
<g filter="url(#filter6_dddddi_1563_1720)">
<circle cx="55.1663" cy="50.9131" r="2.117" fill="#C8BAFF"/>
</g>
<g filter="url(#filter7_dddddi_1563_1720)">
<circle cx="49.2252" cy="59.5198" r="2.117" fill="#635FCE"/>
</g>
<g filter="url(#filter8_dddddi_1563_1720)">
<circle cx="48.9634" cy="42.48" r="2.117" fill="#DFD5FF"/>
</g>
</g>
<defs>
<filter id="filter0_ddddd_1563_1720" x="12.4512" y="14.429" width="77.2769" height="82.1421" filterUnits="userSpaceOnUse" color-interpolation-filters="sRGB">
<feFlood flood-opacity="0" result="BackgroundImageFix"/>
<feColorMatrix in="SourceAlpha" type="matrix" values="0 0 0 0 0 0 0 0 0 0 0 0 0 0 0 0 0 0 127 0" result="hardAlpha"/>
<feOffset/>
<feColorMatrix type="matrix" values="0 0 0 0 0 0 0 0 0 0 0 0 0 0 0 0 0 0 0.1 0"/>
<feBlend mode="normal" in2="BackgroundImageFix" result="effect1_dropShadow_1563_1720"/>
<feColorMatrix in="SourceAlpha" type="matrix" values="0 0 0 0 0 0 0 0 0 0 0 0 0 0 0 0 0 0 127 0" result="hardAlpha"/>
<feOffset/>
<feGaussianBlur stdDeviation="0.5"/>
<feColorMatrix type="matrix" values="0 0 0 0 0 0 0 0 0 0 0 0 0 0 0 0 0 0 0.1 0"/>
<feBlend mode="normal" in2="effect1_dropShadow_1563_1720" result="effect2_dropShadow_1563_1720"/>
<feColorMatrix in="SourceAlpha" type="matrix" values="0 0 0 0 0 0 0 0 0 0 0 0 0 0 0 0 0 0 127 0" result="hardAlpha"/>
<feOffset dy="2"/>
<feGaussianBlur stdDeviation="1"/>
<feColorMatrix type="matrix" values="0 0 0 0 0 0 0 0 0 0 0 0 0 0 0 0 0 0 0.09 0"/>
<feBlend mode="normal" in2="effect2_dropShadow_1563_1720" result="effect3_dropShadow_1563_1720"/>
<feColorMatrix in="SourceAlpha" type="matrix" values="0 0 0 0 0 0 0 0 0 0 0 0 0 0 0 0 0 0 127 0" result="hardAlpha"/>
<feOffset dy="4"/>
<feGaussianBlur stdDeviation="1"/>
<feColorMatrix type="matrix" values="0 0 0 0 0 0 0 0 0 0 0 0 0 0 0 0 0 0 0.05 0"/>
<feBlend mode="normal" in2="effect3_dropShadow_1563_1720" result="effect4_dropShadow_1563_1720"/>
<feColorMatrix in="SourceAlpha" type="matrix" values="0 0 0 0 0 0 0 0 0 0 0 0 0 0 0 0 0 0 127 0" result="hardAlpha"/>
<feOffset dy="7"/>
<feGaussianBlur stdDeviation="1.5"/>
<feColorMatrix type="matrix" values="0 0 0 0 0 0 0 0 0 0 0 0 0 0 0 0 0 0 0.01 0"/>
<feBlend mode="normal" in2="effect4_dropShadow_1563_1720" result="effect5_dropShadow_1563_1720"/>
<feBlend mode="normal" in="SourceGraphic" in2="effect5_dropShadow_1563_1720" result="shape"/>
</filter>
<filter id="filter1_d_1563_1720" x="24.6875" y="28.5977" width="52.8046" height="52.8047" filterUnits="userSpaceOnUse" color-interpolation-filters="sRGB">
<feFlood flood-opacity="0" result="BackgroundImageFix"/>
<feColorMatrix in="SourceAlpha" type="matrix" values="0 0 0 0 0 0 0 0 0 0 0 0 0 0 0 0 0 0 127 0" result="hardAlpha"/>
<feOffset dy="4"/>
<feGaussianBlur stdDeviation="2"/>
<feComposite in2="hardAlpha" operator="out"/>
<feColorMatrix type="matrix" values="0 0 0 0 0 0 0 0 0 0 0 0 0 0 0 0 0 0 0.25 0"/>
<feBlend mode="normal" in2="BackgroundImageFix" result="effect1_dropShadow_1563_1720"/>
<feBlend mode="normal" in="SourceGraphic" in2="effect1_dropShadow_1563_1720" result="shape"/>
</filter>
<filter id="filter2_ddddd_1563_1720" x="36.9092" y="39.363" width="28.3608" height="12.2004" filterUnits="userSpaceOnUse" color-interpolation-filters="sRGB">
<feFlood flood-opacity="0" result="BackgroundImageFix"/>
<feColorMatrix in="SourceAlpha" type="matrix" values="0 0 0 0 0 0 0 0 0 0 0 0 0 0 0 0 0 0 127 0" result="hardAlpha"/>
<feOffset/>
<feColorMatrix type="matrix" values="0 0 0 0 0 0 0 0 0 0 0 0 0 0 0 0 0 0 0.1 0"/>
<feBlend mode="normal" in2="BackgroundImageFix" result="effect1_dropShadow_1563_1720"/>
<feColorMatrix in="SourceAlpha" type="matrix" values="0 0 0 0 0 0 0 0 0 0 0 0 0 0 0 0 0 0 127 0" result="hardAlpha"/>
<feOffset/>
<feGaussianBlur stdDeviation="0.5"/>
<feColorMatrix type="matrix" values="0 0 0 0 0 0 0 0 0 0 0 0 0 0 0 0 0 0 0.1 0"/>
<feBlend mode="normal" in2="effect1_dropShadow_1563_1720" result="effect2_dropShadow_1563_1720"/>
<feColorMatrix in="SourceAlpha" type="matrix" values="0 0 0 0 0 0 0 0 0 0 0 0 0 0 0 0 0 0 127 0" result="hardAlpha"/>
<feOffset dy="1"/>
<feGaussianBlur stdDeviation="0.5"/>
<feColorMatrix type="matrix" values="0 0 0 0 0 0 0 0 0 0 0 0 0 0 0 0 0 0 0.09 0"/>
<feBlend mode="normal" in2="effect2_dropShadow_1563_1720" result="effect3_dropShadow_1563_1720"/>
<feColorMatrix in="SourceAlpha" type="matrix" values="0 0 0 0 0 0 0 0 0 0 0 0 0 0 0 0 0 0 127 0" result="hardAlpha"/>
<feOffset dy="3"/>
<feGaussianBlur stdDeviation="1"/>
<feColorMatrix type="matrix" values="0 0 0 0 0 0 0 0 0 0 0 0 0 0 0 0 0 0 0.05 0"/>
<feBlend mode="normal" in2="effect3_dropShadow_1563_1720" result="effect4_dropShadow_1563_1720"/>
<feColorMatrix in="SourceAlpha" type="matrix" values="0 0 0 0 0 0 0 0 0 0 0 0 0 0 0 0 0 0 127 0" result="hardAlpha"/>
<feOffset dy="5"/>
<feGaussianBlur stdDeviation="1"/>
<feColorMatrix type="matrix" values="0 0 0 0 0 0 0 0 0 0 0 0 0 0 0 0 0 0 0.01 0"/>
<feBlend mode="normal" in2="effect4_dropShadow_1563_1720" result="effect5_dropShadow_1563_1720"/>
<feBlend mode="normal" in="SourceGraphic" in2="effect5_dropShadow_1563_1720" result="shape"/>
</filter>
<filter id="filter3_d_1563_1720" x="34.9092" y="37.363" width="18.2158" height="12.2004" filterUnits="userSpaceOnUse" color-interpolation-filters="sRGB">
<feFlood flood-opacity="0" result="BackgroundImageFix"/>
<feColorMatrix in="SourceAlpha" type="matrix" values="0 0 0 0 0 0 0 0 0 0 0 0 0 0 0 0 0 0 127 0" result="hardAlpha"/>
<feOffset dy="1"/>
<feGaussianBlur stdDeviation="2"/>
<feComposite in2="hardAlpha" operator="out"/>
<feColorMatrix type="matrix" values="0 0 0 0 0 0 0 0 0 0 0 0 0 0 0 0 0 0 0.25 0"/>
<feBlend mode="normal" in2="BackgroundImageFix" result="effect1_dropShadow_1563_1720"/>
<feBlend mode="normal" in="SourceGraphic" in2="effect1_dropShadow_1563_1720" result="shape"/>
</filter>
<filter id="filter4_ddddd_1563_1720" x="37.9092" y="47.8257" width="26.3601" height="10.2004" filterUnits="userSpaceOnUse" color-interpolation-filters="sRGB">
<feFlood flood-opacity="0" result="BackgroundImageFix"/>
<feColorMatrix in="SourceAlpha" type="matrix" values="0 0 0 0 0 0 0 0 0 0 0 0 0 0 0 0 0 0 127 0" result="hardAlpha"/>
<feOffset/>
<feColorMatrix type="matrix" values="0 0 0 0 0 0 0 0 0 0 0 0 0 0 0 0 0 0 0.1 0"/>
<feBlend mode="normal" in2="BackgroundImageFix" result="effect1_dropShadow_1563_1720"/>
<feColorMatrix in="SourceAlpha" type="matrix" values="0 0 0 0 0 0 0 0 0 0 0 0 0 0 0 0 0 0 127 0" result="hardAlpha"/>
<feOffset/>
<feGaussianBlur stdDeviation="0.5"/>
<feColorMatrix type="matrix" values="0 0 0 0 0 0 0 0 0 0 0 0 0 0 0 0 0 0 0.1 0"/>
<feBlend mode="normal" in2="effect1_dropShadow_1563_1720" result="effect2_dropShadow_1563_1720"/>
<feColorMatrix in="SourceAlpha" type="matrix" values="0 0 0 0 0 0 0 0 0 0 0 0 0 0 0 0 0 0 127 0" result="hardAlpha"/>
<feOffset dy="1"/>
<feGaussianBlur stdDeviation="0.5"/>
<feColorMatrix type="matrix" values="0 0 0 0 0 0 0 0 0 0 0 0 0 0 0 0 0 0 0.09 0"/>
<feBlend mode="normal" in2="effect2_dropShadow_1563_1720" result="effect3_dropShadow_1563_1720"/>
<feColorMatrix in="SourceAlpha" type="matrix" values="0 0 0 0 0 0 0 0 0 0 0 0 0 0 0 0 0 0 127 0" result="hardAlpha"/>
<feOffset dy="2"/>
<feGaussianBlur stdDeviation="0.5"/>
<feColorMatrix type="matrix" values="0 0 0 0 0 0 0 0 0 0 0 0 0 0 0 0 0 0 0.05 0"/>
<feBlend mode="normal" in2="effect3_dropShadow_1563_1720" result="effect4_dropShadow_1563_1720"/>
<feColorMatrix in="SourceAlpha" type="matrix" values="0 0 0 0 0 0 0 0 0 0 0 0 0 0 0 0 0 0 127 0" result="hardAlpha"/>
<feOffset dy="4"/>
<feGaussianBlur stdDeviation="0.5"/>
<feColorMatrix type="matrix" values="0 0 0 0 0 0 0 0 0 0 0 0 0 0 0 0 0 0 0.01 0"/>
<feBlend mode="normal" in2="effect4_dropShadow_1563_1720" result="effect5_dropShadow_1563_1720"/>
<feBlend mode="normal" in="SourceGraphic" in2="effect5_dropShadow_1563_1720" result="shape"/>
</filter>
<filter id="filter5_ddddd_1563_1720" x="37.9092" y="57.4001" width="26.3607" height="8.20044" filterUnits="userSpaceOnUse" color-interpolation-filters="sRGB">
<feFlood flood-opacity="0" result="BackgroundImageFix"/>
<feColorMatrix in="SourceAlpha" type="matrix" values="0 0 0 0 0 0 0 0 0 0 0 0 0 0 0 0 0 0 127 0" result="hardAlpha"/>
<feOffset/>
<feColorMatrix type="matrix" values="0 0 0 0 0 0 0 0 0 0 0 0 0 0 0 0 0 0 0.1 0"/>
<feBlend mode="normal" in2="BackgroundImageFix" result="effect1_dropShadow_1563_1720"/>
<feColorMatrix in="SourceAlpha" type="matrix" values="0 0 0 0 0 0 0 0 0 0 0 0 0 0 0 0 0 0 127 0" result="hardAlpha"/>
<feOffset/>
<feColorMatrix type="matrix" values="0 0 0 0 0 0 0 0 0 0 0 0 0 0 0 0 0 0 0.1 0"/>
<feBlend mode="normal" in2="effect1_dropShadow_1563_1720" result="effect2_dropShadow_1563_1720"/>
<feColorMatrix in="SourceAlpha" type="matrix" values="0 0 0 0 0 0 0 0 0 0 0 0 0 0 0 0 0 0 127 0" result="hardAlpha"/>
<feOffset dy="1"/>
<feGaussianBlur stdDeviation="0.5"/>
<feColorMatrix type="matrix" values="0 0 0 0 0 0 0 0 0 0 0 0 0 0 0 0 0 0 0.09 0"/>
<feBlend mode="normal" in2="effect2_dropShadow_1563_1720" result="effect3_dropShadow_1563_1720"/>
<feColorMatrix in="SourceAlpha" type="matrix" values="0 0 0 0 0 0 0 0 0 0 0 0 0 0 0 0 0 0 127 0" result="hardAlpha"/>
<feOffset dy="2"/>
<feGaussianBlur stdDeviation="0.5"/>
<feColorMatrix type="matrix" values="0 0 0 0 0 0 0 0 0 0 0 0 0 0 0 0 0 0 0.05 0"/>
<feBlend mode="normal" in2="effect3_dropShadow_1563_1720" result="effect4_dropShadow_1563_1720"/>
<feColorMatrix in="SourceAlpha" type="matrix" values="0 0 0 0 0 0 0 0 0 0 0 0 0 0 0 0 0 0 127 0" result="hardAlpha"/>
<feOffset dy="3"/>
<feGaussianBlur stdDeviation="0.5"/>
<feColorMatrix type="matrix" values="0 0 0 0 0 0 0 0 0 0 0 0 0 0 0 0 0 0 0.01 0"/>
<feBlend mode="normal" in2="effect4_dropShadow_1563_1720" result="effect5_dropShadow_1563_1720"/>
<feBlend mode="normal" in="SourceGraphic" in2="effect5_dropShadow_1563_1720" result="shape"/>
</filter>
<filter id="filter6_dddddi_1563_1720" x="52.0493" y="47.7961" width="6.23401" height="7.23389" filterUnits="userSpaceOnUse" color-interpolation-filters="sRGB">
<feFlood flood-opacity="0" result="BackgroundImageFix"/>
<feColorMatrix in="SourceAlpha" type="matrix" values="0 0 0 0 0 0 0 0 0 0 0 0 0 0 0 0 0 0 127 0" result="hardAlpha"/>
<feOffset/>
<feColorMatrix type="matrix" values="0 0 0 0 0 0 0 0 0 0 0 0 0 0 0 0 0 0 0.1 0"/>
<feBlend mode="normal" in2="BackgroundImageFix" result="effect1_dropShadow_1563_1720"/>
<feColorMatrix in="SourceAlpha" type="matrix" values="0 0 0 0 0 0 0 0 0 0 0 0 0 0 0 0 0 0 127 0" result="hardAlpha"/>
<feOffset/>
<feColorMatrix type="matrix" values="0 0 0 0 0 0 0 0 0 0 0 0 0 0 0 0 0 0 0.1 0"/>
<feBlend mode="normal" in2="effect1_dropShadow_1563_1720" result="effect2_dropShadow_1563_1720"/>
<feColorMatrix in="SourceAlpha" type="matrix" values="0 0 0 0 0 0 0 0 0 0 0 0 0 0 0 0 0 0 127 0" result="hardAlpha"/>
<feOffset/>
<feGaussianBlur stdDeviation="0.5"/>
<feColorMatrix type="matrix" values="0 0 0 0 0 0 0 0 0 0 0 0 0 0 0 0 0 0 0.09 0"/>
<feBlend mode="normal" in2="effect2_dropShadow_1563_1720" result="effect3_dropShadow_1563_1720"/>
<feColorMatrix in="SourceAlpha" type="matrix" values="0 0 0 0 0 0 0 0 0 0 0 0 0 0 0 0 0 0 127 0" result="hardAlpha"/>
<feOffset dy="1"/>
<feGaussianBlur stdDeviation="0.5"/>
<feColorMatrix type="matrix" values="0 0 0 0 0 0 0 0 0 0 0 0 0 0 0 0 0 0 0.05 0"/>
<feBlend mode="normal" in2="effect3_dropShadow_1563_1720" result="effect4_dropShadow_1563_1720"/>
<feColorMatrix in="SourceAlpha" type="matrix" values="0 0 0 0 0 0 0 0 0 0 0 0 0 0 0 0 0 0 127 0" result="hardAlpha"/>
<feOffset dy="1"/>
<feGaussianBlur stdDeviation="0.5"/>
<feColorMatrix type="matrix" values="0 0 0 0 0 0 0 0 0 0 0 0 0 0 0 0 0 0 0.01 0"/>
<feBlend mode="normal" in2="effect4_dropShadow_1563_1720" result="effect5_dropShadow_1563_1720"/>
<feBlend mode="normal" in="SourceGraphic" in2="effect5_dropShadow_1563_1720" result="shape"/>
<feColorMatrix in="SourceAlpha" type="matrix" values="0 0 0 0 0 0 0 0 0 0 0 0 0 0 0 0 0 0 127 0" result="hardAlpha"/>
<feOffset dx="0.2" dy="0.5"/>
<feGaussianBlur stdDeviation="0.25"/>
<feComposite in2="hardAlpha" operator="arithmetic" k2="-1" k3="1"/>
<feColorMatrix type="matrix" values="0 0 0 0 1 0 0 0 0 1 0 0 0 0 1 0 0 0 0.1 0"/>
<feBlend mode="normal" in2="shape" result="effect6_innerShadow_1563_1720"/>
</filter>
<filter id="filter7_dddddi_1563_1720" x="46.1082" y="56.4028" width="6.23401" height="7.23389" filterUnits="userSpaceOnUse" color-interpolation-filters="sRGB">
<feFlood flood-opacity="0" result="BackgroundImageFix"/>
<feColorMatrix in="SourceAlpha" type="matrix" values="0 0 0 0 0 0 0 0 0 0 0 0 0 0 0 0 0 0 127 0" result="hardAlpha"/>
<feOffset/>
<feColorMatrix type="matrix" values="0 0 0 0 0 0 0 0 0 0 0 0 0 0 0 0 0 0 0.1 0"/>
<feBlend mode="normal" in2="BackgroundImageFix" result="effect1_dropShadow_1563_1720"/>
<feColorMatrix in="SourceAlpha" type="matrix" values="0 0 0 0 0 0 0 0 0 0 0 0 0 0 0 0 0 0 127 0" result="hardAlpha"/>
<feOffset/>
<feColorMatrix type="matrix" values="0 0 0 0 0 0 0 0 0 0 0 0 0 0 0 0 0 0 0.1 0"/>
<feBlend mode="normal" in2="effect1_dropShadow_1563_1720" result="effect2_dropShadow_1563_1720"/>
<feColorMatrix in="SourceAlpha" type="matrix" values="0 0 0 0 0 0 0 0 0 0 0 0 0 0 0 0 0 0 127 0" result="hardAlpha"/>
<feOffset/>
<feGaussianBlur stdDeviation="0.5"/>
<feColorMatrix type="matrix" values="0 0 0 0 0 0 0 0 0 0 0 0 0 0 0 0 0 0 0.09 0"/>
<feBlend mode="normal" in2="effect2_dropShadow_1563_1720" result="effect3_dropShadow_1563_1720"/>
<feColorMatrix in="SourceAlpha" type="matrix" values="0 0 0 0 0 0 0 0 0 0 0 0 0 0 0 0 0 0 127 0" result="hardAlpha"/>
<feOffset dy="1"/>
<feGaussianBlur stdDeviation="0.5"/>
<feColorMatrix type="matrix" values="0 0 0 0 0 0 0 0 0 0 0 0 0 0 0 0 0 0 0.05 0"/>
<feBlend mode="normal" in2="effect3_dropShadow_1563_1720" result="effect4_dropShadow_1563_1720"/>
<feColorMatrix in="SourceAlpha" type="matrix" values="0 0 0 0 0 0 0 0 0 0 0 0 0 0 0 0 0 0 127 0" result="hardAlpha"/>
<feOffset dy="1"/>
<feGaussianBlur stdDeviation="0.5"/>
<feColorMatrix type="matrix" values="0 0 0 0 0 0 0 0 0 0 0 0 0 0 0 0 0 0 0.01 0"/>
<feBlend mode="normal" in2="effect4_dropShadow_1563_1720" result="effect5_dropShadow_1563_1720"/>
<feBlend mode="normal" in="SourceGraphic" in2="effect5_dropShadow_1563_1720" result="shape"/>
<feColorMatrix in="SourceAlpha" type="matrix" values="0 0 0 0 0 0 0 0 0 0 0 0 0 0 0 0 0 0 127 0" result="hardAlpha"/>
<feOffset dx="0.2" dy="0.5"/>
<feGaussianBlur stdDeviation="0.25"/>
<feComposite in2="hardAlpha" operator="arithmetic" k2="-1" k3="1"/>
<feColorMatrix type="matrix" values="0 0 0 0 1 0 0 0 0 1 0 0 0 0 1 0 0 0 0.1 0"/>
<feBlend mode="normal" in2="shape" result="effect6_innerShadow_1563_1720"/>
</filter>
<filter id="filter8_dddddi_1563_1720" x="45.8464" y="39.363" width="6.23401" height="7.23389" filterUnits="userSpaceOnUse" color-interpolation-filters="sRGB">
<feFlood flood-opacity="0" result="BackgroundImageFix"/>
<feColorMatrix in="SourceAlpha" type="matrix" values="0 0 0 0 0 0 0 0 0 0 0 0 0 0 0 0 0 0 127 0" result="hardAlpha"/>
<feOffset/>
<feColorMatrix type="matrix" values="0 0 0 0 0 0 0 0 0 0 0 0 0 0 0 0 0 0 0.1 0"/>
<feBlend mode="normal" in2="BackgroundImageFix" result="effect1_dropShadow_1563_1720"/>
<feColorMatrix in="SourceAlpha" type="matrix" values="0 0 0 0 0 0 0 0 0 0 0 0 0 0 0 0 0 0 127 0" result="hardAlpha"/>
<feOffset/>
<feColorMatrix type="matrix" values="0 0 0 0 0 0 0 0 0 0 0 0 0 0 0 0 0 0 0.1 0"/>
<feBlend mode="normal" in2="effect1_dropShadow_1563_1720" result="effect2_dropShadow_1563_1720"/>
<feColorMatrix in="SourceAlpha" type="matrix" values="0 0 0 0 0 0 0 0 0 0 0 0 0 0 0 0 0 0 127 0" result="hardAlpha"/>
<feOffset/>
<feGaussianBlur stdDeviation="0.5"/>
<feColorMatrix type="matrix" values="0 0 0 0 0 0 0 0 0 0 0 0 0 0 0 0 0 0 0.09 0"/>
<feBlend mode="normal" in2="effect2_dropShadow_1563_1720" result="effect3_dropShadow_1563_1720"/>
<feColorMatrix in="SourceAlpha" type="matrix" values="0 0 0 0 0 0 0 0 0 0 0 0 0 0 0 0 0 0 127 0" result="hardAlpha"/>
<feOffset dy="1"/>
<feGaussianBlur stdDeviation="0.5"/>
<feColorMatrix type="matrix" values="0 0 0 0 0 0 0 0 0 0 0 0 0 0 0 0 0 0 0.05 0"/>
<feBlend mode="normal" in2="effect3_dropShadow_1563_1720" result="effect4_dropShadow_1563_1720"/>
<feColorMatrix in="SourceAlpha" type="matrix" values="0 0 0 0 0 0 0 0 0 0 0 0 0 0 0 0 0 0 127 0" result="hardAlpha"/>
<feOffset dy="1"/>
<feGaussianBlur stdDeviation="0.5"/>
<feColorMatrix type="matrix" values="0 0 0 0 0 0 0 0 0 0 0 0 0 0 0 0 0 0 0.01 0"/>
<feBlend mode="normal" in2="effect4_dropShadow_1563_1720" result="effect5_dropShadow_1563_1720"/>
<feBlend mode="normal" in="SourceGraphic" in2="effect5_dropShadow_1563_1720" result="shape"/>
<feColorMatrix in="SourceAlpha" type="matrix" values="0 0 0 0 0 0 0 0 0 0 0 0 0 0 0 0 0 0 127 0" result="hardAlpha"/>
<feOffset dx="0.2" dy="0.5"/>
<feGaussianBlur stdDeviation="0.25"/>
<feComposite in2="hardAlpha" operator="arithmetic" k2="-1" k3="1"/>
<feColorMatrix type="matrix" values="0 0 0 0 1 0 0 0 0 1 0 0 0 0 1 0 0 0 0.1 0"/>
<feBlend mode="normal" in2="shape" result="effect6_innerShadow_1563_1720"/>
</filter>
<linearGradient id="paint0_linear_1563_1720" x1="19.2227" y1="12.8899" x2="77.0171" y2="147.529" gradientUnits="userSpaceOnUse">
<stop offset="0.192708" stop-color="white"/>
<stop offset="1" stop-color="#D0C1F7"/>
</linearGradient>
<linearGradient id="paint1_linear_1563_1720" x1="3.65059" y1="-1.96298" x2="67.3765" y2="120.319" gradientUnits="userSpaceOnUse">
<stop stop-color="#9A89E6"/>
<stop offset="0.421875" stop-color="#6F61D3"/>
<stop offset="0.786458" stop-color="#403CAE"/>
</linearGradient>
<linearGradient id="paint2_linear_1563_1720" x1="14.9879" y1="10.7705" x2="63.3402" y2="103.728" gradientUnits="userSpaceOnUse">
<stop stop-color="#9A89E6"/>
<stop offset="0.421875" stop-color="#6F61D3"/>
<stop offset="0.786458" stop-color="#403CAE"/>
</linearGradient>
<linearGradient id="paint3_linear_1563_1720" x1="42.8669" y1="41.3518" x2="43.392" y2="43.1617" gradientUnits="userSpaceOnUse">
<stop stop-color="#D4C6FA"/>
<stop offset="0.97" stop-color="#C7B7F6"/>
</linearGradient>
<linearGradient id="paint4_linear_1563_1720" x1="46.9854" y1="49.3349" x2="46.9854" y2="52.4132" gradientUnits="userSpaceOnUse">
<stop stop-color="#B2A1EC"/>
<stop offset="1" stop-color="#9889E3"/>
</linearGradient>
<linearGradient id="paint5_linear_1563_1720" x1="43.9706" y1="59.1267" x2="44.0232" y2="60.8546" gradientUnits="userSpaceOnUse">
<stop stop-color="#433FA9"/>
<stop offset="1" stop-color="#3D3697"/>
</linearGradient>
<clipPath id="clip0_1563_1720">
<rect width="102" height="102" fill="white" transform="translate(0.0893555)"/>
</clipPath>
</defs>
</svg>
