<svg width="103" height="103" viewBox="0 0 103 103" fill="none" xmlns="http://www.w3.org/2000/svg">
<path d="M51.124 98.0963C25.274 98.0963 4.31396 77.1463 4.31396 51.2863C4.31396 25.4263 25.274 4.47632 51.124 4.47632C76.974 4.47632 97.934 25.4363 97.934 51.2863C97.934 77.1363 76.974 98.0963 51.124 98.0963Z" fill="url(#paint0_linear_1272_1430)"/>
<path fill-rule="evenodd" clip-rule="evenodd" d="M97.0239 51.2864C97.0239 76.6364 76.4739 97.1864 51.1239 97.1864C25.7739 97.1864 5.22389 76.6364 5.22389 51.2864C5.22389 25.9364 25.7739 5.38637 51.1239 5.38637C76.4739 5.38637 97.0239 25.9364 97.0239 51.2864ZM51.1239 1.64636C78.5439 1.64636 100.764 23.8664 100.764 51.2864C100.764 78.7064 78.5339 100.926 51.1239 100.926C23.7039 100.926 1.48389 78.6964 1.48389 51.2864C1.48389 23.8664 23.7039 1.64636 51.1239 1.64636Z" fill="#F2F1F0"/>
<path fill-rule="evenodd" clip-rule="evenodd" d="M94.214 51.2863C94.214 75.0863 74.924 94.3763 51.1239 94.3763C27.3239 94.3763 8.03395 75.0863 8.03395 51.2863C8.03395 27.4863 27.3239 8.1963 51.1239 8.1963C74.924 8.1963 94.214 27.4863 94.214 51.2863ZM51.1239 4.4563C76.9839 4.4563 97.9539 25.4263 97.9539 51.2863C97.9539 77.1463 76.9839 98.1163 51.1239 98.1163C25.2639 98.1163 4.29395 77.1463 4.29395 51.2863C4.29395 25.4263 25.2539 4.4563 51.1239 4.4563Z" fill="url(#paint1_linear_1272_1430)"/>
<path fill-rule="evenodd" clip-rule="evenodd" d="M81.2446 71.1446C81.2446 71.4718 80.9794 71.7371 80.6522 71.7371L65.9903 71.7371L65.9903 70.5521L80.0597 70.5521L80.0597 32.8442L65.9903 32.8442L65.9903 31.6593L80.6522 31.6593C80.9794 31.6593 81.2446 31.9246 81.2446 32.2518L81.2446 71.1446Z" fill="#78787D"/>
<path fill-rule="evenodd" clip-rule="evenodd" d="M80.6519 45.3295L65.99 45.3295L65.99 44.1445L80.6519 44.1445L80.6519 45.3295Z" fill="#78787D"/>
<path fill-rule="evenodd" clip-rule="evenodd" d="M80.6519 57.9619L65.99 57.9619L65.99 56.777L80.6519 56.777L80.6519 57.9619Z" fill="#78787D"/>
<path fill-rule="evenodd" clip-rule="evenodd" d="M85.228 50.421L80.4397 50.421L80.4397 51.606L85.228 51.606L85.228 50.421Z" fill="#78787D"/>
<path opacity="0.15" d="M76.556 27.9833H64.2036C63.8411 27.9833 63.493 28.1265 63.2356 28.3819C62.9783 28.6372 62.8329 28.984 62.8301 29.3465V36.9021C62.8324 37.2629 62.9766 37.6083 63.2315 37.8636C63.3578 37.9931 63.5091 38.0954 63.6763 38.1644C63.8434 38.2335 64.0228 38.2677 64.2036 38.2651H76.556C76.8251 38.2681 77.0892 38.1903 77.3134 38.0414C77.5377 37.8925 77.7122 37.6797 77.8139 37.4305C77.8854 37.2636 77.9209 37.0837 77.9192 36.9021V29.3676C77.9157 29.1866 77.8803 29.0077 77.8139 28.8393C77.7455 28.6733 77.6446 28.5225 77.5177 28.3955C77.3927 28.2663 77.2414 28.1654 77.074 28.0996C76.9114 28.0251 76.7348 27.9854 76.556 27.9833Z" fill="#1F1D20"/>
<path opacity="0.15" d="M76.556 53.1314H64.2036C63.8411 53.1314 63.493 53.2746 63.2356 53.53C62.9783 53.7853 62.8329 54.1321 62.8301 54.4946V62.0605C62.8319 62.4246 62.9759 62.7737 63.2315 63.0329C63.3597 63.159 63.5115 63.2583 63.6783 63.3254C63.8452 63.3926 64.0238 63.4259 64.2036 63.4237H76.556C76.7329 63.424 76.9087 63.3919 77.074 63.3288C77.2394 63.2592 77.3899 63.1587 77.5177 63.0329C77.647 62.9078 77.7482 62.7563 77.8139 62.5889C77.8803 62.4205 77.9157 62.2415 77.9192 62.0605V54.4946C77.9192 54.1311 77.7769 53.7823 77.5219 53.5233C77.2668 53.2643 76.9194 53.1158 76.556 53.1102V53.1314Z" fill="#1F1D20"/>
<path opacity="0.15" d="M76.556 40.5348H64.2036C63.8411 40.5348 63.493 40.678 63.2356 40.9334C62.9783 41.1887 62.8329 41.5355 62.8301 41.898V49.4428C62.8319 49.8068 62.9759 50.1557 63.2315 50.4149C63.3597 50.541 63.5115 50.6406 63.6783 50.7077C63.8452 50.7748 64.0238 50.8082 64.2036 50.806H76.556C76.7361 50.8151 76.9161 50.7862 77.0843 50.7214C77.2515 50.6492 77.4058 50.5491 77.5394 50.4255C77.6689 50.2965 77.769 50.1417 77.8345 49.9712C77.9069 49.8045 77.9435 49.6244 77.9408 49.4428V41.8874C77.9306 41.5241 77.7786 41.1789 77.5177 40.9257C77.2613 40.6736 76.9155 40.5332 76.556 40.5348Z" fill="#1F1D20"/>
<g opacity="0.15">
<path opacity="0.15" d="M76.556 27.9689H64.2036C63.8411 27.9689 63.493 28.1121 63.2356 28.3675C62.9783 28.6228 62.8329 28.9696 62.8301 29.3321V36.8983C62.8324 37.2591 62.9766 37.6044 63.2315 37.8598C63.3578 37.9892 63.5091 38.0916 63.6763 38.1606C63.8434 38.2297 64.0228 38.2638 64.2036 38.2612H76.556C76.7329 38.2614 76.9087 38.2294 77.074 38.1663C77.2394 38.0967 77.3899 37.9962 77.5177 37.8704C77.6446 37.7434 77.7455 37.5926 77.8139 37.4266C77.8803 37.2582 77.9157 37.0793 77.9192 36.8983V29.3638C77.9209 29.1823 77.8854 29.0023 77.8139 28.8354C77.7496 28.6667 77.6521 28.5124 77.5281 28.3811C77.3991 28.2517 77.2446 28.1508 77.074 28.0852C76.9119 28.0095 76.7349 27.9697 76.556 27.9689Z" fill="#1F1D20"/>
<path opacity="0.15" d="M76.556 53.1277H64.2036C63.8411 53.1277 63.493 53.271 63.2356 53.5263C62.9783 53.7817 62.8329 54.1284 62.8301 54.4909V62.0569C62.8319 62.4209 62.9759 62.77 63.2315 63.0292C63.3597 63.1553 63.5115 63.2547 63.6783 63.3218C63.8452 63.3889 64.0238 63.4223 64.2036 63.4201H76.556C76.9155 63.4217 77.2613 63.2813 77.5177 63.0292C77.7733 62.77 77.9173 62.4209 77.9192 62.0569V54.4909C77.9192 54.1274 77.7769 53.7786 77.5219 53.5196C77.2668 53.2606 76.9194 53.1121 76.556 53.1066V53.1277Z" fill="#1F1D20"/>
<path opacity="0.15" d="M76.556 40.5337H64.2036C63.8411 40.5337 63.493 40.677 63.2356 40.9323C62.9783 41.1876 62.8329 41.5344 62.8301 41.8969V49.4417C62.8319 49.8057 62.9759 50.1546 63.2315 50.4138C63.3597 50.5399 63.5115 50.6395 63.6783 50.7066C63.8452 50.7737 64.0238 50.8071 64.2036 50.8049H76.556C76.7361 50.814 76.9161 50.7851 77.0843 50.7203C77.2515 50.6481 77.4058 50.548 77.5394 50.4244C77.6689 50.2954 77.769 50.1406 77.8345 49.9701C77.9069 49.8034 77.9435 49.6233 77.9408 49.4417V41.8863C77.9306 41.523 77.7786 41.1778 77.5177 40.9246C77.2613 40.6725 76.9155 40.5321 76.556 40.5337Z" fill="#1F1D20"/>
</g>
<g filter="url(#filter0_d_1272_1430)">
<path d="M76.556 27.0823H64.2036C63.8411 27.0823 63.493 27.2255 63.2356 27.4809C62.9783 27.7362 62.8329 28.083 62.8301 28.4455V36.0009C62.8341 36.3645 62.9778 36.7125 63.2315 36.9729C63.3597 37.099 63.5115 37.1987 63.6783 37.2658C63.8452 37.3329 64.0238 37.3662 64.2036 37.3641H76.556C76.8251 37.3671 77.0892 37.289 77.3134 37.1401C77.5377 36.9913 77.7122 36.7784 77.8139 36.5292C77.8854 36.3623 77.9209 36.1824 77.9192 36.0009V28.4455C77.9111 28.0865 77.7655 27.7443 77.5116 27.4904C77.2576 27.2365 76.915 27.0903 76.556 27.0823Z" fill="url(#paint2_linear_1272_1430)"/>
</g>
<path d="M76.556 52.2328H64.2036C63.8411 52.2328 63.493 52.376 63.2356 52.6314C62.9783 52.8867 62.8329 53.2332 62.8301 53.5957V61.1619C62.8336 61.3429 62.869 61.5219 62.9353 61.6903C63.0052 61.8524 63.106 61.9994 63.2315 62.1235C63.3589 62.2525 63.5094 62.3565 63.6752 62.4299C63.8443 62.4929 64.0232 62.5252 64.2036 62.5251H76.556C76.7328 62.5244 76.9084 62.4921 77.074 62.4299C77.2398 62.3565 77.3903 62.2525 77.5177 62.1235C77.6433 61.9994 77.744 61.8524 77.8139 61.6903C77.8803 61.5219 77.9157 61.3429 77.9192 61.1619V53.6698C77.9194 53.4859 77.8874 53.3035 77.8242 53.1308C77.7602 52.9588 77.6638 52.801 77.5394 52.6659C77.4115 52.5301 77.256 52.4221 77.0843 52.3489C76.9165 52.2791 76.7376 52.2399 76.556 52.2328Z" fill="url(#paint3_linear_1272_1430)"/>
<path d="M76.556 39.6375H64.2036C63.8411 39.6374 63.493 39.7807 63.2356 40.036C62.9783 40.2914 62.8329 40.6381 62.8301 41.0006V48.556C62.8319 48.9201 62.9759 49.2691 63.2315 49.5284C63.3597 49.6545 63.5115 49.7538 63.6783 49.8209C63.8452 49.888 64.0238 49.9214 64.2036 49.9192H76.556C76.8251 49.9222 77.0892 49.8444 77.3134 49.6956C77.5377 49.5467 77.7122 49.3336 77.8139 49.0844C77.8854 48.9175 77.9209 48.7376 77.9192 48.556V40.9901C77.9084 40.6329 77.7611 40.2936 77.5074 40.042C77.2538 39.7903 76.9132 39.6454 76.556 39.6375Z" fill="url(#paint4_linear_1272_1430)"/>
<path d="M76.556 64.7977H64.2036C64.0226 64.8012 63.8437 64.8371 63.6752 64.9034C63.5093 64.972 63.3584 65.0724 63.2315 65.1994C63.1046 65.3263 63.0039 65.4772 62.9353 65.6431C62.8689 65.8078 62.8335 65.9833 62.8301 66.1609V73.748C62.8336 73.929 62.869 74.1079 62.9353 74.2763C63.0076 74.4402 63.108 74.5903 63.2315 74.7201C63.3599 74.8425 63.5105 74.9394 63.6752 75.0054C63.8421 75.0768 64.0221 75.1129 64.2036 75.1112H76.556C76.7334 75.1174 76.9103 75.0848 77.074 75.016C77.2446 74.9504 77.3991 74.8495 77.5281 74.7201C77.6571 74.5926 77.7611 74.4422 77.8345 74.2763C77.9009 74.1079 77.9373 73.929 77.9408 73.748V66.1926C77.9384 65.8256 77.7947 65.4734 77.5394 65.2097C77.4108 65.0771 77.2554 64.973 77.0843 64.9034C76.9174 64.832 76.7375 64.7959 76.556 64.7977Z" fill="url(#paint5_linear_1272_1430)"/>
<path d="M84.4829 47.9569L89.8129 51.0362L84.4829 54.1096V47.9569Z" fill="#78787D"/>
<g opacity="0.15">
<path d="M76.5558 65.9965H64.2034C63.8409 65.9965 63.4927 66.1398 63.2354 66.3951C62.9781 66.6505 62.8327 66.997 62.8299 67.3595V74.9257C62.8317 75.2897 62.9757 75.6385 63.2313 75.8978C63.3595 76.0239 63.5113 76.1232 63.6781 76.1903C63.845 76.2574 64.0236 76.2911 64.2034 76.2889H76.5558C76.9153 76.2905 77.2611 76.1498 77.5175 75.8978C77.7731 75.6385 77.9171 75.2897 77.919 74.9257V67.37C77.9162 67.0084 77.7723 66.6622 77.5175 66.4054C77.2628 66.1487 76.9174 66.002 76.5558 65.9965Z" fill="#1F1D20"/>
<path d="M68.1125 76.2888C68.2956 76.2914 68.4775 76.2579 68.6475 76.1898C68.8159 76.1144 68.9701 76.0105 69.1032 75.8827C69.3595 75.616 69.5049 75.2618 69.5096 74.8919V29.0304H21.0822V74.882C21.0796 75.0651 21.1128 75.247 21.1809 75.417C21.2527 75.5874 21.3576 75.7422 21.4885 75.8727C21.6193 76.0009 21.7742 76.102 21.9442 76.17C22.1143 76.238 22.2962 76.2716 22.4793 76.2689L68.1125 76.2888Z" fill="#1F1D20"/>
</g>
<g filter="url(#filter1_d_1272_1430)">
<path d="M69.47 29.4669V28.7139C69.4673 28.2663 69.2872 27.838 68.9697 27.5224C68.6523 27.2068 68.2234 27.0297 67.7758 27.0297H22.727C22.5055 27.0284 22.2857 27.0711 22.0807 27.1552C21.8758 27.2394 21.6898 27.3636 21.5331 27.5202C21.3765 27.6769 21.2516 27.8629 21.1674 28.0678C21.0832 28.2728 21.0413 28.4924 21.0426 28.7139V73.3965C21.0402 73.617 21.0821 73.8357 21.1655 74.0399C21.2488 74.2441 21.3712 74.4295 21.5273 74.5853C21.6845 74.743 21.8721 74.868 22.0778 74.953C22.2836 75.038 22.5044 75.0815 22.727 75.0807H67.8252C68.0479 75.082 68.2685 75.039 68.4744 74.954C68.6802 74.8689 68.8671 74.7435 69.0239 74.5853C69.1793 74.4284 69.3038 74.2435 69.3906 74.0404C69.4708 73.8352 69.5113 73.6168 69.5096 73.3965V29.4371L69.47 29.4669Z" fill="white"/>
</g>
<path d="M63.6121 57.5047L46.7752 70.13C46.341 70.4558 45.812 70.6302 45.2692 70.6263C44.7264 70.6224 44.1998 70.4406 43.7703 70.1086L31.6415 60.7281C31.4129 60.5512 31.2282 60.3241 31.1016 60.0642C30.975 59.8044 30.91 59.5189 30.9117 59.2299C30.9133 58.9409 30.9814 58.6561 31.1109 58.3977C31.2403 58.1393 31.4276 57.9142 31.6581 57.7399L50.0747 43.7843L63.6145 53.9606C63.8897 54.167 64.113 54.4346 64.2667 54.7423C64.4205 55.05 64.5004 55.3893 64.5002 55.7333C64.4999 56.0772 64.4196 56.4164 64.2654 56.7239C64.1113 57.0314 63.8876 57.2987 63.6121 57.5047Z" fill="url(#paint6_linear_1272_1430)"/>
<path d="M63.6002 57.5L52.8372 65.5027C52.3356 65.8768 51.7266 66.0788 51.1008 66.0788C50.4751 66.0788 49.8661 65.8768 49.3644 65.5027L35.3091 54.9773L50.1198 43.7843L63.6121 53.9535C63.8868 54.1608 64.1094 54.4293 64.2623 54.7376C64.4152 55.0459 64.4942 55.3856 64.493 55.7297C64.4919 56.0738 64.4106 56.4129 64.2556 56.7202C64.1007 57.0275 63.8763 57.2945 63.6002 57.5Z" fill="url(#paint7_linear_1272_1430)"/>
<g filter="url(#filter2_d_1272_1430)">
<path d="M58.6237 44.953L44.6217 55.5914C42.1292 57.4852 38.6823 57.4939 36.1802 55.6127L26.615 48.421C26.3976 48.2575 26.2212 48.0456 26.0997 47.8022C25.9783 47.5588 25.915 47.2905 25.915 47.0184C25.915 46.7464 25.9783 46.478 26.0997 46.2346C26.2212 45.9911 26.3976 45.7793 26.615 45.6157L44.1574 32.3799C44.4647 32.1477 44.8388 32.0208 45.224 32.0182C45.6092 32.0157 45.9849 32.1375 46.2953 32.3657L58.5999 41.4041C58.8775 41.6084 59.1036 41.8746 59.2602 42.1816C59.4168 42.4886 59.4995 42.8279 59.5018 43.1726C59.5042 43.5172 59.426 43.8576 59.2735 44.1667C59.1211 44.4758 58.8985 44.745 58.6237 44.953Z" fill="url(#paint8_linear_1272_1430)"/>
</g>
<path d="M55.1959 47.5233L41.9553 57.6141C41.5093 57.9522 40.965 58.1352 40.4053 58.1352C39.8457 58.1352 39.3014 57.9522 38.8554 57.6141L26.6149 48.4117C26.3979 48.2478 26.2219 48.0358 26.1008 47.7925C25.9796 47.5491 25.9165 47.2809 25.9165 47.009C25.9165 46.7371 25.9796 46.4689 26.1008 46.2255C26.2219 45.9821 26.3979 45.7702 26.6149 45.6063L39.4421 35.936L55.1959 47.5233Z" fill="url(#paint9_linear_1272_1430)"/>
<defs>
<filter id="filter0_d_1272_1430" x="58.8301" y="24.0823" width="23.0894" height="18.2819" filterUnits="userSpaceOnUse" color-interpolation-filters="sRGB">
<feFlood flood-opacity="0" result="BackgroundImageFix"/>
<feColorMatrix in="SourceAlpha" type="matrix" values="0 0 0 0 0 0 0 0 0 0 0 0 0 0 0 0 0 0 127 0" result="hardAlpha"/>
<feOffset dy="1"/>
<feGaussianBlur stdDeviation="2"/>
<feComposite in2="hardAlpha" operator="out"/>
<feColorMatrix type="matrix" values="0 0 0 0 0 0 0 0 0 0 0 0 0 0 0 0 0 0 0.25 0"/>
<feBlend mode="normal" in2="BackgroundImageFix" result="effect1_dropShadow_1272_1430"/>
<feBlend mode="normal" in="SourceGraphic" in2="effect1_dropShadow_1272_1430" result="shape"/>
</filter>
<filter id="filter1_d_1272_1430" x="17.0425" y="25.0297" width="56.4673" height="56.051" filterUnits="userSpaceOnUse" color-interpolation-filters="sRGB">
<feFlood flood-opacity="0" result="BackgroundImageFix"/>
<feColorMatrix in="SourceAlpha" type="matrix" values="0 0 0 0 0 0 0 0 0 0 0 0 0 0 0 0 0 0 127 0" result="hardAlpha"/>
<feOffset dy="2"/>
<feGaussianBlur stdDeviation="2"/>
<feComposite in2="hardAlpha" operator="out"/>
<feColorMatrix type="matrix" values="0 0 0 0 0 0 0 0 0 0 0 0 0 0 0 0 0 0 0.25 0"/>
<feBlend mode="normal" in2="BackgroundImageFix" result="effect1_dropShadow_1272_1430"/>
<feBlend mode="normal" in="SourceGraphic" in2="effect1_dropShadow_1272_1430" result="shape"/>
</filter>
<filter id="filter2_d_1272_1430" x="21.915" y="29.0182" width="41.5869" height="32.9995" filterUnits="userSpaceOnUse" color-interpolation-filters="sRGB">
<feFlood flood-opacity="0" result="BackgroundImageFix"/>
<feColorMatrix in="SourceAlpha" type="matrix" values="0 0 0 0 0 0 0 0 0 0 0 0 0 0 0 0 0 0 127 0" result="hardAlpha"/>
<feOffset dy="1"/>
<feGaussianBlur stdDeviation="2"/>
<feComposite in2="hardAlpha" operator="out"/>
<feColorMatrix type="matrix" values="0 0 0 0 0 0 0 0 0 0 0 0 0 0 0 0 0 0 0.25 0"/>
<feBlend mode="normal" in2="BackgroundImageFix" result="effect1_dropShadow_1272_1430"/>
<feBlend mode="normal" in="SourceGraphic" in2="effect1_dropShadow_1272_1430" result="shape"/>
</filter>
<linearGradient id="paint0_linear_1272_1430" x1="19.2573" y1="13.1763" x2="77.0517" y2="147.815" gradientUnits="userSpaceOnUse">
<stop offset="0.192708" stop-color="white"/>
<stop offset="1" stop-color="#D0C1F7"/>
</linearGradient>
<linearGradient id="paint1_linear_1272_1430" x1="3.68513" y1="-1.6766" x2="67.4111" y2="120.606" gradientUnits="userSpaceOnUse">
<stop stop-color="#9A89E6"/>
<stop offset="0.421875" stop-color="#6F61D3"/>
<stop offset="0.786458" stop-color="#403CAE"/>
</linearGradient>
<linearGradient id="paint2_linear_1272_1430" x1="68.6757" y1="29.5026" x2="70.5516" y2="33.4041" gradientUnits="userSpaceOnUse">
<stop stop-color="#D4C6FA"/>
<stop offset="0.97" stop-color="#C7B7F6"/>
</linearGradient>
<linearGradient id="paint3_linear_1272_1430" x1="69.3067" y1="56.0811" x2="71.339" y2="59.7023" gradientUnits="userSpaceOnUse">
<stop stop-color="#7E70D3"/>
<stop offset="1" stop-color="#685AD3"/>
</linearGradient>
<linearGradient id="paint4_linear_1272_1430" x1="70.3747" y1="40.884" x2="70.3747" y2="48.4193" gradientUnits="userSpaceOnUse">
<stop stop-color="#B2A1EC"/>
<stop offset="1" stop-color="#9889E3"/>
</linearGradient>
<linearGradient id="paint5_linear_1272_1430" x1="70.3167" y1="69.0374" x2="70.5309" y2="73.2733" gradientUnits="userSpaceOnUse">
<stop stop-color="#433FA9"/>
<stop offset="1" stop-color="#3D3697"/>
</linearGradient>
<linearGradient id="paint6_linear_1272_1430" x1="45.3286" y1="53.8204" x2="51.0296" y2="62.4907" gradientUnits="userSpaceOnUse">
<stop stop-color="#7E70D3"/>
<stop offset="1" stop-color="#685AD3"/>
</linearGradient>
<linearGradient id="paint7_linear_1272_1430" x1="49.7682" y1="52.9487" x2="50.2861" y2="62.0988" gradientUnits="userSpaceOnUse">
<stop stop-color="#433FA9"/>
<stop offset="1" stop-color="#3D3697"/>
</linearGradient>
<linearGradient id="paint8_linear_1272_1430" x1="38.9268" y1="38.3208" x2="44.2714" y2="47.8225" gradientUnits="userSpaceOnUse">
<stop stop-color="#D4C6FA"/>
<stop offset="0.97" stop-color="#C7B7F6"/>
</linearGradient>
<linearGradient id="paint9_linear_1272_1430" x1="40.5562" y1="38.6274" x2="40.5562" y2="54.8966" gradientUnits="userSpaceOnUse">
<stop stop-color="#B2A1EC"/>
<stop offset="1" stop-color="#9889E3"/>
</linearGradient>
</defs>
</svg>
