<svg width="103" height="102" viewBox="0 0 103 102" fill="none" xmlns="http://www.w3.org/2000/svg">
<g clip-path="url(#clip0_1580_11844)">
<path d="M51.0893 97.81C25.2393 97.81 4.2793 76.86 4.2793 51C4.2793 25.14 25.2393 4.19 51.0893 4.19C76.9393 4.19 97.8993 25.15 97.8993 51C97.8993 76.85 76.9393 97.81 51.0893 97.81Z" fill="url(#paint0_linear_1580_11844)"/>
<path fill-rule="evenodd" clip-rule="evenodd" d="M96.9893 51.0001C96.9893 76.3501 76.4393 96.9001 51.0893 96.9001C25.7393 96.9001 5.18934 76.3501 5.18934 51.0001C5.18934 25.6501 25.7393 5.10011 51.0893 5.10011C76.4393 5.10011 96.9893 25.6501 96.9893 51.0001ZM51.0893 1.36011C78.5093 1.36011 100.729 23.5801 100.729 51.0001C100.729 78.4201 78.4993 100.64 51.0893 100.64C23.6693 100.64 1.44934 78.4101 1.44934 51.0001C1.44934 23.5801 23.6693 1.36011 51.0893 1.36011Z" fill="#F2F1F0"/>
<path fill-rule="evenodd" clip-rule="evenodd" d="M94.1794 51C94.1794 74.8 74.8894 94.09 51.0894 94.09C27.2894 94.09 7.9994 74.8 7.9994 51C7.9994 27.2 27.2894 7.91 51.0894 7.91C74.8894 7.91 94.1794 27.2 94.1794 51ZM51.0894 4.17C76.9494 4.17 97.9194 25.14 97.9194 51C97.9194 76.86 76.9494 97.83 51.0894 97.83C25.2294 97.83 4.2594 76.86 4.2594 51C4.2594 25.14 25.2194 4.17 51.0894 4.17Z" fill="url(#paint1_linear_1580_11844)"/>
<g filter="url(#filter0_ddddd_1580_11844)">
<path d="M53.72 57.0848L36.0948 70.3013C35.6403 70.6423 35.0865 70.8248 34.5182 70.8207C33.95 70.8167 33.3988 70.6263 32.9492 70.2789L20.2525 60.4592C20.0133 60.274 19.8199 60.0362 19.6874 59.7642C19.5549 59.4922 19.4869 59.1933 19.4886 58.8908C19.4902 58.5882 19.5616 58.2902 19.6971 58.0197C19.8326 57.7492 20.0286 57.5135 20.2699 57.331L39.5487 42.7221L53.7225 53.3748C54.0105 53.5908 54.2443 53.871 54.4052 54.1931C54.5661 54.5152 54.6498 54.8704 54.6496 55.2305C54.6493 55.5905 54.5652 55.9456 54.4038 56.2674C54.2425 56.5893 54.0083 56.8692 53.72 57.0848V57.0848Z" fill="url(#paint2_linear_1580_11844)"/>
<path d="M53.707 57.0799L42.4401 65.4573C41.9149 65.8488 41.2774 66.0603 40.6224 66.0603C39.9673 66.0603 39.3298 65.8488 38.8047 65.4573L24.0913 54.4391L39.5954 42.7221L53.7194 53.3673C54.0069 53.5844 54.2399 53.8654 54.4 54.1882C54.56 54.5109 54.6427 54.8665 54.6415 55.2267C54.6403 55.587 54.5553 55.942 54.393 56.2636C54.2308 56.5853 53.9959 56.8648 53.707 57.0799V57.0799Z" fill="url(#paint3_linear_1580_11844)"/>
<g filter="url(#filter1_d_1580_11844)">
<path d="M48.4973 43.9456L33.6425 55.232C31.15 57.1258 27.7031 57.1345 25.2011 55.2533L14.99 47.5761C14.7625 47.4048 14.5778 47.1831 14.4507 46.9282C14.3235 46.6734 14.2573 46.3926 14.2573 46.1078C14.2573 45.823 14.3235 45.5421 14.4507 45.2872C14.5778 45.0324 14.7625 44.8106 14.99 44.6394L33.3538 30.784C33.6754 30.5408 34.067 30.408 34.4703 30.4053C34.8735 30.4026 35.2668 30.5302 35.5917 30.769L48.4724 40.2306C48.763 40.4444 48.9997 40.7231 49.1636 41.0445C49.3275 41.3659 49.4141 41.7211 49.4166 42.0819C49.419 42.4427 49.3371 42.799 49.1775 43.1225C49.0179 43.4461 48.785 43.728 48.4973 43.9456Z" fill="url(#paint4_linear_1580_11844)"/>
</g>
<path d="M44.9084 46.6369L31.048 57.2001C30.5811 57.5541 30.0113 57.7456 29.4255 57.7456C28.8396 57.7456 28.2698 57.5541 27.803 57.2001L14.9894 47.5669C14.7623 47.3954 14.578 47.1735 14.4512 46.9187C14.3243 46.6639 14.2583 46.3832 14.2583 46.0986C14.2583 45.8139 14.3243 45.5332 14.4512 45.2784C14.578 45.0236 14.7623 44.8017 14.9894 44.6302L28.4171 34.5072L44.9084 46.6369Z" fill="url(#paint5_linear_1580_11844)"/>
</g>
<path d="M82.5429 34.284H57.6079V48.8897C57.6079 49.3338 57.9747 49.6813 58.3995 49.6813H81.732C82.1761 49.6813 82.5236 49.3145 82.5236 48.8897L82.5429 34.284Z" fill="url(#paint6_linear_1580_11844)"/>
<path d="M81.7031 32.1216H58.4574C57.994 32.1216 57.6176 32.5077 57.6176 32.9614V34.786H82.5526V32.9614C82.5429 32.4981 82.1857 32.1216 81.7031 32.1216Z" fill="#3F389C"/>
<path d="M68.4391 39.3811H61.4306C61.1314 39.3811 60.8707 39.6321 60.8707 39.941C60.8707 40.2403 61.1217 40.5009 61.4306 40.5009H68.4198C68.7383 40.4816 68.9797 40.2306 68.9797 39.9314C68.9797 39.6321 68.7383 39.3811 68.4391 39.3811Z" fill="white"/>
<path d="M68.4391 41.7655H61.4306C61.1314 41.7655 60.8707 42.0165 60.8707 42.3254C60.8707 42.6343 61.1217 42.8853 61.4306 42.8853H68.4198C68.7383 42.866 68.9797 42.615 68.9797 42.3254C68.9797 42.0261 68.7383 41.7655 68.4391 41.7655Z" fill="white"/>
<path fill-rule="evenodd" clip-rule="evenodd" d="M61.4306 44.3429H64.9252C65.2245 44.3429 65.4851 44.5939 65.4851 44.9028C65.4851 45.2021 65.2341 45.4627 64.9252 45.4627H61.4306C61.1314 45.4627 60.8707 45.2117 60.8707 44.9028C60.89 44.5939 61.1217 44.3429 61.4306 44.3429Z" fill="white"/>
<path d="M82.3205 70.2723H82.224C82.0406 70.2723 81.8861 70.1179 81.8861 69.9345C81.8861 69.8186 81.944 69.7124 82.0406 69.6545C82.195 69.4132 82.6584 69.5387 82.6584 69.8379V69.9345C82.668 70.1275 82.5136 70.2723 82.3205 70.2723Z" fill="#695BD4"/>
<path d="M80.6698 70.2722H80.4767C80.2933 70.2722 80.1388 70.1178 80.1388 69.9344C80.1388 69.751 80.2933 69.5965 80.4767 69.5965H80.6698C80.8532 69.5965 81.0076 69.751 81.0076 69.9344C81.0076 70.1178 80.8628 70.2722 80.6698 70.2722ZM78.9225 70.2722H78.7294C78.546 70.2722 78.3915 70.1178 78.3915 69.9344C78.3915 69.751 78.546 69.5965 78.7294 69.5965H78.9225C79.1059 69.5965 79.2604 69.751 79.2604 69.9344C79.2604 70.1178 79.1156 70.2722 78.9225 70.2722ZM77.1752 70.2722H76.9821C76.7987 70.2722 76.6443 70.1178 76.6443 69.9344C76.6443 69.751 76.7987 69.5965 76.9821 69.5965H77.1752C77.3586 69.5965 77.5131 69.751 77.5131 69.9344C77.5131 70.1178 77.3586 70.2722 77.1752 70.2722ZM75.4279 70.2722H75.2348C75.0514 70.2722 74.897 70.1178 74.897 69.9344C74.897 69.751 75.0514 69.5965 75.2348 69.5965H75.4279C75.6113 69.5965 75.7658 69.751 75.7658 69.9344C75.7658 70.1178 75.6113 70.2722 75.4279 70.2722ZM73.6806 70.2722H73.4876C73.3041 70.2722 73.1497 70.1178 73.1497 69.9344C73.1497 69.751 73.3041 69.5965 73.4876 69.5965H73.6806C73.864 69.5965 74.0185 69.751 74.0185 69.9344C74.0185 70.1178 73.864 70.2722 73.6806 70.2722ZM71.9237 70.2722H71.7306C71.5472 70.2722 71.3928 70.1178 71.3928 69.9344C71.3928 69.751 71.5472 69.5965 71.7306 69.5965H71.9237C72.1071 69.5965 72.2616 69.751 72.2616 69.9344C72.2616 70.1178 72.1168 70.2722 71.9237 70.2722ZM70.1764 70.2722H69.9833C69.7999 70.2722 69.6455 70.1178 69.6455 69.9344C69.6455 69.751 69.7999 69.5965 69.9833 69.5965H70.1764C70.3598 69.5965 70.5143 69.751 70.5143 69.9344C70.5143 70.1178 70.3598 70.2722 70.1764 70.2722ZM68.4291 70.2722H68.2361C68.0526 70.2722 67.8982 70.1178 67.8982 69.9344C67.8982 69.751 68.0526 69.5965 68.2361 69.5965H68.4291C68.6125 69.5965 68.767 69.751 68.767 69.9344C68.767 70.1178 68.6125 70.2722 68.4291 70.2722ZM66.6818 70.2722H66.4888C66.3053 70.2722 66.1509 70.1178 66.1509 69.9344C66.1509 69.751 66.3053 69.5965 66.4888 69.5965H66.6818C66.8653 69.5965 67.0197 69.751 67.0197 69.9344C67.0197 70.1178 66.8653 70.2722 66.6818 70.2722ZM64.9249 70.2722H64.7318C64.5484 70.2722 64.394 70.1178 64.394 69.9344C64.394 69.751 64.5484 69.5965 64.7318 69.5965H64.9249C65.1083 69.5965 65.2628 69.751 65.2628 69.9344C65.2628 70.1178 65.118 70.2722 64.9249 70.2722ZM63.1776 70.2722H62.9845C62.8011 70.2722 62.6467 70.1178 62.6467 69.9344C62.6467 69.751 62.8011 69.5965 62.9845 69.5965H63.1776C63.361 69.5965 63.5155 69.751 63.5155 69.9344C63.5155 70.1178 63.361 70.2722 63.1776 70.2722ZM61.4303 70.2722H61.2373C61.0538 70.2722 60.8994 70.1178 60.8994 69.9344C60.8994 69.751 61.0538 69.5965 61.2373 69.5965H61.4303C61.6137 69.5965 61.7682 69.751 61.7682 69.9344C61.7682 70.1178 61.6137 70.2722 61.4303 70.2722ZM59.683 70.2722H59.49C59.3066 70.2722 59.1521 70.1178 59.1521 69.9344C59.1521 69.751 59.3066 69.5965 59.49 69.5965H59.683C59.8665 69.5965 60.0209 69.751 60.0209 69.9344C60.0209 70.1178 59.8665 70.2722 59.683 70.2722Z" fill="#3F389C"/>
<path d="M57.9261 70.2723H57.8296C57.6462 70.2723 57.4917 70.1178 57.4917 69.9344V69.8379C57.4917 69.529 57.9551 69.4131 58.1095 69.6545C58.1964 69.7124 58.264 69.8186 58.264 69.9344C58.2736 70.1275 58.1192 70.2723 57.9261 70.2723Z" fill="#695BD4"/>
<path d="M57.8296 68.5829C57.6462 68.5829 57.4917 68.4284 57.4917 68.245V68.0423C57.4917 67.8589 57.6462 67.7044 57.8296 67.7044C58.013 67.7044 58.1674 67.8589 58.1674 68.0423V68.245C58.1674 68.4284 58.0226 68.5829 57.8296 68.5829ZM57.8296 66.7873C57.6462 66.7873 57.4917 66.6329 57.4917 66.4495V66.2467C57.4917 66.0633 57.6462 65.9089 57.8296 65.9089C58.013 65.9089 58.1674 66.0633 58.1674 66.2467V66.4495C58.1674 66.6329 58.0226 66.7873 57.8296 66.7873ZM57.8296 64.9918C57.6462 64.9918 57.4917 64.8373 57.4917 64.6539V64.4512C57.4917 64.2678 57.6462 64.1133 57.8296 64.1133C58.013 64.1133 58.1674 64.2678 58.1674 64.4512V64.6539C58.1674 64.847 58.0226 64.9918 57.8296 64.9918ZM57.8296 63.1962C57.6462 63.1962 57.4917 63.0418 57.4917 62.8584V62.6556C57.4917 62.4722 57.6462 62.3178 57.8296 62.3178C58.013 62.3178 58.1674 62.4722 58.1674 62.6556V62.8584C58.1674 63.0514 58.0226 63.1962 57.8296 63.1962ZM57.8296 61.4007C57.6462 61.4007 57.4917 61.2462 57.4917 61.0628V60.8601C57.4917 60.6767 57.6462 60.5222 57.8296 60.5222C58.013 60.5222 58.1674 60.6767 58.1674 60.8601V61.0628C58.1674 61.2559 58.0226 61.4007 57.8296 61.4007ZM57.8296 59.6051C57.6462 59.6051 57.4917 59.4507 57.4917 59.2673V59.0645C57.4917 58.8811 57.6462 58.7267 57.8296 58.7267C58.013 58.7267 58.1674 58.8811 58.1674 59.0645V59.2673C58.1674 59.4603 58.0226 59.6051 57.8296 59.6051ZM57.8296 57.8192C57.6462 57.8192 57.4917 57.6648 57.4917 57.4814V57.2786C57.4917 57.0952 57.6462 56.9408 57.8296 56.9408C58.013 56.9408 58.1674 57.0952 58.1674 57.2786V57.4814C58.1674 57.6648 58.0226 57.8192 57.8296 57.8192ZM57.8296 56.0237C57.6462 56.0237 57.4917 55.8692 57.4917 55.6858V55.4831C57.4917 55.2997 57.6462 55.1452 57.8296 55.1452C58.013 55.1452 58.1674 55.2997 58.1674 55.4831V55.6858C58.1674 55.8692 58.0226 56.0237 57.8296 56.0237Z" fill="#3F389C"/>
<path d="M57.8296 54.2283C57.6462 54.2283 57.4917 54.0738 57.4917 53.8904V53.7939C57.4917 53.6104 57.6462 53.456 57.8296 53.456H57.9261C58.1095 53.456 58.264 53.6104 58.264 53.7939C58.264 53.9097 58.2061 54.0159 58.1095 54.0738C58.0613 54.1704 57.9551 54.2283 57.8296 54.2283Z" fill="#695BD4"/>
<path d="M80.6698 54.1317H80.4767C80.2933 54.1317 80.1388 53.9772 80.1388 53.7938C80.1388 53.6104 80.2933 53.4559 80.4767 53.4559H80.6698C80.8532 53.4559 81.0076 53.6104 81.0076 53.7938C81.0076 53.9772 80.8628 54.1317 80.6698 54.1317ZM78.9225 54.1317H78.7294C78.546 54.1317 78.3915 53.9772 78.3915 53.7938C78.3915 53.6104 78.546 53.4559 78.7294 53.4559H78.9225C79.1059 53.4559 79.2604 53.6104 79.2604 53.7938C79.2604 53.9772 79.1156 54.1317 78.9225 54.1317ZM77.1752 54.1317H76.9821C76.7987 54.1317 76.6443 53.9772 76.6443 53.7938C76.6443 53.6104 76.7987 53.4559 76.9821 53.4559H77.1752C77.3586 53.4559 77.5131 53.6104 77.5131 53.7938C77.5131 53.9772 77.3586 54.1317 77.1752 54.1317ZM75.4279 54.1317H75.2348C75.0514 54.1317 74.897 53.9772 74.897 53.7938C74.897 53.6104 75.0514 53.4559 75.2348 53.4559H75.4279C75.6113 53.4559 75.7658 53.6104 75.7658 53.7938C75.7658 53.9772 75.6113 54.1317 75.4279 54.1317ZM73.6806 54.1317H73.4876C73.3041 54.1317 73.1497 53.9772 73.1497 53.7938C73.1497 53.6104 73.3041 53.4559 73.4876 53.4559H73.6806C73.864 53.4559 74.0185 53.6104 74.0185 53.7938C74.0185 53.9772 73.864 54.1317 73.6806 54.1317ZM71.9237 54.1317H71.7306C71.5472 54.1317 71.3928 53.9772 71.3928 53.7938C71.3928 53.6104 71.5472 53.4559 71.7306 53.4559H71.9237C72.1071 53.4559 72.2616 53.6104 72.2616 53.7938C72.2616 53.9772 72.1168 54.1317 71.9237 54.1317ZM70.1764 54.1317H69.9833C69.7999 54.1317 69.6455 53.9772 69.6455 53.7938C69.6455 53.6104 69.7999 53.4559 69.9833 53.4559H70.1764C70.3598 53.4559 70.5143 53.6104 70.5143 53.7938C70.5143 53.9772 70.3598 54.1317 70.1764 54.1317ZM68.4291 54.1317H68.2361C68.0526 54.1317 67.8982 53.9772 67.8982 53.7938C67.8982 53.6104 68.0526 53.4559 68.2361 53.4559H68.4291C68.6125 53.4559 68.767 53.6104 68.767 53.7938C68.767 53.9772 68.6125 54.1317 68.4291 54.1317ZM66.6818 54.1317H66.4888C66.3053 54.1317 66.1509 53.9772 66.1509 53.7938C66.1509 53.6104 66.3053 53.4559 66.4888 53.4559H66.6818C66.8653 53.4559 67.0197 53.6104 67.0197 53.7938C67.0197 53.9772 66.8653 54.1317 66.6818 54.1317ZM64.9249 54.1317H64.7318C64.5484 54.1317 64.394 53.9772 64.394 53.7938C64.394 53.6104 64.5484 53.4559 64.7318 53.4559H64.9249C65.1083 53.4559 65.2628 53.6104 65.2628 53.7938C65.2628 53.9772 65.118 54.1317 64.9249 54.1317ZM63.1776 54.1317H62.9845C62.8011 54.1317 62.6467 53.9772 62.6467 53.7938C62.6467 53.6104 62.8011 53.4559 62.9845 53.4559H63.1776C63.361 53.4559 63.5155 53.6104 63.5155 53.7938C63.5155 53.9772 63.3707 54.1317 63.1776 54.1317ZM61.4303 54.1317H61.2373C61.0538 54.1317 60.8994 53.9772 60.8994 53.7938C60.8994 53.6104 61.0538 53.4559 61.2373 53.4559H61.4303C61.6137 53.4559 61.7682 53.6104 61.7682 53.7938C61.7682 53.9772 61.6137 54.1317 61.4303 54.1317ZM59.683 54.1317H59.49C59.3066 54.1317 59.1521 53.9772 59.1521 53.7938C59.1521 53.6104 59.3066 53.4559 59.49 53.4559H59.683C59.8665 53.4559 60.0209 53.6104 60.0209 53.7938C60.0209 53.9772 59.8665 54.1317 59.683 54.1317Z" fill="#3F389C"/>
<path d="M82.3205 54.2282C82.2047 54.2282 82.0985 54.1703 82.0406 54.0738C81.9537 54.0158 81.8861 53.9096 81.8861 53.7938C81.8861 53.6104 82.0406 53.4559 82.224 53.4559H82.3205C82.5039 53.4559 82.6584 53.6104 82.6584 53.7938V53.8903C82.668 54.0738 82.5136 54.2282 82.3205 54.2282Z" fill="#695BD4"/>
<path d="M82.3205 68.5829C82.1371 68.5829 81.9827 68.4284 81.9827 68.245V68.0423C81.9827 67.8589 82.1371 67.7044 82.3205 67.7044C82.504 67.7044 82.6584 67.8589 82.6584 68.0423V68.245C82.6681 68.4284 82.5136 68.5829 82.3205 68.5829ZM82.3205 66.7873C82.1371 66.7873 81.9827 66.6329 81.9827 66.4495V66.2467C81.9827 66.0633 82.1371 65.9089 82.3205 65.9089C82.504 65.9089 82.6584 66.0633 82.6584 66.2467V66.4495C82.6681 66.6425 82.5136 66.7873 82.3205 66.7873ZM82.3205 64.9918C82.1371 64.9918 81.9827 64.8373 81.9827 64.6539V64.4512C81.9827 64.2678 82.1371 64.1133 82.3205 64.1133C82.504 64.1133 82.6584 64.2678 82.6584 64.4512V64.6539C82.6681 64.847 82.5136 64.9918 82.3205 64.9918ZM82.3205 63.1962C82.1371 63.1962 81.9827 63.0418 81.9827 62.8584V62.6556C81.9827 62.4722 82.1371 62.3178 82.3205 62.3178C82.504 62.3178 82.6584 62.4722 82.6584 62.6556V62.8584C82.6681 63.0514 82.5136 63.1962 82.3205 63.1962ZM82.3205 61.4007C82.1371 61.4007 81.9827 61.2462 81.9827 61.0628V60.8601C81.9827 60.6767 82.1371 60.5222 82.3205 60.5222C82.504 60.5222 82.6584 60.6767 82.6584 60.8601V61.0628C82.6681 61.2559 82.5136 61.4007 82.3205 61.4007ZM82.3205 59.6051C82.1371 59.6051 81.9827 59.4507 81.9827 59.2673V59.0645C81.9827 58.8811 82.1371 58.7267 82.3205 58.7267C82.504 58.7267 82.6584 58.8811 82.6584 59.0645V59.2673C82.6681 59.4603 82.5136 59.6051 82.3205 59.6051ZM82.3205 57.8192C82.1371 57.8192 81.9827 57.6648 81.9827 57.4814V57.2786C81.9827 57.0952 82.1371 56.9408 82.3205 56.9408C82.504 56.9408 82.6584 57.0952 82.6584 57.2786V57.4814C82.6681 57.6648 82.5136 57.8192 82.3205 57.8192ZM82.3205 56.0237C82.1371 56.0237 81.9827 55.8692 81.9827 55.6858V55.4831C81.9827 55.2997 82.1371 55.1452 82.3205 55.1452C82.504 55.1452 82.6584 55.2997 82.6584 55.4831V55.6858C82.6681 55.8692 82.5136 56.0237 82.3205 56.0237Z" fill="#403A9E"/>
<path d="M80.2388 72.2613C83.0148 72.2613 85.2662 70.016 85.2662 67.2339C85.26 64.4579 83.0087 62.2188 80.2388 62.2188C77.475 62.2188 75.2114 64.464 75.2114 67.2461C75.2114 70.0221 77.4567 72.2613 80.2388 72.2613Z" fill="#002D4C"/>
<path d="M80.6354 64.2931H79.8118V70.1746H80.6354V64.2931Z" fill="#F2F2F2"/>
<path d="M83.1612 66.8679H77.2858V67.6916H83.1673L83.1612 66.8679Z" fill="#F2F2F2"/>
</g>
<defs>
<filter id="filter0_ddddd_1580_11844" x="10.2573" y="29.4053" width="50.3922" height="58.4155" filterUnits="userSpaceOnUse" color-interpolation-filters="sRGB">
<feFlood flood-opacity="0" result="BackgroundImageFix"/>
<feColorMatrix in="SourceAlpha" type="matrix" values="0 0 0 0 0 0 0 0 0 0 0 0 0 0 0 0 0 0 127 0" result="hardAlpha"/>
<feOffset/>
<feColorMatrix type="matrix" values="0 0 0 0 0 0 0 0 0 0 0 0 0 0 0 0 0 0 0.1 0"/>
<feBlend mode="normal" in2="BackgroundImageFix" result="effect1_dropShadow_1580_11844"/>
<feColorMatrix in="SourceAlpha" type="matrix" values="0 0 0 0 0 0 0 0 0 0 0 0 0 0 0 0 0 0 127 0" result="hardAlpha"/>
<feOffset dy="1"/>
<feGaussianBlur stdDeviation="1"/>
<feColorMatrix type="matrix" values="0 0 0 0 0 0 0 0 0 0 0 0 0 0 0 0 0 0 0.1 0"/>
<feBlend mode="normal" in2="effect1_dropShadow_1580_11844" result="effect2_dropShadow_1580_11844"/>
<feColorMatrix in="SourceAlpha" type="matrix" values="0 0 0 0 0 0 0 0 0 0 0 0 0 0 0 0 0 0 127 0" result="hardAlpha"/>
<feOffset dy="3"/>
<feGaussianBlur stdDeviation="1.5"/>
<feColorMatrix type="matrix" values="0 0 0 0 0 0 0 0 0 0 0 0 0 0 0 0 0 0 0.09 0"/>
<feBlend mode="normal" in2="effect2_dropShadow_1580_11844" result="effect3_dropShadow_1580_11844"/>
<feColorMatrix in="SourceAlpha" type="matrix" values="0 0 0 0 0 0 0 0 0 0 0 0 0 0 0 0 0 0 127 0" result="hardAlpha"/>
<feOffset dy="7"/>
<feGaussianBlur stdDeviation="2"/>
<feColorMatrix type="matrix" values="0 0 0 0 0 0 0 0 0 0 0 0 0 0 0 0 0 0 0.05 0"/>
<feBlend mode="normal" in2="effect3_dropShadow_1580_11844" result="effect4_dropShadow_1580_11844"/>
<feColorMatrix in="SourceAlpha" type="matrix" values="0 0 0 0 0 0 0 0 0 0 0 0 0 0 0 0 0 0 127 0" result="hardAlpha"/>
<feOffset dx="1" dy="12"/>
<feGaussianBlur stdDeviation="2.5"/>
<feColorMatrix type="matrix" values="0 0 0 0 0 0 0 0 0 0 0 0 0 0 0 0 0 0 0.01 0"/>
<feBlend mode="normal" in2="effect4_dropShadow_1580_11844" result="effect5_dropShadow_1580_11844"/>
<feBlend mode="normal" in="SourceGraphic" in2="effect5_dropShadow_1580_11844" result="shape"/>
</filter>
<filter id="filter1_d_1580_11844" x="10.2573" y="27.4053" width="43.1593" height="34.253" filterUnits="userSpaceOnUse" color-interpolation-filters="sRGB">
<feFlood flood-opacity="0" result="BackgroundImageFix"/>
<feColorMatrix in="SourceAlpha" type="matrix" values="0 0 0 0 0 0 0 0 0 0 0 0 0 0 0 0 0 0 127 0" result="hardAlpha"/>
<feOffset dy="1"/>
<feGaussianBlur stdDeviation="2"/>
<feComposite in2="hardAlpha" operator="out"/>
<feColorMatrix type="matrix" values="0 0 0 0 0 0 0 0 0 0 0 0 0 0 0 0 0 0 0.25 0"/>
<feBlend mode="normal" in2="BackgroundImageFix" result="effect1_dropShadow_1580_11844"/>
<feBlend mode="normal" in="SourceGraphic" in2="effect1_dropShadow_1580_11844" result="shape"/>
</filter>
<linearGradient id="paint0_linear_1580_11844" x1="19.2227" y1="12.89" x2="77.0171" y2="147.529" gradientUnits="userSpaceOnUse">
<stop offset="0.192708" stop-color="white"/>
<stop offset="1" stop-color="#D0C1F7"/>
</linearGradient>
<linearGradient id="paint1_linear_1580_11844" x1="3.65059" y1="-1.9629" x2="67.3765" y2="120.319" gradientUnits="userSpaceOnUse">
<stop stop-color="#9A89E6"/>
<stop offset="0.421875" stop-color="#6F61D3"/>
<stop offset="0.786458" stop-color="#403CAE"/>
</linearGradient>
<linearGradient id="paint2_linear_1580_11844" x1="34.5805" y1="53.2281" x2="40.5484" y2="62.3043" gradientUnits="userSpaceOnUse">
<stop stop-color="#7E70D3"/>
<stop offset="1" stop-color="#685AD3"/>
</linearGradient>
<linearGradient id="paint3_linear_1580_11844" x1="39.2274" y1="52.3155" x2="39.7695" y2="61.894" gradientUnits="userSpaceOnUse">
<stop stop-color="#433FA9"/>
<stop offset="1" stop-color="#3D3697"/>
</linearGradient>
<linearGradient id="paint4_linear_1580_11844" x1="27.8782" y1="37.003" x2="33.4731" y2="46.9495" gradientUnits="userSpaceOnUse">
<stop stop-color="#D4C6FA"/>
<stop offset="0.97" stop-color="#C7B7F6"/>
</linearGradient>
<linearGradient id="paint5_linear_1580_11844" x1="29.5834" y1="37.3245" x2="29.5834" y2="54.3554" gradientUnits="userSpaceOnUse">
<stop stop-color="#B2A1EC"/>
<stop offset="1" stop-color="#9889E3"/>
</linearGradient>
<linearGradient id="paint6_linear_1580_11844" x1="65.1522" y1="31.3" x2="89.2862" y2="75.043" gradientUnits="userSpaceOnUse">
<stop offset="0.0625" stop-color="#DCD2FF"/>
<stop offset="0.364583" stop-color="#B2A1EC"/>
<stop offset="1" stop-color="#9889E3"/>
</linearGradient>
<clipPath id="clip0_1580_11844">
<rect width="102" height="102" fill="white" transform="translate(0.0893555)"/>
</clipPath>
</defs>
</svg>
