<?xml version="1.0" encoding="UTF-8"?>
<svg width="100px" height="100px" viewBox="0 0 100 100" version="1.1" xmlns="http://www.w3.org/2000/svg" xmlns:xlink="http://www.w3.org/1999/xlink">
    <!-- Generator: Sketch 55.2 (78181) - https://sketchapp.com -->
    <title>Extending the Power Platform user experience Model Driven apps/automate-business-process-flows-with-client-script</title>
    <desc>Created with Sketch.</desc>
    <defs>
        <rect id="path-1" x="0" y="0" width="96" height="96" rx="48"></rect>
        <filter x="-8.2%" y="-6.2%" width="116.3%" height="112.5%" filterUnits="objectBoundingBox" id="filter-3">
            <feOffset dx="0" dy="2" in="SourceAlpha" result="shadowOffsetOuter1"></feOffset>
            <feColorMatrix values="0 0 0 0 0   0 0 0 0 0   0 0 0 0 0  0 0 0 0.100288723 0" type="matrix" in="shadowOffsetOuter1" result="shadowMatrixOuter1"></feColorMatrix>
            <feMerge>
                <feMergeNode in="shadowMatrixOuter1"></feMergeNode>
                <feMergeNode in="SourceGraphic"></feMergeNode>
            </feMerge>
        </filter>
        <polygon id="path-4" points="0.001 0.04 20.001 0.04 20.001 12 0.001 12"></polygon>
        <path d="M13.5446455,6.67366734 C11.8877224,6.67366734 10.5446455,5.33035964 10.5446455,3.67366734 C10.5446455,2.01697503 11.8877224,0.673667336 13.5446455,0.673667336 C15.2015685,0.673667336 16.5446455,2.01697503 16.5446455,3.67366734 C16.5446455,5.33035964 15.2015685,6.67366734 13.5446455,6.67366734 Z" id="path-6"></path>
        <filter x="-8.3%" y="-8.3%" width="116.7%" height="116.7%" filterUnits="objectBoundingBox" id="filter-7">
            <feOffset dx="-1" dy="-1" in="SourceAlpha" result="shadowOffsetInner1"></feOffset>
            <feComposite in="shadowOffsetInner1" in2="SourceAlpha" operator="arithmetic" k2="-1" k3="1" result="shadowInnerInner1"></feComposite>
            <feColorMatrix values="0 0 0 0 0   0 0 0 0 0   0 0 0 0 0  0 0 0 0.1 0" type="matrix" in="shadowInnerInner1"></feColorMatrix>
        </filter>
        <path d="M2.91599721,6.09597431 C1.38329145,6.09597431 0.140903204,4.76623539 0.140903204,3.12627734 C0.140903204,1.4863193 1.38329145,0.156580375 2.91599721,0.156580375 C4.44870298,0.156580375 5.69109122,1.4863193 5.69109122,3.12627734 C5.69109122,4.76623539 4.44870298,6.09597431 2.91599721,6.09597431 Z" id="path-8"></path>
        <filter x="-9.0%" y="-8.4%" width="118.0%" height="116.8%" filterUnits="objectBoundingBox" id="filter-9">
            <feOffset dx="-1" dy="-1" in="SourceAlpha" result="shadowOffsetInner1"></feOffset>
            <feComposite in="shadowOffsetInner1" in2="SourceAlpha" operator="arithmetic" k2="-1" k3="1" result="shadowInnerInner1"></feComposite>
            <feColorMatrix values="0 0 0 0 0   0 0 0 0 0   0 0 0 0 0  0 0 0 0.1 0" type="matrix" in="shadowInnerInner1"></feColorMatrix>
        </filter>
        <path d="M2.91599721,6.09597431 C1.38329145,6.09597431 0.140903204,4.76623539 0.140903204,3.12627734 C0.140903204,1.4863193 1.38329145,0.156580375 2.91599721,0.156580375 C4.44870298,0.156580375 5.69109122,1.4863193 5.69109122,3.12627734 C5.69109122,4.76623539 4.44870298,6.09597431 2.91599721,6.09597431 Z" id="path-10"></path>
        <filter x="-9.0%" y="-8.4%" width="118.0%" height="116.8%" filterUnits="objectBoundingBox" id="filter-11">
            <feOffset dx="-1" dy="-1" in="SourceAlpha" result="shadowOffsetInner1"></feOffset>
            <feComposite in="shadowOffsetInner1" in2="SourceAlpha" operator="arithmetic" k2="-1" k3="1" result="shadowInnerInner1"></feComposite>
            <feColorMatrix values="0 0 0 0 0   0 0 0 0 0   0 0 0 0 0  0 0 0 0.1 0" type="matrix" in="shadowInnerInner1"></feColorMatrix>
        </filter>
        <path d="M2.91599721,6.19273581 C1.38329145,6.19273581 0.140903204,4.84188992 0.140903204,3.17590079 C0.140903204,1.50991167 1.38329145,0.159065778 2.91599721,0.159065778 C4.44870298,0.159065778 5.69109122,1.50991167 5.69109122,3.17590079 C5.69109122,4.84188992 4.44870298,6.19273581 2.91599721,6.19273581 Z" id="path-12"></path>
        <filter x="-9.0%" y="-8.3%" width="118.0%" height="116.6%" filterUnits="objectBoundingBox" id="filter-13">
            <feOffset dx="-1" dy="-1" in="SourceAlpha" result="shadowOffsetInner1"></feOffset>
            <feComposite in="shadowOffsetInner1" in2="SourceAlpha" operator="arithmetic" k2="-1" k3="1" result="shadowInnerInner1"></feComposite>
            <feColorMatrix values="0 0 0 0 0   0 0 0 0 0   0 0 0 0 0  0 0 0 0.1 0" type="matrix" in="shadowInnerInner1"></feColorMatrix>
        </filter>
        <path d="M14.9563953,11.963883 C14.9563953,13.927444 13.3585538,15.5249295 11.3953488,15.5249295 C9.43178779,15.5249295 7.83430233,13.927444 7.83430233,11.963883 C7.83430233,10.0003219 9.43178779,8.40283647 11.3953488,8.40283647 C13.3585538,8.40283647 14.9563953,10.0003219 14.9563953,11.963883 Z M19.8816788,9.67769112 C19.7460029,9.64777833 19.5348328,9.45548182 19.4924564,9.32301089 C19.4871148,9.30484955 19.4803488,9.28704432 19.4728706,9.26959519 L19.0159884,8.15926089 C19.0081541,8.14003124 18.9992515,8.12080159 18.9896366,8.10228415 C18.9255378,7.97942804 18.9380015,7.69632485 19.0124273,7.57987862 L19.923343,6.14833793 C20.3097166,5.5411795 20.2135683,4.66694258 19.7050509,4.15806903 L19.2011628,3.65418095 C18.7043968,3.15705886 17.8052326,3.05770566 17.2108939,3.4358888 L15.7789971,4.34644839 C15.7312791,4.3774295 15.6183939,4.41054723 15.4844985,4.41054723 C15.3748183,4.41054723 15.2932703,4.38846874 15.2569477,4.36959519 C15.2387863,4.35962426 15.2192006,4.35107775 15.1996148,4.34324345 L14.0896366,3.88600508 C14.0721875,3.87888298 14.0543823,3.872117 14.0362209,3.86677543 C13.9041061,3.82439897 13.7114535,3.61322891 13.6815407,3.47719694 L13.3136846,1.82166641 C13.1573547,1.11907194 12.471141,0.568534148 11.7514535,0.568534148 L11.0392442,0.568534148 C10.3192006,0.568534148 9.63334302,1.11907194 9.47736919,1.82131031 L9.10915698,3.47790915 C9.07888808,3.61322891 8.88659157,3.82439897 8.75447674,3.86677543 C8.73631541,3.872117 8.71851017,3.87888298 8.70070494,3.88600508 L7.59072674,4.34324345 C7.57114099,4.35107775 7.55191134,4.35962426 7.5333939,4.36959519 C7.49742733,4.38846874 7.41587936,4.41054723 7.30584302,4.41054723 C7.17194767,4.41054723 7.0590625,4.37707339 7.01098837,4.34644839 L5.57980378,3.4362449 C4.98546512,3.05806176 4.08594477,3.15777107 3.58953488,3.65453705 L3.0856468,4.15806903 C2.57677326,4.66729868 2.4809811,5.5415356 2.86735465,6.14869403 L3.77827035,7.57987862 C3.85234012,7.69668095 3.86480378,7.97907194 3.80106105,8.10192804 C3.79144622,8.12080159 3.7821875,8.14003124 3.7743532,8.15926089 L3.31747093,9.26959519 C3.31034884,9.28704432 3.30358285,9.30484955 3.29788517,9.32301089 C3.25550872,9.45548182 3.04469477,9.64777833 2.90866279,9.67804723 L1.25313227,10.0455472 C0.550537791,10.2018772 5.68434189e-14,10.8877347 5.68434189e-14,11.6077783 L5.68434189e-14,12.3199876 C5.68434189e-14,13.0396751 0.550537791,13.7258888 1.25277616,13.8818626 L2.9090189,14.2497187 C3.04469477,14.2799876 3.25550872,14.4722841 3.29788517,14.6047551 C3.30358285,14.6229164 3.31034884,14.6407216 3.31747093,14.6581708 L3.7743532,15.7685051 C3.7821875,15.7877347 3.79109012,15.8066083 3.80106105,15.8254818 C3.86480378,15.9479818 3.85234012,16.231085 3.77791424,16.3478873 L2.86735465,17.7790719 C2.480625,18.3862304 2.57677326,19.2608234 3.0856468,19.7696969 L3.58953488,20.273585 C4.08558866,20.7692827 4.9840407,20.8704164 5.58015988,20.4918772 L7.01063227,19.5813176 C7.0590625,19.5503365 7.17194767,19.5172187 7.30584302,19.5172187 C7.41587936,19.5172187 7.49742733,19.5389411 7.5333939,19.5581708 C7.55226744,19.5674295 7.57114099,19.5766882 7.59072674,19.5845225 L8.70070494,20.0417609 C8.71851017,20.048883 8.73631541,20.0552929 8.75447674,20.0609905 C8.88659157,20.103367 9.07888808,20.3145371 9.10915698,20.4502129 L9.47736919,22.1060996 C9.63334302,22.808694 10.3192006,23.3592318 11.0392442,23.3592318 L11.7514535,23.3592318 C12.471141,23.3592318 13.1569985,22.808694 13.3133285,22.1060996 L13.6815407,20.4502129 C13.7114535,20.3145371 13.9041061,20.103367 14.0362209,20.0609905 C14.0543823,20.0552929 14.0721875,20.048883 14.0896366,20.0417609 L15.1996148,19.5845225 C15.2192006,19.5766882 15.2384302,19.5674295 15.2569477,19.5581708 C15.2932703,19.5389411 15.3748183,19.5172187 15.4841424,19.5172187 C15.6180378,19.5172187 15.7312791,19.5503365 15.7789971,19.5813176 L17.2105378,20.4915211 C17.8045203,20.8704164 18.7043968,20.7699949 19.2011628,20.273585 L19.7046948,19.770053 C20.2135683,19.2611795 20.3097166,18.3865865 19.923343,17.7790719 L19.0124273,16.3478873 C18.9380015,16.231085 18.9255378,15.9483379 18.9896366,15.8258379 C18.9992515,15.8069644 19.0081541,15.7880908 19.0159884,15.7688612 L19.4728706,14.6581708 C19.4803488,14.6407216 19.4871148,14.6229164 19.4924564,14.6047551 C19.5348328,14.4722841 19.7460029,14.2799876 19.8820349,14.2497187 L21.5372093,13.8818626 C22.2401599,13.7258888 22.7906977,13.0396751 22.7906977,12.3199876 L22.7906977,11.6077783 C22.7906977,10.8877347 22.2401599,10.2018772 21.5375654,10.0459033 L19.8816788,9.67769112 Z" id="path-14"></path>
        <filter x="-4.4%" y="-4.4%" width="108.8%" height="117.6%" filterUnits="objectBoundingBox" id="filter-15">
            <feOffset dx="0" dy="2" in="SourceAlpha" result="shadowOffsetOuter1"></feOffset>
            <feColorMatrix values="0 0 0 0 0   0 0 0 0 0   0 0 0 0 0  0 0 0 0.1 0" type="matrix" in="shadowOffsetOuter1"></feColorMatrix>
        </filter>
        <path d="M0.332666667,8.59090909 C2.17466667,8.59090909 3.66666667,6.75981818 3.66666667,4.5 L3.66666667,4.5 C3.66666667,2.24018182 2.17466667,0.409090909 0.332666667,0.409090909 L0.332666667,0.409090909 L0.332666667,8.59090909 Z" id="path-16"></path>
    </defs>
    <g id="Badges" stroke="none" stroke-width="1" fill="none" fill-rule="evenodd">
        <g id="Extending-the-Power-Platform-user-experience-Model-Driven-apps" transform="translate(-50.000000, -260.000000)">
            <g id="Extending-the-Power-Platform-user-experience-Model-Driven-apps/automate-business-process-flows-with-client-script" transform="translate(50.000000, 260.000000)">
                <g id="Mask" transform="translate(2.000000, 2.000000)">
                    <mask id="mask-2" fill="white">
                        <use xlink:href="#path-1"></use>
                    </mask>
                    <use id="BG" fill="#55A2FF" xlink:href="#path-1"></use>
                    <g id="4" mask="url(#mask-2)">
                        <g transform="translate(23.000000, 13.000000)" id="Group-73">
                            <g transform="translate(0.272933, 0.000000)">
                                <g id="Group-4" filter="url(#filter-3)">
                                    <path d="M4.001,64 C1.801,64 0.001,62.2 0.001,60 L0.001,10 C0.001,7.8 1.801,6 4.001,6 L44.001,6 C46.201,6 48.001,7.8 48.001,10 L48.001,60 C48.001,62.2 46.201,64 44.001,64 L4.001,64" id="Fill-18" fill="#30404D"></path>
                                    <path d="M44.001,6 L24.001,6 L24.001,64 L44.001,64 C46.201,64 48.001,62.2 48.001,60 L48.001,10 C48.001,7.8 46.201,6 44.001,6" id="Fill-19" fill="#182A37"></path>
                                    <path d="M3.001,59 L3.001,11 C3.001,9.899 3.901,9 5.001,9 L43.001,9 C44.101,9 45.001,9.899 45.001,11 L45.001,59 C45.001,60.101 44.101,61 43.001,61 L5.001,61 C3.901,61 3.001,60.101 3.001,59 Z" id="Fill-20" fill="#FFFFFF"></path>
                                    <g id="Group-25" transform="translate(14.000000, 0.000000)">
                                        <mask id="mask-5" fill="white">
                                            <use xlink:href="#path-4"></use>
                                        </mask>
                                        <g id="Clip-23"></g>
                                        <path d="M19.001,11 L1.001,11 C0.451,11 0.001,10.55 0.001,10 L0.001,11 C0.001,11.55 0.451,12 1.001,12 L19.001,12 C19.551,12 20.001,11.55 20.001,11 L20.001,10 C20.001,10.55 19.551,11 19.001,11" id="Fill-22" fill="#546670" mask="url(#mask-5)"></path>
                                        <path d="M10.001,2 C11.104,2 12.001,2.897 12.001,4 L8.001,4 C8.001,2.897 8.897,2 10.001,2 Z M19.001,4 L14.001,4 C14.001,1.791 12.21,0 10.001,0 C7.792,0 6.001,1.791 6.001,4 L1.001,4 C0.451,4 0.001,4.45 0.001,5 L0.001,10 C0.001,10.55 0.451,11 1.001,11 L19.001,11 C19.551,11 20.001,10.55 20.001,10 L20.001,5 C20.001,4.45 19.551,4 19.001,4 L19.001,4 Z" id="Fill-24" fill="#ADBDC4" mask="url(#mask-5)"></path>
                                    </g>
                                    <polygon id="Fill-26" fill="#182A37" points="13.001 9 14.001 9 14.001 6 13.001 6"></polygon>
                                    <path d="M34.001,10 L34.001,5 C34.001,4.45 33.551,4 33.001,4 L29.001,4 L26.001,11 L33.001,11 C33.551,11 34.001,10.55 34.001,10" id="Fill-33" fill="#8BA6B1"></path>
                                    <path d="M24.686,0.069 L23.852,2.015 C23.902,2.011 23.95,2 24.001,2 C25.104,2 26.001,2.897 26.001,4 L23.001,4 L20.001,11 L24.001,11 L27.676,2.424 C27.151,1.202 26.033,0.303 24.686,0.069" id="Fill-34" fill="#8BA6B1"></path>
                                </g>
                            </g>
                        </g>
                    </g>
                    <g id="Group" mask="url(#mask-2)">
                        <g transform="translate(34.000000, 27.000000)">
                            <g id="Group-56" stroke="none" stroke-width="1" fill-rule="evenodd" transform="translate(11.538773, 6.000000)">
                                <g id="Group-70" transform="translate(0.917250, 0.000000)">
                                    <path d="" id="Path-2" stroke="#979797"></path>
                                    <path d="M1.11143336,11.7272727 L1.11143336,0.0624757661" id="Path-3" stroke="#ADBDC4" stroke-width="1.5"></path>
                                </g>
                            </g>
                            <g id="Fill-25" stroke="none">
                                <use fill="#7EB9FE" fill-rule="evenodd" xlink:href="#path-6"></use>
                                <use fill="black" fill-opacity="1" filter="url(#filter-7)" xlink:href="#path-6"></use>
                            </g>
                            <g id="Group-56" stroke="none" stroke-width="1" fill-rule="evenodd" transform="translate(10.000000, 16.000000)">
                                <g id="Group-70" transform="translate(0.729353, 0.000000)">
                                    <g id="Fill-25">
                                        <use fill="#F7CB64" fill-rule="evenodd" xlink:href="#path-8"></use>
                                        <use fill="black" fill-opacity="1" filter="url(#filter-9)" xlink:href="#path-8"></use>
                                    </g>
                                </g>
                            </g>
                            <path d="M4,18 L4,14 C4,12.8954305 4.8954305,12 6,12 L21,12 C22.1045695,12 23,12.8954305 23,14 L23,17.8808747" id="Path-4" stroke="#ADBDC4" stroke-width="1.5"></path>
                            <g id="Group-56" stroke="none" stroke-width="1" fill-rule="evenodd" transform="translate(0.000000, 16.000000)">
                                <g id="Group-70" transform="translate(0.735076, 0.000000)">
                                    <g id="Fill-25">
                                        <use fill="#DF5142" fill-rule="evenodd" xlink:href="#path-10"></use>
                                        <use fill="black" fill-opacity="1" filter="url(#filter-11)" xlink:href="#path-10"></use>
                                    </g>
                                </g>
                            </g>
                            <g id="Group-56" stroke="none" stroke-width="1" fill-rule="evenodd" transform="translate(20.000000, 16.000000)">
                                <g id="Group-70" transform="translate(0.500000, 0.000000)">
                                    <g id="Fill-25">
                                        <use fill="#7CB65A" fill-rule="evenodd" xlink:href="#path-12"></use>
                                        <use fill="black" fill-opacity="1" filter="url(#filter-13)" xlink:href="#path-12"></use>
                                    </g>
                                </g>
                            </g>
                        </g>
                    </g>
                    <path d="M34,54.5 L60.000038,54.5" id="Path-218" stroke="#ADBDC4" stroke-width="2" stroke-linecap="round" mask="url(#mask-2)"></path>
                    <path d="M34,60 L53,60" id="Path-218" stroke="#ADBDC4" stroke-width="2" stroke-linecap="round" mask="url(#mask-2)"></path>
                    <path d="M34,65 L47.000019,65" id="Path-218" stroke="#ADBDC4" stroke-width="2" stroke-linecap="round" mask="url(#mask-2)"></path>
                    <g id="Gear" mask="url(#mask-2)">
                        <g transform="translate(50.000000, 52.000000)">
                            <g id="Group-10" stroke-width="1" fill="none" fill-rule="evenodd" transform="translate(17.426000, 16.853553) rotate(-45.000000) translate(-17.426000, -16.853553) translate(5.926000, 4.853553)">
                                <path d="M13.7063953,11.963883 C13.7063953,10.6908201 12.6683401,9.65283647 11.3953488,9.65283647 C10.1221437,9.65283647 9.08430233,10.6906779 9.08430233,11.963883 C9.08430233,13.2370881 10.1221437,14.2749295 11.3953488,14.2749295 C12.6683401,14.2749295 13.7063953,13.2369459 13.7063953,11.963883 Z M18.3146123,9.73967385 C18.3153105,9.74142079 18.3160311,9.74314945 18.3169079,9.74525274 L18.3146123,9.73967385 Z M13.6269025,5.04728455 L13.6172654,5.04331463 C13.6213942,5.04504749 13.6241113,5.04618787 13.6269025,5.04728455 Z M4.47491934,14.1861238 C4.47446923,14.1850238 4.47398167,14.1838418 4.47343369,14.1825132 L4.47491934,14.1861238 Z M20.524513,15.3874292 L20.2726025,15.9998186 L20.9780981,17.1082576 C21.6787704,18.20996 21.5116972,19.7308176 20.5885782,20.6539365 L20.0847293,21.1577854 C19.1729607,22.0689004 17.6261061,22.2392697 16.539851,21.5463572 L15.4308406,20.8411737 L14.8191011,21.0931665 L14.5334895,22.37759 C14.249949,23.6519076 13.0569321,24.6092318 11.7514535,24.6092318 L11.0392442,24.6092318 C9.73330891,24.6092318 8.54006159,23.6517227 8.25717242,22.3774293 L7.97163005,21.093316 L7.35939216,20.8410745 L6.25023423,21.5471024 C5.16105252,22.2387393 3.6168434,22.0680065 2.70565141,21.1574685 L2.20176333,20.6535804 C1.27844928,19.7302664 1.11149679,18.2089756 1.81271296,17.1080795 L2.51783722,15.9997911 L2.2658206,15.3873225 L0.981744131,15.1021256 C-0.292565378,14.8190893 -1.25,13.6255101 -1.25,12.3199876 L-1.25,11.6077783 C-1.25,10.3020382 -0.292767982,9.10894723 0.982247128,8.82525167 L2.26587395,8.54030818 L2.51794857,7.92771701 L1.81277779,6.8197884 C1.11191789,5.71843712 1.27861013,4.19798466 2.20207582,3.27387317 L2.70533455,2.77097055 C3.61635735,1.85929421 5.16255562,1.68914572 6.25060943,2.38148437 L7.35939566,3.08664956 L7.97166852,2.83447194 L8.25710625,1.55027828 C8.54016065,0.275887232 9.73344909,-0.681465852 11.0392442,-0.681465852 L11.7514535,-0.681465852 C13.056921,-0.681465852 14.2503028,0.275847799 14.5339246,1.55053113 L14.8192567,2.83467455 L15.4307117,3.08659351 L16.5398404,2.38128592 C17.6282407,1.68872685 19.1740668,1.85866485 20.0850463,2.77029747 L20.5892437,3.27449498 C21.5118137,4.19771104 21.6787174,5.71817912 20.9779415,6.81939834 L20.2724964,7.92803009 L20.5242498,8.54004563 L21.8088952,8.82570657 L21.8084665,8.82561133 C23.0831885,9.10859574 24.0406977,10.3018431 24.0406977,11.6077783 L24.0406977,12.3199876 C24.0406977,13.6257905 23.082951,14.8192873 21.8084002,15.1020903 L20.524513,15.3874292 Z" id="Fill-376" stroke="#55A2FF" stroke-width="2.5"></path>
                                <g id="Fill-376">
                                    <use fill="black" fill-opacity="1" filter="url(#filter-15)" xlink:href="#path-14"></use>
                                    <use fill="#546670" fill-rule="evenodd" xlink:href="#path-14"></use>
                                </g>
                                <path d="M7.04290017,19.6642198 C7.09153444,19.6331088 7.2048952,19.5998521 7.33935464,19.5998521 C7.44985456,19.5998521 7.53174609,19.6216656 7.56786419,19.6409759 C7.58681725,19.6502735 7.60577031,19.6595711 7.62543858,19.6674382 L8.7400931,20.1265945 C8.75797334,20.1337465 8.77585359,20.1401833 8.79409144,20.1459048 C8.92676286,20.188459 9.11986952,20.4005149 9.15026594,20.5367599 L9.52002942,22.1995923 C9.67666037,22.9051339 10.3654074,23.4579809 11.0884846,23.4579809 L11.8036944,23.4579809 C12.5264139,23.4579809 13.215161,22.9051339 13.3721496,22.1995923 L13.7419131,20.5367599 C13.7719519,20.4005149 13.9654161,20.188459 14.0980875,20.1459048 C14.1163254,20.1401833 14.1342056,20.1337465 14.1517283,20.1265945 L15.2663828,19.6674382 C15.2860511,19.6595711 15.3053617,19.6502735 15.3239572,19.6409759 C15.3604329,19.6216656 15.4423244,19.5998521 15.5521091,19.5998521 C15.6865686,19.5998521 15.8002869,19.6331088 15.848206,19.6642198 L17.2857778,20.5782413 C17.8822628,20.9587259 18.7859304,20.8578832 19.2847892,20.3593911 L19.7904426,19.853747 C20.30146,19.3427389 20.3980133,18.4644773 20.010012,17.8544145 L19.0952586,16.4172266 C19.0205192,16.2999344 19.008003,16.0160013 19.0723719,15.8929874 C19.0820273,15.8740347 19.0909674,15.855082 19.0988347,15.8357717 L19.5576418,14.7204224 C19.5651515,14.7029001 19.571946,14.6850201 19.5773101,14.6667826 C19.619865,14.533756 19.8319248,14.3406529 19.9685298,14.3102571 L21.6306775,13.9408579 C22.3365896,13.7842299 22.8894468,13.0951378 22.8894468,12.3724315 L22.8894468,11.6572348 C22.8894468,10.9341708 22.3365896,10.2454364 21.6310351,10.0888083 L19.9681722,9.71905159 C19.8319248,9.68901333 19.619865,9.49591021 19.5773101,9.36288361 C19.571946,9.3446461 19.5651515,9.32676618 19.5576418,9.30924386 L19.0988347,8.19425214 C19.0909674,8.17494183 19.0820273,8.15563152 19.0723719,8.1370364 C19.008003,8.01366496 19.0205192,7.72937426 19.0952586,7.61243959 L20.010012,6.17489415 C20.3980133,5.56518893 20.2624225,4.72632243 19.7517627,4.21531436 L19.2792625,3.74281878 L13.8167577,9.20532356 C14.4643802,9.8529342 15.0221386,11.0289344 15.0221386,12.0148331 C15.0221386,13.9866305 13.4175654,15.5908168 11.4460895,15.5908168 C10.4601727,15.5908168 9.38856109,14.9283957 8.74093859,14.2811427 L3.13503996,19.8870413 L3.60738975,20.3593911 C4.10553339,20.857168 5.00777059,20.9587259 5.60640122,20.5785989 L7.04290017,19.6642198 Z" id="Fill-377" fill="#30404D"></path>
                            </g>
                            <circle id="Oval" fill="#55A2FF" fill-rule="nonzero" cx="17" cy="17" r="4"></circle>
                            <g id="Group-11" stroke-width="1" fill="none" fill-rule="evenodd" transform="translate(13.000000, 13.000000)">
                                <path d="M4,8.18181818 C6.2096,8.18181818 8,6.35072727 8,4.09090909 C8,1.83109091 6.2096,0 4,0 C1.7912,0 0,1.83109091 0,4.09090909 C0,6.35072727 1.7912,8.18181818 4,8.18181818 Z" id="Stroke-4" stroke="#30404D"></path>
                                <g id="Group-8" transform="translate(4.000000, 0.000000)">
                                    <mask id="mask-17" fill="white">
                                        <use xlink:href="#path-16"></use>
                                    </mask>
                                    <g id="Clip-7"></g>
                                    <polygon id="Stroke-6" stroke="#C4C4C4" mask="url(#mask-17)" points="-6.33333333 12.6818182 7 12.6818182 7 -3.68181818 -6.33333333 -3.68181818"></polygon>
                                </g>
                                <path d="M4,8.18181818 C6.2096,8.18181818 8,6.35072727 8,4.09090909 C8,1.83109091 6.2096,0 4,0" id="Stroke-9" stroke="#546670"></path>
                            </g>
                        </g>
                    </g>
                </g>
                <g id="Azure-Border" stroke="#0078D4" stroke-width="4">
                    <rect x="2" y="2" width="96" height="96" rx="48"></rect>
                </g>
            </g>
        </g>
    </g>
</svg>