<svg width="100" height="100" viewBox="0 0 100 100" fill="none" xmlns="http://www.w3.org/2000/svg">
<g clip-path="url(#clip0_1439_3836)">
<path d="M49.6399 96.4497C40.3817 96.4497 31.3315 93.7043 23.6336 88.5608C15.9357 83.4172 9.93598 76.1065 6.39305 67.5531C2.85011 58.9997 1.92312 49.5877 3.7293 40.5075C5.53548 31.4272 9.99371 23.0865 16.5402 16.54C23.0867 9.99349 31.4275 5.53528 40.5077 3.72912C49.588 1.92295 58.9999 2.84996 67.5533 6.39291C76.1067 9.93586 83.4175 15.9356 88.561 23.6335C93.7045 31.3314 96.4499 40.3816 96.4499 49.6398C96.4503 55.7871 95.2398 61.8742 92.8875 67.5537C90.5352 73.2331 87.0873 78.3936 82.7405 82.7404C78.3937 87.0872 73.2332 90.5351 67.5538 92.8874C61.8743 95.2397 55.7871 96.4501 49.6399 96.4497Z" fill="url(#paint0_linear_1439_3836)"/>
<path fill-rule="evenodd" clip-rule="evenodd" d="M95.54 49.6399C95.54 58.718 92.848 67.5923 87.8045 75.1405C82.7609 82.6888 75.5923 88.5719 67.2052 92.0459C58.818 95.52 49.5891 96.429 40.6854 94.6579C31.7816 92.8869 23.603 88.5153 17.1838 82.0961C10.7646 75.6768 6.39302 67.4982 4.62196 58.5945C2.85089 49.6908 3.75987 40.4618 7.23393 32.0747C10.708 23.6876 16.5911 16.519 24.1393 11.4754C31.6875 6.43186 40.5618 3.73987 49.64 3.73987C55.6677 3.73986 61.6363 4.92709 67.2052 7.23378C72.774 9.54046 77.834 12.9214 82.0962 17.1836C86.3584 21.4459 89.7394 26.5058 92.0461 32.0747C94.3528 37.6435 95.54 43.6122 95.54 49.6399V49.6399ZM49.64 -0.00010647C59.4579 -0.00010647 69.0552 2.91123 77.2185 8.36574C85.3818 13.8203 91.7442 21.573 95.5014 30.6435C99.2585 39.714 100.242 49.695 98.3262 59.3242C96.4108 68.9534 91.6831 77.7984 84.7408 84.7407C77.7985 91.683 68.9535 96.4107 59.3243 98.3261C49.6951 100.241 39.7141 99.2584 30.6436 95.5013C21.5731 91.7441 13.8203 85.3816 8.36584 77.2184C2.91133 69.0551 -3.61668e-06 59.4577 3.3895e-07 49.6399C-0.000761487 43.1208 1.2827 36.6655 3.77707 30.6426C6.27144 24.6196 9.92787 19.1471 14.5375 14.5374C19.1472 9.92775 24.6197 6.27133 30.6427 3.77695C36.6656 1.28258 43.121 -0.000870923 49.64 -0.00010647V-0.00010647Z" fill="#F2F1F0"/>
<path fill-rule="evenodd" clip-rule="evenodd" d="M92.7298 49.6397C92.7298 58.1621 90.2026 66.4931 85.4678 73.5792C80.7331 80.6653 74.0033 86.1883 66.1296 89.4496C58.256 92.711 49.592 93.5644 41.2334 91.9017C32.8747 90.2391 25.1968 86.1352 19.1706 80.1089C13.1443 74.0827 9.04041 66.4048 7.37778 58.0461C5.71514 49.6875 6.56847 41.0235 9.82985 33.1498C13.0912 25.2762 18.6142 18.5464 25.7003 13.8117C32.7864 9.07686 41.1174 6.54968 49.6398 6.54968C55.2986 6.54933 60.902 7.66365 66.13 9.82901C71.3581 11.9944 76.1085 15.1683 80.1098 19.1697C84.1112 23.171 87.2851 27.9214 89.4505 33.1494C91.6158 38.3775 92.7302 43.9809 92.7298 49.6397ZM49.6398 2.80968C58.9019 2.80968 67.956 5.55621 75.6572 10.702C83.3583 15.8477 89.3606 23.1615 92.9051 31.7186C96.4495 40.2757 97.3769 49.6916 95.57 58.7758C93.763 67.8599 89.3029 76.2042 82.7536 82.7535C76.2043 89.3028 67.86 93.7629 58.7759 95.5699C49.6918 97.3768 40.2758 96.4494 31.7187 92.905C23.1617 89.3605 15.8478 83.3582 10.7021 75.657C5.55635 67.9559 2.80981 58.9018 2.80981 49.6397C2.811 37.22 7.74525 25.3093 16.5273 16.5272C25.3094 7.74512 37.2201 2.81089 49.6398 2.80971V2.80968Z" fill="url(#paint1_linear_1439_3836)"/>
<path opacity="0.6" d="M74.3764 29.1795H24.9038C22.4936 29.1795 20.5398 31.1333 20.5398 33.5435V65.7357C20.5398 68.1459 22.4936 70.0997 24.9038 70.0997H74.3764C76.7865 70.0997 78.7404 68.1459 78.7404 65.7357V33.5435C78.7404 31.1333 76.7865 29.1795 74.3764 29.1795Z" fill="white"/>
<path d="M24.9038 29.1795H49.6401V70.0997H24.9038C24.3307 70.0997 23.7632 69.9868 23.2338 69.7675C22.7043 69.5482 22.2232 69.2268 21.818 68.8215C21.4127 68.4163 21.0913 67.9352 20.872 67.4058C20.6527 66.8763 20.5398 66.3088 20.5398 65.7357V33.5435C20.5398 32.3861 20.9996 31.2761 21.818 30.4577C22.6364 29.6393 23.7464 29.1795 24.9038 29.1795V29.1795Z" fill="white"/>
<path d="M44.4731 62.8676H35.6716V37.5288C35.6723 37.2329 35.7902 36.9494 35.9994 36.7402C36.2086 36.5309 36.4922 36.4131 36.788 36.4124H44.4731C44.769 36.4131 45.0526 36.5309 45.2618 36.7401C45.471 36.9494 45.5888 37.2329 45.5895 37.5288V61.7512C45.5901 61.898 45.5617 62.0434 45.5058 62.1791C45.4499 62.3149 45.3677 62.4382 45.2639 62.542C45.1601 62.6457 45.0368 62.728 44.9011 62.7838C44.7653 62.8397 44.6199 62.8682 44.4731 62.8676Z" fill="url(#paint2_linear_1439_3836)"/>
<path opacity="0.2" d="M35.2332 62.8676H40.3585C40.7434 62.3746 40.9535 61.7677 40.9559 61.1423V44.8912C40.9559 44.4339 40.7743 43.9954 40.451 43.6721C40.1276 43.3488 39.6891 43.1672 39.2319 43.1672H35.2332V62.8676Z" fill="#D15900"/>
<path d="M38.3103 62.8676H30.084V44.8643C30.0844 44.4143 30.2634 43.9829 30.5816 43.6647C30.8997 43.3466 31.3311 43.1676 31.7811 43.1671H38.3103C38.7603 43.1676 39.1917 43.3466 39.5099 43.6647C39.8281 43.9829 40.007 44.4143 40.0075 44.8643V61.1704C40.0077 61.3934 39.964 61.6142 39.8788 61.8202C39.7936 62.0262 39.6686 62.2134 39.511 62.371C39.3533 62.5287 39.1661 62.6537 38.9601 62.7389C38.7541 62.8241 38.5333 62.8678 38.3103 62.8676Z" fill="url(#paint3_linear_1439_3836)"/>
<path opacity="0.2" d="M30.084 62.8675H35.2093C35.5942 62.3746 35.8043 61.7677 35.8068 61.1423V51.3753C35.8068 50.9181 35.6251 50.4796 35.3018 50.1562C34.9785 49.8329 34.54 49.6513 34.0828 49.6513H30.084V62.8675Z" fill="url(#paint4_linear_1439_3836)"/>
<path d="M32.9482 62.8676H26.4866C26.0276 62.8675 25.5873 62.6851 25.2627 62.3605C24.9381 62.0359 24.7557 61.5956 24.7556 61.1366V51.3822C24.7557 50.9232 24.9381 50.4829 25.2627 50.1583C25.5873 49.8337 26.0276 49.6513 26.4866 49.6512H32.9482C33.4072 49.6513 33.8474 49.8337 34.1721 50.1583C34.4967 50.4829 34.6791 50.9232 34.6792 51.3822V61.1422C34.6779 61.6004 34.4949 62.0394 34.1704 62.3628C33.8459 62.6863 33.4063 62.8678 32.9482 62.8676V62.8676Z" fill="url(#paint5_linear_1439_3836)"/>
<path d="M57.1612 47.5981H68.4038C68.8088 47.5981 69.1972 47.759 69.4835 48.0453C69.7699 48.3317 69.9308 48.72 69.9308 49.125V49.125C69.9308 49.53 69.7699 49.9184 69.4836 50.2047C69.1972 50.4911 68.8088 50.652 68.4038 50.652H57.1612C56.7562 50.652 56.3679 50.4911 56.0815 50.2047C55.7951 49.9184 55.6343 49.53 55.6343 49.125V49.125C55.6343 48.72 55.7952 48.3317 56.0815 48.0453C56.3679 47.759 56.7563 47.5981 57.1612 47.5981V47.5981Z" fill="white"/>
<path d="M57.1612 59.8137H66.8769C67.2819 59.8137 67.6702 59.9746 67.9566 60.2609C68.243 60.5473 68.4038 60.9356 68.4038 61.3406V61.3406C68.4038 61.5411 68.3643 61.7397 68.2876 61.9249C68.2109 62.1102 68.0984 62.2785 67.9566 62.4203C67.8148 62.5621 67.6465 62.6746 67.4612 62.7513C67.276 62.8281 67.0774 62.8676 66.8769 62.8675H57.1612C56.9607 62.8676 56.7621 62.8281 56.5769 62.7513C56.3916 62.6746 56.2233 62.5621 56.0815 62.4203C55.9397 62.2785 55.8272 62.1102 55.7505 61.9249C55.6738 61.7397 55.6343 61.5411 55.6343 61.3406V61.3406C55.6343 60.9356 55.7952 60.5473 56.0815 60.2609C56.3679 59.9746 56.7563 59.8137 57.1612 59.8137Z" fill="white"/>
<path d="M57.1612 53.7059H68.4038C68.8088 53.7059 69.1972 53.8667 69.4836 54.1531C69.7699 54.4395 69.9308 54.8278 69.9308 55.2328V55.2328C69.9308 55.6378 69.7699 56.0262 69.4836 56.3125C69.1972 56.5989 68.8088 56.7597 68.4038 56.7598H57.1612C56.7563 56.7597 56.3679 56.5989 56.0815 56.3125C55.7952 56.0262 55.6343 55.6378 55.6343 55.2328V55.2328C55.6343 54.8278 55.7952 54.4395 56.0815 54.1531C56.3679 53.8667 56.7563 53.7059 57.1612 53.7059V53.7059Z" fill="white"/>
<path d="M60.0545 43.8239C62.4958 43.8239 64.4748 41.8449 64.4748 39.4037C64.4748 36.9624 62.4958 34.9834 60.0545 34.9834C57.6133 34.9834 55.6343 36.9624 55.6343 39.4037C55.6343 41.8449 57.6133 43.8239 60.0545 43.8239Z" fill="white"/>
</g>
<defs>
<linearGradient id="paint0_linear_1439_3836" x1="49.6398" y1="91.4709" x2="49.6398" y2="9.09944" gradientUnits="userSpaceOnUse">
<stop stop-color="#0082E6"/>
<stop offset="1" stop-color="#8DC8E8"/>
</linearGradient>
<linearGradient id="paint1_linear_1439_3836" x1="50.8009" y1="85.0923" x2="48.4072" y2="12.0026" gradientUnits="userSpaceOnUse">
<stop stop-color="#0078D4"/>
<stop offset="1" stop-color="#8661C5"/>
</linearGradient>
<linearGradient id="paint2_linear_1439_3836" x1="40.5213" y1="38.8291" x2="40.7324" y2="60.7902" gradientUnits="userSpaceOnUse">
<stop offset="0.00754" stop-color="#E0A310"/>
<stop offset="1" stop-color="#CA810E"/>
</linearGradient>
<linearGradient id="paint3_linear_1439_3836" x1="34.7754" y1="43.9421" x2="35.4082" y2="67.1438" gradientUnits="userSpaceOnUse">
<stop offset="0.00754" stop-color="#F2CC40"/>
<stop offset="1" stop-color="#E7B116"/>
</linearGradient>
<linearGradient id="paint4_linear_1439_3836" x1="32.6741" y1="61.8455" x2="33.3029" y2="46.9658" gradientUnits="userSpaceOnUse">
<stop offset="0.00754" stop-color="#E0A310"/>
<stop offset="1" stop-color="#CA810E"/>
</linearGradient>
<linearGradient id="paint5_linear_1439_3836" x1="29.4809" y1="50.6635" x2="30.1146" y2="65.6607" gradientUnits="userSpaceOnUse">
<stop stop-color="#F8E17B"/>
<stop offset="0.5302" stop-color="#F6D856"/>
<stop offset="1" stop-color="#F6D856"/>
</linearGradient>
<clipPath id="clip0_1439_3836">
<rect width="99.2799" height="99.28" fill="white"/>
</clipPath>
</defs>
</svg>
