<svg width="103" height="103" viewBox="0 0 103 103" fill="none" xmlns="http://www.w3.org/2000/svg">
<path d="M51.124 98.1393C25.274 98.1393 4.31396 77.1893 4.31396 51.3293C4.31396 25.4693 25.274 4.51929 51.124 4.51929C76.974 4.51929 97.934 25.4793 97.934 51.3293C97.934 77.1793 76.974 98.1393 51.124 98.1393Z" fill="url(#paint0_linear_1272_1350)"/>
<path fill-rule="evenodd" clip-rule="evenodd" d="M97.0239 51.3295C97.0239 76.6795 76.4739 97.2294 51.1239 97.2294C25.7739 97.2294 5.22389 76.6795 5.22389 51.3295C5.22389 25.9795 25.7739 5.42946 51.1239 5.42946C76.4739 5.42946 97.0239 25.9795 97.0239 51.3295ZM51.1239 1.68945C78.5439 1.68945 100.764 23.9095 100.764 51.3295C100.764 78.7495 78.5339 100.969 51.1239 100.969C23.7039 100.969 1.48389 78.7395 1.48389 51.3295C1.48389 23.9095 23.7039 1.68945 51.1239 1.68945Z" fill="#F2F1F0"/>
<path d="M83.6816 31.9691V31.124H67.9746C67.8136 31.124 67.6728 31.2649 67.6728 31.4258V49.3082H59.3096V50.1533H67.6661V67.2687C67.6661 67.4296 67.7935 67.5705 67.9679 67.5705L83.6749 67.6107V66.7657H68.5044V31.9624H83.6816V31.9691Z" fill="#78787D"/>
<g filter="url(#filter0_b_1272_1350)">
<path d="M85.4655 29.8389V28.6518C85.4655 28.0549 84.976 27.572 84.3858 27.572H73.5612C72.9643 27.572 72.4814 28.0616 72.4814 28.6518V29.9059V30.6168V71.1921C72.4814 71.789 72.971 72.2719 73.5612 72.2719H84.3858C84.9827 72.2719 85.4655 71.7823 85.4655 71.1921V29.8992C85.479 29.8791 85.4655 29.859 85.4655 29.8389Z" fill="#FBFAFE"/>
</g>
<path d="M83.118 30.4626H74.8286V36.8407H83.118V30.4626Z" fill="url(#paint1_linear_1272_1350)"/>
<path d="M83.118 38.3362H74.8286V44.7142H83.118V38.3362Z" fill="url(#paint2_linear_1272_1350)"/>
<path d="M83.118 46.2166H74.8286V52.5946H83.118V46.2166Z" fill="url(#paint3_linear_1272_1350)"/>
<path d="M83.118 54.0901H74.8286V60.4681H83.118V54.0901Z" fill="url(#paint4_linear_1272_1350)"/>
<path d="M83.118 61.9705H74.8286V68.3485H83.118V61.9705Z" fill="url(#paint5_linear_1272_1350)"/>
<g filter="url(#filter1_bd_1272_1350)">
<path d="M38.2603 72.6988C51.3523 72.6988 61.9654 62.0857 61.9654 48.9937C61.9654 35.9017 51.3523 25.2886 38.2603 25.2886C25.1683 25.2886 14.5552 35.9017 14.5552 48.9937C14.5552 62.0857 25.1683 72.6988 38.2603 72.6988Z" fill="white" fill-opacity="0.35" shape-rendering="crispEdges"/>
</g>
<path opacity="0.15" d="M77 84.4365L58.7119 66.4266C62.0738 62.0529 64.0661 56.5741 64.0661 50.6439C64.0661 36.3088 52.4237 24.6975 38.1041 24.6975C23.7846 24.6975 12.1577 36.3088 12.1577 50.6439C12.1577 64.9791 23.769 76.5904 38.1041 76.5904C43.8631 76.5904 49.1551 74.7226 53.4821 71.5474L71.8014 89.604C71.8014 89.604 73.8248 90.3978 75.9572 88.1409C78.1051 85.9152 77 84.4365 77 84.4365ZM16.0333 50.7373C16.0333 38.5813 25.8858 28.7288 38.0419 28.7288C50.1979 28.7288 60.0504 38.5813 60.0504 50.7373C60.0504 62.8934 50.1668 72.7459 38.0108 72.7459C25.8547 72.7459 16.0333 62.8934 16.0333 50.7373Z" fill="#1F1D20"/>
<path d="M16.0333 49.3054C16.0333 37.1494 25.8858 27.2969 38.0419 27.2969C50.1979 27.2969 60.0504 37.1494 60.0504 49.3054C60.0504 61.4615 50.1668 71.314 38.0108 71.314C25.8547 71.314 16.0333 61.4615 16.0333 49.3054ZM78.75 85.0615L58.7119 64.9947C62.0738 60.621 64.0661 55.1422 64.0661 49.2121C64.0661 34.8769 52.4393 23.2656 38.1041 23.2656C23.769 23.2656 12.1577 34.8769 12.1577 49.2121C12.1577 63.5472 23.769 75.1585 38.1041 75.1585C43.8631 75.1585 49.1551 73.2907 53.4821 70.1155L73.5514 90.229C73.5514 90.229 75.5748 91.0228 77.7072 88.7659C79.8551 86.5402 78.75 85.0615 78.75 85.0615Z" fill="#092E4C"/>
<path d="M52.6785 54.0592L39.3849 64.0275C39.0421 64.2848 38.6244 64.4224 38.1958 64.4194C37.7673 64.4163 37.3515 64.2727 37.0124 64.0107L27.4361 56.6043C27.2557 56.4646 27.1098 56.2853 27.0099 56.0801C26.9099 55.875 26.8586 55.6495 26.8599 55.4213C26.8612 55.1932 26.915 54.9683 27.0172 54.7643C27.1194 54.5603 27.2672 54.3825 27.4492 54.2449L41.99 43.2263L52.6804 51.261C52.8976 51.4239 53.074 51.6352 53.1953 51.8782C53.3167 52.1211 53.3798 52.389 53.3796 52.6606C53.3794 52.9322 53.316 53.1999 53.1943 53.4427C53.0726 53.6855 52.896 53.8966 52.6785 54.0592Z" fill="url(#paint6_linear_1272_1350)"/>
<path d="M52.6693 54.0555L44.1714 60.3741C43.7753 60.6694 43.2944 60.8289 42.8004 60.8289C42.3063 60.8289 41.8255 60.6694 41.4294 60.3741L30.332 52.0637L42.0258 43.2263L52.6786 51.2554C52.8955 51.4191 53.0712 51.631 53.192 51.8745C53.3127 52.1179 53.3751 52.3861 53.3741 52.6578C53.3732 52.9295 53.3091 53.1972 53.1867 53.4398C53.0644 53.6824 52.8872 53.8933 52.6693 54.0555Z" fill="url(#paint7_linear_1272_1350)"/>
<g filter="url(#filter2_d_1272_1350)">
<path d="M48.7401 44.1492L38.5714 51.8751C36.0789 53.7689 32.632 53.7776 30.13 51.8964L23.4677 46.8874C23.296 46.7582 23.1568 46.591 23.0609 46.3988C22.965 46.2066 22.915 45.9947 22.915 45.7799C22.915 45.5651 22.965 45.3532 23.0609 45.161C23.1568 44.9688 23.296 44.8016 23.4677 44.6724L37.3183 34.2221C37.5609 34.0388 37.8563 33.9386 38.1604 33.9366C38.4645 33.9345 38.7612 34.0307 39.0062 34.2109L48.7213 41.3472C48.9405 41.5084 49.119 41.7186 49.2427 41.961C49.3663 42.2034 49.4316 42.4713 49.4334 42.7435C49.4353 43.0156 49.3735 43.2843 49.2532 43.5284C49.1328 43.7724 48.9571 43.985 48.7401 44.1492Z" fill="url(#paint8_linear_1272_1350)"/>
</g>
<path d="M46.034 46.1785L35.5799 54.1456C35.2278 54.4126 34.798 54.5571 34.3561 54.5571C33.9143 54.5571 33.4845 54.4126 33.1324 54.1456L23.4679 46.8799C23.2966 46.7505 23.1577 46.5832 23.062 46.391C22.9663 46.1988 22.9165 45.9871 22.9165 45.7724C22.9165 45.5578 22.9663 45.346 23.062 45.1538C23.1577 44.9617 23.2966 44.7943 23.4679 44.6649L33.5956 37.0298L46.034 46.1785Z" fill="url(#paint9_linear_1272_1350)"/>
<path fill-rule="evenodd" clip-rule="evenodd" d="M94.214 51.3293C94.214 75.1293 74.924 94.4193 51.1239 94.4193C27.3239 94.4193 8.03395 75.1293 8.03395 51.3293C8.03395 27.5293 27.3239 8.23927 51.1239 8.23927C74.924 8.23927 94.214 27.5293 94.214 51.3293ZM51.1239 4.49927C76.9839 4.49927 97.9539 25.4693 97.9539 51.3293C97.9539 77.1893 76.9839 98.1593 51.1239 98.1593C25.2639 98.1593 4.29395 77.1893 4.29395 51.3293C4.29395 25.4693 25.2539 4.49927 51.1239 4.49927Z" fill="url(#paint10_linear_1272_1350)"/>
<defs>
<filter id="filter0_b_1272_1350" x="58.314" y="13.4046" width="41.325" height="73.0347" filterUnits="userSpaceOnUse" color-interpolation-filters="sRGB">
<feFlood flood-opacity="0" result="BackgroundImageFix"/>
<feGaussianBlur in="BackgroundImageFix" stdDeviation="7.0837"/>
<feComposite in2="SourceAlpha" operator="in" result="effect1_backgroundBlur_1272_1350"/>
<feBlend mode="normal" in="SourceGraphic" in2="effect1_backgroundBlur_1272_1350" result="shape"/>
</filter>
<filter id="filter1_bd_1272_1350" x="0.387778" y="11.1212" width="75.745" height="89.9123" filterUnits="userSpaceOnUse" color-interpolation-filters="sRGB">
<feFlood flood-opacity="0" result="BackgroundImageFix"/>
<feGaussianBlur in="BackgroundImageFix" stdDeviation="7.0837"/>
<feComposite in2="SourceAlpha" operator="in" result="effect1_backgroundBlur_1272_1350"/>
<feColorMatrix in="SourceAlpha" type="matrix" values="0 0 0 0 0 0 0 0 0 0 0 0 0 0 0 0 0 0 127 0" result="hardAlpha"/>
<feOffset dy="14.1674"/>
<feGaussianBlur stdDeviation="7.0837"/>
<feComposite in2="hardAlpha" operator="out"/>
<feColorMatrix type="matrix" values="0 0 0 0 0 0 0 0 0 0 0 0 0 0 0 0 0 0 0.25 0"/>
<feBlend mode="normal" in2="effect1_backgroundBlur_1272_1350" result="effect2_dropShadow_1272_1350"/>
<feBlend mode="normal" in="SourceGraphic" in2="effect2_dropShadow_1272_1350" result="shape"/>
</filter>
<filter id="filter2_d_1272_1350" x="18.915" y="30.9365" width="34.5186" height="27.365" filterUnits="userSpaceOnUse" color-interpolation-filters="sRGB">
<feFlood flood-opacity="0" result="BackgroundImageFix"/>
<feColorMatrix in="SourceAlpha" type="matrix" values="0 0 0 0 0 0 0 0 0 0 0 0 0 0 0 0 0 0 127 0" result="hardAlpha"/>
<feOffset dy="1"/>
<feGaussianBlur stdDeviation="2"/>
<feComposite in2="hardAlpha" operator="out"/>
<feColorMatrix type="matrix" values="0 0 0 0 0 0 0 0 0 0 0 0 0 0 0 0 0 0 0.25 0"/>
<feBlend mode="normal" in2="BackgroundImageFix" result="effect1_dropShadow_1272_1350"/>
<feBlend mode="normal" in="SourceGraphic" in2="effect1_dropShadow_1272_1350" result="shape"/>
</filter>
<linearGradient id="paint0_linear_1272_1350" x1="19.2573" y1="13.2193" x2="77.0517" y2="147.858" gradientUnits="userSpaceOnUse">
<stop offset="0.192708" stop-color="white"/>
<stop offset="1" stop-color="#D0C1F7"/>
</linearGradient>
<linearGradient id="paint1_linear_1272_1350" x1="78.04" y1="31.964" x2="79.2894" y2="34.2653" gradientUnits="userSpaceOnUse">
<stop stop-color="#D4C6FA"/>
<stop offset="0.97" stop-color="#C7B7F6"/>
</linearGradient>
<linearGradient id="paint2_linear_1272_1350" x1="78.9733" y1="39.1094" x2="78.9733" y2="43.7837" gradientUnits="userSpaceOnUse">
<stop stop-color="#B2A1EC"/>
<stop offset="1" stop-color="#9889E3"/>
</linearGradient>
<linearGradient id="paint3_linear_1272_1350" x1="78.3866" y1="48.6013" x2="79.7203" y2="50.7079" gradientUnits="userSpaceOnUse">
<stop stop-color="#7E70D3"/>
<stop offset="1" stop-color="#685AD3"/>
</linearGradient>
<linearGradient id="paint4_linear_1272_1350" x1="78.9356" y1="56.7118" x2="79.0848" y2="59.3294" gradientUnits="userSpaceOnUse">
<stop stop-color="#5C58BB"/>
<stop offset="1" stop-color="#524BB1"/>
</linearGradient>
<linearGradient id="paint5_linear_1272_1350" x1="78.9356" y1="64.5922" x2="79.0848" y2="67.2098" gradientUnits="userSpaceOnUse">
<stop stop-color="#433FA9"/>
<stop offset="1" stop-color="#3D3697"/>
</linearGradient>
<linearGradient id="paint6_linear_1272_1350" x1="38.2428" y1="51.1503" x2="42.744" y2="57.9959" gradientUnits="userSpaceOnUse">
<stop stop-color="#7E70D3"/>
<stop offset="1" stop-color="#685AD3"/>
</linearGradient>
<linearGradient id="paint7_linear_1272_1350" x1="41.7482" y1="50.462" x2="42.1571" y2="57.6865" gradientUnits="userSpaceOnUse">
<stop stop-color="#433FA9"/>
<stop offset="1" stop-color="#3D3697"/>
</linearGradient>
<linearGradient id="paint8_linear_1272_1350" x1="33.1884" y1="38.9128" x2="37.4083" y2="46.4148" gradientUnits="userSpaceOnUse">
<stop stop-color="#D4C6FA"/>
<stop offset="0.97" stop-color="#C7B7F6"/>
</linearGradient>
<linearGradient id="paint9_linear_1272_1350" x1="34.4752" y1="39.1547" x2="34.4752" y2="52" gradientUnits="userSpaceOnUse">
<stop stop-color="#B2A1EC"/>
<stop offset="1" stop-color="#9889E3"/>
</linearGradient>
<linearGradient id="paint10_linear_1272_1350" x1="3.68513" y1="-1.63363" x2="67.4111" y2="120.649" gradientUnits="userSpaceOnUse">
<stop stop-color="#9A89E6"/>
<stop offset="0.421875" stop-color="#6F61D3"/>
<stop offset="0.786458" stop-color="#403CAE"/>
</linearGradient>
</defs>
</svg>
