<svg width="103" height="102" viewBox="0 0 103 102" fill="none" xmlns="http://www.w3.org/2000/svg">
<path d="M51.0892 97.351C25.4927 97.351 4.73816 76.6064 4.73816 50.9999C4.73816 25.3935 25.4927 4.64886 51.0892 4.64886C76.6858 4.64886 97.4403 25.4034 97.4403 50.9999C97.4403 76.5965 76.6858 97.351 51.0892 97.351Z" fill="url(#paint0_linear_1844_11389)"/>
<path fill-rule="evenodd" clip-rule="evenodd" d="M96.5395 51.0003C96.5395 76.1018 76.191 96.4503 51.0895 96.4503C25.988 96.4503 5.63949 76.1018 5.63949 51.0003C5.63949 25.8989 25.988 5.55035 51.0895 5.55035C76.191 5.55035 96.5395 25.8989 96.5395 51.0003ZM51.0895 1.84702C78.2407 1.84702 100.243 23.8492 100.243 51.0003C100.243 78.1515 78.2308 100.154 51.0895 100.154C23.9383 100.154 1.93616 78.1416 1.93616 51.0003C1.93616 23.8492 23.9383 1.84702 51.0895 1.84702Z" fill="#F2F1F0"/>
<path fill-rule="evenodd" clip-rule="evenodd" d="M93.7568 50.9999C93.7568 74.5666 74.6559 93.6675 51.0893 93.6675C27.5226 93.6675 8.42172 74.5666 8.42172 50.9999C8.42172 27.4332 27.5226 8.33237 51.0893 8.33237C74.6559 8.33237 93.7568 27.4332 93.7568 50.9999ZM51.0893 4.62903C76.6957 4.62903 97.4601 25.3934 97.4601 50.9999C97.4601 76.6064 76.6957 97.3708 51.0893 97.3708C25.4828 97.3708 4.71838 76.6064 4.71838 50.9999C4.71838 25.3934 25.4729 4.62903 51.0893 4.62903Z" fill="url(#paint1_linear_1844_11389)"/>
<path d="M72.7152 67.7965H55.1465V69.3176H72.7152V67.7965Z" fill="white"/>
<path d="M72.7152 55.0418H55.1465V56.5629H72.7152V55.0418Z" fill="white"/>
<path d="M72.7152 42.2752H55.1465V43.7963H72.7152V42.2752Z" fill="white"/>
<path d="M72.7152 29.497H55.1465V31.0181H72.7152V29.497Z" fill="white"/>
<g filter="url(#filter0_ddddd_1844_11389)">
<path d="M79.6467 24.6301H66.945C66.7609 24.6301 66.5792 24.6663 66.4091 24.7368C66.2391 24.8072 66.0841 24.9106 65.954 25.0407C65.8238 25.1709 65.7209 25.3254 65.6505 25.4954C65.5801 25.6655 65.5433 25.8477 65.5433 26.0318V33.8219C65.5433 34.006 65.5801 34.1882 65.6505 34.3583C65.7209 34.5283 65.8238 34.6828 65.954 34.8129C66.0841 34.9431 66.2391 35.0465 66.4091 35.1169C66.5792 35.1873 66.7609 35.2235 66.945 35.2235H79.6467C79.8306 35.225 80.0134 35.1896 80.1835 35.1196C80.3536 35.0495 80.5081 34.9462 80.6377 34.8156C80.7672 34.685 80.8692 34.53 80.9379 34.3593C81.0067 34.1887 81.0406 34.0058 81.0377 33.8219V26.0535C81.0405 25.8685 81.0064 25.6848 80.9379 25.5129C80.8695 25.3411 80.768 25.1842 80.6387 25.0519C80.5094 24.9196 80.3548 24.8145 80.1846 24.7421C80.0144 24.6696 79.8316 24.6315 79.6467 24.6301V24.6301Z" fill="#96D8EC"/>
</g>
<g filter="url(#filter1_ddddd_1844_11389)">
<path d="M79.6467 50.4884H66.945C66.7609 50.4884 66.5792 50.5246 66.4091 50.5951C66.2391 50.6655 66.0841 50.7689 65.954 50.8991C65.8238 51.0292 65.7209 51.1837 65.6505 51.3537C65.5801 51.5238 65.5433 51.706 65.5433 51.8901V59.6696C65.5433 59.8537 65.5801 60.0359 65.6505 60.206C65.7209 60.376 65.8238 60.5305 65.954 60.6606C66.0841 60.7908 66.2391 60.8942 66.4091 60.9646C66.5792 61.035 66.7609 61.0712 66.945 61.0712H79.6467C79.8302 61.0712 80.012 61.0346 80.1814 60.9641C80.3509 60.8935 80.5041 60.7904 80.6334 60.6601C80.7627 60.5298 80.8655 60.3749 80.9348 60.2049C81.004 60.0349 81.0391 59.8531 81.0377 59.6696V51.9118C81.0406 51.5391 80.8961 51.1805 80.6355 50.9139C80.375 50.6473 80.0194 50.4942 79.6467 50.4884V50.4884Z" fill="#4BC8EF"/>
</g>
<g filter="url(#filter2_ddddd_1844_11389)">
<path d="M79.6467 37.5377H66.945C66.7609 37.5377 66.5792 37.5739 66.4091 37.6444C66.2391 37.7148 66.0841 37.8182 65.954 37.9483C65.8238 38.0785 65.7209 38.2329 65.6505 38.403C65.5801 38.573 65.5433 38.7553 65.5433 38.9394V46.7077C65.5433 46.8918 65.5801 47.074 65.6505 47.2441C65.7209 47.4141 65.8238 47.5686 65.954 47.6988C66.0841 47.8289 66.2391 47.9323 66.4091 48.0027C66.5792 48.0732 66.7609 48.1094 66.945 48.1094H79.6467C79.8306 48.1108 80.0134 48.0754 80.1835 48.0054C80.3536 47.9353 80.5081 47.832 80.6377 47.7014C80.7672 47.5708 80.8692 47.4158 80.9379 47.2452C81.0067 47.0745 81.0406 46.8917 81.0377 46.7077V38.9394C81.0377 38.5695 80.8907 38.2146 80.6302 37.9521C80.3697 37.6895 80.0165 37.5406 79.6467 37.5377V37.5377Z" fill="#74CFEB"/>
</g>
<g filter="url(#filter3_ddddd_1844_11389)">
<path d="M79.6467 63.408H66.945C66.7609 63.408 66.5792 63.4437 66.4091 63.5141C66.2391 63.5846 66.0841 63.6874 65.954 63.8176C65.8238 63.9477 65.7209 64.1027 65.6505 64.2728C65.5801 64.4428 65.5433 64.6245 65.5433 64.8086V72.5881C65.5433 72.7722 65.5801 72.955 65.6505 73.125C65.7209 73.2951 65.8238 73.449 65.954 73.5791C66.0841 73.7093 66.2391 73.8132 66.4091 73.8837C66.5792 73.9541 66.7609 73.9898 66.945 73.9898H79.6467C79.8302 73.9898 80.012 73.9542 80.1814 73.8837C80.3509 73.8131 80.5041 73.7094 80.6334 73.5791C80.7627 73.4488 80.8655 73.2939 80.9348 73.1239C81.004 72.954 81.0391 72.7717 81.0377 72.5881V64.8203C81.0377 64.4494 80.8915 64.0935 80.6313 63.8293C80.3711 63.565 80.0175 63.4137 79.6467 63.408V63.408Z" fill="#35AFE4"/>
</g>
<g filter="url(#filter4_ddddd_1844_11389)">
<path d="M74.2396 27.3026V26.4772C74.2396 25.9902 74.046 25.5228 73.7017 25.1784C73.3573 24.8341 72.89 24.6405 72.403 24.6405H22.9894C22.5014 24.6405 22.0325 24.8339 21.6864 25.1779C21.3403 25.522 21.145 25.9892 21.1421 26.4772V75.5215C21.1421 75.7641 21.1893 76.0041 21.2821 76.2282C21.375 76.4523 21.5117 76.6562 21.6832 76.8277C21.8547 76.9992 22.0586 77.1349 22.2827 77.2277C22.5068 77.3205 22.7468 77.3688 22.9894 77.3688H72.4136C72.6561 77.3688 72.8972 77.3205 73.1213 77.2277C73.3454 77.1349 73.5482 76.9992 73.7197 76.8277C73.8912 76.6562 74.028 76.4523 74.1208 76.2282C74.2136 76.0041 74.2608 75.7641 74.2608 75.5215V27.4003L74.2396 27.3026Z" fill="white"/>
</g>
<g filter="url(#filter5_dddd_1844_11389)">
<path d="M63.0686 41.2897V59.4509L47.4312 68.6074V50.4033L63.0686 41.2897Z" fill="#32B0E7"/>
<path d="M63.0688 41.2895L47.4314 50.4064L31.7212 41.2895L47.3917 32.1792L63.0688 41.2895Z" fill="#45CAF2"/>
<path d="M47.4314 50.4033V68.6074L31.7212 59.4476V41.2897L47.4314 50.4033Z" fill="#0078D4"/>
<path d="M31.7212 59.4475L47.4314 50.4033V68.6074L31.7212 59.4475Z" fill="#185A97"/>
<path d="M63.0686 59.4508L47.4312 50.4033V68.6074L63.0686 59.4508Z" fill="#156AB3"/>
</g>
<g filter="url(#filter6_dddd_1844_11389)">
<path d="M68.4006 80.6703C70.7116 80.6703 72.9282 79.7521 74.5623 78.118C76.1964 76.4839 77.1142 74.2677 77.1142 71.9567C77.1142 69.6458 76.1964 67.4296 74.5623 65.7955C72.9282 64.1614 70.7116 63.2432 68.4006 63.2432C66.0912 63.2483 63.8775 64.1681 62.2445 65.8011C60.6115 67.4341 59.6921 69.6473 59.687 71.9567C59.687 73.101 59.9127 74.2341 60.3506 75.2913C60.7885 76.3485 61.4297 77.3089 62.2389 78.118C63.048 78.9271 64.0093 79.5693 65.0665 80.0072C66.1237 80.4451 67.2563 80.6703 68.4006 80.6703V80.6703Z" fill="#D2D2D2"/>
</g>
<path d="M69.2103 66.4236H67.6487V77.489H69.2103V66.4236Z" fill="#292929"/>
<path d="M73.9719 71.2621H62.906V72.8044H73.9719V71.2621Z" fill="#292929"/>
<defs>
<filter id="filter0_ddddd_1844_11389" x="64.5433" y="24.6301" width="17.4945" height="15.5934" filterUnits="userSpaceOnUse" color-interpolation-filters="sRGB">
<feFlood flood-opacity="0" result="BackgroundImageFix"/>
<feColorMatrix in="SourceAlpha" type="matrix" values="0 0 0 0 0 0 0 0 0 0 0 0 0 0 0 0 0 0 127 0" result="hardAlpha"/>
<feOffset/>
<feColorMatrix type="matrix" values="0 0 0 0 0 0 0 0 0 0 0 0 0 0 0 0 0 0 0.1 0"/>
<feBlend mode="normal" in2="BackgroundImageFix" result="effect1_dropShadow_1844_11389"/>
<feColorMatrix in="SourceAlpha" type="matrix" values="0 0 0 0 0 0 0 0 0 0 0 0 0 0 0 0 0 0 127 0" result="hardAlpha"/>
<feOffset/>
<feColorMatrix type="matrix" values="0 0 0 0 0 0 0 0 0 0 0 0 0 0 0 0 0 0 0.1 0"/>
<feBlend mode="normal" in2="effect1_dropShadow_1844_11389" result="effect2_dropShadow_1844_11389"/>
<feColorMatrix in="SourceAlpha" type="matrix" values="0 0 0 0 0 0 0 0 0 0 0 0 0 0 0 0 0 0 127 0" result="hardAlpha"/>
<feOffset dy="1"/>
<feGaussianBlur stdDeviation="0.5"/>
<feColorMatrix type="matrix" values="0 0 0 0 0 0 0 0 0 0 0 0 0 0 0 0 0 0 0.09 0"/>
<feBlend mode="normal" in2="effect2_dropShadow_1844_11389" result="effect3_dropShadow_1844_11389"/>
<feColorMatrix in="SourceAlpha" type="matrix" values="0 0 0 0 0 0 0 0 0 0 0 0 0 0 0 0 0 0 127 0" result="hardAlpha"/>
<feOffset dy="2"/>
<feGaussianBlur stdDeviation="0.5"/>
<feColorMatrix type="matrix" values="0 0 0 0 0 0 0 0 0 0 0 0 0 0 0 0 0 0 0.05 0"/>
<feBlend mode="normal" in2="effect3_dropShadow_1844_11389" result="effect4_dropShadow_1844_11389"/>
<feColorMatrix in="SourceAlpha" type="matrix" values="0 0 0 0 0 0 0 0 0 0 0 0 0 0 0 0 0 0 127 0" result="hardAlpha"/>
<feOffset dy="4"/>
<feGaussianBlur stdDeviation="0.5"/>
<feColorMatrix type="matrix" values="0 0 0 0 0 0 0 0 0 0 0 0 0 0 0 0 0 0 0.01 0"/>
<feBlend mode="normal" in2="effect4_dropShadow_1844_11389" result="effect5_dropShadow_1844_11389"/>
<feBlend mode="normal" in="SourceGraphic" in2="effect5_dropShadow_1844_11389" result="shape"/>
</filter>
<filter id="filter1_ddddd_1844_11389" x="64.5433" y="50.4884" width="17.4944" height="14.5828" filterUnits="userSpaceOnUse" color-interpolation-filters="sRGB">
<feFlood flood-opacity="0" result="BackgroundImageFix"/>
<feColorMatrix in="SourceAlpha" type="matrix" values="0 0 0 0 0 0 0 0 0 0 0 0 0 0 0 0 0 0 127 0" result="hardAlpha"/>
<feOffset/>
<feColorMatrix type="matrix" values="0 0 0 0 0 0 0 0 0 0 0 0 0 0 0 0 0 0 0.1 0"/>
<feBlend mode="normal" in2="BackgroundImageFix" result="effect1_dropShadow_1844_11389"/>
<feColorMatrix in="SourceAlpha" type="matrix" values="0 0 0 0 0 0 0 0 0 0 0 0 0 0 0 0 0 0 127 0" result="hardAlpha"/>
<feOffset/>
<feColorMatrix type="matrix" values="0 0 0 0 0 0 0 0 0 0 0 0 0 0 0 0 0 0 0.1 0"/>
<feBlend mode="normal" in2="effect1_dropShadow_1844_11389" result="effect2_dropShadow_1844_11389"/>
<feColorMatrix in="SourceAlpha" type="matrix" values="0 0 0 0 0 0 0 0 0 0 0 0 0 0 0 0 0 0 127 0" result="hardAlpha"/>
<feOffset dy="1"/>
<feGaussianBlur stdDeviation="0.5"/>
<feColorMatrix type="matrix" values="0 0 0 0 0 0 0 0 0 0 0 0 0 0 0 0 0 0 0.09 0"/>
<feBlend mode="normal" in2="effect2_dropShadow_1844_11389" result="effect3_dropShadow_1844_11389"/>
<feColorMatrix in="SourceAlpha" type="matrix" values="0 0 0 0 0 0 0 0 0 0 0 0 0 0 0 0 0 0 127 0" result="hardAlpha"/>
<feOffset dy="2"/>
<feGaussianBlur stdDeviation="0.5"/>
<feColorMatrix type="matrix" values="0 0 0 0 0 0 0 0 0 0 0 0 0 0 0 0 0 0 0.05 0"/>
<feBlend mode="normal" in2="effect3_dropShadow_1844_11389" result="effect4_dropShadow_1844_11389"/>
<feColorMatrix in="SourceAlpha" type="matrix" values="0 0 0 0 0 0 0 0 0 0 0 0 0 0 0 0 0 0 127 0" result="hardAlpha"/>
<feOffset dy="3"/>
<feGaussianBlur stdDeviation="0.5"/>
<feColorMatrix type="matrix" values="0 0 0 0 0 0 0 0 0 0 0 0 0 0 0 0 0 0 0.01 0"/>
<feBlend mode="normal" in2="effect4_dropShadow_1844_11389" result="effect5_dropShadow_1844_11389"/>
<feBlend mode="normal" in="SourceGraphic" in2="effect5_dropShadow_1844_11389" result="shape"/>
</filter>
<filter id="filter2_ddddd_1844_11389" x="64.5433" y="37.5377" width="17.4945" height="13.5717" filterUnits="userSpaceOnUse" color-interpolation-filters="sRGB">
<feFlood flood-opacity="0" result="BackgroundImageFix"/>
<feColorMatrix in="SourceAlpha" type="matrix" values="0 0 0 0 0 0 0 0 0 0 0 0 0 0 0 0 0 0 127 0" result="hardAlpha"/>
<feOffset/>
<feColorMatrix type="matrix" values="0 0 0 0 0 0 0 0 0 0 0 0 0 0 0 0 0 0 0.1 0"/>
<feBlend mode="normal" in2="BackgroundImageFix" result="effect1_dropShadow_1844_11389"/>
<feColorMatrix in="SourceAlpha" type="matrix" values="0 0 0 0 0 0 0 0 0 0 0 0 0 0 0 0 0 0 127 0" result="hardAlpha"/>
<feOffset/>
<feColorMatrix type="matrix" values="0 0 0 0 0 0 0 0 0 0 0 0 0 0 0 0 0 0 0.1 0"/>
<feBlend mode="normal" in2="effect1_dropShadow_1844_11389" result="effect2_dropShadow_1844_11389"/>
<feColorMatrix in="SourceAlpha" type="matrix" values="0 0 0 0 0 0 0 0 0 0 0 0 0 0 0 0 0 0 127 0" result="hardAlpha"/>
<feOffset dy="1"/>
<feGaussianBlur stdDeviation="0.5"/>
<feColorMatrix type="matrix" values="0 0 0 0 0 0 0 0 0 0 0 0 0 0 0 0 0 0 0.09 0"/>
<feBlend mode="normal" in2="effect2_dropShadow_1844_11389" result="effect3_dropShadow_1844_11389"/>
<feColorMatrix in="SourceAlpha" type="matrix" values="0 0 0 0 0 0 0 0 0 0 0 0 0 0 0 0 0 0 127 0" result="hardAlpha"/>
<feOffset dy="1"/>
<feGaussianBlur stdDeviation="0.5"/>
<feColorMatrix type="matrix" values="0 0 0 0 0 0 0 0 0 0 0 0 0 0 0 0 0 0 0.05 0"/>
<feBlend mode="normal" in2="effect3_dropShadow_1844_11389" result="effect4_dropShadow_1844_11389"/>
<feColorMatrix in="SourceAlpha" type="matrix" values="0 0 0 0 0 0 0 0 0 0 0 0 0 0 0 0 0 0 127 0" result="hardAlpha"/>
<feOffset dy="2"/>
<feGaussianBlur stdDeviation="0.5"/>
<feColorMatrix type="matrix" values="0 0 0 0 0 0 0 0 0 0 0 0 0 0 0 0 0 0 0.01 0"/>
<feBlend mode="normal" in2="effect4_dropShadow_1844_11389" result="effect5_dropShadow_1844_11389"/>
<feBlend mode="normal" in="SourceGraphic" in2="effect5_dropShadow_1844_11389" result="shape"/>
</filter>
<filter id="filter3_ddddd_1844_11389" x="64.5433" y="63.408" width="17.4944" height="13.5817" filterUnits="userSpaceOnUse" color-interpolation-filters="sRGB">
<feFlood flood-opacity="0" result="BackgroundImageFix"/>
<feColorMatrix in="SourceAlpha" type="matrix" values="0 0 0 0 0 0 0 0 0 0 0 0 0 0 0 0 0 0 127 0" result="hardAlpha"/>
<feOffset/>
<feColorMatrix type="matrix" values="0 0 0 0 0 0 0 0 0 0 0 0 0 0 0 0 0 0 0.1 0"/>
<feBlend mode="normal" in2="BackgroundImageFix" result="effect1_dropShadow_1844_11389"/>
<feColorMatrix in="SourceAlpha" type="matrix" values="0 0 0 0 0 0 0 0 0 0 0 0 0 0 0 0 0 0 127 0" result="hardAlpha"/>
<feOffset/>
<feColorMatrix type="matrix" values="0 0 0 0 0 0 0 0 0 0 0 0 0 0 0 0 0 0 0.1 0"/>
<feBlend mode="normal" in2="effect1_dropShadow_1844_11389" result="effect2_dropShadow_1844_11389"/>
<feColorMatrix in="SourceAlpha" type="matrix" values="0 0 0 0 0 0 0 0 0 0 0 0 0 0 0 0 0 0 127 0" result="hardAlpha"/>
<feOffset dy="1"/>
<feGaussianBlur stdDeviation="0.5"/>
<feColorMatrix type="matrix" values="0 0 0 0 0 0 0 0 0 0 0 0 0 0 0 0 0 0 0.09 0"/>
<feBlend mode="normal" in2="effect2_dropShadow_1844_11389" result="effect3_dropShadow_1844_11389"/>
<feColorMatrix in="SourceAlpha" type="matrix" values="0 0 0 0 0 0 0 0 0 0 0 0 0 0 0 0 0 0 127 0" result="hardAlpha"/>
<feOffset dy="1"/>
<feGaussianBlur stdDeviation="0.5"/>
<feColorMatrix type="matrix" values="0 0 0 0 0 0 0 0 0 0 0 0 0 0 0 0 0 0 0.05 0"/>
<feBlend mode="normal" in2="effect3_dropShadow_1844_11389" result="effect4_dropShadow_1844_11389"/>
<feColorMatrix in="SourceAlpha" type="matrix" values="0 0 0 0 0 0 0 0 0 0 0 0 0 0 0 0 0 0 127 0" result="hardAlpha"/>
<feOffset dy="2"/>
<feGaussianBlur stdDeviation="0.5"/>
<feColorMatrix type="matrix" values="0 0 0 0 0 0 0 0 0 0 0 0 0 0 0 0 0 0 0.01 0"/>
<feBlend mode="normal" in2="effect4_dropShadow_1844_11389" result="effect5_dropShadow_1844_11389"/>
<feBlend mode="normal" in="SourceGraphic" in2="effect5_dropShadow_1844_11389" result="shape"/>
</filter>
<filter id="filter4_ddddd_1844_11389" x="17.1421" y="23.6405" width="61.1188" height="68.7283" filterUnits="userSpaceOnUse" color-interpolation-filters="sRGB">
<feFlood flood-opacity="0" result="BackgroundImageFix"/>
<feColorMatrix in="SourceAlpha" type="matrix" values="0 0 0 0 0 0 0 0 0 0 0 0 0 0 0 0 0 0 127 0" result="hardAlpha"/>
<feOffset/>
<feColorMatrix type="matrix" values="0 0 0 0 0 0 0 0 0 0 0 0 0 0 0 0 0 0 0.1 0"/>
<feBlend mode="normal" in2="BackgroundImageFix" result="effect1_dropShadow_1844_11389"/>
<feColorMatrix in="SourceAlpha" type="matrix" values="0 0 0 0 0 0 0 0 0 0 0 0 0 0 0 0 0 0 127 0" result="hardAlpha"/>
<feOffset dy="1"/>
<feGaussianBlur stdDeviation="1"/>
<feColorMatrix type="matrix" values="0 0 0 0 0 0 0 0 0 0 0 0 0 0 0 0 0 0 0.1 0"/>
<feBlend mode="normal" in2="effect1_dropShadow_1844_11389" result="effect2_dropShadow_1844_11389"/>
<feColorMatrix in="SourceAlpha" type="matrix" values="0 0 0 0 0 0 0 0 0 0 0 0 0 0 0 0 0 0 127 0" result="hardAlpha"/>
<feOffset dy="3"/>
<feGaussianBlur stdDeviation="1.5"/>
<feColorMatrix type="matrix" values="0 0 0 0 0 0 0 0 0 0 0 0 0 0 0 0 0 0 0.09 0"/>
<feBlend mode="normal" in2="effect2_dropShadow_1844_11389" result="effect3_dropShadow_1844_11389"/>
<feColorMatrix in="SourceAlpha" type="matrix" values="0 0 0 0 0 0 0 0 0 0 0 0 0 0 0 0 0 0 127 0" result="hardAlpha"/>
<feOffset dy="6"/>
<feGaussianBlur stdDeviation="2"/>
<feColorMatrix type="matrix" values="0 0 0 0 0 0 0 0 0 0 0 0 0 0 0 0 0 0 0.05 0"/>
<feBlend mode="normal" in2="effect3_dropShadow_1844_11389" result="effect4_dropShadow_1844_11389"/>
<feColorMatrix in="SourceAlpha" type="matrix" values="0 0 0 0 0 0 0 0 0 0 0 0 0 0 0 0 0 0 127 0" result="hardAlpha"/>
<feOffset dy="11"/>
<feGaussianBlur stdDeviation="2"/>
<feColorMatrix type="matrix" values="0 0 0 0 0 0 0 0 0 0 0 0 0 0 0 0 0 0 0.01 0"/>
<feBlend mode="normal" in2="effect4_dropShadow_1844_11389" result="effect5_dropShadow_1844_11389"/>
<feBlend mode="normal" in="SourceGraphic" in2="effect5_dropShadow_1844_11389" result="shape"/>
</filter>
<filter id="filter5_dddd_1844_11389" x="28.7212" y="32.1792" width="37.3477" height="47.4282" filterUnits="userSpaceOnUse" color-interpolation-filters="sRGB">
<feFlood flood-opacity="0" result="BackgroundImageFix"/>
<feColorMatrix in="SourceAlpha" type="matrix" values="0 0 0 0 0 0 0 0 0 0 0 0 0 0 0 0 0 0 127 0" result="hardAlpha"/>
<feOffset dy="1"/>
<feGaussianBlur stdDeviation="0.5"/>
<feColorMatrix type="matrix" values="0 0 0 0 0 0 0 0 0 0 0 0 0 0 0 0 0 0 0.1 0"/>
<feBlend mode="normal" in2="BackgroundImageFix" result="effect1_dropShadow_1844_11389"/>
<feColorMatrix in="SourceAlpha" type="matrix" values="0 0 0 0 0 0 0 0 0 0 0 0 0 0 0 0 0 0 127 0" result="hardAlpha"/>
<feOffset dy="2"/>
<feGaussianBlur stdDeviation="1"/>
<feColorMatrix type="matrix" values="0 0 0 0 0 0 0 0 0 0 0 0 0 0 0 0 0 0 0.09 0"/>
<feBlend mode="normal" in2="effect1_dropShadow_1844_11389" result="effect2_dropShadow_1844_11389"/>
<feColorMatrix in="SourceAlpha" type="matrix" values="0 0 0 0 0 0 0 0 0 0 0 0 0 0 0 0 0 0 127 0" result="hardAlpha"/>
<feOffset dy="5"/>
<feGaussianBlur stdDeviation="1.5"/>
<feColorMatrix type="matrix" values="0 0 0 0 0 0 0 0 0 0 0 0 0 0 0 0 0 0 0.05 0"/>
<feBlend mode="normal" in2="effect2_dropShadow_1844_11389" result="effect3_dropShadow_1844_11389"/>
<feColorMatrix in="SourceAlpha" type="matrix" values="0 0 0 0 0 0 0 0 0 0 0 0 0 0 0 0 0 0 127 0" result="hardAlpha"/>
<feOffset dy="8"/>
<feGaussianBlur stdDeviation="1.5"/>
<feColorMatrix type="matrix" values="0 0 0 0 0 0 0 0 0 0 0 0 0 0 0 0 0 0 0.01 0"/>
<feBlend mode="normal" in2="effect3_dropShadow_1844_11389" result="effect4_dropShadow_1844_11389"/>
<feBlend mode="normal" in="SourceGraphic" in2="effect4_dropShadow_1844_11389" result="shape"/>
</filter>
<filter id="filter6_dddd_1844_11389" x="57.687" y="62.2432" width="21.4271" height="24.4272" filterUnits="userSpaceOnUse" color-interpolation-filters="sRGB">
<feFlood flood-opacity="0" result="BackgroundImageFix"/>
<feColorMatrix in="SourceAlpha" type="matrix" values="0 0 0 0 0 0 0 0 0 0 0 0 0 0 0 0 0 0 127 0" result="hardAlpha"/>
<feOffset/>
<feGaussianBlur stdDeviation="0.5"/>
<feColorMatrix type="matrix" values="0 0 0 0 0 0 0 0 0 0 0 0 0 0 0 0 0 0 0.1 0"/>
<feBlend mode="normal" in2="BackgroundImageFix" result="effect1_dropShadow_1844_11389"/>
<feColorMatrix in="SourceAlpha" type="matrix" values="0 0 0 0 0 0 0 0 0 0 0 0 0 0 0 0 0 0 127 0" result="hardAlpha"/>
<feOffset dy="1"/>
<feGaussianBlur stdDeviation="0.5"/>
<feColorMatrix type="matrix" values="0 0 0 0 0 0 0 0 0 0 0 0 0 0 0 0 0 0 0.09 0"/>
<feBlend mode="normal" in2="effect1_dropShadow_1844_11389" result="effect2_dropShadow_1844_11389"/>
<feColorMatrix in="SourceAlpha" type="matrix" values="0 0 0 0 0 0 0 0 0 0 0 0 0 0 0 0 0 0 127 0" result="hardAlpha"/>
<feOffset dy="2"/>
<feGaussianBlur stdDeviation="0.5"/>
<feColorMatrix type="matrix" values="0 0 0 0 0 0 0 0 0 0 0 0 0 0 0 0 0 0 0.05 0"/>
<feBlend mode="normal" in2="effect2_dropShadow_1844_11389" result="effect3_dropShadow_1844_11389"/>
<feColorMatrix in="SourceAlpha" type="matrix" values="0 0 0 0 0 0 0 0 0 0 0 0 0 0 0 0 0 0 127 0" result="hardAlpha"/>
<feOffset dy="4"/>
<feGaussianBlur stdDeviation="1"/>
<feColorMatrix type="matrix" values="0 0 0 0 0 0 0 0 0 0 0 0 0 0 0 0 0 0 0.01 0"/>
<feBlend mode="normal" in2="effect3_dropShadow_1844_11389" result="effect4_dropShadow_1844_11389"/>
<feBlend mode="normal" in="SourceGraphic" in2="effect4_dropShadow_1844_11389" result="shape"/>
</filter>
<linearGradient id="paint0_linear_1844_11389" x1="25.3745" y1="9.49703" x2="100.281" y2="148.693" gradientUnits="userSpaceOnUse">
<stop offset="0.0001" stop-color="#50E6FF"/>
<stop offset="0.623265" stop-color="#0078D4"/>
</linearGradient>
<linearGradient id="paint1_linear_1844_11389" x1="15.6761" y1="11.2231" x2="83.2186" y2="98.6208" gradientUnits="userSpaceOnUse">
<stop stop-color="#007ED8"/>
<stop offset="0.915361" stop-color="#002D4C"/>
</linearGradient>
</defs>
</svg>
