<svg width="100" height="100" viewBox="0 0 100 100" fill="none" xmlns="http://www.w3.org/2000/svg">
<g clip-path="url(#clip0_1439_3836)">
<path d="M49.6399 96.4497C40.3817 96.4497 31.3315 93.7043 23.6336 88.5608C15.9357 83.4172 9.93598 76.1065 6.39305 67.5531C2.85011 58.9997 1.92312 49.5877 3.7293 40.5075C5.53548 31.4272 9.99371 23.0865 16.5402 16.54C23.0867 9.99349 31.4275 5.53528 40.5077 3.72912C49.588 1.92295 58.9999 2.84996 67.5533 6.39291C76.1067 9.93586 83.4175 15.9356 88.561 23.6335C93.7045 31.3314 96.4499 40.3816 96.4499 49.6398C96.4503 55.7871 95.2398 61.8742 92.8875 67.5537C90.5352 73.2331 87.0873 78.3936 82.7405 82.7404C78.3937 87.0872 73.2332 90.5351 67.5538 92.8874C61.8743 95.2397 55.7871 96.4501 49.6399 96.4497Z" fill="url(#paint0_linear_1439_3836)"/>
<path fill-rule="evenodd" clip-rule="evenodd" d="M95.54 49.6399C95.54 58.718 92.848 67.5923 87.8045 75.1405C82.7609 82.6888 75.5923 88.5719 67.2052 92.0459C58.818 95.52 49.5891 96.429 40.6854 94.6579C31.7816 92.8869 23.603 88.5153 17.1838 82.0961C10.7646 75.6768 6.39302 67.4982 4.62196 58.5945C2.85089 49.6908 3.75987 40.4618 7.23393 32.0747C10.708 23.6876 16.5911 16.519 24.1393 11.4754C31.6875 6.43186 40.5618 3.73987 49.64 3.73987C55.6677 3.73986 61.6363 4.92709 67.2052 7.23378C72.774 9.54046 77.834 12.9214 82.0962 17.1836C86.3584 21.4459 89.7394 26.5058 92.0461 32.0747C94.3528 37.6435 95.54 43.6122 95.54 49.6399V49.6399ZM49.64 -0.00010647C59.4579 -0.00010647 69.0552 2.91123 77.2185 8.36574C85.3818 13.8203 91.7442 21.573 95.5014 30.6435C99.2585 39.714 100.242 49.695 98.3262 59.3242C96.4108 68.9534 91.6831 77.7984 84.7408 84.7407C77.7985 91.683 68.9535 96.4107 59.3243 98.3261C49.6951 100.241 39.7141 99.2584 30.6436 95.5013C21.5731 91.7441 13.8203 85.3816 8.36584 77.2184C2.91133 69.0551 -3.61668e-06 59.4577 3.3895e-07 49.6399C-0.000761487 43.1208 1.2827 36.6655 3.77707 30.6426C6.27144 24.6196 9.92787 19.1471 14.5375 14.5374C19.1472 9.92775 24.6197 6.27133 30.6427 3.77695C36.6656 1.28258 43.121 -0.000870923 49.64 -0.00010647V-0.00010647Z" fill="#F2F1F0"/>
<path fill-rule="evenodd" clip-rule="evenodd" d="M92.7298 49.6397C92.7298 58.1621 90.2026 66.4931 85.4678 73.5792C80.7331 80.6653 74.0033 86.1883 66.1296 89.4496C58.256 92.711 49.592 93.5644 41.2334 91.9017C32.8747 90.2391 25.1968 86.1352 19.1706 80.1089C13.1443 74.0827 9.04041 66.4048 7.37778 58.0461C5.71514 49.6875 6.56847 41.0235 9.82985 33.1498C13.0912 25.2762 18.6142 18.5464 25.7003 13.8117C32.7864 9.07686 41.1174 6.54968 49.6398 6.54968C55.2986 6.54933 60.902 7.66365 66.13 9.82901C71.3581 11.9944 76.1085 15.1683 80.1098 19.1697C84.1112 23.171 87.2851 27.9214 89.4505 33.1494C91.6158 38.3775 92.7302 43.9809 92.7298 49.6397ZM49.6398 2.80968C58.9019 2.80968 67.956 5.55621 75.6572 10.702C83.3583 15.8477 89.3606 23.1615 92.9051 31.7186C96.4495 40.2757 97.3769 49.6916 95.57 58.7758C93.763 67.8599 89.3029 76.2042 82.7536 82.7535C76.2043 89.3028 67.86 93.7629 58.7759 95.5699C49.6918 97.3768 40.2758 96.4494 31.7187 92.905C23.1617 89.3605 15.8478 83.3582 10.7021 75.657C5.55635 67.9559 2.80981 58.9018 2.80981 49.6397C2.811 37.22 7.74525 25.3093 16.5273 16.5272C25.3094 7.74512 37.2201 2.81089 49.6398 2.80971V2.80968Z" fill="url(#paint1_linear_1439_3836)"/>
<path fill-rule="evenodd" clip-rule="evenodd" d="M75.0852 23.6528C74.015 23.7478 73.0207 24.2455 72.3034 25.0454C71.5861 25.8453 71.1993 26.8877 71.2211 27.9618V36.8273H76.5423C77.2971 36.8273 78.0211 36.5275 78.5548 35.9937C79.0886 35.46 79.3884 34.736 79.3884 33.9812V27.7308C79.3884 27.1761 79.2754 26.6271 79.0562 26.1174C78.8371 25.6078 78.5164 25.1481 78.1137 24.7665C77.711 24.3849 77.2348 24.0894 76.7141 23.8979C76.1934 23.7064 75.6391 23.623 75.0852 23.6528V23.6528Z" fill="#E8E8E8"/>
<path opacity="0.6" d="M74.6498 23.6471H71.2212V36.8273H74.6498V23.6471Z" fill="#D7D2CB"/>
<path fill-rule="evenodd" clip-rule="evenodd" d="M38.6481 23.6471C38.0016 23.6471 37.3614 23.7745 36.7641 24.0219C36.1667 24.2693 35.624 24.632 35.1668 25.0891C34.7096 25.5463 34.347 26.0891 34.0996 26.6864C33.8521 27.2837 33.7248 27.9239 33.7248 28.5705V71.0386C33.7248 71.5749 33.6191 72.1059 33.4139 72.6014C33.2087 73.0968 32.9078 73.547 32.5286 73.9263C32.1494 74.3055 31.6992 74.6063 31.2037 74.8115C30.7082 75.0167 30.1772 75.1223 29.6409 75.1223H66.2976C67.6033 75.1223 68.8556 74.6036 69.7789 73.6803C70.7022 72.757 71.221 71.5048 71.221 70.199V27.7309C71.221 26.6478 71.6512 25.6091 72.4171 24.8432C73.1829 24.0774 74.2217 23.6471 75.3047 23.6471H38.6481Z" fill="white"/>
<path fill-rule="evenodd" clip-rule="evenodd" d="M63.1732 72.025C63.1134 71.7494 62.9623 71.5021 62.7444 71.323C62.5265 71.144 62.2546 71.0438 61.9726 71.0386H27.0752C26.865 71.0395 26.6584 71.0938 26.475 71.1964C26.2915 71.2991 26.1372 71.4467 26.0265 71.6254C25.9158 71.8041 25.8523 72.008 25.842 72.218C25.8318 72.4279 25.8751 72.6371 25.9679 72.8257C26.3032 73.5144 26.8254 74.095 27.4748 74.5011C28.1243 74.9072 28.8749 75.1225 29.6409 75.1224H67.1371C66.2255 75.1223 65.3402 74.8174 64.6219 74.2561C63.9036 73.6948 63.3937 72.9095 63.1732 72.025V72.025Z" fill="#E8E8E8"/>
<path d="M43.706 57.4281H58.9835C59.2555 57.4281 59.5163 57.5361 59.7085 57.7284C59.9008 57.9207 60.0089 58.1815 60.0089 58.4534C60.0089 58.588 59.9823 58.7214 59.9308 58.8458C59.8793 58.9702 59.8038 59.0832 59.7086 59.1784C59.6133 59.2736 59.5003 59.3492 59.3759 59.4007C59.2515 59.4522 59.1182 59.4787 58.9835 59.4787H43.706C43.5714 59.4787 43.438 59.4522 43.3136 59.4007C43.1892 59.3492 43.0762 59.2736 42.981 59.1784C42.8858 59.0832 42.8102 58.9702 42.7587 58.8458C42.7072 58.7214 42.6807 58.588 42.6807 58.4534V58.4534C42.6807 58.1815 42.7887 57.9207 42.981 57.7284C43.1733 57.5361 43.4341 57.4281 43.706 57.4281Z" fill="#E8E8E8"/>
<path d="M43.706 61.0103H61.2395C61.5114 61.0103 61.7722 61.1183 61.9645 61.3106C62.1568 61.5029 62.2648 61.7637 62.2648 62.0356V62.0356C62.2648 62.3075 62.1568 62.5683 61.9645 62.7606C61.7722 62.9529 61.5114 63.0609 61.2395 63.0609H43.706C43.5714 63.0609 43.438 63.0344 43.3136 62.9829C43.1892 62.9314 43.0762 62.8558 42.981 62.7606C42.8858 62.6654 42.8102 62.5524 42.7587 62.428C42.7072 62.3036 42.6807 62.1702 42.6807 62.0356V62.0356C42.6807 61.7637 42.7887 61.5029 42.981 61.3106C43.1733 61.1183 43.4341 61.0103 43.706 61.0103Z" fill="#E8E8E8"/>
<path d="M45.0616 33.2464C45.0616 33.0404 44.9798 32.8429 44.8341 32.6972C44.6885 32.5516 44.491 32.4698 44.285 32.4698C44.079 32.4698 43.8815 32.5516 43.7358 32.6972C43.5902 32.8429 43.5084 33.0404 43.5084 33.2464C43.5394 33.7471 43.6993 34.2313 43.9724 34.6521C44.2456 35.0729 44.6228 35.4161 45.0675 35.6483L45.134 35.6947C45.8381 36.1875 46.0971 36.4241 46.0971 36.8706C46.0978 37.076 46.18 37.2729 46.3255 37.4179C46.4711 37.5629 46.6682 37.6444 46.8737 37.6444C47.0792 37.6444 47.2763 37.5629 47.4219 37.4179C47.5674 37.2729 47.6496 37.076 47.6503 36.8706C47.6192 36.3698 47.4594 35.8856 47.1862 35.4648C46.9131 35.044 46.5359 34.7008 46.0912 34.4686L46.0247 34.4222C45.3206 33.9294 45.0616 33.6928 45.0616 33.2464ZM44.359 38.6826C43.8587 38.6826 43.379 38.8814 43.0253 39.2351C42.6716 39.5888 42.4729 40.0685 42.4729 40.5687V44.8955C42.4732 46.8181 43.1421 48.6807 44.365 50.1642C45.5879 51.6477 47.2886 52.6597 49.1758 53.0269C51.0629 53.3941 53.019 53.0936 54.7089 52.1768C56.3988 51.2601 57.7173 49.7842 58.4385 48.002H59.8172C60.7088 48.0005 61.5632 47.6452 62.1931 47.0143C62.823 46.3833 63.1767 45.5282 63.1767 44.6367C63.1767 43.7451 62.823 42.89 62.1931 42.2591C61.5632 41.6281 60.7088 41.2729 59.8172 41.2714H59.0406V40.5687C59.0406 40.0685 58.8419 39.5888 58.4882 39.2351C58.1345 38.8814 57.6548 38.6827 57.1546 38.6827L44.359 38.6826ZM59.8172 46.4488H58.8952C58.9922 45.9367 59.0409 45.4167 59.0406 44.8955V42.8245H59.8172C60.2971 42.8257 60.7569 43.0171 61.0958 43.3568C61.4347 43.6965 61.6251 44.1568 61.6251 44.6366C61.6251 45.1165 61.4347 45.5768 61.0958 45.9165C60.7569 46.2562 60.2971 46.4476 59.8172 46.4487L59.8172 46.4488ZM48.4269 32.4698C48.6329 32.4698 48.8304 32.5516 48.9761 32.6972C49.1217 32.8429 49.2035 33.0404 49.2035 33.2464C49.2035 33.6928 49.4625 33.9294 50.1666 34.4223L50.2331 34.4686C50.6778 34.7009 51.055 35.044 51.3282 35.4648C51.6013 35.8856 51.7612 36.3698 51.7922 36.8706C51.7922 37.0765 51.7104 37.2741 51.5648 37.4197C51.4191 37.5654 51.2216 37.6472 51.0156 37.6472C50.8096 37.6472 50.6121 37.5654 50.4665 37.4197C50.3208 37.2741 50.239 37.0765 50.239 36.8706C50.239 36.4242 49.98 36.1876 49.2759 35.6947L49.2094 35.6483C48.7647 35.4161 48.3875 35.0729 48.1144 34.6521C47.8412 34.2313 47.6814 33.7471 47.6503 33.2464C47.6503 33.0404 47.7321 32.8429 47.8778 32.6972C48.0234 32.5516 48.2209 32.4698 48.4269 32.4698V32.4698ZM53.3455 33.2464C53.3447 33.0409 53.2626 32.8441 53.117 32.699C52.9714 32.554 52.7743 32.4725 52.5688 32.4725C52.3634 32.4725 52.1662 32.554 52.0207 32.699C51.8751 32.8441 51.793 33.0409 51.7922 33.2464C51.8233 33.7471 51.9832 34.2313 52.2563 34.6521C52.5295 35.0729 52.9067 35.4161 53.3514 35.6483L53.4178 35.6947C54.122 36.1876 54.3809 36.4242 54.3809 36.8706C54.3809 37.0765 54.4628 37.2741 54.6084 37.4197C54.754 37.5654 54.9516 37.6472 55.1575 37.6472C55.3635 37.6472 55.5611 37.5654 55.7067 37.4197C55.8523 37.2741 55.9342 37.0765 55.9342 36.8706C55.9031 36.3698 55.7432 35.8856 55.4701 35.4648C55.197 35.044 54.8198 34.7009 54.3751 34.4686L54.3086 34.4222C53.6044 33.9294 53.3455 33.6928 53.3455 33.2464V33.2464Z" fill="#E8E8E8"/>
<path opacity="0.2" d="M40.6807 71.0683C41.5983 71.0674 42.4782 70.7025 43.1271 70.0537C43.7761 69.4049 44.1411 68.5251 44.1421 67.6074V62.5742C44.1389 61.9544 43.9675 61.347 43.6459 60.8171C43.9675 60.287 44.139 59.6795 44.1421 59.0595V54.0263C44.1389 53.4064 43.9675 52.799 43.6461 52.269C43.9675 51.7389 44.1389 51.1315 44.1421 50.5116V41.108C44.1411 40.1903 43.7761 39.3106 43.1271 38.6617C42.4782 38.0129 41.5983 37.648 40.6807 37.6472H33.7249V71.0385L40.6807 71.0683Z" fill="#B3B3B3"/>
<path d="M40.6812 39.9193H16.6607C16.0063 39.9193 15.4758 40.4498 15.4758 41.1042V50.5115C15.4758 51.1659 16.0063 51.6964 16.6607 51.6964H40.6812C41.3356 51.6964 41.8661 51.1659 41.8661 50.5115V41.1042C41.8661 40.4498 41.3356 39.9193 40.6812 39.9193Z" fill="#8DC8E8"/>
<path d="M40.6812 52.8414H16.6607C16.0063 52.8414 15.4758 53.3719 15.4758 54.0263V59.0596C15.4758 59.714 16.0063 60.2445 16.6607 60.2445H40.6812C41.3356 60.2445 41.8661 59.714 41.8661 59.0596V54.0263C41.8661 53.3719 41.3356 52.8414 40.6812 52.8414Z" fill="#0078D4"/>
<path d="M40.6812 61.3895H16.6607C16.0063 61.3895 15.4758 61.92 15.4758 62.5744V67.6077C15.4758 68.2621 16.0063 68.7925 16.6607 68.7925H40.6812C41.3356 68.7925 41.8661 68.2621 41.8661 67.6077V62.5744C41.8661 61.92 41.3356 61.3895 40.6812 61.3895Z" fill="#8661C5"/>
<path d="M18.9421 58.0574C19.7785 58.0574 20.4566 57.3793 20.4566 56.543C20.4566 55.7066 19.7785 55.0285 18.9421 55.0285C18.1058 55.0285 17.4277 55.7066 17.4277 56.543C17.4277 57.3793 18.1058 58.0574 18.9421 58.0574Z" fill="#8DC8E8"/>
<path d="M18.9421 66.6054C19.7785 66.6054 20.4566 65.9274 20.4566 65.091C20.4566 64.2546 19.7785 63.5766 18.9421 63.5766C18.1058 63.5766 17.4277 64.2546 17.4277 65.091C17.4277 65.9274 18.1058 66.6054 18.9421 66.6054Z" fill="#C5B4E3"/>
<path fill-rule="evenodd" clip-rule="evenodd" d="M24.2154 43.4238C24.0501 43.2585 23.8259 43.1657 23.5922 43.1657C23.3585 43.1657 23.1344 43.2585 22.9691 43.4238L20.0641 46.3266L19.0148 45.2874C18.9902 45.2509 18.9625 45.2168 18.9319 45.1852C18.7676 45.0213 18.5453 44.9289 18.3132 44.928C18.0811 44.9272 17.858 45.018 17.6926 45.1807C17.5271 45.3435 17.4325 45.565 17.4295 45.797C17.4265 46.0291 17.5152 46.253 17.6764 46.42L17.6658 46.4306L19.4436 48.1921C19.609 48.3572 19.8332 48.45 20.0669 48.45C20.3007 48.45 20.5248 48.3572 20.6903 48.1921L24.2127 44.6712L24.2154 44.6691C24.2972 44.5873 24.3621 44.4903 24.4064 44.3834C24.4507 44.2766 24.4735 44.1621 24.4735 44.0464C24.4735 43.9308 24.4507 43.8162 24.4064 43.7094C24.3621 43.6026 24.2972 43.5055 24.2154 43.4238V43.4238Z" fill="white"/>
</g>
<defs>
<linearGradient id="paint0_linear_1439_3836" x1="49.6398" y1="91.4709" x2="49.6398" y2="9.09945" gradientUnits="userSpaceOnUse">
<stop stop-color="#0082E6"/>
<stop offset="1" stop-color="#8DC8E8"/>
</linearGradient>
<linearGradient id="paint1_linear_1439_3836" x1="50.8009" y1="85.0923" x2="48.4072" y2="12.0026" gradientUnits="userSpaceOnUse">
<stop stop-color="#0078D4"/>
<stop offset="1" stop-color="#8661C5"/>
</linearGradient>
<clipPath id="clip0_1439_3836">
<rect width="99.2799" height="99.28" fill="white"/>
</clipPath>
</defs>
</svg>
