<svg width="103" height="102" viewBox="0 0 103 102" fill="none" xmlns="http://www.w3.org/2000/svg">
<g clip-path="url(#clip0_1636_4662)">
<path d="M51.0893 97.81C25.2393 97.81 4.2793 76.86 4.2793 51C4.2793 25.14 25.2393 4.19 51.0893 4.19C76.9393 4.19 97.8993 25.15 97.8993 51C97.8993 76.85 76.9393 97.81 51.0893 97.81Z" fill="url(#paint0_linear_1636_4662)"/>
<path fill-rule="evenodd" clip-rule="evenodd" d="M96.9893 51.0001C96.9893 76.3501 76.4393 96.9001 51.0893 96.9001C25.7393 96.9001 5.18934 76.3501 5.18934 51.0001C5.18934 25.6501 25.7393 5.10012 51.0893 5.10012C76.4393 5.10012 96.9893 25.6501 96.9893 51.0001ZM51.0893 1.36011C78.5093 1.36011 100.729 23.5801 100.729 51.0001C100.729 78.4201 78.4993 100.64 51.0893 100.64C23.6693 100.64 1.44934 78.4101 1.44934 51.0001C1.44934 23.5801 23.6693 1.36011 51.0893 1.36011Z" fill="#F2F1F0"/>
<path fill-rule="evenodd" clip-rule="evenodd" d="M94.1794 51C94.1794 74.8 74.8894 94.09 51.0894 94.09C27.2894 94.09 7.9994 74.8 7.9994 51C7.9994 27.2 27.2894 7.91 51.0894 7.91C74.8894 7.91 94.1794 27.2 94.1794 51ZM51.0894 4.17C76.9494 4.17 97.9194 25.14 97.9194 51C97.9194 76.86 76.9494 97.83 51.0894 97.83C25.2294 97.83 4.2594 76.86 4.2594 51C4.2594 25.14 25.2194 4.17 51.0894 4.17Z" fill="url(#paint1_linear_1636_4662)"/>
<g filter="url(#filter0_ddddd_1636_4662)">
<path d="M88.2887 45.6893C88.2887 44.8793 87.6287 44.2193 86.8187 44.2193C86.2887 44.2193 82.9887 43.9293 81.2187 42.5493C81.2187 42.5493 81.2287 42.5293 81.2187 42.5493C80.5487 40.1093 79.5687 37.8293 78.3587 35.6693C78.0487 33.6193 80.1687 32.1293 81.1387 30.5293C81.3087 30.2493 81.4087 30.0893 81.4687 29.9793C81.6487 29.4593 81.5487 28.8593 81.1387 28.4493C81.1387 28.4493 79.5087 26.1193 77.8387 24.4593C76.1687 22.7993 73.6387 20.9493 73.6387 20.9493C73.0687 20.3793 72.1287 20.3793 71.5587 20.9493C71.1787 21.3193 68.6687 23.3893 66.4087 23.7193C66.3787 23.7193 66.3787 23.7193 66.3787 23.7193C64.2787 22.5293 61.9187 21.5493 59.5487 20.8793H59.5187C57.8487 19.6493 58.2887 17.0993 57.8487 15.2793C57.8487 14.4693 57.1887 13.8093 56.3787 13.8093C56.3787 13.8093 53.5787 13.3193 51.2187 13.3193C48.8587 13.3193 45.7687 13.8093 45.7687 13.8093C44.9587 13.8093 44.2987 14.4693 44.2987 15.2793C44.2987 15.8093 44.0087 19.1093 42.6287 20.8793C40.2887 21.5393 37.8287 22.5793 35.7487 23.7393C33.6987 24.0493 32.2087 21.9293 30.6087 20.9593C30.3287 20.7893 30.1687 20.6893 30.0587 20.6293C29.5387 20.4493 28.9387 20.5493 28.5287 20.9593C28.5287 20.9593 26.1987 22.5893 24.5387 24.2593C22.8787 25.9293 21.0287 28.4593 21.0287 28.4593C20.4587 29.0293 20.4587 29.9693 21.0287 30.5393C21.3987 30.9093 23.5287 33.4593 23.8087 35.6793V35.6993C22.6487 37.7793 21.6287 40.2293 20.9687 42.5693C20.9687 42.5693 20.9987 42.5293 20.9687 42.5693C19.5387 44.3093 17.1887 43.7993 15.3687 44.2393C14.5587 44.2393 13.8987 44.8993 13.8987 45.7093C13.8987 45.7093 13.4087 48.5093 13.4087 50.8693C13.4087 53.2293 13.8987 56.3193 13.8987 56.3193C13.8987 57.1293 14.5587 57.7893 15.3687 57.7893C15.8987 57.7893 19.1987 58.0793 20.9687 59.4593C21.0087 59.4393 20.9887 59.4893 20.9887 59.4893C21.6687 61.8393 22.6387 64.1893 23.8187 66.2693C23.7987 66.2993 23.8187 66.2693 23.8287 66.3393C24.0287 68.4793 22.0187 69.8793 21.0487 71.4793C20.8787 71.7593 20.7787 71.9193 20.7187 72.0293C20.5387 72.5493 20.6387 73.1493 21.0487 73.5593C21.0487 73.5593 22.6787 75.8893 24.3487 77.5493C26.0187 79.2193 28.5487 81.0593 28.5487 81.0593C29.1187 81.6293 30.0587 81.6293 30.6287 81.0593C30.9987 80.6893 33.5487 78.5593 35.7687 78.2793C35.7687 78.2793 35.7587 78.2893 35.7987 78.2993C37.9387 79.4893 40.1487 80.4293 42.5687 81.0893C42.5887 81.0993 42.6587 81.1193 42.6587 81.1193C44.3287 82.3493 43.8887 84.8993 44.3287 86.7193C44.4187 87.5393 44.8687 88.0593 45.7987 88.1893C45.7987 88.1893 48.5987 88.6793 50.9587 88.6793C53.3187 88.6793 56.4087 88.1993 56.4087 88.1993C57.2187 88.0593 57.8787 87.5393 57.8787 86.7293C57.8787 86.1993 58.1687 82.8993 59.5487 81.1293C59.5487 81.1293 59.6087 81.0793 59.6687 81.0293C62.1287 80.3393 63.9987 79.5793 66.1687 78.3293C66.2787 78.2893 66.1587 78.2993 66.4187 78.2593C68.4687 77.9493 69.9587 80.0693 71.5587 81.0393C71.8387 81.2093 71.9987 81.3093 72.1087 81.3693C72.6287 81.5493 73.2287 81.4493 73.6387 81.0393C73.6387 81.0393 75.9687 79.4093 77.6287 77.7393C79.2987 76.0693 81.1387 73.5393 81.1387 73.5393C81.7087 72.9693 81.7087 72.0293 81.1387 71.4593C80.7687 71.0893 78.6387 68.5393 78.3587 66.3193C78.3287 66.0893 78.3487 66.0593 78.3787 65.9993C79.6187 63.8093 80.3987 62.2093 81.0787 59.7293C81.0787 59.7293 81.0487 59.6493 81.2087 59.4393C82.4387 57.7693 84.9887 58.2093 86.8087 57.7693C87.6187 57.7693 88.2787 57.1093 88.2787 56.2993C88.2787 56.2993 88.7687 53.4993 88.7687 51.1393C88.7687 48.7793 88.2887 45.6893 88.2887 45.6893ZM72.8787 50.9293C72.8787 63.0193 63.0787 72.8293 50.9787 72.8293C38.8787 72.8293 29.0787 63.0293 29.0787 50.9293C29.0787 38.8393 38.8787 29.0293 50.9787 29.0293C63.0787 29.0293 72.8787 38.8393 72.8787 50.9293Z" fill="url(#paint2_linear_1636_4662)"/>
</g>
<g filter="url(#filter1_d_1636_4662)">
<circle cx="51.0895" cy="51.0002" r="24.0099" fill="white"/>
</g>
<g filter="url(#filter2_ddddd_1636_4662)">
<path d="M64.8677 55.2089L52.2692 64.6561C51.9443 64.8999 51.5484 65.0303 51.1422 65.0274C50.7361 65.0245 50.3421 64.8885 50.0207 64.6401L40.945 57.6209C40.774 57.4886 40.6358 57.3186 40.5411 57.1242C40.4464 56.9297 40.3977 56.7161 40.3989 56.4998C40.4002 56.2836 40.4512 56.0705 40.548 55.8772C40.6449 55.6838 40.785 55.5154 40.9575 55.3849L54.7381 44.9424L64.8695 52.557C65.0754 52.7114 65.2425 52.9117 65.3576 53.1419C65.4726 53.3722 65.5324 53.6261 65.5322 53.8834C65.532 54.1408 65.4719 54.3946 65.3566 54.6247C65.2412 54.8548 65.0739 55.0548 64.8677 55.2089V55.2089Z" fill="url(#paint3_linear_1636_4662)"/>
<path d="M64.8594 55.2054L56.8057 61.1936C56.4304 61.4735 55.9746 61.6247 55.5064 61.6247C55.0382 61.6247 54.5825 61.4735 54.2071 61.1936L43.6899 53.3177L54.7723 44.9424L64.8682 52.5517C65.0738 52.7068 65.2403 52.9077 65.3547 53.1384C65.4691 53.3691 65.5283 53.6232 65.5274 53.8808C65.5265 54.1383 65.4657 54.392 65.3498 54.6219C65.2338 54.8519 65.0659 55.0516 64.8594 55.2054V55.2054Z" fill="url(#paint4_linear_1636_4662)"/>
<path d="M61.1355 45.8174L51.7187 52.9721C49.2262 54.8659 45.7793 54.8746 43.2773 52.9934L37.1844 48.4124C37.0217 48.29 36.8898 48.1315 36.7989 47.9494C36.708 47.7672 36.6606 47.5665 36.6606 47.3629C36.6606 47.1593 36.708 46.9585 36.7989 46.7764C36.8898 46.5942 37.0217 46.4357 37.1844 46.3133L50.3109 36.4094C50.5408 36.2356 50.8207 36.1406 51.109 36.1387C51.3972 36.1368 51.6783 36.228 51.9106 36.3987L61.1178 43.1619C61.3255 43.3147 61.4947 43.5139 61.6118 43.7436C61.729 43.9734 61.7909 44.2273 61.7926 44.4852C61.7944 44.743 61.7359 44.9978 61.6218 45.229C61.5077 45.4603 61.3412 45.6618 61.1355 45.8174Z" fill="url(#paint5_linear_1636_4662)"/>
<path d="M58.5715 47.7407L48.664 55.2913C48.3302 55.5443 47.9229 55.6813 47.5042 55.6813C47.0854 55.6813 46.6781 55.5443 46.3444 55.2913L37.1852 48.4055C37.0228 48.2829 36.8912 48.1242 36.8005 47.9421C36.7098 47.76 36.6626 47.5593 36.6626 47.3559C36.6626 47.1524 36.7098 46.9518 36.8005 46.7696C36.8912 46.5875 37.0228 46.4289 37.1852 46.3063L46.7834 39.0703L58.5715 47.7407Z" fill="url(#paint6_linear_1636_4662)"/>
</g>
</g>
<defs>
<filter id="filter0_ddddd_1636_4662" x="5.40869" y="11.3193" width="91.36" height="105.36" filterUnits="userSpaceOnUse" color-interpolation-filters="sRGB">
<feFlood flood-opacity="0" result="BackgroundImageFix"/>
<feColorMatrix in="SourceAlpha" type="matrix" values="0 0 0 0 0 0 0 0 0 0 0 0 0 0 0 0 0 0 127 0" result="hardAlpha"/>
<feOffset/>
<feColorMatrix type="matrix" values="0 0 0 0 0 0 0 0 0 0 0 0 0 0 0 0 0 0 0.1 0"/>
<feBlend mode="normal" in2="BackgroundImageFix" result="effect1_dropShadow_1636_4662"/>
<feColorMatrix in="SourceAlpha" type="matrix" values="0 0 0 0 0 0 0 0 0 0 0 0 0 0 0 0 0 0 127 0" result="hardAlpha"/>
<feOffset dy="1"/>
<feGaussianBlur stdDeviation="1.5"/>
<feColorMatrix type="matrix" values="0 0 0 0 0 0 0 0 0 0 0 0 0 0 0 0 0 0 0.1 0"/>
<feBlend mode="normal" in2="effect1_dropShadow_1636_4662" result="effect2_dropShadow_1636_4662"/>
<feColorMatrix in="SourceAlpha" type="matrix" values="0 0 0 0 0 0 0 0 0 0 0 0 0 0 0 0 0 0 127 0" result="hardAlpha"/>
<feOffset dy="5"/>
<feGaussianBlur stdDeviation="2.5"/>
<feColorMatrix type="matrix" values="0 0 0 0 0 0 0 0 0 0 0 0 0 0 0 0 0 0 0.09 0"/>
<feBlend mode="normal" in2="effect2_dropShadow_1636_4662" result="effect3_dropShadow_1636_4662"/>
<feColorMatrix in="SourceAlpha" type="matrix" values="0 0 0 0 0 0 0 0 0 0 0 0 0 0 0 0 0 0 127 0" result="hardAlpha"/>
<feOffset dy="11"/>
<feGaussianBlur stdDeviation="3.5"/>
<feColorMatrix type="matrix" values="0 0 0 0 0 0 0 0 0 0 0 0 0 0 0 0 0 0 0.05 0"/>
<feBlend mode="normal" in2="effect3_dropShadow_1636_4662" result="effect4_dropShadow_1636_4662"/>
<feColorMatrix in="SourceAlpha" type="matrix" values="0 0 0 0 0 0 0 0 0 0 0 0 0 0 0 0 0 0 127 0" result="hardAlpha"/>
<feOffset dy="20"/>
<feGaussianBlur stdDeviation="4"/>
<feColorMatrix type="matrix" values="0 0 0 0 0 0 0 0 0 0 0 0 0 0 0 0 0 0 0.01 0"/>
<feBlend mode="normal" in2="effect4_dropShadow_1636_4662" result="effect5_dropShadow_1636_4662"/>
<feBlend mode="normal" in="SourceGraphic" in2="effect5_dropShadow_1636_4662" result="shape"/>
</filter>
<filter id="filter1_d_1636_4662" x="23.0796" y="26.9902" width="56.0199" height="56.0199" filterUnits="userSpaceOnUse" color-interpolation-filters="sRGB">
<feFlood flood-opacity="0" result="BackgroundImageFix"/>
<feColorMatrix in="SourceAlpha" type="matrix" values="0 0 0 0 0 0 0 0 0 0 0 0 0 0 0 0 0 0 127 0" result="hardAlpha"/>
<feOffset dy="4"/>
<feGaussianBlur stdDeviation="2"/>
<feComposite in2="hardAlpha" operator="out"/>
<feColorMatrix type="matrix" values="0 0 0 0 0 0 0 0 0 0 0 0 0 0 0 0 0 0 0.25 0"/>
<feBlend mode="normal" in2="BackgroundImageFix" result="effect1_dropShadow_1636_4662"/>
<feBlend mode="normal" in="SourceGraphic" in2="effect1_dropShadow_1636_4662" result="shape"/>
</filter>
<filter id="filter2_ddddd_1636_4662" x="34.6606" y="35.1387" width="32.8716" height="37.8888" filterUnits="userSpaceOnUse" color-interpolation-filters="sRGB">
<feFlood flood-opacity="0" result="BackgroundImageFix"/>
<feColorMatrix in="SourceAlpha" type="matrix" values="0 0 0 0 0 0 0 0 0 0 0 0 0 0 0 0 0 0 127 0" result="hardAlpha"/>
<feOffset/>
<feColorMatrix type="matrix" values="0 0 0 0 0 0 0 0 0 0 0 0 0 0 0 0 0 0 0.1 0"/>
<feBlend mode="normal" in2="BackgroundImageFix" result="effect1_dropShadow_1636_4662"/>
<feColorMatrix in="SourceAlpha" type="matrix" values="0 0 0 0 0 0 0 0 0 0 0 0 0 0 0 0 0 0 127 0" result="hardAlpha"/>
<feOffset/>
<feGaussianBlur stdDeviation="0.5"/>
<feColorMatrix type="matrix" values="0 0 0 0 0 0 0 0 0 0 0 0 0 0 0 0 0 0 0.1 0"/>
<feBlend mode="normal" in2="effect1_dropShadow_1636_4662" result="effect2_dropShadow_1636_4662"/>
<feColorMatrix in="SourceAlpha" type="matrix" values="0 0 0 0 0 0 0 0 0 0 0 0 0 0 0 0 0 0 127 0" result="hardAlpha"/>
<feOffset dy="1"/>
<feGaussianBlur stdDeviation="0.5"/>
<feColorMatrix type="matrix" values="0 0 0 0 0 0 0 0 0 0 0 0 0 0 0 0 0 0 0.09 0"/>
<feBlend mode="normal" in2="effect2_dropShadow_1636_4662" result="effect3_dropShadow_1636_4662"/>
<feColorMatrix in="SourceAlpha" type="matrix" values="0 0 0 0 0 0 0 0 0 0 0 0 0 0 0 0 0 0 127 0" result="hardAlpha"/>
<feOffset dy="3"/>
<feGaussianBlur stdDeviation="1"/>
<feColorMatrix type="matrix" values="0 0 0 0 0 0 0 0 0 0 0 0 0 0 0 0 0 0 0.05 0"/>
<feBlend mode="normal" in2="effect3_dropShadow_1636_4662" result="effect4_dropShadow_1636_4662"/>
<feColorMatrix in="SourceAlpha" type="matrix" values="0 0 0 0 0 0 0 0 0 0 0 0 0 0 0 0 0 0 127 0" result="hardAlpha"/>
<feOffset dy="6"/>
<feGaussianBlur stdDeviation="1"/>
<feColorMatrix type="matrix" values="0 0 0 0 0 0 0 0 0 0 0 0 0 0 0 0 0 0 0.01 0"/>
<feBlend mode="normal" in2="effect4_dropShadow_1636_4662" result="effect5_dropShadow_1636_4662"/>
<feBlend mode="normal" in="SourceGraphic" in2="effect5_dropShadow_1636_4662" result="shape"/>
</filter>
<linearGradient id="paint0_linear_1636_4662" x1="19.2227" y1="12.89" x2="77.0171" y2="147.529" gradientUnits="userSpaceOnUse">
<stop offset="0.192708" stop-color="white"/>
<stop offset="1" stop-color="#D0C1F7"/>
</linearGradient>
<linearGradient id="paint1_linear_1636_4662" x1="3.65059" y1="-1.9629" x2="67.3765" y2="120.319" gradientUnits="userSpaceOnUse">
<stop stop-color="#9A89E6"/>
<stop offset="0.421875" stop-color="#6F61D3"/>
<stop offset="0.786458" stop-color="#403CAE"/>
</linearGradient>
<linearGradient id="paint2_linear_1636_4662" x1="35.7801" y1="5.75267" x2="66.3837" y2="96.2324" gradientUnits="userSpaceOnUse">
<stop stop-color="#C8B8F7"/>
<stop offset="0.495" stop-color="#AB9AEA"/>
<stop offset="1" stop-color="#695BD4"/>
</linearGradient>
<linearGradient id="paint3_linear_1636_4662" x1="51.1867" y1="52.4521" x2="55.4526" y2="58.9398" gradientUnits="userSpaceOnUse">
<stop stop-color="#7E70D3"/>
<stop offset="1" stop-color="#685AD3"/>
</linearGradient>
<linearGradient id="paint4_linear_1636_4662" x1="54.5093" y1="51.7998" x2="54.8968" y2="58.6465" gradientUnits="userSpaceOnUse">
<stop stop-color="#433FA9"/>
<stop offset="1" stop-color="#3D3697"/>
</linearGradient>
<linearGradient id="paint5_linear_1636_4662" x1="46.3969" y1="40.8547" x2="50.3962" y2="47.9645" gradientUnits="userSpaceOnUse">
<stop stop-color="#D4C6FA"/>
<stop offset="0.97" stop-color="#C7B7F6"/>
</linearGradient>
<linearGradient id="paint6_linear_1636_4662" x1="47.617" y1="41.0842" x2="47.617" y2="53.2579" gradientUnits="userSpaceOnUse">
<stop stop-color="#B2A1EC"/>
<stop offset="1" stop-color="#9889E3"/>
</linearGradient>
<clipPath id="clip0_1636_4662">
<rect width="102" height="102" fill="white" transform="translate(0.0893555)"/>
</clipPath>
</defs>
</svg>
