<svg width="100" height="100" viewBox="0 0 100 100" fill="none" xmlns="http://www.w3.org/2000/svg">
<g clip-path="url(#clip0_1439_3836)">
<path d="M49.6399 96.4497C40.3817 96.4497 31.3315 93.7043 23.6336 88.5608C15.9357 83.4172 9.93598 76.1065 6.39305 67.5531C2.85011 58.9997 1.92312 49.5877 3.7293 40.5075C5.53548 31.4272 9.99371 23.0865 16.5402 16.54C23.0867 9.99349 31.4275 5.53528 40.5077 3.72912C49.588 1.92295 58.9999 2.84996 67.5533 6.39291C76.1067 9.93586 83.4175 15.9356 88.561 23.6335C93.7045 31.3314 96.4499 40.3816 96.4499 49.6398C96.4503 55.7871 95.2398 61.8742 92.8875 67.5537C90.5352 73.2331 87.0873 78.3936 82.7405 82.7404C78.3937 87.0872 73.2332 90.5351 67.5538 92.8874C61.8743 95.2397 55.7871 96.4501 49.6399 96.4497Z" fill="url(#paint0_linear_1439_3836)"/>
<path fill-rule="evenodd" clip-rule="evenodd" d="M95.54 49.6399C95.54 58.718 92.848 67.5923 87.8045 75.1405C82.7609 82.6888 75.5923 88.5719 67.2052 92.0459C58.818 95.52 49.5891 96.429 40.6854 94.6579C31.7816 92.8869 23.603 88.5153 17.1838 82.0961C10.7646 75.6768 6.39302 67.4982 4.62196 58.5945C2.85089 49.6908 3.75987 40.4618 7.23393 32.0747C10.708 23.6876 16.5911 16.519 24.1393 11.4754C31.6875 6.43186 40.5618 3.73987 49.64 3.73987C55.6677 3.73986 61.6363 4.92709 67.2052 7.23378C72.774 9.54046 77.834 12.9214 82.0962 17.1836C86.3584 21.4459 89.7394 26.5058 92.0461 32.0747C94.3528 37.6435 95.54 43.6122 95.54 49.6399V49.6399ZM49.64 -0.00010647C59.4579 -0.00010647 69.0552 2.91123 77.2185 8.36574C85.3818 13.8203 91.7442 21.573 95.5014 30.6435C99.2585 39.714 100.242 49.695 98.3262 59.3242C96.4108 68.9534 91.6831 77.7984 84.7408 84.7407C77.7985 91.683 68.9535 96.4107 59.3243 98.3261C49.6951 100.241 39.7141 99.2584 30.6436 95.5013C21.5731 91.7441 13.8203 85.3816 8.36584 77.2184C2.91133 69.0551 -3.61668e-06 59.4577 3.3895e-07 49.6399C-0.000761487 43.1208 1.2827 36.6655 3.77707 30.6426C6.27144 24.6196 9.92787 19.1471 14.5375 14.5374C19.1472 9.92775 24.6197 6.27133 30.6427 3.77695C36.6656 1.28258 43.121 -0.000870923 49.64 -0.00010647V-0.00010647Z" fill="#F2F1F0"/>
<path fill-rule="evenodd" clip-rule="evenodd" d="M92.7298 49.6397C92.7298 58.1621 90.2026 66.4931 85.4678 73.5792C80.7331 80.6653 74.0033 86.1883 66.1296 89.4496C58.256 92.711 49.592 93.5644 41.2334 91.9017C32.8747 90.2391 25.1968 86.1352 19.1706 80.1089C13.1443 74.0827 9.04041 66.4048 7.37778 58.0461C5.71514 49.6875 6.56847 41.0235 9.82985 33.1498C13.0912 25.2762 18.6142 18.5464 25.7003 13.8117C32.7864 9.07686 41.1174 6.54968 49.6398 6.54968C55.2986 6.54933 60.902 7.66365 66.13 9.82901C71.3581 11.9944 76.1085 15.1683 80.1098 19.1697C84.1112 23.171 87.2851 27.9214 89.4505 33.1494C91.6158 38.3775 92.7302 43.9809 92.7298 49.6397ZM49.6398 2.80968C58.9019 2.80968 67.956 5.55621 75.6572 10.702C83.3583 15.8477 89.3606 23.1615 92.9051 31.7186C96.4495 40.2757 97.3769 49.6916 95.57 58.7758C93.763 67.8599 89.3029 76.2042 82.7536 82.7535C76.2043 89.3028 67.86 93.7629 58.7759 95.5699C49.6918 97.3768 40.2758 96.4494 31.7187 92.905C23.1617 89.3605 15.8478 83.3582 10.7021 75.657C5.55635 67.9559 2.80981 58.9018 2.80981 49.6397C2.811 37.22 7.74525 25.3093 16.5273 16.5272C25.3094 7.74512 37.2201 2.81089 49.6398 2.80971V2.80968Z" fill="url(#paint1_linear_1439_3836)"/>
<path opacity="0.8" d="M19.8379 64.667C19.8379 65.9455 20.3458 67.1717 21.2499 68.0758C22.1539 68.9799 23.3801 69.4878 24.6587 69.4878H74.5523C75.8308 69.4878 77.057 68.9799 77.961 68.0758C78.8651 67.1717 79.373 65.9455 79.373 64.667V34.3864H19.8379V64.667Z" fill="#091F2C"/>
<path d="M74.5523 24.6365H24.6587C23.3801 24.6365 22.154 25.1444 21.2499 26.0484C20.3458 26.9525 19.8379 28.1787 19.8379 29.4572V34.3864H79.373V29.4572C79.373 28.1787 78.8651 26.9525 77.961 26.0485C77.057 25.1444 75.8308 24.6365 74.5523 24.6365V24.6365Z" fill="#091F2C"/>
<path d="M69.6011 49.1122C72.9295 49.1122 75.6277 46.414 75.6277 43.0856C75.6277 39.7572 72.9295 37.059 69.6011 37.059C66.2727 37.059 63.5745 39.7572 63.5745 43.0856C63.5745 46.414 66.2727 49.1122 69.6011 49.1122Z" fill="white"/>
<path d="M71.8067 42.5117H70.1478V40.8517C70.1478 40.7069 70.0903 40.568 69.9879 40.4655C69.8854 40.3631 69.7465 40.3056 69.6016 40.3056C69.4568 40.3056 69.3179 40.3631 69.2154 40.4655C69.113 40.568 69.0555 40.7069 69.0555 40.8517V42.5117H67.3956C67.2507 42.5117 67.1118 42.5692 67.0093 42.6716C66.9069 42.7741 66.8494 42.913 66.8494 43.0578C66.8494 43.2027 66.9069 43.3416 67.0093 43.4441C67.1118 43.5465 67.2507 43.604 67.3956 43.604H69.0555V45.2639C69.0555 45.4088 69.113 45.5477 69.2154 45.6502C69.3179 45.7526 69.4568 45.8101 69.6016 45.8101C69.7465 45.8101 69.8854 45.7526 69.9879 45.6502C70.0903 45.5477 70.1478 45.4088 70.1478 45.2639V43.604H71.8067C71.9515 43.604 72.0905 43.5464 72.1929 43.444C72.2953 43.3416 72.3529 43.2027 72.3529 43.0578C72.3529 42.9129 72.2953 42.774 72.1929 42.6716C72.0905 42.5692 71.9515 42.5116 71.8067 42.5116V42.5117Z" fill="#8661C5"/>
<path opacity="0.4" d="M43.0194 40.8029C43.0186 40.564 42.9232 40.3351 42.7539 40.1664C42.5847 39.9978 42.3556 39.9031 42.1166 39.9031C41.8777 39.9031 41.6486 39.9978 41.4793 40.1664C41.3101 40.3351 41.2147 40.564 41.2139 40.8029C41.25 41.3849 41.4358 41.9478 41.7533 42.437C42.0709 42.9262 42.5093 43.325 43.0263 43.595L43.1036 43.6489C43.922 44.2218 44.2231 44.4969 44.2231 45.0158C44.2239 45.2547 44.3194 45.4836 44.4886 45.6522C44.6578 45.8209 44.887 45.9156 45.1259 45.9156C45.3648 45.9156 45.594 45.8209 45.7632 45.6522C45.9324 45.4836 46.0279 45.2547 46.0287 45.0158C45.9926 44.4337 45.8067 43.8709 45.4892 43.3817C45.1717 42.8925 44.7332 42.4936 44.2162 42.2237L44.139 42.1698C43.3205 41.5968 43.0194 41.3218 43.0194 40.8029Z" fill="#F4F3F5"/>
<path d="M60.172 50.1315H59.2693V49.3147C59.2693 48.7332 59.0383 48.1756 58.6271 47.7644C58.216 47.3533 57.6583 47.1223 57.0769 47.1223H42.2025C41.9146 47.1223 41.6295 47.179 41.3636 47.2892C41.0976 47.3994 40.8559 47.5609 40.6523 47.7645C40.4488 47.968 40.2873 48.2097 40.1771 48.4757C40.0669 48.7417 40.0102 49.0268 40.0103 49.3147V54.3444C40.0106 56.5793 40.7882 58.7445 42.2097 60.4689C43.6312 62.1934 45.6082 63.3699 47.8019 63.7967C49.9956 64.2236 52.2695 63.8742 54.2339 62.8085C56.1983 61.7429 57.731 60.0272 58.5693 57.9555H60.172C61.2095 57.9555 62.2046 57.5434 62.9382 56.8097C63.6719 56.0761 64.084 55.081 64.084 54.0435C64.084 53.006 63.6719 52.0109 62.9382 51.2773C62.2046 50.5436 61.2095 50.1315 60.172 50.1315ZM60.172 56.15H59.1005C59.2131 55.5548 59.2696 54.9502 59.2694 54.3444V51.9371H60.172C60.7307 51.9371 61.2664 52.159 61.6615 52.5541C62.0565 52.9491 62.2785 53.4849 62.2785 54.0436C62.2785 54.6022 62.0565 55.138 61.6615 55.5331C61.2664 55.9281 60.7307 56.15 60.172 56.15V56.15Z" fill="#F4F3F5"/>
<path opacity="0.6" d="M46.9313 39.9001C47.1708 39.9001 47.4004 39.9952 47.5697 40.1645C47.739 40.3338 47.8341 40.5634 47.8341 40.8029C47.8341 41.3218 48.1352 41.5969 48.9537 42.1698L49.031 42.2237C49.5479 42.4936 49.9864 42.8925 50.3039 43.3817C50.6214 43.8709 50.8073 44.4338 50.8434 45.0158C50.8426 45.2547 50.7471 45.4836 50.5779 45.6522C50.4087 45.8209 50.1795 45.9156 49.9406 45.9156C49.7017 45.9156 49.4725 45.8209 49.3033 45.6522C49.1341 45.4836 49.0386 45.2547 49.0378 45.0158C49.0378 44.4969 48.7368 44.2218 47.9183 43.6489L47.841 43.595C47.324 43.3251 46.8856 42.9262 46.568 42.437C46.2505 41.9478 46.0647 41.3849 46.0286 40.8029C46.0286 40.5634 46.1237 40.3338 46.293 40.1645C46.4623 39.9952 46.6919 39.9001 46.9313 39.9001V39.9001Z" fill="#F4F3F5"/>
<path opacity="0.2" d="M52.6491 40.8029C52.6483 40.564 52.5528 40.3351 52.3836 40.1664C52.2144 39.9978 51.9852 39.9031 51.7463 39.9031C51.5074 39.9031 51.2782 39.9978 51.109 40.1664C50.9398 40.3351 50.8443 40.564 50.8435 40.8029C50.8796 41.3849 51.0654 41.9478 51.383 42.437C51.7005 42.9262 52.139 43.325 52.6559 43.595L52.7332 43.6489C53.5517 44.2218 53.8528 44.4969 53.8528 45.0158C53.8536 45.2547 53.949 45.4836 54.1182 45.6522C54.2874 45.8209 54.5166 45.9156 54.7555 45.9156C54.9944 45.9156 55.2236 45.8209 55.3928 45.6522C55.562 45.4836 55.6575 45.2547 55.6583 45.0158C55.6222 44.4337 55.4364 43.8709 55.1188 43.3817C54.8013 42.8925 54.3628 42.4936 53.8459 42.2237L53.7686 42.1698C52.9501 41.5968 52.6491 41.3218 52.6491 40.8029Z" fill="#F4F3F5"/>
<path opacity="0.3" d="M62.3581 69.4878V64.26C62.3581 62.6687 61.726 61.1426 60.6007 60.0174C59.4755 58.8921 57.9494 58.26 56.3581 58.26H42.8525C41.2612 58.26 39.7351 58.8921 38.6099 60.0174C37.4847 61.1426 36.8525 62.6687 36.8525 64.26V69.4878L62.3581 69.4878Z" fill="#091F2C"/>
<path d="M56.1739 60.4446H43.0374C40.8282 60.4446 39.0374 62.2354 39.0374 64.4446V77.5811C39.0374 79.7902 40.8282 81.5811 43.0374 81.5811H56.1739C58.383 81.5811 60.1739 79.7902 60.1739 77.5811V64.4446C60.1739 62.2354 58.383 60.4446 56.1739 60.4446Z" fill="url(#paint2_linear_1439_3836)"/>
<path d="M57.2646 71.355C57.265 71.4805 57.2451 71.6052 57.2056 71.7243C57.1648 71.8447 57.0994 71.9554 57.0136 72.0492L51.7776 78.4152C51.6741 78.5406 51.5445 78.6419 51.3978 78.7121C51.2511 78.7823 51.0909 78.8195 50.9283 78.8214C50.7806 78.8245 50.6342 78.7942 50.4999 78.7328C50.3734 78.6713 50.2564 78.5917 50.1528 78.4964C50.0453 78.3989 49.9488 78.2899 49.8648 78.1714C49.7811 78.0533 49.6901 77.9376 49.5916 77.8243C49.498 77.9425 49.4094 78.0582 49.3257 78.1714C49.2449 78.2813 49.1561 78.385 49.0599 78.4816C48.9663 78.5751 48.8561 78.6503 48.7349 78.7032C48.5967 78.7605 48.4487 78.7906 48.2991 78.7918C48.1328 78.792 47.9686 78.7541 47.8191 78.681C47.6701 78.61 47.5389 78.5065 47.4351 78.3782L42.4059 72.0344C42.2492 71.8401 42.1656 71.5971 42.1696 71.3476C42.1696 71.2246 42.1895 71.1024 42.2286 70.9857C42.2679 70.8677 42.328 70.7577 42.4059 70.6607L47.4351 64.3243C47.5356 64.1938 47.6643 64.0878 47.8117 64.0142C47.9632 63.9394 48.1302 63.9015 48.2991 63.9034C48.4388 63.8994 48.5777 63.9242 48.7073 63.9763C48.8369 64.0284 48.9544 64.1066 49.0524 64.2062C49.1497 64.304 49.2409 64.4075 49.3257 64.5164C49.4143 64.6296 49.5029 64.7478 49.5915 64.8708C49.6851 64.7576 49.7761 64.6419 49.8648 64.5237C49.9504 64.4089 50.0468 64.3026 50.1528 64.2062C50.2554 64.1132 50.3696 64.0337 50.4925 63.9699C50.6278 63.9031 50.7773 63.8701 50.9282 63.8739C51.0891 63.8724 51.2483 63.9078 51.3935 63.9773C51.5413 64.0501 51.6721 64.1533 51.7775 64.28L54.7906 67.943L57.0135 70.646C57.1783 70.8453 57.2672 71.0964 57.2646 71.355V71.355ZM48.5576 67.6698C48.5597 67.7049 48.5726 67.7385 48.5946 67.7658L50.9283 70.6017L53.0995 67.9578C53.1375 67.9101 53.1795 67.8656 53.225 67.8249C53.2719 67.7838 53.3241 67.749 53.3801 67.7215L51.0464 64.8856C51.0326 64.8673 51.0148 64.8524 50.9943 64.8421C50.9738 64.8319 50.9512 64.8265 50.9282 64.8265C50.9053 64.8265 50.8827 64.8319 50.8622 64.8421C50.8417 64.8524 50.8238 64.8673 50.8101 64.8856L48.5945 67.5664C48.5716 67.5961 48.5587 67.6323 48.5576 67.6698L48.5576 67.6698ZM48.9786 77.0785L47.8634 75.727C47.6966 75.5318 47.6073 75.2821 47.6123 75.0254C47.6119 74.8999 47.6319 74.7752 47.6714 74.6562C47.7131 74.5339 47.7783 74.421 47.8634 74.3238L50.2341 71.451C50.2554 71.4209 50.2659 71.3844 50.2636 71.3476C50.2652 71.3132 50.2547 71.2792 50.2341 71.2516L47.8635 68.3714C47.7011 68.1737 47.6124 67.9257 47.6124 67.6698C47.6124 67.414 47.7011 67.166 47.8635 66.9682L48.9786 65.6168L48.4247 64.9078C48.3913 64.8747 48.3462 64.8561 48.2992 64.8561C48.2522 64.8561 48.207 64.8747 48.1736 64.9078L43.1518 71.2516C43.1298 71.279 43.1169 71.3125 43.1148 71.3476C43.1137 71.3651 43.1162 71.3827 43.1222 71.3993C43.1309 71.4148 43.1408 71.4296 43.1518 71.4436L48.1736 77.7874C48.1889 77.8059 48.2081 77.8207 48.2298 77.831C48.2515 77.8412 48.2752 77.8465 48.2992 77.8465C48.3232 77.8465 48.3469 77.8412 48.3686 77.831C48.3903 77.8207 48.4094 77.8059 48.4247 77.7874L48.9786 77.0785ZM53.3801 74.9811C53.2746 74.9146 53.18 74.8324 53.0994 74.7373L50.9282 72.0935L48.5945 74.9294C48.5716 74.959 48.5587 74.9952 48.5576 75.0327C48.5596 75.0678 48.5725 75.1014 48.5945 75.1287L50.8101 77.8169C50.8238 77.8353 50.8417 77.8502 50.8622 77.8604C50.8827 77.8707 50.9053 77.876 50.9282 77.876C50.9512 77.876 50.9738 77.8707 50.9943 77.8604C51.0148 77.8502 51.0326 77.8353 51.0464 77.8169L53.3801 74.9811ZM56.3193 71.3328C56.3188 71.3202 56.3163 71.3077 56.312 71.2959C56.3057 71.279 56.2956 71.2639 56.2824 71.2516L54.0669 68.556C54.0535 68.5396 54.0366 68.5264 54.0175 68.5174C53.9983 68.5085 53.9773 68.504 53.9561 68.5043C53.932 68.5031 53.9079 68.5079 53.886 68.5182C53.8641 68.5285 53.8451 68.544 53.8306 68.5634L51.6224 71.2516C51.6004 71.2789 51.5875 71.3125 51.5855 71.3476C51.5865 71.3851 51.5995 71.4213 51.6224 71.4509L53.8306 74.1317C53.8439 74.1505 53.8617 74.1657 53.8823 74.1761C53.9029 74.1864 53.9257 74.1914 53.9487 74.1908C53.9729 74.192 53.997 74.1872 54.0189 74.1769C54.0408 74.1666 54.0598 74.1511 54.0743 74.1317L56.2824 71.451C56.3084 71.4173 56.3215 71.3753 56.3193 71.3328V71.3328Z" fill="#F4F3F5"/>
<path opacity="0.2" d="M48.5686 67.6698C48.5706 67.7049 48.5835 67.7384 48.6055 67.7658L50.9392 70.6017L53.1104 67.9578C53.1484 67.91 53.1904 67.8656 53.236 67.8249C53.2829 67.7838 53.335 67.749 53.3911 67.7215L51.0574 64.8856C51.0436 64.8673 51.0258 64.8524 51.0053 64.8421C50.9848 64.8319 50.9621 64.8265 50.9392 64.8265C50.9163 64.8265 50.8937 64.8319 50.8732 64.8421C50.8526 64.8524 50.8348 64.8673 50.8211 64.8856L48.6055 67.5664C48.5826 67.5961 48.5696 67.6323 48.5686 67.6698V67.6698ZM48.9895 77.0784L47.8744 75.727C47.7076 75.5318 47.6182 75.2821 47.6233 75.0254C47.6229 74.8999 47.6428 74.7752 47.6824 74.6562C47.7241 74.5339 47.7893 74.421 47.8744 74.3238L50.245 71.451C50.2664 71.4209 50.2768 71.3845 50.2745 71.3476C50.2761 71.3132 50.2657 71.2793 50.245 71.2516L47.8744 68.3715C47.712 68.1737 47.6233 67.9257 47.6233 67.6699C47.6233 67.414 47.712 67.166 47.8744 66.9683L48.9895 65.6168L48.4357 64.9078C48.4023 64.8747 48.3571 64.8561 48.3101 64.8561C48.2631 64.8561 48.2179 64.8747 48.1846 64.9078L43.1627 71.2516C43.1407 71.279 43.1278 71.3125 43.1258 71.3476C43.1246 71.3652 43.1271 71.3828 43.1332 71.3993C43.1418 71.4148 43.1517 71.4297 43.1627 71.4436L48.1846 77.7874C48.1998 77.8059 48.219 77.8208 48.2407 77.831C48.2624 77.8412 48.2861 77.8465 48.3101 77.8465C48.3341 77.8465 48.3578 77.8412 48.3795 77.831C48.4012 77.8208 48.4204 77.8059 48.4357 77.7874L48.9895 77.0784ZM53.3911 74.9811C53.2856 74.9146 53.191 74.8324 53.1104 74.7374L50.9392 72.0935L48.6055 74.9294C48.5826 74.959 48.5697 74.9952 48.5686 75.0328C48.5706 75.0678 48.5835 75.1014 48.6055 75.1288L50.8211 77.8169C50.8348 77.8353 50.8527 77.8502 50.8732 77.8604C50.8937 77.8707 50.9163 77.876 50.9392 77.876C50.9622 77.876 50.9848 77.8707 51.0053 77.8604C51.0258 77.8502 51.0436 77.8353 51.0574 77.8169L53.3911 74.9811ZM56.3303 71.3328C56.3298 71.3202 56.3273 71.3077 56.323 71.2959C56.3167 71.279 56.3066 71.2639 56.2934 71.2516L54.0779 68.556C54.0645 68.5396 54.0476 68.5264 54.0284 68.5174C54.0092 68.5085 53.9883 68.504 53.9671 68.5043C53.9429 68.5031 53.9188 68.5079 53.897 68.5182C53.8751 68.5285 53.856 68.544 53.8416 68.5634L51.6334 71.2516C51.6114 71.2789 51.5985 71.3125 51.5965 71.3476C51.5975 71.3851 51.6105 71.4213 51.6334 71.451L53.8416 74.1317C53.8549 74.1505 53.8726 74.1657 53.8932 74.176C53.9139 74.1864 53.9367 74.1914 53.9597 74.1908C53.9839 74.192 54.008 74.1872 54.0299 74.1769C54.0517 74.1666 54.0708 74.1511 54.0853 74.1317L56.2934 71.451C56.3194 71.4173 56.3325 71.3754 56.3303 71.3328H56.3303Z" fill="url(#paint3_linear_1439_3836)"/>
</g>
<defs>
<linearGradient id="paint0_linear_1439_3836" x1="49.6398" y1="91.4709" x2="49.6398" y2="9.09945" gradientUnits="userSpaceOnUse">
<stop stop-color="#0082E6"/>
<stop offset="1" stop-color="#8DC8E8"/>
</linearGradient>
<linearGradient id="paint1_linear_1439_3836" x1="50.8009" y1="85.0923" x2="48.4072" y2="12.0026" gradientUnits="userSpaceOnUse">
<stop stop-color="#0078D4"/>
<stop offset="1" stop-color="#8661C5"/>
</linearGradient>
<linearGradient id="paint2_linear_1439_3836" x1="49.6056" y1="81.5811" x2="49.6056" y2="60.4446" gradientUnits="userSpaceOnUse">
<stop stop-color="#463668"/>
<stop offset="1" stop-color="#8661C5"/>
</linearGradient>
<linearGradient id="paint3_linear_1439_3836" x1="49.7281" y1="77.876" x2="49.7281" y2="64.8265" gradientUnits="userSpaceOnUse">
<stop stop-color="#463668"/>
<stop offset="1" stop-color="#8661C5"/>
</linearGradient>
<clipPath id="clip0_1439_3836">
<rect width="99.2799" height="99.28" fill="white"/>
</clipPath>
</defs>
</svg>
