<svg width="180" height="190" viewBox="0 0 180 190" fill="none" xmlns="http://www.w3.org/2000/svg">
<g clip-path="url(#clip0_1834_3932)">
<path d="M90.1856 189.742C93.2456 189.742 96.2556 188.892 98.9156 187.272L160.886 149.612C166.426 146.242 169.856 139.912 169.856 133.072V58.362C169.856 51.542 166.426 45.202 160.886 41.822L98.9156 4.16201C93.5856 0.922008 86.7656 0.942008 81.4656 4.16201L19.4956 41.842C13.9556 45.212 10.5056 51.542 10.5056 58.382V133.082C10.5056 138.842 12.9556 144.262 17.0556 147.832V147.862L81.4656 187.292C84.1056 188.892 87.1256 189.742 90.1856 189.742ZM90.8356 8.69201C92.7856 8.69201 95.2656 9.90201 96.9756 10.952L157.736 48.142C161.486 50.422 163.606 57.022 163.606 61.772L162.976 133.072C162.976 137.822 159.776 142.092 156.026 144.372L95.6256 180.752C92.1956 182.842 89.4056 182.842 85.9656 180.752L24.7556 144.282C21.0056 142.002 17.9856 137.802 17.9856 133.072V59.432C17.9856 54.692 20.7156 49.802 24.4856 47.512L85.0656 10.952C86.7656 9.91201 88.8856 8.69201 90.8356 8.69201Z" fill="#F2F1F0"/>
<path fill-rule="evenodd" clip-rule="evenodd" d="M98.0856 12.2717C95.6356 10.7717 92.9156 10.0217 90.1856 10.0217C87.4556 10.0217 84.7356 10.7817 82.2856 12.2717L26.1556 46.6017C21.1356 49.6717 18.0256 55.4217 18.0256 61.6717V129.772C18.0256 136.002 21.1256 141.772 26.1556 144.842L82.2856 179.172C84.7356 180.672 87.4556 181.422 90.1856 181.422C92.9156 181.422 95.6356 180.682 98.0856 179.172L154.216 144.842C159.236 141.772 162.346 136.002 162.346 129.772V61.6717C162.346 55.4417 159.246 49.6917 154.216 46.6017L98.0856 12.2717Z" fill="url(#paint0_linear_1834_3932)"/>
<path fill-rule="evenodd" clip-rule="evenodd" d="M90.1856 11.4919C91.8656 11.4919 93.7556 12.3619 95.8156 13.6119L154.286 49.1519C157.936 51.3719 160.346 55.6419 160.346 60.4719V130.952C160.346 135.772 157.936 140.052 154.286 142.272L95.8256 177.812C93.8656 179.002 91.9456 179.752 90.1956 179.752C88.4456 179.752 86.5256 179.002 84.5656 177.812L26.0856 142.282C24.0756 141.052 22.6256 139.852 21.6456 138.242C20.6656 136.642 20.0256 134.422 20.0256 130.962V60.4819C20.0256 55.6519 22.4356 51.3819 26.0856 49.1619L84.5456 13.6219C86.6356 12.3719 88.4956 11.4919 90.1856 11.4919ZM97.8956 181.242L156.356 145.702C161.276 142.712 164.336 137.092 164.336 130.962V60.4819C164.336 54.3519 161.276 48.7319 156.356 45.7419L97.8956 10.2019C95.7856 8.92194 93.0756 7.49194 90.1856 7.49194C87.2856 7.49194 84.5756 8.93194 82.4856 10.1919H82.4756L24.0056 45.7419C19.0856 48.7319 16.0256 54.3519 16.0256 60.4819V130.962C16.0256 134.922 16.7656 137.912 18.2256 140.322C19.6856 142.722 21.7456 144.322 24.0056 145.692L82.4656 181.232C84.6856 182.582 87.3556 183.762 90.1756 183.762C92.9956 183.762 95.6756 182.592 97.8956 181.242Z" fill="url(#paint1_linear_1834_3932)"/>
<g filter="url(#filter0_dddd_1834_3932)">
<path d="M114.729 94.9025H65.0867L72.5001 157.87H107.221L114.729 94.9025Z" fill="#F6E5CC"/>
<path d="M65.0867 80.762H114.729L113.908 73.7943H65.9078L65.0867 80.762Z" fill="white"/>
<path d="M121.344 84.1637H58.2124V91.2018H121.344V84.1637Z" fill="white"/>
</g>
<path d="M86.1054 64.1696C86.1054 64.1696 75.6187 59.0787 75.6187 51.6652C75.6187 41.3427 90.3283 41.3427 90.3283 33.5304C90.3283 25.3897 86.34 24.4513 86.34 24.4513C86.34 24.4513 96.6391 26.1639 96.7329 33.5304C96.8971 45.5656 82.6567 44.6271 82.6567 54.4805C82.6802 61.0493 86.1054 64.1696 86.1054 64.1696Z" fill="#F9F9F9"/>
<path d="M93.4732 69.505C93.4732 69.505 85.3325 64.2733 85.3325 56.8364C85.3325 46.5139 99.7137 45.8805 99.7137 36.3556C99.7137 29.3879 96.5935 28.0741 96.5935 28.0741C96.5935 28.0741 104.57 31.0536 104.57 38.3966C104.57 52.074 90.7988 49.4933 90.7988 57.1649C90.7988 65.4933 93.4732 69.505 93.4732 69.505Z" fill="#F9F9F9"/>
<path d="M88.5429 124.436C88.3963 124.4 83.3967 134.41 81.1548 138.916C81.0564 139.114 80.9047 139.28 80.7167 139.396C80.5286 139.512 80.3119 139.573 80.091 139.572C79.8701 139.571 79.6539 139.508 79.4669 139.39C79.28 139.273 79.1297 139.105 79.0331 138.906L74.554 130.074C74.359 129.69 74.2664 129.262 74.2851 128.831C74.3037 128.401 74.4331 127.982 74.6606 127.616C74.8881 127.25 75.2061 126.949 75.5839 126.742C75.9618 126.535 76.3866 126.428 76.8175 126.433L79.1459 126.458L84.1728 124.72L88.5429 124.436Z" fill="url(#paint2_linear_1834_3932)"/>
<path d="M85.2412 106.429L81.7646 113.424C81.6667 113.623 81.6209 113.842 81.6314 114.063C81.6418 114.284 81.7083 114.498 81.8246 114.686C81.9409 114.874 82.1031 115.03 82.2959 115.138C82.4888 115.246 82.7059 115.303 82.9269 115.304L96.8548 115.344C96.8548 115.344 98.3581 115.532 99.2977 116.213C100.237 116.894 100.777 117.905 100.777 117.905L100.871 116.824H101.153C102.604 116.824 103.996 116.247 105.023 115.221C106.049 114.194 106.626 112.802 106.626 111.351C106.626 109.862 106.034 108.434 104.981 107.381C103.929 106.328 102.501 105.737 101.012 105.737H86.3546C86.1229 105.737 85.8959 105.802 85.6991 105.924C85.5023 106.046 85.3437 106.221 85.2412 106.429Z" fill="url(#paint3_linear_1834_3932)"/>
<path d="M102.409 116.68C102.328 116.7 102.246 116.717 102.164 116.732H102.332L102.409 116.68Z" fill="url(#paint4_linear_1834_3932)"/>
<path d="M102.408 116.68L102.164 116.732C101.832 116.794 101.496 116.826 101.158 116.826L81.7164 116.732C81.2336 116.732 80.7604 116.866 80.3494 117.12C79.9384 117.373 79.6059 117.736 79.389 118.167L74.5435 127.772L74.5604 127.766C74.7463 127.365 75.0439 127.027 75.4174 126.792C75.7909 126.556 76.2245 126.433 76.666 126.438L77.9458 126.448L96.2597 126.41C97.2614 126.41 98.2438 126.134 99.099 125.613C99.9541 125.091 100.649 124.344 101.107 123.453L104.566 116.732L105.646 114.5L105.626 114.514C104.854 115.604 103.709 116.375 102.408 116.68Z" fill="url(#paint5_linear_1834_3932)"/>
</g>
<defs>
<filter id="filter0_dddd_1834_3932" x="47.2124" y="71.7943" width="79.1316" height="113.076" filterUnits="userSpaceOnUse" color-interpolation-filters="sRGB">
<feFlood flood-opacity="0" result="BackgroundImageFix"/>
<feColorMatrix in="SourceAlpha" type="matrix" values="0 0 0 0 0 0 0 0 0 0 0 0 0 0 0 0 0 0 127 0" result="hardAlpha"/>
<feOffset dy="1"/>
<feGaussianBlur stdDeviation="1.5"/>
<feColorMatrix type="matrix" values="0 0 0 0 0 0 0 0 0 0 0 0 0 0 0 0 0 0 0.1 0"/>
<feBlend mode="normal" in2="BackgroundImageFix" result="effect1_dropShadow_1834_3932"/>
<feColorMatrix in="SourceAlpha" type="matrix" values="0 0 0 0 0 0 0 0 0 0 0 0 0 0 0 0 0 0 127 0" result="hardAlpha"/>
<feOffset dx="-1" dy="5"/>
<feGaussianBlur stdDeviation="2.5"/>
<feColorMatrix type="matrix" values="0 0 0 0 0 0 0 0 0 0 0 0 0 0 0 0 0 0 0.09 0"/>
<feBlend mode="normal" in2="effect1_dropShadow_1834_3932" result="effect2_dropShadow_1834_3932"/>
<feColorMatrix in="SourceAlpha" type="matrix" values="0 0 0 0 0 0 0 0 0 0 0 0 0 0 0 0 0 0 127 0" result="hardAlpha"/>
<feOffset dx="-2" dy="11"/>
<feGaussianBlur stdDeviation="3"/>
<feColorMatrix type="matrix" values="0 0 0 0 0 0 0 0 0 0 0 0 0 0 0 0 0 0 0.05 0"/>
<feBlend mode="normal" in2="effect2_dropShadow_1834_3932" result="effect3_dropShadow_1834_3932"/>
<feColorMatrix in="SourceAlpha" type="matrix" values="0 0 0 0 0 0 0 0 0 0 0 0 0 0 0 0 0 0 127 0" result="hardAlpha"/>
<feOffset dx="-3" dy="19"/>
<feGaussianBlur stdDeviation="4"/>
<feColorMatrix type="matrix" values="0 0 0 0 0 0 0 0 0 0 0 0 0 0 0 0 0 0 0.01 0"/>
<feBlend mode="normal" in2="effect3_dropShadow_1834_3932" result="effect4_dropShadow_1834_3932"/>
<feBlend mode="normal" in="SourceGraphic" in2="effect4_dropShadow_1834_3932" result="shape"/>
</filter>
<linearGradient id="paint0_linear_1834_3932" x1="50.1526" y1="18.9857" x2="144.366" y2="177.035" gradientUnits="userSpaceOnUse">
<stop offset="0.0001" stop-color="#50E6FF"/>
<stop offset="0.96471" stop-color="#0078D4"/>
</linearGradient>
<linearGradient id="paint1_linear_1834_3932" x1="36.3053" y1="4.81305" x2="202.983" y2="287.144" gradientUnits="userSpaceOnUse">
<stop stop-color="#007ED8"/>
<stop offset="0.7065" stop-color="#002D4C"/>
</linearGradient>
<linearGradient id="paint2_linear_1834_3932" x1="81.2262" y1="126.199" x2="84.2921" y2="137.087" gradientUnits="userSpaceOnUse">
<stop stop-color="#14834E"/>
<stop offset="0.38" stop-color="#209D69"/>
<stop offset="0.71" stop-color="#2DAC85"/>
<stop offset="1" stop-color="#3AB89F"/>
</linearGradient>
<linearGradient id="paint3_linear_1834_3932" x1="83.9398" y1="104.496" x2="107.618" y2="120.88" gradientUnits="userSpaceOnUse">
<stop offset="0.16" stop-color="#1B9D90"/>
<stop offset="0.37" stop-color="#088488"/>
<stop offset="0.65" stop-color="#055976"/>
<stop offset="1" stop-color="#054D7C"/>
</linearGradient>
<linearGradient id="paint4_linear_1834_3932" x1="102.164" y1="116.707" x2="102.409" y2="116.707" gradientUnits="userSpaceOnUse">
<stop stop-color="#94DF8C"/>
<stop offset="0.35" stop-color="#2FB07B"/>
<stop offset="0.71" stop-color="#009180"/>
<stop offset="1" stop-color="#007D83"/>
</linearGradient>
<linearGradient id="paint5_linear_1834_3932" x1="74.5435" y1="121.137" x2="105.645" y2="121.137" gradientUnits="userSpaceOnUse">
<stop stop-color="#94DF8C"/>
<stop offset="0.43" stop-color="#2FB07B"/>
<stop offset="0.78" stop-color="#009180"/>
<stop offset="1" stop-color="#007D83"/>
</linearGradient>
<clipPath id="clip0_1834_3932">
<rect width="180" height="190" fill="white"/>
</clipPath>
</defs>
</svg>
