<svg width="181" height="191" viewBox="0 0 181 191" fill="none" xmlns="http://www.w3.org/2000/svg">
<path d="M90.124 189.879C93.184 189.879 96.194 189.029 98.854 187.409L160.824 149.749C166.364 146.379 169.794 140.049 169.794 133.209V58.4992C169.794 51.6792 166.364 45.3392 160.824 41.9592L98.854 4.29921C93.524 1.05921 86.704 1.07921 81.404 4.29921L19.434 41.9792C13.894 45.3492 10.444 51.6792 10.444 58.5192V133.219C10.444 138.979 12.894 144.399 16.994 147.969V147.999L81.404 187.429C84.044 189.029 87.064 189.879 90.124 189.879ZM90.774 8.82921C92.724 8.82921 95.204 10.0392 96.914 11.0892L157.674 48.2792C161.424 50.5592 163.544 57.1592 163.544 61.9092L162.914 133.209C162.914 137.959 159.714 142.229 155.964 144.509L95.564 180.889C92.134 182.979 89.344 182.979 85.904 180.889L24.694 144.419C20.944 142.139 17.924 137.939 17.924 133.209V59.5692C17.924 54.8292 20.654 49.9392 24.424 47.6492L85.004 11.0892C86.704 10.0492 88.824 8.82921 90.774 8.82921Z" fill="#F2F1F0"/>
<path fill-rule="evenodd" clip-rule="evenodd" d="M98.024 12.4089C95.574 10.9089 92.8541 10.1589 90.1241 10.1589C87.3941 10.1589 84.674 10.9189 82.224 12.4089L26.094 46.7389C21.074 49.8089 17.9641 55.5589 17.9641 61.8089V129.909C17.9641 136.139 21.064 141.909 26.094 144.979L82.224 179.309C84.674 180.809 87.3941 181.559 90.1241 181.559C92.8541 181.559 95.574 180.819 98.024 179.309L154.154 144.979C159.174 141.909 162.284 136.139 162.284 129.909V61.8089C162.284 55.5789 159.184 49.8289 154.154 46.7389L98.024 12.4089Z" fill="url(#paint0_linear_1274_61)"/>
<path fill-rule="evenodd" clip-rule="evenodd" d="M90.1241 11.6292C91.8041 11.6292 93.694 12.4992 95.754 13.7492L154.224 49.2892C157.874 51.5092 160.284 55.7792 160.284 60.6091V131.089C160.284 135.909 157.874 140.189 154.224 142.409L95.7641 177.949C93.8041 179.139 91.884 179.889 90.134 179.889C88.384 179.889 86.464 179.139 84.504 177.949L26.024 142.419C24.014 141.189 22.564 139.989 21.584 138.379C20.604 136.779 19.9641 134.559 19.9641 131.099V60.6192C19.9641 55.7892 22.374 51.5191 26.024 49.2991L84.4841 13.7592C86.5741 12.5092 88.4341 11.6292 90.1241 11.6292ZM97.834 181.379L156.294 145.839C161.214 142.849 164.274 137.229 164.274 131.099V60.6192C164.274 54.4892 161.214 48.8692 156.294 45.8792L97.834 10.3392C95.724 9.05915 93.0141 7.62915 90.1241 7.62915C87.2241 7.62915 84.5141 9.06915 82.4241 10.3292H82.414L23.944 45.8792C19.024 48.8692 15.9641 54.4892 15.9641 60.6192V131.099C15.9641 135.059 16.7041 138.049 18.1641 140.459C19.6241 142.859 21.684 144.459 23.944 145.829L82.4041 181.369C84.6241 182.719 87.294 183.899 90.114 183.899C92.934 183.899 95.614 182.729 97.834 181.379Z" fill="url(#paint1_linear_1274_61)"/>
<path d="M119.035 160.505L111.548 158.96L101.843 156.954L91.918 154.909L81.772 152.826L71.0981 150.878L59.1764 150.196L48.1762 151.626L47.3699 152.087" stroke="white" stroke-width="0.5" stroke-miterlimit="10"/>
<path d="M39.0573 147.028L40.9674 145.627L50.6718 143.054L62.2576 141.509L74.8032 141.298L86.5426 142.91L97.1877 145.176L107.478 147.432L117.576 149.601L127.434 151.77L131.83 152.72" stroke="white" stroke-width="0.5" stroke-miterlimit="10"/>
<path d="M93.6744 175.767L90.6989 175.22L83.3077 173.934" stroke="white" stroke-width="0.5" stroke-miterlimit="10"/>
<path d="M61.0098 160.38L61.5089 160.294L72.8259 161.753L83.2886 163.711L93.4154 165.669L103.321 167.599L106.383 168.184" stroke="white" stroke-width="0.5" stroke-miterlimit="10"/>
<path d="M106.383 168.184L103.321 167.599L93.4154 165.669L83.2886 163.711L72.8259 161.753L61.5089 160.294L61.0098 160.38" stroke="white" stroke-width="0.5" stroke-miterlimit="10"/>
<path d="M47.3699 152.087L48.1762 151.626L59.1764 150.196L71.0981 150.878L81.772 152.826L91.918 154.909L101.843 156.954L111.548 158.96L119.035 160.505" stroke="white" stroke-width="0.5" stroke-miterlimit="10"/>
<path d="M84.7093 174.779L83.3077 173.934L90.6989 175.22L93.6744 175.767" stroke="white" stroke-width="0.5" stroke-miterlimit="10"/>
<path d="M157.468 88.3128L156.23 87.9288L146.554 85.0108L136.658 82.0255L126.531 78.9539L116.193 75.8535L104.982 73.1562L92.3115 72.5515L80.2074 74.6249L69.2359 77.6293L58.6388 80.7009L48.2817 83.6861L38.1646 86.6042L28.249 89.5126L22.7777 91.106" stroke="white" stroke-width="0.5" stroke-miterlimit="10"/>
<path d="M22.7777 84.8377L26.454 83.7434L36.2736 80.835L46.3236 77.8594L56.6231 74.8261L67.1434 71.7161L78.038 68.6253L90.0078 66.4368L102.669 66.9359L113.918 69.6428L124.333 72.8104L134.45 75.9204L144.337 78.9728L154.013 81.958L157.468 83.0331" stroke="white" stroke-width="0.5" stroke-miterlimit="10"/>
<path d="M131.83 152.72L127.434 151.77L117.576 149.601L107.478 147.432L97.1877 145.176L86.5426 142.91L74.8032 141.298L62.2576 141.509L50.6718 143.054L40.9674 145.627L39.0573 147.028" stroke="white" stroke-width="0.5" stroke-miterlimit="10"/>
<path d="M31.5798 142.488L32.0022 141.663L39.4892 138.457L49.376 136L60.2611 133.955L72.0388 132.438L84.5653 132.112L96.2854 133.686L106.815 136.038L117.009 138.39L126.963 140.684L136.696 142.94L144.827 144.83" stroke="white" stroke-width="0.5" stroke-miterlimit="10"/>
<path d="M157.468 110.937L152.179 109.449L142.283 106.723L132.127 103.93L121.703 101.098L110.444 98.6409L97.658 98.209L85.4771 100.177L74.3137 102.884L63.5438 105.648L53.0523 108.365L42.7624 111.023L32.7605 113.596L23.0753 116.168L22.7777 116.264" stroke="white" stroke-width="0.5" stroke-miterlimit="10"/>
<path d="M22.7777 109.91L30.8407 107.75L40.7083 105.178L50.8158 102.49L61.1057 99.7353L71.7028 96.9133L82.6071 94.0816L94.3944 91.8163L107.151 91.7107L118.641 93.9568L129.065 96.8173L139.182 99.6777L149.05 102.461L157.468 104.851" stroke="white" stroke-width="0.5" stroke-miterlimit="10"/>
<path d="M157.468 83.0331L154.013 81.958L144.337 78.9728L134.45 75.9204L124.333 72.8104L113.918 69.6428L102.669 66.9359L90.0078 66.4368L78.038 68.6253L67.1434 71.7161L56.6231 74.8261L46.3236 77.8594L36.2736 80.835L26.454 83.7434L22.7777 84.8377" stroke="white" stroke-width="0.5" stroke-miterlimit="10"/>
<path d="M22.7777 78.5409L31.3782 75.9301L41.3034 72.9256L51.4493 69.8444L61.8353 66.7056L72.4995 63.5284L83.9413 60.7831L96.5925 60.2456L108.332 62.4821L118.871 65.7169L129.065 68.9229L139.038 72.0329L148.772 75.095L157.468 77.8306" stroke="white" stroke-width="0.5" stroke-miterlimit="10"/>
<path d="M157.468 99.0536L147.879 96.2796L137.963 93.3711L127.789 90.4339L117.288 87.4871L105.702 85.1833L92.8394 85.2793L81.0233 87.6214L70.0902 90.5395L59.5699 93.4863L49.2704 96.3372L39.1437 99.1016L29.2473 101.818L22.7777 103.603" stroke="white" stroke-width="0.5" stroke-miterlimit="10"/>
<path d="M22.7777 97.2395L28.5178 95.6269L38.4333 92.8337L48.5889 89.9732L58.9652 87.0552L69.5911 84.07L80.5529 81.0847L92.5418 78.8386L105.337 79.0786L116.75 81.6511L127.242 84.6747L137.407 87.6887L147.351 90.6164L157.055 93.5056L157.468 93.6304" stroke="white" stroke-width="0.5" stroke-miterlimit="10"/>
<path d="M157.468 93.6304L157.055 93.5056L147.351 90.6164L137.407 87.6887L127.242 84.6747L116.75 81.6511L105.337 79.0786L92.5418 78.8386L80.5529 81.0847L69.5911 84.07L58.9652 87.0552L48.5889 89.9732L38.4333 92.8337L28.5178 95.6269L22.7777 97.2395" stroke="white" stroke-width="0.5" stroke-miterlimit="10"/>
<path d="M22.7777 91.106L28.249 89.5126L38.1646 86.6042L48.2817 83.6861L58.6388 80.7009L69.2359 77.6293L80.2074 74.6249L92.3115 72.5515L104.982 73.1562L116.193 75.8535L126.531 78.9539L136.658 82.0255L146.554 85.0108L156.23 87.9288L157.468 88.3128" stroke="white" stroke-width="0.5" stroke-miterlimit="10"/>
<path d="M144.827 144.83L136.696 142.94L126.963 140.684L117.009 138.39L106.815 136.038L96.2854 133.686L84.5653 132.112L72.0388 132.438L60.2611 133.955L49.376 136L39.4892 138.457L32.0022 141.663L31.5798 142.488" stroke="white" stroke-width="0.5" stroke-miterlimit="10"/>
<path d="M25.4749 137.833L25.7629 136.873L32.6836 133.475L42.1481 130.806L52.4572 128.416L63.2751 126.122L74.7937 124.106L87.1282 122.811L99.7986 123.214L111.01 125.393L121.406 127.965L131.475 130.432L141.38 132.851L150.979 135.251L155.884 136.882" stroke="white" stroke-width="0.5" stroke-miterlimit="10"/>
<path d="M155.913 136.767C155.913 136.767 155.913 136.825 155.856 136.854L150.951 135.222L141.352 132.822L131.446 130.403L121.377 127.937L110.981 125.364L99.7698 123.185L87.0994 122.782L74.7648 124.078L63.2462 126.094L52.4284 128.388L42.1385 130.816L32.6739 133.485L25.7532 136.883L25.4652 137.842" stroke="white" stroke-width="0.5" stroke-miterlimit="10"/>
<path d="M22.8256 130.519L27.3564 128.34L36.6768 125.642L46.6979 123.147L56.9974 120.641L67.7577 118.165L79.0266 115.861L91.0732 114.066L103.859 113.778L115.445 115.698L125.917 118.27L136.082 120.843L146.007 123.415L155.606 125.988L157.44 126.65" stroke="white" stroke-width="0.5" stroke-miterlimit="10"/>
<path d="M157.468 118.011L156.019 117.56L146.199 114.988L136.13 112.291L125.831 109.555L115.061 106.886L102.793 105.408L90.0558 106.493L78.3452 108.816L67.2874 111.388L56.6327 114.047L46.2564 116.62L36.1392 119.192L26.4252 121.765L22.7777 123.051" stroke="white" stroke-width="0.5" stroke-miterlimit="10"/>
<path d="M22.7777 116.264L23.0753 116.168L32.7605 113.596L42.7624 111.023L53.0523 108.365L63.5438 105.648L74.3137 102.884L85.4771 100.177L97.658 98.209L110.444 98.6409L121.703 101.098L132.127 103.93L142.283 106.723L152.179 109.449L157.468 110.937" stroke="white" stroke-width="0.5" stroke-miterlimit="10"/>
<path d="M157.468 104.851L149.05 102.461L139.182 99.6777L129.065 96.8173L118.641 93.9568L107.151 91.7107L94.3944 91.8163L82.6071 94.0816L71.7028 96.9133L61.1057 99.7353L50.8158 102.49L40.7083 105.178L30.8407 107.75L22.7777 109.91" stroke="white" stroke-width="0.5" stroke-miterlimit="10"/>
<path d="M22.7777 103.603L29.2473 101.818L39.1437 99.1016L49.2704 96.3372L59.5699 93.4863L70.0902 90.5395L81.0233 87.6214L92.8394 85.2793L105.702 85.1833L117.288 87.4871L127.789 90.4339L137.963 93.3711L147.879 96.2796L157.468 99.0536" stroke="white" stroke-width="0.5" stroke-miterlimit="10"/>
<path d="M84.5652 17.2621L92.6953 15.7263" stroke="white" stroke-width="0.5" stroke-miterlimit="10"/>
<path d="M94.8455 16.7822L90.4109 17.3485L81.8296 18.942" stroke="white" stroke-width="0.5" stroke-miterlimit="10"/>
<path d="M92.7145 15.7168L84.5844 17.2526L84.7379 17.1662" stroke="white" stroke-width="0.5" stroke-miterlimit="10"/>
<path d="M81.8296 18.9324L90.4109 17.339L94.8455 16.7727" stroke="white" stroke-width="0.5" stroke-miterlimit="10"/>
<path d="M97.4661 18.3564L91.5532 18.558L80.1594 20.3338L79.2379 20.5066" stroke="white" stroke-width="0.5" stroke-miterlimit="10"/>
<path d="M157.468 77.8306L148.772 75.095L139.038 72.0329L129.065 68.9229L118.871 65.7169L108.332 62.4821L96.5925 60.2456L83.9413 60.7831L72.4995 63.5284L61.8353 66.7056L51.4493 69.8444L41.3034 72.9256L31.3782 75.9301L22.7777 78.5409" stroke="white" stroke-width="0.5" stroke-miterlimit="10"/>
<path d="M22.7777 72.4745L25.139 71.7162L34.8914 68.6734L44.8837 65.5825L55.0873 62.4245L65.5404 59.1897L76.4254 56.0509L88.5871 54.0928L101.008 55.1486L111.989 58.1243L122.279 61.4071L132.339 64.6323L142.158 67.7711L151.757 70.8523L157.468 72.6857" stroke="white" stroke-width="0.5" stroke-miterlimit="10"/>
<path d="M79.2379 20.5066L80.1594 20.3338L91.5532 18.558L97.4661 18.3564" stroke="white" stroke-width="0.5" stroke-miterlimit="10"/>
<path d="M102.333 21.3128L99.4626 20.8521H87.4449L75.9647 22.4934" stroke="white" stroke-width="0.5" stroke-miterlimit="10"/>
<path d="M46.218 40.5777L51.2285 39.0131L61.7872 35.7976L72.797 32.8026L84.9012 31.2285L97.034 32.5915L107.871 35.7207L118.075 39.1571L128 42.5647L137.695 45.9146L147.178 49.1686L149.549 49.9941L151.69 51.2995" stroke="white" stroke-width="0.5" stroke-miterlimit="10"/>
<path d="M156.595 57.3757L151.488 55.6478L142.053 52.4515L132.406 49.1879L122.528 45.8379L112.431 42.4303L102.045 39.0515L90.459 36.623L77.9805 37.1126L66.6442 39.8771L56.0856 43.1886L45.7861 46.4809L35.7839 49.7349L26.6843 52.749" stroke="white" stroke-width="0.5" stroke-miterlimit="10"/>
<path d="M26.7227 52.749L35.8224 49.7349L45.8245 46.4809L56.124 43.1886L66.6827 39.8771L78.0187 37.1126L90.4972 36.623L102.083 39.0515L112.469 42.4303L122.567 45.8379L132.444 49.1879L142.091 52.4515L151.526 55.6478L156.633 57.3757" stroke="white" stroke-width="0.5" stroke-miterlimit="10"/>
<path d="M157.468 62.1654V62.6165L149.924 60.1112L140.392 56.9339L130.649 53.6992L120.676 50.378L110.472 46.9992L99.7505 43.7836L87.656 42.123L75.3983 43.5629L64.4365 46.6729L54.0123 49.994L43.8183 53.2576L33.893 56.4636L24.208 59.6313L22.9216 60.1112" stroke="white" stroke-width="0.5" stroke-miterlimit="10"/>
<path d="M75.9647 22.4934L87.4449 20.8521H99.4626L102.333 21.3128" stroke="white" stroke-width="0.5" stroke-miterlimit="10"/>
<path d="M112.575 27.5426L111.691 27.2546L100.672 24.5669L88.6735 23.3479L76.5982 24.4134L70.8102 25.6324" stroke="white" stroke-width="0.5" stroke-miterlimit="10"/>
<path d="M22.7777 66.3218L25.6957 65.3427L35.4289 62.2423L45.4117 59.0747L55.6248 55.8303L66.0875 52.5379L77.0974 49.4471L89.403 48.0168L101.526 49.6678L112.267 52.8354L122.5 56.1662L132.492 59.4298L142.244 62.6262L151.795 65.7362L157.468 67.5984" stroke="white" stroke-width="0.5" stroke-miterlimit="10"/>
<path d="M157.468 72.6857L151.757 70.8523L142.158 67.7711L132.339 64.6323L122.279 61.4071L111.989 58.1243L101.008 55.1486L88.5871 54.0928L76.4254 56.0509L65.5404 59.1897L55.0873 62.4245L44.8837 65.5825L34.8914 68.6734L25.139 71.7162L22.7777 72.4745" stroke="white" stroke-width="0.5" stroke-miterlimit="10"/>
<path d="M22.9505 60.1306L24.2368 59.6507L33.9218 56.483L43.8183 53.2578L53.9835 49.975L64.4077 46.6538L75.3697 43.5438L87.6271 42.104L99.7217 43.7646L110.444 46.9802L120.647 50.359L130.62 53.6801L140.363 56.915L149.895 60.0922L157.44 62.5974" stroke="white" stroke-width="0.5" stroke-miterlimit="10"/>
<path d="M157.468 67.5984L151.795 65.7362L142.244 62.6262L132.492 59.4298L122.5 56.1662L112.267 52.8354L101.526 49.6678L89.403 48.0168L77.0974 49.4471L66.0875 52.5379L55.6248 55.8303L45.4117 59.0747L35.4289 62.2423L25.6957 65.3427L22.7777 66.3218" stroke="white" stroke-width="0.5" stroke-miterlimit="10"/>
<path d="M70.8102 25.6324L76.5982 24.4134L88.6735 23.3479L100.672 24.5669L111.691 27.2546L112.575 27.5426" stroke="white" stroke-width="0.5" stroke-miterlimit="10"/>
<path d="M130.832 38.6388L126.656 37.1797L116.731 33.7434L106.441 30.4126L95.2775 27.6673L83.0391 26.8994L71.1365 28.7136L61.7777 31.1229" stroke="white" stroke-width="0.5" stroke-miterlimit="10"/>
<path d="M61.7777 31.1229L71.1365 28.7136L83.0391 26.8994L95.2775 27.6673L106.441 30.4126L116.731 33.7434L126.656 37.1797L130.832 38.6388" stroke="white" stroke-width="0.5" stroke-miterlimit="10"/>
<path d="M149.511 49.9941L147.13 49.1782L137.647 45.9242L127.961 42.5742L118.036 39.1667L107.833 35.7303L96.9957 32.6011L84.8532 31.238L72.7587 32.8026L61.7393 35.8071L51.2286 39.0227L46.2084 40.5777" stroke="white" stroke-width="0.5" stroke-miterlimit="10"/>
<path fill-rule="evenodd" clip-rule="evenodd" d="M90.1228 15.1409C88.5102 15.1409 86.6962 15.976 84.7188 17.1758L28.604 51.2899C26.7878 52.4542 25.2999 54.064 24.2817 55.9659C23.2635 57.8679 22.7491 59.9988 22.7873 62.1558V129.799C22.75 131.955 23.2648 134.086 24.2829 135.988C25.301 137.89 26.7884 139.5 28.604 140.665L84.7092 174.779C86.2522 175.985 88.1545 176.641 90.1132 176.641C92.0719 176.641 93.9744 175.985 95.5175 174.779L151.651 140.674C153.362 139.759 154.825 138.441 155.913 136.835C156.873 135.299 157.468 133.168 157.468 129.847V62.2037C157.506 60.0467 156.992 57.9159 155.974 56.014C154.955 54.112 153.467 52.5023 151.651 51.3379L95.5364 17.2237C93.5303 15.9855 91.745 15.1409 90.1228 15.1409Z" stroke="white" stroke-width="0.5" stroke-miterlimit="10"/>
<path d="M141.838 113.2L94.5286 148.675C93.3087 149.591 91.822 150.08 90.2969 150.07C88.7717 150.059 87.2922 149.548 86.0853 148.615L52.0051 122.257C51.3629 121.76 50.8438 121.122 50.4882 120.392C50.1325 119.662 49.9499 118.86 49.9544 118.047C49.9589 117.235 50.1505 116.435 50.5143 115.709C50.878 114.983 51.4041 114.351 52.0518 113.861L103.8 74.6477L141.845 103.242C142.618 103.821 143.245 104.573 143.677 105.438C144.109 106.303 144.334 107.256 144.333 108.223C144.332 109.189 144.107 110.142 143.673 111.006C143.24 111.87 142.612 112.621 141.838 113.2V113.2Z" fill="url(#paint2_linear_1274_61)"/>
<path d="M141.804 113.187L111.562 135.673C110.152 136.724 108.441 137.292 106.683 137.292C104.925 137.292 103.214 136.724 101.804 135.673L62.3106 106.098L103.926 74.6477L141.838 103.221C142.61 103.804 143.235 104.559 143.665 105.425C144.094 106.291 144.316 107.245 144.313 108.212C144.31 109.179 144.081 110.132 143.646 110.996C143.211 111.859 142.58 112.609 141.804 113.187V113.187Z" fill="url(#paint3_linear_1274_61)"/>
<g filter="url(#filter0_d_1274_61)">
<path d="M127.821 77.9317L80.8535 113.617C78.361 115.511 74.9141 115.519 72.4121 113.638L37.8817 87.6765C37.2709 87.2168 36.7753 86.6216 36.434 85.9376C36.0927 85.2536 35.915 84.4997 35.915 83.7353C35.915 82.9709 36.0927 82.2168 36.434 81.5328C36.7753 80.8488 37.2709 80.2536 37.8817 79.7939L87.1733 42.6034C88.0368 41.9507 89.0879 41.5942 90.1702 41.587C91.2526 41.5798 92.3083 41.9222 93.1804 42.5633L127.755 67.96C128.535 68.5338 129.17 69.2818 129.61 70.1445C130.05 71.0072 130.282 71.9607 130.289 72.9291C130.295 73.8974 130.076 74.8539 129.647 75.7224C129.219 76.5909 128.594 77.3475 127.821 77.9317Z" fill="url(#paint4_linear_1274_61)"/>
</g>
<path d="M118.19 85.1539L80.986 113.507C79.7329 114.458 78.2034 114.972 76.6308 114.972C75.0583 114.972 73.5288 114.458 72.2757 113.507L37.8817 87.6502C37.2721 87.1898 36.7776 86.5941 36.4371 85.9102C36.0966 85.2263 35.9194 84.4728 35.9194 83.7089C35.9194 82.9449 36.0966 82.1913 36.4371 81.5074C36.7776 80.8235 37.2721 80.228 37.8817 79.7675L73.9243 52.5955L118.19 85.1539Z" fill="url(#paint5_linear_1274_61)"/>
<defs>
<filter id="filter0_d_1274_61" x="31.915" y="38.5869" width="102.374" height="81.4563" filterUnits="userSpaceOnUse" color-interpolation-filters="sRGB">
<feFlood flood-opacity="0" result="BackgroundImageFix"/>
<feColorMatrix in="SourceAlpha" type="matrix" values="0 0 0 0 0 0 0 0 0 0 0 0 0 0 0 0 0 0 127 0" result="hardAlpha"/>
<feOffset dy="1"/>
<feGaussianBlur stdDeviation="2"/>
<feComposite in2="hardAlpha" operator="out"/>
<feColorMatrix type="matrix" values="0 0 0 0 0 0 0 0 0 0 0 0 0 0 0 0 0 0 0.25 0"/>
<feBlend mode="normal" in2="BackgroundImageFix" result="effect1_dropShadow_1274_61"/>
<feBlend mode="normal" in="SourceGraphic" in2="effect1_dropShadow_1274_61" result="shape"/>
</filter>
<linearGradient id="paint0_linear_1274_61" x1="41" y1="26.0869" x2="149" y2="178.587" gradientUnits="userSpaceOnUse">
<stop offset="0.192708" stop-color="white"/>
<stop offset="1" stop-color="#D0C1F7"/>
</linearGradient>
<linearGradient id="paint1_linear_1274_61" x1="15" y1="-3.91309" x2="146" y2="207.587" gradientUnits="userSpaceOnUse">
<stop stop-color="#9A89E6"/>
<stop offset="0.421875" stop-color="#6F61D3"/>
<stop offset="0.786458" stop-color="#403CAE"/>
</linearGradient>
<linearGradient id="paint2_linear_1274_61" x1="90.4638" y1="102.848" x2="106.483" y2="127.21" gradientUnits="userSpaceOnUse">
<stop stop-color="#7E70D3"/>
<stop offset="1" stop-color="#685AD3"/>
</linearGradient>
<linearGradient id="paint3_linear_1274_61" x1="102.939" y1="100.398" x2="104.394" y2="126.109" gradientUnits="userSpaceOnUse">
<stop stop-color="#433FA9"/>
<stop offset="1" stop-color="#3D3697"/>
</linearGradient>
<linearGradient id="paint4_linear_1274_61" x1="72.476" y1="59.2963" x2="87.4937" y2="85.9946" gradientUnits="userSpaceOnUse">
<stop stop-color="#D4C6FA"/>
<stop offset="0.97" stop-color="#C7B7F6"/>
</linearGradient>
<linearGradient id="paint5_linear_1274_61" x1="77.0547" y1="60.1577" x2="77.0547" y2="105.872" gradientUnits="userSpaceOnUse">
<stop stop-color="#B2A1EC"/>
<stop offset="1" stop-color="#9889E3"/>
</linearGradient>
</defs>
</svg>
