<svg width="180" height="190" viewBox="0 0 180 190" fill="none" xmlns="http://www.w3.org/2000/svg">
<path d="M90.1856 189.742C93.2456 189.742 96.2556 188.892 98.9156 187.272L160.886 149.612C166.426 146.242 169.856 139.912 169.856 133.072V58.362C169.856 51.542 166.426 45.202 160.886 41.822L98.9156 4.16201C93.5856 0.922008 86.7656 0.942008 81.4656 4.16201L19.4956 41.842C13.9556 45.212 10.5056 51.542 10.5056 58.382V133.082C10.5056 138.842 12.9556 144.262 17.0556 147.832V147.862L81.4656 187.292C84.1056 188.892 87.1256 189.742 90.1856 189.742ZM90.8356 8.69201C92.7856 8.69201 95.2656 9.90201 96.9756 10.952L157.736 48.142C161.486 50.422 163.606 57.022 163.606 61.772L162.976 133.072C162.976 137.822 159.776 142.092 156.026 144.372L95.6256 180.752C92.1956 182.842 89.4056 182.842 85.9656 180.752L24.7556 144.282C21.0056 142.002 17.9856 137.802 17.9856 133.072V59.432C17.9856 54.692 20.7156 49.802 24.4856 47.512L85.0656 10.952C86.7656 9.91201 88.8856 8.69201 90.8356 8.69201Z" fill="#F2F1F0"/>
<path fill-rule="evenodd" clip-rule="evenodd" d="M98.0856 12.2717C95.6356 10.7717 92.9156 10.0217 90.1856 10.0217C87.4556 10.0217 84.7356 10.7817 82.2856 12.2717L26.1556 46.6017C21.1356 49.6717 18.0256 55.4217 18.0256 61.6717V129.772C18.0256 136.002 21.1256 141.772 26.1556 144.842L82.2856 179.172C84.7356 180.672 87.4556 181.422 90.1856 181.422C92.9156 181.422 95.6356 180.682 98.0856 179.172L154.216 144.842C159.236 141.772 162.346 136.002 162.346 129.772V61.6717C162.346 55.4417 159.246 49.6917 154.216 46.6017L98.0856 12.2717Z" fill="url(#paint0_linear_1660_22792)"/>
<path fill-rule="evenodd" clip-rule="evenodd" d="M90.1856 11.4919C91.8656 11.4919 93.7556 12.3619 95.8156 13.6119L154.286 49.1519C157.936 51.3719 160.346 55.6419 160.346 60.4719V130.952C160.346 135.772 157.936 140.052 154.286 142.272L95.8256 177.812C93.8656 179.002 91.9456 179.752 90.1956 179.752C88.4456 179.752 86.5256 179.002 84.5656 177.812L26.0856 142.282C24.0756 141.052 22.6256 139.852 21.6456 138.242C20.6656 136.642 20.0256 134.422 20.0256 130.962V60.4819C20.0256 55.6519 22.4356 51.3819 26.0856 49.1619L84.5456 13.6219C86.6356 12.3719 88.4956 11.4919 90.1856 11.4919ZM97.8956 181.242L156.356 145.702C161.276 142.712 164.336 137.092 164.336 130.962V60.4819C164.336 54.3519 161.276 48.7319 156.356 45.7419L97.8956 10.2019C95.7856 8.92194 93.0756 7.49194 90.1856 7.49194C87.2856 7.49194 84.5756 8.93194 82.4856 10.1919H82.4756L24.0056 45.7419C19.0856 48.7319 16.0256 54.3519 16.0256 60.4819V130.962C16.0256 134.922 16.7656 137.912 18.2256 140.322C19.6856 142.722 21.7456 144.322 24.0056 145.692L82.4656 181.232C84.6856 182.582 87.3556 183.762 90.1756 183.762C92.9956 183.762 95.6756 182.592 97.8956 181.242Z" fill="url(#paint1_linear_1660_22792)"/>
<path d="M143.976 94.4989H131.011" stroke="white" stroke-width="0.8169" stroke-miterlimit="10" stroke-linejoin="round"/>
<path d="M143.976 79.7976H131.011" stroke="white" stroke-width="0.8169" stroke-miterlimit="10" stroke-linejoin="round"/>
<path d="M143.976 65.0814H131.011V109.177H143.964" stroke="white" stroke-width="0.8169" stroke-miterlimit="10" stroke-linejoin="round"/>
<g filter="url(#filter0_ddddd_1660_22792)">
<path d="M148.542 53.0691H31.7123C29.8856 53.0691 28.4014 54.5533 28.4014 56.3801V136.104C28.4014 137.931 29.8856 139.415 31.7123 139.415H148.558C150.385 139.415 151.869 137.931 151.869 136.104V56.3801C151.853 54.5533 150.369 53.0691 148.542 53.0691Z" fill="url(#paint2_linear_1660_22792)"/>
</g>
<g filter="url(#filter1_d_1660_22792)">
<path d="M91.3427 57.913H36.877C35.7724 57.913 34.877 58.8084 34.877 59.913V131.755C34.877 132.86 35.7724 133.755 36.877 133.755H91.3427V57.913Z" fill="#CDCDD0"/>
</g>
<g filter="url(#filter2_ddd_1660_22792)">
<path d="M43.1336 49.0766C42.0617 49.0836 41.2118 49.949 41.1953 51.0207L40.1618 118.352C40.1384 119.873 41.819 121 43.291 120.617C47.4499 119.537 55.6395 118.537 67.582 122.13C83.1906 127.067 90.6266 133.751 90.6266 133.751V60.6277C90.6266 60.6277 79.5983 54.3056 66.8566 51.2797C60.0284 49.1845 47.8241 49.046 43.1336 49.0766Z" fill="#E4E2E2"/>
</g>
<g filter="url(#filter3_ddd_1660_22792)">
<path d="M53.8721 41.3784C52.6499 41.1454 51.5337 42.0861 51.5337 43.3303V109.686C51.5337 110.728 52.3253 111.598 53.3611 111.712C57.8336 112.205 69.3988 113.781 75.3605 117.399C85.9685 122.595 90.7689 133.769 90.7689 133.769V58.5302C90.7689 58.5302 83.7229 49.5596 72.8766 46.2487C69.192 44.4294 58.6073 42.2812 53.8721 41.3784Z" fill="#F6F6F6"/>
</g>
<g filter="url(#filter4_ddddd_1660_22792)">
<path d="M147.007 59.9132C147.007 58.8086 146.112 57.9132 145.007 57.9132H90.5413V133.755H145.007C146.112 133.755 147.007 132.86 147.007 131.755V59.9132Z" fill="white"/>
</g>
<path d="M115.937 97.3742C115.724 97.321 108.473 111.839 105.222 118.373C105.079 118.66 104.859 118.901 104.586 119.07C104.314 119.238 103.999 119.326 103.679 119.325C103.359 119.323 103.045 119.232 102.774 119.062C102.503 118.891 102.285 118.648 102.145 118.36L95.6488 105.55C95.366 104.993 95.2317 104.372 95.2588 103.748C95.2859 103.123 95.4734 102.517 95.8034 101.986C96.1334 101.455 96.5946 101.018 97.1425 100.718C97.6905 100.417 98.3066 100.263 98.9316 100.27L102.308 100.307L109.599 97.7857L115.937 97.3742Z" fill="url(#paint3_linear_1660_22792)"/>
<path d="M111.147 71.258L106.105 81.4033C105.963 81.6907 105.897 82.0094 105.912 82.3296C105.927 82.6498 106.024 82.9609 106.192 83.2335C106.361 83.5061 106.596 83.7313 106.876 83.8879C107.156 84.0445 107.47 84.1274 107.791 84.1287L127.99 84.1873C127.99 84.1873 130.171 84.4598 131.533 85.4478C132.896 86.4357 133.678 87.9006 133.678 87.9006L133.814 86.3335H134.223C136.329 86.3335 138.347 85.4972 139.836 84.0086C141.325 82.52 142.161 80.501 142.161 78.3958C142.161 76.2364 141.303 74.1654 139.776 72.6384C138.249 71.1115 136.178 70.2537 134.019 70.2537H112.762C112.426 70.2538 112.097 70.3479 111.811 70.5254C111.526 70.7029 111.296 70.9566 111.147 71.258Z" fill="url(#paint4_linear_1660_22792)"/>
<path d="M136.046 86.1251C135.928 86.1538 135.809 86.1784 135.691 86.2002H135.934L136.046 86.1251Z" fill="url(#paint5_linear_1660_22792)"/>
<path d="M136.045 86.1252L135.69 86.2002C135.209 86.2905 134.721 86.3361 134.231 86.3364L106.035 86.2002C105.335 86.2002 104.649 86.3948 104.053 86.7623C103.457 87.1297 102.975 87.6555 102.66 88.281L95.6326 102.212L95.6571 102.202C95.9268 101.621 96.3583 101.131 96.9001 100.789C97.4418 100.448 98.0705 100.27 98.7109 100.277L100.567 100.29L127.127 100.236C128.58 100.236 130.005 99.8362 131.245 99.0797C132.485 98.3231 133.493 97.2394 134.157 95.9475L139.174 86.2002L140.741 82.9637L140.711 82.9828C139.591 84.5648 137.932 85.6826 136.045 86.1252Z" fill="url(#paint6_linear_1660_22792)"/>
<defs>
<filter id="filter0_ddddd_1660_22792" x="16.4014" y="51.0691" width="147.468" height="130.346" filterUnits="userSpaceOnUse" color-interpolation-filters="sRGB">
<feFlood flood-opacity="0" result="BackgroundImageFix"/>
<feColorMatrix in="SourceAlpha" type="matrix" values="0 0 0 0 0 0 0 0 0 0 0 0 0 0 0 0 0 0 127 0" result="hardAlpha"/>
<feOffset/>
<feColorMatrix type="matrix" values="0 0 0 0 0 0 0 0 0 0 0 0 0 0 0 0 0 0 0.1 0"/>
<feBlend mode="normal" in2="BackgroundImageFix" result="effect1_dropShadow_1660_22792"/>
<feColorMatrix in="SourceAlpha" type="matrix" values="0 0 0 0 0 0 0 0 0 0 0 0 0 0 0 0 0 0 127 0" result="hardAlpha"/>
<feOffset dy="2"/>
<feGaussianBlur stdDeviation="2"/>
<feColorMatrix type="matrix" values="0 0 0 0 0 0 0 0 0 0 0 0 0 0 0 0 0 0 0.1 0"/>
<feBlend mode="normal" in2="effect1_dropShadow_1660_22792" result="effect2_dropShadow_1660_22792"/>
<feColorMatrix in="SourceAlpha" type="matrix" values="0 0 0 0 0 0 0 0 0 0 0 0 0 0 0 0 0 0 127 0" result="hardAlpha"/>
<feOffset dy="7"/>
<feGaussianBlur stdDeviation="3.5"/>
<feColorMatrix type="matrix" values="0 0 0 0 0 0 0 0 0 0 0 0 0 0 0 0 0 0 0.09 0"/>
<feBlend mode="normal" in2="effect2_dropShadow_1660_22792" result="effect3_dropShadow_1660_22792"/>
<feColorMatrix in="SourceAlpha" type="matrix" values="0 0 0 0 0 0 0 0 0 0 0 0 0 0 0 0 0 0 127 0" result="hardAlpha"/>
<feOffset dy="17"/>
<feGaussianBlur stdDeviation="5"/>
<feColorMatrix type="matrix" values="0 0 0 0 0 0 0 0 0 0 0 0 0 0 0 0 0 0 0.05 0"/>
<feBlend mode="normal" in2="effect3_dropShadow_1660_22792" result="effect4_dropShadow_1660_22792"/>
<feColorMatrix in="SourceAlpha" type="matrix" values="0 0 0 0 0 0 0 0 0 0 0 0 0 0 0 0 0 0 127 0" result="hardAlpha"/>
<feOffset dy="30"/>
<feGaussianBlur stdDeviation="6"/>
<feColorMatrix type="matrix" values="0 0 0 0 0 0 0 0 0 0 0 0 0 0 0 0 0 0 0.01 0"/>
<feBlend mode="normal" in2="effect4_dropShadow_1660_22792" result="effect5_dropShadow_1660_22792"/>
<feBlend mode="normal" in="SourceGraphic" in2="effect5_dropShadow_1660_22792" result="shape"/>
</filter>
<filter id="filter1_d_1660_22792" x="30.7925" y="55.8707" width="64.6348" height="84.0112" filterUnits="userSpaceOnUse" color-interpolation-filters="sRGB">
<feFlood flood-opacity="0" result="BackgroundImageFix"/>
<feColorMatrix in="SourceAlpha" type="matrix" values="0 0 0 0 0 0 0 0 0 0 0 0 0 0 0 0 0 0 127 0" result="hardAlpha"/>
<feOffset dy="2.04225"/>
<feGaussianBlur stdDeviation="2.04225"/>
<feComposite in2="hardAlpha" operator="out"/>
<feColorMatrix type="matrix" values="0 0 0 0 0 0 0 0 0 0 0 0 0 0 0 0 0 0 0.25 0"/>
<feBlend mode="normal" in2="BackgroundImageFix" result="effect1_dropShadow_1660_22792"/>
<feBlend mode="normal" in="SourceGraphic" in2="effect1_dropShadow_1660_22792" result="shape"/>
</filter>
<filter id="filter2_ddd_1660_22792" x="37.1616" y="48.0732" width="56.4648" height="91.6779" filterUnits="userSpaceOnUse" color-interpolation-filters="sRGB">
<feFlood flood-opacity="0" result="BackgroundImageFix"/>
<feColorMatrix in="SourceAlpha" type="matrix" values="0 0 0 0 0 0 0 0 0 0 0 0 0 0 0 0 0 0 127 0" result="hardAlpha"/>
<feOffset/>
<feColorMatrix type="matrix" values="0 0 0 0 0 0 0 0 0 0 0 0 0 0 0 0 0 0 0.1 0"/>
<feBlend mode="normal" in2="BackgroundImageFix" result="effect1_dropShadow_1660_22792"/>
<feColorMatrix in="SourceAlpha" type="matrix" values="0 0 0 0 0 0 0 0 0 0 0 0 0 0 0 0 0 0 127 0" result="hardAlpha"/>
<feOffset dy="1"/>
<feGaussianBlur stdDeviation="1"/>
<feColorMatrix type="matrix" values="0 0 0 0 0 0 0 0 0 0 0 0 0 0 0 0 0 0 0.1 0"/>
<feBlend mode="normal" in2="effect1_dropShadow_1660_22792" result="effect2_dropShadow_1660_22792"/>
<feColorMatrix in="SourceAlpha" type="matrix" values="0 0 0 0 0 0 0 0 0 0 0 0 0 0 0 0 0 0 127 0" result="hardAlpha"/>
<feOffset dy="3"/>
<feGaussianBlur stdDeviation="1.5"/>
<feColorMatrix type="matrix" values="0 0 0 0 0 0 0 0 0 0 0 0 0 0 0 0 0 0 0.09 0"/>
<feBlend mode="normal" in2="effect2_dropShadow_1660_22792" result="effect3_dropShadow_1660_22792"/>
<feBlend mode="normal" in="SourceGraphic" in2="effect3_dropShadow_1660_22792" result="shape"/>
</filter>
<filter id="filter3_ddd_1660_22792" x="48.5337" y="40.3428" width="45.2351" height="99.4261" filterUnits="userSpaceOnUse" color-interpolation-filters="sRGB">
<feFlood flood-opacity="0" result="BackgroundImageFix"/>
<feColorMatrix in="SourceAlpha" type="matrix" values="0 0 0 0 0 0 0 0 0 0 0 0 0 0 0 0 0 0 127 0" result="hardAlpha"/>
<feOffset/>
<feColorMatrix type="matrix" values="0 0 0 0 0 0 0 0 0 0 0 0 0 0 0 0 0 0 0.1 0"/>
<feBlend mode="normal" in2="BackgroundImageFix" result="effect1_dropShadow_1660_22792"/>
<feColorMatrix in="SourceAlpha" type="matrix" values="0 0 0 0 0 0 0 0 0 0 0 0 0 0 0 0 0 0 127 0" result="hardAlpha"/>
<feOffset dy="1"/>
<feGaussianBlur stdDeviation="1"/>
<feColorMatrix type="matrix" values="0 0 0 0 0 0 0 0 0 0 0 0 0 0 0 0 0 0 0.1 0"/>
<feBlend mode="normal" in2="effect1_dropShadow_1660_22792" result="effect2_dropShadow_1660_22792"/>
<feColorMatrix in="SourceAlpha" type="matrix" values="0 0 0 0 0 0 0 0 0 0 0 0 0 0 0 0 0 0 127 0" result="hardAlpha"/>
<feOffset dy="3"/>
<feGaussianBlur stdDeviation="1.5"/>
<feColorMatrix type="matrix" values="0 0 0 0 0 0 0 0 0 0 0 0 0 0 0 0 0 0 0.09 0"/>
<feBlend mode="normal" in2="effect2_dropShadow_1660_22792" result="effect3_dropShadow_1660_22792"/>
<feBlend mode="normal" in="SourceGraphic" in2="effect3_dropShadow_1660_22792" result="shape"/>
</filter>
<filter id="filter4_ddddd_1660_22792" x="83.5413" y="56.9132" width="70.4658" height="101.842" filterUnits="userSpaceOnUse" color-interpolation-filters="sRGB">
<feFlood flood-opacity="0" result="BackgroundImageFix"/>
<feColorMatrix in="SourceAlpha" type="matrix" values="0 0 0 0 0 0 0 0 0 0 0 0 0 0 0 0 0 0 127 0" result="hardAlpha"/>
<feOffset/>
<feColorMatrix type="matrix" values="0 0 0 0 0 0 0 0 0 0 0 0 0 0 0 0 0 0 0.1 0"/>
<feBlend mode="normal" in2="BackgroundImageFix" result="effect1_dropShadow_1660_22792"/>
<feColorMatrix in="SourceAlpha" type="matrix" values="0 0 0 0 0 0 0 0 0 0 0 0 0 0 0 0 0 0 127 0" result="hardAlpha"/>
<feOffset dy="1"/>
<feGaussianBlur stdDeviation="1"/>
<feColorMatrix type="matrix" values="0 0 0 0 0 0 0 0 0 0 0 0 0 0 0 0 0 0 0.1 0"/>
<feBlend mode="normal" in2="effect1_dropShadow_1660_22792" result="effect2_dropShadow_1660_22792"/>
<feColorMatrix in="SourceAlpha" type="matrix" values="0 0 0 0 0 0 0 0 0 0 0 0 0 0 0 0 0 0 127 0" result="hardAlpha"/>
<feOffset dy="4"/>
<feGaussianBlur stdDeviation="2"/>
<feColorMatrix type="matrix" values="0 0 0 0 0 0 0 0 0 0 0 0 0 0 0 0 0 0 0.09 0"/>
<feBlend mode="normal" in2="effect2_dropShadow_1660_22792" result="effect3_dropShadow_1660_22792"/>
<feColorMatrix in="SourceAlpha" type="matrix" values="0 0 0 0 0 0 0 0 0 0 0 0 0 0 0 0 0 0 127 0" result="hardAlpha"/>
<feOffset dy="10"/>
<feGaussianBlur stdDeviation="3"/>
<feColorMatrix type="matrix" values="0 0 0 0 0 0 0 0 0 0 0 0 0 0 0 0 0 0 0.05 0"/>
<feBlend mode="normal" in2="effect3_dropShadow_1660_22792" result="effect4_dropShadow_1660_22792"/>
<feColorMatrix in="SourceAlpha" type="matrix" values="0 0 0 0 0 0 0 0 0 0 0 0 0 0 0 0 0 0 127 0" result="hardAlpha"/>
<feOffset dy="18"/>
<feGaussianBlur stdDeviation="3.5"/>
<feColorMatrix type="matrix" values="0 0 0 0 0 0 0 0 0 0 0 0 0 0 0 0 0 0 0.01 0"/>
<feBlend mode="normal" in2="effect4_dropShadow_1660_22792" result="effect5_dropShadow_1660_22792"/>
<feBlend mode="normal" in="SourceGraphic" in2="effect5_dropShadow_1660_22792" result="shape"/>
</filter>
<linearGradient id="paint0_linear_1660_22792" x1="50.1526" y1="18.9857" x2="144.366" y2="177.035" gradientUnits="userSpaceOnUse">
<stop offset="0.0001" stop-color="#50E6FF"/>
<stop offset="0.96471" stop-color="#0078D4"/>
</linearGradient>
<linearGradient id="paint1_linear_1660_22792" x1="36.3053" y1="4.81305" x2="202.983" y2="287.144" gradientUnits="userSpaceOnUse">
<stop stop-color="#007ED8"/>
<stop offset="0.7065" stop-color="#002D4C"/>
</linearGradient>
<linearGradient id="paint2_linear_1660_22792" x1="39.8115" y1="44.2678" x2="180.2" y2="111.886" gradientUnits="userSpaceOnUse">
<stop offset="0.16" stop-color="#1B9D90"/>
<stop offset="0.37" stop-color="#088488"/>
<stop offset="0.65" stop-color="#055976"/>
<stop offset="1" stop-color="#054D7C"/>
</linearGradient>
<linearGradient id="paint3_linear_1660_22792" x1="105.325" y1="99.9306" x2="109.772" y2="115.722" gradientUnits="userSpaceOnUse">
<stop stop-color="#14834E"/>
<stop offset="0.38" stop-color="#209D69"/>
<stop offset="0.71" stop-color="#2DAC85"/>
<stop offset="1" stop-color="#3AB89F"/>
</linearGradient>
<linearGradient id="paint4_linear_1660_22792" x1="109.26" y1="68.4549" x2="143.6" y2="92.2163" gradientUnits="userSpaceOnUse">
<stop offset="0.16" stop-color="#1B9D90"/>
<stop offset="0.37" stop-color="#088488"/>
<stop offset="0.65" stop-color="#055976"/>
<stop offset="1" stop-color="#054D7C"/>
</linearGradient>
<linearGradient id="paint5_linear_1660_22792" x1="135.691" y1="86.1634" x2="136.046" y2="86.1634" gradientUnits="userSpaceOnUse">
<stop stop-color="#94DF8C"/>
<stop offset="0.35" stop-color="#2FB07B"/>
<stop offset="0.71" stop-color="#009180"/>
<stop offset="1" stop-color="#007D83"/>
</linearGradient>
<linearGradient id="paint6_linear_1660_22792" x1="95.6326" y1="92.5885" x2="140.738" y2="92.5885" gradientUnits="userSpaceOnUse">
<stop stop-color="#94DF8C"/>
<stop offset="0.43" stop-color="#2FB07B"/>
<stop offset="0.78" stop-color="#009180"/>
<stop offset="1" stop-color="#007D83"/>
</linearGradient>
</defs>
</svg>
