<svg width="102" height="103" viewBox="0 0 102 103" fill="none" xmlns="http://www.w3.org/2000/svg">
<g clip-path="url(#clip0_2141_1894)">
<path d="M50.9999 98.2308C25.4033 98.2308 4.6488 77.4862 4.6488 51.8798C4.6488 26.2733 25.4033 5.52869 50.9999 5.52869C76.5964 5.52869 97.351 26.2832 97.351 51.8798C97.351 77.4763 76.5964 98.2308 50.9999 98.2308Z" fill="url(#paint0_linear_2141_1894)"/>
<path fill-rule="evenodd" clip-rule="evenodd" d="M96.4501 51.8803C96.4501 76.9817 76.1016 97.3303 51.0001 97.3303C25.8987 97.3303 5.55013 76.9817 5.55013 51.8803C5.55013 26.7788 25.8987 6.43027 51.0001 6.43027C76.1016 6.43027 96.4501 26.7788 96.4501 51.8803ZM51.0001 2.72693C78.1513 2.72693 100.153 24.7291 100.153 51.8803C100.153 79.0314 78.1414 101.034 51.0001 101.034C23.849 101.034 1.8468 79.0215 1.8468 51.8803C1.8468 24.7291 23.849 2.72693 51.0001 2.72693Z" fill="#F2F1F0"/>
<path fill-rule="evenodd" clip-rule="evenodd" d="M93.6675 51.8798C93.6675 75.4465 74.5666 94.5473 50.9999 94.5473C27.4332 94.5473 8.33236 75.4465 8.33236 51.8798C8.33236 28.3131 27.4332 9.21225 50.9999 9.21225C74.5666 9.21225 93.6675 28.3131 93.6675 51.8798ZM50.9999 5.50891C76.6064 5.50891 97.3708 26.2733 97.3708 51.8798C97.3708 77.4863 76.6064 98.2507 50.9999 98.2507C25.3934 98.2507 4.62903 77.4863 4.62903 51.8798C4.62903 26.2733 25.3835 5.50891 50.9999 5.50891Z" fill="url(#paint1_radial_2141_1894)"/>
<g filter="url(#filter0_ddddd_2141_1894)">
<path d="M74.0158 21.4077L27.6658 21.0329C26.6768 21.0225 26.131 21.8136 26.131 22.8026V82.2943C26.1206 83.2832 26.9117 84.0848 27.9006 84.0848H73.4953C74.4843 84.0952 75.7751 83.6788 75.7751 82.6899V23.1877C75.7751 22.2196 74.9943 21.4181 74.0158 21.4077Z" fill="#F2F2F2"/>
</g>
<g filter="url(#filter1_ddddd_2141_1894)">
<path d="M69.841 22.8129H32.0653C31.513 22.8129 31.0653 23.2606 31.0653 23.8129V77.2031C31.0653 77.7554 31.513 78.2031 32.0653 78.2031H69.841C70.3932 78.2031 70.841 77.7554 70.841 77.2031V23.8129C70.841 23.2606 70.3932 22.8129 69.841 22.8129Z" fill="white"/>
</g>
<path fill-rule="evenodd" clip-rule="evenodd" d="M53.3316 14.4953C54.6224 15.1927 55.3719 16.5772 55.3615 18.0346V18.3885C55.3615 18.5239 55.3511 18.6384 55.3407 18.7737L58.1409 18.7945C58.9737 18.8049 59.7544 19.2213 60.1708 19.95C61.3367 22.0215 59.8585 24.1243 57.9119 24.1035L43.7755 23.9994C42.9427 23.989 42.1619 23.5726 41.7456 22.8439C40.5797 20.7724 42.0579 18.6696 44.0045 18.6904L46.6069 18.7112C46.5965 18.5863 46.5965 18.4614 46.5965 18.3261V18.2116C46.6381 15.047 50.0005 12.7048 53.3316 14.4953Z" fill="#243A5E"/>
<path d="M50.9377 20.2936C51.937 20.304 52.749 19.5024 52.7594 18.5031C52.7698 17.5037 51.9683 16.6918 50.9689 16.6814C49.9696 16.671 49.1576 17.4725 49.1472 18.4719C49.1472 19.4712 49.9384 20.2831 50.9377 20.2936Z" fill="#C1E2FF"/>
<path fill-rule="evenodd" clip-rule="evenodd" d="M38.358 59.7388H39.077V39.6305H38.358V59.7388Z" fill="#0065A9"/>
<path fill-rule="evenodd" clip-rule="evenodd" d="M36.8243 48.2343C36.8243 48.6657 36.4289 49.0012 35.9376 49.0012C35.4462 48.9892 35.0508 48.6537 35.0508 48.2343C35.0508 47.8029 35.4462 47.4673 35.9376 47.4673C36.4289 47.4553 36.8243 47.8149 36.8243 48.2343Z" fill="#007ACC"/>
<path fill-rule="evenodd" clip-rule="evenodd" d="M36.8243 51.722C36.8243 52.1534 36.4289 52.489 35.9376 52.489C35.4462 52.477 35.0508 52.1295 35.0508 51.722C35.0508 51.2906 35.4462 50.9551 35.9376 50.9551C36.4289 50.9551 36.8243 51.2906 36.8243 51.722Z" fill="#0065A9"/>
<path fill-rule="evenodd" clip-rule="evenodd" d="M36.8243 55.3646C36.8243 55.7961 36.4289 56.1316 35.9376 56.1316C35.4462 56.1316 35.0508 55.7841 35.0508 55.3646C35.0508 54.9332 35.4462 54.5977 35.9376 54.5977C36.4289 54.5857 36.8243 54.9452 36.8243 55.3646Z" fill="#00527F"/>
<path fill-rule="evenodd" clip-rule="evenodd" d="M49.2151 56.1314H41.6296C41.2821 56.1314 41.0184 55.8078 41.0184 55.4124C41.0184 55.0169 41.2941 54.6934 41.6296 54.6934H49.2151C49.5626 54.6934 49.8263 55.0169 49.8263 55.4124C49.8263 55.8198 49.5507 56.1314 49.2151 56.1314Z" fill="#00527F"/>
<path fill-rule="evenodd" clip-rule="evenodd" d="M56.6331 56.1314H51.9715C51.4682 56.1314 51.0728 55.8078 51.0728 55.4124C51.0728 55.0169 51.4802 54.6934 51.9715 54.6934H56.6331C57.1364 54.6934 57.5318 55.0169 57.5318 55.4124C57.5438 55.8198 57.1364 56.1314 56.6331 56.1314Z" fill="#00527F"/>
<path fill-rule="evenodd" clip-rule="evenodd" d="M48.9159 45.179H41.9056C41.4023 45.179 41.0068 44.8554 41.0068 44.46C41.0068 44.0645 41.4143 43.741 41.9056 43.741H48.9159C49.4192 43.741 49.8147 44.0645 49.8147 44.46C49.8147 44.8554 49.4073 45.179 48.9159 45.179Z" fill="#1F9CF0"/>
<path fill-rule="evenodd" clip-rule="evenodd" d="M49.2151 52.4411H41.6895C41.318 52.4411 41.0184 52.1175 41.0184 51.7221C41.0184 51.3266 41.318 51.0031 41.6895 51.0031H49.2151C49.5866 51.0031 49.8862 51.3266 49.8862 51.7221C49.8862 52.1175 49.5866 52.4411 49.2151 52.4411Z" fill="#0065A9"/>
<path fill-rule="evenodd" clip-rule="evenodd" d="M59.0537 52.4411H51.7438C51.3723 52.4411 51.0728 52.1175 51.0728 51.7221C51.0728 51.3266 51.3723 51.0031 51.7438 51.0031H59.0537C59.4252 51.0031 59.7248 51.3266 59.7248 51.7221C59.7128 52.1295 59.4252 52.4411 59.0537 52.4411Z" fill="#0065A9"/>
<path fill-rule="evenodd" clip-rule="evenodd" d="M41.7736 48.8935C41.3421 48.8935 40.9946 48.5699 40.9946 48.1745C40.9946 47.779 41.3421 47.4554 41.7736 47.4554H49.1434C49.5748 47.4554 49.9223 47.779 49.9223 48.1745C49.9223 48.5699 49.5748 48.8935 49.1434 48.8935H41.7736Z" fill="#007ACC"/>
<path fill-rule="evenodd" clip-rule="evenodd" d="M63.3681 52.4411H56.0582C55.6867 52.4411 55.3871 52.1175 55.3871 51.7221C55.3871 51.3266 55.6867 51.0031 56.0582 51.0031H63.3681C63.7396 51.0031 64.0392 51.3266 64.0392 51.7221C64.0392 52.1175 63.7396 52.4411 63.3681 52.4411Z" fill="#0065A9"/>
<path d="M74.1025 39.8668L74.1025 29.4634C74.1025 28.3588 73.2071 27.4634 72.1025 27.4634L70.9328 27.4634L70.9328 39.8668L74.1025 39.8668Z" fill="#6AB7FC"/>
<rect width="12.4035" height="3.16977" transform="matrix(4.37114e-08 -1 -1 -4.37114e-08 74.1025 52.9073)" fill="#1B93EB"/>
<path d="M72.1025 65.9493C73.2071 65.9493 74.1025 65.0539 74.1025 63.9493L74.1025 53.5459L70.9328 53.5459L70.9328 65.9493L72.1025 65.9493Z" fill="url(#paint2_linear_2141_1894)"/>
<g filter="url(#filter2_dddd_2141_1894)">
<path d="M41.0578 52.6257C41.0578 46.1556 46.3018 40.9116 52.7719 40.9116C59.2419 40.9116 64.4859 46.1556 64.4859 52.6257C64.4859 59.0958 59.2254 64.3398 52.7553 64.3398C46.2852 64.3398 41.0578 59.0958 41.0578 52.6257ZM76.1255 73.32L63.7735 60.9763C65.5629 58.6484 66.6233 55.7323 66.6233 52.576C66.6233 44.9461 60.4349 38.766 52.805 38.766C45.1751 38.766 38.995 44.9461 38.995 52.576C38.995 60.2059 45.1751 66.386 52.805 66.386C55.8702 66.386 58.6869 65.3919 60.9899 63.7019L73.3585 76.0704C73.3585 76.0704 74.4354 76.4929 75.5704 75.2917C76.7136 74.107 76.1255 73.32 76.1255 73.32Z" fill="#092E4C"/>
</g>
<g filter="url(#filter3_i_2141_1894)">
<path d="M52.7718 40.9116C46.3017 40.9116 41.0577 46.1556 41.0577 52.6257C41.0577 59.0958 46.2852 64.3398 52.7552 64.3398C59.2253 64.3398 64.4859 59.0958 64.4859 52.6257C64.4859 46.1556 59.2419 40.9116 52.7718 40.9116Z" fill="white" fill-opacity="0.1"/>
</g>
</g>
<defs>
<filter id="filter0_ddddd_2141_1894" x="18.1309" y="19.0328" width="65.6442" height="92.0521" filterUnits="userSpaceOnUse" color-interpolation-filters="sRGB">
<feFlood flood-opacity="0" result="BackgroundImageFix"/>
<feColorMatrix in="SourceAlpha" type="matrix" values="0 0 0 0 0 0 0 0 0 0 0 0 0 0 0 0 0 0 127 0" result="hardAlpha"/>
<feOffset/>
<feColorMatrix type="matrix" values="0 0 0 0 0 0 0 0 0 0 0 0 0 0 0 0 0 0 0.1 0"/>
<feBlend mode="normal" in2="BackgroundImageFix" result="effect1_dropShadow_2141_1894"/>
<feColorMatrix in="SourceAlpha" type="matrix" values="0 0 0 0 0 0 0 0 0 0 0 0 0 0 0 0 0 0 127 0" result="hardAlpha"/>
<feOffset dy="1"/>
<feGaussianBlur stdDeviation="1.5"/>
<feColorMatrix type="matrix" values="0 0 0 0 0 0 0 0 0 0 0 0 0 0 0 0 0 0 0.1 0"/>
<feBlend mode="normal" in2="effect1_dropShadow_2141_1894" result="effect2_dropShadow_2141_1894"/>
<feColorMatrix in="SourceAlpha" type="matrix" values="0 0 0 0 0 0 0 0 0 0 0 0 0 0 0 0 0 0 127 0" result="hardAlpha"/>
<feOffset dy="5"/>
<feGaussianBlur stdDeviation="2.5"/>
<feColorMatrix type="matrix" values="0 0 0 0 0 0 0 0 0 0 0 0 0 0 0 0 0 0 0.09 0"/>
<feBlend mode="normal" in2="effect2_dropShadow_2141_1894" result="effect3_dropShadow_2141_1894"/>
<feColorMatrix in="SourceAlpha" type="matrix" values="0 0 0 0 0 0 0 0 0 0 0 0 0 0 0 0 0 0 127 0" result="hardAlpha"/>
<feOffset dy="11"/>
<feGaussianBlur stdDeviation="3"/>
<feColorMatrix type="matrix" values="0 0 0 0 0 0 0 0 0 0 0 0 0 0 0 0 0 0 0.05 0"/>
<feBlend mode="normal" in2="effect3_dropShadow_2141_1894" result="effect4_dropShadow_2141_1894"/>
<feColorMatrix in="SourceAlpha" type="matrix" values="0 0 0 0 0 0 0 0 0 0 0 0 0 0 0 0 0 0 127 0" result="hardAlpha"/>
<feOffset dy="19"/>
<feGaussianBlur stdDeviation="4"/>
<feColorMatrix type="matrix" values="0 0 0 0 0 0 0 0 0 0 0 0 0 0 0 0 0 0 0.01 0"/>
<feBlend mode="normal" in2="effect4_dropShadow_2141_1894" result="effect5_dropShadow_2141_1894"/>
<feBlend mode="normal" in="SourceGraphic" in2="effect5_dropShadow_2141_1894" result="shape"/>
</filter>
<filter id="filter1_ddddd_2141_1894" x="25.0653" y="21.8129" width="51.7756" height="77.3903" filterUnits="userSpaceOnUse" color-interpolation-filters="sRGB">
<feFlood flood-opacity="0" result="BackgroundImageFix"/>
<feColorMatrix in="SourceAlpha" type="matrix" values="0 0 0 0 0 0 0 0 0 0 0 0 0 0 0 0 0 0 127 0" result="hardAlpha"/>
<feOffset/>
<feColorMatrix type="matrix" values="0 0 0 0 0 0 0 0 0 0 0 0 0 0 0 0 0 0 0.1 0"/>
<feBlend mode="normal" in2="BackgroundImageFix" result="effect1_dropShadow_2141_1894"/>
<feColorMatrix in="SourceAlpha" type="matrix" values="0 0 0 0 0 0 0 0 0 0 0 0 0 0 0 0 0 0 127 0" result="hardAlpha"/>
<feOffset dy="1"/>
<feGaussianBlur stdDeviation="1"/>
<feColorMatrix type="matrix" values="0 0 0 0 0 0 0 0 0 0 0 0 0 0 0 0 0 0 0.1 0"/>
<feBlend mode="normal" in2="effect1_dropShadow_2141_1894" result="effect2_dropShadow_2141_1894"/>
<feColorMatrix in="SourceAlpha" type="matrix" values="0 0 0 0 0 0 0 0 0 0 0 0 0 0 0 0 0 0 127 0" result="hardAlpha"/>
<feOffset dy="4"/>
<feGaussianBlur stdDeviation="2"/>
<feColorMatrix type="matrix" values="0 0 0 0 0 0 0 0 0 0 0 0 0 0 0 0 0 0 0.09 0"/>
<feBlend mode="normal" in2="effect2_dropShadow_2141_1894" result="effect3_dropShadow_2141_1894"/>
<feColorMatrix in="SourceAlpha" type="matrix" values="0 0 0 0 0 0 0 0 0 0 0 0 0 0 0 0 0 0 127 0" result="hardAlpha"/>
<feOffset dy="9"/>
<feGaussianBlur stdDeviation="2.5"/>
<feColorMatrix type="matrix" values="0 0 0 0 0 0 0 0 0 0 0 0 0 0 0 0 0 0 0.05 0"/>
<feBlend mode="normal" in2="effect3_dropShadow_2141_1894" result="effect4_dropShadow_2141_1894"/>
<feColorMatrix in="SourceAlpha" type="matrix" values="0 0 0 0 0 0 0 0 0 0 0 0 0 0 0 0 0 0 127 0" result="hardAlpha"/>
<feOffset dy="15"/>
<feGaussianBlur stdDeviation="3"/>
<feColorMatrix type="matrix" values="0 0 0 0 0 0 0 0 0 0 0 0 0 0 0 0 0 0 0.01 0"/>
<feBlend mode="normal" in2="effect4_dropShadow_2141_1894" result="effect5_dropShadow_2141_1894"/>
<feBlend mode="normal" in="SourceGraphic" in2="effect5_dropShadow_2141_1894" result="shape"/>
</filter>
<filter id="filter2_dddd_2141_1894" x="32.995" y="37.766" width="47.2817" height="55.3765" filterUnits="userSpaceOnUse" color-interpolation-filters="sRGB">
<feFlood flood-opacity="0" result="BackgroundImageFix"/>
<feColorMatrix in="SourceAlpha" type="matrix" values="0 0 0 0 0 0 0 0 0 0 0 0 0 0 0 0 0 0 127 0" result="hardAlpha"/>
<feOffset dy="1"/>
<feGaussianBlur stdDeviation="1"/>
<feColorMatrix type="matrix" values="0 0 0 0 0 0 0 0 0 0 0 0 0 0 0 0 0 0 0.1 0"/>
<feBlend mode="normal" in2="BackgroundImageFix" result="effect1_dropShadow_2141_1894"/>
<feColorMatrix in="SourceAlpha" type="matrix" values="0 0 0 0 0 0 0 0 0 0 0 0 0 0 0 0 0 0 127 0" result="hardAlpha"/>
<feOffset dy="3"/>
<feGaussianBlur stdDeviation="1.5"/>
<feColorMatrix type="matrix" values="0 0 0 0 0 0 0 0 0 0 0 0 0 0 0 0 0 0 0.09 0"/>
<feBlend mode="normal" in2="effect1_dropShadow_2141_1894" result="effect2_dropShadow_2141_1894"/>
<feColorMatrix in="SourceAlpha" type="matrix" values="0 0 0 0 0 0 0 0 0 0 0 0 0 0 0 0 0 0 127 0" result="hardAlpha"/>
<feOffset dy="7"/>
<feGaussianBlur stdDeviation="2"/>
<feColorMatrix type="matrix" values="0 0 0 0 0 0 0 0 0 0 0 0 0 0 0 0 0 0 0.05 0"/>
<feBlend mode="normal" in2="effect2_dropShadow_2141_1894" result="effect3_dropShadow_2141_1894"/>
<feColorMatrix in="SourceAlpha" type="matrix" values="0 0 0 0 0 0 0 0 0 0 0 0 0 0 0 0 0 0 127 0" result="hardAlpha"/>
<feOffset dx="-1" dy="12"/>
<feGaussianBlur stdDeviation="2.5"/>
<feColorMatrix type="matrix" values="0 0 0 0 0 0 0 0 0 0 0 0 0 0 0 0 0 0 0.01 0"/>
<feBlend mode="normal" in2="effect3_dropShadow_2141_1894" result="effect4_dropShadow_2141_1894"/>
<feBlend mode="normal" in="SourceGraphic" in2="effect4_dropShadow_2141_1894" result="shape"/>
</filter>
<filter id="filter3_i_2141_1894" x="40.0577" y="40.9116" width="24.4281" height="28.4281" filterUnits="userSpaceOnUse" color-interpolation-filters="sRGB">
<feFlood flood-opacity="0" result="BackgroundImageFix"/>
<feBlend mode="normal" in="SourceGraphic" in2="BackgroundImageFix" result="shape"/>
<feColorMatrix in="SourceAlpha" type="matrix" values="0 0 0 0 0 0 0 0 0 0 0 0 0 0 0 0 0 0 127 0" result="hardAlpha"/>
<feOffset dx="-1" dy="19"/>
<feGaussianBlur stdDeviation="2.5"/>
<feComposite in2="hardAlpha" operator="arithmetic" k2="-1" k3="1"/>
<feColorMatrix type="matrix" values="0 0 0 0 1 0 0 0 0 1 0 0 0 0 1 0 0 0 0.1 0"/>
<feBlend mode="normal" in2="shape" result="effect1_innerShadow_2141_1894"/>
</filter>
<linearGradient id="paint0_linear_2141_1894" x1="25.2852" y1="10.3768" x2="65.7189" y2="135.034" gradientUnits="userSpaceOnUse">
<stop offset="0.0996678" stop-color="#C5E4FF"/>
<stop offset="0.623265" stop-color="#69B7FC"/>
</linearGradient>
<radialGradient id="paint1_radial_2141_1894" cx="0" cy="0" r="1" gradientUnits="userSpaceOnUse" gradientTransform="translate(16.9061 28.6574) rotate(48.6382) scale(101.338 200.866)">
<stop offset="0.00520833" stop-color="#68B6FC"/>
<stop offset="0.33" stop-color="#3082F1"/>
<stop offset="0.675" stop-color="#1152D4"/>
<stop offset="1" stop-color="#0E45BD"/>
</radialGradient>
<linearGradient id="paint2_linear_2141_1894" x1="75.6284" y1="65.1715" x2="66.7381" y2="61.5604" gradientUnits="userSpaceOnUse">
<stop offset="0.4598" stop-color="#1152D4"/>
<stop offset="0.6156" stop-color="#0D3FB3"/>
</linearGradient>
<clipPath id="clip0_2141_1894">
<rect width="102" height="102" fill="white" transform="translate(0 0.879883)"/>
</clipPath>
</defs>
</svg>
