<svg width="100" height="100" viewBox="0 0 100 100" fill="none" xmlns="http://www.w3.org/2000/svg">
<g clip-path="url(#clip0_1437_795)">
<path fill-rule="evenodd" clip-rule="evenodd" d="M95.54 49.6399C95.54 58.718 92.848 67.5923 87.8045 75.1405C82.7609 82.6888 75.5923 88.5719 67.2052 92.0459C58.818 95.52 49.5891 96.429 40.6854 94.6579C31.7816 92.8869 23.603 88.5153 17.1838 82.0961C10.7646 75.6768 6.39302 67.4982 4.62196 58.5945C2.85089 49.6908 3.75987 40.4618 7.23393 32.0747C10.708 23.6876 16.5911 16.519 24.1393 11.4754C31.6875 6.43186 40.5618 3.73987 49.64 3.73987C55.6677 3.73986 61.6363 4.92709 67.2052 7.23378C72.774 9.54046 77.834 12.9214 82.0962 17.1836C86.3584 21.4459 89.7394 26.5058 92.0461 32.0747C94.3528 37.6435 95.54 43.6122 95.54 49.6399V49.6399ZM49.64 -0.00010647C59.4579 -0.00010647 69.0552 2.91123 77.2185 8.36574C85.3818 13.8203 91.7442 21.573 95.5014 30.6435C99.2585 39.714 100.242 49.695 98.3262 59.3242C96.4108 68.9534 91.6831 77.7984 84.7408 84.7407C77.7985 91.683 68.9535 96.4107 59.3243 98.3261C49.6951 100.241 39.7141 99.2584 30.6436 95.5013C21.5731 91.7441 13.8203 85.3816 8.36584 77.2184C2.91133 69.0551 -3.61668e-06 59.4577 3.3895e-07 49.6399C-0.000761487 43.1208 1.2827 36.6655 3.77707 30.6426C6.27144 24.6196 9.92787 19.1471 14.5375 14.5374C19.1472 9.92775 24.6197 6.27133 30.6427 3.77695C36.6656 1.28258 43.121 -0.000870923 49.64 -0.00010647V-0.00010647Z" fill="#F2F1F0"/>
<path d="M49.6399 96.4497C40.3817 96.4497 31.3315 93.7043 23.6336 88.5608C15.9357 83.4172 9.93598 76.1065 6.39305 67.5531C2.85011 58.9997 1.92312 49.5877 3.7293 40.5075C5.53548 31.4272 9.99371 23.0865 16.5402 16.54C23.0867 9.99349 31.4275 5.53528 40.5077 3.72912C49.588 1.92295 58.9999 2.84996 67.5533 6.39291C76.1067 9.93586 83.4175 15.9356 88.561 23.6335C93.7045 31.3314 96.4499 40.3816 96.4499 49.6398C96.4503 55.7871 95.2398 61.8742 92.8875 67.5537C90.5352 73.2331 87.0873 78.3936 82.7405 82.7404C78.3937 87.0872 73.2332 90.5351 67.5538 92.8874C61.8743 95.2397 55.7871 96.4501 49.6399 96.4497Z" fill="url(#paint0_linear_1437_795)"/>
<path fill-rule="evenodd" clip-rule="evenodd" d="M92.7298 49.6397C92.7298 58.1621 90.2026 66.4931 85.4678 73.5792C80.7331 80.6653 74.0033 86.1883 66.1296 89.4496C58.256 92.711 49.592 93.5644 41.2334 91.9017C32.8747 90.2391 25.1968 86.1352 19.1706 80.1089C13.1443 74.0827 9.04041 66.4048 7.37778 58.0461C5.71514 49.6875 6.56847 41.0235 9.82985 33.1498C13.0912 25.2762 18.6142 18.5464 25.7003 13.8117C32.7864 9.07686 41.1174 6.54968 49.6398 6.54968C55.2986 6.54933 60.902 7.66365 66.13 9.82901C71.3581 11.9944 76.1085 15.1683 80.1098 19.1697C84.1112 23.171 87.2851 27.9214 89.4505 33.1494C91.6158 38.3775 92.7302 43.9809 92.7298 49.6397ZM49.6398 2.80968C58.9019 2.80968 67.956 5.55621 75.6572 10.702C83.3583 15.8477 89.3606 23.1615 92.9051 31.7186C96.4495 40.2757 97.3769 49.6916 95.57 58.7758C93.763 67.8599 89.3029 76.2042 82.7536 82.7535C76.2043 89.3028 67.86 93.7629 58.7759 95.5699C49.6918 97.3768 40.2758 96.4494 31.7187 92.905C23.1617 89.3605 15.8478 83.3582 10.7021 75.657C5.55635 67.9559 2.80981 58.9018 2.80981 49.6397C2.811 37.22 7.74525 25.3093 16.5273 16.5272C25.3094 7.74512 37.2201 2.81089 49.6398 2.80971V2.80968Z" fill="url(#paint1_linear_1437_795)"/>
<path d="M65.4675 49.8461C66.2809 49.8461 67.0863 50.0063 67.8378 50.3175C68.5893 50.6288 69.2721 51.085 69.8472 51.6602C70.4224 52.2353 70.8786 52.9181 71.1898 53.6696C71.5011 54.421 71.6613 55.2265 71.6613 56.0398V58.5314C71.6614 60.0191 71.3398 61.4893 70.7187 62.8412C70.0975 64.1931 69.1915 65.3948 68.0626 66.3639C63.7534 70.0633 57.5863 71.8717 49.6308 71.8717C41.6765 71.8717 35.5135 70.0642 31.2113 66.3653C30.0841 65.3961 29.1795 64.195 28.5593 62.844C27.9392 61.493 27.6181 60.024 27.6182 58.5374V56.0398C27.6182 54.3971 28.2708 52.8218 29.4323 51.6602C30.5939 50.4987 32.1693 49.8461 33.8119 49.8461H65.4675ZM49.3514 16.8332L49.6316 16.8143C50.1306 16.8143 50.6128 16.9951 50.9889 17.3231C51.3649 17.6512 51.6095 18.1043 51.6772 18.5988L51.6962 18.8789L51.6939 20.9407L61.3301 20.9421C62.9728 20.9422 64.5482 21.5947 65.7097 22.7563C66.8713 23.9178 67.5238 25.4932 67.5238 27.1359V39.5361C67.5238 41.1787 66.8712 42.7541 65.7097 43.9157C64.5481 45.0772 62.9728 45.7298 61.3301 45.7298H37.9313C36.2887 45.7298 34.7133 45.0773 33.5517 43.9157C32.3902 42.7541 31.7376 41.1787 31.7376 39.5361V27.1359C31.7376 25.4932 32.3901 23.9178 33.5517 22.7563C34.7132 21.5947 36.2886 20.9421 37.9313 20.9421L47.5648 20.9407L47.567 18.8789C47.567 18.3799 47.7477 17.8977 48.0758 17.5216C48.4038 17.1455 48.857 16.901 49.3514 16.8332L49.6316 16.8143L49.3514 16.8332ZM43.4349 29.2005C42.7548 29.2005 42.0899 29.4022 41.5243 29.78C40.9588 30.1579 40.518 30.695 40.2577 31.3234C39.9974 31.9518 39.9292 32.6433 40.0619 33.3104C40.1946 33.9775 40.5221 34.5902 41.0031 35.0712C41.484 35.5522 42.0968 35.8797 42.7639 36.0124C43.431 36.1451 44.1225 36.077 44.7509 35.8167C45.3793 35.5564 45.9164 35.1157 46.2943 34.5501C46.6722 33.9846 46.8739 33.3197 46.8739 32.6395C46.8739 31.7274 46.5116 30.8527 45.8666 30.2078C45.2217 29.5628 44.347 29.2005 43.4349 29.2005V29.2005ZM55.8025 29.2005C55.1224 29.2005 54.4575 29.4022 53.8919 29.7801C53.3264 30.158 52.8856 30.6951 52.6253 31.3235C52.3651 31.9519 52.297 32.6433 52.4297 33.3104C52.5624 33.9775 52.8899 34.5903 53.3709 35.0713C53.8518 35.5522 54.4646 35.8797 55.1317 36.0124C55.7988 36.1451 56.4902 36.077 57.1186 35.8167C57.747 35.5564 58.2841 35.1156 58.662 34.5501C59.0399 33.9846 59.2416 33.3197 59.2416 32.6395C59.2416 32.1879 59.1526 31.7407 58.9798 31.3234C58.807 30.9062 58.5536 30.5271 58.2343 30.2077C57.915 29.8884 57.5358 29.6351 57.1186 29.4623C56.7013 29.2894 56.2541 29.2005 55.8025 29.2005V29.2005Z" fill="url(#paint2_linear_1437_795)"/>
<path opacity="0.2" d="M43.4186 30.1595C42.7384 30.1595 42.0735 30.3612 41.508 30.739C40.9424 31.1169 40.5016 31.654 40.2413 32.2824C39.981 32.9108 39.9129 33.6023 40.0456 34.2694C40.1782 34.9365 40.5058 35.5493 40.9867 36.0302C41.4677 36.5112 42.0804 36.8387 42.7475 36.9714C43.4146 37.1041 44.1061 37.036 44.7345 36.7757C45.3629 36.5155 45.9 36.0747 46.2779 35.5091C46.6558 34.9436 46.8575 34.2787 46.8575 33.5985C46.8575 32.6865 46.4952 31.8117 45.8503 31.1668C45.2053 30.5219 44.3306 30.1595 43.4186 30.1595ZM55.7862 30.1595C55.106 30.1595 54.4411 30.3612 53.8756 30.7391C53.31 31.117 52.8692 31.6541 52.609 32.2825C52.3487 32.9109 52.2806 33.6024 52.4133 34.2695C52.546 34.9366 52.8735 35.5493 53.3545 36.0303C53.8354 36.5112 54.4482 36.8387 55.1153 36.9714C55.7824 37.1041 56.4739 37.036 57.1023 36.7757C57.7307 36.5154 58.2678 36.0747 58.6456 35.5091C59.0235 34.9436 59.2252 34.2787 59.2252 33.5985C59.2252 33.1469 59.1362 32.6997 58.9634 32.2825C58.7906 31.8652 58.5373 31.4861 58.2179 31.1668C57.8986 30.8474 57.5195 30.5941 57.1022 30.4213C56.685 30.2485 56.2378 30.1595 55.7862 30.1595V30.1595Z" fill="#091F2C"/>
<path d="M43.4186 29.2005C42.7384 29.2005 42.0735 29.4021 41.508 29.78C40.9424 30.1579 40.5016 30.695 40.2413 31.3234C39.981 31.9518 39.9129 32.6432 40.0456 33.3103C40.1782 33.9775 40.5058 34.5902 40.9867 35.0712C41.4677 35.5522 42.0804 35.8797 42.7475 36.0124C43.4146 36.1451 44.1061 36.077 44.7345 35.8167C45.3629 35.5564 45.9 35.1156 46.2779 34.5501C46.6558 33.9846 46.8575 33.3197 46.8575 32.6395C46.8575 31.7274 46.4952 30.8527 45.8503 30.2078C45.2053 29.5628 44.3306 29.2005 43.4186 29.2005V29.2005ZM55.7862 29.2005C55.106 29.2005 54.4411 29.4022 53.8756 29.7801C53.31 30.158 52.8692 30.6951 52.609 31.3235C52.3487 31.9519 52.2806 32.6433 52.4133 33.3104C52.546 33.9775 52.8735 34.5903 53.3545 35.0712C53.8354 35.5522 54.4482 35.8797 55.1153 36.0124C55.7824 36.1451 56.4739 36.077 57.1023 35.8167C57.7307 35.5564 58.2678 35.1156 58.6456 34.5501C59.0235 33.9845 59.2252 33.3197 59.2252 32.6395C59.2252 32.1879 59.1362 31.7407 58.9634 31.3234C58.7906 30.9062 58.5373 30.5271 58.2179 30.2077C57.8986 29.8884 57.5195 29.6351 57.1022 29.4622C56.685 29.2894 56.2378 29.2005 55.7862 29.2005V29.2005Z" fill="#E8E6DF"/>
<path opacity="0.2" d="M49.6053 52.1121C45.3729 52.119 41.3064 53.7591 38.2534 56.6904C35.2004 59.6218 33.3965 63.6182 33.2175 67.8469C37.3554 70.5395 42.8266 71.8811 49.631 71.8716C56.3986 71.8716 61.8533 70.5414 65.9949 67.881C65.8245 63.646 64.024 59.6408 60.9697 56.7022C57.9154 53.7636 53.8437 52.119 49.6053 52.1121V52.1121Z" fill="#2A446F"/>
<path d="M49.6053 54.2793C51.7669 54.2802 53.9001 54.7727 55.8433 55.7195C57.7866 56.6663 59.4891 58.0426 60.822 59.7444C62.155 61.4461 63.0835 63.4287 63.5373 65.5422C63.991 67.6557 63.9582 69.8447 63.4413 71.9436C62.9244 74.0425 61.937 75.9964 60.5536 77.6575C59.1703 79.3185 57.4273 80.6432 55.4566 81.5314C53.4858 82.4195 51.3389 82.8479 49.1782 82.784C47.0175 82.7201 44.8996 82.1657 42.9848 81.1627L36.8686 82.755C36.6642 82.8082 36.4494 82.8071 36.2455 82.7517C36.0417 82.6964 35.8558 82.5886 35.7064 82.4393C35.557 82.2899 35.4493 82.1041 35.3939 81.9002C35.3385 81.6964 35.3373 81.4816 35.3906 81.2771L36.982 75.1638C35.842 72.9908 35.2821 70.5604 35.3564 68.1077C35.4307 65.655 36.1366 63.2629 37.406 61.1628C38.6753 59.0628 40.4651 57.3258 42.6022 56.12C44.7393 54.9141 47.1514 54.2801 49.6053 54.2793V54.2793Z" fill="#E8E6DF"/>
<path d="M49.5107 60.875C50.1222 60.882 50.7315 60.9527 51.3286 61.0859C51.5892 61.144 51.7841 61.3613 51.8137 61.6266L51.9555 62.899C52.0197 63.4832 52.513 63.9257 53.101 63.9263C53.2591 63.9266 53.4154 63.8936 53.5615 63.829L54.7287 63.3163C54.9714 63.2097 55.2551 63.2678 55.4362 63.4613C56.2797 64.3622 56.9079 65.4426 57.2736 66.6213C57.3524 66.8755 57.2617 67.1517 57.0474 67.3096L56.0129 68.0722C55.7177 68.289 55.5435 68.6333 55.5435 68.9996C55.5435 69.3658 55.7177 69.7101 56.0135 69.9274L57.049 70.6903C57.2632 70.8481 57.3541 71.1243 57.2752 71.3786C56.9097 72.5571 56.2819 73.6374 55.4389 74.5384C55.2578 74.7319 54.9745 74.7903 54.7317 74.6838L53.5597 74.1704C53.2245 74.0237 52.8394 74.0452 52.5226 74.2283C52.2057 74.4114 51.9949 74.7343 51.9546 75.0981L51.8137 76.3703C51.7847 76.6327 51.5939 76.8485 51.3372 76.9096C50.1302 77.1968 48.8726 77.1968 47.6655 76.9096C47.4087 76.8485 47.218 76.6327 47.189 76.3703L47.0483 75.1C47.007 74.7369 46.7958 74.415 46.4792 74.2325C46.1626 74.05 45.7782 74.0286 45.444 74.1745L44.2718 74.688C44.029 74.7944 43.7455 74.7361 43.5645 74.5424C42.721 73.6404 42.0931 72.5587 41.7282 71.379C41.6495 71.1249 41.7404 70.8488 41.9545 70.6911L42.9906 69.9278C43.2858 69.7109 43.46 69.3666 43.46 69.0004C43.46 68.6342 43.2858 68.2898 42.9902 68.0727L41.9548 67.3107C41.7403 67.1529 41.6494 66.8765 41.7283 66.6221C42.0939 65.4435 42.7221 64.363 43.5656 63.4622C43.7468 63.2686 44.0304 63.2105 44.2732 63.3171L45.4402 63.8298C45.776 63.9771 46.162 63.9549 46.4803 63.7689C46.7972 63.5851 47.0082 63.2618 47.049 62.898L47.1907 61.6266C47.2203 61.3611 47.4154 61.1438 47.6762 61.0858C48.2739 60.9528 48.8837 60.8822 49.5107 60.875ZM49.5002 66.5C48.1195 66.5 47.0002 67.6192 47.0002 69C47.0002 70.3807 48.1195 71.5 49.5002 71.5C50.8809 71.5 52.0002 70.3807 52.0002 69C52.0002 67.6192 50.8809 66.5 49.5002 66.5Z" fill="#0078D4"/>
</g>
<defs>
<linearGradient id="paint0_linear_1437_795" x1="49.6398" y1="91.4709" x2="49.6398" y2="9.09944" gradientUnits="userSpaceOnUse">
<stop stop-color="#659BFF"/>
<stop offset="1" stop-color="#8DC8E8"/>
</linearGradient>
<linearGradient id="paint1_linear_1437_795" x1="50.8009" y1="85.0923" x2="48.4072" y2="12.0026" gradientUnits="userSpaceOnUse">
<stop stop-color="#0078D4"/>
<stop offset="1" stop-color="#49C5B1"/>
</linearGradient>
<linearGradient id="paint2_linear_1437_795" x1="49.6397" y1="71.8717" x2="49.6397" y2="16.8143" gradientUnits="userSpaceOnUse">
<stop stop-color="#0078D4"/>
<stop offset="1" stop-color="#49C5B1"/>
</linearGradient>
<clipPath id="clip0_1437_795">
<rect width="99.2799" height="99.28" fill="white"/>
</clipPath>
</defs>
</svg>
