<svg width="103" height="102" viewBox="0 0 103 102" fill="none" xmlns="http://www.w3.org/2000/svg">
<path d="M51.0892 97.351C25.4927 97.351 4.73816 76.6064 4.73816 50.9999C4.73816 25.3935 25.4927 4.64886 51.0892 4.64886C76.6858 4.64886 97.4403 25.4034 97.4403 50.9999C97.4403 76.5965 76.6858 97.351 51.0892 97.351Z" fill="url(#paint0_linear_1735_426)"/>
<path fill-rule="evenodd" clip-rule="evenodd" d="M96.5395 51.0003C96.5395 76.1018 76.191 96.4503 51.0895 96.4503C25.988 96.4503 5.63949 76.1018 5.63949 51.0003C5.63949 25.8989 25.988 5.55035 51.0895 5.55035C76.191 5.55035 96.5395 25.8989 96.5395 51.0003ZM51.0895 1.84702C78.2407 1.84702 100.243 23.8492 100.243 51.0003C100.243 78.1515 78.2308 100.154 51.0895 100.154C23.9383 100.154 1.93616 78.1416 1.93616 51.0003C1.93616 23.8492 23.9383 1.84702 51.0895 1.84702Z" fill="#F2F1F0"/>
<path fill-rule="evenodd" clip-rule="evenodd" d="M93.7568 50.9999C93.7568 74.5666 74.6559 93.6675 51.0893 93.6675C27.5226 93.6675 8.42172 74.5666 8.42172 50.9999C8.42172 27.4332 27.5226 8.33237 51.0893 8.33237C74.6559 8.33237 93.7568 27.4332 93.7568 50.9999ZM51.0893 4.62903C76.6957 4.62903 97.4601 25.3934 97.4601 50.9999C97.4601 76.6064 76.6957 97.3708 51.0893 97.3708C25.4828 97.3708 4.71838 76.6064 4.71838 50.9999C4.71838 25.3934 25.4729 4.62903 51.0893 4.62903Z" fill="url(#paint1_linear_1735_426)"/>
<g filter="url(#filter0_ddddd_1735_426)">
<path d="M29.4524 72.9042L29.4524 29.4125C29.4524 29.2324 29.4853 29.054 29.549 28.8876C29.6127 28.7212 29.7061 28.5701 29.8238 28.4428C29.9415 28.3154 30.0812 28.2144 30.235 28.1455C30.3888 28.0766 30.5536 28.041 30.72 28.041L82.7345 28.041C83.2148 28.041 83.6753 28.2476 84.0149 28.615C84.3546 28.9824 84.5455 29.4805 84.5455 30.0001L84.5455 72.6299C84.5455 73.0715 84.3832 73.4952 84.0945 73.8075C83.8058 74.1197 83.4142 74.2951 83.0059 74.2951L30.72 74.2951C30.5506 74.3006 30.382 74.2683 30.2246 74.2001C30.0673 74.1319 29.9247 74.0294 29.8057 73.8988C29.6867 73.7682 29.5939 73.6125 29.5331 73.4413C29.4723 73.2702 29.4448 73.0874 29.4524 72.9042Z" fill="#D9D9D9"/>
<path d="M18.2012 72.9042L18.2012 29.4125C18.2012 29.2324 18.2276 29.054 18.2788 28.8876C18.33 28.7212 18.405 28.5701 18.4995 28.4428C18.5941 28.3154 18.7063 28.2144 18.8298 28.1455C18.9533 28.0766 19.0857 28.041 19.2194 28.041L60.9985 28.041C61.3844 28.041 61.7543 28.2476 62.0271 28.615C62.2999 28.9824 62.4532 29.4805 62.4532 30.0001L62.4532 72.6299C62.4532 73.0715 62.3229 73.4952 62.091 73.8075C61.8591 74.1197 61.5445 74.2951 61.2166 74.2951L19.2194 74.2951C19.0833 74.3006 18.9478 74.2683 18.8215 74.2001C18.6951 74.1319 18.5805 74.0294 18.4849 73.8988C18.3894 73.7682 18.3148 73.6125 18.266 73.4413C18.2172 73.2702 18.1951 73.0874 18.2012 72.9042Z" fill="white"/>
</g>
<path d="M77.4943 55.2163C77.4943 54.7603 77.1228 54.3888 76.6668 54.3888H66.7255C66.2695 54.3888 65.8979 54.7659 65.8979 55.2163C65.8979 55.6722 66.2695 56.0494 66.7255 56.0494H76.6781C77.1341 56.0382 77.4943 55.6722 77.4943 55.2163Z" fill="url(#paint2_linear_1735_426)"/>
<path d="M80.3094 55.2163C80.3094 54.7603 79.9379 54.3888 79.4819 54.3888H76.7798C76.3238 54.3888 76.6166 54.7603 76.6166 55.2163C76.6166 55.6722 76.3238 56.0438 76.7798 56.0438H79.4931C79.9379 56.0382 80.3094 55.6722 80.3094 55.2163Z" fill="#9B9BA0"/>
<path d="M75.4453 55.216C75.4453 56.128 76.1828 56.8598 77.0891 56.8598C77.9954 56.8598 78.7328 56.1223 78.7328 55.216C78.7328 54.3041 77.9898 53.5723 77.0778 53.5723C76.1771 53.5835 75.4453 54.3097 75.4453 55.216Z" fill="#50E6FF"/>
<path d="M74.4432 59.3814C74.4432 58.9255 74.0717 58.5539 73.6157 58.5539H66.7255C66.2695 58.5539 65.8979 58.9255 65.8979 59.3814C65.8979 59.8374 66.2695 60.209 66.7255 60.209H73.6326C74.0773 60.1977 74.4432 59.8374 74.4432 59.3814Z" fill="url(#paint3_linear_1735_426)"/>
<path d="M80.3089 59.3814C80.3089 58.9255 79.9374 58.5539 79.4814 58.5539H74.1167C73.6607 58.5539 73.2892 58.9255 73.2892 59.3814C73.2892 59.8374 73.6607 60.209 74.1167 60.209H79.4927C79.9374 60.1977 80.3089 59.8374 80.3089 59.3814Z" fill="#9B9BA0"/>
<path d="M71.8424 59.3818C71.8424 60.2937 72.5798 61.0255 73.4862 61.0255C74.3925 61.0255 75.1299 60.2881 75.1299 59.3818C75.1299 58.4698 74.3925 57.738 73.4862 57.738C72.5798 57.738 71.8424 58.4698 71.8424 59.3818Z" fill="#35AFE4"/>
<path d="M70.6097 63.7897C70.6097 63.3338 70.2382 62.9622 69.7822 62.9622H66.7255C66.2695 62.9735 65.8979 63.3394 65.8979 63.7897C65.8979 64.2457 66.2695 64.6173 66.7255 64.6173H69.7822C70.2382 64.6116 70.6097 64.2457 70.6097 63.7897Z" fill="url(#paint4_linear_1735_426)"/>
<path d="M80.3147 63.7897C80.3147 63.3338 79.9432 62.9622 79.4872 62.9622H70.5873C70.1313 62.9622 69.7598 63.3338 69.7598 63.7897C69.7598 64.2457 70.1313 64.6173 70.5873 64.6173H79.4816C79.9376 64.6116 80.3147 64.2457 80.3147 63.7897Z" fill="#9B9BA0"/>
<path d="M68.4424 63.7895C68.4424 64.7014 69.1798 65.4333 70.0861 65.4333C70.9981 65.4333 71.7299 64.6958 71.7299 63.7895C71.7299 62.8775 70.9925 62.1457 70.0861 62.1457C69.1798 62.1457 68.4424 62.8832 68.4424 63.7895Z" fill="#2E76BC"/>
<g filter="url(#filter1_ddddd_1735_426)">
<path d="M35.0047 48.0306L33.8976 47.9532L34.4149 40.6723C34.6566 37.2639 37.5236 34.5758 40.9416 34.5565C40.9561 34.5565 40.9658 34.5565 40.9803 34.5565C44.5338 34.5565 47.4829 37.4379 47.5602 40.9962L47.7101 47.8566L46.5982 47.8807L46.4483 41.0204C46.3854 38.0616 43.9343 35.6685 40.9803 35.6685C40.9706 35.6685 40.961 35.6685 40.9513 35.6685C38.1085 35.683 35.7251 37.9166 35.5269 40.7496L35.0047 48.0306Z" fill="#767778"/>
<path d="M43.7596 48.2788L43.5759 40.6933C43.5082 37.8795 41.3374 35.6121 38.5285 35.4187C37.0636 35.3172 35.6616 35.8006 34.5641 36.7675C33.4715 37.7393 32.8236 39.0785 32.7463 40.5386L32.3837 47.4327L31.2717 47.3747L31.6343 40.4805C31.7262 38.7207 32.5046 37.106 33.8244 35.936C35.1443 34.766 36.8364 34.1859 38.601 34.3067C41.9853 34.5388 44.6008 37.2703 44.683 40.6643L44.8667 48.2498L43.7596 48.2788Z" fill="#4C4C4C"/>
<path fill-rule="evenodd" clip-rule="evenodd" d="M46.8294 67.1291L27.4619 64.939L28.3757 43.5602H46.8294V67.1291Z" fill="url(#paint5_linear_1735_426)"/>
<path fill-rule="evenodd" clip-rule="evenodd" d="M46.83 67.1291L52.3124 64.5715L51.3987 43.5602H46.83V67.1291Z" fill="url(#paint6_linear_1735_426)"/>
<path opacity="0.25" d="M45.0659 56.1496C45.0756 56.1109 45.0804 56.0819 45.0949 56.048C45.1529 55.8402 45.1819 55.6178 45.1965 55.3954C45.3028 53.4519 43.8186 51.7984 41.8847 51.692C41.614 51.6775 41.3481 51.692 41.0919 51.7356C40.3618 50.4254 38.9985 49.5068 37.3934 49.4198C34.8987 49.2796 32.7666 51.1941 32.6264 53.6839C32.6216 53.7468 32.6216 53.8048 32.6167 53.8676C32.3992 53.7806 32.1575 53.7226 31.9012 53.7081C30.6732 53.6404 29.6193 54.5832 29.5516 55.8112C29.4887 56.9666 30.3106 57.9626 31.4274 58.1366L41.4835 58.7168C42.8081 58.7893 43.9926 58.1269 44.655 57.0875C44.6743 57.0585 44.6888 57.0295 44.713 56.9956C44.8097 56.8022 44.9596 56.5218 45.0659 56.1496Z" fill="#1F1D20"/>
<path d="M45.0659 55.7396C45.0756 55.7009 45.0804 55.6719 45.0949 55.6381C45.1529 55.4302 45.1819 55.2078 45.1965 54.9854C45.3028 53.0419 43.8186 51.3884 41.8847 51.2821C41.614 51.2676 41.3481 51.2821 41.0919 51.3256C40.3618 50.0154 38.9985 49.0968 37.3934 49.0098C34.8987 48.8696 32.7666 50.7841 32.6264 53.2739C32.6216 53.3368 32.6216 53.3948 32.6167 53.4577C32.3992 53.3706 32.1575 53.3126 31.9012 53.2981C30.6732 53.2304 29.6193 54.1732 29.5516 55.4012C29.4887 56.5567 30.3106 57.5526 31.4274 57.7266L41.4835 58.3068C42.8081 58.3793 43.9926 57.717 44.655 56.6775C44.6743 56.6485 44.6888 56.6195 44.713 56.5857C44.8097 56.3923 44.9596 56.1119 45.0659 55.7396Z" fill="white"/>
</g>
<path fill-rule="evenodd" clip-rule="evenodd" d="M80.4436 43.2541L78.5104 43.9424L78.1589 45.1287L78.9937 46.8568L79.1109 47.0911L77.8807 48.2774L75.9182 47.3108L74.7466 47.7795L74.1022 49.5955L74.029 49.8444L72.3301 49.8005L71.6271 47.7209L70.4555 47.2229L68.7274 48.0577L68.493 48.1749L67.3068 46.93L68.2734 44.9676L67.8047 43.7813L65.9887 43.1369L65.7397 43.0637L65.7837 41.3648L67.878 40.6472L68.3759 39.4756L67.5411 37.7475L67.4239 37.5278L68.6541 36.3562L70.6166 37.3374L71.8175 36.9127L72.4326 35.1846L72.5205 35.0967L74.2047 35.1406L74.9223 37.0591L76.0939 37.4106L77.8221 36.5759L78.0564 36.4587L78.7008 37.1324L79.228 37.6889L79.1255 37.8793L78.2321 39.6514L78.6569 40.8376L80.385 41.4527L80.4729 41.5406L80.4436 43.2541ZM73.2381 44.6893C74.5562 44.7186 75.6399 43.6495 75.6692 42.3461C75.6985 41.028 74.6441 39.9296 73.326 39.915C72.0079 39.8857 70.9095 40.9548 70.8949 42.2728C70.8656 43.5763 71.92 44.6747 73.2381 44.6893Z" fill="url(#paint7_linear_1735_426)"/>
<defs>
<filter id="filter0_ddddd_1735_426" x="10.2002" y="26.041" width="82.3453" height="75.2547" filterUnits="userSpaceOnUse" color-interpolation-filters="sRGB">
<feFlood flood-opacity="0" result="BackgroundImageFix"/>
<feColorMatrix in="SourceAlpha" type="matrix" values="0 0 0 0 0 0 0 0 0 0 0 0 0 0 0 0 0 0 127 0" result="hardAlpha"/>
<feOffset/>
<feColorMatrix type="matrix" values="0 0 0 0 0 0 0 0 0 0 0 0 0 0 0 0 0 0 0.1 0"/>
<feBlend mode="normal" in2="BackgroundImageFix" result="effect1_dropShadow_1735_426"/>
<feColorMatrix in="SourceAlpha" type="matrix" values="0 0 0 0 0 0 0 0 0 0 0 0 0 0 0 0 0 0 127 0" result="hardAlpha"/>
<feOffset dy="1"/>
<feGaussianBlur stdDeviation="1.5"/>
<feColorMatrix type="matrix" values="0 0 0 0 0 0 0 0 0 0 0 0 0 0 0 0 0 0 0.1 0"/>
<feBlend mode="normal" in2="effect1_dropShadow_1735_426" result="effect2_dropShadow_1735_426"/>
<feColorMatrix in="SourceAlpha" type="matrix" values="0 0 0 0 0 0 0 0 0 0 0 0 0 0 0 0 0 0 127 0" result="hardAlpha"/>
<feOffset dy="5"/>
<feGaussianBlur stdDeviation="2.5"/>
<feColorMatrix type="matrix" values="0 0 0 0 0 0 0 0 0 0 0 0 0 0 0 0 0 0 0.09 0"/>
<feBlend mode="normal" in2="effect2_dropShadow_1735_426" result="effect3_dropShadow_1735_426"/>
<feColorMatrix in="SourceAlpha" type="matrix" values="0 0 0 0 0 0 0 0 0 0 0 0 0 0 0 0 0 0 127 0" result="hardAlpha"/>
<feOffset dy="11"/>
<feGaussianBlur stdDeviation="3"/>
<feColorMatrix type="matrix" values="0 0 0 0 0 0 0 0 0 0 0 0 0 0 0 0 0 0 0.05 0"/>
<feBlend mode="normal" in2="effect3_dropShadow_1735_426" result="effect4_dropShadow_1735_426"/>
<feColorMatrix in="SourceAlpha" type="matrix" values="0 0 0 0 0 0 0 0 0 0 0 0 0 0 0 0 0 0 127 0" result="hardAlpha"/>
<feOffset dy="19"/>
<feGaussianBlur stdDeviation="4"/>
<feColorMatrix type="matrix" values="0 0 0 0 0 0 0 0 0 0 0 0 0 0 0 0 0 0 0.01 0"/>
<feBlend mode="normal" in2="effect4_dropShadow_1735_426" result="effect5_dropShadow_1735_426"/>
<feBlend mode="normal" in="SourceGraphic" in2="effect5_dropShadow_1735_426" result="shape"/>
</filter>
<filter id="filter1_ddddd_1735_426" x="22.4619" y="33.291" width="34.8505" height="49.838" filterUnits="userSpaceOnUse" color-interpolation-filters="sRGB">
<feFlood flood-opacity="0" result="BackgroundImageFix"/>
<feColorMatrix in="SourceAlpha" type="matrix" values="0 0 0 0 0 0 0 0 0 0 0 0 0 0 0 0 0 0 127 0" result="hardAlpha"/>
<feOffset/>
<feColorMatrix type="matrix" values="0 0 0 0 0 0 0 0 0 0 0 0 0 0 0 0 0 0 0.1 0"/>
<feBlend mode="normal" in2="BackgroundImageFix" result="effect1_dropShadow_1735_426"/>
<feColorMatrix in="SourceAlpha" type="matrix" values="0 0 0 0 0 0 0 0 0 0 0 0 0 0 0 0 0 0 127 0" result="hardAlpha"/>
<feOffset dy="1"/>
<feGaussianBlur stdDeviation="1"/>
<feColorMatrix type="matrix" values="0 0 0 0 0 0 0 0 0 0 0 0 0 0 0 0 0 0 0.1 0"/>
<feBlend mode="normal" in2="effect1_dropShadow_1735_426" result="effect2_dropShadow_1735_426"/>
<feColorMatrix in="SourceAlpha" type="matrix" values="0 0 0 0 0 0 0 0 0 0 0 0 0 0 0 0 0 0 127 0" result="hardAlpha"/>
<feOffset dy="3"/>
<feGaussianBlur stdDeviation="1.5"/>
<feColorMatrix type="matrix" values="0 0 0 0 0 0 0 0 0 0 0 0 0 0 0 0 0 0 0.09 0"/>
<feBlend mode="normal" in2="effect2_dropShadow_1735_426" result="effect3_dropShadow_1735_426"/>
<feColorMatrix in="SourceAlpha" type="matrix" values="0 0 0 0 0 0 0 0 0 0 0 0 0 0 0 0 0 0 127 0" result="hardAlpha"/>
<feOffset dy="6"/>
<feGaussianBlur stdDeviation="2"/>
<feColorMatrix type="matrix" values="0 0 0 0 0 0 0 0 0 0 0 0 0 0 0 0 0 0 0.05 0"/>
<feBlend mode="normal" in2="effect3_dropShadow_1735_426" result="effect4_dropShadow_1735_426"/>
<feColorMatrix in="SourceAlpha" type="matrix" values="0 0 0 0 0 0 0 0 0 0 0 0 0 0 0 0 0 0 127 0" result="hardAlpha"/>
<feOffset dy="11"/>
<feGaussianBlur stdDeviation="2.5"/>
<feColorMatrix type="matrix" values="0 0 0 0 0 0 0 0 0 0 0 0 0 0 0 0 0 0 0.01 0"/>
<feBlend mode="normal" in2="effect4_dropShadow_1735_426" result="effect5_dropShadow_1735_426"/>
<feBlend mode="normal" in="SourceGraphic" in2="effect5_dropShadow_1735_426" result="shape"/>
</filter>
<linearGradient id="paint0_linear_1735_426" x1="25.3745" y1="9.49703" x2="100.281" y2="148.693" gradientUnits="userSpaceOnUse">
<stop offset="0.0001" stop-color="#50E6FF"/>
<stop offset="0.623265" stop-color="#0078D4"/>
</linearGradient>
<linearGradient id="paint1_linear_1735_426" x1="15.6761" y1="11.2231" x2="83.2186" y2="98.6208" gradientUnits="userSpaceOnUse">
<stop stop-color="#007ED8"/>
<stop offset="0.915361" stop-color="#002D4C"/>
</linearGradient>
<linearGradient id="paint2_linear_1735_426" x1="71.3646" y1="54.283" x2="78.166" y2="73.4603" gradientUnits="userSpaceOnUse">
<stop stop-color="#15548F"/>
<stop offset="0.4179" stop-color="#243A5E"/>
<stop offset="0.9677" stop-color="#1A2C45"/>
</linearGradient>
<linearGradient id="paint3_linear_1735_426" x1="69.0286" y1="56.165" x2="74.4336" y2="71.4046" gradientUnits="userSpaceOnUse">
<stop stop-color="#15548F"/>
<stop offset="0.4179" stop-color="#243A5E"/>
<stop offset="0.9677" stop-color="#1A2C45"/>
</linearGradient>
<linearGradient id="paint4_linear_1735_426" x1="66.855" y1="59.8491" x2="70.5059" y2="70.1429" gradientUnits="userSpaceOnUse">
<stop stop-color="#15548F"/>
<stop offset="0.4179" stop-color="#243A5E"/>
<stop offset="0.9677" stop-color="#1A2C45"/>
</linearGradient>
<linearGradient id="paint5_linear_1735_426" x1="37.0622" y1="38.1836" x2="36.6996" y2="75.0477" gradientUnits="userSpaceOnUse">
<stop offset="0.244792" stop-color="#0965BA"/>
<stop offset="0.479167" stop-color="#15548F"/>
<stop offset="0.692708" stop-color="#243A5E"/>
<stop offset="0.9677" stop-color="#1A2C45"/>
</linearGradient>
<linearGradient id="paint6_linear_1735_426" x1="49.1493" y1="18.6034" x2="48.2194" y2="74.1719" gradientUnits="userSpaceOnUse">
<stop offset="0.244792" stop-color="#0965BA"/>
<stop offset="0.479167" stop-color="#15548F"/>
<stop offset="0.692708" stop-color="#243A5E"/>
<stop offset="0.9677" stop-color="#1A2C45"/>
</linearGradient>
<linearGradient id="paint7_linear_1735_426" x1="54.401" y1="22.0163" x2="114.873" y2="87.0551" gradientUnits="userSpaceOnUse">
<stop stop-color="#007ED8"/>
<stop offset="0.7065" stop-color="#002D4C"/>
</linearGradient>
</defs>
</svg>
