<svg width="180" height="190" viewBox="0 0 180 190" fill="none" xmlns="http://www.w3.org/2000/svg">
<g clip-path="url(#clip0_2141_2056)">
<path d="M90.1859 189.742C93.2459 189.742 96.2559 188.892 98.9159 187.272L160.886 149.612C166.426 146.242 169.856 139.912 169.856 133.072V58.3623C169.856 51.5423 166.426 45.2023 160.886 41.8223L98.9159 4.16225C93.5859 0.922252 86.7659 0.942252 81.4659 4.16225L19.4959 41.8423C13.9559 45.2123 10.5059 51.5423 10.5059 58.3823V133.082C10.5059 138.842 12.9559 144.262 17.0559 147.832V147.862L81.4659 187.292C84.1059 188.892 87.1259 189.742 90.1859 189.742ZM90.8359 8.69225C92.7859 8.69225 95.2659 9.90225 96.9759 10.9523L157.736 48.1423C161.486 50.4223 163.606 57.0223 163.606 61.7723L162.976 133.072C162.976 137.822 159.776 142.092 156.026 144.372L95.6259 180.752C92.1959 182.842 89.4059 182.842 85.9659 180.752L24.7559 144.282C21.0059 142.002 17.9859 137.802 17.9859 133.072V59.4323C17.9859 54.6923 20.7159 49.8023 24.4859 47.5123L85.0659 10.9523C86.7659 9.91225 88.8859 8.69225 90.8359 8.69225Z" fill="#F2F1F0"/>
<path fill-rule="evenodd" clip-rule="evenodd" d="M98.0856 12.2717C95.6356 10.7717 92.9156 10.0217 90.1856 10.0217C87.4556 10.0217 84.7356 10.7817 82.2856 12.2717L26.1556 46.6017C21.1356 49.6717 18.0256 55.4217 18.0256 61.6717V129.772C18.0256 136.002 21.1256 141.772 26.1556 144.842L82.2856 179.172C84.7356 180.672 87.4556 181.422 90.1856 181.422C92.9156 181.422 95.6356 180.682 98.0856 179.172L154.216 144.842C159.236 141.772 162.346 136.002 162.346 129.772V61.6717C162.346 55.4417 159.246 49.6917 154.216 46.6017L98.0856 12.2717Z" fill="url(#paint0_linear_2141_2056)"/>
<path fill-rule="evenodd" clip-rule="evenodd" d="M90.1856 11.492C91.8656 11.492 93.7556 12.362 95.8156 13.612L154.286 49.152C157.936 51.372 160.346 55.642 160.346 60.472V130.952C160.346 135.772 157.936 140.052 154.286 142.272L95.8256 177.812C93.8656 179.002 91.9456 179.752 90.1956 179.752C88.4456 179.752 86.5256 179.002 84.5656 177.812L26.0856 142.282C24.0756 141.052 22.6256 139.852 21.6456 138.242C20.6656 136.642 20.0256 134.422 20.0256 130.962V60.482C20.0256 55.652 22.4356 51.382 26.0856 49.162L84.5456 13.622C86.6356 12.372 88.4956 11.492 90.1856 11.492ZM97.8956 181.242L156.356 145.702C161.276 142.712 164.336 137.092 164.336 130.962V60.482C164.336 54.352 161.276 48.732 156.356 45.742L97.8956 10.202C95.7856 8.92196 93.0756 7.49196 90.1856 7.49196C87.2856 7.49196 84.5756 8.93196 82.4856 10.192H82.4756L24.0056 45.742C19.0856 48.732 16.0256 54.352 16.0256 60.482V130.962C16.0256 134.922 16.7656 137.912 18.2256 140.322C19.6856 142.722 21.7456 144.322 24.0056 145.692L82.4656 181.232C84.6856 182.582 87.3556 183.762 90.1756 183.762C92.9956 183.762 95.6756 182.592 97.8956 181.242Z" fill="url(#paint1_radial_2141_2056)"/>
<g filter="url(#filter0_dddd_2141_2056)">
<path d="M136.397 90.2703C136.397 89.2709 135.572 88.4453 134.572 88.4453C133.92 88.4453 129.814 88.0759 127.62 86.3595C127.62 86.3595 127.641 86.3378 127.62 86.3595C126.794 83.3178 125.577 80.4933 124.057 77.7992C123.665 75.2572 126.316 73.4104 127.511 71.4115C127.728 71.0639 127.837 70.8684 127.924 70.738C128.141 70.0862 128.033 69.3475 127.511 68.8261C127.511 68.8261 125.49 65.9364 123.405 63.8724C121.319 61.8083 118.19 59.5053 118.19 59.5053C117.473 58.7883 116.322 58.7883 115.605 59.5053C115.127 59.9616 112.02 62.5471 109.195 62.9381C109.152 62.9381 109.152 62.9381 109.152 62.9381C106.545 61.4607 103.612 60.244 100.657 59.4184H100.613C98.5276 57.8975 99.0925 54.7254 98.5276 52.4659C98.5276 51.4664 97.702 50.6408 96.7026 50.6408C96.7026 50.6408 93.2263 50.0325 90.2932 50.0325C87.3601 50.0325 83.5145 50.6408 83.5145 50.6408C82.515 50.6408 81.6894 51.4664 81.6894 52.4659C81.6894 53.1177 81.3201 57.224 79.6037 59.4184C76.6923 60.244 73.6288 61.5259 71.0433 62.9816C68.5013 63.3727 66.6545 60.722 64.6557 59.527C64.3081 59.3098 64.1125 59.2011 63.9822 59.1142C63.3304 58.897 62.5917 59.0056 62.0702 59.527C62.0702 59.527 59.1806 61.5476 57.1165 63.6334C55.0525 65.7192 52.7495 68.8478 52.7495 68.8478C52.0325 69.5648 52.0325 70.7163 52.7495 71.4333C53.2057 71.8895 55.8564 75.0616 56.204 77.8209V77.8427C54.77 80.4281 53.4882 83.4699 52.6843 86.3813C52.6843 86.3813 52.7277 86.3378 52.6843 86.3813C50.9027 88.5539 47.9913 87.9021 45.7317 88.467C44.7323 88.467 43.9067 89.2926 43.9067 90.2921C43.9067 90.2921 43.2983 93.7683 43.2983 96.7014C43.2983 99.6345 43.9067 103.48 43.9067 103.48C43.9067 104.48 44.7323 105.305 45.7317 105.305C46.3835 105.305 50.4899 105.675 52.6843 107.391C52.7277 107.369 52.706 107.434 52.706 107.434C53.5533 110.346 54.7483 113.279 56.2257 115.864C56.204 115.908 56.2257 115.864 56.2475 115.951C56.4864 118.602 53.9879 120.34 52.7929 122.339C52.5756 122.687 52.467 122.882 52.3801 123.012C52.1628 123.664 52.2715 124.403 52.7929 124.924C52.7929 124.924 54.8135 127.814 56.8993 129.878C58.985 131.964 62.1137 134.245 62.1137 134.245C62.8307 134.962 63.9822 134.962 64.6991 134.245C65.1554 133.789 68.3275 131.138 71.0868 130.791C71.0868 130.791 71.0651 130.812 71.1303 130.812C73.7809 132.29 76.5402 133.463 79.5385 134.289C79.5602 134.31 79.6471 134.332 79.6471 134.332C81.7329 135.853 81.168 139.025 81.7329 141.285C81.8415 142.306 82.4064 142.958 83.5579 143.11C83.5579 143.11 87.0342 143.718 89.9673 143.718C92.9004 143.718 96.746 143.131 96.746 143.131C97.7455 142.958 98.5711 142.306 98.5711 141.306C98.5711 140.655 98.9404 136.548 100.657 134.354C100.657 134.354 100.722 134.289 100.809 134.223C103.872 133.376 106.197 132.42 108.891 130.878C109.022 130.834 108.87 130.834 109.195 130.791C111.737 130.4 113.584 133.05 115.583 134.245C115.931 134.462 116.126 134.571 116.257 134.658C116.908 134.875 117.647 134.767 118.169 134.245C118.169 134.245 121.058 132.225 123.122 130.139C125.208 128.053 127.489 124.924 127.489 124.924C128.206 124.207 128.206 123.056 127.489 122.339C127.033 121.883 124.382 118.711 124.035 115.951C123.991 115.669 124.013 115.625 124.057 115.56C125.599 112.844 126.577 110.846 127.402 107.76C127.402 107.76 127.359 107.652 127.555 107.391C129.075 105.305 132.247 105.87 134.507 105.305C135.506 105.305 136.332 104.48 136.332 103.48C136.332 103.48 136.94 100.004 136.94 97.0708C136.984 94.116 136.397 90.2703 136.397 90.2703Z" fill="white"/>
</g>
<path d="M112.092 101.848V95.1388H108.697V90.1138C108.697 89.4189 108.563 88.764 108.296 88.1493C108.029 87.5345 107.668 87.0133 107.214 86.5455C106.746 86.0911 106.211 85.7303 105.596 85.4764C104.982 85.2091 104.314 85.0888 103.605 85.0888H91.711V79.6228C92.2188 79.3288 92.6331 78.9145 92.9405 78.3933C93.2479 77.8721 93.4082 77.3108 93.4082 76.7094C93.4082 76.2417 93.3147 75.8006 93.141 75.3997C92.9672 74.9988 92.7267 74.638 92.4059 74.3439C92.0985 74.0366 91.7377 73.796 91.3234 73.6223C90.9091 73.4485 90.4815 73.355 90.0004 73.355C89.5192 73.355 89.0782 73.4352 88.6773 73.6223C88.263 73.796 87.9155 74.0366 87.5948 74.3439C87.2874 74.6513 87.0335 74.9988 86.8597 75.3997C86.686 75.8006 86.5925 76.2417 86.5925 76.7094C86.5925 77.3108 86.7528 77.8587 87.0602 78.3933C87.3676 78.9145 87.7819 79.3288 88.2897 79.6228V85.0888H76.3955C75.6872 85.0888 75.019 85.2225 74.4042 85.4764C73.7895 85.7437 73.2415 86.1045 72.7871 86.5455C72.3194 86.9999 71.9719 87.5345 71.7046 88.1493C71.4374 88.764 71.3037 89.4189 71.3037 90.1138V95.1388H67.9092V101.834H71.3037V110.214C71.3037 110.909 71.4374 111.563 71.7046 112.178C71.9719 112.793 72.3328 113.314 72.7871 113.782C73.2549 114.236 73.7895 114.597 74.4042 114.851C75.019 115.118 75.6872 115.239 76.3955 115.239H84.8952H96.5756H103.592C104.3 115.239 104.968 115.105 105.583 114.851C106.198 114.584 106.746 114.223 107.2 113.782C107.668 113.328 108.015 112.793 108.283 112.178C108.55 111.563 108.684 110.909 108.684 110.214V101.834H112.092V101.848Z" fill="url(#paint2_radial_2141_2056)"/>
<path d="M85.3494 98.9606H81.8613V95.4725H85.3494V98.9606Z" fill="white"/>
<path d="M98.1385 98.9606H94.6504V95.4725H98.1385V98.9606Z" fill="white"/>
<path d="M82.9974 102.449C83.9329 103.331 85.0021 103.999 86.2049 104.48C87.4077 104.948 88.6773 105.189 90.0003 105.189C91.3234 105.189 92.593 104.948 93.7958 104.48C94.9986 104.013 96.0677 103.331 97.0032 102.449L99.2885 104.641C98.0456 105.817 96.629 106.712 95.0119 107.34C93.4082 107.968 91.7243 108.276 89.9736 108.276C88.2229 108.276 86.539 107.968 84.9353 107.34C83.3316 106.712 81.9016 105.817 80.6587 104.641L82.9974 102.449Z" fill="white"/>
<path d="M102.483 36.7959C102.488 36.8063 102.477 36.8171 102.466 36.8113L87.5952 28.2237C86.9285 27.8387 86.0951 28.3198 86.0951 29.0896V33.2033C70.9144 34.1506 56.7504 40.4817 45.9136 51.3415C34.1295 63.1256 27.6367 78.7915 27.6367 95.451C27.6367 105.364 30.0166 115.276 34.5454 124.103C39.0973 132.929 45.775 140.623 53.8621 146.354C54.3704 146.723 54.9481 146.885 55.5257 146.885C56.4269 146.885 57.328 146.469 57.8826 145.661C58.8068 144.367 58.5064 142.564 57.1894 141.617C49.8648 136.418 43.7879 129.417 39.675 121.422C35.5621 113.428 33.3901 104.439 33.3901 95.4279C33.3901 80.3165 39.2822 66.0832 49.9803 55.3851C59.7311 45.6343 72.4394 39.8809 86.072 38.9567V44.505C86.072 45.2743 86.9045 45.7555 87.5711 45.3715L102.466 36.7909C102.472 36.7875 102.48 36.7898 102.483 36.7959V36.7959Z" fill="url(#paint3_radial_2141_2056)"/>
<path d="M146.933 70.0342C143.329 61.9701 138.153 54.8997 131.568 49.0307C130.389 47.9679 128.564 48.0603 127.478 49.2618C126.415 50.4633 126.508 52.2887 127.709 53.3516C133.694 58.6891 138.384 65.0895 141.642 72.391C144.923 79.6925 146.564 87.4561 146.564 95.4739C146.564 110.608 140.672 124.842 129.973 135.54C119.275 146.238 105.042 152.13 89.8844 152.13C89.792 152.13 89.7227 152.176 89.6303 152.176V146.93C89.6303 146.161 88.7969 145.679 88.1302 146.064L74.7264 153.805C74.0594 154.19 74.0599 155.153 74.7273 155.537L88.1311 163.258C88.7978 163.643 89.6303 163.161 89.6303 162.392V157.837C89.6303 157.837 89.792 157.883 89.8844 157.883C106.567 157.883 122.256 151.391 134.063 139.583C145.87 127.776 152.363 112.11 152.363 95.4277C152.363 86.6012 150.538 78.0289 146.933 69.9879V70.0342Z" fill="url(#paint4_radial_2141_2056)"/>
</g>
<defs>
<filter id="filter0_dddd_2141_2056" x="40.2983" y="48.0325" width="109.645" height="120.686" filterUnits="userSpaceOnUse" color-interpolation-filters="sRGB">
<feFlood flood-opacity="0" result="BackgroundImageFix"/>
<feColorMatrix in="SourceAlpha" type="matrix" values="0 0 0 0 0 0 0 0 0 0 0 0 0 0 0 0 0 0 127 0" result="hardAlpha"/>
<feOffset dy="1"/>
<feGaussianBlur stdDeviation="1.5"/>
<feColorMatrix type="matrix" values="0 0 0 0 0 0 0 0 0 0 0 0 0 0 0 0 0 0 0.1 0"/>
<feBlend mode="normal" in2="BackgroundImageFix" result="effect1_dropShadow_2141_2056"/>
<feColorMatrix in="SourceAlpha" type="matrix" values="0 0 0 0 0 0 0 0 0 0 0 0 0 0 0 0 0 0 127 0" result="hardAlpha"/>
<feOffset dx="2" dy="4"/>
<feGaussianBlur stdDeviation="2.5"/>
<feColorMatrix type="matrix" values="0 0 0 0 0 0 0 0 0 0 0 0 0 0 0 0 0 0 0.09 0"/>
<feBlend mode="normal" in2="effect1_dropShadow_2141_2056" result="effect2_dropShadow_2141_2056"/>
<feColorMatrix in="SourceAlpha" type="matrix" values="0 0 0 0 0 0 0 0 0 0 0 0 0 0 0 0 0 0 127 0" result="hardAlpha"/>
<feOffset dx="3" dy="10"/>
<feGaussianBlur stdDeviation="3"/>
<feColorMatrix type="matrix" values="0 0 0 0 0 0 0 0 0 0 0 0 0 0 0 0 0 0 0.05 0"/>
<feBlend mode="normal" in2="effect2_dropShadow_2141_2056" result="effect3_dropShadow_2141_2056"/>
<feColorMatrix in="SourceAlpha" type="matrix" values="0 0 0 0 0 0 0 0 0 0 0 0 0 0 0 0 0 0 127 0" result="hardAlpha"/>
<feOffset dx="6" dy="18"/>
<feGaussianBlur stdDeviation="3.5"/>
<feColorMatrix type="matrix" values="0 0 0 0 0 0 0 0 0 0 0 0 0 0 0 0 0 0 0.01 0"/>
<feBlend mode="normal" in2="effect3_dropShadow_2141_2056" result="effect4_dropShadow_2141_2056"/>
<feBlend mode="normal" in="SourceGraphic" in2="effect4_dropShadow_2141_2056" result="shape"/>
</filter>
<linearGradient id="paint0_linear_2141_2056" x1="50.1526" y1="18.9857" x2="135.601" y2="240.8" gradientUnits="userSpaceOnUse">
<stop offset="0.0996678" stop-color="#C5E4FF"/>
<stop offset="0.623265" stop-color="#69B7FC"/>
</linearGradient>
<radialGradient id="paint1_radial_2141_2056" cx="0" cy="0" r="1" gradientUnits="userSpaceOnUse" gradientTransform="translate(35.6587 51.4891) rotate(53.4697) scale(179.906 343.898)">
<stop offset="0.00520833" stop-color="#68B6FC"/>
<stop offset="0.33" stop-color="#3082F1"/>
<stop offset="0.675" stop-color="#1152D4"/>
<stop offset="1" stop-color="#0E45BD"/>
</radialGradient>
<radialGradient id="paint2_radial_2141_2056" cx="0" cy="0" r="1" gradientUnits="userSpaceOnUse" gradientTransform="translate(73.758 83.8092) rotate(47.1155) scale(46.8791 93.4203)">
<stop offset="0.00520833" stop-color="#68B6FC"/>
<stop offset="0.33" stop-color="#3082F1"/>
<stop offset="0.675" stop-color="#1152D4"/>
<stop offset="1" stop-color="#0E45BD"/>
</radialGradient>
<radialGradient id="paint3_radial_2141_2056" cx="0" cy="0" r="1" gradientUnits="userSpaceOnUse" gradientTransform="translate(44.1479 61.494) rotate(51.2377) scale(143.845 280.65)">
<stop offset="0.00520833" stop-color="#68B6FC"/>
<stop offset="0.33" stop-color="#3082F1"/>
<stop offset="0.675" stop-color="#1152D4"/>
<stop offset="1" stop-color="#0E45BD"/>
</radialGradient>
<radialGradient id="paint4_radial_2141_2056" cx="0" cy="0" r="1" gradientUnits="userSpaceOnUse" gradientTransform="translate(44.1479 61.494) rotate(51.2377) scale(143.845 280.65)">
<stop offset="0.00520833" stop-color="#68B6FC"/>
<stop offset="0.33" stop-color="#3082F1"/>
<stop offset="0.675" stop-color="#1152D4"/>
<stop offset="1" stop-color="#0E45BD"/>
</radialGradient>
<clipPath id="clip0_2141_2056">
<rect width="180" height="190" fill="white"/>
</clipPath>
</defs>
</svg>
