<svg width="100" height="100" viewBox="0 0 100 100" fill="none" xmlns="http://www.w3.org/2000/svg">
<g clip-path="url(#clip0_1439_3699)">
<path fill-rule="evenodd" clip-rule="evenodd" d="M95.54 49.6399C95.54 58.718 92.848 67.5923 87.8045 75.1405C82.7609 82.6888 75.5923 88.5719 67.2052 92.0459C58.818 95.52 49.5891 96.429 40.6854 94.6579C31.7816 92.8869 23.603 88.5153 17.1838 82.0961C10.7646 75.6768 6.39302 67.4982 4.62196 58.5945C2.85089 49.6908 3.75987 40.4618 7.23393 32.0747C10.708 23.6876 16.5911 16.519 24.1393 11.4754C31.6875 6.43186 40.5618 3.73987 49.64 3.73987C55.6677 3.73986 61.6363 4.92709 67.2052 7.23378C72.774 9.54046 77.834 12.9214 82.0962 17.1836C86.3584 21.4459 89.7394 26.5058 92.0461 32.0747C94.3528 37.6435 95.54 43.6122 95.54 49.6399V49.6399ZM49.64 -0.00010647C59.4579 -0.00010647 69.0552 2.91123 77.2185 8.36574C85.3818 13.8203 91.7442 21.573 95.5014 30.6435C99.2585 39.714 100.242 49.695 98.3262 59.3242C96.4108 68.9534 91.6831 77.7984 84.7408 84.7407C77.7985 91.683 68.9535 96.4107 59.3243 98.3261C49.6951 100.241 39.7141 99.2584 30.6436 95.5013C21.5731 91.7441 13.8203 85.3816 8.36584 77.2184C2.91133 69.0551 -3.61668e-06 59.4577 3.3895e-07 49.6399C-0.000761487 43.1208 1.2827 36.6655 3.77707 30.6426C6.27144 24.6196 9.92787 19.1471 14.5375 14.5374C19.1472 9.92775 24.6197 6.27133 30.6427 3.77695C36.6656 1.28258 43.121 -0.000870923 49.64 -0.00010647V-0.00010647Z" fill="#F2F1F0"/>
<path d="M49.6399 96.4497C40.3817 96.4497 31.3315 93.7043 23.6336 88.5608C15.9357 83.4172 9.93598 76.1065 6.39305 67.5531C2.85011 58.9997 1.92312 49.5877 3.7293 40.5075C5.53548 31.4272 9.99371 23.0865 16.5402 16.54C23.0867 9.99349 31.4275 5.53528 40.5077 3.72912C49.588 1.92295 58.9999 2.84996 67.5533 6.39291C76.1067 9.93586 83.4175 15.9356 88.561 23.6335C93.7045 31.3314 96.4499 40.3816 96.4499 49.6398C96.4503 55.7871 95.2398 61.8742 92.8875 67.5537C90.5352 73.2331 87.0873 78.3936 82.7405 82.7404C78.3937 87.0872 73.2332 90.5351 67.5538 92.8874C61.8743 95.2397 55.7871 96.4501 49.6399 96.4497Z" fill="url(#paint0_linear_1439_3699)"/>
<path fill-rule="evenodd" clip-rule="evenodd" d="M92.7298 49.6397C92.7298 58.1621 90.2026 66.4931 85.4678 73.5792C80.7331 80.6653 74.0033 86.1883 66.1296 89.4496C58.256 92.711 49.592 93.5644 41.2334 91.9017C32.8747 90.2391 25.1968 86.1352 19.1706 80.1089C13.1443 74.0827 9.04041 66.4048 7.37778 58.0461C5.71514 49.6875 6.56847 41.0235 9.82985 33.1498C13.0912 25.2762 18.6142 18.5464 25.7003 13.8117C32.7864 9.07686 41.1174 6.54968 49.6398 6.54968C55.2986 6.54933 60.902 7.66365 66.13 9.82901C71.3581 11.9944 76.1085 15.1683 80.1098 19.1697C84.1112 23.171 87.2851 27.9214 89.4505 33.1494C91.6158 38.3775 92.7302 43.9809 92.7298 49.6397ZM49.6398 2.80968C58.9019 2.80968 67.956 5.55621 75.6572 10.702C83.3583 15.8477 89.3606 23.1615 92.9051 31.7186C96.4495 40.2757 97.3769 49.6916 95.57 58.7758C93.763 67.8599 89.3029 76.2042 82.7536 82.7535C76.2043 89.3028 67.86 93.7629 58.7759 95.5699C49.6918 97.3768 40.2758 96.4494 31.7187 92.905C23.1617 89.3605 15.8478 83.3582 10.7021 75.657C5.55635 67.9559 2.80981 58.9018 2.80981 49.6397C2.811 37.22 7.74525 25.3093 16.5273 16.5272C25.3094 7.74512 37.2201 2.81089 49.6398 2.80971V2.80968Z" fill="url(#paint1_linear_1439_3699)"/>
<path d="M26.0457 46.0619V72.7131C26.0457 74.5523 26.7764 76.3161 28.0769 77.6166C29.3774 78.9172 31.1413 79.6478 32.9805 79.6479H37.1541V61.814C37.1542 61.2495 37.3784 60.708 37.7776 60.3088C38.1768 59.9096 38.7182 59.6853 39.2828 59.6853H46.7949C47.0745 59.6853 47.3513 59.7403 47.6095 59.8473C47.8678 59.9543 48.1025 60.1111 48.3001 60.3088C48.4978 60.5064 48.6546 60.7411 48.7615 60.9994C48.8685 61.2577 48.9236 61.5345 48.9235 61.814V79.6479H66.2979C67.2086 79.6479 68.1103 79.4685 68.9517 79.12C69.7931 78.7715 70.5576 78.2607 71.2015 77.6168C71.8455 76.9728 72.3563 76.2083 72.7048 75.3669C73.0533 74.5255 73.2326 73.6237 73.2326 72.7131V46.0619H26.0457Z" fill="#F4F3F5"/>
<path d="M74.8377 41.6425L62.2382 34.8102H37.0392L24.4397 41.6425H74.8377Z" fill="#C5B4E3"/>
<path d="M24.4397 41.6449H37.0392V47.9447C37.0392 48.772 36.8763 49.5912 36.5597 50.3555C36.2431 51.1198 35.779 51.8143 35.194 52.3993C34.6091 52.9843 33.9146 53.4483 33.1503 53.7649C32.3859 54.0815 31.5667 54.2444 30.7394 54.2444C29.9122 54.2444 29.093 54.0815 28.3286 53.7649C27.5643 53.4483 26.8698 52.9843 26.2849 52.3993C25.6999 51.8143 25.2358 51.1198 24.9192 50.3555C24.6026 49.5912 24.4397 48.772 24.4397 47.9447V41.6449Z" fill="#8661C5"/>
<path d="M37.0393 41.6449H49.6389V47.9447C49.6389 49.6155 48.9752 51.2178 47.7937 52.3993C46.6123 53.5807 45.0099 54.2444 43.3391 54.2444C41.6683 54.2444 40.066 53.5807 38.8846 52.3993C37.7031 51.2178 37.0394 49.6155 37.0394 47.9447V41.6449H37.0393Z" fill="#D7D2CB"/>
<path d="M49.6389 41.6449H62.2384V47.9447C62.2384 49.6155 61.5747 51.2178 60.3933 52.3993C59.2118 53.5807 57.6095 54.2444 55.9387 54.2444C54.2679 54.2444 52.6655 53.5807 51.4841 52.3993C50.3026 51.2178 49.6389 49.6155 49.6389 47.9447V41.6449Z" fill="#8661C5"/>
<path d="M62.238 41.6449H74.8375V47.9447C74.8375 49.6155 74.1738 51.2178 72.9924 52.3993C71.8109 53.5807 70.2086 54.2444 68.5378 54.2444C66.867 54.2444 65.2646 53.5807 64.0832 52.3993C62.9018 51.2178 62.238 49.6155 62.238 47.9447V41.6449Z" fill="#D7D2CB"/>
<path opacity="0.3" d="M49.6391 39.0674C53.5868 39.0674 56.7871 38.691 56.7871 38.2265C56.7871 37.7621 53.5868 37.3856 49.6391 37.3856C45.6913 37.3856 42.491 37.7621 42.491 38.2265C42.4909 38.691 45.6913 39.0674 49.6391 39.0674Z" fill="#463668"/>
<path d="M49.4793 29.6176C47.9487 29.6176 46.4526 29.1637 45.18 28.3134C43.9074 27.4631 42.9155 26.2545 42.3298 24.8404C41.7441 23.4264 41.5908 21.8704 41.8894 20.3693C42.188 18.8682 42.925 17.4893 44.0073 16.407C45.0895 15.3248 46.4684 14.5878 47.9695 14.2892C49.4707 13.9906 51.0266 14.1438 52.4407 14.7295C53.8547 15.3152 55.0633 16.3071 55.9136 17.5797C56.7639 18.8523 57.2178 20.3485 57.2178 21.879C57.2155 23.9307 56.3994 25.8977 54.9487 27.3484C53.4979 28.7992 51.5309 29.6152 49.4793 29.6176V29.6176ZM49.4793 16.5277C48.4209 16.5277 47.3862 16.8415 46.5062 17.4296C45.6262 18.0176 44.9403 18.8533 44.5353 19.8312C44.1303 20.809 44.0243 21.885 44.2308 22.923C44.4373 23.9611 44.9469 24.9146 45.6953 25.663C46.4437 26.4114 47.3972 26.921 48.4353 27.1275C49.4734 27.334 50.5493 27.228 51.5272 26.823C52.505 26.418 53.3407 25.7321 53.9288 24.852C54.5168 23.972 54.8306 22.9374 54.8306 21.879C54.8289 20.4603 54.2646 19.1001 53.2614 18.0969C52.2582 17.0937 50.898 16.5294 49.4793 16.5277Z" fill="white"/>
<path d="M58.5306 32.1246C58.3739 32.1248 58.2186 32.0941 58.0738 32.034C57.9289 31.974 57.7974 31.8859 57.6868 31.7748L53.2633 27.3513C53.0395 27.1275 52.9138 26.824 52.9138 26.5075C52.9138 26.191 53.0396 25.8875 53.2634 25.6637C53.4872 25.4399 53.7907 25.3141 54.1072 25.3141C54.4237 25.3142 54.7272 25.4399 54.951 25.6637L59.3745 30.0872C59.5413 30.2541 59.6549 30.4667 59.701 30.6982C59.747 30.9297 59.7234 31.1696 59.633 31.3877C59.5427 31.6057 59.3898 31.7921 59.1936 31.9233C58.9974 32.0545 58.7667 32.1245 58.5307 32.1246H58.5306Z" fill="white"/>
<path opacity="0.6" d="M49.4793 27.2304C52.4347 27.2304 54.8306 24.8345 54.8306 21.879C54.8306 18.9236 52.4347 16.5277 49.4793 16.5277C46.5238 16.5277 44.1279 18.9236 44.1279 21.879C44.1279 24.8345 46.5238 27.2304 49.4793 27.2304Z" fill="white"/>
<path d="M71.343 66.9959C71.3435 67.166 71.3165 67.335 71.2629 67.4963C71.2077 67.6596 71.1191 67.8096 71.0027 67.9367L63.9071 76.5635C63.7669 76.7334 63.5913 76.8708 63.3925 76.9658C63.1937 77.0609 62.9766 77.1114 62.7562 77.1139C62.5562 77.1181 62.3577 77.0771 62.1758 76.9938C62.0042 76.9105 61.8458 76.8026 61.7054 76.6736C61.5597 76.5414 61.4289 76.3937 61.3151 76.2332C61.2017 76.0731 61.0782 75.9163 60.9448 75.7628C60.818 75.923 60.6979 76.0798 60.5845 76.2332C60.475 76.3821 60.3546 76.5226 60.2242 76.6535C60.0975 76.7803 59.9482 76.8821 59.7839 76.9538C59.5966 77.0315 59.3961 77.0722 59.1934 77.0739C58.968 77.0742 58.7454 77.0228 58.5429 76.9238C58.341 76.8275 58.1632 76.6873 58.0225 76.5134L51.2072 67.9167C50.9949 67.6534 50.8816 67.3241 50.8869 66.9859C50.8869 66.8192 50.9139 66.6536 50.967 66.4955C51.0202 66.3356 51.1015 66.1865 51.2072 66.0552L58.0225 57.4684C58.1587 57.2915 58.3332 57.1478 58.5329 57.0481C58.7382 56.9468 58.9645 56.8954 59.1934 56.898C59.3826 56.8925 59.571 56.9262 59.7466 56.9968C59.9222 57.0674 60.0814 57.1734 60.2142 57.3083C60.3461 57.4408 60.4697 57.5812 60.5845 57.7286C60.7046 57.8821 60.8247 58.0422 60.9448 58.209C61.0716 58.0556 61.195 57.8988 61.3151 57.7387C61.4311 57.583 61.5618 57.4389 61.7054 57.3083C61.8445 57.1823 61.9992 57.0746 62.1658 56.9881C62.3492 56.8976 62.5518 56.8529 62.7562 56.858C62.9743 56.856 63.19 56.9039 63.3867 56.9981C63.5871 57.0968 63.7644 57.2366 63.9071 57.4084L67.9903 62.3723L71.0027 66.0352C71.226 66.3052 71.3465 66.6456 71.343 66.9959V66.9959ZM59.5437 62.002C59.5464 62.0495 59.5639 62.095 59.5937 62.1321L62.7562 65.9751L65.6985 62.3923C65.75 62.3275 65.8069 62.2673 65.8686 62.2121C65.9322 62.1564 66.0029 62.1093 66.0788 62.072L62.9163 58.229C62.8977 58.2042 62.8735 58.184 62.8457 58.1701C62.8179 58.1562 62.7872 58.149 62.7562 58.149C62.7251 58.149 62.6945 58.1562 62.6667 58.1701C62.6389 58.184 62.6147 58.2042 62.5961 58.229L59.5937 61.8619C59.5626 61.9021 59.5451 61.9512 59.5437 62.002V62.002ZM60.1141 74.752L58.603 72.9206C58.377 72.6561 58.2559 72.3177 58.2627 71.9698C58.2622 71.7998 58.2892 71.6308 58.3428 71.4695C58.3993 71.3038 58.4877 71.1508 58.603 71.0191L61.8155 67.126C61.8444 67.0852 61.8585 67.0358 61.8555 66.9859C61.8576 66.9392 61.8435 66.8932 61.8155 66.8558L58.603 62.9528C58.383 62.6848 58.2627 62.3488 58.2627 62.002C58.2627 61.6553 58.383 61.3193 58.603 61.0513L60.1142 59.2198L59.3636 58.2591C59.3183 58.2142 59.2572 58.189 59.1935 58.189C59.1297 58.189 59.0686 58.2142 59.0233 58.2591L52.218 66.8558C52.1882 66.8929 52.1707 66.9384 52.168 66.9859C52.1664 67.0097 52.1698 67.0336 52.178 67.056C52.1897 67.077 52.2031 67.0971 52.218 67.116L59.0233 75.7127C59.044 75.7378 59.07 75.7579 59.0994 75.7718C59.1288 75.7856 59.161 75.7928 59.1935 75.7928C59.226 75.7928 59.2581 75.7856 59.2875 75.7718C59.3169 75.7579 59.3429 75.7378 59.3636 75.7127L60.1141 74.752ZM66.0788 71.9098C65.9359 71.8197 65.8077 71.7084 65.6985 71.5795L62.7562 67.9967L59.5937 71.8397C59.5626 71.8799 59.5451 71.929 59.5437 71.9798C59.5465 72.0273 59.5639 72.0728 59.5937 72.1099L62.5961 75.7527C62.6147 75.7776 62.6389 75.7978 62.6667 75.8117C62.6945 75.8256 62.7251 75.8328 62.7562 75.8328C62.7873 75.8328 62.8179 75.8256 62.8457 75.8117C62.8735 75.7978 62.8977 75.7776 62.9163 75.7527L66.0788 71.9098ZM70.062 66.9659C70.0613 66.9488 70.0579 66.932 70.052 66.9159C70.0435 66.8931 70.0298 66.8725 70.012 66.8559L67.0096 63.203C66.9915 63.1807 66.9686 63.1628 66.9426 63.1507C66.9166 63.1386 66.8881 63.1325 66.8594 63.133C66.8267 63.1313 66.7941 63.1378 66.7644 63.1518C66.7347 63.1657 66.7089 63.1868 66.6893 63.213L63.697 66.8558C63.6672 66.8929 63.6497 66.9384 63.647 66.9859C63.6484 67.0368 63.6659 67.0858 63.697 67.126L66.6894 70.7589C66.7074 70.7844 66.7315 70.805 66.7594 70.8189C66.7873 70.8329 66.8183 70.8398 66.8495 70.839C66.8822 70.8406 66.9149 70.8341 66.9445 70.8202C66.9742 70.8062 67 70.7852 67.0196 70.7589L70.0119 67.126C70.0472 67.0803 70.0649 67.0235 70.062 66.9659V66.9659Z" fill="url(#paint2_linear_1439_3699)"/>
<path opacity="0.2" d="M59.5585 62.002C59.5613 62.0495 59.5787 62.095 59.6085 62.1321L62.771 65.9751L65.7133 62.3923C65.7649 62.3275 65.8218 62.2673 65.8835 62.2121C65.9471 62.1564 66.0177 62.1093 66.0936 62.072L62.9312 58.229C62.9125 58.2042 62.8883 58.184 62.8605 58.1701C62.8328 58.1562 62.8021 58.149 62.771 58.149C62.74 58.149 62.7093 58.1562 62.6815 58.1701C62.6537 58.184 62.6296 58.2042 62.6109 58.229L59.6086 61.8619C59.5775 61.9021 59.56 61.9512 59.5585 62.002V62.002ZM60.129 74.752L58.6178 72.9206C58.3918 72.6561 58.2707 72.3177 58.2775 71.9698C58.277 71.7998 58.304 71.6308 58.3576 71.4695C58.4141 71.3038 58.5025 71.1508 58.6178 71.0191L61.8303 67.126C61.8593 67.0852 61.8734 67.0358 61.8703 66.9859C61.8725 66.9392 61.8583 66.8932 61.8303 66.8558L58.6178 62.9527C58.3978 62.6847 58.2775 62.3487 58.2775 62.002C58.2775 61.6552 58.3978 61.3192 58.6178 61.0512L60.129 59.2198L59.3784 58.2591C59.3331 58.2142 59.272 58.189 59.2082 58.189C59.1445 58.189 59.0834 58.2142 59.0381 58.2591L52.2327 66.8558C52.2029 66.8929 52.1855 66.9384 52.1827 66.9859C52.1812 67.0097 52.1846 67.0336 52.1927 67.056C52.2045 67.077 52.2178 67.0971 52.2327 67.116L59.0381 75.7127C59.0588 75.7378 59.0848 75.7579 59.1142 75.7718C59.1436 75.7856 59.1757 75.7928 59.2082 75.7928C59.2407 75.7928 59.2728 75.7856 59.3022 75.7718C59.3317 75.7579 59.3577 75.7378 59.3784 75.7127L60.129 74.752ZM66.0937 71.9098C65.9508 71.8197 65.8225 71.7084 65.7134 71.5795L62.7711 67.9967L59.6086 71.8397C59.5775 71.8799 59.56 71.929 59.5586 71.9798C59.5613 72.0273 59.5788 72.0728 59.6086 72.1099L62.611 75.7528C62.6296 75.7777 62.6538 75.7979 62.6816 75.8118C62.7094 75.8256 62.74 75.8329 62.7711 75.8329C62.8022 75.8329 62.8328 75.8256 62.8606 75.8118C62.8884 75.7979 62.9126 75.7777 62.9312 75.7528L66.0937 71.9098ZM70.0768 66.9659C70.0761 66.9488 70.0727 66.9319 70.0668 66.9159C70.0583 66.893 70.0446 66.8725 70.0268 66.8559L67.0244 63.203C67.0063 63.1807 66.9834 63.1628 66.9574 63.1507C66.9314 63.1386 66.903 63.1325 66.8743 63.1329C66.8415 63.1313 66.8089 63.1378 66.7792 63.1518C66.7496 63.1657 66.7238 63.1868 66.7042 63.213L63.7118 66.8559C63.682 66.893 63.6645 66.9385 63.6618 66.986C63.6632 67.0368 63.6807 67.0859 63.7118 67.1261L66.7042 70.7589C66.7222 70.7844 66.7463 70.805 66.7742 70.819C66.8022 70.833 66.8331 70.8398 66.8643 70.839C66.897 70.8406 66.9297 70.8342 66.9593 70.8202C66.989 70.8062 67.0148 70.7852 67.0344 70.7589L70.0268 67.126C70.062 67.0803 70.0797 67.0235 70.0768 66.9659V66.9659Z" fill="url(#paint3_linear_1439_3699)"/>
</g>
<defs>
<linearGradient id="paint0_linear_1439_3699" x1="49.6398" y1="91.4709" x2="49.6398" y2="9.09945" gradientUnits="userSpaceOnUse">
<stop stop-color="#936BD9"/>
<stop offset="1" stop-color="#D2C0F2"/>
</linearGradient>
<linearGradient id="paint1_linear_1439_3699" x1="50.8009" y1="85.0923" x2="48.4072" y2="12.0026" gradientUnits="userSpaceOnUse">
<stop stop-color="#8661C5"/>
<stop offset="1" stop-color="#FFB3BB"/>
</linearGradient>
<linearGradient id="paint2_linear_1439_3699" x1="61.1149" y1="77.1139" x2="61.1149" y2="56.858" gradientUnits="userSpaceOnUse">
<stop stop-color="#463668"/>
<stop offset="1" stop-color="#8661C5"/>
</linearGradient>
<linearGradient id="paint3_linear_1439_3699" x1="61.1298" y1="75.8329" x2="61.1298" y2="58.149" gradientUnits="userSpaceOnUse">
<stop stop-color="#463668"/>
<stop offset="1" stop-color="#8661C5"/>
</linearGradient>
<clipPath id="clip0_1439_3699">
<rect width="99.2799" height="99.28" fill="white"/>
</clipPath>
</defs>
</svg>
