<svg width="103" height="102" viewBox="0 0 103 102" fill="none" xmlns="http://www.w3.org/2000/svg">
<g clip-path="url(#clip0_1504_362)">
<path d="M50.5892 96.851C24.9927 96.851 4.23816 76.1064 4.23816 50.4999C4.23816 24.8935 24.9927 4.14886 50.5892 4.14886C76.1858 4.14886 96.9403 24.9034 96.9403 50.4999C96.9403 76.0965 76.1858 96.851 50.5892 96.851Z" fill="url(#paint0_linear_1504_362)"/>
<path fill-rule="evenodd" clip-rule="evenodd" d="M96.0395 50.5003C96.0395 75.6018 75.691 95.9503 50.5895 95.9503C25.488 95.9503 5.13949 75.6018 5.13949 50.5003C5.13949 25.3988 25.488 5.05032 50.5895 5.05032C75.691 5.05032 96.0395 25.3988 96.0395 50.5003ZM50.5895 1.34698C77.7407 1.34698 99.7428 23.3491 99.7428 50.5003C99.7428 77.6515 77.7308 99.6537 50.5895 99.6537C23.4383 99.6537 1.43616 77.6416 1.43616 50.5003C1.43616 23.3491 23.4383 1.34698 50.5895 1.34698Z" fill="#F2F1F0"/>
<path fill-rule="evenodd" clip-rule="evenodd" d="M93.2568 50.4999C93.2568 74.0666 74.1559 93.1675 50.5893 93.1675C27.0226 93.1675 7.92172 74.0666 7.92172 50.4999C7.92172 26.9332 27.0226 7.83237 50.5893 7.83237C74.1559 7.83237 93.2568 26.9332 93.2568 50.4999ZM50.5893 4.12903C76.1957 4.12903 96.9601 24.8934 96.9601 50.4999C96.9601 76.1064 76.1957 96.8708 50.5893 96.8708C24.9828 96.8708 4.21838 76.1064 4.21838 50.4999C4.21838 24.8934 24.9729 4.12903 50.5893 4.12903Z" fill="url(#paint1_linear_1504_362)"/>
<path opacity="0.15" d="M53.0976 28.6426L19.341 28.3632C18.6082 28.3559 18.0133 28.9515 18.0133 29.6941L17.6506 74.3409C17.6433 75.0835 18.231 75.6864 18.9637 75.6864L52.7203 75.9658C53.4531 75.9732 54.048 75.3776 54.048 74.635L54.4107 29.9809C54.4035 29.2529 53.8158 28.65 53.0976 28.6426Z" fill="#1F1D20"/>
<g filter="url(#filter0_ddddd_1504_362)">
<path d="M53.1048 27.2306L19.3482 26.9512C18.6155 26.9439 18.0206 27.5321 18.0206 28.2748L17.6506 72.9215C17.6433 73.6642 18.231 74.2671 18.9637 74.2671L52.7203 74.5465C53.4531 74.5539 54.048 73.9583 54.048 73.2156L54.4107 28.5615C54.4107 27.8409 53.8303 27.238 53.1048 27.2306Z" fill="#F2F2F2"/>
</g>
<path fill-rule="evenodd" clip-rule="evenodd" d="M39.4948 24.6939C39.502 23.5983 38.9507 22.5616 37.993 22.0395C35.5264 20.7013 33.038 22.4586 33.009 24.8336V24.9072C33.009 25.0101 33.009 25.0983 33.0162 25.1939L31.0865 25.1792C29.6428 25.1645 28.5473 26.7454 29.4106 28.2968C29.7153 28.841 30.2957 29.1571 30.9123 29.1645L41.381 29.2454C42.8247 29.2601 43.9202 27.6792 43.0569 26.1277C42.7522 25.5836 42.1718 25.2675 41.5552 25.2601L39.4803 25.2454C39.4814 25.2296 39.4825 25.2143 39.4836 25.1994C39.4896 25.1171 39.4948 25.0458 39.4948 24.9586V24.6939ZM37.5796 25.0468C37.5724 25.7968 36.9702 26.3997 36.2303 26.3924C35.4903 26.385 34.9099 25.7747 34.9026 25.0247C34.9099 24.2747 35.512 23.6718 36.252 23.6791C36.992 23.6865 37.5869 24.2968 37.5796 25.0468Z" fill="#243A5E"/>
<g filter="url(#filter1_ddddd_1504_362)">
<path d="M48.4156 30.5392H23.4143C21.7575 30.5392 20.4143 31.8824 20.4143 33.5392V68.2375C20.4143 69.8943 21.7575 71.2375 23.4143 71.2375H48.4156C50.0725 71.2375 51.4156 69.8943 51.4156 68.2375V33.5392C51.4156 31.8824 50.0725 30.5392 48.4156 30.5392Z" fill="white"/>
</g>
<path d="M28.4433 54.752C28.5556 54.6412 28.5563 54.4601 28.4447 54.3486V54.3486C28.3342 54.2381 28.1553 54.2375 28.0441 54.3472L26.3475 56.0204L25.9455 55.6184C25.8359 55.5088 25.6585 55.5081 25.548 55.6168V55.6168C25.4364 55.7267 25.4357 55.9065 25.5465 56.0173L25.9965 56.4673C26.1907 56.6616 26.5054 56.6627 26.7011 56.4698L28.4433 54.752Z" fill="#81D90D"/>
<path d="M28.4433 61.9527C28.5556 61.8419 28.5563 61.6608 28.4447 61.5492V61.5492C28.3342 61.4388 28.1553 61.4381 28.0441 61.5479L26.3475 63.2211L25.9455 62.819C25.8359 62.7095 25.6585 62.7088 25.548 62.8175V62.8175C25.4364 62.9274 25.4357 63.1072 25.5465 63.218L25.9965 63.668C26.1907 63.8623 26.5054 63.8634 26.7011 63.6705L28.4433 61.9527Z" fill="#0C4E14"/>
<path d="M28.4433 58.3527C28.5556 58.2419 28.5563 58.0608 28.4447 57.9493V57.9493C28.3342 57.8388 28.1553 57.8382 28.0441 57.9479L26.3475 59.6211L25.9455 59.2191C25.8359 59.1095 25.6585 59.1088 25.548 59.2175V59.2175C25.4364 59.3274 25.4357 59.5073 25.5465 59.618L25.9965 60.068C26.1907 60.2623 26.5054 60.2634 26.7011 60.0705L28.4433 58.3527Z" fill="#4AA711"/>
<g filter="url(#filter2_ddddd_1504_362)">
<path d="M46.7157 55.5604C46.7157 55.0672 46.3164 54.668 45.8232 54.668H42.2159C41.7227 54.668 41.3235 55.0672 41.3235 55.5604C41.3235 56.0536 41.7227 56.4528 42.2159 56.4528H45.8232C46.3211 56.4528 46.7157 56.0536 46.7157 55.5604Z" fill="#F3FBC0"/>
</g>
<g filter="url(#filter3_ddddd_1504_362)">
<path d="M46.7157 62.7423C46.7157 62.2491 46.3164 61.8499 45.8232 61.8499H34.0807C33.5875 61.8499 33.1882 62.2491 33.1882 62.7423C33.1882 63.2355 33.5875 63.6347 34.0807 63.6347H45.8186C46.3211 63.6347 46.7157 63.2355 46.7157 62.7423Z" fill="#CEF885"/>
</g>
<g filter="url(#filter4_ddddd_1504_362)">
<path d="M46.7157 59.1773C46.7157 58.6841 46.3164 58.2849 45.8232 58.2849H37.1086C36.6154 58.2849 36.2162 58.6841 36.2162 59.1773C36.2162 59.6705 36.6154 60.0697 37.1086 60.0697H45.8326C46.3211 60.0697 46.7157 59.6658 46.7157 59.1773Z" fill="#DFF99F"/>
</g>
<path d="M29.6138 62.7423C29.6138 63.2355 30.013 63.6347 30.5062 63.6347H34.1182C34.6114 63.6347 35.0107 63.2355 35.0107 62.7423C35.0107 62.2491 34.6114 61.8499 34.1182 61.8499H30.5109C30.0177 61.8499 29.6138 62.2491 29.6138 62.7423Z" fill="#0C4E14"/>
<path d="M29.6138 55.5604C29.6138 56.0536 30.013 56.4528 30.5062 56.4528H42.2441C42.7373 56.4528 43.1365 56.0536 43.1365 55.5604C43.1365 55.0672 42.7373 54.668 42.2441 54.668H30.5109C30.0177 54.668 29.6138 55.0672 29.6138 55.5604Z" fill="#81D90D"/>
<path d="M29.6138 59.1773C29.6138 59.6705 30.013 60.0697 30.5062 60.0697H37.7443C38.2375 60.0697 38.6368 59.6705 38.6368 59.1773C38.6368 58.6841 38.2375 58.2849 37.7443 58.2849H30.5109C30.0177 58.2849 29.6138 58.6935 29.6138 59.1773Z" fill="#4AA711"/>
<path d="M36.0304 52.1373C31.0368 52.1373 26.9887 48.0891 26.9887 43.0955C26.9887 38.1019 31.0368 34.0538 36.0304 34.0538C41.024 34.0538 45.0721 38.1019 45.0721 43.0955C45.0721 48.0891 41.024 52.1373 36.0304 52.1373Z" fill="#0C4E14"/>
<g filter="url(#filter5_ddddd_1504_362)">
<path d="M32.3068 36.5533C33.4037 35.9293 34.6755 35.5716 36.0308 35.5716C40.188 35.5716 43.5582 38.9419 43.5582 43.0991C43.5582 44.5577 43.1449 45.9169 42.4255 47.0734L42.3341 46.986C42.823 46.1156 43.1012 45.1141 43.1012 44.045C43.1012 40.7184 40.4065 38.0238 37.08 38.0238C36.2573 38.0238 35.4743 38.1907 34.759 38.4888L32.3068 36.5533Z" fill="url(#paint2_linear_1504_362)"/>
</g>
<g filter="url(#filter6_ddddd_1504_362)">
<path d="M29.5721 39.2241L31.4996 41.7677C31.2135 42.4672 31.0545 43.2382 31.0545 44.041C31.0545 44.6093 31.134 45.1618 31.281 45.6824L29.6953 47.1728C28.9362 45.9964 28.499 44.6014 28.499 43.0991C28.499 41.6802 28.8924 40.3528 29.5721 39.2241Z" fill="url(#paint3_linear_1504_362)"/>
</g>
<g filter="url(#filter7_ddddd_1504_362)">
<path d="M30.4587 38.0315C30.3633 37.7096 30.6376 37.3877 30.9515 37.3877C30.9992 37.3877 31.0469 37.3956 31.0946 37.4115C31.1503 37.4314 31.2099 37.4592 31.2655 37.503L33.4594 39.2278L36.1182 41.3184L36.1063 41.4296L36.15 41.4614L34.3655 43.234L32.2512 40.448L30.5541 38.2104C30.5064 38.1508 30.4746 38.0912 30.4587 38.0315Z" fill="#F3FBC0"/>
<path d="M36.031 45.0307C34.9621 45.0307 34.0955 44.1641 34.0955 43.0952C34.0955 42.0262 34.9621 41.1597 36.031 41.1597C37.1 41.1597 37.9666 42.0262 37.9666 43.0952C37.9666 44.1641 37.1 45.0307 36.031 45.0307Z" fill="#F3FBC0"/>
</g>
<circle cx="68.3818" cy="50.65" r="14.3272" fill="url(#paint4_linear_1504_362)"/>
<path d="M90.5782 47.7082C90.5782 47.2189 90.1795 46.8201 89.6901 46.8201C89.3699 46.8201 87.3762 46.6449 86.3069 45.8112C86.3069 45.8112 86.3129 45.7991 86.3069 45.8112C85.9021 44.3371 85.31 42.9596 84.579 41.6546C84.3917 40.4161 85.6725 39.5159 86.2585 38.5493C86.3613 38.3801 86.4217 38.2835 86.4579 38.217C86.5667 37.9029 86.5063 37.5404 86.2585 37.2927C86.2585 37.2927 85.2738 35.885 84.2648 34.8821C83.2559 33.8792 81.7274 32.7615 81.7274 32.7615C81.383 32.4172 80.8151 32.4172 80.4708 32.7615C80.2412 32.9851 78.7248 34.2357 77.3594 34.435C77.3413 34.435 77.3413 34.435 77.3413 34.435C76.0726 33.7161 74.6468 33.124 73.2149 32.7192H73.1968C72.1879 31.9761 72.4537 30.4355 72.1879 29.336C72.1879 28.8466 71.7891 28.4479 71.2998 28.4479C71.2998 28.4479 69.6081 28.1519 68.1823 28.1519C66.7565 28.1519 64.8897 28.4479 64.8897 28.4479C64.4003 28.4479 64.0016 28.8466 64.0016 29.336C64.0016 29.6562 63.8264 31.6499 62.9927 32.7192C61.579 33.118 60.0927 33.7463 58.8361 34.4471C57.5976 34.6344 56.6974 33.3536 55.7308 32.7676C55.5616 32.6649 55.4649 32.6045 55.3985 32.5682C55.0843 32.4595 54.7218 32.5199 54.4741 32.7676C54.4741 32.7676 53.0665 33.7523 52.0636 34.7613C51.0607 35.7702 49.943 37.2987 49.943 37.2987C49.5986 37.6431 49.5986 38.211 49.943 38.5553C50.1665 38.7789 51.4534 40.3195 51.6225 41.6607V41.6728C50.9217 42.9294 50.3055 44.4096 49.9067 45.8233C49.9067 45.8233 49.9249 45.7991 49.9067 45.8233C49.0428 46.8745 47.623 46.5664 46.5235 46.8322C46.0341 46.8322 45.6354 47.231 45.6354 47.7203C45.6354 47.7203 45.3394 49.412 45.3394 50.8378C45.3394 52.2635 45.6354 54.1304 45.6354 54.1304C45.6354 54.6197 46.0341 55.0185 46.5235 55.0185C46.8437 55.0185 48.8374 55.1937 49.9067 56.0274C49.9309 56.0153 49.9188 56.0455 49.9188 56.0455C50.3296 57.4653 50.9157 58.8851 51.6286 60.1417C51.6165 60.1598 51.6286 60.1417 51.6346 60.184C51.7554 61.4769 50.5411 62.3227 49.9551 63.2893C49.8524 63.4585 49.792 63.5551 49.7557 63.6216C49.647 63.9358 49.7074 64.2983 49.9551 64.546C49.9551 64.546 50.9398 65.9536 51.9488 66.9565C52.9577 67.9655 54.4862 69.0771 54.4862 69.0771C54.8306 69.4215 55.3985 69.4215 55.7428 69.0771C55.9664 68.8536 57.507 67.5667 58.8482 67.3975C58.8482 67.3975 58.8421 67.4036 58.8663 67.4096C60.1592 68.1286 61.4944 68.6965 62.9564 69.0952C62.9685 69.1013 63.0108 69.1133 63.0108 69.1133C64.0197 69.8564 63.7539 71.397 64.0197 72.4966C64.0741 72.992 64.346 73.3062 64.9078 73.3847C64.9078 73.3847 66.5995 73.6807 68.0253 73.6807C69.451 73.6807 71.3179 73.3907 71.3179 73.3907C71.8072 73.3061 72.206 72.992 72.206 72.5026C72.206 72.1824 72.3812 70.1887 73.2149 69.1194C73.2149 69.1194 73.2512 69.0892 73.2874 69.059C74.7736 68.6421 75.9034 68.1829 77.2144 67.4278C77.2809 67.4036 77.2084 67.4096 77.3654 67.3855C78.6039 67.1982 79.5041 68.479 80.4708 69.065C80.6399 69.1677 80.7366 69.2281 80.8031 69.2644C81.1172 69.3731 81.4797 69.3127 81.7274 69.065C81.7274 69.065 83.1351 68.0802 84.138 67.0713C85.1469 66.0624 86.2585 64.5339 86.2585 64.5339C86.6029 64.1895 86.6029 63.6216 86.2585 63.2772C86.035 63.0537 84.7482 61.5131 84.579 60.1719C84.5609 60.0329 84.573 60.0148 84.5911 59.9786C85.3402 58.6555 85.8115 57.6888 86.2223 56.1905C86.2223 56.1905 86.2042 56.1422 86.3008 56.0153C87.0439 55.0064 88.5845 55.2722 89.6841 55.0064C90.1735 55.0064 90.5722 54.6077 90.5722 54.1183C90.5722 54.1183 90.8682 52.4267 90.8682 51.0009C90.8682 49.5751 90.5782 47.7082 90.5782 47.7082ZM81.2683 50.874C81.2683 58.1782 75.3476 64.1049 68.0373 64.1049C60.7271 64.1049 54.8064 58.1842 54.8064 50.874C54.8064 43.5698 60.7271 37.6431 68.0373 37.6431C75.3476 37.6431 81.2683 43.5698 81.2683 50.874Z" fill="url(#paint5_linear_1504_362)"/>
<path d="M80.822 69.2769C80.8154 69.2769 80.8154 69.2703 80.8088 69.2703C80.8154 69.2703 80.822 69.2769 80.822 69.2769Z" fill="url(#paint6_linear_1504_362)"/>
<path d="M80.8111 69.271C80.6836 69.1921 80.4772 69.0707 80.4772 69.0707C80.5743 69.1617 80.6896 69.2285 80.8111 69.271Z" fill="url(#paint7_linear_1504_362)"/>
<path d="M80.8213 69.2767C80.9388 69.3447 80.9141 69.3323 80.8213 69.2767V69.2767Z" fill="url(#paint8_linear_1504_362)"/>
<path d="M55.4043 32.5676C55.5318 32.6465 55.7382 32.7679 55.7382 32.7679C55.6411 32.6768 55.5257 32.6101 55.4043 32.5676Z" fill="url(#paint9_linear_1504_362)"/>
<path d="M55.3923 32.5617C55.3989 32.5617 55.3989 32.5683 55.4055 32.5683C55.3989 32.5683 55.3923 32.5617 55.3923 32.5617Z" fill="url(#paint10_linear_1504_362)"/>
<path d="M55.3941 32.5632C55.2766 32.4952 55.3013 32.5076 55.3941 32.5632V32.5632Z" fill="url(#paint11_linear_1504_362)"/>
<path d="M49.7504 63.6343C49.6823 63.7519 49.6947 63.7271 49.7504 63.6343V63.6343Z" fill="url(#paint12_linear_1504_362)"/>
<path d="M49.7495 63.6353C49.7495 63.6287 49.7561 63.6287 49.7561 63.6221C49.7561 63.6287 49.7495 63.6353 49.7495 63.6353Z" fill="url(#paint13_linear_1504_362)"/>
<path d="M49.7557 63.6233C49.8347 63.4958 49.9561 63.2894 49.9561 63.2894C49.865 63.3865 49.7982 63.5018 49.7557 63.6233Z" fill="url(#paint14_linear_1504_362)"/>
<path d="M86.459 38.2168C86.3801 38.3443 86.2587 38.5507 86.2587 38.5507C86.3497 38.4536 86.4165 38.3382 86.459 38.2168Z" fill="url(#paint15_linear_1504_362)"/>
<path d="M86.4645 38.2051C86.4645 38.2117 86.4579 38.2117 86.4579 38.2183C86.4579 38.2117 86.4645 38.2051 86.4645 38.2051Z" fill="url(#paint16_linear_1504_362)"/>
<path d="M86.4642 38.2069C86.5323 38.0894 86.5199 38.1141 86.4642 38.2069V38.2069Z" fill="url(#paint17_linear_1504_362)"/>
<g filter="url(#filter8_ddddd_1504_362)">
<path d="M90.5782 47.7082C90.5782 47.2189 90.1795 46.8201 89.6901 46.8201C89.3699 46.8201 87.3762 46.6449 86.3069 45.8112C86.3069 45.8112 86.3129 45.7991 86.3069 45.8112C85.9021 44.3371 85.31 42.9596 84.579 41.6546C84.3917 40.4161 85.6725 39.5159 86.2585 38.5493C86.3613 38.3801 86.4217 38.2835 86.4579 38.217C86.5667 37.9029 86.5063 37.5404 86.2585 37.2927C86.2585 37.2927 85.2738 35.885 84.2648 34.8821C83.2559 33.8792 81.7274 32.7615 81.7274 32.7615C81.383 32.4172 80.8151 32.4172 80.4708 32.7615C80.2412 32.9851 78.7248 34.2357 77.3594 34.435C77.3413 34.435 77.3413 34.435 77.3413 34.435C76.0726 33.7161 74.6468 33.124 73.2149 32.7192H73.1968C72.1879 31.9761 72.4537 30.4355 72.1879 29.336C72.1879 28.8466 71.7891 28.4479 71.2998 28.4479C71.2998 28.4479 69.6081 28.1519 68.1823 28.1519C66.7565 28.1519 64.8897 28.4479 64.8897 28.4479C64.4003 28.4479 64.0016 28.8466 64.0016 29.336C64.0016 29.6562 63.8264 31.6499 62.9927 32.7192C61.579 33.118 60.0927 33.7463 58.8361 34.4471C57.5976 34.6344 56.6974 33.3536 55.7308 32.7676C55.5616 32.6649 55.4649 32.6045 55.3985 32.5682C55.0843 32.4595 54.7218 32.5199 54.4741 32.7676C54.4741 32.7676 53.0665 33.7523 52.0636 34.7613C51.0607 35.7702 49.943 37.2987 49.943 37.2987C49.5986 37.6431 49.5986 38.211 49.943 38.5553C50.1665 38.7789 51.4534 40.3195 51.6225 41.6607V41.6728C50.9217 42.9294 50.3055 44.4096 49.9067 45.8233C49.9067 45.8233 49.9249 45.7991 49.9067 45.8233C49.0428 46.8745 47.623 46.5664 46.5235 46.8322C46.0341 46.8322 45.6354 47.231 45.6354 47.7203C45.6354 47.7203 45.3394 49.412 45.3394 50.8378C45.3394 52.2635 45.6354 54.1304 45.6354 54.1304C45.6354 54.6197 46.0341 55.0185 46.5235 55.0185C46.8437 55.0185 48.8374 55.1937 49.9067 56.0274C49.9309 56.0153 49.9188 56.0455 49.9188 56.0455C50.3296 57.4653 50.9157 58.8851 51.6286 60.1417C51.6165 60.1598 51.6286 60.1417 51.6346 60.184C51.7554 61.4769 50.5411 62.3227 49.9551 63.2893C49.8524 63.4585 49.792 63.5551 49.7557 63.6216C49.647 63.9358 49.7074 64.2983 49.9551 64.546C49.9551 64.546 50.9398 65.9536 51.9488 66.9565C52.9577 67.9655 54.4862 69.0771 54.4862 69.0771C54.8306 69.4215 55.3985 69.4215 55.7428 69.0771C55.9664 68.8536 57.507 67.5667 58.8482 67.3975C58.8482 67.3975 58.8421 67.4036 58.8663 67.4096C60.1592 68.1286 61.4944 68.6965 62.9564 69.0952C62.9685 69.1013 63.0108 69.1133 63.0108 69.1133C64.0197 69.8564 63.7539 71.397 64.0197 72.4966C64.0741 72.992 64.346 73.3062 64.9078 73.3847C64.9078 73.3847 66.5995 73.6807 68.0253 73.6807C69.451 73.6807 71.3179 73.3907 71.3179 73.3907C71.8072 73.3061 72.206 72.992 72.206 72.5026C72.206 72.1824 72.3812 70.1887 73.2149 69.1194C73.2149 69.1194 73.2512 69.0892 73.2874 69.059C74.7736 68.6421 75.9034 68.1829 77.2144 67.4278C77.2809 67.4036 77.2084 67.4096 77.3654 67.3855C78.6039 67.1982 79.5041 68.479 80.4708 69.065C80.6399 69.1677 80.7366 69.2281 80.8031 69.2644C81.1172 69.3731 81.4797 69.3127 81.7274 69.065C81.7274 69.065 83.1351 68.0802 84.138 67.0713C85.1469 66.0624 86.2585 64.5339 86.2585 64.5339C86.6029 64.1895 86.6029 63.6216 86.2585 63.2772C86.035 63.0537 84.7482 61.5131 84.579 60.1719C84.5609 60.0329 84.573 60.0148 84.5911 59.9786C85.3402 58.6555 85.8115 57.6888 86.2223 56.1905C86.2223 56.1905 86.2042 56.1422 86.3008 56.0153C87.0439 55.0064 88.5845 55.2722 89.6841 55.0064C90.1735 55.0064 90.5722 54.6077 90.5722 54.1183C90.5722 54.1183 90.8682 52.4267 90.8682 51.0009C90.8682 49.5751 90.5782 47.7082 90.5782 47.7082ZM81.2683 50.874C81.2683 58.1782 75.3476 64.1049 68.0373 64.1049C60.7271 64.1049 54.8064 58.1842 54.8064 50.874C54.8064 43.5698 60.7271 37.6431 68.0373 37.6431C75.3476 37.6431 81.2683 43.5698 81.2683 50.874Z" fill="url(#paint18_linear_1504_362)"/>
</g>
<path d="M80.822 69.2769C80.8154 69.2769 80.8154 69.2703 80.8088 69.2703C80.8154 69.2703 80.822 69.2769 80.822 69.2769Z" fill="url(#paint19_linear_1504_362)"/>
<path d="M80.8111 69.271C80.6836 69.1921 80.4772 69.0707 80.4772 69.0707C80.5743 69.1617 80.6896 69.2285 80.8111 69.271Z" fill="url(#paint20_linear_1504_362)"/>
<path d="M80.8213 69.2767C80.9388 69.3447 80.9141 69.3323 80.8213 69.2767V69.2767Z" fill="url(#paint21_linear_1504_362)"/>
<path d="M55.4043 32.5676C55.5318 32.6465 55.7382 32.7679 55.7382 32.7679C55.6411 32.6768 55.5257 32.6101 55.4043 32.5676Z" fill="url(#paint22_linear_1504_362)"/>
<path d="M55.3923 32.5617C55.3989 32.5617 55.3989 32.5683 55.4055 32.5683C55.3989 32.5683 55.3923 32.5617 55.3923 32.5617Z" fill="url(#paint23_linear_1504_362)"/>
<path d="M55.3941 32.5632C55.2766 32.4952 55.3013 32.5076 55.3941 32.5632V32.5632Z" fill="url(#paint24_linear_1504_362)"/>
<path d="M49.7504 63.6343C49.6823 63.7519 49.6947 63.7271 49.7504 63.6343V63.6343Z" fill="url(#paint25_linear_1504_362)"/>
<path d="M49.7495 63.6353C49.7495 63.6287 49.7561 63.6287 49.7561 63.6221C49.7561 63.6287 49.7495 63.6353 49.7495 63.6353Z" fill="url(#paint26_linear_1504_362)"/>
<path d="M49.7557 63.6233C49.8347 63.4958 49.9561 63.2894 49.9561 63.2894C49.865 63.3865 49.7982 63.5018 49.7557 63.6233Z" fill="url(#paint27_linear_1504_362)"/>
<path d="M86.459 38.2168C86.3801 38.3443 86.2587 38.5507 86.2587 38.5507C86.3497 38.4536 86.4165 38.3382 86.459 38.2168Z" fill="url(#paint28_linear_1504_362)"/>
<path d="M86.4645 38.2051C86.4645 38.2117 86.4579 38.2117 86.4579 38.2183C86.4579 38.2117 86.4645 38.2051 86.4645 38.2051Z" fill="url(#paint29_linear_1504_362)"/>
<path d="M86.4642 38.2069C86.5323 38.0894 86.5199 38.1141 86.4642 38.2069V38.2069Z" fill="url(#paint30_linear_1504_362)"/>
<path fill-rule="evenodd" clip-rule="evenodd" d="M67.7486 35.6073C76.1401 35.6073 82.9379 42.405 82.9379 50.7966C82.9379 59.1881 76.1401 65.9859 67.7486 65.9859C59.3647 65.9859 52.5593 59.1805 52.5593 50.7966C52.5593 42.405 59.357 35.6073 67.7486 35.6073ZM83.4034 50.7966C83.4034 42.1479 76.3972 35.1417 67.7486 35.1417C59.0999 35.1417 52.0937 42.1479 52.0937 50.7966C52.0937 59.4376 59.1076 66.4514 67.7486 66.4514C76.3972 66.4514 83.4034 59.4452 83.4034 50.7966Z" fill="white"/>
<path fill-rule="evenodd" clip-rule="evenodd" d="M67.7483 37.9609C74.8384 37.9609 80.5859 43.7084 80.5859 50.7985C80.5859 57.8886 74.8384 63.6361 67.7483 63.6361C60.6582 63.6361 54.9106 57.8886 54.9106 50.7985C54.9106 43.7084 60.6582 37.9609 67.7483 37.9609ZM81.3236 50.7985C81.3236 43.301 75.2458 37.2231 67.7483 37.2231C60.2507 37.2231 54.1729 43.301 54.1729 50.7985C54.1729 58.296 60.2507 64.3738 67.7483 64.3738C75.2458 64.3738 81.3236 58.296 81.3236 50.7985Z" fill="white"/>
<path d="M73.2497 48.4761C75.1391 48.4761 76.9511 47.7255 78.2871 46.3895C79.6231 45.0535 80.3737 43.2415 80.3737 41.3521V35.8755H73.9308C72.0414 35.8755 70.2294 36.626 68.8934 37.9621C67.5574 39.2981 66.8068 41.1101 66.8068 42.9995V48.4939H73.2497V48.4761Z" fill="#F3FBC1"/>
<g filter="url(#filter9_d_1504_362)">
<path d="M66.1169 48.1907V42.9813C66.1163 41.9571 66.3175 40.9428 66.7091 39.9964C67.1006 39.05 67.6748 38.19 68.3988 37.4656C69.1228 36.7412 69.9825 36.1665 70.9287 35.7744C71.8749 35.3823 72.889 35.1805 73.9132 35.1805H81.0372V41.3695C81.0372 43.4372 80.2158 45.4203 78.7537 46.8823C77.2917 48.3444 75.3086 49.1658 73.2409 49.1658H67.4793V63.6374L66.1035 63.5396V48.1907H66.1169ZM77.7913 45.9111C78.3901 45.3172 78.8649 44.6103 79.1882 43.8315C79.5116 43.0526 79.6769 42.2173 79.6747 41.374V36.5697H73.9265C72.2249 36.5709 70.5932 37.2471 69.3895 38.45C68.1858 39.6528 67.5084 41.2841 67.5061 42.9858V46.2851C68.424 44.9971 69.4681 43.8039 70.6228 42.7231C71.8616 41.4894 73.3106 40.4867 74.9017 39.7622C74.953 39.7419 75.0097 39.7397 75.0625 39.7557C75.1153 39.7718 75.1612 39.8052 75.1926 39.8505C75.2241 39.8959 75.2393 39.9505 75.2358 40.0056C75.2323 40.0607 75.2102 40.113 75.1733 40.154C74.1581 41.2359 72.3281 43.1906 71.7493 43.8407C71.1705 44.4907 69.1846 46.7571 68.3075 47.7678H73.2498C74.0921 47.7745 74.9273 47.6139 75.7069 47.2951C76.4865 46.9764 77.1951 46.5059 77.7913 45.9111Z" fill="url(#paint31_linear_1504_362)"/>
</g>
<path d="M63.8568 52.1004V48.0931C63.8545 47.0952 63.4567 46.139 62.7506 45.4338C62.0446 44.7286 61.0878 44.3319 60.09 44.3307H55.2724V48.338C55.2736 49.3355 55.6703 50.2918 56.3757 50.9971C57.081 51.7024 58.0372 52.0992 59.0347 52.1004H63.8568Z" fill="url(#paint32_linear_1504_362)"/>
<g filter="url(#filter10_d_1504_362)">
<path d="M60.09 43.622C61.2709 43.622 62.4034 44.0911 63.2384 44.9261C64.0734 45.7611 64.5425 46.8936 64.5425 48.0745V63.2368L63.1622 62.7965V52.7941H59.0481C57.8672 52.7941 56.7347 52.325 55.8997 51.49C55.0647 50.655 54.5956 49.5225 54.5956 48.3416V43.622H60.0856H60.09ZM55.9759 48.3372C55.9771 49.1516 56.3011 49.9324 56.877 50.5083C57.4529 51.0842 58.2337 51.4083 59.0481 51.4094H62.7125C62.1649 50.6926 61.1897 49.4147 60.8113 48.9917C60.5085 48.6533 59.7026 47.794 59.0303 47.086C58.9852 47.035 58.9596 46.9696 58.9579 46.9015C58.9563 46.8334 58.9788 46.7669 59.0213 46.7137C59.0639 46.6605 59.1238 46.624 59.1906 46.6107C59.2574 46.5974 59.3268 46.608 59.3865 46.6408C60.169 47.0859 60.8904 47.6307 61.5326 48.2615C62.111 48.8099 62.6524 49.3959 63.1533 50.0158V48.0834C63.1521 47.269 62.8281 46.4882 62.2522 45.9123C61.6763 45.3364 60.8956 45.0124 60.0811 45.0112H55.967V48.3416L55.9759 48.3372Z" fill="url(#paint33_linear_1504_362)"/>
</g>
<path d="M69.6154 58.6871V55.1478C69.6174 54.2665 69.9688 53.4219 70.5923 52.799C71.2159 52.1762 72.061 51.8259 72.9423 51.8248H77.1973V55.3641C77.1963 56.2451 76.8458 57.0897 76.2229 57.7127C75.5999 58.3356 74.7553 58.6861 73.8743 58.6871H69.6154Z" fill="#CEF885"/>
<g filter="url(#filter11_d_1504_362)">
<path d="M72.9423 51.1995C71.8993 51.1995 70.899 51.6138 70.1615 52.3513C69.424 53.0888 69.0098 54.089 69.0098 55.132L69.007 63.5799L70.2288 63.3968V59.3005H73.8625C74.9055 59.3005 75.9057 58.8862 76.6432 58.1487C77.3807 57.4112 77.7951 56.4109 77.7951 55.3679V51.1995H72.9462H72.9423ZM76.576 55.364C76.5749 56.0833 76.2887 56.7729 75.7801 57.2816C75.2714 57.7902 74.5818 58.0764 73.8625 58.0775H70.626C71.1097 57.4443 71.971 56.3157 72.3052 55.9421C72.5727 55.6432 73.2844 54.8842 73.8783 54.259C73.9181 54.2139 73.9407 54.1561 73.9421 54.096C73.9436 54.0358 73.9238 53.9771 73.8862 53.9301C73.8486 53.8832 73.7956 53.8509 73.7366 53.8391C73.6776 53.8274 73.6164 53.8368 73.5636 53.8657C72.8725 54.2589 72.2354 54.74 71.6681 55.2972C71.1573 55.7815 70.6791 56.2991 70.2367 56.8466V55.1399C70.2378 54.4205 70.5239 53.731 71.0326 53.2223C71.5412 52.7137 72.2308 52.4275 72.9501 52.4264H76.5838V55.3679L76.576 55.364Z" fill="url(#paint34_linear_1504_362)"/>
</g>
</g>
<defs>
<filter id="filter0_ddddd_1504_362" x="8.65051" y="24.9512" width="54.7603" height="80.5954" filterUnits="userSpaceOnUse" color-interpolation-filters="sRGB">
<feFlood flood-opacity="0" result="BackgroundImageFix"/>
<feColorMatrix in="SourceAlpha" type="matrix" values="0 0 0 0 0 0 0 0 0 0 0 0 0 0 0 0 0 0 127 0" result="hardAlpha"/>
<feOffset/>
<feColorMatrix type="matrix" values="0 0 0 0 0 0 0 0 0 0 0 0 0 0 0 0 0 0 0.1 0"/>
<feBlend mode="normal" in2="BackgroundImageFix" result="effect1_dropShadow_1504_362"/>
<feColorMatrix in="SourceAlpha" type="matrix" values="0 0 0 0 0 0 0 0 0 0 0 0 0 0 0 0 0 0 127 0" result="hardAlpha"/>
<feOffset dy="1"/>
<feGaussianBlur stdDeviation="1.5"/>
<feColorMatrix type="matrix" values="0 0 0 0 0 0 0 0 0 0 0 0 0 0 0 0 0 0 0.1 0"/>
<feBlend mode="normal" in2="effect1_dropShadow_1504_362" result="effect2_dropShadow_1504_362"/>
<feColorMatrix in="SourceAlpha" type="matrix" values="0 0 0 0 0 0 0 0 0 0 0 0 0 0 0 0 0 0 127 0" result="hardAlpha"/>
<feOffset dy="6"/>
<feGaussianBlur stdDeviation="3"/>
<feColorMatrix type="matrix" values="0 0 0 0 0 0 0 0 0 0 0 0 0 0 0 0 0 0 0.09 0"/>
<feBlend mode="normal" in2="effect2_dropShadow_1504_362" result="effect3_dropShadow_1504_362"/>
<feColorMatrix in="SourceAlpha" type="matrix" values="0 0 0 0 0 0 0 0 0 0 0 0 0 0 0 0 0 0 127 0" result="hardAlpha"/>
<feOffset dy="12"/>
<feGaussianBlur stdDeviation="3.5"/>
<feColorMatrix type="matrix" values="0 0 0 0 0 0 0 0 0 0 0 0 0 0 0 0 0 0 0.05 0"/>
<feBlend mode="normal" in2="effect3_dropShadow_1504_362" result="effect4_dropShadow_1504_362"/>
<feColorMatrix in="SourceAlpha" type="matrix" values="0 0 0 0 0 0 0 0 0 0 0 0 0 0 0 0 0 0 127 0" result="hardAlpha"/>
<feOffset dy="22"/>
<feGaussianBlur stdDeviation="4.5"/>
<feColorMatrix type="matrix" values="0 0 0 0 0 0 0 0 0 0 0 0 0 0 0 0 0 0 0.01 0"/>
<feBlend mode="normal" in2="effect4_dropShadow_1504_362" result="effect5_dropShadow_1504_362"/>
<feBlend mode="normal" in="SourceGraphic" in2="effect5_dropShadow_1504_362" result="shape"/>
</filter>
<filter id="filter1_ddddd_1504_362" x="15.4143" y="29.5392" width="41.0013" height="59.6982" filterUnits="userSpaceOnUse" color-interpolation-filters="sRGB">
<feFlood flood-opacity="0" result="BackgroundImageFix"/>
<feColorMatrix in="SourceAlpha" type="matrix" values="0 0 0 0 0 0 0 0 0 0 0 0 0 0 0 0 0 0 127 0" result="hardAlpha"/>
<feOffset/>
<feColorMatrix type="matrix" values="0 0 0 0 0.101961 0 0 0 0 0.0941176 0 0 0 0 0.105882 0 0 0 0.1 0"/>
<feBlend mode="normal" in2="BackgroundImageFix" result="effect1_dropShadow_1504_362"/>
<feColorMatrix in="SourceAlpha" type="matrix" values="0 0 0 0 0 0 0 0 0 0 0 0 0 0 0 0 0 0 127 0" result="hardAlpha"/>
<feOffset dy="1"/>
<feGaussianBlur stdDeviation="1"/>
<feColorMatrix type="matrix" values="0 0 0 0 0.101961 0 0 0 0 0.0941176 0 0 0 0 0.105882 0 0 0 0.1 0"/>
<feBlend mode="normal" in2="effect1_dropShadow_1504_362" result="effect2_dropShadow_1504_362"/>
<feColorMatrix in="SourceAlpha" type="matrix" values="0 0 0 0 0 0 0 0 0 0 0 0 0 0 0 0 0 0 127 0" result="hardAlpha"/>
<feOffset dy="3"/>
<feGaussianBlur stdDeviation="1.5"/>
<feColorMatrix type="matrix" values="0 0 0 0 0.101961 0 0 0 0 0.0941176 0 0 0 0 0.105882 0 0 0 0.09 0"/>
<feBlend mode="normal" in2="effect2_dropShadow_1504_362" result="effect3_dropShadow_1504_362"/>
<feColorMatrix in="SourceAlpha" type="matrix" values="0 0 0 0 0 0 0 0 0 0 0 0 0 0 0 0 0 0 127 0" result="hardAlpha"/>
<feOffset dy="8"/>
<feGaussianBlur stdDeviation="2.5"/>
<feColorMatrix type="matrix" values="0 0 0 0 0.101961 0 0 0 0 0.0941176 0 0 0 0 0.105882 0 0 0 0.05 0"/>
<feBlend mode="normal" in2="effect3_dropShadow_1504_362" result="effect4_dropShadow_1504_362"/>
<feColorMatrix in="SourceAlpha" type="matrix" values="0 0 0 0 0 0 0 0 0 0 0 0 0 0 0 0 0 0 127 0" result="hardAlpha"/>
<feOffset dy="13"/>
<feGaussianBlur stdDeviation="2.5"/>
<feColorMatrix type="matrix" values="0 0 0 0 0.101961 0 0 0 0 0.0941176 0 0 0 0 0.105882 0 0 0 0.01 0"/>
<feBlend mode="normal" in2="effect4_dropShadow_1504_362" result="effect5_dropShadow_1504_362"/>
<feBlend mode="normal" in="SourceGraphic" in2="effect5_dropShadow_1504_362" result="shape"/>
</filter>
<filter id="filter2_ddddd_1504_362" x="32.3235" y="52.668" width="23.3922" height="34.7849" filterUnits="userSpaceOnUse" color-interpolation-filters="sRGB">
<feFlood flood-opacity="0" result="BackgroundImageFix"/>
<feColorMatrix in="SourceAlpha" type="matrix" values="0 0 0 0 0 0 0 0 0 0 0 0 0 0 0 0 0 0 127 0" result="hardAlpha"/>
<feOffset/>
<feColorMatrix type="matrix" values="0 0 0 0 0 0 0 0 0 0 0 0 0 0 0 0 0 0 0.1 0"/>
<feBlend mode="normal" in2="BackgroundImageFix" result="effect1_dropShadow_1504_362"/>
<feColorMatrix in="SourceAlpha" type="matrix" values="0 0 0 0 0 0 0 0 0 0 0 0 0 0 0 0 0 0 127 0" result="hardAlpha"/>
<feOffset dy="1"/>
<feGaussianBlur stdDeviation="1.5"/>
<feColorMatrix type="matrix" values="0 0 0 0 0 0 0 0 0 0 0 0 0 0 0 0 0 0 0.1 0"/>
<feBlend mode="normal" in2="effect1_dropShadow_1504_362" result="effect2_dropShadow_1504_362"/>
<feColorMatrix in="SourceAlpha" type="matrix" values="0 0 0 0 0 0 0 0 0 0 0 0 0 0 0 0 0 0 127 0" result="hardAlpha"/>
<feOffset dy="6"/>
<feGaussianBlur stdDeviation="3"/>
<feColorMatrix type="matrix" values="0 0 0 0 0 0 0 0 0 0 0 0 0 0 0 0 0 0 0.09 0"/>
<feBlend mode="normal" in2="effect2_dropShadow_1504_362" result="effect3_dropShadow_1504_362"/>
<feColorMatrix in="SourceAlpha" type="matrix" values="0 0 0 0 0 0 0 0 0 0 0 0 0 0 0 0 0 0 127 0" result="hardAlpha"/>
<feOffset dy="12"/>
<feGaussianBlur stdDeviation="3.5"/>
<feColorMatrix type="matrix" values="0 0 0 0 0 0 0 0 0 0 0 0 0 0 0 0 0 0 0.05 0"/>
<feBlend mode="normal" in2="effect3_dropShadow_1504_362" result="effect4_dropShadow_1504_362"/>
<feColorMatrix in="SourceAlpha" type="matrix" values="0 0 0 0 0 0 0 0 0 0 0 0 0 0 0 0 0 0 127 0" result="hardAlpha"/>
<feOffset dy="22"/>
<feGaussianBlur stdDeviation="4.5"/>
<feColorMatrix type="matrix" values="0 0 0 0 0 0 0 0 0 0 0 0 0 0 0 0 0 0 0.01 0"/>
<feBlend mode="normal" in2="effect4_dropShadow_1504_362" result="effect5_dropShadow_1504_362"/>
<feBlend mode="normal" in="SourceGraphic" in2="effect5_dropShadow_1504_362" result="shape"/>
</filter>
<filter id="filter3_ddddd_1504_362" x="24.1882" y="59.8499" width="31.5275" height="34.7849" filterUnits="userSpaceOnUse" color-interpolation-filters="sRGB">
<feFlood flood-opacity="0" result="BackgroundImageFix"/>
<feColorMatrix in="SourceAlpha" type="matrix" values="0 0 0 0 0 0 0 0 0 0 0 0 0 0 0 0 0 0 127 0" result="hardAlpha"/>
<feOffset/>
<feColorMatrix type="matrix" values="0 0 0 0 0 0 0 0 0 0 0 0 0 0 0 0 0 0 0.1 0"/>
<feBlend mode="normal" in2="BackgroundImageFix" result="effect1_dropShadow_1504_362"/>
<feColorMatrix in="SourceAlpha" type="matrix" values="0 0 0 0 0 0 0 0 0 0 0 0 0 0 0 0 0 0 127 0" result="hardAlpha"/>
<feOffset dy="1"/>
<feGaussianBlur stdDeviation="1.5"/>
<feColorMatrix type="matrix" values="0 0 0 0 0 0 0 0 0 0 0 0 0 0 0 0 0 0 0.1 0"/>
<feBlend mode="normal" in2="effect1_dropShadow_1504_362" result="effect2_dropShadow_1504_362"/>
<feColorMatrix in="SourceAlpha" type="matrix" values="0 0 0 0 0 0 0 0 0 0 0 0 0 0 0 0 0 0 127 0" result="hardAlpha"/>
<feOffset dy="6"/>
<feGaussianBlur stdDeviation="3"/>
<feColorMatrix type="matrix" values="0 0 0 0 0 0 0 0 0 0 0 0 0 0 0 0 0 0 0.09 0"/>
<feBlend mode="normal" in2="effect2_dropShadow_1504_362" result="effect3_dropShadow_1504_362"/>
<feColorMatrix in="SourceAlpha" type="matrix" values="0 0 0 0 0 0 0 0 0 0 0 0 0 0 0 0 0 0 127 0" result="hardAlpha"/>
<feOffset dy="12"/>
<feGaussianBlur stdDeviation="3.5"/>
<feColorMatrix type="matrix" values="0 0 0 0 0 0 0 0 0 0 0 0 0 0 0 0 0 0 0.05 0"/>
<feBlend mode="normal" in2="effect3_dropShadow_1504_362" result="effect4_dropShadow_1504_362"/>
<feColorMatrix in="SourceAlpha" type="matrix" values="0 0 0 0 0 0 0 0 0 0 0 0 0 0 0 0 0 0 127 0" result="hardAlpha"/>
<feOffset dy="22"/>
<feGaussianBlur stdDeviation="4.5"/>
<feColorMatrix type="matrix" values="0 0 0 0 0 0 0 0 0 0 0 0 0 0 0 0 0 0 0.01 0"/>
<feBlend mode="normal" in2="effect4_dropShadow_1504_362" result="effect5_dropShadow_1504_362"/>
<feBlend mode="normal" in="SourceGraphic" in2="effect5_dropShadow_1504_362" result="shape"/>
</filter>
<filter id="filter4_ddddd_1504_362" x="27.2162" y="56.2849" width="28.4995" height="34.7849" filterUnits="userSpaceOnUse" color-interpolation-filters="sRGB">
<feFlood flood-opacity="0" result="BackgroundImageFix"/>
<feColorMatrix in="SourceAlpha" type="matrix" values="0 0 0 0 0 0 0 0 0 0 0 0 0 0 0 0 0 0 127 0" result="hardAlpha"/>
<feOffset/>
<feColorMatrix type="matrix" values="0 0 0 0 0 0 0 0 0 0 0 0 0 0 0 0 0 0 0.1 0"/>
<feBlend mode="normal" in2="BackgroundImageFix" result="effect1_dropShadow_1504_362"/>
<feColorMatrix in="SourceAlpha" type="matrix" values="0 0 0 0 0 0 0 0 0 0 0 0 0 0 0 0 0 0 127 0" result="hardAlpha"/>
<feOffset dy="1"/>
<feGaussianBlur stdDeviation="1.5"/>
<feColorMatrix type="matrix" values="0 0 0 0 0 0 0 0 0 0 0 0 0 0 0 0 0 0 0.1 0"/>
<feBlend mode="normal" in2="effect1_dropShadow_1504_362" result="effect2_dropShadow_1504_362"/>
<feColorMatrix in="SourceAlpha" type="matrix" values="0 0 0 0 0 0 0 0 0 0 0 0 0 0 0 0 0 0 127 0" result="hardAlpha"/>
<feOffset dy="6"/>
<feGaussianBlur stdDeviation="3"/>
<feColorMatrix type="matrix" values="0 0 0 0 0 0 0 0 0 0 0 0 0 0 0 0 0 0 0.09 0"/>
<feBlend mode="normal" in2="effect2_dropShadow_1504_362" result="effect3_dropShadow_1504_362"/>
<feColorMatrix in="SourceAlpha" type="matrix" values="0 0 0 0 0 0 0 0 0 0 0 0 0 0 0 0 0 0 127 0" result="hardAlpha"/>
<feOffset dy="12"/>
<feGaussianBlur stdDeviation="3.5"/>
<feColorMatrix type="matrix" values="0 0 0 0 0 0 0 0 0 0 0 0 0 0 0 0 0 0 0.05 0"/>
<feBlend mode="normal" in2="effect3_dropShadow_1504_362" result="effect4_dropShadow_1504_362"/>
<feColorMatrix in="SourceAlpha" type="matrix" values="0 0 0 0 0 0 0 0 0 0 0 0 0 0 0 0 0 0 127 0" result="hardAlpha"/>
<feOffset dy="22"/>
<feGaussianBlur stdDeviation="4.5"/>
<feColorMatrix type="matrix" values="0 0 0 0 0 0 0 0 0 0 0 0 0 0 0 0 0 0 0.01 0"/>
<feBlend mode="normal" in2="effect4_dropShadow_1504_362" result="effect5_dropShadow_1504_362"/>
<feBlend mode="normal" in="SourceGraphic" in2="effect5_dropShadow_1504_362" result="shape"/>
</filter>
<filter id="filter5_ddddd_1504_362" x="31.3068" y="35.5716" width="13.2515" height="14.5018" filterUnits="userSpaceOnUse" color-interpolation-filters="sRGB">
<feFlood flood-opacity="0" result="BackgroundImageFix"/>
<feColorMatrix in="SourceAlpha" type="matrix" values="0 0 0 0 0 0 0 0 0 0 0 0 0 0 0 0 0 0 127 0" result="hardAlpha"/>
<feOffset/>
<feColorMatrix type="matrix" values="0 0 0 0 0 0 0 0 0 0 0 0 0 0 0 0 0 0 0.1 0"/>
<feBlend mode="normal" in2="BackgroundImageFix" result="effect1_dropShadow_1504_362"/>
<feColorMatrix in="SourceAlpha" type="matrix" values="0 0 0 0 0 0 0 0 0 0 0 0 0 0 0 0 0 0 127 0" result="hardAlpha"/>
<feOffset/>
<feColorMatrix type="matrix" values="0 0 0 0 0 0 0 0 0 0 0 0 0 0 0 0 0 0 0.1 0"/>
<feBlend mode="normal" in2="effect1_dropShadow_1504_362" result="effect2_dropShadow_1504_362"/>
<feColorMatrix in="SourceAlpha" type="matrix" values="0 0 0 0 0 0 0 0 0 0 0 0 0 0 0 0 0 0 127 0" result="hardAlpha"/>
<feOffset dy="1"/>
<feGaussianBlur stdDeviation="0.5"/>
<feColorMatrix type="matrix" values="0 0 0 0 0 0 0 0 0 0 0 0 0 0 0 0 0 0 0.09 0"/>
<feBlend mode="normal" in2="effect2_dropShadow_1504_362" result="effect3_dropShadow_1504_362"/>
<feColorMatrix in="SourceAlpha" type="matrix" values="0 0 0 0 0 0 0 0 0 0 0 0 0 0 0 0 0 0 127 0" result="hardAlpha"/>
<feOffset dy="1"/>
<feGaussianBlur stdDeviation="0.5"/>
<feColorMatrix type="matrix" values="0 0 0 0 0 0 0 0 0 0 0 0 0 0 0 0 0 0 0.05 0"/>
<feBlend mode="normal" in2="effect3_dropShadow_1504_362" result="effect4_dropShadow_1504_362"/>
<feColorMatrix in="SourceAlpha" type="matrix" values="0 0 0 0 0 0 0 0 0 0 0 0 0 0 0 0 0 0 127 0" result="hardAlpha"/>
<feOffset dy="2"/>
<feGaussianBlur stdDeviation="0.5"/>
<feColorMatrix type="matrix" values="0 0 0 0 0 0 0 0 0 0 0 0 0 0 0 0 0 0 0.01 0"/>
<feBlend mode="normal" in2="effect4_dropShadow_1504_362" result="effect5_dropShadow_1504_362"/>
<feBlend mode="normal" in="SourceGraphic" in2="effect5_dropShadow_1504_362" result="shape"/>
</filter>
<filter id="filter6_ddddd_1504_362" x="27.499" y="38.2241" width="5.00061" height="11.9487" filterUnits="userSpaceOnUse" color-interpolation-filters="sRGB">
<feFlood flood-opacity="0" result="BackgroundImageFix"/>
<feColorMatrix in="SourceAlpha" type="matrix" values="0 0 0 0 0 0 0 0 0 0 0 0 0 0 0 0 0 0 127 0" result="hardAlpha"/>
<feOffset/>
<feColorMatrix type="matrix" values="0 0 0 0 0 0 0 0 0 0 0 0 0 0 0 0 0 0 0.1 0"/>
<feBlend mode="normal" in2="BackgroundImageFix" result="effect1_dropShadow_1504_362"/>
<feColorMatrix in="SourceAlpha" type="matrix" values="0 0 0 0 0 0 0 0 0 0 0 0 0 0 0 0 0 0 127 0" result="hardAlpha"/>
<feOffset/>
<feColorMatrix type="matrix" values="0 0 0 0 0 0 0 0 0 0 0 0 0 0 0 0 0 0 0.1 0"/>
<feBlend mode="normal" in2="effect1_dropShadow_1504_362" result="effect2_dropShadow_1504_362"/>
<feColorMatrix in="SourceAlpha" type="matrix" values="0 0 0 0 0 0 0 0 0 0 0 0 0 0 0 0 0 0 127 0" result="hardAlpha"/>
<feOffset/>
<feGaussianBlur stdDeviation="0.5"/>
<feColorMatrix type="matrix" values="0 0 0 0 0 0 0 0 0 0 0 0 0 0 0 0 0 0 0.09 0"/>
<feBlend mode="normal" in2="effect2_dropShadow_1504_362" result="effect3_dropShadow_1504_362"/>
<feColorMatrix in="SourceAlpha" type="matrix" values="0 0 0 0 0 0 0 0 0 0 0 0 0 0 0 0 0 0 127 0" result="hardAlpha"/>
<feOffset dy="1"/>
<feGaussianBlur stdDeviation="0.5"/>
<feColorMatrix type="matrix" values="0 0 0 0 0 0 0 0 0 0 0 0 0 0 0 0 0 0 0.05 0"/>
<feBlend mode="normal" in2="effect3_dropShadow_1504_362" result="effect4_dropShadow_1504_362"/>
<feColorMatrix in="SourceAlpha" type="matrix" values="0 0 0 0 0 0 0 0 0 0 0 0 0 0 0 0 0 0 127 0" result="hardAlpha"/>
<feOffset dy="2"/>
<feGaussianBlur stdDeviation="0.5"/>
<feColorMatrix type="matrix" values="0 0 0 0 0 0 0 0 0 0 0 0 0 0 0 0 0 0 0.01 0"/>
<feBlend mode="normal" in2="effect4_dropShadow_1504_362" result="effect5_dropShadow_1504_362"/>
<feBlend mode="normal" in="SourceGraphic" in2="effect5_dropShadow_1504_362" result="shape"/>
</filter>
<filter id="filter7_ddddd_1504_362" x="29.4395" y="36.3877" width="9.5271" height="11.643" filterUnits="userSpaceOnUse" color-interpolation-filters="sRGB">
<feFlood flood-opacity="0" result="BackgroundImageFix"/>
<feColorMatrix in="SourceAlpha" type="matrix" values="0 0 0 0 0 0 0 0 0 0 0 0 0 0 0 0 0 0 127 0" result="hardAlpha"/>
<feOffset/>
<feColorMatrix type="matrix" values="0 0 0 0 0 0 0 0 0 0 0 0 0 0 0 0 0 0 0.1 0"/>
<feBlend mode="normal" in2="BackgroundImageFix" result="effect1_dropShadow_1504_362"/>
<feColorMatrix in="SourceAlpha" type="matrix" values="0 0 0 0 0 0 0 0 0 0 0 0 0 0 0 0 0 0 127 0" result="hardAlpha"/>
<feOffset/>
<feColorMatrix type="matrix" values="0 0 0 0 0 0 0 0 0 0 0 0 0 0 0 0 0 0 0.1 0"/>
<feBlend mode="normal" in2="effect1_dropShadow_1504_362" result="effect2_dropShadow_1504_362"/>
<feColorMatrix in="SourceAlpha" type="matrix" values="0 0 0 0 0 0 0 0 0 0 0 0 0 0 0 0 0 0 127 0" result="hardAlpha"/>
<feOffset/>
<feGaussianBlur stdDeviation="0.5"/>
<feColorMatrix type="matrix" values="0 0 0 0 0 0 0 0 0 0 0 0 0 0 0 0 0 0 0.09 0"/>
<feBlend mode="normal" in2="effect2_dropShadow_1504_362" result="effect3_dropShadow_1504_362"/>
<feColorMatrix in="SourceAlpha" type="matrix" values="0 0 0 0 0 0 0 0 0 0 0 0 0 0 0 0 0 0 127 0" result="hardAlpha"/>
<feOffset dy="1"/>
<feGaussianBlur stdDeviation="0.5"/>
<feColorMatrix type="matrix" values="0 0 0 0 0 0 0 0 0 0 0 0 0 0 0 0 0 0 0.05 0"/>
<feBlend mode="normal" in2="effect3_dropShadow_1504_362" result="effect4_dropShadow_1504_362"/>
<feColorMatrix in="SourceAlpha" type="matrix" values="0 0 0 0 0 0 0 0 0 0 0 0 0 0 0 0 0 0 127 0" result="hardAlpha"/>
<feOffset dy="2"/>
<feGaussianBlur stdDeviation="0.5"/>
<feColorMatrix type="matrix" values="0 0 0 0 0 0 0 0 0 0 0 0 0 0 0 0 0 0 0.01 0"/>
<feBlend mode="normal" in2="effect4_dropShadow_1504_362" result="effect5_dropShadow_1504_362"/>
<feBlend mode="normal" in="SourceGraphic" in2="effect5_dropShadow_1504_362" result="shape"/>
</filter>
<filter id="filter8_ddddd_1504_362" x="41.3394" y="28.1519" width="53.5289" height="59.5289" filterUnits="userSpaceOnUse" color-interpolation-filters="sRGB">
<feFlood flood-opacity="0" result="BackgroundImageFix"/>
<feColorMatrix in="SourceAlpha" type="matrix" values="0 0 0 0 0 0 0 0 0 0 0 0 0 0 0 0 0 0 127 0" result="hardAlpha"/>
<feOffset/>
<feColorMatrix type="matrix" values="0 0 0 0 0 0 0 0 0 0 0 0 0 0 0 0 0 0 0.1 0"/>
<feBlend mode="normal" in2="BackgroundImageFix" result="effect1_dropShadow_1504_362"/>
<feColorMatrix in="SourceAlpha" type="matrix" values="0 0 0 0 0 0 0 0 0 0 0 0 0 0 0 0 0 0 127 0" result="hardAlpha"/>
<feOffset dy="1"/>
<feGaussianBlur stdDeviation="0.5"/>
<feColorMatrix type="matrix" values="0 0 0 0 0 0 0 0 0 0 0 0 0 0 0 0 0 0 0.1 0"/>
<feBlend mode="normal" in2="effect1_dropShadow_1504_362" result="effect2_dropShadow_1504_362"/>
<feColorMatrix in="SourceAlpha" type="matrix" values="0 0 0 0 0 0 0 0 0 0 0 0 0 0 0 0 0 0 127 0" result="hardAlpha"/>
<feOffset dy="2"/>
<feGaussianBlur stdDeviation="1"/>
<feColorMatrix type="matrix" values="0 0 0 0 0 0 0 0 0 0 0 0 0 0 0 0 0 0 0.09 0"/>
<feBlend mode="normal" in2="effect2_dropShadow_1504_362" result="effect3_dropShadow_1504_362"/>
<feColorMatrix in="SourceAlpha" type="matrix" values="0 0 0 0 0 0 0 0 0 0 0 0 0 0 0 0 0 0 127 0" result="hardAlpha"/>
<feOffset dy="5"/>
<feGaussianBlur stdDeviation="1.5"/>
<feColorMatrix type="matrix" values="0 0 0 0 0 0 0 0 0 0 0 0 0 0 0 0 0 0 0.05 0"/>
<feBlend mode="normal" in2="effect3_dropShadow_1504_362" result="effect4_dropShadow_1504_362"/>
<feColorMatrix in="SourceAlpha" type="matrix" values="0 0 0 0 0 0 0 0 0 0 0 0 0 0 0 0 0 0 127 0" result="hardAlpha"/>
<feOffset dy="10"/>
<feGaussianBlur stdDeviation="2"/>
<feColorMatrix type="matrix" values="0 0 0 0 0 0 0 0 0 0 0 0 0 0 0 0 0 0 0.01 0"/>
<feBlend mode="normal" in2="effect4_dropShadow_1504_362" result="effect5_dropShadow_1504_362"/>
<feBlend mode="normal" in="SourceGraphic" in2="effect5_dropShadow_1504_362" result="shape"/>
</filter>
<filter id="filter9_d_1504_362" x="46.1035" y="17.1805" width="54.9337" height="68.4569" filterUnits="userSpaceOnUse" color-interpolation-filters="sRGB">
<feFlood flood-opacity="0" result="BackgroundImageFix"/>
<feColorMatrix in="SourceAlpha" type="matrix" values="0 0 0 0 0 0 0 0 0 0 0 0 0 0 0 0 0 0 127 0" result="hardAlpha"/>
<feOffset dy="2"/>
<feGaussianBlur stdDeviation="10"/>
<feComposite in2="hardAlpha" operator="out"/>
<feColorMatrix type="matrix" values="0 0 0 0 0.901961 0 0 0 0 0.972549 0 0 0 0 0.513726 0 0 0 0.15 0"/>
<feBlend mode="normal" in2="BackgroundImageFix" result="effect1_dropShadow_1504_362"/>
<feBlend mode="normal" in="SourceGraphic" in2="effect1_dropShadow_1504_362" result="shape"/>
</filter>
<filter id="filter10_d_1504_362" x="34.5956" y="25.622" width="49.9469" height="59.6147" filterUnits="userSpaceOnUse" color-interpolation-filters="sRGB">
<feFlood flood-opacity="0" result="BackgroundImageFix"/>
<feColorMatrix in="SourceAlpha" type="matrix" values="0 0 0 0 0 0 0 0 0 0 0 0 0 0 0 0 0 0 127 0" result="hardAlpha"/>
<feOffset dy="2"/>
<feGaussianBlur stdDeviation="10"/>
<feComposite in2="hardAlpha" operator="out"/>
<feColorMatrix type="matrix" values="0 0 0 0 0.901961 0 0 0 0 0.972549 0 0 0 0 0.513726 0 0 0 0.15 0"/>
<feBlend mode="normal" in2="BackgroundImageFix" result="effect1_dropShadow_1504_362"/>
<feBlend mode="normal" in="SourceGraphic" in2="effect1_dropShadow_1504_362" result="shape"/>
</filter>
<filter id="filter11_d_1504_362" x="49.007" y="33.1995" width="48.7881" height="52.3804" filterUnits="userSpaceOnUse" color-interpolation-filters="sRGB">
<feFlood flood-opacity="0" result="BackgroundImageFix"/>
<feColorMatrix in="SourceAlpha" type="matrix" values="0 0 0 0 0 0 0 0 0 0 0 0 0 0 0 0 0 0 127 0" result="hardAlpha"/>
<feOffset dy="2"/>
<feGaussianBlur stdDeviation="10"/>
<feComposite in2="hardAlpha" operator="out"/>
<feColorMatrix type="matrix" values="0 0 0 0 0.901961 0 0 0 0 0.972549 0 0 0 0 0.513726 0 0 0 0.15 0"/>
<feBlend mode="normal" in2="BackgroundImageFix" result="effect1_dropShadow_1504_362"/>
<feBlend mode="normal" in="SourceGraphic" in2="effect1_dropShadow_1504_362" result="shape"/>
</filter>
<linearGradient id="paint0_linear_1504_362" x1="24.8745" y1="8.99703" x2="99.781" y2="148.193" gradientUnits="userSpaceOnUse">
<stop offset="0.0001" stop-color="#50E6FF"/>
<stop offset="0.623265" stop-color="#0078D4"/>
</linearGradient>
<linearGradient id="paint1_linear_1504_362" x1="2.49584" y1="-20.4205" x2="97.0868" y2="119.08" gradientUnits="userSpaceOnUse">
<stop stop-color="#007ED8"/>
<stop offset="0.7065" stop-color="#002D4C"/>
</linearGradient>
<linearGradient id="paint2_linear_1504_362" x1="37.9325" y1="35.5716" x2="37.9325" y2="47.0734" gradientUnits="userSpaceOnUse">
<stop stop-color="#81D90D"/>
<stop offset="1" stop-color="#DFF99F"/>
</linearGradient>
<linearGradient id="paint3_linear_1504_362" x1="29.9993" y1="39.2241" x2="29.9993" y2="47.1728" gradientUnits="userSpaceOnUse">
<stop stop-color="#81D90D"/>
<stop offset="1" stop-color="#DFF99F"/>
</linearGradient>
<linearGradient id="paint4_linear_1504_362" x1="64.0833" y1="37.238" x2="71.0253" y2="78.6847" gradientUnits="userSpaceOnUse">
<stop offset="0.0001" stop-color="#50E6FF"/>
<stop offset="1" stop-color="#0078D4"/>
</linearGradient>
<linearGradient id="paint5_linear_1504_362" x1="68.1038" y1="28.1519" x2="68.1038" y2="73.6807" gradientUnits="userSpaceOnUse">
<stop offset="0.104167" stop-color="#F2F1F0"/>
<stop offset="1" stop-color="#F2F1F0" stop-opacity="0"/>
</linearGradient>
<linearGradient id="paint6_linear_1504_362" x1="80.8154" y1="69.2703" x2="80.8154" y2="69.2769" gradientUnits="userSpaceOnUse">
<stop offset="0.104167" stop-color="#F2F1F0"/>
<stop offset="1" stop-color="#F2F1F0" stop-opacity="0"/>
</linearGradient>
<linearGradient id="paint7_linear_1504_362" x1="80.6441" y1="69.0707" x2="80.6441" y2="69.271" gradientUnits="userSpaceOnUse">
<stop offset="0.104167" stop-color="#F2F1F0"/>
<stop offset="1" stop-color="#F2F1F0" stop-opacity="0"/>
</linearGradient>
<linearGradient id="paint8_linear_1504_362" x1="80.8609" y1="69.2767" x2="80.8609" y2="69.3232" gradientUnits="userSpaceOnUse">
<stop offset="0.104167" stop-color="#F2F1F0"/>
<stop offset="1" stop-color="#F2F1F0" stop-opacity="0"/>
</linearGradient>
<linearGradient id="paint9_linear_1504_362" x1="55.5712" y1="32.5676" x2="55.5712" y2="32.7679" gradientUnits="userSpaceOnUse">
<stop offset="0.104167" stop-color="#F2F1F0"/>
<stop offset="1" stop-color="#F2F1F0" stop-opacity="0"/>
</linearGradient>
<linearGradient id="paint10_linear_1504_362" x1="55.3989" y1="32.5617" x2="55.3989" y2="32.5683" gradientUnits="userSpaceOnUse">
<stop offset="0.104167" stop-color="#F2F1F0"/>
<stop offset="1" stop-color="#F2F1F0" stop-opacity="0"/>
</linearGradient>
<linearGradient id="paint11_linear_1504_362" x1="55.3545" y1="32.5167" x2="55.3545" y2="32.5632" gradientUnits="userSpaceOnUse">
<stop offset="0.104167" stop-color="#F2F1F0"/>
<stop offset="1" stop-color="#F2F1F0" stop-opacity="0"/>
</linearGradient>
<linearGradient id="paint12_linear_1504_362" x1="49.7271" y1="63.6343" x2="49.7271" y2="63.7135" gradientUnits="userSpaceOnUse">
<stop offset="0.104167" stop-color="#F2F1F0"/>
<stop offset="1" stop-color="#F2F1F0" stop-opacity="0"/>
</linearGradient>
<linearGradient id="paint13_linear_1504_362" x1="49.7528" y1="63.6221" x2="49.7528" y2="63.6353" gradientUnits="userSpaceOnUse">
<stop offset="0.104167" stop-color="#F2F1F0"/>
<stop offset="1" stop-color="#F2F1F0" stop-opacity="0"/>
</linearGradient>
<linearGradient id="paint14_linear_1504_362" x1="49.8559" y1="63.2894" x2="49.8559" y2="63.6233" gradientUnits="userSpaceOnUse">
<stop offset="0.104167" stop-color="#F2F1F0"/>
<stop offset="1" stop-color="#F2F1F0" stop-opacity="0"/>
</linearGradient>
<linearGradient id="paint15_linear_1504_362" x1="86.3588" y1="38.2168" x2="86.3588" y2="38.5507" gradientUnits="userSpaceOnUse">
<stop offset="0.104167" stop-color="#F2F1F0"/>
<stop offset="1" stop-color="#F2F1F0" stop-opacity="0"/>
</linearGradient>
<linearGradient id="paint16_linear_1504_362" x1="86.4612" y1="38.2051" x2="86.4612" y2="38.2183" gradientUnits="userSpaceOnUse">
<stop offset="0.104167" stop-color="#F2F1F0"/>
<stop offset="1" stop-color="#F2F1F0" stop-opacity="0"/>
</linearGradient>
<linearGradient id="paint17_linear_1504_362" x1="86.4875" y1="38.1277" x2="86.4875" y2="38.2069" gradientUnits="userSpaceOnUse">
<stop offset="0.104167" stop-color="#F2F1F0"/>
<stop offset="1" stop-color="#F2F1F0" stop-opacity="0"/>
</linearGradient>
<linearGradient id="paint18_linear_1504_362" x1="68.1038" y1="28.1519" x2="66.9366" y2="92.5499" gradientUnits="userSpaceOnUse">
<stop stop-color="#F2F1F0"/>
<stop offset="0.671875" stop-color="#90C5E7"/>
</linearGradient>
<linearGradient id="paint19_linear_1504_362" x1="80.8154" y1="69.2703" x2="80.8154" y2="69.2769" gradientUnits="userSpaceOnUse">
<stop offset="0.104167" stop-color="#F2F1F0"/>
<stop offset="1" stop-color="#F2F1F0" stop-opacity="0"/>
</linearGradient>
<linearGradient id="paint20_linear_1504_362" x1="80.6441" y1="69.0707" x2="80.6441" y2="69.271" gradientUnits="userSpaceOnUse">
<stop offset="0.104167" stop-color="#F2F1F0"/>
<stop offset="1" stop-color="#F2F1F0" stop-opacity="0"/>
</linearGradient>
<linearGradient id="paint21_linear_1504_362" x1="80.8609" y1="69.2767" x2="80.8609" y2="69.3232" gradientUnits="userSpaceOnUse">
<stop offset="0.104167" stop-color="#F2F1F0"/>
<stop offset="1" stop-color="#F2F1F0" stop-opacity="0"/>
</linearGradient>
<linearGradient id="paint22_linear_1504_362" x1="55.5712" y1="32.5676" x2="55.5712" y2="32.7679" gradientUnits="userSpaceOnUse">
<stop offset="0.104167" stop-color="#F2F1F0"/>
<stop offset="1" stop-color="#F2F1F0" stop-opacity="0"/>
</linearGradient>
<linearGradient id="paint23_linear_1504_362" x1="55.3989" y1="32.5617" x2="55.3989" y2="32.5683" gradientUnits="userSpaceOnUse">
<stop offset="0.104167" stop-color="#F2F1F0"/>
<stop offset="1" stop-color="#F2F1F0" stop-opacity="0"/>
</linearGradient>
<linearGradient id="paint24_linear_1504_362" x1="55.3545" y1="32.5167" x2="55.3545" y2="32.5632" gradientUnits="userSpaceOnUse">
<stop offset="0.104167" stop-color="#F2F1F0"/>
<stop offset="1" stop-color="#F2F1F0" stop-opacity="0"/>
</linearGradient>
<linearGradient id="paint25_linear_1504_362" x1="49.7271" y1="63.6343" x2="49.7271" y2="63.7135" gradientUnits="userSpaceOnUse">
<stop offset="0.104167" stop-color="#F2F1F0"/>
<stop offset="1" stop-color="#F2F1F0" stop-opacity="0"/>
</linearGradient>
<linearGradient id="paint26_linear_1504_362" x1="49.7528" y1="63.6221" x2="49.7528" y2="63.6353" gradientUnits="userSpaceOnUse">
<stop offset="0.104167" stop-color="#F2F1F0"/>
<stop offset="1" stop-color="#F2F1F0" stop-opacity="0"/>
</linearGradient>
<linearGradient id="paint27_linear_1504_362" x1="49.8559" y1="63.2894" x2="49.8559" y2="63.6233" gradientUnits="userSpaceOnUse">
<stop offset="0.104167" stop-color="#F2F1F0"/>
<stop offset="1" stop-color="#F2F1F0" stop-opacity="0"/>
</linearGradient>
<linearGradient id="paint28_linear_1504_362" x1="86.3588" y1="38.2168" x2="86.3588" y2="38.5507" gradientUnits="userSpaceOnUse">
<stop offset="0.104167" stop-color="#F2F1F0"/>
<stop offset="1" stop-color="#F2F1F0" stop-opacity="0"/>
</linearGradient>
<linearGradient id="paint29_linear_1504_362" x1="86.4612" y1="38.2051" x2="86.4612" y2="38.2183" gradientUnits="userSpaceOnUse">
<stop offset="0.104167" stop-color="#F2F1F0"/>
<stop offset="1" stop-color="#F2F1F0" stop-opacity="0"/>
</linearGradient>
<linearGradient id="paint30_linear_1504_362" x1="86.4875" y1="38.1277" x2="86.4875" y2="38.2069" gradientUnits="userSpaceOnUse">
<stop offset="0.104167" stop-color="#F2F1F0"/>
<stop offset="1" stop-color="#F2F1F0" stop-opacity="0"/>
</linearGradient>
<linearGradient id="paint31_linear_1504_362" x1="58.1997" y1="35.1177" x2="67.5353" y2="69.2416" gradientUnits="userSpaceOnUse">
<stop offset="0.0833333" stop-color="#9BF00B"/>
<stop offset="0.625" stop-color="#0D7012"/>
<stop offset="0.916667" stop-color="#043810"/>
</linearGradient>
<linearGradient id="paint32_linear_1504_362" x1="63.3046" y1="45.1915" x2="55.6215" y2="52.7344" gradientUnits="userSpaceOnUse">
<stop offset="0.104167" stop-color="#F3FABF"/>
<stop offset="0.838542" stop-color="#CFF885"/>
</linearGradient>
<linearGradient id="paint33_linear_1504_362" x1="49.3311" y1="43.5779" x2="56.1788" y2="67.3391" gradientUnits="userSpaceOnUse">
<stop offset="0.0833333" stop-color="#9BF00B"/>
<stop offset="0.625" stop-color="#0D7012"/>
<stop offset="0.916667" stop-color="#043810"/>
</linearGradient>
<linearGradient id="paint34_linear_1504_362" x1="85.5558" y1="45.9604" x2="82.5323" y2="66.8441" gradientUnits="userSpaceOnUse">
<stop offset="0.0833333" stop-color="#9BF00B"/>
<stop offset="0.625" stop-color="#0D7012"/>
<stop offset="0.916667" stop-color="#043810"/>
</linearGradient>
<clipPath id="clip0_1504_362">
<rect width="102" height="102" fill="white" transform="translate(0.0893555)"/>
</clipPath>
</defs>
</svg>
