<svg width="103" height="102" viewBox="0 0 103 102" fill="none" xmlns="http://www.w3.org/2000/svg">
<path d="M50.5892 96.8511C24.9927 96.8511 4.23816 76.1065 4.23816 50.5C4.23816 24.8935 24.9927 4.14893 50.5892 4.14893C76.1858 4.14893 96.9403 24.9034 96.9403 50.5C96.9403 76.0966 76.1858 96.8511 50.5892 96.8511Z" fill="url(#paint0_linear_1495_1478)"/>
<path fill-rule="evenodd" clip-rule="evenodd" d="M96.0395 50.5005C96.0395 75.602 75.691 95.9505 50.5895 95.9505C25.488 95.9505 5.13949 75.602 5.13949 50.5005C5.13949 25.399 25.488 5.05051 50.5895 5.05051C75.691 5.05051 96.0395 25.399 96.0395 50.5005ZM50.5895 1.34717C77.7407 1.34717 99.7428 23.3493 99.7428 50.5005C99.7428 77.6517 77.7308 99.6538 50.5895 99.6538C23.4383 99.6538 1.43616 77.6418 1.43616 50.5005C1.43616 23.3493 23.4383 1.34717 50.5895 1.34717Z" fill="#F2F1F0"/>
<circle cx="61.6006" cy="51.7974" r="7.50397" fill="#D9D9D9"/>
<circle cx="58.5045" cy="57.0152" r="4.69147" fill="#D9D9D9"/>
<circle cx="68.4362" cy="39.5417" r="12.9044" fill="#D9D9D9"/>
<path d="M47.9114 76.6543C47.3591 76.6543 46.9114 77.102 46.9114 77.6543V96.1246L60.8357 94.1806L63.6783 91.7626L68.0203 90.5786V92.3134L83.7389 79.8466V76.6543H47.9114Z" fill="#50E6FF"/>
<path d="M60.6874 60.624H55.4454L55.1414 64.6649L60.984 64.8132L60.6874 60.624Z" fill="#50E6FF"/>
<path d="M55.1488 64.6724L54.5557 76.6541H61.5994L61.0062 64.8281L55.1488 64.6724Z" fill="#0078D4"/>
<path d="M54.2443 82.3408H51.8494V84.7357H54.2443V82.3408Z" fill="#0078D7"/>
<path d="M60.3909 82.3408H57.996V84.7357H60.3909V82.3408Z" fill="#0078D7"/>
<path d="M78.9566 82.3408H76.5618V84.7357H78.9566V82.3408Z" fill="#0078D7"/>
<path d="M72.8175 82.3408H70.4226V84.7357H72.8175V82.3408Z" fill="#0078D7"/>
<path d="M66.6709 82.3408H64.276V84.7357H66.6709V82.3408Z" fill="#0078D7"/>
<path d="M72.6618 60.624H67.2789L67.1306 64.6649L72.9732 64.8132L72.6618 60.624Z" fill="#50E6FF"/>
<path d="M67.1231 64.6724L66.3743 76.6541H73.5589L72.9657 64.8281L67.1231 64.6724Z" fill="#0078D4"/>
<path d="M84.6435 60.624H79.2532L78.9492 64.6649L84.7918 64.8132L84.6435 60.624Z" fill="#50E6FF"/>
<path d="M78.9567 64.6724L78.3635 76.6541H85.5481L84.7992 64.8281L78.9567 64.6724Z" fill="#0078D4"/>
<g filter="url(#filter0_ddddd_1495_1478)">
<path d="M44.6187 29.8376H19.3674C19.2455 29.8352 19.1244 29.8575 19.0112 29.9031C18.8981 29.9487 18.7953 30.0166 18.709 30.1028C18.6228 30.1891 18.5549 30.2919 18.5093 30.405C18.4637 30.5182 18.4414 30.6393 18.4438 30.7612V68.3157C18.4438 68.5607 18.5412 68.7956 18.7144 68.9688C18.8876 69.142 19.1225 69.2394 19.3674 69.2394H44.6187C44.8637 69.2394 45.0986 69.142 45.2718 68.9688C45.445 68.7956 45.5424 68.5607 45.5424 68.3157V30.7612C45.5447 30.6393 45.5224 30.5182 45.4769 30.405C45.4313 30.2919 45.3633 30.1891 45.2771 30.1028C45.1909 30.0166 45.088 29.9487 44.9749 29.9031C44.8618 29.8575 44.7406 29.8352 44.6187 29.8376V29.8376Z" fill="url(#paint1_linear_1495_1478)"/>
</g>
<g filter="url(#filter1_ddddd_1495_1478)">
<path d="M40.5933 34.77H23.3757V42.1415H40.6108V34.77H40.5933Z" fill="white"/>
</g>
<path d="M25.8328 47.0728H23.3757V49.53H25.8328V47.0728Z" fill="#50E6FF"/>
<path d="M25.8328 54.4619H23.3757V57.0062H25.8328V54.4619Z" fill="#2BC0E4"/>
<path d="M25.8328 61.8511H23.3757V64.3082H25.8328V61.8511Z" fill="#057DD8"/>
<path d="M33.2218 47.0728H30.7645V49.53H33.2218V47.0728Z" fill="#50E6FF"/>
<path d="M33.2218 54.4619H30.7645V57.0062H33.2218V54.4619Z" fill="#2BC0E4"/>
<path d="M33.2218 61.8511H30.7645V64.3082H33.2218V61.8511Z" fill="#057DD8"/>
<path d="M40.5932 47.0728H38.1361V49.53H40.5932V47.0728Z" fill="#50E6FF"/>
<path d="M40.5932 54.4619H38.1361V57.0062H40.5932V54.4619Z" fill="#2BC0E4"/>
<path d="M40.5932 61.8511H38.1361V64.3082H40.5932V61.8511Z" fill="#057DD8"/>
<path fill-rule="evenodd" clip-rule="evenodd" d="M93.2568 50.4998C93.2568 74.0665 74.1559 93.1673 50.5893 93.1673C27.0226 93.1673 7.92172 74.0665 7.92172 50.4998C7.92172 26.9331 27.0226 7.83224 50.5893 7.83224C74.1559 7.83224 93.2568 26.9331 93.2568 50.4998ZM50.5893 4.12891C76.1957 4.12891 96.9601 24.8933 96.9601 50.4998C96.9601 76.1063 76.1957 96.8707 50.5893 96.8707C24.9828 96.8707 4.21838 76.1063 4.21838 50.4998C4.21838 24.8933 24.9729 4.12891 50.5893 4.12891Z" fill="url(#paint2_linear_1495_1478)"/>
<circle cx="78.2206" cy="24.1024" r="15.1239" fill="#D9D9D9"/>
<defs>
<filter id="filter0_ddddd_1495_1478" x="15.4436" y="28.8374" width="33.099" height="51.4019" filterUnits="userSpaceOnUse" color-interpolation-filters="sRGB">
<feFlood flood-opacity="0" result="BackgroundImageFix"/>
<feColorMatrix in="SourceAlpha" type="matrix" values="0 0 0 0 0 0 0 0 0 0 0 0 0 0 0 0 0 0 127 0" result="hardAlpha"/>
<feOffset/>
<feColorMatrix type="matrix" values="0 0 0 0 0 0 0 0 0 0 0 0 0 0 0 0 0 0 0.1 0"/>
<feBlend mode="normal" in2="BackgroundImageFix" result="effect1_dropShadow_1495_1478"/>
<feColorMatrix in="SourceAlpha" type="matrix" values="0 0 0 0 0 0 0 0 0 0 0 0 0 0 0 0 0 0 127 0" result="hardAlpha"/>
<feOffset/>
<feGaussianBlur stdDeviation="0.5"/>
<feColorMatrix type="matrix" values="0 0 0 0 0 0 0 0 0 0 0 0 0 0 0 0 0 0 0.1 0"/>
<feBlend mode="normal" in2="effect1_dropShadow_1495_1478" result="effect2_dropShadow_1495_1478"/>
<feColorMatrix in="SourceAlpha" type="matrix" values="0 0 0 0 0 0 0 0 0 0 0 0 0 0 0 0 0 0 127 0" result="hardAlpha"/>
<feOffset dy="2"/>
<feGaussianBlur stdDeviation="1"/>
<feColorMatrix type="matrix" values="0 0 0 0 0 0 0 0 0 0 0 0 0 0 0 0 0 0 0.09 0"/>
<feBlend mode="normal" in2="effect2_dropShadow_1495_1478" result="effect3_dropShadow_1495_1478"/>
<feColorMatrix in="SourceAlpha" type="matrix" values="0 0 0 0 0 0 0 0 0 0 0 0 0 0 0 0 0 0 127 0" result="hardAlpha"/>
<feOffset dy="4"/>
<feGaussianBlur stdDeviation="1.5"/>
<feColorMatrix type="matrix" values="0 0 0 0 0 0 0 0 0 0 0 0 0 0 0 0 0 0 0.05 0"/>
<feBlend mode="normal" in2="effect3_dropShadow_1495_1478" result="effect4_dropShadow_1495_1478"/>
<feColorMatrix in="SourceAlpha" type="matrix" values="0 0 0 0 0 0 0 0 0 0 0 0 0 0 0 0 0 0 127 0" result="hardAlpha"/>
<feOffset dy="8"/>
<feGaussianBlur stdDeviation="1.5"/>
<feColorMatrix type="matrix" values="0 0 0 0 0 0 0 0 0 0 0 0 0 0 0 0 0 0 0.01 0"/>
<feBlend mode="normal" in2="effect4_dropShadow_1495_1478" result="effect5_dropShadow_1495_1478"/>
<feBlend mode="normal" in="SourceGraphic" in2="effect5_dropShadow_1495_1478" result="shape"/>
</filter>
<filter id="filter1_ddddd_1495_1478" x="22.3757" y="34.77" width="19.235" height="10.3716" filterUnits="userSpaceOnUse" color-interpolation-filters="sRGB">
<feFlood flood-opacity="0" result="BackgroundImageFix"/>
<feColorMatrix in="SourceAlpha" type="matrix" values="0 0 0 0 0 0 0 0 0 0 0 0 0 0 0 0 0 0 127 0" result="hardAlpha"/>
<feOffset/>
<feColorMatrix type="matrix" values="0 0 0 0 0 0 0 0 0 0 0 0 0 0 0 0 0 0 0.1 0"/>
<feBlend mode="normal" in2="BackgroundImageFix" result="effect1_dropShadow_1495_1478"/>
<feColorMatrix in="SourceAlpha" type="matrix" values="0 0 0 0 0 0 0 0 0 0 0 0 0 0 0 0 0 0 127 0" result="hardAlpha"/>
<feOffset/>
<feColorMatrix type="matrix" values="0 0 0 0 0 0 0 0 0 0 0 0 0 0 0 0 0 0 0.1 0"/>
<feBlend mode="normal" in2="effect1_dropShadow_1495_1478" result="effect2_dropShadow_1495_1478"/>
<feColorMatrix in="SourceAlpha" type="matrix" values="0 0 0 0 0 0 0 0 0 0 0 0 0 0 0 0 0 0 127 0" result="hardAlpha"/>
<feOffset dy="1"/>
<feGaussianBlur stdDeviation="0.5"/>
<feColorMatrix type="matrix" values="0 0 0 0 0 0 0 0 0 0 0 0 0 0 0 0 0 0 0.09 0"/>
<feBlend mode="normal" in2="effect2_dropShadow_1495_1478" result="effect3_dropShadow_1495_1478"/>
<feColorMatrix in="SourceAlpha" type="matrix" values="0 0 0 0 0 0 0 0 0 0 0 0 0 0 0 0 0 0 127 0" result="hardAlpha"/>
<feOffset dy="1"/>
<feGaussianBlur stdDeviation="0.5"/>
<feColorMatrix type="matrix" values="0 0 0 0 0 0 0 0 0 0 0 0 0 0 0 0 0 0 0.05 0"/>
<feBlend mode="normal" in2="effect3_dropShadow_1495_1478" result="effect4_dropShadow_1495_1478"/>
<feColorMatrix in="SourceAlpha" type="matrix" values="0 0 0 0 0 0 0 0 0 0 0 0 0 0 0 0 0 0 127 0" result="hardAlpha"/>
<feOffset dy="2"/>
<feGaussianBlur stdDeviation="0.5"/>
<feColorMatrix type="matrix" values="0 0 0 0 0 0 0 0 0 0 0 0 0 0 0 0 0 0 0.01 0"/>
<feBlend mode="normal" in2="effect4_dropShadow_1495_1478" result="effect5_dropShadow_1495_1478"/>
<feBlend mode="normal" in="SourceGraphic" in2="effect5_dropShadow_1495_1478" result="shape"/>
</filter>
<linearGradient id="paint0_linear_1495_1478" x1="24.8745" y1="8.99709" x2="99.781" y2="148.193" gradientUnits="userSpaceOnUse">
<stop offset="0.0001" stop-color="#50E6FF"/>
<stop offset="0.623265" stop-color="#0078D4"/>
</linearGradient>
<linearGradient id="paint1_linear_1495_1478" x1="24.4909" y1="13.1602" x2="36.5501" y2="71.6792" gradientUnits="userSpaceOnUse">
<stop stop-color="#007ED8"/>
<stop offset="0.89" stop-color="#002D4C"/>
</linearGradient>
<linearGradient id="paint2_linear_1495_1478" x1="2.49584" y1="-20.4206" x2="97.0868" y2="119.08" gradientUnits="userSpaceOnUse">
<stop stop-color="#007ED8"/>
<stop offset="0.7065" stop-color="#002D4C"/>
</linearGradient>
</defs>
</svg>
