<svg width="103" height="102" viewBox="0 0 103 102" fill="none" xmlns="http://www.w3.org/2000/svg">
<path d="M51.1469 97.8099C25.2969 97.8099 4.33691 76.8599 4.33691 50.9999C4.33691 25.1399 25.2969 4.18994 51.1469 4.18994C76.9969 4.18994 97.9569 25.1499 97.9569 50.9999C97.9569 76.8499 76.9969 97.8099 51.1469 97.8099Z" fill="url(#paint0_linear_1310_1664)"/>
<path fill-rule="evenodd" clip-rule="evenodd" d="M97.0468 51.0004C97.0468 76.3504 76.4968 96.9003 51.1468 96.9003C25.7968 96.9003 5.24684 76.3504 5.24684 51.0004C5.24684 25.6504 25.7968 5.10036 51.1468 5.10036C76.4968 5.10036 97.0468 25.6504 97.0468 51.0004ZM51.1468 1.36035C78.5668 1.36035 100.787 23.5804 100.787 51.0004C100.787 78.4204 78.5568 100.64 51.1468 100.64C23.7268 100.64 1.50684 78.4104 1.50684 51.0004C1.50684 23.5804 23.7268 1.36035 51.1468 1.36035Z" fill="#F2F1F0"/>
<path fill-rule="evenodd" clip-rule="evenodd" d="M94.2364 50.9999C94.2364 74.7999 74.9464 94.0899 51.1464 94.0899C27.3464 94.0899 8.05641 74.7999 8.05641 50.9999C8.05641 27.1999 27.3464 7.90993 51.1464 7.90993C74.9464 7.90993 94.2364 27.1999 94.2364 50.9999ZM51.1464 4.16992C77.0064 4.16992 97.9764 25.1399 97.9764 50.9999C97.9764 76.8599 77.0064 97.8299 51.1464 97.8299C25.2864 97.8299 4.31641 76.8599 4.31641 50.9999C4.31641 25.1399 25.2764 4.16992 51.1464 4.16992Z" fill="url(#paint1_linear_1310_1664)"/>
<path opacity="0.15" d="M69.5417 82.4051H28.0258C27.2015 82.4051 26.5146 81.7182 26.5146 80.894V23.7993C26.5146 22.5079 27.5587 21.4639 28.8501 21.4639H73.8554C74.927 21.4639 75.7787 22.3431 75.7787 23.3872V76.0582C75.8062 79.6026 73.0037 82.4051 69.5417 82.4051Z" fill="#1F1D20"/>
<g filter="url(#filter0_d_1310_1664)">
<path d="M69.5417 80.536H28.0258C27.2015 80.536 26.5146 79.8491 26.5146 79.0248V21.9302C26.5146 20.6388 27.5587 19.5947 28.8501 19.5947H73.8554C74.927 19.5947 75.7787 20.474 75.7787 21.518V74.1891C75.8062 77.7335 73.0037 80.536 69.5417 80.536Z" fill="white"/>
</g>
<path d="M48.3083 69.407C48.3083 68.9763 47.9584 68.6265 47.5278 68.6265H32.6447C32.2141 68.6265 31.8643 68.9763 31.8643 69.407C31.8643 69.8376 32.2141 70.1874 32.6447 70.1874H47.5413C47.9719 70.174 48.3083 69.8376 48.3083 69.407Z" fill="#9D9E9D"/>
<path d="M48.3083 73.6057C48.3083 73.1751 47.9584 72.8252 47.5278 72.8252H32.6447C32.2141 72.8252 31.8643 73.1751 31.8643 73.6057C31.8643 74.0363 32.2141 74.3862 32.6447 74.3862H47.5413C47.9719 74.3862 48.3083 74.0363 48.3083 73.6057Z" fill="#9D9E9D"/>
<path d="M47.5413 64.1455H32.6447C32.2141 64.1455 31.8643 64.4954 31.8643 64.926C31.8643 65.3566 32.2141 65.7065 32.6447 65.7065H47.5413C47.9719 65.7065 48.3218 65.3566 48.3218 64.926C48.3218 64.4954 47.9719 64.1455 47.5413 64.1455Z" fill="#9D9E9D"/>
<path d="M68.9094 35.9201L63.4812 38.7677L57.7861 35.9201V24.7969H68.9094V35.9201Z" fill="#185A97"/>
<path fill-rule="evenodd" clip-rule="evenodd" d="M64.1006 42.4771L64.1006 56.5112L62.6006 56.5112L62.6006 42.4771L64.1006 42.4771Z" fill="#959595"/>
<path d="M66.3353 55.638L63.3507 60.814L60.3604 55.638L66.3353 55.638Z" fill="#959595"/>
<path d="M38.9541 58.2462C42.3083 58.2462 45.0274 55.5271 45.0274 52.1729C45.0274 48.8187 42.3083 46.0996 38.9541 46.0996C35.6 46.0996 32.8809 48.8187 32.8809 52.1729C32.8809 55.5271 35.6 58.2462 38.9541 58.2462Z" fill="#0078D4"/>
<path d="M69.4585 63.5903H57.2373V75.8115H69.4585V63.5903Z" fill="#243A5E"/>
<g clip-path="url(#clip0_1310_1664)">
<path fill-rule="evenodd" clip-rule="evenodd" d="M36.2246 29.1323C36.2246 28.7181 36.5604 28.3823 36.9746 28.3823H49.2246C49.6388 28.3823 49.9746 28.7181 49.9746 29.1323C49.9746 29.5465 49.6388 29.8823 49.2246 29.8823H37.7246V40.2123C37.7246 40.6265 37.3888 40.9623 36.9746 40.9623C36.5604 40.9623 36.2246 40.6265 36.2246 40.2123V29.1323Z" fill="#959595"/>
<path d="M48.3545 26.1421L53.5245 29.1421L48.3545 32.1421V26.1421Z" fill="#959595"/>
</g>
<defs>
<filter id="filter0_d_1310_1664" x="22.5146" y="17.5947" width="57.2646" height="68.9414" filterUnits="userSpaceOnUse" color-interpolation-filters="sRGB">
<feFlood flood-opacity="0" result="BackgroundImageFix"/>
<feColorMatrix in="SourceAlpha" type="matrix" values="0 0 0 0 0 0 0 0 0 0 0 0 0 0 0 0 0 0 127 0" result="hardAlpha"/>
<feOffset dy="2"/>
<feGaussianBlur stdDeviation="2"/>
<feComposite in2="hardAlpha" operator="out"/>
<feColorMatrix type="matrix" values="0 0 0 0 0 0 0 0 0 0 0 0 0 0 0 0 0 0 0.25 0"/>
<feBlend mode="normal" in2="BackgroundImageFix" result="effect1_dropShadow_1310_1664"/>
<feBlend mode="normal" in="SourceGraphic" in2="effect1_dropShadow_1310_1664" result="shape"/>
</filter>
<linearGradient id="paint0_linear_1310_1664" x1="49.373" y1="-13.7896" x2="53.355" y2="131.981" gradientUnits="userSpaceOnUse">
<stop stop-color="#00ABDE"/>
<stop offset="1" stop-color="#007ED8"/>
</linearGradient>
<linearGradient id="paint1_linear_1310_1664" x1="2.57681" y1="-20.6227" x2="98.1043" y2="120.259" gradientUnits="userSpaceOnUse">
<stop stop-color="#007ED8"/>
<stop offset="0.7065" stop-color="#002D4C"/>
</linearGradient>
<clipPath id="clip0_1310_1664">
<rect width="17.3" height="14.82" fill="white" transform="translate(36.2246 26.1421)"/>
</clipPath>
</defs>
</svg>
