<svg width="102" height="102" viewBox="0 0 102 102" fill="none" xmlns="http://www.w3.org/2000/svg">
<path d="M51.0004 97.8099C25.1504 97.8099 4.19043 76.8599 4.19043 50.9999C4.19043 25.1399 25.1504 4.18994 51.0004 4.18994C76.8504 4.18994 97.8104 25.1499 97.8104 50.9999C97.8104 76.8499 76.8504 97.8099 51.0004 97.8099Z" fill="url(#paint0_linear_1313_464)"/>
<path fill-rule="evenodd" clip-rule="evenodd" d="M96.9004 51.0004C96.9004 76.3504 76.3504 96.9003 51.0004 96.9003C25.6504 96.9003 5.10035 76.3504 5.10035 51.0004C5.10035 25.6504 25.6504 5.10036 51.0004 5.10036C76.3504 5.10036 96.9004 25.6504 96.9004 51.0004ZM51.0004 1.36035C78.4204 1.36035 100.64 23.5804 100.64 51.0004C100.64 78.4204 78.4104 100.64 51.0004 100.64C23.5804 100.64 1.36035 78.4104 1.36035 51.0004C1.36035 23.5804 23.5804 1.36035 51.0004 1.36035Z" fill="#F2F1F0"/>
<path fill-rule="evenodd" clip-rule="evenodd" d="M94.0899 50.9999C94.0899 74.7999 74.7999 94.0899 50.9999 94.0899C27.1999 94.0899 7.90992 74.7999 7.90992 50.9999C7.90992 27.1999 27.1999 7.90993 50.9999 7.90993C74.7999 7.90993 94.0899 27.1999 94.0899 50.9999ZM50.9999 4.16992C76.8599 4.16992 97.8299 25.1399 97.8299 50.9999C97.8299 76.8599 76.8599 97.8299 50.9999 97.8299C25.1399 97.8299 4.16992 76.8599 4.16992 50.9999C4.16992 25.1399 25.1299 4.16992 50.9999 4.16992Z" fill="url(#paint1_linear_1313_464)"/>
<path d="M77.7849 55.2188H67.376V56.0178H77.7849V55.2188Z" fill="white"/>
<path d="M77.7849 45.3105H67.376V46.1096H77.7849V45.3105Z" fill="white"/>
<path d="M78.722 65.918H67.4796C67.3736 65.918 67.272 65.8759 67.1971 65.801C67.1222 65.726 67.0801 65.6244 67.0801 65.5185V35.7862C67.0801 35.6803 67.1222 35.5787 67.1971 35.5038C67.272 35.4288 67.3736 35.3867 67.4796 35.3867H78.722V36.1858H67.8791V65.119H78.722V65.918Z" fill="white"/>
<path d="M67.5006 50.5439H56.3223V51.343H67.5006V50.5439Z" fill="white"/>
<path opacity="0.2" d="M84.8964 72.5765C85.4316 72.5765 85.8756 72.1439 85.8756 71.5974V34.8262H70.2275V71.5974C70.2275 72.1325 70.6602 72.5765 71.2067 72.5765L84.8964 72.5765Z" fill="#1F1D21"/>
<path d="M85.9013 32.1858V30.9335C85.9013 30.3073 85.389 29.7949 84.7628 29.7949H71.3661C70.7399 29.7949 70.2275 30.3073 70.2275 30.9335V32.2542V33.0056V70.7348C70.2275 71.361 70.7399 71.8733 71.3661 71.8733H84.7628C85.389 71.8733 85.9013 71.361 85.9013 70.7348V32.2542C85.9127 32.2314 85.9013 32.2086 85.9013 32.1858Z" fill="white"/>
<path opacity="0.2" d="M63.6464 66.3574C64.1816 66.3574 64.6256 65.9248 64.6256 65.3783V37.5137H48.9775V65.3783C48.9775 65.9134 49.4102 66.3574 49.9567 66.3574L63.6464 66.3574Z" fill="#1F1D21"/>
<path d="M64.6513 38.1858V36.9335C64.6513 36.3073 64.139 35.7949 63.5128 35.7949H50.1161C49.4899 35.7949 48.9775 36.3073 48.9775 36.9335V38.2542V39.0056L48.9775 64.5939C48.9775 65.2201 49.4899 65.7324 50.1161 65.7324H63.5128C64.139 65.7324 64.6513 65.2201 64.6513 64.5939L64.6513 38.2542C64.6627 38.2314 64.6513 38.2086 64.6513 38.1858Z" fill="white"/>
<path d="M56.9024 61.2828H46.4591C46.3531 61.2828 46.2515 61.2407 46.1766 61.1658C46.1017 61.0908 46.0596 60.9892 46.0596 60.8833V41.0353C46.0596 40.9293 46.1017 40.8277 46.1766 40.7528C46.2515 40.6779 46.3531 40.6357 46.4591 40.6357H56.9024V41.4348H46.8746V60.4838H56.9184L56.9024 61.2828Z" fill="white"/>
<path d="M56.9026 50.5527H45.6602V51.3518H56.9026V50.5527Z" fill="white"/>
<path d="M45.7001 50.5527H35.4404V51.3518H45.7001V50.5527Z" fill="white"/>
<path opacity="0.15" d="M61.2161 38.9213H52.4975C52.2419 38.9213 51.9968 39.023 51.816 39.2038C51.6353 39.3845 51.5336 39.6296 51.5336 39.8853V45.2372C51.5298 45.3661 51.5519 45.4945 51.5987 45.6148C51.6454 45.735 51.7158 45.8445 51.8057 45.937C51.8956 46.0296 52.0032 46.1031 52.122 46.1533C52.2409 46.2035 52.3685 46.2295 52.4975 46.2295H61.2445C61.3713 46.2304 61.4971 46.2063 61.6145 46.1582C61.7318 46.1101 61.8387 46.0388 61.9284 45.9491C62.0181 45.8594 62.089 45.7529 62.1371 45.6355C62.1852 45.5182 62.2097 45.3924 62.2087 45.2656V39.9209C62.2136 39.7889 62.1914 39.6573 62.1433 39.5343C62.0953 39.4113 62.0225 39.2996 61.9294 39.2058C61.8364 39.1121 61.725 39.0384 61.6023 38.9895C61.4797 38.9406 61.3481 38.9174 61.2161 38.9213Z" fill="#1F1D20"/>
<path opacity="0.15" d="M61.2157 56.7341H52.4971C52.2414 56.7341 51.9964 56.8358 51.8156 57.0165C51.6348 57.1973 51.5332 57.4427 51.5332 57.6984V63.0572C51.5332 63.3129 51.6348 63.5579 51.8156 63.7387C51.9964 63.9195 52.2414 64.0211 52.4971 64.0211H61.244C61.4997 64.0211 61.7451 63.9195 61.9259 63.7387C62.1067 63.5579 62.2083 63.3129 62.2083 63.0572V57.7126C62.2093 57.5826 62.1839 57.4536 62.1342 57.3336C62.0845 57.2135 62.0115 57.1046 61.919 57.0134C61.8264 56.9222 61.7165 56.8506 61.5957 56.8026C61.4749 56.7547 61.3456 56.7313 61.2157 56.7341V56.7341Z" fill="#1F1D20"/>
<path opacity="0.15" d="M61.2157 47.8095H52.4971C52.2414 47.8095 51.9964 47.9111 51.8156 48.0919C51.6348 48.2727 51.5332 48.5177 51.5332 48.7734V54.1253C51.5332 54.381 51.6348 54.626 51.8156 54.8068C51.9964 54.9876 52.2414 55.0893 52.4971 55.0893H61.244C61.3709 55.0902 61.4967 55.0661 61.614 55.018C61.7314 54.9698 61.8383 54.8986 61.928 54.8089C62.0177 54.7192 62.0886 54.6127 62.1367 54.4953C62.1848 54.3779 62.2093 54.2522 62.2083 54.1253V48.7734C62.2084 48.6444 62.1824 48.5167 62.1322 48.3979C62.082 48.279 62.0084 48.1714 61.9158 48.0815C61.8233 47.9916 61.7135 47.9213 61.5933 47.8746C61.473 47.8278 61.3446 47.8057 61.2157 47.8095V47.8095Z" fill="#1F1D20"/>
<path d="M61.2157 38.2834H52.4971C52.2414 38.2834 51.9964 38.3851 51.8156 38.5659C51.6348 38.7467 51.5332 38.9917 51.5332 39.2474V44.5993C51.5332 44.8549 51.6348 45.1 51.8156 45.2808C51.9964 45.4616 52.2414 45.5632 52.4971 45.5632H61.244C61.3709 45.5641 61.4967 45.5397 61.614 45.4915C61.7314 45.4434 61.8383 45.3725 61.928 45.2828C62.0177 45.1931 62.0886 45.0867 62.1367 44.9693C62.1848 44.8519 62.2093 44.7261 62.2083 44.5993V39.2546C62.2083 39.1253 62.1823 38.9973 62.1322 38.8781C62.082 38.7588 62.0086 38.6508 61.9162 38.5603C61.8238 38.4699 61.7143 38.3988 61.594 38.3513C61.4737 38.3037 61.345 38.2806 61.2157 38.2834V38.2834Z" fill="#5FA1F0"/>
<path d="M61.2157 56.0964H52.4971C52.2414 56.0964 51.9964 56.1981 51.8156 56.3789C51.6348 56.5596 51.5332 56.8047 51.5332 57.0603V62.4192C51.5332 62.6749 51.6348 62.9202 51.8156 63.101C51.9964 63.2818 52.2414 63.3834 52.4971 63.3834H61.244C61.4997 63.3834 61.7451 63.2818 61.9259 63.101C62.1067 62.9202 62.2083 62.6749 62.2083 62.4192V57.0745C62.2093 56.9446 62.1839 56.8159 62.1342 56.6959C62.0845 56.5758 62.0115 56.467 61.919 56.3757C61.8264 56.2845 61.7165 56.2129 61.5957 56.165C61.4749 56.117 61.3456 56.0936 61.2157 56.0964V56.0964Z" fill="#0153B4"/>
<path d="M61.2157 47.1791H52.4971C52.2414 47.1791 51.9964 47.2808 51.8156 47.4616C51.6348 47.6423 51.5332 47.8877 51.5332 48.1434V53.495C51.5332 53.7506 51.6348 53.9957 51.8156 54.1765C51.9964 54.3572 52.2414 54.4589 52.4971 54.4589H61.244C61.3709 54.4598 61.4967 54.4357 61.614 54.3876C61.7314 54.3395 61.8383 54.2686 61.928 54.1789C62.0177 54.0892 62.0886 53.9823 62.1367 53.865C62.1848 53.7476 62.2093 53.6218 62.2083 53.495V48.1434C62.2084 48.0144 62.1824 47.8864 62.1322 47.7675C62.082 47.6487 62.0084 47.5414 61.9158 47.4515C61.8233 47.3616 61.7135 47.2909 61.5933 47.2442C61.473 47.1975 61.3446 47.1753 61.2157 47.1791V47.1791Z" fill="#0181E6"/>
<path opacity="0.15" d="M82.4041 34.2657H73.6641C73.4084 34.2657 73.1634 34.3673 72.9826 34.5481C72.8018 34.7289 72.7002 34.9739 72.7002 35.2296V40.56C72.7002 40.8157 72.8018 41.0607 72.9826 41.2415C73.1634 41.4223 73.4084 41.524 73.6641 41.524H82.4114C82.5382 41.5249 82.664 41.5008 82.7814 41.4527C82.8988 41.4045 83.0052 41.3337 83.095 41.2439C83.1847 41.1542 83.2555 41.0474 83.3037 40.93C83.3518 40.8126 83.3762 40.6869 83.3753 40.56V35.2154C83.3716 34.9609 83.2675 34.7184 83.0856 34.5405C82.9037 34.3625 82.6586 34.2638 82.4041 34.2657V34.2657Z" fill="#1F1D20"/>
<path opacity="0.15" d="M82.4041 52.0776H73.6641C73.4084 52.0776 73.1634 52.1793 72.9826 52.3601C72.8018 52.5409 72.7002 52.7859 72.7002 53.0416V58.4004C72.7002 58.6561 72.8018 58.9014 72.9826 59.0822C73.1634 59.263 73.4084 59.3643 73.6641 59.3643H82.4114C82.6671 59.3643 82.9121 59.263 83.0929 59.0822C83.2737 58.9014 83.3753 58.6561 83.3753 58.4004V53.0557C83.3762 52.9276 83.3517 52.8006 83.3033 52.6819C83.2549 52.5633 83.1835 52.4555 83.0932 52.3646C83.003 52.2736 82.8959 52.2016 82.7776 52.1524C82.6593 52.1032 82.5322 52.0776 82.4041 52.0776V52.0776Z" fill="#1F1D20"/>
<path opacity="0.15" d="M82.4041 43.1529H73.6641C73.4084 43.1529 73.1634 43.2542 72.9826 43.4349C72.8018 43.6157 72.7002 43.8611 72.7002 44.1168V49.4684C72.7002 49.724 72.8018 49.9694 72.9826 50.1502C73.1634 50.331 73.4084 50.4326 73.6641 50.4326H82.4114C82.5382 50.4336 82.664 50.4091 82.7814 50.361C82.8988 50.3129 83.0052 50.242 83.095 50.1523C83.1847 50.0626 83.2555 49.9557 83.3037 49.8383C83.3518 49.721 83.3762 49.5952 83.3753 49.4684V44.1026C83.3716 43.8481 83.2675 43.6056 83.0856 43.4277C82.9037 43.2497 82.6586 43.151 82.4041 43.1529V43.1529Z" fill="#1F1D20"/>
<path opacity="0.15" d="M82.4041 60.9673H73.6641C73.4084 60.9673 73.1634 61.0689 72.9826 61.2497C72.8018 61.4305 72.7002 61.6755 72.7002 61.9312V67.29C72.7002 67.5457 72.8018 67.7911 72.9826 67.9719C73.1634 68.1527 73.4084 68.254 73.6641 68.254H82.4114C82.6671 68.254 82.9121 68.1527 83.0929 67.9719C83.2737 67.7911 83.3753 67.5457 83.3753 67.29V61.9385C83.3753 61.6809 83.2729 61.4339 83.0908 61.2518C82.9087 61.0697 82.6617 60.9673 82.4041 60.9673V60.9673Z" fill="#1F1D20"/>
<path d="M82.4041 33.627H73.6641C73.4084 33.627 73.1634 33.7282 72.9826 33.909C72.8018 34.0898 72.7002 34.3352 72.7002 34.5909V39.9424C72.7002 40.1981 72.8018 40.4435 72.9826 40.6243C73.1634 40.8051 73.4084 40.9067 73.6641 40.9067H82.4114C82.5382 40.9077 82.664 40.8832 82.7814 40.8351C82.8988 40.787 83.0052 40.7161 83.095 40.6264C83.1847 40.5367 83.2555 40.4298 83.3037 40.3124C83.3518 40.1951 83.3762 40.0693 83.3753 39.9424V34.5978C83.3753 34.3402 83.2729 34.0932 83.0908 33.9111C82.9087 33.729 82.6617 33.627 82.4041 33.627V33.627Z" fill="#5FA1F0"/>
<path d="M82.4041 51.4399H73.6641C73.4084 51.4399 73.1634 51.5416 72.9826 51.7224C72.8018 51.9032 72.7002 52.1482 72.7002 52.4039V57.7627C72.7002 58.0184 72.8018 58.2634 72.9826 58.4442C73.1634 58.625 73.4084 58.7266 73.6641 58.7266H82.4114C82.6671 58.7266 82.9121 58.625 83.0929 58.4442C83.2737 58.2634 83.3753 58.0184 83.3753 57.7627V52.4181C83.3762 52.2899 83.3517 52.1629 83.3033 52.0443C83.2549 51.9256 83.1835 51.8178 83.0932 51.7269C83.003 51.6359 82.8959 51.5636 82.7776 51.5144C82.6593 51.4651 82.5322 51.4399 82.4041 51.4399V51.4399Z" fill="#0078D4"/>
<path d="M82.4041 42.5225H73.6641C73.4084 42.5225 73.1634 42.6241 72.9826 42.8049C72.8018 42.9857 72.7002 43.2307 72.7002 43.4864V48.8383C72.7002 49.094 72.8018 49.339 72.9826 49.5198C73.1634 49.7006 73.4084 49.8022 73.6641 49.8022H82.4114C82.5382 49.8032 82.664 49.7787 82.7814 49.7306C82.8988 49.6825 83.0052 49.6116 83.095 49.5219C83.1847 49.4322 83.2555 49.3257 83.3037 49.2083C83.3518 49.0909 83.3762 48.9652 83.3753 48.8383V43.4864C83.3753 43.3592 83.3501 43.2335 83.3012 43.1161C83.2523 42.9986 83.1807 42.8918 83.0905 42.8021C83.0002 42.7125 82.8929 42.6418 82.7751 42.5938C82.6574 42.5458 82.5313 42.5216 82.4041 42.5225Z" fill="#1B93EB"/>
<path d="M82.4041 60.3354H73.6641C73.4084 60.3354 73.1634 60.4371 72.9826 60.6179C72.8018 60.7987 72.7002 61.0437 72.7002 61.2994V66.6582C72.7002 66.9139 72.8018 67.1593 72.9826 67.34C73.1634 67.5208 73.4084 67.6225 73.6641 67.6225H82.4114C82.6671 67.6225 82.9121 67.5208 83.0929 67.34C83.2737 67.1593 83.3753 66.9139 83.3753 66.6582V61.3066C83.3753 61.0491 83.2729 60.8021 83.0908 60.62C82.9087 60.4378 82.6617 60.3354 82.4041 60.3354V60.3354Z" fill="#0153B4"/>
<path opacity="0.2" d="M41.8343 66.1217C42.6718 66.1217 43.3542 65.4392 43.3542 64.6017V36.9531H13.4619V64.5914C13.4619 65.4289 14.1443 66.1113 14.9819 66.1113L41.8343 66.1217Z" fill="#1F1D21"/>
<path d="M43.3542 37.2571V36.7918C43.3542 36.2128 42.889 35.7578 42.3203 35.7578H14.4959C13.9272 35.7578 13.4619 36.2231 13.4619 36.7918V37.3088V37.7741V64.399C13.4619 64.9781 13.9272 65.433 14.4959 65.433H42.3099C42.889 65.433 43.3439 64.9677 43.3439 64.399V37.3088C43.3646 37.2881 43.3542 37.2778 43.3542 37.2571Z" fill="white"/>
<path d="M40.7193 49.3544C40.7193 49.0901 40.5038 48.8746 40.2395 48.8746C40.0665 48.8746 38.9891 48.7799 38.4113 48.3294C38.4113 48.3294 38.4147 48.3229 38.4113 48.3294C38.1926 47.5329 37.8727 46.7886 37.4778 46.0834C37.3765 45.4142 38.0685 44.9277 38.3852 44.4054C38.4408 44.314 38.4733 44.2618 38.4929 44.2259C38.5517 44.0561 38.519 43.8602 38.3852 43.7264C38.3852 43.7264 37.853 42.9657 37.308 42.4238C36.7627 41.8819 35.9369 41.278 35.9369 41.278C35.7508 41.0919 35.444 41.0919 35.2578 41.278C35.1337 41.3988 34.3144 42.0745 33.5765 42.1822C33.5668 42.1822 33.5668 42.1822 33.5668 42.1822C32.8813 41.7938 32.1109 41.4738 31.337 41.2551H31.3273C30.782 40.8536 30.9257 40.0211 30.782 39.427C30.782 39.1625 30.5666 38.9471 30.3022 38.9471C30.3022 38.9471 29.3881 38.7871 28.6177 38.7871C27.8473 38.7871 26.8385 38.9471 26.8385 38.9471C26.5741 38.9471 26.3586 39.1625 26.3586 39.427C26.3586 39.6 26.264 40.6773 25.8134 41.2551C25.0495 41.4706 24.2464 41.8101 23.5674 42.1888C22.8982 42.29 22.4118 41.5979 21.8894 41.2812C21.798 41.2257 21.7458 41.1931 21.7099 41.1735C21.5401 41.1148 21.3443 41.1474 21.2104 41.2812C21.2104 41.2812 20.4498 41.8134 19.9078 42.3585C19.3659 42.9037 18.762 43.7297 18.762 43.7297C18.5759 43.9157 18.5759 44.2226 18.762 44.4087C18.8828 44.5295 19.5781 45.3619 19.6695 46.0867V46.0932C19.2908 46.7722 18.9579 47.572 18.7424 48.3359C18.7424 48.3359 18.7522 48.3229 18.7424 48.3359C18.2756 48.904 17.5084 48.7375 16.9143 48.8811C16.6498 48.8811 16.4344 49.0965 16.4344 49.3611C16.4344 49.3611 16.2744 50.275 16.2744 51.0456C16.2744 51.8161 16.4344 52.8248 16.4344 52.8248C16.4344 53.0891 16.6498 53.3045 16.9143 53.3045C17.0873 53.3045 18.1646 53.3994 18.7424 53.8498C18.7555 53.8431 18.7489 53.8595 18.7489 53.8595C18.9709 54.6267 19.2876 55.3939 19.6728 56.073C19.6663 56.0827 19.6728 56.073 19.6761 56.0958C19.7414 56.7945 19.0852 57.2515 18.7685 57.7737C18.713 57.8653 18.6804 57.9174 18.6608 57.9534C18.602 58.1231 18.6347 58.319 18.7685 58.4527C18.7685 58.4527 19.3006 59.2135 19.8458 59.7553C20.391 60.3006 21.2169 60.9013 21.2169 60.9013C21.403 61.0874 21.7099 61.0874 21.896 60.9013C22.0167 60.7804 22.8492 60.0852 23.5739 59.9936C23.5739 59.9936 23.5707 59.9971 23.5837 60.0003C24.2824 60.3887 25.0038 60.6955 25.7938 60.9109C25.8004 60.9142 25.8232 60.9209 25.8232 60.9209C26.3684 61.3225 26.2248 62.1549 26.3684 62.7489C26.3978 63.0167 26.5447 63.1865 26.8483 63.2289C26.8483 63.2289 27.7624 63.3887 28.5328 63.3887C29.3032 63.3887 30.3119 63.2321 30.3119 63.2321C30.5765 63.1865 30.7919 63.0167 30.7919 62.7521C30.7919 62.5791 30.8865 61.5019 31.337 60.9241C31.337 60.9241 31.3566 60.9077 31.3762 60.8913C32.1794 60.6662 32.7897 60.418 33.4981 60.01C33.5341 59.9971 33.4949 60.0003 33.5797 59.9871C34.2492 59.8859 34.7354 60.5781 35.2578 60.8948C35.3492 60.9502 35.4016 60.9829 35.4373 61.0025C35.6071 61.0611 35.8029 61.0286 35.9369 60.8948C35.9369 60.8948 36.6974 60.3627 37.2395 59.8174C37.7845 59.2723 38.3852 58.4463 38.3852 58.4463C38.5713 58.2601 38.5713 57.9534 38.3852 57.7672C38.2646 57.6463 37.5691 56.8141 37.4778 56.0894C37.4678 56.0142 37.4745 56.0045 37.4842 55.9849C37.889 55.2698 38.1437 54.7476 38.3656 53.9379C38.3656 53.9379 38.3559 53.9119 38.408 53.8431C38.8096 53.2981 39.6421 53.4418 40.2363 53.2981C40.5006 53.2981 40.7161 53.0826 40.7161 52.8181C40.7161 52.8181 40.8762 51.9042 40.8762 51.1338C40.8762 50.3633 40.7193 49.3544 40.7193 49.3544ZM35.6887 51.065C35.6887 55.0119 32.4894 58.2145 28.5393 58.2145C24.5892 58.2145 21.39 55.0151 21.39 51.065C21.39 47.1183 24.5892 43.9157 28.5393 43.9157C32.4894 43.9157 35.6887 47.1183 35.6887 51.065Z" fill="url(#paint2_linear_1313_464)"/>
<path d="M21.7129 41.1733C21.7814 41.2158 21.8924 41.2811 21.8924 41.2811C21.8402 41.2321 21.7782 41.1962 21.7129 41.1733Z" fill="url(#paint3_linear_1313_464)"/>
<path d="M21.707 41.1694C21.7108 41.1694 21.7108 41.1732 21.7147 41.1732C21.7108 41.1732 21.707 41.1694 21.707 41.1694Z" fill="url(#paint4_linear_1313_464)"/>
<path d="M21.7071 41.1697C21.6446 41.1336 21.6578 41.1402 21.7071 41.1697V41.1697Z" fill="url(#paint5_linear_1313_464)"/>
<path d="M18.6575 57.96C18.6214 58.0222 18.6279 58.0092 18.6575 57.96V57.96Z" fill="url(#paint6_linear_1313_464)"/>
<path d="M18.6572 57.9608C18.6572 57.9569 18.661 57.9569 18.661 57.9531C18.661 57.9569 18.6572 57.9608 18.6572 57.9608Z" fill="url(#paint7_linear_1313_464)"/>
<path d="M18.6611 57.9526C18.7036 57.8841 18.7689 57.7729 18.7689 57.7729C18.7199 57.8253 18.684 57.8874 18.6611 57.9526Z" fill="url(#paint8_linear_1313_464)"/>
<path d="M38.4925 44.2256C38.45 44.2941 38.3848 44.4051 38.3848 44.4051C38.4339 44.3529 38.4697 44.2909 38.4925 44.2256Z" fill="url(#paint9_linear_1313_464)"/>
<path d="M38.497 44.2188C38.497 44.2226 38.4932 44.2226 38.4932 44.2264C38.4932 44.2226 38.497 44.2188 38.497 44.2188Z" fill="url(#paint10_linear_1313_464)"/>
<path d="M38.4961 44.2193C38.5322 44.1568 38.5257 44.17 38.4961 44.2193V44.2193Z" fill="url(#paint11_linear_1313_464)"/>
<path d="M40.7193 49.3544C40.7193 49.0901 40.5038 48.8746 40.2395 48.8746C40.0665 48.8746 38.9891 48.7799 38.4113 48.3294C38.4113 48.3294 38.4147 48.3229 38.4113 48.3294C38.1926 47.5329 37.8727 46.7886 37.4778 46.0834C37.3765 45.4142 38.0685 44.9277 38.3852 44.4054C38.4408 44.314 38.4733 44.2618 38.4929 44.2259C38.5517 44.0561 38.519 43.8602 38.3852 43.7264C38.3852 43.7264 37.853 42.9657 37.308 42.4238C36.7627 41.8819 35.9369 41.278 35.9369 41.278C35.7508 41.0919 35.444 41.0919 35.2578 41.278C35.1337 41.3988 34.3144 42.0745 33.5765 42.1822C33.5668 42.1822 33.5668 42.1822 33.5668 42.1822C32.8813 41.7938 32.1109 41.4738 31.337 41.2551H31.3273C30.782 40.8536 30.9257 40.0211 30.782 39.427C30.782 39.1625 30.5666 38.9471 30.3022 38.9471C30.3022 38.9471 29.3881 38.7871 28.6177 38.7871C27.8473 38.7871 26.8385 38.9471 26.8385 38.9471C26.5741 38.9471 26.3586 39.1625 26.3586 39.427C26.3586 39.6 26.264 40.6773 25.8134 41.2551C25.0495 41.4706 24.2464 41.8101 23.5674 42.1888C22.8982 42.29 22.4118 41.5979 21.8894 41.2812C21.798 41.2257 21.7458 41.1931 21.7099 41.1735C21.5401 41.1148 21.3443 41.1474 21.2104 41.2812C21.2104 41.2812 20.4498 41.8134 19.9078 42.3585C19.3659 42.9037 18.762 43.7297 18.762 43.7297C18.5759 43.9157 18.5759 44.2226 18.762 44.4087C18.8828 44.5295 19.5781 45.3619 19.6695 46.0867V46.0932C19.2908 46.7722 18.9579 47.572 18.7424 48.3359C18.7424 48.3359 18.7522 48.3229 18.7424 48.3359C18.2756 48.904 17.5084 48.7375 16.9143 48.8811C16.6498 48.8811 16.4344 49.0965 16.4344 49.3611C16.4344 49.3611 16.2744 50.275 16.2744 51.0456C16.2744 51.8161 16.4344 52.8248 16.4344 52.8248C16.4344 53.0891 16.6498 53.3045 16.9143 53.3045C17.0873 53.3045 18.1646 53.3994 18.7424 53.8498C18.7555 53.8431 18.7489 53.8595 18.7489 53.8595C18.9709 54.6267 19.2876 55.3939 19.6728 56.073C19.6663 56.0827 19.6728 56.073 19.6761 56.0958C19.7414 56.7945 19.0852 57.2515 18.7685 57.7737C18.713 57.8653 18.6804 57.9174 18.6608 57.9534C18.602 58.1231 18.6347 58.319 18.7685 58.4527C18.7685 58.4527 19.3006 59.2135 19.8458 59.7553C20.391 60.3006 21.2169 60.9013 21.2169 60.9013C21.403 61.0874 21.7099 61.0874 21.896 60.9013C22.0167 60.7804 22.8492 60.0852 23.5739 59.9936C23.5739 59.9936 23.5707 59.9971 23.5837 60.0003C24.2824 60.3887 25.0038 60.6955 25.7938 60.9109C25.8004 60.9142 25.8232 60.9209 25.8232 60.9209C26.3684 61.3225 26.2248 62.1549 26.3684 62.7489C26.3978 63.0167 26.5447 63.1865 26.8483 63.2289C26.8483 63.2289 27.7624 63.3887 28.5328 63.3887C29.3032 63.3887 30.3119 63.2321 30.3119 63.2321C30.5765 63.1865 30.7919 63.0167 30.7919 62.7521C30.7919 62.5791 30.8865 61.5019 31.337 60.9241C31.337 60.9241 31.3566 60.9077 31.3762 60.8913C32.1794 60.6662 32.7897 60.418 33.4981 60.01C33.5341 59.9971 33.4949 60.0003 33.5797 59.9871C34.2492 59.8859 34.7354 60.5781 35.2578 60.8948C35.3492 60.9502 35.4016 60.9829 35.4373 61.0025C35.6071 61.0611 35.8029 61.0286 35.9369 60.8948C35.9369 60.8948 36.6974 60.3627 37.2395 59.8174C37.7845 59.2723 38.3852 58.4463 38.3852 58.4463C38.5713 58.2601 38.5713 57.9534 38.3852 57.7672C38.2646 57.6463 37.5691 56.8141 37.4778 56.0894C37.4678 56.0142 37.4745 56.0045 37.4842 55.9849C37.889 55.2698 38.1437 54.7476 38.3656 53.9379C38.3656 53.9379 38.3559 53.9119 38.408 53.8431C38.8096 53.2981 39.6421 53.4418 40.2363 53.2981C40.5006 53.2981 40.7161 53.0826 40.7161 52.8181C40.7161 52.8181 40.8762 51.9042 40.8762 51.1338C40.8762 50.3633 40.7193 49.3544 40.7193 49.3544ZM35.6887 51.065C35.6887 55.0119 32.4894 58.2145 28.5393 58.2145C24.5892 58.2145 21.39 55.0151 21.39 51.065C21.39 47.1183 24.5892 43.9157 28.5393 43.9157C32.4894 43.9157 35.6887 47.1183 35.6887 51.065Z" fill="url(#paint12_linear_1313_464)"/>
<path d="M21.7129 41.1733C21.7814 41.2158 21.8924 41.2811 21.8924 41.2811C21.8402 41.2321 21.7782 41.1962 21.7129 41.1733Z" fill="url(#paint13_linear_1313_464)"/>
<path d="M21.707 41.1694C21.7108 41.1694 21.7108 41.1732 21.7147 41.1732C21.7108 41.1732 21.707 41.1694 21.707 41.1694Z" fill="url(#paint14_linear_1313_464)"/>
<path d="M21.7071 41.1697C21.6446 41.1336 21.6578 41.1402 21.7071 41.1697V41.1697Z" fill="url(#paint15_linear_1313_464)"/>
<path d="M18.6575 57.96C18.6214 58.0222 18.6279 58.0092 18.6575 57.96V57.96Z" fill="url(#paint16_linear_1313_464)"/>
<path d="M18.6572 57.9608C18.6572 57.9569 18.661 57.9569 18.661 57.9531C18.661 57.9569 18.6572 57.9608 18.6572 57.9608Z" fill="url(#paint17_linear_1313_464)"/>
<path d="M18.6611 57.9526C18.7036 57.8841 18.7689 57.7729 18.7689 57.7729C18.7199 57.8253 18.684 57.8874 18.6611 57.9526Z" fill="url(#paint18_linear_1313_464)"/>
<path d="M38.4925 44.2256C38.45 44.2941 38.3848 44.4051 38.3848 44.4051C38.4339 44.3529 38.4697 44.2909 38.4925 44.2256Z" fill="url(#paint19_linear_1313_464)"/>
<path d="M38.497 44.2188C38.497 44.2226 38.4932 44.2226 38.4932 44.2264C38.4932 44.2226 38.497 44.2188 38.497 44.2188Z" fill="url(#paint20_linear_1313_464)"/>
<path d="M38.4961 44.2193C38.5322 44.1568 38.5257 44.17 38.4961 44.2193V44.2193Z" fill="url(#paint21_linear_1313_464)"/>
<path fill-rule="evenodd" clip-rule="evenodd" d="M28.3833 44.0871C32.2146 44.0871 35.3201 47.1928 35.3201 51.024C35.3201 54.8552 32.2146 57.9607 28.3833 57.9607C24.5522 57.9607 21.4465 54.8552 21.4465 51.024C21.4465 47.1928 24.5522 44.0871 28.3833 44.0871ZM35.719 51.024C35.719 46.9727 32.4348 43.6885 28.3833 43.6885C24.332 43.6885 21.0479 46.9727 21.0479 51.024C21.0479 55.0754 24.332 58.3596 28.3833 58.3596C32.4348 58.3596 35.719 55.0754 35.719 51.024Z" fill="#50E6FF"/>
<path d="M31.3563 49.7692C32.3774 49.7692 33.3566 49.3636 34.0784 48.6417C34.8004 47.9198 35.206 46.9407 35.206 45.9197V42.9604H31.7244C30.7036 42.9604 29.7244 43.366 29.0024 44.0879C28.2806 44.8098 27.875 45.789 27.875 46.8099V49.7789H31.3563V49.7692Z" fill="#F3FBC1"/>
<g filter="url(#filter0_d_1313_464)">
<path d="M27.5014 49.6151V46.8002C27.501 46.2467 27.6098 45.6986 27.8213 45.1872C28.0329 44.6758 28.3431 44.2112 28.7343 43.8197C29.1257 43.4283 29.5901 43.1177 30.1014 42.9059C30.6127 42.694 31.1607 42.585 31.7142 42.585H35.5636V45.9292C35.5636 47.0465 35.1198 48.118 34.3298 48.9081C33.5398 49.698 32.4683 50.142 31.3509 50.142H28.2377V57.9617L27.4941 57.9088V49.6151H27.5014ZM33.8098 48.3832C34.1332 48.0623 34.3898 47.6804 34.5646 47.2595C34.7393 46.8387 34.8287 46.3873 34.8274 45.9316V43.3356H31.7214C30.8018 43.3362 29.9202 43.7016 29.2697 44.3516C28.6194 45.0016 28.2533 45.883 28.2521 46.8026V48.5854C28.748 47.8894 29.3121 47.2446 29.9361 46.6606C30.6055 45.994 31.3886 45.4522 32.2484 45.0607C32.2759 45.0497 32.3067 45.0485 32.3352 45.0572C32.3638 45.0658 32.3886 45.0839 32.4055 45.1084C32.4223 45.1329 32.4308 45.1624 32.4288 45.1922C32.4268 45.222 32.4149 45.2502 32.395 45.2724C31.8465 45.857 30.8577 46.9132 30.5449 47.2645C30.2322 47.6157 29.159 48.8404 28.6852 49.3865H31.3556C31.8108 49.3902 32.262 49.3034 32.6835 49.1311C33.1047 48.9589 33.4874 48.7047 33.8098 48.3832Z" fill="url(#paint22_linear_1313_464)"/>
</g>
<path d="M26.2802 51.7281V49.5627C26.279 49.0236 26.064 48.5069 25.6825 48.1258C25.301 47.7448 24.784 47.5304 24.2448 47.5298H21.6416V49.695C21.6422 50.2341 21.8566 50.7509 22.2378 51.1319C22.6189 51.5131 23.1356 51.7276 23.6746 51.7281H26.2802Z" fill="url(#paint23_linear_1313_464)"/>
<g filter="url(#filter1_d_1313_464)">
<path d="M24.2453 47.1465C24.8834 47.1465 25.4954 47.3999 25.9465 47.8512C26.3977 48.3023 26.6512 48.9143 26.6512 49.5525V57.7454L25.9054 57.5076V52.1027H23.6823C23.0442 52.1027 22.4323 51.8491 21.9811 51.3981C21.5299 50.9469 21.2764 50.3348 21.2764 49.6967V47.1465H24.2429H24.2453ZM22.0222 49.6944C22.0228 50.1345 22.198 50.5562 22.5091 50.8674C22.8203 51.1787 23.2422 51.3539 23.6823 51.3544H25.6624C25.3664 50.9672 24.8395 50.2767 24.635 50.0481C24.4714 49.8652 24.036 49.4008 23.6727 49.0183C23.6483 48.9907 23.6345 48.9554 23.6336 48.9186C23.6327 48.8818 23.6448 48.8459 23.6678 48.8171C23.6908 48.7884 23.7232 48.7686 23.7593 48.7614C23.7954 48.7542 23.8329 48.76 23.8652 48.7777C24.288 49.0182 24.6778 49.3127 25.0248 49.6535C25.3374 49.9498 25.6299 50.2665 25.9006 50.6014V49.5572C25.8999 49.1171 25.7248 48.6952 25.4137 48.384C25.1025 48.0729 24.6806 47.8978 24.2405 47.8971H22.0174V49.6967L22.0222 49.6944Z" fill="url(#paint24_linear_1313_464)"/>
</g>
<path d="M29.3916 55.2882V53.3756C29.3926 52.8995 29.5825 52.4431 29.9195 52.1065C30.2563 51.77 30.713 51.5806 31.1893 51.5801H33.4884V53.4925C33.4879 53.9685 33.2986 54.425 32.962 54.7615C32.6254 55.0981 32.169 55.2875 31.6929 55.2882H29.3916Z" fill="#CEF885"/>
<g filter="url(#filter2_d_1313_464)">
<path d="M31.1901 51.2412C30.6264 51.2412 30.0858 51.4651 29.6875 51.8635C29.2888 52.2621 29.065 52.8024 29.065 53.3661L29.0635 57.931L29.7237 57.832V55.6185H31.6872C32.2509 55.6185 32.7912 55.3946 33.1898 54.9963C33.5885 54.5977 33.8123 54.0571 33.8123 53.4936V51.2412H31.1921H31.1901ZM33.1536 53.4914C33.1529 53.8801 32.9982 54.2527 32.7235 54.5277C32.4485 54.8024 32.0759 54.957 31.6872 54.9578H29.9384C30.1997 54.6155 30.6651 54.0057 30.8458 53.8039C30.9903 53.6423 31.375 53.2323 31.6957 52.8942C31.7173 52.8699 31.7294 52.8389 31.7304 52.8064C31.7312 52.7739 31.7202 52.7421 31.7001 52.7168C31.6798 52.6912 31.6512 52.6738 31.6192 52.6674C31.5874 52.6612 31.5542 52.6661 31.5256 52.6818C31.1523 52.8942 30.8081 53.1544 30.5016 53.4554C30.2256 53.717 29.9672 53.9968 29.7282 54.2926V53.3703C29.7287 52.9816 29.8833 52.6091 30.158 52.3343C30.4331 52.0593 30.8056 51.9047 31.1943 51.9042H33.1578V53.4936L33.1536 53.4914Z" fill="url(#paint25_linear_1313_464)"/>
</g>
<defs>
<filter id="filter0_d_1313_464" x="7.49414" y="24.585" width="48.0693" height="55.3765" filterUnits="userSpaceOnUse" color-interpolation-filters="sRGB">
<feFlood flood-opacity="0" result="BackgroundImageFix"/>
<feColorMatrix in="SourceAlpha" type="matrix" values="0 0 0 0 0 0 0 0 0 0 0 0 0 0 0 0 0 0 127 0" result="hardAlpha"/>
<feOffset dy="2"/>
<feGaussianBlur stdDeviation="10"/>
<feComposite in2="hardAlpha" operator="out"/>
<feColorMatrix type="matrix" values="0 0 0 0 0.901961 0 0 0 0 0.972549 0 0 0 0 0.513726 0 0 0 0.15 0"/>
<feBlend mode="normal" in2="BackgroundImageFix" result="effect1_dropShadow_1313_464"/>
<feBlend mode="normal" in="SourceGraphic" in2="effect1_dropShadow_1313_464" result="shape"/>
</filter>
<filter id="filter1_d_1313_464" x="1.27637" y="29.1465" width="45.375" height="50.5991" filterUnits="userSpaceOnUse" color-interpolation-filters="sRGB">
<feFlood flood-opacity="0" result="BackgroundImageFix"/>
<feColorMatrix in="SourceAlpha" type="matrix" values="0 0 0 0 0 0 0 0 0 0 0 0 0 0 0 0 0 0 127 0" result="hardAlpha"/>
<feOffset dy="2"/>
<feGaussianBlur stdDeviation="10"/>
<feComposite in2="hardAlpha" operator="out"/>
<feColorMatrix type="matrix" values="0 0 0 0 0.901961 0 0 0 0 0.972549 0 0 0 0 0.513726 0 0 0 0.15 0"/>
<feBlend mode="normal" in2="BackgroundImageFix" result="effect1_dropShadow_1313_464"/>
<feBlend mode="normal" in="SourceGraphic" in2="effect1_dropShadow_1313_464" result="shape"/>
</filter>
<filter id="filter2_d_1313_464" x="9.06348" y="33.2412" width="44.749" height="46.6899" filterUnits="userSpaceOnUse" color-interpolation-filters="sRGB">
<feFlood flood-opacity="0" result="BackgroundImageFix"/>
<feColorMatrix in="SourceAlpha" type="matrix" values="0 0 0 0 0 0 0 0 0 0 0 0 0 0 0 0 0 0 127 0" result="hardAlpha"/>
<feOffset dy="2"/>
<feGaussianBlur stdDeviation="10"/>
<feComposite in2="hardAlpha" operator="out"/>
<feColorMatrix type="matrix" values="0 0 0 0 0.901961 0 0 0 0 0.972549 0 0 0 0 0.513726 0 0 0 0.15 0"/>
<feBlend mode="normal" in2="BackgroundImageFix" result="effect1_dropShadow_1313_464"/>
<feBlend mode="normal" in="SourceGraphic" in2="effect1_dropShadow_1313_464" result="shape"/>
</filter>
<linearGradient id="paint0_linear_1313_464" x1="49.2265" y1="-13.7896" x2="53.2085" y2="131.981" gradientUnits="userSpaceOnUse">
<stop stop-color="#00ABDE"/>
<stop offset="1" stop-color="#007ED8"/>
</linearGradient>
<linearGradient id="paint1_linear_1313_464" x1="2.43032" y1="-20.6227" x2="97.9579" y2="120.259" gradientUnits="userSpaceOnUse">
<stop stop-color="#007ED8"/>
<stop offset="0.7065" stop-color="#002D4C"/>
</linearGradient>
<linearGradient id="paint2_linear_1313_464" x1="28.5752" y1="38.7871" x2="28.5752" y2="63.3887" gradientUnits="userSpaceOnUse">
<stop offset="0.104167" stop-color="#F2F1F0"/>
<stop offset="1" stop-color="#F2F1F0" stop-opacity="0"/>
</linearGradient>
<linearGradient id="paint3_linear_1313_464" x1="21.8027" y1="41.1733" x2="21.8027" y2="41.2811" gradientUnits="userSpaceOnUse">
<stop offset="0.104167" stop-color="#F2F1F0"/>
<stop offset="1" stop-color="#F2F1F0" stop-opacity="0"/>
</linearGradient>
<linearGradient id="paint4_linear_1313_464" x1="21.7108" y1="41.1694" x2="21.7108" y2="41.1732" gradientUnits="userSpaceOnUse">
<stop offset="0.104167" stop-color="#F2F1F0"/>
<stop offset="1" stop-color="#F2F1F0" stop-opacity="0"/>
</linearGradient>
<linearGradient id="paint5_linear_1313_464" x1="21.6861" y1="41.145" x2="21.6861" y2="41.1697" gradientUnits="userSpaceOnUse">
<stop offset="0.104167" stop-color="#F2F1F0"/>
<stop offset="1" stop-color="#F2F1F0" stop-opacity="0"/>
</linearGradient>
<linearGradient id="paint6_linear_1313_464" x1="18.6452" y1="57.96" x2="18.6452" y2="58.0018" gradientUnits="userSpaceOnUse">
<stop offset="0.104167" stop-color="#F2F1F0"/>
<stop offset="1" stop-color="#F2F1F0" stop-opacity="0"/>
</linearGradient>
<linearGradient id="paint7_linear_1313_464" x1="18.6591" y1="57.9531" x2="18.6591" y2="57.9608" gradientUnits="userSpaceOnUse">
<stop offset="0.104167" stop-color="#F2F1F0"/>
<stop offset="1" stop-color="#F2F1F0" stop-opacity="0"/>
</linearGradient>
<linearGradient id="paint8_linear_1313_464" x1="18.715" y1="57.7729" x2="18.715" y2="57.9526" gradientUnits="userSpaceOnUse">
<stop offset="0.104167" stop-color="#F2F1F0"/>
<stop offset="1" stop-color="#F2F1F0" stop-opacity="0"/>
</linearGradient>
<linearGradient id="paint9_linear_1313_464" x1="38.4386" y1="44.2256" x2="38.4386" y2="44.4051" gradientUnits="userSpaceOnUse">
<stop offset="0.104167" stop-color="#F2F1F0"/>
<stop offset="1" stop-color="#F2F1F0" stop-opacity="0"/>
</linearGradient>
<linearGradient id="paint10_linear_1313_464" x1="38.4952" y1="44.2188" x2="38.4952" y2="44.2264" gradientUnits="userSpaceOnUse">
<stop offset="0.104167" stop-color="#F2F1F0"/>
<stop offset="1" stop-color="#F2F1F0" stop-opacity="0"/>
</linearGradient>
<linearGradient id="paint11_linear_1313_464" x1="38.5085" y1="44.1773" x2="38.5085" y2="44.2193" gradientUnits="userSpaceOnUse">
<stop offset="0.104167" stop-color="#F2F1F0"/>
<stop offset="1" stop-color="#F2F1F0" stop-opacity="0"/>
</linearGradient>
<linearGradient id="paint12_linear_1313_464" x1="23.5777" y1="36.3169" x2="33.5684" y2="65.8545" gradientUnits="userSpaceOnUse">
<stop stop-color="#5FA1F0"/>
<stop offset="0.495" stop-color="#007ED8"/>
<stop offset="1" stop-color="#002D4C"/>
<stop offset="1" stop-color="#0153B4"/>
</linearGradient>
<linearGradient id="paint13_linear_1313_464" x1="21.8027" y1="41.1733" x2="21.8027" y2="41.2811" gradientUnits="userSpaceOnUse">
<stop offset="0.104167" stop-color="#F2F1F0"/>
<stop offset="1" stop-color="#F2F1F0" stop-opacity="0"/>
</linearGradient>
<linearGradient id="paint14_linear_1313_464" x1="21.7108" y1="41.1694" x2="21.7108" y2="41.1732" gradientUnits="userSpaceOnUse">
<stop offset="0.104167" stop-color="#F2F1F0"/>
<stop offset="1" stop-color="#F2F1F0" stop-opacity="0"/>
</linearGradient>
<linearGradient id="paint15_linear_1313_464" x1="21.6861" y1="41.145" x2="21.6861" y2="41.1697" gradientUnits="userSpaceOnUse">
<stop offset="0.104167" stop-color="#F2F1F0"/>
<stop offset="1" stop-color="#F2F1F0" stop-opacity="0"/>
</linearGradient>
<linearGradient id="paint16_linear_1313_464" x1="18.6452" y1="57.96" x2="18.6452" y2="58.0018" gradientUnits="userSpaceOnUse">
<stop offset="0.104167" stop-color="#F2F1F0"/>
<stop offset="1" stop-color="#F2F1F0" stop-opacity="0"/>
</linearGradient>
<linearGradient id="paint17_linear_1313_464" x1="18.6591" y1="57.9531" x2="18.6591" y2="57.9608" gradientUnits="userSpaceOnUse">
<stop offset="0.104167" stop-color="#F2F1F0"/>
<stop offset="1" stop-color="#F2F1F0" stop-opacity="0"/>
</linearGradient>
<linearGradient id="paint18_linear_1313_464" x1="18.715" y1="57.7729" x2="18.715" y2="57.9526" gradientUnits="userSpaceOnUse">
<stop offset="0.104167" stop-color="#F2F1F0"/>
<stop offset="1" stop-color="#F2F1F0" stop-opacity="0"/>
</linearGradient>
<linearGradient id="paint19_linear_1313_464" x1="38.4386" y1="44.2256" x2="38.4386" y2="44.4051" gradientUnits="userSpaceOnUse">
<stop offset="0.104167" stop-color="#F2F1F0"/>
<stop offset="1" stop-color="#F2F1F0" stop-opacity="0"/>
</linearGradient>
<linearGradient id="paint20_linear_1313_464" x1="38.4952" y1="44.2188" x2="38.4952" y2="44.2264" gradientUnits="userSpaceOnUse">
<stop offset="0.104167" stop-color="#F2F1F0"/>
<stop offset="1" stop-color="#F2F1F0" stop-opacity="0"/>
</linearGradient>
<linearGradient id="paint21_linear_1313_464" x1="38.5085" y1="44.1773" x2="38.5085" y2="44.2193" gradientUnits="userSpaceOnUse">
<stop offset="0.104167" stop-color="#F2F1F0"/>
<stop offset="1" stop-color="#F2F1F0" stop-opacity="0"/>
</linearGradient>
<linearGradient id="paint22_linear_1313_464" x1="23.2232" y1="42.551" x2="28.2677" y2="60.99" gradientUnits="userSpaceOnUse">
<stop offset="0.0833333" stop-color="#9BF00B"/>
<stop offset="0.625" stop-color="#0D7012"/>
<stop offset="0.916667" stop-color="#043810"/>
</linearGradient>
<linearGradient id="paint23_linear_1313_464" x1="25.9818" y1="47.9949" x2="21.8303" y2="52.0708" gradientUnits="userSpaceOnUse">
<stop offset="0.104167" stop-color="#F3FABF"/>
<stop offset="0.838542" stop-color="#CFF885"/>
</linearGradient>
<linearGradient id="paint24_linear_1313_464" x1="18.4317" y1="47.1227" x2="22.1319" y2="59.9621" gradientUnits="userSpaceOnUse">
<stop offset="0.0833333" stop-color="#9BF00B"/>
<stop offset="0.625" stop-color="#0D7012"/>
<stop offset="0.916667" stop-color="#043810"/>
</linearGradient>
<linearGradient id="paint25_linear_1313_464" x1="38.0057" y1="48.4102" x2="36.372" y2="59.6947" gradientUnits="userSpaceOnUse">
<stop offset="0.0833333" stop-color="#9BF00B"/>
<stop offset="0.625" stop-color="#0D7012"/>
<stop offset="0.916667" stop-color="#043810"/>
</linearGradient>
</defs>
</svg>
