<svg width="103" height="102" viewBox="0 0 103 102" fill="none" xmlns="http://www.w3.org/2000/svg">
<g clip-path="url(#clip0_1461_8783)">
<path d="M50.5892 96.8511C24.9927 96.8511 4.23816 76.1065 4.23816 50.5C4.23816 24.8935 24.9927 4.14893 50.5892 4.14893C76.1858 4.14893 96.9403 24.9034 96.9403 50.5C96.9403 76.0966 76.1858 96.8511 50.5892 96.8511Z" fill="url(#paint0_linear_1461_8783)"/>
<path fill-rule="evenodd" clip-rule="evenodd" d="M96.0395 50.5003C96.0395 75.6017 75.691 95.9502 50.5895 95.9502C25.488 95.9502 5.13949 75.6017 5.13949 50.5003C5.13949 25.3988 25.488 5.05026 50.5895 5.05026C75.691 5.05026 96.0395 25.3988 96.0395 50.5003ZM50.5895 1.34692C77.7407 1.34692 99.7428 23.3491 99.7428 50.5003C99.7428 77.6514 77.7308 99.6536 50.5895 99.6536C23.4383 99.6536 1.43616 77.6415 1.43616 50.5003C1.43616 23.3491 23.4383 1.34692 50.5895 1.34692Z" fill="#F2F1F0"/>
<path fill-rule="evenodd" clip-rule="evenodd" d="M93.2568 50.5C93.2568 74.0667 74.1559 93.1676 50.5893 93.1676C27.0226 93.1676 7.92172 74.0667 7.92172 50.5C7.92172 26.9334 27.0226 7.83249 50.5893 7.83249C74.1559 7.83249 93.2568 26.9334 93.2568 50.5ZM50.5893 4.12915C76.1957 4.12915 96.9601 24.8936 96.9601 50.5C96.9601 76.1065 76.1957 96.8709 50.5893 96.8709C24.9828 96.8709 4.21838 76.1065 4.21838 50.5C4.21838 24.8936 24.9729 4.12915 50.5893 4.12915Z" fill="url(#paint1_linear_1461_8783)"/>
<path opacity="0.15" d="M81.1832 28.2492L47.4265 27.9698C46.6938 27.9624 46.0989 28.558 46.0989 29.3007L45.7362 73.9474C45.7289 74.6901 46.3165 75.293 47.0493 75.293L80.8059 75.5724C81.5386 75.5798 82.1335 74.9842 82.1335 74.2415L82.4963 29.5874C82.489 28.8595 81.9014 28.2566 81.1832 28.2492Z" fill="#1F1D20"/>
<g filter="url(#filter0_ddddd_1461_8783)">
<path d="M81.1904 26.8371L47.4338 26.5577C46.701 26.5503 46.1061 27.1386 46.1061 27.8812L45.7362 72.528C45.7289 73.2706 46.3165 73.8735 47.0493 73.8735L80.8059 74.1529C81.5386 74.1603 82.1335 73.5647 82.1335 72.8221L82.4963 28.168C82.4963 27.4474 81.9159 26.8444 81.1904 26.8371Z" fill="#F2F2F2"/>
</g>
<path fill-rule="evenodd" clip-rule="evenodd" d="M67.5804 24.3004C67.5876 23.2048 67.0362 22.168 66.0786 21.646C63.612 20.3078 61.1236 22.0651 61.0946 24.4401V24.5136C61.0946 24.6165 61.0946 24.7048 61.1018 24.8004L59.172 24.7857C57.7283 24.771 56.6328 26.3518 57.4962 27.9033C57.8009 28.4474 58.3813 28.7636 58.9979 28.7709L69.4666 28.8518C70.9103 28.8665 72.0058 27.2856 71.1425 25.7342C70.8378 25.1901 70.2574 24.8739 69.6407 24.8665L67.5658 24.8518C67.567 24.836 67.5681 24.8207 67.5692 24.8058C67.5752 24.7235 67.5804 24.6522 67.5804 24.5651V24.3004ZM65.6652 24.6532C65.658 25.4032 65.0558 26.0061 64.3158 25.9988C63.5758 25.9914 62.9954 25.3812 62.9882 24.6312C62.9954 23.8812 63.5976 23.2782 64.3376 23.2856C65.0776 23.2929 65.6725 23.9032 65.6652 24.6532Z" fill="#243A5E"/>
<g filter="url(#filter1_ddddd_1461_8783)">
<path d="M77.1671 30.1458H51.4999C49.843 30.1458 48.4999 31.4889 48.4999 33.1458V56.0132C48.4999 57.6701 49.843 59.0132 51.4999 59.0132H77.1671C78.824 59.0132 80.1671 57.6701 80.1671 56.0132V33.1458C80.1671 31.4889 78.824 30.1458 77.1671 30.1458Z" fill="white"/>
</g>
<path d="M61.5372 52.8591H58.5918C58.4177 52.8591 58.2726 52.712 58.2726 52.5355V38.3592C58.2726 38.1827 58.4177 38.0356 58.5918 38.0356H61.5372V38.6753H58.911V52.212H61.5372V52.8591Z" fill="#78787D"/>
<path d="M72.7388 45.3081H68.6978C68.5237 45.3081 68.3786 45.1611 68.3786 44.9846V38.6832H64.6497V38.0435H68.6978C68.872 38.0435 69.0171 38.1905 69.0171 38.367V44.6684H72.746V45.3081H72.7388Z" fill="#78787D"/>
<path d="M72.5863 38.0435H66.0134V38.6832H72.5863V38.0435Z" fill="#78787D"/>
<path d="M61.5302 43.8887H55.0009V44.5284H61.5302V43.8887Z" fill="#78787D"/>
<path d="M67.2543 36.7568H60.3187V40.8671C60.3187 40.9921 60.4203 41.0877 60.5364 41.0877H67.0222C67.1455 41.0877 67.2398 40.9847 67.2398 40.8671L67.2543 36.7568Z" fill="#50E6FF"/>
<path d="M67.0151 36.1465H60.5511C60.4205 36.1465 60.3116 36.2494 60.3116 36.3891V36.9038H67.2472V36.3891C67.2545 36.2568 67.1457 36.1465 67.0151 36.1465Z" fill="#45CAF2"/>
<path d="M56.8218 42.4033H49.8934V46.5136C49.8934 46.6386 49.995 46.7342 50.1111 46.7342H56.5969C56.7202 46.7342 56.8145 46.6312 56.8145 46.5136L56.8218 42.4033Z" fill="#9CEBFF"/>
<path d="M56.5896 41.8008H50.1328C50.0023 41.8008 49.8934 41.9037 49.8934 42.0434V42.5581H56.829V42.0434C56.8218 41.9037 56.7202 41.8008 56.5896 41.8008Z" fill="#50E6FF"/>
<path d="M77.2297 36.7568H70.2941V40.8671C70.2941 40.9921 70.3956 41.0877 70.5117 41.0877H76.9975C77.1208 41.0877 77.2152 40.9847 77.2152 40.8671L77.2297 36.7568Z" fill="#45CAF2"/>
<path d="M76.9975 36.1465H70.5335C70.4029 36.1465 70.2941 36.2494 70.2941 36.3891V36.9038H77.2297V36.3891C77.2297 36.2568 77.1281 36.1465 76.9975 36.1465Z" fill="#32B0E7"/>
<path d="M77.3891 43.2861H70.4535V47.3964C70.4535 47.5214 70.5551 47.617 70.6711 47.617H77.1569C77.2803 47.617 77.3746 47.514 77.3746 47.3964L77.3891 43.2861Z" fill="#45CAF2"/>
<path d="M77.1568 42.6758H70.7C70.5694 42.6758 70.4606 42.7787 70.4606 42.9184V43.4331H77.3962V42.9184C77.3889 42.7861 77.2873 42.6758 77.1568 42.6758Z" fill="#32B0E7"/>
<path d="M67.2543 50.9844H60.3187V55.0946C60.3187 55.2196 60.4203 55.3152 60.5364 55.3152H67.0222C67.1455 55.3152 67.2398 55.2123 67.2398 55.0946L67.2543 50.9844Z" fill="#50E6FF"/>
<path d="M67.0151 50.3816H60.5511C60.4205 50.3816 60.3116 50.4845 60.3116 50.6242V51.1389H67.2472V50.6242C67.2545 50.4845 67.1457 50.3816 67.0151 50.3816Z" fill="#45CAF2"/>
<path d="M67.2543 43.0798H60.3187V48.9033C60.3187 49.1092 60.4783 49.271 60.6815 49.271H66.8843C67.0875 49.271 67.2471 49.1092 67.2471 48.9033V43.0798H67.2543Z" fill="#50E6FF"/>
<path d="M66.9206 42.4695H60.6524C60.4711 42.4695 60.3187 42.6239 60.3187 42.8077V43.2268H67.2543V42.8077C67.2543 42.6165 67.102 42.4695 66.9206 42.4695Z" fill="#45CAF2"/>
<path d="M79.5317 63.1167C79.5317 62.7711 79.256 62.4917 78.9151 62.4917H69.404C69.063 62.4917 68.7874 62.7711 68.7874 63.1167C68.7874 63.4623 69.063 63.7417 69.404 63.7417H78.9223C79.2633 63.7417 79.5317 63.4623 79.5317 63.1167Z" fill="#50E6FF"/>
<path d="M71.08 63.1166C71.08 63.8005 71.6313 64.3519 72.2988 64.3519C72.9735 64.3519 73.5176 63.7931 73.5176 63.1166C73.5176 62.4328 72.9662 61.8813 72.2988 61.8813C71.6313 61.8813 71.08 62.4328 71.08 63.1166Z" fill="#0D3868"/>
<path d="M79.5317 66.271C79.5317 65.9254 79.256 65.646 78.9151 65.646H69.404C69.063 65.646 68.7874 65.9254 68.7874 66.271C68.7874 66.6166 69.063 66.896 69.404 66.896H78.9223C79.2633 66.8886 79.5317 66.6092 79.5317 66.271Z" fill="#32B0E7"/>
<path d="M74.7655 66.2634C74.7655 66.9472 75.3169 67.4986 75.9843 67.4986C76.659 67.4986 77.2031 66.9398 77.2031 66.2634C77.2031 65.5795 76.6518 65.0281 75.9843 65.0281C75.3096 65.0281 74.7655 65.5795 74.7655 66.2634Z" fill="#0D3868"/>
<path d="M79.5317 69.6016C79.5317 69.256 79.256 68.9766 78.9151 68.9766H69.404C69.063 68.9766 68.7874 69.256 68.7874 69.6016C68.7874 69.9471 69.063 70.2266 69.404 70.2266H78.9223C79.2633 70.2266 79.5317 69.9471 79.5317 69.6016Z" fill="#185A97"/>
<path d="M71.1232 69.6016C71.1232 70.2854 71.6745 70.8369 72.342 70.8369C73.0167 70.8369 73.5608 70.278 73.5608 69.6016C73.5608 68.9177 73.0094 68.3663 72.342 68.3663C71.6745 68.3589 71.1232 68.9177 71.1232 69.6016Z" fill="#0D3868"/>
<circle cx="38.2605" cy="50.3892" r="17.106" fill="url(#paint2_linear_1461_8783)"/>
<path d="M64.5728 46.8762C64.5728 46.2919 64.0968 45.8158 63.5125 45.8158C63.1302 45.8158 60.7498 45.6066 59.4731 44.6112C59.4731 44.6112 59.4803 44.5968 59.4731 44.6112C58.9898 42.8512 58.2829 41.2066 57.4101 39.6485C57.1865 38.1698 58.7157 37.095 59.4154 35.9409C59.538 35.7389 59.6101 35.6235 59.6534 35.5441C59.7832 35.1691 59.7111 34.7363 59.4154 34.4405C59.4154 34.4405 58.2396 32.7598 57.035 31.5624C55.8304 30.365 54.0054 29.0306 54.0054 29.0306C53.5942 28.6194 52.9162 28.6194 52.505 29.0306C52.2309 29.2975 50.4204 30.7906 48.7902 31.0286C48.7686 31.0286 48.7686 31.0286 48.7686 31.0286C47.2538 30.1703 45.5515 29.4634 43.8419 28.9801H43.8203C42.6157 28.0928 42.933 26.2535 42.6157 24.9407C42.6157 24.3564 42.1396 23.8803 41.5553 23.8803C41.5553 23.8803 39.5356 23.5269 37.8333 23.5269C36.1309 23.5269 33.902 23.8803 33.902 23.8803C33.3178 23.8803 32.8417 24.3564 32.8417 24.9407C32.8417 25.323 32.6325 27.7033 31.6371 28.9801C29.9492 29.4562 28.1747 30.2063 26.6744 31.0431C25.1956 31.2667 24.1209 29.7375 22.9667 29.0378C22.7648 28.9152 22.6494 28.843 22.57 28.7997C22.1949 28.6699 21.7621 28.742 21.4664 29.0378C21.4664 29.0378 19.7857 30.2135 18.5883 31.4182C17.3909 32.6228 16.0564 34.4477 16.0564 34.4477C15.6453 34.8589 15.6453 35.5369 16.0564 35.9481C16.3233 36.215 17.8598 38.0544 18.0617 39.6557V39.6701C17.225 41.1705 16.4892 42.9377 16.0132 44.6256C16.0132 44.6256 16.0348 44.5968 16.0132 44.6256C14.9817 45.8807 13.2865 45.5129 11.9737 45.8303C11.3895 45.8303 10.9134 46.3063 10.9134 46.8906C10.9134 46.8906 10.5599 48.9103 10.5599 50.6126C10.5599 52.315 10.9134 54.5439 10.9134 54.5439C10.9134 55.1281 11.3895 55.6042 11.9737 55.6042C12.356 55.6042 14.7364 55.8134 16.0132 56.8088C16.042 56.7944 16.0276 56.8305 16.0276 56.8305C16.5181 58.5256 17.2178 60.2207 18.0689 61.7211C18.0545 61.7427 18.0689 61.7211 18.0762 61.7716C18.2204 63.3152 16.7706 64.3251 16.0709 65.4792C15.9482 65.6811 15.8761 65.7966 15.8328 65.8759C15.703 66.251 15.7751 66.6838 16.0709 66.9795C16.0709 66.9795 17.2466 68.6602 18.4512 69.8576C19.6559 71.0622 21.4808 72.3895 21.4808 72.3895C21.892 72.8006 22.57 72.8006 22.9812 72.3895C23.2481 72.1226 25.0874 70.5862 26.6888 70.3842C26.6888 70.3842 26.6816 70.3914 26.7104 70.3986C28.2541 71.257 29.8482 71.935 31.5938 72.4111C31.6082 72.4183 31.6587 72.4328 31.6587 72.4328C32.8633 73.32 32.546 75.1594 32.8633 76.4722C32.9283 77.0637 33.2529 77.4388 33.9237 77.5325C33.9237 77.5325 35.9434 77.886 37.6457 77.886C39.3481 77.886 41.577 77.5397 41.577 77.5397C42.1612 77.4388 42.6373 77.0637 42.6373 76.4794C42.6373 76.0971 42.8465 73.7167 43.8419 72.44C43.8419 72.44 43.8852 72.4039 43.9285 72.3678C45.7029 71.8701 47.0518 71.3219 48.6171 70.4203C48.6964 70.3914 48.6099 70.3986 48.7974 70.3698C50.2761 70.1462 51.3509 71.6754 52.505 72.3751C52.707 72.4977 52.8224 72.5698 52.9018 72.6131C53.2769 72.7429 53.7097 72.6708 54.0054 72.3751C54.0054 72.3751 55.6861 71.1993 56.8835 69.9947C58.0881 68.7901 59.4154 66.9651 59.4154 66.9651C59.8265 66.554 59.8265 65.8759 59.4154 65.4648C59.1485 65.1979 57.612 63.3585 57.4101 61.7571C57.3884 61.5912 57.4029 61.5696 57.4245 61.5263C58.3189 59.9466 58.8816 58.7925 59.3721 57.0036C59.3721 57.0036 59.3504 56.9459 59.4658 56.7944C60.3531 55.5898 62.1925 55.9072 63.5053 55.5898C64.0895 55.5898 64.5656 55.1137 64.5656 54.5294C64.5656 54.5294 64.9191 52.5097 64.9191 50.8074C64.9191 49.1051 64.5728 46.8762 64.5728 46.8762ZM53.4572 50.6559C53.4572 59.3768 46.3882 66.453 37.6602 66.453C28.9321 66.453 21.8631 59.384 21.8631 50.6559C21.8631 41.9351 28.9321 34.8589 37.6602 34.8589C46.3882 34.8589 53.4572 41.9351 53.4572 50.6559Z" fill="url(#paint3_linear_1461_8783)"/>
<path d="M52.9231 72.6276C52.9159 72.6276 52.9159 72.6204 52.9087 72.6204C52.9159 72.6204 52.9231 72.6276 52.9231 72.6276Z" fill="url(#paint4_linear_1461_8783)"/>
<path d="M52.9101 72.6209C52.7583 72.5269 52.5126 72.3823 52.5126 72.3823C52.6282 72.4907 52.7656 72.5703 52.9101 72.6209Z" fill="url(#paint5_linear_1461_8783)"/>
<path d="M52.9236 72.6277C53.0615 72.7075 53.0324 72.693 52.9236 72.6277V72.6277Z" fill="url(#paint6_linear_1461_8783)"/>
<path d="M22.5769 28.8C22.7287 28.894 22.9745 29.0386 22.9745 29.0386C22.8588 28.9302 22.7215 28.8506 22.5769 28.8Z" fill="url(#paint7_linear_1461_8783)"/>
<path d="M22.5627 28.7922C22.5699 28.7922 22.5699 28.7994 22.5771 28.7994C22.5699 28.7994 22.5627 28.7922 22.5627 28.7922Z" fill="url(#paint8_linear_1461_8783)"/>
<path d="M22.5631 28.7928C22.4252 28.713 22.4542 28.7275 22.5631 28.7928V28.7928Z" fill="url(#paint9_linear_1461_8783)"/>
<path d="M15.8256 65.8906C15.7457 66.0285 15.7602 65.9995 15.8256 65.8906V65.8906Z" fill="url(#paint10_linear_1461_8783)"/>
<path d="M15.8254 65.8906C15.8254 65.8834 15.8326 65.8834 15.8326 65.8762C15.8326 65.8834 15.8254 65.8906 15.8254 65.8906Z" fill="url(#paint11_linear_1461_8783)"/>
<path d="M15.8329 65.8768C15.9269 65.725 16.0714 65.4792 16.0714 65.4792C15.963 65.5949 15.8835 65.7322 15.8329 65.8768Z" fill="url(#paint12_linear_1461_8783)"/>
<path d="M59.6541 35.5442C59.5601 35.696 59.4155 35.9417 59.4155 35.9417C59.524 35.8261 59.6035 35.6888 59.6541 35.5442Z" fill="url(#paint13_linear_1461_8783)"/>
<path d="M59.6606 35.53C59.6606 35.5372 59.6534 35.5372 59.6534 35.5444C59.6534 35.5372 59.6606 35.53 59.6606 35.53Z" fill="url(#paint14_linear_1461_8783)"/>
<path d="M59.6609 35.5304C59.7407 35.3925 59.7262 35.4215 59.6609 35.5304V35.5304Z" fill="url(#paint15_linear_1461_8783)"/>
<g filter="url(#filter2_ddddd_1461_8783)">
<path d="M64.5728 46.8762C64.5728 46.2919 64.0968 45.8158 63.5125 45.8158C63.1302 45.8158 60.7498 45.6066 59.4731 44.6112C59.4731 44.6112 59.4803 44.5968 59.4731 44.6112C58.9898 42.8512 58.2829 41.2066 57.4101 39.6485C57.1865 38.1698 58.7157 37.095 59.4154 35.9409C59.538 35.7389 59.6101 35.6235 59.6534 35.5441C59.7832 35.1691 59.7111 34.7363 59.4154 34.4405C59.4154 34.4405 58.2396 32.7598 57.035 31.5624C55.8304 30.365 54.0054 29.0306 54.0054 29.0306C53.5942 28.6194 52.9162 28.6194 52.505 29.0306C52.2309 29.2975 50.4204 30.7906 48.7902 31.0286C48.7686 31.0286 48.7686 31.0286 48.7686 31.0286C47.2538 30.1703 45.5515 29.4634 43.8419 28.9801H43.8203C42.6157 28.0928 42.933 26.2535 42.6157 24.9407C42.6157 24.3564 42.1396 23.8803 41.5553 23.8803C41.5553 23.8803 39.5356 23.5269 37.8333 23.5269C36.1309 23.5269 33.902 23.8803 33.902 23.8803C33.3178 23.8803 32.8417 24.3564 32.8417 24.9407C32.8417 25.323 32.6325 27.7033 31.6371 28.9801C29.9492 29.4562 28.1747 30.2063 26.6744 31.0431C25.1956 31.2667 24.1209 29.7375 22.9667 29.0378C22.7648 28.9152 22.6494 28.843 22.57 28.7997C22.1949 28.6699 21.7621 28.742 21.4664 29.0378C21.4664 29.0378 19.7857 30.2135 18.5883 31.4182C17.3909 32.6228 16.0564 34.4477 16.0564 34.4477C15.6453 34.8589 15.6453 35.5369 16.0564 35.9481C16.3233 36.215 17.8598 38.0544 18.0617 39.6557V39.6701C17.225 41.1705 16.4892 42.9377 16.0132 44.6256C16.0132 44.6256 16.0348 44.5968 16.0132 44.6256C14.9817 45.8807 13.2865 45.5129 11.9737 45.8303C11.3895 45.8303 10.9134 46.3063 10.9134 46.8906C10.9134 46.8906 10.5599 48.9103 10.5599 50.6126C10.5599 52.315 10.9134 54.5439 10.9134 54.5439C10.9134 55.1281 11.3895 55.6042 11.9737 55.6042C12.356 55.6042 14.7364 55.8134 16.0132 56.8088C16.042 56.7944 16.0276 56.8305 16.0276 56.8305C16.5181 58.5256 17.2178 60.2207 18.0689 61.7211C18.0545 61.7427 18.0689 61.7211 18.0762 61.7716C18.2204 63.3152 16.7706 64.3251 16.0709 65.4792C15.9482 65.6811 15.8761 65.7966 15.8328 65.8759C15.703 66.251 15.7751 66.6838 16.0709 66.9795C16.0709 66.9795 17.2466 68.6602 18.4512 69.8576C19.6559 71.0622 21.4808 72.3895 21.4808 72.3895C21.892 72.8006 22.57 72.8006 22.9812 72.3895C23.2481 72.1226 25.0874 70.5862 26.6888 70.3842C26.6888 70.3842 26.6816 70.3914 26.7104 70.3986C28.2541 71.257 29.8482 71.935 31.5938 72.4111C31.6082 72.4183 31.6587 72.4328 31.6587 72.4328C32.8633 73.32 32.546 75.1594 32.8633 76.4722C32.9283 77.0637 33.2529 77.4388 33.9237 77.5325C33.9237 77.5325 35.9434 77.886 37.6457 77.886C39.3481 77.886 41.577 77.5397 41.577 77.5397C42.1612 77.4388 42.6373 77.0637 42.6373 76.4794C42.6373 76.0971 42.8465 73.7167 43.8419 72.44C43.8419 72.44 43.8852 72.4039 43.9285 72.3678C45.7029 71.8701 47.0518 71.3219 48.6171 70.4203C48.6964 70.3914 48.6099 70.3986 48.7974 70.3698C50.2761 70.1462 51.3509 71.6754 52.505 72.3751C52.707 72.4977 52.8224 72.5698 52.9018 72.6131C53.2769 72.7429 53.7097 72.6708 54.0054 72.3751C54.0054 72.3751 55.6861 71.1993 56.8835 69.9947C58.0881 68.7901 59.4154 66.9651 59.4154 66.9651C59.8265 66.554 59.8265 65.8759 59.4154 65.4648C59.1485 65.1979 57.612 63.3585 57.4101 61.7571C57.3884 61.5912 57.4029 61.5696 57.4245 61.5263C58.3189 59.9466 58.8816 58.7925 59.3721 57.0036C59.3721 57.0036 59.3504 56.9459 59.4658 56.7944C60.3531 55.5898 62.1925 55.9072 63.5053 55.5898C64.0895 55.5898 64.5656 55.1137 64.5656 54.5294C64.5656 54.5294 64.9191 52.5097 64.9191 50.8074C64.9191 49.1051 64.5728 46.8762 64.5728 46.8762ZM53.4572 50.6559C53.4572 59.3768 46.3882 66.453 37.6602 66.453C28.9321 66.453 21.8631 59.384 21.8631 50.6559C21.8631 41.9351 28.9321 34.8589 37.6602 34.8589C46.3882 34.8589 53.4572 41.9351 53.4572 50.6559Z" fill="url(#paint16_linear_1461_8783)"/>
</g>
<path d="M52.9231 72.6276C52.9159 72.6276 52.9159 72.6204 52.9087 72.6204C52.9159 72.6204 52.9231 72.6276 52.9231 72.6276Z" fill="url(#paint17_linear_1461_8783)"/>
<path d="M52.9101 72.6209C52.7583 72.5269 52.5126 72.3823 52.5126 72.3823C52.6282 72.4907 52.7656 72.5703 52.9101 72.6209Z" fill="url(#paint18_linear_1461_8783)"/>
<path d="M52.9236 72.6277C53.0615 72.7075 53.0324 72.693 52.9236 72.6277V72.6277Z" fill="url(#paint19_linear_1461_8783)"/>
<path d="M22.5769 28.8C22.7287 28.894 22.9745 29.0386 22.9745 29.0386C22.8588 28.9302 22.7215 28.8506 22.5769 28.8Z" fill="url(#paint20_linear_1461_8783)"/>
<path d="M22.5627 28.7922C22.5699 28.7922 22.5699 28.7994 22.5771 28.7994C22.5699 28.7994 22.5627 28.7922 22.5627 28.7922Z" fill="url(#paint21_linear_1461_8783)"/>
<path d="M22.5631 28.7928C22.4252 28.713 22.4542 28.7275 22.5631 28.7928V28.7928Z" fill="url(#paint22_linear_1461_8783)"/>
<path d="M15.8256 65.8906C15.7457 66.0285 15.7602 65.9995 15.8256 65.8906V65.8906Z" fill="url(#paint23_linear_1461_8783)"/>
<path d="M15.8254 65.8906C15.8254 65.8834 15.8326 65.8834 15.8326 65.8762C15.8326 65.8834 15.8254 65.8906 15.8254 65.8906Z" fill="url(#paint24_linear_1461_8783)"/>
<path d="M15.8329 65.8768C15.9269 65.725 16.0714 65.4792 16.0714 65.4792C15.963 65.5949 15.8835 65.7322 15.8329 65.8768Z" fill="url(#paint25_linear_1461_8783)"/>
<path d="M59.6541 35.5442C59.5601 35.696 59.4155 35.9417 59.4155 35.9417C59.524 35.8261 59.6035 35.6888 59.6541 35.5442Z" fill="url(#paint26_linear_1461_8783)"/>
<path d="M59.6606 35.53C59.6606 35.5372 59.6534 35.5372 59.6534 35.5444C59.6534 35.5372 59.6606 35.53 59.6606 35.53Z" fill="url(#paint27_linear_1461_8783)"/>
<path d="M59.6609 35.5304C59.7407 35.3925 59.7262 35.4215 59.6609 35.5304V35.5304Z" fill="url(#paint28_linear_1461_8783)"/>
<path fill-rule="evenodd" clip-rule="evenodd" d="M37.3155 32.4284C47.3346 32.4284 55.4508 40.5446 55.4508 50.5637C55.4508 60.5827 47.3346 68.6989 37.3155 68.6989C27.3056 68.6989 19.1802 60.5736 19.1802 50.5637C19.1802 40.5446 27.2964 32.4284 37.3155 32.4284ZM56.0066 50.5637C56.0066 40.2376 47.6416 31.8726 37.3155 31.8726C26.9894 31.8726 18.6244 40.2376 18.6244 50.5637C18.6244 60.8806 26.9986 69.2547 37.3155 69.2547C47.6416 69.2547 56.0066 60.8897 56.0066 50.5637Z" fill="white"/>
<path fill-rule="evenodd" clip-rule="evenodd" d="M37.315 35.2377C45.7803 35.2377 52.6425 42.1 52.6425 50.5652C52.6425 59.0304 45.7803 65.8927 37.315 65.8927C28.8498 65.8927 21.9876 59.0304 21.9876 50.5652C21.9876 42.1 28.8498 35.2377 37.315 35.2377ZM53.5233 50.5652C53.5233 41.6135 46.2667 34.3569 37.315 34.3569C28.3634 34.3569 21.1068 41.6135 21.1068 50.5652C21.1068 59.5169 28.3634 66.7735 37.315 66.7735C46.2667 66.7735 53.5233 59.5169 53.5233 50.5652Z" fill="white"/>
<path d="M43.8835 47.7925C46.1393 47.7925 48.3028 46.8964 49.8979 45.3012C51.493 43.7061 52.3892 41.5426 52.3892 39.2868V32.748H44.6968C42.4409 32.748 40.2775 33.6442 38.6823 35.2393C37.0872 36.8344 36.1911 38.9979 36.1911 41.2537V47.8138H43.8835V47.7925Z" fill="#F3FBC1"/>
<g filter="url(#filter3_d_1461_8783)">
<path d="M35.3672 47.4524V41.2327C35.3665 40.0098 35.6067 38.7988 36.0742 37.6689C36.5417 36.5389 37.2272 35.5121 38.0916 34.6472C38.9561 33.7823 39.9825 33.0961 41.1122 32.628C42.2419 32.1599 43.4527 31.9189 44.6756 31.9189H53.1813V39.3083C53.1813 41.777 52.2006 44.1446 50.4549 45.8903C48.7092 47.636 46.3416 48.6167 43.8729 48.6167H36.9938V65.895L35.3512 65.7782V47.4524H35.3672ZM49.3058 44.7306C50.0207 44.0216 50.5876 43.1776 50.9737 42.2477C51.3597 41.3178 51.5571 40.3204 51.5545 39.3136V33.5776H44.6915C42.6598 33.579 40.7116 34.3863 39.2745 35.8225C37.8373 37.2586 37.0286 39.2063 37.0258 41.238V45.1772C38.1218 43.6394 39.3683 42.2148 40.747 40.9243C42.226 39.4514 43.9561 38.2542 45.8557 37.3892C45.9171 37.365 45.9847 37.3623 46.0478 37.3815C46.1108 37.4006 46.1656 37.4405 46.2031 37.4947C46.2406 37.5488 46.2588 37.6141 46.2546 37.6798C46.2504 37.7456 46.2241 37.808 46.18 37.857C44.9679 39.1488 42.7831 41.4825 42.092 42.2587C41.4009 43.0348 39.0299 45.7407 37.9826 46.9474H43.8835C44.8891 46.9555 45.8863 46.7637 46.8171 46.3831C47.748 46.0026 48.5939 45.4409 49.3058 44.7306Z" fill="url(#paint29_linear_1461_8783)"/>
</g>
<path d="M32.6688 52.12V47.3356C32.666 46.1442 32.1911 45.0024 31.3481 44.1604C30.5051 43.3185 29.3628 42.8449 28.1714 42.8435H22.4195V47.628C22.4209 48.8189 22.8946 49.9606 23.7367 50.8028C24.5788 51.6449 25.7206 52.1186 26.9115 52.12H32.6688Z" fill="url(#paint30_linear_1461_8783)"/>
<g filter="url(#filter4_d_1461_8783)">
<path d="M28.1714 41.9976C29.5813 41.9976 30.9335 42.5576 31.9304 43.5546C32.9274 44.5515 33.4874 45.9037 33.4874 47.3136V65.4166L31.8395 64.8909V52.9486H26.9274C25.5175 52.9486 24.1654 52.3885 23.1684 51.3916C22.1715 50.3946 21.6114 49.0425 21.6114 47.6326V41.9976H28.1661H28.1714ZM23.2593 47.6272C23.2607 48.5996 23.6477 49.5318 24.3353 50.2194C25.0229 50.907 25.955 51.2939 26.9274 51.2953H31.3025C30.6487 50.4395 29.4844 48.9137 29.0326 48.4087C28.6711 48.0047 27.7089 46.9787 26.9061 46.1334C26.8523 46.0725 26.8217 45.9944 26.8198 45.9131C26.8178 45.8318 26.8446 45.7524 26.8954 45.6889C26.9463 45.6254 27.0178 45.5818 27.0976 45.5659C27.1773 45.55 27.2602 45.5627 27.3315 45.6018C28.2657 46.1333 29.127 46.7837 29.8938 47.5369C30.5844 48.1916 31.2307 48.8913 31.8288 49.6314V47.3242C31.8274 46.3518 31.4405 45.4197 30.753 44.7321C30.0654 44.0445 29.1332 43.6576 28.1608 43.6562H23.2488V47.6326L23.2593 47.6272Z" fill="url(#paint31_linear_1461_8783)"/>
</g>
<path d="M39.5442 59.984V55.7583C39.5467 54.706 39.9661 53.6976 40.7107 52.9539C41.4552 52.2103 42.4641 51.792 43.5164 51.7908H48.5967V56.0165C48.5954 57.0684 48.177 58.0768 47.4332 58.8206C46.6894 59.5643 45.681 59.9828 44.6292 59.984H39.5442Z" fill="#CEF885"/>
<g filter="url(#filter5_d_1461_8783)">
<path d="M43.5164 51.0442C42.2711 51.0442 41.0768 51.5388 40.1963 52.4194C39.3157 53.2999 38.8211 54.4942 38.8211 55.7394L38.8177 65.8258L40.2766 65.6072V60.7164H44.615C45.8603 60.7164 47.0545 60.2217 47.9351 59.3412C48.8156 58.4607 49.3103 57.2664 49.3103 56.0211V51.0442H43.521H43.5164ZM47.8548 56.0164C47.8535 56.8753 47.5118 57.6986 46.9045 58.3059C46.2972 58.9132 45.4739 59.2549 44.615 59.2562H40.7508C41.3284 58.5002 42.3566 57.1527 42.7557 56.7067C43.075 56.3498 43.9248 55.4436 44.6338 54.6971C44.6814 54.6432 44.7084 54.5743 44.7101 54.5025C44.7119 54.4307 44.6882 54.3606 44.6433 54.3045C44.5984 54.2484 44.5352 54.2099 44.4647 54.1958C44.3943 54.1818 44.3212 54.193 44.2582 54.2276C43.4331 54.697 42.6723 55.2714 41.995 55.9366C41.3851 56.5149 40.8143 57.1329 40.286 57.7866V55.7488C40.2873 54.89 40.6289 54.0667 41.2362 53.4594C41.8435 52.8521 42.6669 52.5103 43.5257 52.5091H47.8641V56.0211L47.8548 56.0164Z" fill="url(#paint32_linear_1461_8783)"/>
</g>
</g>
<defs>
<filter id="filter0_ddddd_1461_8783" x="36.7361" y="24.5576" width="54.7603" height="80.5955" filterUnits="userSpaceOnUse" color-interpolation-filters="sRGB">
<feFlood flood-opacity="0" result="BackgroundImageFix"/>
<feColorMatrix in="SourceAlpha" type="matrix" values="0 0 0 0 0 0 0 0 0 0 0 0 0 0 0 0 0 0 127 0" result="hardAlpha"/>
<feOffset/>
<feColorMatrix type="matrix" values="0 0 0 0 0 0 0 0 0 0 0 0 0 0 0 0 0 0 0.1 0"/>
<feBlend mode="normal" in2="BackgroundImageFix" result="effect1_dropShadow_1461_8783"/>
<feColorMatrix in="SourceAlpha" type="matrix" values="0 0 0 0 0 0 0 0 0 0 0 0 0 0 0 0 0 0 127 0" result="hardAlpha"/>
<feOffset dy="1"/>
<feGaussianBlur stdDeviation="1.5"/>
<feColorMatrix type="matrix" values="0 0 0 0 0 0 0 0 0 0 0 0 0 0 0 0 0 0 0.1 0"/>
<feBlend mode="normal" in2="effect1_dropShadow_1461_8783" result="effect2_dropShadow_1461_8783"/>
<feColorMatrix in="SourceAlpha" type="matrix" values="0 0 0 0 0 0 0 0 0 0 0 0 0 0 0 0 0 0 127 0" result="hardAlpha"/>
<feOffset dy="6"/>
<feGaussianBlur stdDeviation="3"/>
<feColorMatrix type="matrix" values="0 0 0 0 0 0 0 0 0 0 0 0 0 0 0 0 0 0 0.09 0"/>
<feBlend mode="normal" in2="effect2_dropShadow_1461_8783" result="effect3_dropShadow_1461_8783"/>
<feColorMatrix in="SourceAlpha" type="matrix" values="0 0 0 0 0 0 0 0 0 0 0 0 0 0 0 0 0 0 127 0" result="hardAlpha"/>
<feOffset dy="12"/>
<feGaussianBlur stdDeviation="3.5"/>
<feColorMatrix type="matrix" values="0 0 0 0 0 0 0 0 0 0 0 0 0 0 0 0 0 0 0.05 0"/>
<feBlend mode="normal" in2="effect3_dropShadow_1461_8783" result="effect4_dropShadow_1461_8783"/>
<feColorMatrix in="SourceAlpha" type="matrix" values="0 0 0 0 0 0 0 0 0 0 0 0 0 0 0 0 0 0 127 0" result="hardAlpha"/>
<feOffset dy="22"/>
<feGaussianBlur stdDeviation="4.5"/>
<feColorMatrix type="matrix" values="0 0 0 0 0 0 0 0 0 0 0 0 0 0 0 0 0 0 0.01 0"/>
<feBlend mode="normal" in2="effect4_dropShadow_1461_8783" result="effect5_dropShadow_1461_8783"/>
<feBlend mode="normal" in="SourceGraphic" in2="effect5_dropShadow_1461_8783" result="shape"/>
</filter>
<filter id="filter1_ddddd_1461_8783" x="43.4999" y="29.1458" width="41.6672" height="47.8674" filterUnits="userSpaceOnUse" color-interpolation-filters="sRGB">
<feFlood flood-opacity="0" result="BackgroundImageFix"/>
<feColorMatrix in="SourceAlpha" type="matrix" values="0 0 0 0 0 0 0 0 0 0 0 0 0 0 0 0 0 0 127 0" result="hardAlpha"/>
<feOffset/>
<feColorMatrix type="matrix" values="0 0 0 0 0.101961 0 0 0 0 0.0941176 0 0 0 0 0.105882 0 0 0 0.1 0"/>
<feBlend mode="normal" in2="BackgroundImageFix" result="effect1_dropShadow_1461_8783"/>
<feColorMatrix in="SourceAlpha" type="matrix" values="0 0 0 0 0 0 0 0 0 0 0 0 0 0 0 0 0 0 127 0" result="hardAlpha"/>
<feOffset dy="1"/>
<feGaussianBlur stdDeviation="1"/>
<feColorMatrix type="matrix" values="0 0 0 0 0.101961 0 0 0 0 0.0941176 0 0 0 0 0.105882 0 0 0 0.1 0"/>
<feBlend mode="normal" in2="effect1_dropShadow_1461_8783" result="effect2_dropShadow_1461_8783"/>
<feColorMatrix in="SourceAlpha" type="matrix" values="0 0 0 0 0 0 0 0 0 0 0 0 0 0 0 0 0 0 127 0" result="hardAlpha"/>
<feOffset dy="3"/>
<feGaussianBlur stdDeviation="1.5"/>
<feColorMatrix type="matrix" values="0 0 0 0 0.101961 0 0 0 0 0.0941176 0 0 0 0 0.105882 0 0 0 0.09 0"/>
<feBlend mode="normal" in2="effect2_dropShadow_1461_8783" result="effect3_dropShadow_1461_8783"/>
<feColorMatrix in="SourceAlpha" type="matrix" values="0 0 0 0 0 0 0 0 0 0 0 0 0 0 0 0 0 0 127 0" result="hardAlpha"/>
<feOffset dy="8"/>
<feGaussianBlur stdDeviation="2.5"/>
<feColorMatrix type="matrix" values="0 0 0 0 0.101961 0 0 0 0 0.0941176 0 0 0 0 0.105882 0 0 0 0.05 0"/>
<feBlend mode="normal" in2="effect3_dropShadow_1461_8783" result="effect4_dropShadow_1461_8783"/>
<feColorMatrix in="SourceAlpha" type="matrix" values="0 0 0 0 0 0 0 0 0 0 0 0 0 0 0 0 0 0 127 0" result="hardAlpha"/>
<feOffset dy="13"/>
<feGaussianBlur stdDeviation="2.5"/>
<feColorMatrix type="matrix" values="0 0 0 0 0.101961 0 0 0 0 0.0941176 0 0 0 0 0.105882 0 0 0 0.01 0"/>
<feBlend mode="normal" in2="effect4_dropShadow_1461_8783" result="effect5_dropShadow_1461_8783"/>
<feBlend mode="normal" in="SourceGraphic" in2="effect5_dropShadow_1461_8783" result="shape"/>
</filter>
<filter id="filter2_ddddd_1461_8783" x="0.559937" y="22.5269" width="74.3591" height="90.3591" filterUnits="userSpaceOnUse" color-interpolation-filters="sRGB">
<feFlood flood-opacity="0" result="BackgroundImageFix"/>
<feColorMatrix in="SourceAlpha" type="matrix" values="0 0 0 0 0 0 0 0 0 0 0 0 0 0 0 0 0 0 127 0" result="hardAlpha"/>
<feOffset/>
<feColorMatrix type="matrix" values="0 0 0 0 0 0 0 0 0 0 0 0 0 0 0 0 0 0 0.1 0"/>
<feBlend mode="normal" in2="BackgroundImageFix" result="effect1_dropShadow_1461_8783"/>
<feColorMatrix in="SourceAlpha" type="matrix" values="0 0 0 0 0 0 0 0 0 0 0 0 0 0 0 0 0 0 127 0" result="hardAlpha"/>
<feOffset dy="2"/>
<feGaussianBlur stdDeviation="1.5"/>
<feColorMatrix type="matrix" values="0 0 0 0 0 0 0 0 0 0 0 0 0 0 0 0 0 0 0.1 0"/>
<feBlend mode="normal" in2="effect1_dropShadow_1461_8783" result="effect2_dropShadow_1461_8783"/>
<feColorMatrix in="SourceAlpha" type="matrix" values="0 0 0 0 0 0 0 0 0 0 0 0 0 0 0 0 0 0 127 0" result="hardAlpha"/>
<feOffset dy="6"/>
<feGaussianBlur stdDeviation="3"/>
<feColorMatrix type="matrix" values="0 0 0 0 0 0 0 0 0 0 0 0 0 0 0 0 0 0 0.09 0"/>
<feBlend mode="normal" in2="effect2_dropShadow_1461_8783" result="effect3_dropShadow_1461_8783"/>
<feColorMatrix in="SourceAlpha" type="matrix" values="0 0 0 0 0 0 0 0 0 0 0 0 0 0 0 0 0 0 127 0" result="hardAlpha"/>
<feOffset dy="14"/>
<feGaussianBlur stdDeviation="4"/>
<feColorMatrix type="matrix" values="0 0 0 0 0 0 0 0 0 0 0 0 0 0 0 0 0 0 0.05 0"/>
<feBlend mode="normal" in2="effect3_dropShadow_1461_8783" result="effect4_dropShadow_1461_8783"/>
<feColorMatrix in="SourceAlpha" type="matrix" values="0 0 0 0 0 0 0 0 0 0 0 0 0 0 0 0 0 0 127 0" result="hardAlpha"/>
<feOffset dy="25"/>
<feGaussianBlur stdDeviation="5"/>
<feColorMatrix type="matrix" values="0 0 0 0 0 0 0 0 0 0 0 0 0 0 0 0 0 0 0.01 0"/>
<feBlend mode="normal" in2="effect4_dropShadow_1461_8783" result="effect5_dropShadow_1461_8783"/>
<feBlend mode="normal" in="SourceGraphic" in2="effect5_dropShadow_1461_8783" result="shape"/>
</filter>
<filter id="filter3_d_1461_8783" x="15.3512" y="13.9189" width="57.8301" height="73.9761" filterUnits="userSpaceOnUse" color-interpolation-filters="sRGB">
<feFlood flood-opacity="0" result="BackgroundImageFix"/>
<feColorMatrix in="SourceAlpha" type="matrix" values="0 0 0 0 0 0 0 0 0 0 0 0 0 0 0 0 0 0 127 0" result="hardAlpha"/>
<feOffset dy="2"/>
<feGaussianBlur stdDeviation="10"/>
<feComposite in2="hardAlpha" operator="out"/>
<feColorMatrix type="matrix" values="0 0 0 0 0.901961 0 0 0 0 0.972549 0 0 0 0 0.513726 0 0 0 0.15 0"/>
<feBlend mode="normal" in2="BackgroundImageFix" result="effect1_dropShadow_1461_8783"/>
<feBlend mode="normal" in="SourceGraphic" in2="effect1_dropShadow_1461_8783" result="shape"/>
</filter>
<filter id="filter4_d_1461_8783" x="1.61133" y="23.9976" width="51.8761" height="63.4189" filterUnits="userSpaceOnUse" color-interpolation-filters="sRGB">
<feFlood flood-opacity="0" result="BackgroundImageFix"/>
<feColorMatrix in="SourceAlpha" type="matrix" values="0 0 0 0 0 0 0 0 0 0 0 0 0 0 0 0 0 0 127 0" result="hardAlpha"/>
<feOffset dy="2"/>
<feGaussianBlur stdDeviation="10"/>
<feComposite in2="hardAlpha" operator="out"/>
<feColorMatrix type="matrix" values="0 0 0 0 0.901961 0 0 0 0 0.972549 0 0 0 0 0.513726 0 0 0 0.15 0"/>
<feBlend mode="normal" in2="BackgroundImageFix" result="effect1_dropShadow_1461_8783"/>
<feBlend mode="normal" in="SourceGraphic" in2="effect1_dropShadow_1461_8783" result="shape"/>
</filter>
<filter id="filter5_d_1461_8783" x="18.8177" y="33.0442" width="50.4926" height="54.7817" filterUnits="userSpaceOnUse" color-interpolation-filters="sRGB">
<feFlood flood-opacity="0" result="BackgroundImageFix"/>
<feColorMatrix in="SourceAlpha" type="matrix" values="0 0 0 0 0 0 0 0 0 0 0 0 0 0 0 0 0 0 127 0" result="hardAlpha"/>
<feOffset dy="2"/>
<feGaussianBlur stdDeviation="10"/>
<feComposite in2="hardAlpha" operator="out"/>
<feColorMatrix type="matrix" values="0 0 0 0 0.901961 0 0 0 0 0.972549 0 0 0 0 0.513726 0 0 0 0.15 0"/>
<feBlend mode="normal" in2="BackgroundImageFix" result="effect1_dropShadow_1461_8783"/>
<feBlend mode="normal" in="SourceGraphic" in2="effect1_dropShadow_1461_8783" result="shape"/>
</filter>
<linearGradient id="paint0_linear_1461_8783" x1="24.8745" y1="8.99709" x2="99.781" y2="148.193" gradientUnits="userSpaceOnUse">
<stop offset="0.0001" stop-color="#50E6FF"/>
<stop offset="0.623265" stop-color="#0078D4"/>
</linearGradient>
<linearGradient id="paint1_linear_1461_8783" x1="2.49584" y1="-20.4204" x2="97.0868" y2="119.08" gradientUnits="userSpaceOnUse">
<stop stop-color="#007ED8"/>
<stop offset="0.7065" stop-color="#002D4C"/>
</linearGradient>
<linearGradient id="paint2_linear_1461_8783" x1="33.1284" y1="34.3759" x2="41.4167" y2="83.8611" gradientUnits="userSpaceOnUse">
<stop offset="0.0001" stop-color="#50E6FF"/>
<stop offset="1" stop-color="#0078D4"/>
</linearGradient>
<linearGradient id="paint3_linear_1461_8783" x1="37.7395" y1="23.5269" x2="37.7395" y2="77.886" gradientUnits="userSpaceOnUse">
<stop offset="0.104167" stop-color="#F2F1F0"/>
<stop offset="1" stop-color="#F2F1F0" stop-opacity="0"/>
</linearGradient>
<linearGradient id="paint4_linear_1461_8783" x1="52.9159" y1="72.6204" x2="52.9159" y2="72.6276" gradientUnits="userSpaceOnUse">
<stop offset="0.104167" stop-color="#F2F1F0"/>
<stop offset="1" stop-color="#F2F1F0" stop-opacity="0"/>
</linearGradient>
<linearGradient id="paint5_linear_1461_8783" x1="52.7114" y1="72.3823" x2="52.7114" y2="72.6209" gradientUnits="userSpaceOnUse">
<stop offset="0.104167" stop-color="#F2F1F0"/>
<stop offset="1" stop-color="#F2F1F0" stop-opacity="0"/>
</linearGradient>
<linearGradient id="paint6_linear_1461_8783" x1="52.97" y1="72.6277" x2="52.97" y2="72.6823" gradientUnits="userSpaceOnUse">
<stop offset="0.104167" stop-color="#F2F1F0"/>
<stop offset="1" stop-color="#F2F1F0" stop-opacity="0"/>
</linearGradient>
<linearGradient id="paint7_linear_1461_8783" x1="22.7757" y1="28.8" x2="22.7757" y2="29.0386" gradientUnits="userSpaceOnUse">
<stop offset="0.104167" stop-color="#F2F1F0"/>
<stop offset="1" stop-color="#F2F1F0" stop-opacity="0"/>
</linearGradient>
<linearGradient id="paint8_linear_1461_8783" x1="22.5699" y1="28.7922" x2="22.5699" y2="28.7994" gradientUnits="userSpaceOnUse">
<stop offset="0.104167" stop-color="#F2F1F0"/>
<stop offset="1" stop-color="#F2F1F0" stop-opacity="0"/>
</linearGradient>
<linearGradient id="paint9_linear_1461_8783" x1="22.5166" y1="28.7383" x2="22.5166" y2="28.7928" gradientUnits="userSpaceOnUse">
<stop offset="0.104167" stop-color="#F2F1F0"/>
<stop offset="1" stop-color="#F2F1F0" stop-opacity="0"/>
</linearGradient>
<linearGradient id="paint10_linear_1461_8783" x1="15.7983" y1="65.8906" x2="15.7983" y2="65.9835" gradientUnits="userSpaceOnUse">
<stop offset="0.104167" stop-color="#F2F1F0"/>
<stop offset="1" stop-color="#F2F1F0" stop-opacity="0"/>
</linearGradient>
<linearGradient id="paint11_linear_1461_8783" x1="15.829" y1="65.8762" x2="15.829" y2="65.8906" gradientUnits="userSpaceOnUse">
<stop offset="0.104167" stop-color="#F2F1F0"/>
<stop offset="1" stop-color="#F2F1F0" stop-opacity="0"/>
</linearGradient>
<linearGradient id="paint12_linear_1461_8783" x1="15.9522" y1="65.4792" x2="15.9522" y2="65.8768" gradientUnits="userSpaceOnUse">
<stop offset="0.104167" stop-color="#F2F1F0"/>
<stop offset="1" stop-color="#F2F1F0" stop-opacity="0"/>
</linearGradient>
<linearGradient id="paint13_linear_1461_8783" x1="59.5348" y1="35.5442" x2="59.5348" y2="35.9417" gradientUnits="userSpaceOnUse">
<stop offset="0.104167" stop-color="#F2F1F0"/>
<stop offset="1" stop-color="#F2F1F0" stop-opacity="0"/>
</linearGradient>
<linearGradient id="paint14_linear_1461_8783" x1="59.657" y1="35.53" x2="59.657" y2="35.5444" gradientUnits="userSpaceOnUse">
<stop offset="0.104167" stop-color="#F2F1F0"/>
<stop offset="1" stop-color="#F2F1F0" stop-opacity="0"/>
</linearGradient>
<linearGradient id="paint15_linear_1461_8783" x1="59.6882" y1="35.4375" x2="59.6882" y2="35.5304" gradientUnits="userSpaceOnUse">
<stop offset="0.104167" stop-color="#F2F1F0"/>
<stop offset="1" stop-color="#F2F1F0" stop-opacity="0"/>
</linearGradient>
<linearGradient id="paint16_linear_1461_8783" x1="37.7395" y1="23.5269" x2="36.3459" y2="100.415" gradientUnits="userSpaceOnUse">
<stop stop-color="#F2F1F0"/>
<stop offset="0.671875" stop-color="#90C5E7"/>
</linearGradient>
<linearGradient id="paint17_linear_1461_8783" x1="52.9159" y1="72.6204" x2="52.9159" y2="72.6276" gradientUnits="userSpaceOnUse">
<stop offset="0.104167" stop-color="#F2F1F0"/>
<stop offset="1" stop-color="#F2F1F0" stop-opacity="0"/>
</linearGradient>
<linearGradient id="paint18_linear_1461_8783" x1="52.7114" y1="72.3823" x2="52.7114" y2="72.6209" gradientUnits="userSpaceOnUse">
<stop offset="0.104167" stop-color="#F2F1F0"/>
<stop offset="1" stop-color="#F2F1F0" stop-opacity="0"/>
</linearGradient>
<linearGradient id="paint19_linear_1461_8783" x1="52.97" y1="72.6277" x2="52.97" y2="72.6823" gradientUnits="userSpaceOnUse">
<stop offset="0.104167" stop-color="#F2F1F0"/>
<stop offset="1" stop-color="#F2F1F0" stop-opacity="0"/>
</linearGradient>
<linearGradient id="paint20_linear_1461_8783" x1="22.7757" y1="28.8" x2="22.7757" y2="29.0386" gradientUnits="userSpaceOnUse">
<stop offset="0.104167" stop-color="#F2F1F0"/>
<stop offset="1" stop-color="#F2F1F0" stop-opacity="0"/>
</linearGradient>
<linearGradient id="paint21_linear_1461_8783" x1="22.5699" y1="28.7922" x2="22.5699" y2="28.7994" gradientUnits="userSpaceOnUse">
<stop offset="0.104167" stop-color="#F2F1F0"/>
<stop offset="1" stop-color="#F2F1F0" stop-opacity="0"/>
</linearGradient>
<linearGradient id="paint22_linear_1461_8783" x1="22.5166" y1="28.7383" x2="22.5166" y2="28.7928" gradientUnits="userSpaceOnUse">
<stop offset="0.104167" stop-color="#F2F1F0"/>
<stop offset="1" stop-color="#F2F1F0" stop-opacity="0"/>
</linearGradient>
<linearGradient id="paint23_linear_1461_8783" x1="15.7983" y1="65.8906" x2="15.7983" y2="65.9835" gradientUnits="userSpaceOnUse">
<stop offset="0.104167" stop-color="#F2F1F0"/>
<stop offset="1" stop-color="#F2F1F0" stop-opacity="0"/>
</linearGradient>
<linearGradient id="paint24_linear_1461_8783" x1="15.829" y1="65.8762" x2="15.829" y2="65.8906" gradientUnits="userSpaceOnUse">
<stop offset="0.104167" stop-color="#F2F1F0"/>
<stop offset="1" stop-color="#F2F1F0" stop-opacity="0"/>
</linearGradient>
<linearGradient id="paint25_linear_1461_8783" x1="15.9522" y1="65.4792" x2="15.9522" y2="65.8768" gradientUnits="userSpaceOnUse">
<stop offset="0.104167" stop-color="#F2F1F0"/>
<stop offset="1" stop-color="#F2F1F0" stop-opacity="0"/>
</linearGradient>
<linearGradient id="paint26_linear_1461_8783" x1="59.5348" y1="35.5442" x2="59.5348" y2="35.9417" gradientUnits="userSpaceOnUse">
<stop offset="0.104167" stop-color="#F2F1F0"/>
<stop offset="1" stop-color="#F2F1F0" stop-opacity="0"/>
</linearGradient>
<linearGradient id="paint27_linear_1461_8783" x1="59.657" y1="35.53" x2="59.657" y2="35.5444" gradientUnits="userSpaceOnUse">
<stop offset="0.104167" stop-color="#F2F1F0"/>
<stop offset="1" stop-color="#F2F1F0" stop-opacity="0"/>
</linearGradient>
<linearGradient id="paint28_linear_1461_8783" x1="59.6882" y1="35.4375" x2="59.6882" y2="35.5304" gradientUnits="userSpaceOnUse">
<stop offset="0.104167" stop-color="#F2F1F0"/>
<stop offset="1" stop-color="#F2F1F0" stop-opacity="0"/>
</linearGradient>
<linearGradient id="paint29_linear_1461_8783" x1="25.9144" y1="31.844" x2="37.0606" y2="72.5861" gradientUnits="userSpaceOnUse">
<stop offset="0.0833333" stop-color="#9BF00B"/>
<stop offset="0.625" stop-color="#0D7012"/>
<stop offset="0.916667" stop-color="#043810"/>
</linearGradient>
<linearGradient id="paint30_linear_1461_8783" x1="32.0095" y1="43.8712" x2="22.8363" y2="52.8771" gradientUnits="userSpaceOnUse">
<stop offset="0.104167" stop-color="#F3FABF"/>
<stop offset="0.838542" stop-color="#CFF885"/>
</linearGradient>
<linearGradient id="paint31_linear_1461_8783" x1="15.3258" y1="41.9449" x2="23.5016" y2="70.3146" gradientUnits="userSpaceOnUse">
<stop offset="0.0833333" stop-color="#9BF00B"/>
<stop offset="0.625" stop-color="#0D7012"/>
<stop offset="0.916667" stop-color="#043810"/>
</linearGradient>
<linearGradient id="paint32_linear_1461_8783" x1="58.5763" y1="44.7891" x2="54.9663" y2="69.7231" gradientUnits="userSpaceOnUse">
<stop offset="0.0833333" stop-color="#9BF00B"/>
<stop offset="0.625" stop-color="#0D7012"/>
<stop offset="0.916667" stop-color="#043810"/>
</linearGradient>
<clipPath id="clip0_1461_8783">
<rect width="102" height="102" fill="white" transform="translate(0.0893555)"/>
</clipPath>
</defs>
</svg>
