<svg width="102" height="102" viewBox="0 0 102 102" fill="none" xmlns="http://www.w3.org/2000/svg">
<path d="M50.9999 97.3506C25.4033 97.3506 4.6488 76.606 4.6488 50.9995C4.6488 25.393 25.4033 4.64844 50.9999 4.64844C76.5964 4.64844 97.351 25.4029 97.351 50.9995C97.351 76.5961 76.5964 97.3506 50.9999 97.3506Z" fill="url(#paint0_linear_2037_857)"/>
<path fill-rule="evenodd" clip-rule="evenodd" d="M96.4501 51C96.4501 76.1015 76.1016 96.45 51.0001 96.45C25.8987 96.45 5.55013 76.1015 5.55013 51C5.55013 25.8985 25.8987 5.55002 51.0001 5.55002C76.1016 5.55002 96.4501 25.8985 96.4501 51ZM51.0001 1.84668C78.1513 1.84668 100.153 23.8488 100.153 51C100.153 78.1512 78.1414 100.153 51.0001 100.153C23.849 100.153 1.8468 78.1413 1.8468 51C1.8468 23.8488 23.849 1.84668 51.0001 1.84668Z" fill="#F2F1F0"/>
<path d="M93.5175 50.9998C93.5175 74.4836 74.4837 93.5173 50.9999 93.5173C27.5161 93.5173 8.48236 74.4836 8.48236 50.9998C8.48236 27.516 27.5161 8.48224 50.9999 8.48224C74.4837 8.48224 93.5175 27.516 93.5175 50.9998ZM97.5208 50.9998C97.5208 25.3105 76.6892 4.47891 50.9999 4.47891C25.3007 4.47891 4.47903 25.3105 4.47903 50.9998C4.47903 76.6891 25.3106 97.5207 50.9999 97.5207C76.6892 97.5207 97.5208 76.6891 97.5208 50.9998Z" fill="url(#paint1_linear_2037_857)" stroke="white" stroke-width="0.3"/>
<path d="M84.7273 46.2314C84.7273 45.6038 84.2159 45.0924 83.5883 45.0924C83.1777 45.0924 80.6207 44.8677 79.2493 43.7985C79.2493 43.7985 79.257 43.783 79.2493 43.7985C78.7302 41.9079 77.9708 40.1413 77.0333 38.4677C76.7931 36.8793 78.4357 35.7248 79.1873 34.4851C79.319 34.2682 79.3965 34.1442 79.443 34.059C79.5825 33.656 79.505 33.1912 79.1873 32.8735C79.1873 32.8735 77.9243 31.0681 76.6304 29.7819C75.3364 28.4957 73.3761 27.0623 73.3761 27.0623C72.9345 26.6206 72.2061 26.6206 71.7645 27.0623C71.4701 27.349 69.5253 28.9529 67.7742 29.2086C67.7509 29.2086 67.7509 29.2086 67.7509 29.2086C66.1238 28.2865 64.2952 27.5272 62.4589 27.0081H62.4356C61.1417 26.055 61.4826 24.0792 61.1417 22.669C61.1417 22.0414 60.6303 21.5301 60.0027 21.5301C60.0027 21.5301 57.8332 21.1504 56.0046 21.1504C54.176 21.1504 51.7818 21.5301 51.7818 21.5301C51.1542 21.5301 50.6428 22.0414 50.6428 22.669C50.6428 23.0797 50.4181 25.6366 49.3488 27.0081C47.5358 27.5194 45.6297 28.3253 44.0181 29.2241C42.4297 29.4642 41.2752 27.8216 40.0355 27.07C39.8185 26.9383 39.6945 26.8608 39.6093 26.8144C39.2064 26.6749 38.7415 26.7524 38.4238 27.07C38.4238 27.07 36.6185 28.333 35.3323 29.627C34.0461 30.9209 32.6127 32.8812 32.6127 32.8812C32.171 33.3229 32.171 34.0512 32.6127 34.4929C32.8993 34.7795 34.5497 36.7553 34.7667 38.4754V38.4909C33.8679 40.1026 33.0775 42.0009 32.5662 43.814C32.5662 43.814 32.5894 43.783 32.5662 43.814C31.4582 45.1622 29.6373 44.767 28.2272 45.1079C27.5995 45.1079 27.0882 45.6193 27.0882 46.2469C27.0882 46.2469 26.7085 48.4164 26.7085 50.245C26.7085 52.0736 27.0882 54.4678 27.0882 54.4678C27.0882 55.0954 27.5995 55.6068 28.2272 55.6068C28.6378 55.6068 31.1947 55.8315 32.5662 56.9008C32.5972 56.8853 32.5817 56.924 32.5817 56.924C33.1085 58.7448 33.8601 60.5657 34.7744 62.1773C34.7589 62.2006 34.7744 62.1773 34.7822 62.2315C34.9371 63.8897 33.3797 64.9744 32.6281 66.2141C32.4964 66.4311 32.4189 66.5551 32.3725 66.6403C32.233 67.0432 32.3105 67.5081 32.6281 67.8258C32.6281 67.8258 33.8911 69.6311 35.1851 70.9173C36.479 72.2113 38.4393 73.6369 38.4393 73.6369C38.881 74.0786 39.6093 74.0786 40.051 73.6369C40.3376 73.3503 42.3134 71.6999 44.0336 71.4829C44.0336 71.4829 44.0258 71.4907 44.0568 71.4984C45.7149 72.4205 47.4273 73.1488 49.3024 73.6602C49.3179 73.6679 49.3721 73.6834 49.3721 73.6834C50.666 74.6365 50.3251 76.6123 50.666 78.0225C50.7358 78.6578 51.0845 79.0607 51.805 79.1614C51.805 79.1614 53.9745 79.5411 55.8031 79.5411C57.6317 79.5411 60.0259 79.1692 60.0259 79.1692C60.6535 79.0607 61.1649 78.6578 61.1649 78.0302C61.1649 77.6195 61.3896 75.0626 62.4589 73.6912C62.4589 73.6912 62.5054 73.6524 62.5518 73.6137C64.4579 73.0791 65.9068 72.4902 67.5882 71.5217C67.6734 71.4907 67.5804 71.4984 67.7819 71.4674C69.3703 71.2272 70.5248 72.8699 71.7645 73.6215C71.9814 73.7532 72.1054 73.8307 72.1906 73.8771C72.5936 74.0166 73.0585 73.9391 73.3761 73.6215C73.3761 73.6215 75.1815 72.3585 76.4677 71.0645C77.7616 69.7706 79.1873 67.8103 79.1873 67.8103C79.629 67.3686 79.629 66.6403 79.1873 66.1986C78.9006 65.912 77.2502 63.9362 77.0333 62.216C77.01 62.0378 77.0255 62.0146 77.0488 61.9681C78.0096 60.2712 78.6139 59.0315 79.1408 57.11C79.1408 57.11 79.1176 57.048 79.2415 56.8853C80.1946 55.5913 82.1704 55.9322 83.5806 55.5913C84.2082 55.5913 84.7196 55.0799 84.7196 54.4523C84.7196 54.4523 85.0992 52.2828 85.0992 50.4542C85.0992 48.6256 84.7273 46.2314 84.7273 46.2314ZM72.7873 50.2915C72.7873 59.6591 65.194 67.2601 55.8186 67.2601C46.4433 67.2601 38.85 59.6669 38.85 50.2915C38.85 40.9239 46.4433 33.3229 55.8186 33.3229C65.194 33.3229 72.7873 40.9239 72.7873 50.2915Z" fill="url(#paint2_linear_2037_857)"/>
<path d="M72.2153 73.893C72.2071 73.893 72.2071 73.8848 72.1989 73.8848C72.2071 73.8848 72.2153 73.893 72.2153 73.893Z" fill="url(#paint3_linear_2037_857)"/>
<path d="M72.1992 73.8856C72.0365 73.7848 71.7731 73.6299 71.7731 73.6299C71.897 73.7461 72.0443 73.8313 72.1992 73.8856Z" fill="url(#paint4_linear_2037_857)"/>
<path d="M72.2144 73.8926C72.3649 73.9797 72.3332 73.9639 72.2144 73.8926V73.8926Z" fill="url(#paint5_linear_2037_857)"/>
<path d="M39.6176 26.8145C39.7803 26.9152 40.0437 27.0701 40.0437 27.0701C39.9197 26.9539 39.7725 26.8687 39.6176 26.8145Z" fill="url(#paint6_linear_2037_857)"/>
<path d="M39.6018 26.8066C39.61 26.8066 39.61 26.8148 39.6182 26.8148C39.61 26.8148 39.6018 26.8066 39.6018 26.8066Z" fill="url(#paint7_linear_2037_857)"/>
<path d="M39.603 26.8076C39.4524 26.7205 39.4841 26.7363 39.603 26.8076V26.8076Z" fill="url(#paint8_linear_2037_857)"/>
<path d="M32.3655 66.6562C32.2783 66.8068 32.2942 66.7751 32.3655 66.6562V66.6562Z" fill="url(#paint9_linear_2037_857)"/>
<path d="M32.3646 66.657C32.3646 66.6488 32.3728 66.6488 32.3728 66.6406C32.3728 66.6488 32.3646 66.657 32.3646 66.657Z" fill="url(#paint10_linear_2037_857)"/>
<path d="M32.3727 66.64C32.4734 66.4773 32.6284 66.2139 32.6284 66.2139C32.5121 66.3378 32.4269 66.4851 32.3727 66.64Z" fill="url(#paint11_linear_2037_857)"/>
<path d="M79.4431 34.0586C79.3423 34.2213 79.1874 34.4847 79.1874 34.4847C79.3036 34.3608 79.3888 34.2136 79.4431 34.0586Z" fill="url(#paint12_linear_2037_857)"/>
<path d="M79.4511 34.043C79.4511 34.0512 79.4429 34.0512 79.4429 34.0594C79.4429 34.0512 79.4511 34.043 79.4511 34.043Z" fill="url(#paint13_linear_2037_857)"/>
<path d="M79.4519 34.0447C79.5391 33.8942 79.5232 33.9259 79.4519 34.0447V34.0447Z" fill="url(#paint14_linear_2037_857)"/>
<g filter="url(#filter0_ddddd_2037_857)">
<path d="M84.7273 46.2314C84.7273 45.6038 84.2159 45.0924 83.5883 45.0924C83.1777 45.0924 80.6207 44.8677 79.2493 43.7985C79.2493 43.7985 79.257 43.783 79.2493 43.7985C78.7302 41.9079 77.9708 40.1413 77.0333 38.4677C76.7931 36.8793 78.4357 35.7248 79.1873 34.4851C79.319 34.2682 79.3965 34.1442 79.443 34.059C79.5825 33.656 79.505 33.1912 79.1873 32.8735C79.1873 32.8735 77.9243 31.0681 76.6304 29.7819C75.3364 28.4957 73.3761 27.0623 73.3761 27.0623C72.9345 26.6206 72.2061 26.6206 71.7645 27.0623C71.4701 27.349 69.5253 28.9529 67.7742 29.2086C67.7509 29.2086 67.7509 29.2086 67.7509 29.2086C66.1238 28.2865 64.2952 27.5272 62.4589 27.0081H62.4356C61.1417 26.055 61.4826 24.0792 61.1417 22.669C61.1417 22.0414 60.6303 21.5301 60.0027 21.5301C60.0027 21.5301 57.8332 21.1504 56.0046 21.1504C54.176 21.1504 51.7818 21.5301 51.7818 21.5301C51.1542 21.5301 50.6428 22.0414 50.6428 22.669C50.6428 23.0797 50.4181 25.6366 49.3488 27.0081C47.5358 27.5194 45.6297 28.3253 44.0181 29.2241C42.4297 29.4642 41.2752 27.8216 40.0355 27.07C39.8185 26.9383 39.6945 26.8608 39.6093 26.8144C39.2064 26.6749 38.7415 26.7524 38.4238 27.07C38.4238 27.07 36.6185 28.333 35.3323 29.627C34.0461 30.9209 32.6127 32.8812 32.6127 32.8812C32.171 33.3229 32.171 34.0512 32.6127 34.4929C32.8993 34.7795 34.5497 36.7553 34.7667 38.4754V38.4909C33.8679 40.1026 33.0775 42.0009 32.5662 43.814C32.5662 43.814 32.5894 43.783 32.5662 43.814C31.4582 45.1622 29.6373 44.767 28.2272 45.1079C27.5995 45.1079 27.0882 45.6193 27.0882 46.2469C27.0882 46.2469 26.7085 48.4164 26.7085 50.245C26.7085 52.0736 27.0882 54.4678 27.0882 54.4678C27.0882 55.0954 27.5995 55.6068 28.2272 55.6068C28.6378 55.6068 31.1947 55.8315 32.5662 56.9008C32.5972 56.8853 32.5817 56.924 32.5817 56.924C33.1085 58.7448 33.8601 60.5657 34.7744 62.1773C34.7589 62.2006 34.7744 62.1773 34.7822 62.2315C34.9371 63.8897 33.3797 64.9744 32.6281 66.2141C32.4964 66.4311 32.4189 66.5551 32.3725 66.6403C32.233 67.0432 32.3105 67.5081 32.6281 67.8258C32.6281 67.8258 33.8911 69.6311 35.1851 70.9173C36.479 72.2113 38.4393 73.6369 38.4393 73.6369C38.881 74.0786 39.6093 74.0786 40.051 73.6369C40.3376 73.3503 42.3134 71.6999 44.0336 71.4829C44.0336 71.4829 44.0258 71.4907 44.0568 71.4984C45.7149 72.4205 47.4273 73.1488 49.3024 73.6602C49.3179 73.6679 49.3721 73.6834 49.3721 73.6834C50.666 74.6365 50.3251 76.6123 50.666 78.0225C50.7358 78.6578 51.0845 79.0607 51.805 79.1614C51.805 79.1614 53.9745 79.5411 55.8031 79.5411C57.6317 79.5411 60.0259 79.1692 60.0259 79.1692C60.6535 79.0607 61.1649 78.6578 61.1649 78.0302C61.1649 77.6195 61.3896 75.0626 62.4589 73.6912C62.4589 73.6912 62.5054 73.6524 62.5518 73.6137C64.4579 73.0791 65.9068 72.4902 67.5882 71.5217C67.6734 71.4907 67.5804 71.4984 67.7819 71.4674C69.3703 71.2272 70.5248 72.8699 71.7645 73.6215C71.9814 73.7532 72.1054 73.8307 72.1906 73.8771C72.5936 74.0166 73.0585 73.9391 73.3761 73.6215C73.3761 73.6215 75.1815 72.3585 76.4677 71.0645C77.7616 69.7706 79.1873 67.8103 79.1873 67.8103C79.629 67.3686 79.629 66.6403 79.1873 66.1986C78.9006 65.912 77.2502 63.9362 77.0333 62.216C77.01 62.0378 77.0255 62.0146 77.0488 61.9681C78.0096 60.2712 78.6139 59.0315 79.1408 57.11C79.1408 57.11 79.1176 57.048 79.2415 56.8853C80.1946 55.5913 82.1704 55.9322 83.5806 55.5913C84.2082 55.5913 84.7196 55.0799 84.7196 54.4523C84.7196 54.4523 85.0992 52.2828 85.0992 50.4542C85.0992 48.6256 84.7273 46.2314 84.7273 46.2314ZM72.7873 50.2915C72.7873 59.6591 65.194 67.2601 55.8186 67.2601C46.4433 67.2601 38.85 59.6669 38.85 50.2915C38.85 40.9239 46.4433 33.3229 55.8186 33.3229C65.194 33.3229 72.7873 40.9239 72.7873 50.2915Z" fill="url(#paint15_linear_2037_857)"/>
</g>
<path d="M72.2153 73.893C72.2071 73.893 72.2071 73.8848 72.1989 73.8848C72.2071 73.8848 72.2153 73.893 72.2153 73.893Z" fill="url(#paint16_linear_2037_857)"/>
<path d="M72.1992 73.8846C72.0365 73.7839 71.7731 73.6289 71.7731 73.6289C71.897 73.7451 72.0443 73.8304 72.1992 73.8846Z" fill="url(#paint17_linear_2037_857)"/>
<path d="M72.2144 73.8926C72.3649 73.9797 72.3332 73.9639 72.2144 73.8926V73.8926Z" fill="url(#paint18_linear_2037_857)"/>
<path d="M39.6176 26.8145C39.7803 26.9152 40.0437 27.0701 40.0437 27.0701C39.9197 26.9539 39.7725 26.8687 39.6176 26.8145Z" fill="url(#paint19_linear_2037_857)"/>
<path d="M39.6018 26.8066C39.61 26.8066 39.61 26.8148 39.6182 26.8148C39.61 26.8148 39.6018 26.8066 39.6018 26.8066Z" fill="url(#paint20_linear_2037_857)"/>
<path d="M39.603 26.8076C39.4524 26.7205 39.4841 26.7363 39.603 26.8076V26.8076Z" fill="url(#paint21_linear_2037_857)"/>
<path d="M32.3655 66.6562C32.2783 66.8068 32.2942 66.7751 32.3655 66.6562V66.6562Z" fill="url(#paint22_linear_2037_857)"/>
<path d="M32.3646 66.657C32.3646 66.6488 32.3728 66.6488 32.3728 66.6406C32.3728 66.6488 32.3646 66.657 32.3646 66.657Z" fill="url(#paint23_linear_2037_857)"/>
<path d="M32.3727 66.64C32.4734 66.4773 32.6284 66.2139 32.6284 66.2139C32.5121 66.3378 32.4269 66.4851 32.3727 66.64Z" fill="url(#paint24_linear_2037_857)"/>
<path d="M79.4431 34.0586C79.3423 34.2213 79.1874 34.4847 79.1874 34.4847C79.3036 34.3608 79.3888 34.2136 79.4431 34.0586Z" fill="url(#paint25_linear_2037_857)"/>
<path d="M79.4511 34.0439C79.4511 34.0521 79.4429 34.0521 79.4429 34.0604C79.4429 34.0521 79.4511 34.0439 79.4511 34.0439Z" fill="url(#paint26_linear_2037_857)"/>
<path d="M79.4519 34.0447C79.5391 33.8942 79.5232 33.9259 79.4519 34.0447V34.0447Z" fill="url(#paint27_linear_2037_857)"/>
<path fill-rule="evenodd" clip-rule="evenodd" d="M55.4481 30.7113C66.2102 30.7113 74.9283 39.4294 74.9283 50.1916C74.9283 60.9537 66.2102 69.6719 55.4481 69.6719C44.6957 69.6719 35.9678 60.9439 35.9678 50.1916C35.9678 39.4294 44.6859 30.7113 55.4481 30.7113ZM75.5254 50.1916C75.5254 39.0997 66.54 30.1143 55.4481 30.1143C44.3562 30.1143 35.3707 39.0997 35.3707 50.1916C35.3707 61.2737 44.366 70.2689 55.4481 70.2689C66.54 70.2689 75.5254 61.2835 75.5254 50.1916Z" fill="white"/>
<path fill-rule="evenodd" clip-rule="evenodd" d="M55.4491 33.7303C64.5422 33.7303 71.9134 41.1015 71.9134 50.1946C71.9134 59.2876 64.5422 66.6588 55.4491 66.6588C46.3561 66.6588 38.9849 59.2876 38.9849 50.1946C38.9849 41.1015 46.3561 33.7303 55.4491 33.7303ZM72.8595 50.1946C72.8595 40.579 65.0647 32.7842 55.4491 32.7842C45.8335 32.7842 38.0387 40.579 38.0387 50.1946C38.0387 59.8101 45.8335 67.6049 55.4491 67.6049C65.0647 67.6049 72.8595 59.8101 72.8595 50.1946Z" fill="white"/>
<path d="M62.5026 47.2149C64.9258 47.2149 67.2497 46.2523 68.9631 44.5389C70.6766 42.8255 71.6392 40.5015 71.6392 38.0784V31.0547H63.3763C60.9531 31.0547 58.6292 32.0173 56.9158 33.7307C55.2023 35.4441 54.2397 37.7681 54.2397 40.1912V47.2378H62.5026V47.2149Z" fill="#F3FBC1"/>
<g filter="url(#filter1_d_2037_857)">
<path d="M53.3544 46.8496V40.1686C53.3537 38.855 53.6117 37.5542 54.1139 36.3404C54.616 35.1267 55.3524 34.0237 56.281 33.0946C57.2095 32.1656 58.312 31.4285 59.5255 30.9257C60.739 30.4229 62.0397 30.1641 63.3532 30.1641H72.4897V38.1014C72.4897 40.7533 71.4363 43.2965 69.5612 45.1716C67.686 47.0468 65.1428 48.1002 62.491 48.1002H55.1018V66.66L53.3373 66.5345V46.8496H53.3544ZM68.3269 43.9259C69.0948 43.1643 69.7038 42.2578 70.1184 41.2589C70.5331 40.26 70.7451 39.1886 70.7424 38.1071V31.9457H63.3703C61.1879 31.9472 59.0953 32.8144 57.5515 34.3571C56.0078 35.8998 55.1391 37.9919 55.1361 40.1743V44.4056C56.3133 42.7538 57.6524 41.2235 59.1333 39.8374C60.722 38.2552 62.5803 36.9692 64.6209 36.04C64.6868 36.014 64.7594 36.0111 64.8272 36.0317C64.8949 36.0523 64.9537 36.0951 64.994 36.1533C65.0344 36.2115 65.0539 36.2816 65.0494 36.3522C65.0449 36.4229 65.0166 36.4899 64.9692 36.5425C63.6673 37.9301 61.3204 40.4369 60.578 41.2707C59.8357 42.1044 57.2888 45.0109 56.1639 46.3072H62.5024C63.5826 46.3158 64.6537 46.1098 65.6536 45.701C66.6535 45.2922 67.5622 44.6888 68.3269 43.9259Z" fill="url(#paint28_linear_2037_857)"/>
</g>
<path d="M57.8434 60.3116V55.7725C57.8461 54.6422 58.2966 53.559 59.0964 52.7602C59.8961 51.9614 60.9799 51.5121 62.1102 51.5107H67.5672V56.0499C67.5659 57.1798 67.1164 58.263 66.3175 59.0619C65.5186 59.8608 64.4354 60.3103 63.3055 60.3116H57.8434Z" fill="#CEF885"/>
<g filter="url(#filter2_d_2037_857)">
<path d="M62.1093 50.708C60.7717 50.708 59.4888 51.2394 58.543 52.1852C57.5972 53.131 57.0659 54.4139 57.0659 55.7515L57.0623 66.5859L58.6293 66.3511V61.0976H63.2895C64.6271 61.0976 65.9099 60.5662 66.8558 59.6204C67.8016 58.6745 68.333 57.3917 68.333 56.0541V50.708H62.1143H62.1093ZM66.7695 56.049C66.7682 56.9716 66.4011 57.8559 65.7487 58.5083C65.0964 59.1606 64.212 59.5277 63.2895 59.529H59.1387C59.7591 58.717 60.8636 57.2696 61.2923 56.7904C61.6353 56.4071 62.5481 55.4337 63.3097 54.6318C63.3608 54.574 63.3898 54.4999 63.3916 54.4228C63.3935 54.3457 63.3681 54.2703 63.3198 54.2101C63.2716 54.1498 63.2037 54.1085 63.1281 54.0934C63.0524 54.0783 62.9738 54.0903 62.9062 54.1275C62.0199 54.6317 61.2027 55.2488 60.4752 55.9633C59.8201 56.5844 59.2068 57.2483 58.6394 57.9504V55.7616C58.6408 54.839 59.0078 53.9546 59.6601 53.3023C60.3125 52.65 61.1968 52.2829 62.1194 52.2816H66.7795V56.0541L66.7695 56.049Z" fill="url(#paint29_linear_2037_857)"/>
</g>
<g filter="url(#filter3_dddd_2037_857)">
<path d="M40.9466 41.377C40.9466 40.457 40.1966 39.707 39.2666 39.707H15.4266C14.4966 39.707 13.7466 40.457 13.7466 41.377V65.267C13.7466 66.187 14.4966 66.937 15.4266 66.937H39.2666C40.1966 66.937 40.9466 66.187 40.9466 65.267V41.377Z" fill="white"/>
<path d="M39.2666 39.857C40.1143 39.857 40.7966 40.5405 40.7966 41.377V65.267C40.7966 66.1036 40.1143 66.787 39.2666 66.787H15.4266C14.5788 66.787 13.8966 66.1036 13.8966 65.267V41.377C13.8966 40.5405 14.5788 39.857 15.4266 39.857H39.2666Z" stroke="black" stroke-width="0.3"/>
</g>
<path d="M35.4241 46.0332H30.0508" stroke="black" stroke-width="0.3"/>
<path d="M35.4241 53.5039H30.0508" stroke="black" stroke-width="0.3"/>
<path d="M35.4241 61.0117H30.0508" stroke="black" stroke-width="0.3"/>
<path d="M36.3786 54.7606C35.6902 54.7606 35.1407 54.2058 35.1407 53.5227C35.1407 52.8422 35.694 52.2966 36.3736 52.2848C37.0566 52.2854 37.6165 52.8413 37.6165 53.5227C37.6165 54.2116 37.0675 54.7606 36.3786 54.7606Z" fill="#057DD8" stroke="black" stroke-width="0.3"/>
<path d="M36.3786 62.2498C35.6902 62.2498 35.1407 61.6951 35.1407 61.0119C35.1407 60.3314 35.694 59.7858 36.3736 59.774C37.0566 59.7747 37.6165 60.3305 37.6165 61.0119C37.6165 61.7008 37.0675 62.2498 36.3786 62.2498Z" fill="#2056A3" stroke="black" stroke-width="0.3"/>
<path d="M36.3786 47.2713C35.6902 47.2713 35.1407 46.7165 35.1407 46.0334C35.1407 45.3529 35.694 44.8073 36.3736 44.7955C37.0566 44.7962 37.6165 45.352 37.6165 46.0334C37.6165 46.7223 37.0675 47.2713 36.3786 47.2713Z" fill="#50E6FF" stroke="black" stroke-width="0.3"/>
<g filter="url(#filter4_dddd_2037_857)">
<path d="M31.0234 42.8927H17.3984C17.3326 42.8914 17.2672 42.9034 17.2062 42.928C17.1451 42.9526 17.0897 42.9893 17.0431 43.0358C16.9966 43.0823 16.9599 43.1378 16.9353 43.1989C16.9108 43.2599 16.8987 43.3253 16.9 43.3911V63.6546C16.9 63.7868 16.9525 63.9135 17.046 64.007C17.1395 64.1004 17.2662 64.153 17.3984 64.153H31.0234C31.1556 64.153 31.2823 64.1004 31.3758 64.007C31.4692 63.9135 31.5218 63.7868 31.5218 63.6546V43.3911C31.523 43.3253 31.511 43.2599 31.4864 43.1989C31.4618 43.1378 31.4252 43.0823 31.3786 43.0358C31.3321 42.9893 31.2766 42.9526 31.2156 42.928C31.1545 42.9034 31.0892 42.8914 31.0234 42.8927V42.8927Z" fill="url(#paint30_linear_2037_857)"/>
<path d="M28.8514 45.5537H19.5612V49.5312H28.8608V45.5537H28.8514Z" fill="white"/>
<path d="M20.887 52.1924H19.5612V53.5182H20.887V52.1924Z" fill="#2BC0E4"/>
<path d="M20.887 56.1807H19.5612V57.5535H20.887V56.1807Z" fill="#057DD8"/>
<path d="M20.887 60.167H19.5612V61.4928H20.887V60.167Z" fill="#2056A3"/>
<path d="M24.8744 52.1924H23.5486V53.5182H24.8744V52.1924Z" fill="#2BC0E4"/>
<path d="M24.8744 56.1807H23.5486V57.5535H24.8744V56.1807Z" fill="#057DD8"/>
<path d="M24.8744 60.167H23.5486V61.4928H24.8744V60.167Z" fill="#2056A3"/>
<path d="M28.8517 52.1924H27.5259V53.5182H28.8517V52.1924Z" fill="#2BC0E4"/>
<path d="M28.8517 56.1807H27.5259V57.5535H28.8517V56.1807Z" fill="#057DD8"/>
<path d="M28.8517 60.167H27.5259V61.4928H28.8517V60.167Z" fill="#2056A3"/>
</g>
<path d="M50.4574 51.8639V46.7246C50.4544 45.4449 49.9442 44.2184 49.0387 43.314C48.1333 42.4096 46.9062 41.9009 45.6264 41.8994H39.4479V47.0387C39.4494 48.318 39.9583 49.5444 40.8628 50.449C41.7674 51.3536 42.9938 51.8624 44.2731 51.8639H50.4574Z" fill="url(#paint31_linear_2037_857)"/>
<g filter="url(#filter5_d_2037_857)">
<path d="M45.6259 40.9902C47.1403 40.9902 48.5928 41.5918 49.6637 42.6627C50.7346 43.7336 51.3362 45.1861 51.3362 46.7006V66.1462L49.566 65.5815V52.7535H44.2897C42.7752 52.7535 41.3228 52.1519 40.2519 51.081C39.181 50.0101 38.5793 48.5576 38.5793 47.0432V40.9902H45.6202H45.6259ZM40.3495 47.0375C40.351 48.082 40.7667 49.0833 41.5052 49.8219C42.2438 50.5605 43.2451 50.9761 44.2897 50.9776H48.9892C48.2869 50.0582 47.0363 48.4194 46.5509 47.8769C46.1626 47.4429 45.1291 46.3408 44.2668 45.4328C44.209 45.3673 44.1761 45.2835 44.174 45.1962C44.1719 45.1089 44.2007 45.0236 44.2553 44.9554C44.3099 44.8871 44.3868 44.8403 44.4724 44.8232C44.5581 44.8061 44.6471 44.8198 44.7236 44.8618C45.7272 45.4327 46.6524 46.1314 47.4761 46.9404C48.2178 47.6436 48.9121 48.3952 49.5546 49.1903V46.712C49.5531 45.6674 49.1375 44.6661 48.3989 43.9275C47.6603 43.189 46.659 42.7734 45.6145 42.7719H40.3382V47.0432L40.3495 47.0375Z" fill="url(#paint32_linear_2037_857)"/>
</g>
<defs>
<filter id="filter0_ddddd_2037_857" x="20.7593" y="20.5555" width="70.2892" height="79.8078" filterUnits="userSpaceOnUse" color-interpolation-filters="sRGB">
<feFlood flood-opacity="0" result="BackgroundImageFix"/>
<feColorMatrix in="SourceAlpha" type="matrix" values="0 0 0 0 0 0 0 0 0 0 0 0 0 0 0 0 0 0 127 0" result="hardAlpha"/>
<feOffset/>
<feColorMatrix type="matrix" values="0 0 0 0 0 0 0 0 0 0 0 0 0 0 0 0 0 0 0.1 0"/>
<feBlend mode="normal" in2="BackgroundImageFix" result="effect1_dropShadow_2037_857"/>
<feColorMatrix in="SourceAlpha" type="matrix" values="0 0 0 0 0 0 0 0 0 0 0 0 0 0 0 0 0 0 127 0" result="hardAlpha"/>
<feOffset dy="1.18984"/>
<feGaussianBlur stdDeviation="0.89238"/>
<feColorMatrix type="matrix" values="0 0 0 0 0 0 0 0 0 0 0 0 0 0 0 0 0 0 0.1 0"/>
<feBlend mode="normal" in2="effect1_dropShadow_2037_857" result="effect2_dropShadow_2037_857"/>
<feColorMatrix in="SourceAlpha" type="matrix" values="0 0 0 0 0 0 0 0 0 0 0 0 0 0 0 0 0 0 127 0" result="hardAlpha"/>
<feOffset dy="3.56952"/>
<feGaussianBlur stdDeviation="1.78476"/>
<feColorMatrix type="matrix" values="0 0 0 0 0 0 0 0 0 0 0 0 0 0 0 0 0 0 0.09 0"/>
<feBlend mode="normal" in2="effect2_dropShadow_2037_857" result="effect3_dropShadow_2037_857"/>
<feColorMatrix in="SourceAlpha" type="matrix" values="0 0 0 0 0 0 0 0 0 0 0 0 0 0 0 0 0 0 127 0" result="hardAlpha"/>
<feOffset dy="8.32888"/>
<feGaussianBlur stdDeviation="2.37968"/>
<feColorMatrix type="matrix" values="0 0 0 0 0 0 0 0 0 0 0 0 0 0 0 0 0 0 0.05 0"/>
<feBlend mode="normal" in2="effect3_dropShadow_2037_857" result="effect4_dropShadow_2037_857"/>
<feColorMatrix in="SourceAlpha" type="matrix" values="0 0 0 0 0 0 0 0 0 0 0 0 0 0 0 0 0 0 127 0" result="hardAlpha"/>
<feOffset dy="14.873"/>
<feGaussianBlur stdDeviation="2.9746"/>
<feColorMatrix type="matrix" values="0 0 0 0 0 0 0 0 0 0 0 0 0 0 0 0 0 0 0.01 0"/>
<feBlend mode="normal" in2="effect4_dropShadow_2037_857" result="effect5_dropShadow_2037_857"/>
<feBlend mode="normal" in="SourceGraphic" in2="effect5_dropShadow_2037_857" result="shape"/>
</filter>
<filter id="filter1_d_2037_857" x="42.5468" y="20.4527" width="40.7334" height="58.077" filterUnits="userSpaceOnUse" color-interpolation-filters="sRGB">
<feFlood flood-opacity="0" result="BackgroundImageFix"/>
<feColorMatrix in="SourceAlpha" type="matrix" values="0 0 0 0 0 0 0 0 0 0 0 0 0 0 0 0 0 0 127 0" result="hardAlpha"/>
<feOffset dy="1.07905"/>
<feGaussianBlur stdDeviation="5.39523"/>
<feComposite in2="hardAlpha" operator="out"/>
<feColorMatrix type="matrix" values="0 0 0 0 0.901961 0 0 0 0 0.972549 0 0 0 0 0.513726 0 0 0 0.15 0"/>
<feBlend mode="normal" in2="BackgroundImageFix" result="effect1_dropShadow_2037_857"/>
<feBlend mode="normal" in="SourceGraphic" in2="effect1_dropShadow_2037_857" result="shape"/>
</filter>
<filter id="filter2_d_2037_857" x="46.2718" y="40.9966" width="32.8517" height="37.4588" filterUnits="userSpaceOnUse" color-interpolation-filters="sRGB">
<feFlood flood-opacity="0" result="BackgroundImageFix"/>
<feColorMatrix in="SourceAlpha" type="matrix" values="0 0 0 0 0 0 0 0 0 0 0 0 0 0 0 0 0 0 127 0" result="hardAlpha"/>
<feOffset dy="1.07905"/>
<feGaussianBlur stdDeviation="5.39523"/>
<feComposite in2="hardAlpha" operator="out"/>
<feColorMatrix type="matrix" values="0 0 0 0 0.901961 0 0 0 0 0.972549 0 0 0 0 0.513726 0 0 0 0.15 0"/>
<feBlend mode="normal" in2="BackgroundImageFix" result="effect1_dropShadow_2037_857"/>
<feBlend mode="normal" in="SourceGraphic" in2="effect1_dropShadow_2037_857" result="shape"/>
</filter>
<filter id="filter3_dddd_2037_857" x="11.7466" y="38.707" width="37.2" height="45.2305" filterUnits="userSpaceOnUse" color-interpolation-filters="sRGB">
<feFlood flood-opacity="0" result="BackgroundImageFix"/>
<feColorMatrix in="SourceAlpha" type="matrix" values="0 0 0 0 0 0 0 0 0 0 0 0 0 0 0 0 0 0 127 0" result="hardAlpha"/>
<feOffset dy="1"/>
<feGaussianBlur stdDeviation="1"/>
<feColorMatrix type="matrix" values="0 0 0 0 0 0 0 0 0 0 0 0 0 0 0 0 0 0 0.1 0"/>
<feBlend mode="normal" in2="BackgroundImageFix" result="effect1_dropShadow_2037_857"/>
<feColorMatrix in="SourceAlpha" type="matrix" values="0 0 0 0 0 0 0 0 0 0 0 0 0 0 0 0 0 0 127 0" result="hardAlpha"/>
<feOffset dx="1" dy="3"/>
<feGaussianBlur stdDeviation="1.5"/>
<feColorMatrix type="matrix" values="0 0 0 0 0 0 0 0 0 0 0 0 0 0 0 0 0 0 0.09 0"/>
<feBlend mode="normal" in2="effect1_dropShadow_2037_857" result="effect2_dropShadow_2037_857"/>
<feColorMatrix in="SourceAlpha" type="matrix" values="0 0 0 0 0 0 0 0 0 0 0 0 0 0 0 0 0 0 127 0" result="hardAlpha"/>
<feOffset dx="2" dy="7"/>
<feGaussianBlur stdDeviation="2"/>
<feColorMatrix type="matrix" values="0 0 0 0 0 0 0 0 0 0 0 0 0 0 0 0 0 0 0.05 0"/>
<feBlend mode="normal" in2="effect2_dropShadow_2037_857" result="effect3_dropShadow_2037_857"/>
<feColorMatrix in="SourceAlpha" type="matrix" values="0 0 0 0 0 0 0 0 0 0 0 0 0 0 0 0 0 0 127 0" result="hardAlpha"/>
<feOffset dx="3" dy="12"/>
<feGaussianBlur stdDeviation="2.5"/>
<feColorMatrix type="matrix" values="0 0 0 0 0 0 0 0 0 0 0 0 0 0 0 0 0 0 0.01 0"/>
<feBlend mode="normal" in2="effect3_dropShadow_2037_857" result="effect4_dropShadow_2037_857"/>
<feBlend mode="normal" in="SourceGraphic" in2="effect4_dropShadow_2037_857" result="shape"/>
</filter>
<filter id="filter4_dddd_2037_857" x="15.8209" y="42.3531" width="16.78" height="25.5769" filterUnits="userSpaceOnUse" color-interpolation-filters="sRGB">
<feFlood flood-opacity="0" result="BackgroundImageFix"/>
<feColorMatrix in="SourceAlpha" type="matrix" values="0 0 0 0 0 0 0 0 0 0 0 0 0 0 0 0 0 0 127 0" result="hardAlpha"/>
<feOffset/>
<feGaussianBlur stdDeviation="0.269761"/>
<feColorMatrix type="matrix" values="0 0 0 0 0 0 0 0 0 0 0 0 0 0 0 0 0 0 0.1 0"/>
<feBlend mode="normal" in2="BackgroundImageFix" result="effect1_dropShadow_2037_857"/>
<feColorMatrix in="SourceAlpha" type="matrix" values="0 0 0 0 0 0 0 0 0 0 0 0 0 0 0 0 0 0 127 0" result="hardAlpha"/>
<feOffset dy="0.539523"/>
<feGaussianBlur stdDeviation="0.269761"/>
<feColorMatrix type="matrix" values="0 0 0 0 0 0 0 0 0 0 0 0 0 0 0 0 0 0 0.09 0"/>
<feBlend mode="normal" in2="effect1_dropShadow_2037_857" result="effect2_dropShadow_2037_857"/>
<feColorMatrix in="SourceAlpha" type="matrix" values="0 0 0 0 0 0 0 0 0 0 0 0 0 0 0 0 0 0 127 0" result="hardAlpha"/>
<feOffset dy="1.61857"/>
<feGaussianBlur stdDeviation="0.539523"/>
<feColorMatrix type="matrix" values="0 0 0 0 0 0 0 0 0 0 0 0 0 0 0 0 0 0 0.05 0"/>
<feBlend mode="normal" in2="effect2_dropShadow_2037_857" result="effect3_dropShadow_2037_857"/>
<feColorMatrix in="SourceAlpha" type="matrix" values="0 0 0 0 0 0 0 0 0 0 0 0 0 0 0 0 0 0 127 0" result="hardAlpha"/>
<feOffset dy="2.69761"/>
<feGaussianBlur stdDeviation="0.539523"/>
<feColorMatrix type="matrix" values="0 0 0 0 0 0 0 0 0 0 0 0 0 0 0 0 0 0 0.01 0"/>
<feBlend mode="normal" in2="effect3_dropShadow_2037_857" result="effect4_dropShadow_2037_857"/>
<feBlend mode="normal" in="SourceGraphic" in2="effect4_dropShadow_2037_857" result="shape"/>
</filter>
<filter id="filter5_d_2037_857" x="27.7889" y="31.2788" width="34.3377" height="46.7372" filterUnits="userSpaceOnUse" color-interpolation-filters="sRGB">
<feFlood flood-opacity="0" result="BackgroundImageFix"/>
<feColorMatrix in="SourceAlpha" type="matrix" values="0 0 0 0 0 0 0 0 0 0 0 0 0 0 0 0 0 0 127 0" result="hardAlpha"/>
<feOffset dy="1.07905"/>
<feGaussianBlur stdDeviation="5.39523"/>
<feComposite in2="hardAlpha" operator="out"/>
<feColorMatrix type="matrix" values="0 0 0 0 0.901961 0 0 0 0 0.972549 0 0 0 0 0.513726 0 0 0 0.15 0"/>
<feBlend mode="normal" in2="BackgroundImageFix" result="effect1_dropShadow_2037_857"/>
<feBlend mode="normal" in="SourceGraphic" in2="effect1_dropShadow_2037_857" result="shape"/>
</filter>
<linearGradient id="paint0_linear_2037_857" x1="50.9999" y1="92.4205" x2="50.9999" y2="10.8567" gradientUnits="userSpaceOnUse">
<stop stop-color="#659BFF"/>
<stop offset="1" stop-color="#E6CFFF"/>
</linearGradient>
<linearGradient id="paint1_linear_2037_857" x1="62.4053" y1="85.7689" x2="60.0351" y2="13.3957" gradientUnits="userSpaceOnUse">
<stop stop-color="#0B53CE"/>
<stop offset="1" stop-color="#7252AA"/>
</linearGradient>
<linearGradient id="paint2_linear_2037_857" x1="55.9039" y1="21.1504" x2="55.9039" y2="79.5411" gradientUnits="userSpaceOnUse">
<stop offset="0.104167" stop-color="#F2F1F0"/>
<stop offset="1" stop-color="#F2F1F0" stop-opacity="0"/>
</linearGradient>
<linearGradient id="paint3_linear_2037_857" x1="72.2071" y1="73.8848" x2="72.2071" y2="73.893" gradientUnits="userSpaceOnUse">
<stop offset="0.104167" stop-color="#F2F1F0"/>
<stop offset="1" stop-color="#F2F1F0" stop-opacity="0"/>
</linearGradient>
<linearGradient id="paint4_linear_2037_857" x1="71.9861" y1="73.6299" x2="71.9861" y2="73.8856" gradientUnits="userSpaceOnUse">
<stop offset="0.104167" stop-color="#F2F1F0"/>
<stop offset="1" stop-color="#F2F1F0" stop-opacity="0"/>
</linearGradient>
<linearGradient id="paint5_linear_2037_857" x1="72.265" y1="73.8926" x2="72.265" y2="73.9522" gradientUnits="userSpaceOnUse">
<stop offset="0.104167" stop-color="#F2F1F0"/>
<stop offset="1" stop-color="#F2F1F0" stop-opacity="0"/>
</linearGradient>
<linearGradient id="paint6_linear_2037_857" x1="39.8306" y1="26.8145" x2="39.8306" y2="27.0701" gradientUnits="userSpaceOnUse">
<stop offset="0.104167" stop-color="#F2F1F0"/>
<stop offset="1" stop-color="#F2F1F0" stop-opacity="0"/>
</linearGradient>
<linearGradient id="paint7_linear_2037_857" x1="39.61" y1="26.8066" x2="39.61" y2="26.8148" gradientUnits="userSpaceOnUse">
<stop offset="0.104167" stop-color="#F2F1F0"/>
<stop offset="1" stop-color="#F2F1F0" stop-opacity="0"/>
</linearGradient>
<linearGradient id="paint8_linear_2037_857" x1="39.5523" y1="26.748" x2="39.5523" y2="26.8076" gradientUnits="userSpaceOnUse">
<stop offset="0.104167" stop-color="#F2F1F0"/>
<stop offset="1" stop-color="#F2F1F0" stop-opacity="0"/>
</linearGradient>
<linearGradient id="paint9_linear_2037_857" x1="32.3357" y1="66.6562" x2="32.3357" y2="66.7576" gradientUnits="userSpaceOnUse">
<stop offset="0.104167" stop-color="#F2F1F0"/>
<stop offset="1" stop-color="#F2F1F0" stop-opacity="0"/>
</linearGradient>
<linearGradient id="paint10_linear_2037_857" x1="32.3687" y1="66.6406" x2="32.3687" y2="66.657" gradientUnits="userSpaceOnUse">
<stop offset="0.104167" stop-color="#F2F1F0"/>
<stop offset="1" stop-color="#F2F1F0" stop-opacity="0"/>
</linearGradient>
<linearGradient id="paint11_linear_2037_857" x1="32.5005" y1="66.2139" x2="32.5005" y2="66.64" gradientUnits="userSpaceOnUse">
<stop offset="0.104167" stop-color="#F2F1F0"/>
<stop offset="1" stop-color="#F2F1F0" stop-opacity="0"/>
</linearGradient>
<linearGradient id="paint12_linear_2037_857" x1="79.3152" y1="34.0586" x2="79.3152" y2="34.4847" gradientUnits="userSpaceOnUse">
<stop offset="0.104167" stop-color="#F2F1F0"/>
<stop offset="1" stop-color="#F2F1F0" stop-opacity="0"/>
</linearGradient>
<linearGradient id="paint13_linear_2037_857" x1="79.447" y1="34.043" x2="79.447" y2="34.0594" gradientUnits="userSpaceOnUse">
<stop offset="0.104167" stop-color="#F2F1F0"/>
<stop offset="1" stop-color="#F2F1F0" stop-opacity="0"/>
</linearGradient>
<linearGradient id="paint14_linear_2037_857" x1="79.4817" y1="33.9434" x2="79.4817" y2="34.0447" gradientUnits="userSpaceOnUse">
<stop offset="0.104167" stop-color="#F2F1F0"/>
<stop offset="1" stop-color="#F2F1F0" stop-opacity="0"/>
</linearGradient>
<linearGradient id="paint15_linear_2037_857" x1="39.6989" y1="21.8216" x2="64.5182" y2="94.8087" gradientUnits="userSpaceOnUse">
<stop stop-color="#F2F1F0"/>
<stop offset="0.0001" stop-color="#50E6FF"/>
<stop offset="0.466875" stop-color="#35AFE4"/>
<stop offset="0.760022" stop-color="#2E76BC"/>
<stop offset="0.897167" stop-color="#052A46"/>
</linearGradient>
<linearGradient id="paint16_linear_2037_857" x1="72.2071" y1="73.8848" x2="72.2071" y2="73.893" gradientUnits="userSpaceOnUse">
<stop offset="0.104167" stop-color="#F2F1F0"/>
<stop offset="1" stop-color="#F2F1F0" stop-opacity="0"/>
</linearGradient>
<linearGradient id="paint17_linear_2037_857" x1="71.9861" y1="73.6289" x2="71.9861" y2="73.8846" gradientUnits="userSpaceOnUse">
<stop offset="0.104167" stop-color="#F2F1F0"/>
<stop offset="1" stop-color="#F2F1F0" stop-opacity="0"/>
</linearGradient>
<linearGradient id="paint18_linear_2037_857" x1="72.265" y1="73.8926" x2="72.265" y2="73.9522" gradientUnits="userSpaceOnUse">
<stop offset="0.104167" stop-color="#F2F1F0"/>
<stop offset="1" stop-color="#F2F1F0" stop-opacity="0"/>
</linearGradient>
<linearGradient id="paint19_linear_2037_857" x1="39.8306" y1="26.8145" x2="39.8306" y2="27.0701" gradientUnits="userSpaceOnUse">
<stop offset="0.104167" stop-color="#F2F1F0"/>
<stop offset="1" stop-color="#F2F1F0" stop-opacity="0"/>
</linearGradient>
<linearGradient id="paint20_linear_2037_857" x1="39.61" y1="26.8066" x2="39.61" y2="26.8148" gradientUnits="userSpaceOnUse">
<stop offset="0.104167" stop-color="#F2F1F0"/>
<stop offset="1" stop-color="#F2F1F0" stop-opacity="0"/>
</linearGradient>
<linearGradient id="paint21_linear_2037_857" x1="39.5523" y1="26.748" x2="39.5523" y2="26.8076" gradientUnits="userSpaceOnUse">
<stop offset="0.104167" stop-color="#F2F1F0"/>
<stop offset="1" stop-color="#F2F1F0" stop-opacity="0"/>
</linearGradient>
<linearGradient id="paint22_linear_2037_857" x1="32.3357" y1="66.6562" x2="32.3357" y2="66.7576" gradientUnits="userSpaceOnUse">
<stop offset="0.104167" stop-color="#F2F1F0"/>
<stop offset="1" stop-color="#F2F1F0" stop-opacity="0"/>
</linearGradient>
<linearGradient id="paint23_linear_2037_857" x1="32.3687" y1="66.6406" x2="32.3687" y2="66.657" gradientUnits="userSpaceOnUse">
<stop offset="0.104167" stop-color="#F2F1F0"/>
<stop offset="1" stop-color="#F2F1F0" stop-opacity="0"/>
</linearGradient>
<linearGradient id="paint24_linear_2037_857" x1="32.5005" y1="66.2139" x2="32.5005" y2="66.64" gradientUnits="userSpaceOnUse">
<stop offset="0.104167" stop-color="#F2F1F0"/>
<stop offset="1" stop-color="#F2F1F0" stop-opacity="0"/>
</linearGradient>
<linearGradient id="paint25_linear_2037_857" x1="79.3152" y1="34.0586" x2="79.3152" y2="34.4847" gradientUnits="userSpaceOnUse">
<stop offset="0.104167" stop-color="#F2F1F0"/>
<stop offset="1" stop-color="#F2F1F0" stop-opacity="0"/>
</linearGradient>
<linearGradient id="paint26_linear_2037_857" x1="79.447" y1="34.0439" x2="79.447" y2="34.0604" gradientUnits="userSpaceOnUse">
<stop offset="0.104167" stop-color="#F2F1F0"/>
<stop offset="1" stop-color="#F2F1F0" stop-opacity="0"/>
</linearGradient>
<linearGradient id="paint27_linear_2037_857" x1="79.4817" y1="33.9434" x2="79.4817" y2="34.0447" gradientUnits="userSpaceOnUse">
<stop offset="0.104167" stop-color="#F2F1F0"/>
<stop offset="1" stop-color="#F2F1F0" stop-opacity="0"/>
</linearGradient>
<linearGradient id="paint28_linear_2037_857" x1="43.2006" y1="30.0835" x2="55.1735" y2="73.8474" gradientUnits="userSpaceOnUse">
<stop offset="0.0833333" stop-color="#9BF00B"/>
<stop offset="0.625" stop-color="#0D7012"/>
<stop offset="0.916667" stop-color="#043810"/>
</linearGradient>
<linearGradient id="paint29_linear_2037_857" x1="78.2862" y1="43.989" x2="74.4085" y2="70.7722" gradientUnits="userSpaceOnUse">
<stop offset="0.0833333" stop-color="#9BF00B"/>
<stop offset="0.625" stop-color="#0D7012"/>
<stop offset="0.916667" stop-color="#043810"/>
</linearGradient>
<linearGradient id="paint30_linear_2037_857" x1="20.1629" y1="33.8939" x2="26.6698" y2="65.4694" gradientUnits="userSpaceOnUse">
<stop offset="0.21875" stop-color="#002D4C"/>
<stop offset="0.958333" stop-color="#141E2F"/>
</linearGradient>
<linearGradient id="paint31_linear_2037_857" x1="49.7492" y1="43.0033" x2="39.8956" y2="52.6771" gradientUnits="userSpaceOnUse">
<stop offset="0.104167" stop-color="#F3FABF"/>
<stop offset="0.838542" stop-color="#CFF885"/>
</linearGradient>
<linearGradient id="paint32_linear_2037_857" x1="31.8276" y1="40.9337" x2="40.6098" y2="71.4074" gradientUnits="userSpaceOnUse">
<stop offset="0.0833333" stop-color="#9BF00B"/>
<stop offset="0.625" stop-color="#0D7012"/>
<stop offset="0.916667" stop-color="#043810"/>
</linearGradient>
</defs>
</svg>
