<svg width="103" height="102" viewBox="0 0 103 102" fill="none" xmlns="http://www.w3.org/2000/svg">
<g clip-path="url(#clip0_1495_1477)">
<path d="M50.5892 96.8511C24.9927 96.8511 4.23816 76.1065 4.23816 50.5C4.23816 24.8935 24.9927 4.14893 50.5892 4.14893C76.1858 4.14893 96.9403 24.9034 96.9403 50.5C96.9403 76.0966 76.1858 96.8511 50.5892 96.8511Z" fill="url(#paint0_linear_1495_1477)"/>
<path fill-rule="evenodd" clip-rule="evenodd" d="M96.0395 50.5003C96.0395 75.6017 75.691 95.9502 50.5895 95.9502C25.488 95.9502 5.13949 75.6017 5.13949 50.5003C5.13949 25.3988 25.488 5.05026 50.5895 5.05026C75.691 5.05026 96.0395 25.3988 96.0395 50.5003ZM50.5895 1.34692C77.7407 1.34692 99.7428 23.3491 99.7428 50.5003C99.7428 77.6514 77.7308 99.6536 50.5895 99.6536C23.4383 99.6536 1.43616 77.6415 1.43616 50.5003C1.43616 23.3491 23.4383 1.34692 50.5895 1.34692Z" fill="#F2F1F0"/>
<circle cx="45.931" cy="46.9682" r="7.8183" fill="#D9D9D9"/>
<circle cx="43.3914" cy="51.9822" r="4.88799" fill="#D9D9D9"/>
<circle cx="49.0863" cy="32.8732" r="14.6202" fill="#D9D9D9"/>
<path d="M53.2974 71.6812C53.2974 71.1289 52.8497 70.6812 52.2974 70.6812H43.6257L43.6257 94.8604L53.2974 95.6525L53.2974 71.6812Z" fill="#0078D4"/>
<path d="M11.2229 70.6807L12.3093 75.7133L17.6314 81.2509L21.0877 84.2032L24.6159 86.5793L28.7922 89.5316L43.618 92.8646V70.6814L11.2229 70.6807Z" fill="#50E6FF"/>
<path d="M19.601 53.9795H14.1394L13.8226 58.1896L19.91 58.3441L19.601 53.9795Z" fill="#50E6FF"/>
<path d="M13.8304 58.1973L13.2124 70.6809H20.5512L19.9332 58.3595L13.8304 58.1973Z" fill="#0078D4"/>
<path d="M19.292 76.606H16.7968V79.1011H19.292V76.606Z" fill="#0078D7"/>
<path d="M38.6354 76.606H36.1403V79.1011H38.6354V76.606Z" fill="#0078D7"/>
<path d="M32.2391 76.606H29.7439V79.1011H32.2391V76.606Z" fill="#0078D7"/>
<path d="M25.835 76.606H23.3398V79.1011H25.835V76.606Z" fill="#0078D7"/>
<path d="M32.0768 53.9795H26.4685L26.314 58.1896L32.4013 58.3441L32.0768 53.9795Z" fill="#50E6FF"/>
<path d="M26.3062 58.1973L25.526 70.6809H33.0116L32.3936 58.3595L26.3062 58.1973Z" fill="#0078D4"/>
<path d="M44.5605 53.9795H38.9444L38.6277 58.1896L44.715 58.3441L44.5605 53.9795Z" fill="#50E6FF"/>
<path d="M38.6355 58.1973L38.0175 70.6809H45.503L44.7228 58.3595L38.6355 58.1973Z" fill="#0078D4"/>
<path fill-rule="evenodd" clip-rule="evenodd" d="M93.2568 50.4998C93.2568 74.0665 74.1559 93.1673 50.5893 93.1673C27.0226 93.1673 7.92172 74.0665 7.92172 50.4998C7.92172 26.9331 27.0226 7.83224 50.5893 7.83224C74.1559 7.83224 93.2568 26.9331 93.2568 50.4998ZM50.5893 4.12891C76.1957 4.12891 96.9601 24.8933 96.9601 50.4998C96.9601 76.1063 76.1957 96.8707 50.5893 96.8707C24.9828 96.8707 4.21838 76.1063 4.21838 50.4998C4.21838 24.8933 24.9729 4.12891 50.5893 4.12891Z" fill="url(#paint1_linear_1495_1477)"/>
<circle cx="66.1514" cy="21.0177" r="18.6617" fill="#D9D9D9"/>
<g filter="url(#filter0_ddddd_1495_1477)">
<path d="M81.9483 32.5437H51.2164C50.5531 32.5437 50.017 33.0798 50.017 33.7432V73.8436C50.017 74.5069 50.5531 75.0431 51.2164 75.0431H81.9483C82.6116 75.0431 83.1477 74.5069 83.1477 73.8436V33.7432C83.1386 33.0798 82.6025 32.5437 81.9483 32.5437Z" fill="#F2F2F2"/>
</g>
<path opacity="0.15" d="M79.0406 71.0819C79.4606 71.0819 79.7992 70.7433 79.7992 70.3233V45.2959H53.3621V70.3266C53.3621 70.7466 53.7007 71.0852 54.1207 71.0852H79.0406V71.0819Z" fill="#1F1D20"/>
<g filter="url(#filter1_ddddd_1495_1477)">
<path d="M79.796 36.1052V35.695C79.796 35.1871 79.3858 34.7769 78.8778 34.7769H54.2802C53.7723 34.7769 53.3621 35.1871 53.3621 35.695V36.1508V36.5676V69.523C53.3621 70.0309 53.7723 70.4412 54.2802 70.4412H78.8844C79.3923 70.4412 79.8025 70.0309 79.8025 69.523V36.1508C79.8025 36.1345 79.796 36.1215 79.796 36.1052Z" fill="white"/>
</g>
<path fill-rule="evenodd" clip-rule="evenodd" d="M70.4896 30.1628C70.4896 28.8634 69.8081 27.6276 68.654 27.0188C65.6735 25.4467 62.684 27.564 62.684 30.3809V30.4809C62.684 30.599 62.684 30.7171 62.693 30.8262H60.3668C58.6221 30.8262 57.3227 32.7072 58.3768 34.5518C58.7493 35.197 59.449 35.5695 60.1942 35.5695H72.7977C74.5423 35.5695 75.8418 33.6885 74.7877 31.8439C74.4151 31.1987 73.7154 30.8262 72.9703 30.8262H70.4714C70.472 30.8183 70.4726 30.8104 70.4732 30.8026C70.4817 30.6934 70.4896 30.5911 70.4896 30.4809V30.1628ZM68.1906 30.5988C68.1906 31.4893 67.4727 32.2072 66.5822 32.2072C65.6917 32.2072 64.9738 31.4893 64.9738 30.5988C64.9738 29.7083 65.6917 28.9904 66.5822 28.9904C67.4727 28.9904 68.1906 29.7083 68.1906 30.5988Z" fill="#092E4C"/>
<path fill-rule="evenodd" clip-rule="evenodd" d="M64.5767 64.0434L63.6912 64.3587L63.5302 64.9021L63.9126 65.6936L63.9663 65.8009L63.4028 66.3443L62.5039 65.9015L61.9673 66.1162L61.6721 66.948L61.6386 67.062L60.8605 67.0419L60.5385 66.0894L60.0019 65.8613L59.2103 66.2436L59.103 66.2973L58.5597 65.7271L59.0024 64.8283L58.7877 64.2849L57.956 63.9898L57.8419 63.9562L57.862 63.1781L58.8213 62.8494L59.0493 62.3128L58.667 61.5213L58.6133 61.4206L59.1768 60.884L60.0757 61.3334L60.6257 61.1389L60.9074 60.3474L60.9477 60.3071L61.7191 60.3273L62.0478 61.206L62.5844 61.367L63.376 60.9846L63.4833 60.931L63.7784 61.2395L64.0199 61.4944L63.973 61.5816L63.5638 62.3933L63.7583 62.9366L64.5498 63.2184L64.5901 63.2586L64.5767 64.0434ZM61.2764 64.7008C61.8801 64.7142 62.3765 64.2246 62.3899 63.6276C62.4033 63.0238 61.9203 62.5207 61.3166 62.514C60.7129 62.5006 60.2098 62.9903 60.2031 63.594C60.1897 64.191 60.6727 64.6941 61.2764 64.7008Z" fill="url(#paint2_linear_1495_1477)"/>
<path fill-rule="evenodd" clip-rule="evenodd" d="M65.7305 62.7958H75.3228V61.1255H65.7305V62.7958Z" fill="#50E6FF"/>
<path fill-rule="evenodd" clip-rule="evenodd" d="M65.7305 65.6937H75.3228V64.0234H65.7305V65.6937Z" fill="#CEF885"/>
<path fill-rule="evenodd" clip-rule="evenodd" d="M65.7305 62.7958H69.7686V61.1255H65.7305V62.7958Z" fill="url(#paint3_linear_1495_1477)"/>
<path fill-rule="evenodd" clip-rule="evenodd" d="M65.7305 65.6937H72.1231V64.0234H65.7305V65.6937Z" fill="url(#paint4_linear_1495_1477)"/>
<path d="M66.5946 51.7067C68.2726 51.7067 69.6321 50.3472 69.6321 48.6692C69.6321 46.9911 68.2726 45.6316 66.5946 45.6316C64.9166 45.6316 63.557 46.9911 63.557 48.6692C63.557 50.3472 64.9166 51.7067 66.5946 51.7067Z" fill="url(#paint5_linear_1495_1477)"/>
<path d="M68.0276 47.1992L65.7617 49.4651L65.088 48.7915L64.6471 49.2447L65.7739 50.3715L68.493 47.6647L68.0276 47.1992Z" fill="#50E6FF"/>
<g filter="url(#filter2_ddddd_1495_1477)">
<path d="M66.5823 40.3281C61.977 40.3281 58.229 44.0638 58.229 48.6814C58.229 53.299 61.9647 57.0347 66.5823 57.0347C71.1999 57.0347 74.9356 53.299 74.9356 48.6814C74.9111 44.0638 71.1876 40.3281 66.5823 40.3281ZM66.5823 52.5764C64.4389 52.5764 62.6874 50.8249 62.6874 48.6814C62.6874 46.538 64.4389 44.7865 66.5823 44.7865C68.7257 44.7865 70.4772 46.538 70.4772 48.6814C70.4772 50.8249 68.7257 52.5764 66.5823 52.5764Z" fill="url(#paint6_linear_1495_1477)"/>
</g>
<path d="M66.57 44.7865L66.5455 40.3281C63.6182 40.3404 61.0338 41.8592 59.5518 44.1618L63.214 46.7217C63.8754 45.5704 65.137 44.7865 66.57 44.7865Z" fill="#50E6FF"/>
<path d="M62.6874 48.6812C62.6874 47.9708 62.8711 47.3094 63.2018 46.7338L59.5518 44.1616L59.5396 44.1984C58.7189 45.4967 58.229 47.0277 58.229 48.6812C58.229 49.906 58.4985 51.0696 58.9761 52.123L63.0426 50.3225C62.8098 49.8203 62.6874 49.2691 62.6874 48.6812Z" fill="#CEF885"/>
</g>
<defs>
<filter id="filter0_ddddd_1495_1477" x="45.017" y="31.5437" width="43.1307" height="60.4993" filterUnits="userSpaceOnUse" color-interpolation-filters="sRGB">
<feFlood flood-opacity="0" result="BackgroundImageFix"/>
<feColorMatrix in="SourceAlpha" type="matrix" values="0 0 0 0 0 0 0 0 0 0 0 0 0 0 0 0 0 0 127 0" result="hardAlpha"/>
<feOffset/>
<feColorMatrix type="matrix" values="0 0 0 0 0.054902 0 0 0 0 0.0901961 0 0 0 0 0.145098 0 0 0 0.1 0"/>
<feBlend mode="normal" in2="BackgroundImageFix" result="effect1_dropShadow_1495_1477"/>
<feColorMatrix in="SourceAlpha" type="matrix" values="0 0 0 0 0 0 0 0 0 0 0 0 0 0 0 0 0 0 127 0" result="hardAlpha"/>
<feOffset dy="1"/>
<feGaussianBlur stdDeviation="1"/>
<feColorMatrix type="matrix" values="0 0 0 0 0.054902 0 0 0 0 0.0901961 0 0 0 0 0.145098 0 0 0 0.1 0"/>
<feBlend mode="normal" in2="effect1_dropShadow_1495_1477" result="effect2_dropShadow_1495_1477"/>
<feColorMatrix in="SourceAlpha" type="matrix" values="0 0 0 0 0 0 0 0 0 0 0 0 0 0 0 0 0 0 127 0" result="hardAlpha"/>
<feOffset dy="3"/>
<feGaussianBlur stdDeviation="1.5"/>
<feColorMatrix type="matrix" values="0 0 0 0 0.054902 0 0 0 0 0.0901961 0 0 0 0 0.145098 0 0 0 0.09 0"/>
<feBlend mode="normal" in2="effect2_dropShadow_1495_1477" result="effect3_dropShadow_1495_1477"/>
<feColorMatrix in="SourceAlpha" type="matrix" values="0 0 0 0 0 0 0 0 0 0 0 0 0 0 0 0 0 0 127 0" result="hardAlpha"/>
<feOffset dy="7"/>
<feGaussianBlur stdDeviation="2"/>
<feColorMatrix type="matrix" values="0 0 0 0 0.054902 0 0 0 0 0.0901961 0 0 0 0 0.145098 0 0 0 0.05 0"/>
<feBlend mode="normal" in2="effect3_dropShadow_1495_1477" result="effect4_dropShadow_1495_1477"/>
<feColorMatrix in="SourceAlpha" type="matrix" values="0 0 0 0 0 0 0 0 0 0 0 0 0 0 0 0 0 0 127 0" result="hardAlpha"/>
<feOffset dy="12"/>
<feGaussianBlur stdDeviation="2.5"/>
<feColorMatrix type="matrix" values="0 0 0 0 0.054902 0 0 0 0 0.0901961 0 0 0 0 0.145098 0 0 0 0.01 0"/>
<feBlend mode="normal" in2="effect4_dropShadow_1495_1477" result="effect5_dropShadow_1495_1477"/>
<feBlend mode="normal" in="SourceGraphic" in2="effect5_dropShadow_1495_1477" result="shape"/>
</filter>
<filter id="filter1_ddddd_1495_1477" x="49.3621" y="34.7769" width="34.4404" height="49.6646" filterUnits="userSpaceOnUse" color-interpolation-filters="sRGB">
<feFlood flood-opacity="0" result="BackgroundImageFix"/>
<feColorMatrix in="SourceAlpha" type="matrix" values="0 0 0 0 0 0 0 0 0 0 0 0 0 0 0 0 0 0 127 0" result="hardAlpha"/>
<feOffset/>
<feColorMatrix type="matrix" values="0 0 0 0 0.054902 0 0 0 0 0.0901961 0 0 0 0 0.145098 0 0 0 0.1 0"/>
<feBlend mode="normal" in2="BackgroundImageFix" result="effect1_dropShadow_1495_1477"/>
<feColorMatrix in="SourceAlpha" type="matrix" values="0 0 0 0 0 0 0 0 0 0 0 0 0 0 0 0 0 0 127 0" result="hardAlpha"/>
<feOffset dy="1"/>
<feGaussianBlur stdDeviation="0.5"/>
<feColorMatrix type="matrix" values="0 0 0 0 0.054902 0 0 0 0 0.0901961 0 0 0 0 0.145098 0 0 0 0.1 0"/>
<feBlend mode="normal" in2="effect1_dropShadow_1495_1477" result="effect2_dropShadow_1495_1477"/>
<feColorMatrix in="SourceAlpha" type="matrix" values="0 0 0 0 0 0 0 0 0 0 0 0 0 0 0 0 0 0 127 0" result="hardAlpha"/>
<feOffset dy="2"/>
<feGaussianBlur stdDeviation="1"/>
<feColorMatrix type="matrix" values="0 0 0 0 0.054902 0 0 0 0 0.0901961 0 0 0 0 0.145098 0 0 0 0.09 0"/>
<feBlend mode="normal" in2="effect2_dropShadow_1495_1477" result="effect3_dropShadow_1495_1477"/>
<feColorMatrix in="SourceAlpha" type="matrix" values="0 0 0 0 0 0 0 0 0 0 0 0 0 0 0 0 0 0 127 0" result="hardAlpha"/>
<feOffset dy="6"/>
<feGaussianBlur stdDeviation="1.5"/>
<feColorMatrix type="matrix" values="0 0 0 0 0.054902 0 0 0 0 0.0901961 0 0 0 0 0.145098 0 0 0 0.05 0"/>
<feBlend mode="normal" in2="effect3_dropShadow_1495_1477" result="effect4_dropShadow_1495_1477"/>
<feColorMatrix in="SourceAlpha" type="matrix" values="0 0 0 0 0 0 0 0 0 0 0 0 0 0 0 0 0 0 127 0" result="hardAlpha"/>
<feOffset dy="10"/>
<feGaussianBlur stdDeviation="2"/>
<feColorMatrix type="matrix" values="0 0 0 0 0.054902 0 0 0 0 0.0901961 0 0 0 0 0.145098 0 0 0 0.01 0"/>
<feBlend mode="normal" in2="effect4_dropShadow_1495_1477" result="effect5_dropShadow_1495_1477"/>
<feBlend mode="normal" in="SourceGraphic" in2="effect5_dropShadow_1495_1477" result="shape"/>
</filter>
<filter id="filter2_ddddd_1495_1477" x="57.229" y="40.3281" width="18.7065" height="21.7065" filterUnits="userSpaceOnUse" color-interpolation-filters="sRGB">
<feFlood flood-opacity="0" result="BackgroundImageFix"/>
<feColorMatrix in="SourceAlpha" type="matrix" values="0 0 0 0 0 0 0 0 0 0 0 0 0 0 0 0 0 0 127 0" result="hardAlpha"/>
<feOffset/>
<feColorMatrix type="matrix" values="0 0 0 0 0 0 0 0 0 0 0 0 0 0 0 0 0 0 0.1 0"/>
<feBlend mode="normal" in2="BackgroundImageFix" result="effect1_dropShadow_1495_1477"/>
<feColorMatrix in="SourceAlpha" type="matrix" values="0 0 0 0 0 0 0 0 0 0 0 0 0 0 0 0 0 0 127 0" result="hardAlpha"/>
<feOffset/>
<feColorMatrix type="matrix" values="0 0 0 0 0 0 0 0 0 0 0 0 0 0 0 0 0 0 0.1 0"/>
<feBlend mode="normal" in2="effect1_dropShadow_1495_1477" result="effect2_dropShadow_1495_1477"/>
<feColorMatrix in="SourceAlpha" type="matrix" values="0 0 0 0 0 0 0 0 0 0 0 0 0 0 0 0 0 0 127 0" result="hardAlpha"/>
<feOffset dy="1"/>
<feGaussianBlur stdDeviation="0.5"/>
<feColorMatrix type="matrix" values="0 0 0 0 0 0 0 0 0 0 0 0 0 0 0 0 0 0 0.09 0"/>
<feBlend mode="normal" in2="effect2_dropShadow_1495_1477" result="effect3_dropShadow_1495_1477"/>
<feColorMatrix in="SourceAlpha" type="matrix" values="0 0 0 0 0 0 0 0 0 0 0 0 0 0 0 0 0 0 127 0" result="hardAlpha"/>
<feOffset dy="2"/>
<feGaussianBlur stdDeviation="0.5"/>
<feColorMatrix type="matrix" values="0 0 0 0 0 0 0 0 0 0 0 0 0 0 0 0 0 0 0.05 0"/>
<feBlend mode="normal" in2="effect3_dropShadow_1495_1477" result="effect4_dropShadow_1495_1477"/>
<feColorMatrix in="SourceAlpha" type="matrix" values="0 0 0 0 0 0 0 0 0 0 0 0 0 0 0 0 0 0 127 0" result="hardAlpha"/>
<feOffset dy="4"/>
<feGaussianBlur stdDeviation="0.5"/>
<feColorMatrix type="matrix" values="0 0 0 0 0 0 0 0 0 0 0 0 0 0 0 0 0 0 0.01 0"/>
<feBlend mode="normal" in2="effect4_dropShadow_1495_1477" result="effect5_dropShadow_1495_1477"/>
<feBlend mode="normal" in="SourceGraphic" in2="effect5_dropShadow_1495_1477" result="shape"/>
</filter>
<linearGradient id="paint0_linear_1495_1477" x1="24.8745" y1="8.99709" x2="99.781" y2="148.193" gradientUnits="userSpaceOnUse">
<stop offset="0.0001" stop-color="#50E6FF"/>
<stop offset="0.623265" stop-color="#0078D4"/>
</linearGradient>
<linearGradient id="paint1_linear_1495_1477" x1="2.49584" y1="-20.4206" x2="97.0868" y2="119.08" gradientUnits="userSpaceOnUse">
<stop stop-color="#007ED8"/>
<stop offset="0.7065" stop-color="#002D4C"/>
</linearGradient>
<linearGradient id="paint2_linear_1495_1477" x1="52.6484" y1="54.3159" x2="80.3464" y2="84.1055" gradientUnits="userSpaceOnUse">
<stop stop-color="#007ED8"/>
<stop offset="0.7065" stop-color="#002D4C"/>
</linearGradient>
<linearGradient id="paint3_linear_1495_1477" x1="56.937" y1="50.3285" x2="84.6349" y2="80.1181" gradientUnits="userSpaceOnUse">
<stop stop-color="#007ED8"/>
<stop offset="0.7065" stop-color="#002D4C"/>
</linearGradient>
<linearGradient id="paint4_linear_1495_1477" x1="56.1212" y1="51.0872" x2="83.8191" y2="80.8767" gradientUnits="userSpaceOnUse">
<stop stop-color="#007ED8"/>
<stop offset="0.7065" stop-color="#002D4C"/>
</linearGradient>
<linearGradient id="paint5_linear_1495_1477" x1="82.177" y1="51.1527" x2="39.7388" y2="44.3862" gradientUnits="userSpaceOnUse">
<stop stop-color="#007ED8"/>
<stop offset="0.7065" stop-color="#002D4C"/>
</linearGradient>
<linearGradient id="paint6_linear_1495_1477" x1="82.1752" y1="51.1648" x2="39.7369" y2="44.3982" gradientUnits="userSpaceOnUse">
<stop stop-color="#007ED8"/>
<stop offset="0.7065" stop-color="#002D4C"/>
</linearGradient>
<clipPath id="clip0_1495_1477">
<rect width="102" height="102" fill="white" transform="translate(0.0893555)"/>
</clipPath>
</defs>
</svg>
