<svg width="103" height="102" viewBox="0 0 103 102" fill="none" xmlns="http://www.w3.org/2000/svg">
<path d="M51.0892 97.351C25.4927 97.351 4.73816 76.6064 4.73816 50.9999C4.73816 25.3935 25.4927 4.64886 51.0892 4.64886C76.6858 4.64886 97.4403 25.4034 97.4403 50.9999C97.4403 76.5965 76.6858 97.351 51.0892 97.351Z" fill="url(#paint0_linear_1660_17077)"/>
<path fill-rule="evenodd" clip-rule="evenodd" d="M96.5395 51.0003C96.5395 76.1018 76.191 96.4503 51.0895 96.4503C25.988 96.4503 5.63949 76.1018 5.63949 51.0003C5.63949 25.8989 25.988 5.55035 51.0895 5.55035C76.191 5.55035 96.5395 25.8989 96.5395 51.0003ZM51.0895 1.84702C78.2407 1.84702 100.243 23.8492 100.243 51.0003C100.243 78.1515 78.2308 100.154 51.0895 100.154C23.9383 100.154 1.93616 78.1416 1.93616 51.0003C1.93616 23.8492 23.9383 1.84702 51.0895 1.84702Z" fill="#F2F1F0"/>
<path fill-rule="evenodd" clip-rule="evenodd" d="M93.7568 50.9999C93.7568 74.5666 74.6559 93.6675 51.0893 93.6675C27.5226 93.6675 8.42172 74.5666 8.42172 50.9999C8.42172 27.4332 27.5226 8.33237 51.0893 8.33237C74.6559 8.33237 93.7568 27.4332 93.7568 50.9999ZM51.0893 4.62903C76.6957 4.62903 97.4601 25.3934 97.4601 50.9999C97.4601 76.6064 76.6957 97.3708 51.0893 97.3708C25.4828 97.3708 4.71838 76.6064 4.71838 50.9999C4.71838 25.3934 25.4729 4.62903 51.0893 4.62903Z" fill="url(#paint1_linear_1660_17077)"/>
<path opacity="0.15" d="M49.1849 69.4945C49.7321 69.4945 50.1733 69.0533 50.1733 68.5061V35.8957H15.7261V68.5103C15.7261 69.0576 16.1673 69.4988 16.7145 69.4988H49.1849V69.4945Z" fill="#1F1D20"/>
<g filter="url(#filter0_d_1660_17077)">
<path d="M50.1691 35.8246V35.2901C50.1691 34.6283 49.6346 34.0938 48.9728 34.0938H16.9224C16.2606 34.0938 15.7261 34.6283 15.7261 35.2901V35.884V36.427V67.0986C15.7261 67.7604 16.2606 68.295 16.9224 68.295H48.9812C49.643 68.295 50.1776 67.7604 50.1776 67.0986V35.884C50.1776 35.8628 50.1691 35.8458 50.1691 35.8246Z" fill="white"/>
</g>
<path opacity="0.15" d="M85.4603 69.4945C86.0075 69.4945 86.4487 69.0533 86.4487 68.5061V35.8957H52.0015V68.5103C52.0015 69.0576 52.4427 69.4988 52.9899 69.4988H85.4603V69.4945Z" fill="#1F1D20"/>
<g filter="url(#filter1_d_1660_17077)">
<path d="M86.4445 35.8246V35.2901C86.4445 34.6283 85.91 34.0938 85.2482 34.0938H53.1978C52.536 34.0938 52.0015 34.6283 52.0015 35.2901V35.884V36.427V67.0986C52.0015 67.7604 52.536 68.295 53.1978 68.295H85.2566C85.9184 68.295 86.453 67.7604 86.453 67.0986V35.884C86.453 35.8628 86.4445 35.8458 86.4445 35.8246Z" fill="white"/>
</g>
<path d="M28.6149 40.8205C28.7725 40.3535 29.2105 40.0391 29.7034 40.0391H36.9204L29.4296 62.2341C29.272 62.7011 28.834 63.0155 28.3411 63.0155H22.7243C21.9384 63.0155 21.3845 62.244 21.6358 61.4994L28.6149 40.8205Z" fill="url(#paint2_linear_1660_17077)"/>
<path d="M40.1526 54.9741H28.7786C28.3007 54.9741 28.07 55.5595 28.4194 55.8856L35.7279 62.7069C35.9406 62.9055 36.2208 63.0159 36.5118 63.0159H42.9519L40.1526 54.9741Z" fill="#0078D4"/>
<path d="M36.9204 40.0391H28.8786L21.124 63.0156H29.1658L30.817 58.1233L36.0587 63.0156H42.9517L40.1524 54.9738H31.8799L36.9204 40.0391Z" fill="url(#paint3_linear_1660_17077)"/>
<path d="M38.9074 40.8205C38.7497 40.3535 38.3118 40.0391 37.8189 40.0391H29.7402H29.7771C30.27 40.0391 30.708 40.3535 30.8656 40.8205L37.8447 61.4994C38.096 62.244 37.5421 63.0155 36.7562 63.0155H36.6332H44.798C45.5839 63.0155 46.1378 62.244 45.8865 61.4994L38.9074 40.8205Z" fill="url(#paint4_linear_1660_17077)"/>
<g filter="url(#filter2_ddddd_1660_17077)">
<path d="M62.7261 81.178L53.8981 87.8873V84.1096H39.2202V78.2465H53.8981V74.4688L62.7261 81.178Z" fill="white"/>
</g>
<path d="M74.7159 44.3944L76.1681 42.9205V39.0625H71.6165V42.8989L73.0686 44.3727H73.0903V52.3489H71.6381V61.5821C71.6381 62.8392 72.6568 63.8579 73.9139 63.8579C75.171 63.8579 76.1897 62.8392 76.1897 61.5821V52.3489H74.6942L74.7159 44.3944Z" fill="#50E6FF"/>
<path d="M65.8943 58.2887V46.0644C67.3248 45.5225 68.3435 44.157 68.3435 42.5531C68.3435 41.0142 67.4115 39.6704 66.0677 39.1069V43.0083H63.0983V39.1069C61.7545 39.6704 60.8225 40.9926 60.8225 42.5531C60.8225 44.157 61.8412 45.5442 63.2717 46.0644V58.267C62.318 58.7438 61.6461 59.7408 61.6461 60.8896C61.6461 62.5152 62.9683 63.8156 64.5722 63.8156C66.1977 63.8156 67.4982 62.4935 67.4982 60.8896C67.5199 59.7408 66.8696 58.7655 65.8943 58.2887ZM64.5938 61.9083C64.0303 61.9083 63.5968 61.4531 63.5968 60.9113C63.5968 60.3477 64.052 59.9142 64.5938 59.9142C65.1357 59.9142 65.5909 60.3694 65.5909 60.9113C65.5909 61.4531 65.1357 61.9083 64.5938 61.9083Z" fill="#0078D4"/>
<defs>
<filter id="filter0_d_1660_17077" x="11.7261" y="32.0938" width="42.4515" height="42.2012" filterUnits="userSpaceOnUse" color-interpolation-filters="sRGB">
<feFlood flood-opacity="0" result="BackgroundImageFix"/>
<feColorMatrix in="SourceAlpha" type="matrix" values="0 0 0 0 0 0 0 0 0 0 0 0 0 0 0 0 0 0 127 0" result="hardAlpha"/>
<feOffset dy="2"/>
<feGaussianBlur stdDeviation="2"/>
<feComposite in2="hardAlpha" operator="out"/>
<feColorMatrix type="matrix" values="0 0 0 0 0 0 0 0 0 0 0 0 0 0 0 0 0 0 0.25 0"/>
<feBlend mode="normal" in2="BackgroundImageFix" result="effect1_dropShadow_1660_17077"/>
<feBlend mode="normal" in="SourceGraphic" in2="effect1_dropShadow_1660_17077" result="shape"/>
</filter>
<filter id="filter1_d_1660_17077" x="48.0015" y="32.0938" width="42.4515" height="42.2012" filterUnits="userSpaceOnUse" color-interpolation-filters="sRGB">
<feFlood flood-opacity="0" result="BackgroundImageFix"/>
<feColorMatrix in="SourceAlpha" type="matrix" values="0 0 0 0 0 0 0 0 0 0 0 0 0 0 0 0 0 0 127 0" result="hardAlpha"/>
<feOffset dy="2"/>
<feGaussianBlur stdDeviation="2"/>
<feComposite in2="hardAlpha" operator="out"/>
<feColorMatrix type="matrix" values="0 0 0 0 0 0 0 0 0 0 0 0 0 0 0 0 0 0 0.25 0"/>
<feBlend mode="normal" in2="BackgroundImageFix" result="effect1_dropShadow_1660_17077"/>
<feBlend mode="normal" in="SourceGraphic" in2="effect1_dropShadow_1660_17077" result="shape"/>
</filter>
<filter id="filter2_ddddd_1660_17077" x="36.2202" y="73.4688" width="29.5059" height="24.4186" filterUnits="userSpaceOnUse" color-interpolation-filters="sRGB">
<feFlood flood-opacity="0" result="BackgroundImageFix"/>
<feColorMatrix in="SourceAlpha" type="matrix" values="0 0 0 0 0 0 0 0 0 0 0 0 0 0 0 0 0 0 127 0" result="hardAlpha"/>
<feOffset/>
<feColorMatrix type="matrix" values="0 0 0 0 0 0 0 0 0 0 0 0 0 0 0 0 0 0 0.1 0"/>
<feBlend mode="normal" in2="BackgroundImageFix" result="effect1_dropShadow_1660_17077"/>
<feColorMatrix in="SourceAlpha" type="matrix" values="0 0 0 0 0 0 0 0 0 0 0 0 0 0 0 0 0 0 127 0" result="hardAlpha"/>
<feOffset/>
<feGaussianBlur stdDeviation="0.5"/>
<feColorMatrix type="matrix" values="0 0 0 0 0 0 0 0 0 0 0 0 0 0 0 0 0 0 0.1 0"/>
<feBlend mode="normal" in2="effect1_dropShadow_1660_17077" result="effect2_dropShadow_1660_17077"/>
<feColorMatrix in="SourceAlpha" type="matrix" values="0 0 0 0 0 0 0 0 0 0 0 0 0 0 0 0 0 0 127 0" result="hardAlpha"/>
<feOffset dy="2"/>
<feGaussianBlur stdDeviation="1"/>
<feColorMatrix type="matrix" values="0 0 0 0 0 0 0 0 0 0 0 0 0 0 0 0 0 0 0.09 0"/>
<feBlend mode="normal" in2="effect2_dropShadow_1660_17077" result="effect3_dropShadow_1660_17077"/>
<feColorMatrix in="SourceAlpha" type="matrix" values="0 0 0 0 0 0 0 0 0 0 0 0 0 0 0 0 0 0 127 0" result="hardAlpha"/>
<feOffset dy="4"/>
<feGaussianBlur stdDeviation="1"/>
<feColorMatrix type="matrix" values="0 0 0 0 0 0 0 0 0 0 0 0 0 0 0 0 0 0 0.05 0"/>
<feBlend mode="normal" in2="effect3_dropShadow_1660_17077" result="effect4_dropShadow_1660_17077"/>
<feColorMatrix in="SourceAlpha" type="matrix" values="0 0 0 0 0 0 0 0 0 0 0 0 0 0 0 0 0 0 127 0" result="hardAlpha"/>
<feOffset dy="7"/>
<feGaussianBlur stdDeviation="1.5"/>
<feColorMatrix type="matrix" values="0 0 0 0 0 0 0 0 0 0 0 0 0 0 0 0 0 0 0.01 0"/>
<feBlend mode="normal" in2="effect4_dropShadow_1660_17077" result="effect5_dropShadow_1660_17077"/>
<feBlend mode="normal" in="SourceGraphic" in2="effect5_dropShadow_1660_17077" result="shape"/>
</filter>
<linearGradient id="paint0_linear_1660_17077" x1="25.3745" y1="9.49703" x2="100.281" y2="148.693" gradientUnits="userSpaceOnUse">
<stop offset="0.0001" stop-color="#50E6FF"/>
<stop offset="0.623265" stop-color="#0078D4"/>
</linearGradient>
<linearGradient id="paint1_linear_1660_17077" x1="15.6761" y1="11.2231" x2="83.2186" y2="98.6208" gradientUnits="userSpaceOnUse">
<stop stop-color="#007ED8"/>
<stop offset="0.915361" stop-color="#002D4C"/>
</linearGradient>
<linearGradient id="paint2_linear_1660_17077" x1="29.6537" y1="40.8344" x2="22.16" y2="62.9725" gradientUnits="userSpaceOnUse">
<stop stop-color="#114A8B"/>
<stop offset="1" stop-color="#0669BC"/>
</linearGradient>
<linearGradient id="paint3_linear_1660_17077" x1="35.6481" y1="54.98" x2="33.8714" y2="55.5861" gradientUnits="userSpaceOnUse">
<stop stop-opacity="0.3"/>
<stop offset="0.0711768" stop-opacity="0.2"/>
<stop offset="0.321031" stop-opacity="0.1"/>
<stop offset="0.623053" stop-opacity="0.05"/>
<stop offset="1" stop-opacity="0"/>
</linearGradient>
<linearGradient id="paint4_linear_1660_17077" x1="34.4051" y1="40.8344" x2="42.6308" y2="62.7497" gradientUnits="userSpaceOnUse">
<stop stop-color="#3CCBF4"/>
<stop offset="1" stop-color="#2892DF"/>
</linearGradient>
</defs>
</svg>
