<svg width="103" height="103" viewBox="0 0 103 103" fill="none" xmlns="http://www.w3.org/2000/svg">
<path d="M51.8256 98.6718C25.9756 98.6718 5.01562 77.7218 5.01562 51.8618C5.01562 26.0018 25.9756 5.05176 51.8256 5.05176C77.6756 5.05176 98.6356 26.0118 98.6356 51.8618C98.6356 77.7118 77.6756 98.6718 51.8256 98.6718Z" fill="url(#paint0_linear_1317_25466)"/>
<path fill-rule="evenodd" clip-rule="evenodd" d="M97.7255 51.8617C97.7255 77.2117 77.1755 97.7617 51.8255 97.7617C26.4755 97.7617 5.92555 77.2117 5.92555 51.8617C5.92555 26.5117 26.4755 5.96169 51.8255 5.96169C77.1755 5.96169 97.7255 26.5117 97.7255 51.8617ZM51.8255 2.22168C79.2455 2.22168 101.466 24.4417 101.466 51.8617C101.466 79.2817 79.2355 101.502 51.8255 101.502C24.4055 101.502 2.18555 79.2717 2.18555 51.8617C2.18555 24.4417 24.4055 2.22168 51.8255 2.22168Z" fill="#F2F1F0"/>
<path fill-rule="evenodd" clip-rule="evenodd" d="M94.9156 51.8617C94.9156 75.6617 75.6256 94.9517 51.8256 94.9517C28.0256 94.9517 8.73561 75.6617 8.73561 51.8617C8.73561 28.0617 28.0256 8.77174 51.8256 8.77174C75.6256 8.77174 94.9156 28.0617 94.9156 51.8617ZM51.8256 5.03174C77.6856 5.03174 98.6556 26.0017 98.6556 51.8617C98.6556 77.7217 77.6856 98.6918 51.8256 98.6918C25.9656 98.6918 4.99561 77.7217 4.99561 51.8617C4.99561 26.0017 25.9556 5.03174 51.8256 5.03174Z" fill="url(#paint1_linear_1317_25466)"/>
<g opacity="0.15">
<path opacity="0.15" d="M84.052 31.4351H19.5995C18.7304 31.4351 18.021 32.1445 18.021 33.0136V73.9837C18.021 74.8527 18.7304 75.5622 19.5995 75.5622H84.052C84.9211 75.5622 85.6305 74.8527 85.6305 73.9837V33.0136C85.6483 32.1445 84.9388 31.4351 84.052 31.4351Z" fill="#1F1D20"/>
</g>
<path d="M83.5376 31.4351H20.167V71.2701H83.5376V31.4351Z" fill="url(#paint2_linear_1317_25466)"/>
<path d="M80.5055 32.4287H47.4102L82.5983 64.6195V34.5216C82.5629 33.3687 81.6583 32.4287 80.5055 32.4287Z" fill="url(#paint3_linear_1317_25466)"/>
<path d="M84.052 29.6616H19.5995C18.7304 29.6616 18.021 30.3711 18.021 31.2401V72.2102C18.021 73.0793 18.7304 73.7887 19.5995 73.7887H84.052C84.9211 73.7887 85.6305 73.0793 85.6305 72.2102V31.2401C85.6483 30.3711 84.9388 29.6616 84.052 29.6616ZM81.6399 70.0642H22.0116V33.2088H81.6399V70.0642Z" fill="#282828"/>
<path d="M54.9642 45.9308C54.6599 44.352 54.1008 41.6136 51.2966 40.8899C48.5664 40.1909 46.8889 41.6136 46.1323 42.9129C46.4201 43.1678 46.6668 43.4392 46.8806 43.727C48.3937 45.7746 49.4628 47.7729 48.9447 50.7908C48.4349 53.8088 46.157 56.5554 43.0897 56.4814C40.6967 56.4239 39.2576 55.6015 39.0438 55.3466C39.0191 55.3219 39.0027 55.2561 38.978 55.1739C38.5175 56.0456 37.7527 57.5011 37.136 58.5537C37.0044 58.7757 36.8564 59.006 36.6919 59.2362C37.5389 59.9517 38.5257 60.552 39.529 60.9714C40.8529 61.5306 42.7607 62.0157 45.4498 61.5963C48.147 61.177 51.5351 59.3678 53.7225 55.5357C55.9181 51.6872 55.1945 47.1232 54.9642 45.9308Z" fill="url(#paint4_linear_1317_25466)"/>
<path d="M35.9352 58.4962C34.9566 57.4519 33.1968 54.5737 33.7971 51.2679C34.3974 47.9703 36.5355 46.0872 38.9038 45.7171C41.1076 45.3718 43.6158 46.7615 43.6158 46.7615L43.0566 48.0197C43.0566 48.0197 45.3345 44.3521 46.0499 43.0281C46.0746 42.987 46.091 42.9541 46.1157 42.913C44.3477 41.3259 41.2968 40.3062 38.8956 40.4295C36.1078 40.5693 34.0191 41.5232 32.3004 42.8472C30.5817 44.1711 28.3861 46.6053 27.6707 50.5278C26.947 54.4503 28.0161 57.1476 28.4108 58.1673C28.8055 59.187 29.4058 60.8646 31.8481 61.4649C33.9451 61.9829 35.672 60.6261 36.6999 59.2199C36.4286 58.9896 36.1736 58.7512 35.9352 58.4962Z" fill="url(#paint5_linear_1317_25466)"/>
<path d="M38.9122 45.7173C36.5439 46.0874 34.4058 47.9705 33.7973 51.2681C33.197 54.5657 34.9568 57.4439 35.9353 58.4964C36.1738 58.7514 36.4287 58.9899 36.7001 59.2201C36.8646 58.9899 37.0126 58.7596 37.1442 58.5376C37.7527 57.485 38.5257 56.0294 38.9862 55.1578C38.8135 54.4423 38.7066 52.0082 38.7066 52.0082L39.3809 54.4012C39.3809 54.4012 39.2247 54.6973 38.9862 55.1578C39.0109 55.2482 39.0273 55.3058 39.052 55.3305C39.1013 55.3962 39.2411 55.4949 39.4467 55.6183L43.2953 46.589C42.5305 46.2354 40.6309 45.446 38.9122 45.7173Z" fill="url(#paint6_linear_1317_25466)"/>
<path d="M46.8807 43.7189C46.6669 43.4311 46.4202 43.1597 46.1324 42.9048C46.1077 42.9459 46.0913 42.9788 46.0666 43.0199C45.6143 43.8587 44.5371 45.6267 43.8052 46.8191L39.1919 55.5688L41.2066 56.2513C41.7411 56.3664 42.3743 56.4569 43.0898 56.4733C46.1571 56.5391 48.435 53.8007 48.9448 50.7828C49.4547 47.7648 48.3856 45.7665 46.8807 43.7189Z" fill="url(#paint7_linear_1317_25466)"/>
<path d="M41.3706 56.0047C44.0911 56.0047 46.2964 53.8067 46.2964 51.0954C46.2964 48.384 44.0911 46.186 41.3706 46.186C38.6502 46.186 36.4448 48.384 36.4448 51.0954C36.4448 53.8067 38.6502 56.0047 41.3706 56.0047Z" fill="url(#paint8_linear_1317_25466)"/>
<rect x="64.7129" y="36.4438" width="10.5935" height="2.30685" fill="#9FE6A0"/>
<rect x="64.7129" y="41.1543" width="10.5935" height="2.30685" fill="#7AE67E"/>
<rect x="64.7129" y="45.8696" width="10.5935" height="2.30685" fill="#59D671"/>
<rect x="64.7129" y="60.4155" width="10.5935" height="2.30685" fill="#078443"/>
<path d="M64.7129 65.127H75.3064V67.4338H64.7129V65.127Z" fill="#074A28"/>
<rect x="64.7129" y="51.1865" width="10.5935" height="2.30685" fill="#0D9134"/>
<rect x="61.6157" y="36.4438" width="2.33797" height="2.30685" fill="#9FE6A0"/>
<rect x="61.6157" y="41.1538" width="2.33797" height="2.30685" fill="#7AE67E"/>
<rect x="61.6157" y="45.8696" width="2.33797" height="2.30685" fill="#59D671"/>
<rect x="61.6157" y="60.4155" width="2.33797" height="2.30685" fill="#078443"/>
<path d="M61.6157 65.1265H63.9537V67.4333H61.6157V65.1265Z" fill="#074A28"/>
<rect x="61.6157" y="51.187" width="2.33797" height="2.30685" fill="#0D9134"/>
<path opacity="0.15" d="M89.5142 62.5524C89.8333 62.5524 90.0905 62.2952 90.0905 61.9762V42.9658H70.0093V61.9786C70.0093 62.2977 70.2665 62.5549 70.5855 62.5549H89.5142V62.5524Z" fill="#1F1D20"/>
<g filter="url(#filter0_d_1317_25466)">
<path d="M90.088 43.1364V42.8248C90.088 42.439 89.7764 42.1274 89.3906 42.1274H70.7067C70.3209 42.1274 70.0093 42.439 70.0093 42.8248V43.1711V43.4876V61.3678C70.0093 61.7536 70.3209 62.0652 70.7067 62.0652H89.3955C89.7813 62.0652 90.0929 61.7536 90.0929 61.3678V43.1711C90.0929 43.1587 90.088 43.1488 90.088 43.1364Z" fill="white"/>
</g>
<path d="M79.5287 44.5788L75.7386 51.1706C75.5262 51.5463 75.7958 52.0201 76.2287 52.0201L78.1319 52.0201L78.1074 59.9106L81.9465 59.9106C81.9628 59.6983 81.9628 59.8045 81.971 59.9106L81.9873 59.9106L81.9873 52.0201L83.8742 52.0201C84.3071 52.0201 84.5767 51.5545 84.3643 51.1788L80.6396 44.5869C80.3945 44.154 79.7819 44.154 79.5287 44.5788Z" fill="url(#paint9_linear_1317_25466)"/>
<defs>
<filter id="filter0_d_1317_25466" x="66.0093" y="42.1274" width="28.0835" height="27.9375" filterUnits="userSpaceOnUse" color-interpolation-filters="sRGB">
<feFlood flood-opacity="0" result="BackgroundImageFix"/>
<feColorMatrix in="SourceAlpha" type="matrix" values="0 0 0 0 0 0 0 0 0 0 0 0 0 0 0 0 0 0 127 0" result="hardAlpha"/>
<feOffset dy="4"/>
<feGaussianBlur stdDeviation="2"/>
<feComposite in2="hardAlpha" operator="out"/>
<feColorMatrix type="matrix" values="0 0 0 0 0 0 0 0 0 0 0 0 0 0 0 0 0 0 0.25 0"/>
<feBlend mode="normal" in2="BackgroundImageFix" result="effect1_dropShadow_1317_25466"/>
<feBlend mode="normal" in="SourceGraphic" in2="effect1_dropShadow_1317_25466" result="shape"/>
</filter>
<linearGradient id="paint0_linear_1317_25466" x1="59.347" y1="-48.3049" x2="66.4273" y2="111.095" gradientUnits="userSpaceOnUse">
<stop offset="0.474" stop-color="#50E6FF"/>
<stop offset="1" stop-color="#0078D4"/>
</linearGradient>
<linearGradient id="paint1_linear_1317_25466" x1="3.25601" y1="-19.7609" x2="98.7835" y2="121.121" gradientUnits="userSpaceOnUse">
<stop stop-color="#007ED8"/>
<stop offset="0.7065" stop-color="#002D4C"/>
</linearGradient>
<linearGradient id="paint2_linear_1317_25466" x1="48.7694" y1="67.5603" x2="54.0594" y2="39.7961" gradientUnits="userSpaceOnUse">
<stop offset="0.3831" stop-color="#D2EBFF"/>
<stop offset="1" stop-color="#F0FFFD"/>
</linearGradient>
<linearGradient id="paint3_linear_1317_25466" x1="92.2553" y1="100.035" x2="97.6284" y2="42.1808" gradientUnits="userSpaceOnUse">
<stop offset="0.3831" stop-color="#D2EBFF"/>
<stop offset="1" stop-color="#F0FFFD"/>
</linearGradient>
<linearGradient id="paint4_linear_1317_25466" x1="43.8368" y1="43.0275" x2="46.973" y2="58.0112" gradientUnits="userSpaceOnUse">
<stop offset="0.045" stop-color="#58D570"/>
<stop offset="0.9625" stop-color="#088D30"/>
</linearGradient>
<linearGradient id="paint5_linear_1317_25466" x1="29.3124" y1="42.292" x2="39.9056" y2="53.7912" gradientUnits="userSpaceOnUse">
<stop offset="0.0625" stop-color="#0D8851"/>
<stop offset="0.4775" stop-color="#0A6339"/>
<stop offset="0.8775" stop-color="#043D1F"/>
</linearGradient>
<linearGradient id="paint6_linear_1317_25466" x1="32.5932" y1="42.9428" x2="40.8168" y2="54.2328" gradientUnits="userSpaceOnUse">
<stop stop-color="#0A904E"/>
<stop offset="0.4325" stop-color="#088748"/>
<stop offset="0.8575" stop-color="#02632E"/>
<stop offset="0.9775" stop-color="#024D24"/>
</linearGradient>
<linearGradient id="paint7_linear_1317_25466" x1="43.8691" y1="43.8404" x2="44.2873" y2="57.3606" gradientUnits="userSpaceOnUse">
<stop stop-color="#0A904E"/>
<stop offset="0.4125" stop-color="#037737"/>
<stop offset="0.8425" stop-color="#01622B"/>
<stop offset="1" stop-color="#00210F"/>
</linearGradient>
<linearGradient id="paint8_linear_1317_25466" x1="38.2472" y1="46.3921" x2="45.0073" y2="56.5671" gradientUnits="userSpaceOnUse">
<stop offset="0.0925" stop-color="#A3E6A4"/>
<stop offset="0.9075" stop-color="#6AE66F"/>
</linearGradient>
<linearGradient id="paint9_linear_1317_25466" x1="78.9805" y1="43.5376" x2="83.5606" y2="63.5363" gradientUnits="userSpaceOnUse">
<stop offset="0.045" stop-color="#58D570"/>
<stop offset="0.9625" stop-color="#088D30"/>
</linearGradient>
</defs>
</svg>
