<svg width="187" height="155" viewBox="0 0 187 155" fill="none" xmlns="http://www.w3.org/2000/svg">
<path d="M23.6943 135.642L6.78518 25.3034C5.2062 14.9601 13.311 5.68604 23.7742 5.87591L164.134 8.35431C175.167 8.35431 183.621 18.148 182.022 29.061L166.842 132.644C165.593 141.199 158.247 147.535 149.603 147.535H36.8658C30.0702 147.535 24.3838 142.398 23.6943 135.642Z" fill="url(#paint0_linear)"/>
<path d="M160.436 8.34473C171.479 8.34473 180.423 17.289 180.423 28.3318C180.423 29.2812 180.353 30.2206 180.223 31.16L165.943 131.096C164.533 140.939 156.099 148.254 146.155 148.254H40.9132C30.9696 148.254 22.5351 140.939 21.126 131.096L6.84521 31.16C5.28621 20.2371 12.8813 10.1136 23.8143 8.5446C24.7537 8.41468 25.6931 8.34473 26.6424 8.34473H160.436ZM160.436 13.3415H26.6424C25.9329 13.3415 25.2234 13.3915 24.5238 13.4914C16.429 14.6507 10.7827 22.0659 11.762 30.1407L11.802 30.4605L26.0828 130.396C27.1221 137.671 33.2782 143.098 40.5934 143.268H40.9232H146.165C153.511 143.268 159.757 137.941 160.956 130.726L161.006 130.396L175.287 30.4605C175.386 29.7609 175.436 29.0514 175.436 28.3418C175.436 20.1671 168.891 13.5214 160.756 13.3515L160.436 13.3415Z" fill="#752375"/>
<path d="M146.155 153.251H40.9134C34.8972 153.251 29.091 151.082 24.5439 147.145C19.9969 143.207 17.0288 137.761 16.1793 131.805L1.89853 31.8693C0.949144 25.2635 2.63805 18.6878 6.64547 13.3412C10.6529 8.00465 16.4891 4.54688 23.0949 3.5975C24.2641 3.4276 25.4533 3.34766 26.6326 3.34766H160.426C167.102 3.34766 173.378 5.94598 178.095 10.6629C182.812 15.3799 185.41 21.6558 185.41 28.3315C185.41 29.5108 185.33 30.7 185.16 31.8693L170.88 131.805C170.03 137.761 167.062 143.207 162.515 147.145C157.978 151.082 152.172 153.251 146.155 153.251ZM26.6426 8.34443C25.7032 8.34443 24.7438 8.41439 23.8144 8.5443C18.5278 9.30381 13.8508 12.072 10.6529 16.3393C7.45495 20.6065 6.10582 25.8731 6.85533 31.1597L21.1361 131.095C21.8157 135.862 24.1941 140.219 27.8318 143.367C31.4695 146.515 36.1165 148.254 40.9234 148.254H146.165C150.972 148.254 155.629 146.515 159.257 143.367C162.895 140.219 165.263 135.862 165.953 131.095L180.233 31.1597C180.363 30.2303 180.433 29.2809 180.433 28.3315C180.433 22.995 178.355 17.9682 174.577 14.2007C170.8 10.4331 165.783 8.34443 160.446 8.34443H26.6426V8.34443Z" fill="white"/>
<path d="M157.498 97.5473V86.7242L146.435 82.8567L143.717 75.5115L149.153 64.1088V62.9496L145.656 59.4718L141.578 54.8348H140.029L129.156 60.6311L121.781 58.5025L116.924 46.3203H106.251L102.564 57.3332L94.4088 60.6211L81.797 54.625L74.2318 62.1601V63.5092L79.8582 74.3322L76.5603 82.447L63.5587 87.2839V98.1069H65.1077L76.5603 101.974L79.6683 109.32L73.8421 121.882L81.4072 129.617H82.9562L93.6293 124.2L101.194 127.288L105.851 140.24H116.724V138.691L120.412 127.098L127.787 124.01L140.599 130.006L148.164 122.471V120.922L142.728 110.099L144.866 102.564L157.498 97.5473ZM111.298 106.711C103.213 105.842 97.0971 99.3461 97.0971 91.6111C97.0971 83.8761 103.213 77.3803 111.298 76.5108C115.525 76.4609 119.593 78.0199 122.601 80.838C125.609 83.6562 127.298 87.5037 127.298 91.5112C127.348 95.5585 125.689 99.446 122.671 102.314C119.663 105.182 115.565 106.761 111.298 106.711Z" fill="black"/>
<path d="M157.498 97.5473V86.7242L146.435 82.8567L143.717 75.5115L149.153 64.1088V62.9496L145.656 59.4718L141.578 54.8348H140.029L129.156 60.6311L121.781 58.5025L116.924 46.3203H106.251L102.564 57.3332L94.4088 60.6211L81.797 54.625L74.2318 62.1601V63.5092L79.8582 74.3322L76.5603 82.447L63.5587 87.2839V98.1069H65.1077L76.5603 101.974L79.6683 109.32L73.8421 121.882L81.4072 129.617H82.9562L93.6293 124.2L101.194 127.288L105.851 140.24H116.724V138.691L120.412 127.098L127.787 124.01L140.599 130.006L148.164 122.471V120.922L142.728 110.099L144.866 102.564L157.498 97.5473ZM111.298 106.711C103.213 105.842 97.0971 99.3461 97.0971 91.6111C97.0971 83.8761 103.213 77.3803 111.298 76.5108C115.525 76.4609 119.593 78.0199 122.601 80.838C125.609 83.6562 127.298 87.5037 127.298 91.5112C127.348 95.5585 125.689 99.446 122.671 102.314C119.663 105.182 115.565 106.761 111.298 106.711Z" fill="url(#paint1_linear)"/>
<path d="M111.947 108.95C121.38 108.95 129.026 101.303 129.026 91.871C129.026 82.4385 121.38 74.792 111.947 74.792C102.515 74.792 94.8683 82.4385 94.8683 91.871C94.8683 101.303 102.515 108.95 111.947 108.95Z" fill="white"/>
<path d="M78.7888 52.8266L79.8182 46.3408L73.5622 42.9729L72.6328 38.316L76.97 32L77.0799 31.3005L75.3211 28.882L73.3223 25.7141L72.3929 25.5642L65.3375 28.0026L61.1202 26.0339L59.3713 18.2789L52.9755 17.2695L49.7176 23.5155L44.5209 24.7147L37.5354 19.9278L32.2888 23.7254L32.1589 24.5348L34.5074 31.5503L31.7592 36.0974L23.5145 37.7563L22.4851 44.2421L23.4145 44.392L29.9103 47.7898L31.0696 52.4868L26.3926 59.4623L30.1902 64.8089L31.1196 64.9588L38.0251 62.7302L42.2624 65.2985L43.8214 73.4933L50.3272 74.5226L50.4771 73.5932L53.7849 66.9974L58.4919 65.8482L65.5973 70.6551L70.8439 66.8575L70.9938 65.9281L68.7653 58.9327L70.764 54.6154L78.7888 52.8266ZM50.2572 53.9359C45.5003 52.6467 42.4523 48.1796 43.1818 43.5526C43.9113 38.9256 48.1886 35.6077 53.1154 35.8575C55.6537 36.2273 57.9423 37.5465 59.4713 39.5152C61.0003 41.4839 61.6499 43.9523 61.2701 46.3508C60.9203 48.7792 59.5512 50.9578 57.4726 52.3769C55.4039 53.806 52.8056 54.3656 50.2572 53.9359Z" fill="black"/>
<path d="M78.7888 52.8266L79.8182 46.3408L73.5622 42.9729L72.6328 38.316L76.97 32L77.0799 31.3005L75.3211 28.882L73.3223 25.7141L72.3929 25.5642L65.3375 28.0026L61.1202 26.0339L59.3713 18.2789L52.9755 17.2695L49.7176 23.5155L44.5209 24.7147L37.5354 19.9278L32.2888 23.7254L32.1589 24.5348L34.5074 31.5503L31.7592 36.0974L23.5145 37.7563L22.4851 44.2421L23.4145 44.392L29.9103 47.7898L31.0696 52.4868L26.3926 59.4623L30.1902 64.8089L31.1196 64.9588L38.0251 62.7302L42.2624 65.2985L43.8214 73.4933L50.3272 74.5226L50.4771 73.5932L53.7849 66.9974L58.4919 65.8482L65.5973 70.6551L70.8439 66.8575L70.9938 65.9281L68.7653 58.9327L70.764 54.6154L78.7888 52.8266ZM50.2572 53.9359C45.5003 52.6467 42.4523 48.1796 43.1818 43.5526C43.9113 38.9256 48.1886 35.6077 53.1154 35.8575C55.6537 36.2273 57.9423 37.5465 59.4713 39.5152C61.0003 41.4839 61.6499 43.9523 61.2701 46.3508C60.9203 48.7792 59.5512 50.9578 57.4726 52.3769C55.4039 53.806 52.8056 54.3656 50.2572 53.9359Z" fill="url(#paint2_linear)"/>
<path d="M52.046 55.4645C57.764 55.4645 62.3994 50.8291 62.3994 45.1111C62.3994 39.3932 57.764 34.7578 52.046 34.7578C46.3281 34.7578 41.6927 39.3932 41.6927 45.1111C41.6927 50.8291 46.3281 55.4645 52.046 55.4645Z" fill="white"/>
<path d="M113.437 73.4531L109.149 69.0359C108.57 68.4363 107.59 68.4563 107.041 69.0859L88.9423 89.7626C88.1329 90.682 88.1329 92.0611 88.9423 92.9905L106.881 113.607C107.56 114.377 108.76 114.377 109.439 113.607L114.796 107.431L115.385 75.6117L113.437 73.4531Z" fill="url(#paint3_linear)"/>
<path d="M134.513 88.8539L116.675 69.3465C115.905 68.517 114.596 68.507 113.816 69.3165L105.582 77.831C104.682 78.7604 104.672 80.2195 105.552 81.1589L113.996 90.223C114.616 90.8926 114.616 91.9219 113.996 92.5815L105.512 101.746C104.642 102.685 104.662 104.144 105.552 105.063L113.816 113.638C114.606 114.447 115.915 114.437 116.685 113.608L134.533 93.9506C135.842 92.5215 135.832 90.303 134.513 88.8539Z" fill="url(#paint4_linear)"/>
<path d="M135.362 93.0509L127.398 101.885C126.798 102.555 125.749 102.575 125.129 101.925L117.124 93.7504C115.825 92.4313 115.825 90.3126 117.114 88.9735L124.969 80.8587C125.599 80.2092 126.638 80.2291 127.248 80.8987L135.372 89.8529C136.182 90.7623 136.182 92.1415 135.362 93.0509Z" fill="url(#paint5_linear)"/>
<defs>
<linearGradient id="paint0_linear" x1="94.4037" y1="5.86932" x2="94.4037" y2="147.537" gradientUnits="userSpaceOnUse">
<stop stop-color="#D561C6"/>
<stop offset="1" stop-color="#AC429C"/>
</linearGradient>
<linearGradient id="paint1_linear" x1="110.521" y1="36.9939" x2="110.521" y2="140.271" gradientUnits="userSpaceOnUse">
<stop stop-color="white"/>
<stop offset="1" stop-color="#CBCBCB"/>
</linearGradient>
<linearGradient id="paint2_linear" x1="56.3296" y1="11.9661" x2="46.5328" y2="73.8204" gradientUnits="userSpaceOnUse">
<stop stop-color="white"/>
<stop offset="1" stop-color="#CBCBCB"/>
</linearGradient>
<linearGradient id="paint3_linear" x1="100.732" y1="70.2925" x2="104.053" y2="109.305" gradientUnits="userSpaceOnUse">
<stop stop-color="#A23093"/>
<stop offset="1" stop-color="#692266"/>
</linearGradient>
<linearGradient id="paint4_linear" x1="104.864" y1="91.4901" x2="135.508" y2="91.4901" gradientUnits="userSpaceOnUse">
<stop stop-color="#E184C4"/>
<stop offset="1" stop-color="#D76EBC"/>
</linearGradient>
<linearGradient id="paint5_linear" x1="116.145" y1="91.3921" x2="135.976" y2="91.3921" gradientUnits="userSpaceOnUse">
<stop stop-color="#E89BCA"/>
<stop offset="1" stop-color="#E591C8"/>
</linearGradient>
</defs>
</svg>
