<svg width="103" height="103" viewBox="0 0 103 103" fill="none" xmlns="http://www.w3.org/2000/svg">
<path d="M51.1469 98.5193C25.2969 98.5193 4.33691 77.5694 4.33691 51.7094C4.33691 25.8493 25.2969 4.89935 51.1469 4.89935C76.9969 4.89935 97.9569 25.8594 97.9569 51.7094C97.9569 77.5594 76.9969 98.5193 51.1469 98.5193Z" fill="url(#paint0_linear_1310_1670)"/>
<path fill-rule="evenodd" clip-rule="evenodd" d="M97.0468 51.7095C97.0468 77.0595 76.4968 97.6095 51.1468 97.6095C25.7968 97.6095 5.24684 77.0595 5.24684 51.7095C5.24684 26.3595 25.7968 5.80946 51.1468 5.80946C76.4968 5.80946 97.0468 26.3595 97.0468 51.7095ZM51.1468 2.06946C78.5668 2.06946 100.787 24.2895 100.787 51.7095C100.787 79.1295 78.5568 101.349 51.1468 101.349C23.7268 101.349 1.50684 79.1195 1.50684 51.7095C1.50684 24.2895 23.7268 2.06946 51.1468 2.06946Z" fill="#F2F1F0"/>
<path fill-rule="evenodd" clip-rule="evenodd" d="M94.2364 51.7093C94.2364 75.5093 74.9464 94.7993 51.1464 94.7993C27.3464 94.7993 8.05641 75.5093 8.05641 51.7093C8.05641 27.9093 27.3464 8.61934 51.1464 8.61934C74.9464 8.61934 94.2364 27.9093 94.2364 51.7093ZM51.1464 4.87933C77.0064 4.87933 97.9764 25.8493 97.9764 51.7093C97.9764 77.5693 77.0064 98.5394 51.1464 98.5394C25.2864 98.5394 4.31641 77.5693 4.31641 51.7093C4.31641 25.8493 25.2764 4.87933 51.1464 4.87933Z" fill="url(#paint1_linear_1310_1670)"/>
<path opacity="0.15" d="M58.16 73.4476C58.8181 73.4476 59.3486 72.9171 59.3486 72.259V33.046H17.9268V72.2641C17.9268 72.9222 18.4573 73.4527 19.1153 73.4527H58.16V73.4476Z" fill="#1F1D20"/>
<g filter="url(#filter0_d_1310_1670)">
<path d="M59.3435 33.3978V32.7551C59.3435 31.9593 58.7008 31.3165 57.905 31.3165H19.3653C18.5695 31.3165 17.9268 31.9593 17.9268 32.7551V33.4692V34.1222V71.004C17.9268 71.7998 18.5695 72.4425 19.3653 72.4425H57.9152C58.711 72.4425 59.3537 71.7998 59.3537 71.004V33.4692C59.3537 33.4437 59.3435 33.4233 59.3435 33.3978Z" fill="white"/>
</g>
<path fill-rule="evenodd" clip-rule="evenodd" d="M62.415 38.16C62.415 37.8838 62.6389 37.66 62.915 37.66H69.3501V38.66H63.415V65.2943H69.3391V66.2943H62.915C62.6389 66.2943 62.415 66.0705 62.415 65.7943V38.16Z" fill="white"/>
<path fill-rule="evenodd" clip-rule="evenodd" d="M53.5488 50.5984H63.0141V51.5984H53.5488V50.5984Z" fill="white"/>
<path opacity="0.2" d="M84.1334 51.4549C84.6671 51.4549 85.102 51.02 85.102 50.4863V32.8669H66.0527V50.4797C66.0527 51.0134 66.4876 51.4483 67.0213 51.4483L84.1334 51.4549Z" fill="#1F1D21"/>
<g filter="url(#filter1_d_1310_1670)">
<path d="M85.102 32.5635V32.267C85.102 31.898 84.8054 31.6081 84.443 31.6081H66.7116C66.3492 31.6081 66.0527 31.9046 66.0527 32.267V32.5965V32.893V49.86C66.0527 50.229 66.3492 50.5189 66.7116 50.5189H84.4365C84.8054 50.5189 85.0954 50.2224 85.0954 49.86V32.5965C85.1085 32.5833 85.102 32.5767 85.102 32.5635Z" fill="white"/>
</g>
<path opacity="0.2" d="M84.1334 73.1612C84.6671 73.1612 85.102 72.7263 85.102 72.1926V54.5732H66.0527V72.186C66.0527 72.7198 66.4876 73.1546 67.0213 73.1546L84.1334 73.1612Z" fill="#1F1D21"/>
<g filter="url(#filter2_d_1310_1670)">
<path d="M85.102 54.27V53.9735C85.102 53.6045 84.8054 53.3146 84.443 53.3146H66.7116C66.3492 53.3146 66.0527 53.6111 66.0527 53.9735V54.3029V54.5995V71.5665C66.0527 71.9355 66.3492 72.2254 66.7116 72.2254H84.4365C84.8054 72.2254 85.0954 71.9289 85.0954 71.5665V54.3029C85.1085 54.2898 85.102 54.2832 85.102 54.27Z" fill="white"/>
</g>
<path d="M55.03 46.0489C54.6561 44.1088 53.969 40.7439 50.5233 39.8546C47.1685 38.9957 45.1071 40.7439 44.1775 42.3404C44.5311 42.6537 44.8343 42.9871 45.097 43.3408C46.9563 45.8569 48.2699 48.3124 47.6333 52.0208C47.0068 55.7293 44.2078 59.1043 40.4387 59.0133C37.4982 58.9426 35.7298 57.9321 35.4671 57.6189C35.4368 57.5886 35.4166 57.5077 35.3863 57.4067C34.8204 58.4778 33.8807 60.2663 33.1228 61.5598C32.9611 61.8326 32.7792 62.1155 32.5771 62.3985C33.6179 63.2776 34.8305 64.0152 36.0633 64.5306C37.6902 65.2177 40.0345 65.8139 43.3388 65.2985C46.6531 64.7832 50.8163 62.5601 53.5042 57.8513C56.2022 53.1222 55.313 47.5141 55.03 46.0489Z" fill="url(#paint2_linear_1310_1670)"/>
<path d="M31.6473 61.4889C30.4448 60.2056 28.2824 56.6689 29.02 52.6068C29.7577 48.5547 32.3849 46.2407 35.2951 45.786C38.0032 45.3616 41.0852 47.0693 41.0852 47.0693L40.398 48.6154C40.398 48.6154 43.1971 44.1086 44.0762 42.4817C44.1065 42.4312 44.1267 42.3908 44.157 42.3403C41.9845 40.39 38.2356 39.1371 35.285 39.2886C31.8595 39.4604 29.2929 40.6326 27.1809 42.2594C25.069 43.8863 22.3711 46.8773 21.4919 51.6973C20.6027 56.5173 21.9163 59.8317 22.4014 61.0847C22.8864 62.3377 23.6241 64.3991 26.6252 65.1367C29.2019 65.7733 31.3239 64.106 32.587 62.3781C32.2536 62.0952 31.9403 61.8021 31.6473 61.4889Z" fill="url(#paint3_linear_1310_1670)"/>
<path d="M35.3052 45.7861C32.395 46.2408 29.7678 48.5548 29.02 52.6069C28.2823 56.6589 30.4448 60.1956 31.6472 61.489C31.9403 61.8022 32.2535 62.0953 32.587 62.3782C32.7891 62.0953 32.971 61.8123 33.1327 61.5395C33.8804 60.2461 34.8303 58.4575 35.3961 57.3864C35.1839 56.5073 35.0526 53.5163 35.0526 53.5163L35.8812 56.4568C35.8812 56.4568 35.6892 56.8206 35.3961 57.3864C35.4264 57.4976 35.4467 57.5683 35.477 57.5986C35.5376 57.6795 35.7094 57.8007 35.962 57.9523L40.691 46.8572C39.7513 46.4227 37.4171 45.4527 35.3052 45.7861Z" fill="url(#paint4_linear_1310_1670)"/>
<path d="M45.0964 43.3306C44.8337 42.9769 44.5306 42.6434 44.1769 42.3302C44.1466 42.3807 44.1264 42.4211 44.0961 42.4717C43.5403 43.5024 42.2166 45.6749 41.3172 47.1401L35.6484 57.8916L38.1241 58.7303C38.7809 58.8718 39.559 58.9829 40.4381 59.0031C44.2072 59.084 47.0062 55.7191 47.6327 52.0106C48.2592 48.3021 46.9456 45.8467 45.0964 43.3306Z" fill="url(#paint5_linear_1310_1670)"/>
<path d="M35.042 53.5264C35.042 53.5264 35.1734 56.5174 35.3856 57.3965C35.6786 56.8407 35.8706 56.4669 35.8706 56.4669L35.042 53.5264Z" stroke="black" stroke-miterlimit="10"/>
<path d="M38.3262 58.4271C41.6691 58.4271 44.379 55.7262 44.379 52.3945C44.379 49.0628 41.6691 46.3619 38.3262 46.3619C34.9834 46.3619 32.2734 49.0628 32.2734 52.3945C32.2734 55.7262 34.9834 58.4271 38.3262 58.4271Z" fill="url(#paint6_linear_1310_1670)"/>
<path d="M81.8468 34.6915H72.3015C71.9721 34.6915 71.7051 34.9586 71.7051 35.288V37.9455L77.2369 39.5725L82.4433 37.9455V35.288C82.4433 34.9586 82.1763 34.6915 81.8468 34.6915Z" fill="#41A5EE"/>
<path d="M82.4433 37.9454H71.7051V41.1994L77.2369 42.1756L82.4433 41.1994V37.9454Z" fill="#2B7CD3"/>
<path d="M71.7051 41.1996V44.4536L76.9115 45.1044L82.4433 44.4536V41.1996H71.7051Z" fill="#185ABD"/>
<path d="M72.3015 47.7076H81.8468C82.1763 47.7076 82.4433 47.4405 82.4433 47.1111V44.4536H71.7051V47.1111C71.7051 47.4405 71.9721 47.7076 72.3015 47.7076Z" fill="#103F91"/>
<path opacity="0.1" d="M75.6642 37.2948H71.7051V45.4298H75.6642C75.9932 45.4287 76.2596 45.1623 76.2607 44.8334V37.8913C76.2596 37.5623 75.9932 37.2959 75.6642 37.2948Z" fill="black"/>
<path opacity="0.2" d="M75.3388 37.6201H71.7051V45.7551H75.3388C75.6678 45.754 75.9342 45.4876 75.9353 45.1586V38.2165C75.9342 37.8875 75.6678 37.6211 75.3388 37.6201Z" fill="black"/>
<path opacity="0.2" d="M75.3388 37.6201H71.7051V45.1043H75.3388C75.6678 45.1032 75.9342 44.8368 75.9353 44.5078V38.2165C75.9342 37.8875 75.6678 37.6211 75.3388 37.6201Z" fill="black"/>
<path opacity="0.2" d="M75.0134 37.6201H71.7051V45.1043H75.0134C75.3424 45.1032 75.6088 44.8368 75.6099 44.5078V38.2165C75.6088 37.8875 75.3424 37.6211 75.0134 37.6201Z" fill="black"/>
<path d="M69.0476 37.6201H75.0135C75.3429 37.6201 75.61 37.8871 75.61 38.2165V44.1824C75.61 44.5118 75.3429 44.7789 75.0135 44.7789H69.0476C68.7182 44.7789 68.4512 44.5118 68.4512 44.1824V38.2165C68.4512 37.8871 68.7182 37.6201 69.0476 37.6201Z" fill="url(#paint7_linear_1310_1670)"/>
<path d="M70.8992 42.1946C70.911 42.2867 70.9188 42.3668 70.9223 42.4354H70.936C70.9412 42.3703 70.9521 42.2919 70.9685 42.2002C70.985 42.1084 70.9999 42.0308 71.0131 41.9675L71.6405 39.2608H72.4517L73.1025 41.9268C73.1403 42.0926 73.1674 42.2606 73.1836 42.4299H73.1943C73.2064 42.2659 73.229 42.1029 73.262 41.9418L73.781 39.2595H74.5193L73.6076 43.1383H72.7449L72.1267 40.5696C72.1088 40.4957 72.0883 40.3991 72.0658 40.2803C72.0434 40.1615 72.0294 40.0746 72.0238 40.02H72.0131C72.0059 40.0831 71.9919 40.1768 71.9711 40.3011C71.9503 40.4254 71.9336 40.5174 71.921 40.5771L71.3398 43.1376H70.4625L69.5459 39.2608H70.2976L70.8628 41.973C70.8755 42.0287 70.8875 42.1029 70.8992 42.1946Z" fill="white"/>
<path d="M77.1468 62.694L71.6719 61.7278V68.8669C71.6719 69.1929 71.9362 69.4572 72.2622 69.4572H81.7094C82.0355 69.4572 82.2997 69.1929 82.2997 68.8669V66.2366L77.1468 62.694Z" fill="#185C37"/>
<path d="M77.1468 56.5751H72.2622C71.9362 56.5751 71.6719 56.8394 71.6719 57.1654V59.7956L77.1468 63.0162L80.0454 63.9824L82.2997 63.0162V59.7956L77.1468 56.5751Z" fill="#21A366"/>
<path d="M71.6719 59.7957H77.1468V63.0162H71.6719V59.7957Z" fill="#107C41"/>
<path opacity="0.1" d="M75.5903 59.1516H71.6719V67.203H75.5903C75.9159 67.2019 76.1796 66.9382 76.1807 66.6126V59.7419C76.1796 59.4163 75.9159 59.1526 75.5903 59.1516Z" fill="black"/>
<path opacity="0.2" d="M75.2683 59.4734H71.6719V67.5248H75.2683C75.5939 67.5237 75.8576 67.2601 75.8586 66.9345V60.0637C75.8576 59.7381 75.5939 59.4744 75.2683 59.4734Z" fill="black"/>
<path opacity="0.2" d="M75.2683 59.4734H71.6719V66.8807H75.2683C75.5939 66.8796 75.8576 66.616 75.8586 66.2904V60.0637C75.8576 59.7381 75.5939 59.4744 75.2683 59.4734Z" fill="black"/>
<path opacity="0.2" d="M74.9462 59.4734H71.6719V66.8807H74.9462C75.2718 66.8796 75.5355 66.616 75.5366 66.2904V60.0637C75.5355 59.7381 75.2718 59.4744 74.9462 59.4734Z" fill="black"/>
<path d="M69.0415 59.4734H74.9461C75.2721 59.4734 75.5364 59.7377 75.5364 60.0637V65.9683C75.5364 66.2943 75.2721 66.5586 74.9461 66.5586H69.0415C68.7155 66.5586 68.4512 66.2943 68.4512 65.9683V60.0637C68.4512 59.7377 68.7155 59.4734 69.0415 59.4734Z" fill="url(#paint8_linear_1310_1670)"/>
<path d="M70.2793 64.9349L71.5211 63.0106L70.3833 61.097H71.2986L71.9195 62.3208C71.9769 62.4371 72.0161 62.5234 72.0374 62.5804H72.0455C72.0863 62.4876 72.1292 62.3976 72.1743 62.3102L72.838 61.0976H73.6783L72.5115 63L73.7079 64.9349H72.8139L72.0967 63.5916C72.0629 63.5345 72.0342 63.4745 72.011 63.4123H72.0004C71.9794 63.4732 71.9515 63.5315 71.9173 63.5862L71.1788 64.9349H70.2793Z" fill="white"/>
<path d="M81.7091 56.5751H77.1465V59.7956H82.2994V57.1654C82.2994 56.8394 82.0351 56.5751 81.7091 56.5751Z" fill="#33C481"/>
<path d="M77.1465 63.0162H82.2994V66.2368H77.1465V63.0162Z" fill="#107C41"/>
<defs>
<filter id="filter0_d_1310_1670" x="13.9268" y="29.3165" width="49.4268" height="49.126" filterUnits="userSpaceOnUse" color-interpolation-filters="sRGB">
<feFlood flood-opacity="0" result="BackgroundImageFix"/>
<feColorMatrix in="SourceAlpha" type="matrix" values="0 0 0 0 0 0 0 0 0 0 0 0 0 0 0 0 0 0 127 0" result="hardAlpha"/>
<feOffset dy="2"/>
<feGaussianBlur stdDeviation="2"/>
<feComposite in2="hardAlpha" operator="out"/>
<feColorMatrix type="matrix" values="0 0 0 0 0 0 0 0 0 0 0 0 0 0 0 0 0 0 0.25 0"/>
<feBlend mode="normal" in2="BackgroundImageFix" result="effect1_dropShadow_1310_1670"/>
<feBlend mode="normal" in="SourceGraphic" in2="effect1_dropShadow_1310_1670" result="shape"/>
</filter>
<filter id="filter1_d_1310_1670" x="62.0527" y="29.6081" width="27.0508" height="26.9108" filterUnits="userSpaceOnUse" color-interpolation-filters="sRGB">
<feFlood flood-opacity="0" result="BackgroundImageFix"/>
<feColorMatrix in="SourceAlpha" type="matrix" values="0 0 0 0 0 0 0 0 0 0 0 0 0 0 0 0 0 0 127 0" result="hardAlpha"/>
<feOffset dy="2"/>
<feGaussianBlur stdDeviation="2"/>
<feComposite in2="hardAlpha" operator="out"/>
<feColorMatrix type="matrix" values="0 0 0 0 0 0 0 0 0 0 0 0 0 0 0 0 0 0 0.25 0"/>
<feBlend mode="normal" in2="BackgroundImageFix" result="effect1_dropShadow_1310_1670"/>
<feBlend mode="normal" in="SourceGraphic" in2="effect1_dropShadow_1310_1670" result="shape"/>
</filter>
<filter id="filter2_d_1310_1670" x="62.0527" y="51.3146" width="27.0508" height="26.9108" filterUnits="userSpaceOnUse" color-interpolation-filters="sRGB">
<feFlood flood-opacity="0" result="BackgroundImageFix"/>
<feColorMatrix in="SourceAlpha" type="matrix" values="0 0 0 0 0 0 0 0 0 0 0 0 0 0 0 0 0 0 127 0" result="hardAlpha"/>
<feOffset dy="2"/>
<feGaussianBlur stdDeviation="2"/>
<feComposite in2="hardAlpha" operator="out"/>
<feColorMatrix type="matrix" values="0 0 0 0 0 0 0 0 0 0 0 0 0 0 0 0 0 0 0.25 0"/>
<feBlend mode="normal" in2="BackgroundImageFix" result="effect1_dropShadow_1310_1670"/>
<feBlend mode="normal" in="SourceGraphic" in2="effect1_dropShadow_1310_1670" result="shape"/>
</filter>
<linearGradient id="paint0_linear_1310_1670" x1="58.6683" y1="-48.4573" x2="65.7486" y2="110.942" gradientUnits="userSpaceOnUse">
<stop offset="0.474" stop-color="#50E6FF"/>
<stop offset="1" stop-color="#0078D4"/>
</linearGradient>
<linearGradient id="paint1_linear_1310_1670" x1="2.57681" y1="-19.9133" x2="98.1043" y2="120.968" gradientUnits="userSpaceOnUse">
<stop stop-color="#007ED8"/>
<stop offset="0.7065" stop-color="#002D4C"/>
</linearGradient>
<linearGradient id="paint2_linear_1310_1670" x1="41.3568" y1="42.4813" x2="45.2105" y2="60.8931" gradientUnits="userSpaceOnUse">
<stop offset="0.045" stop-color="#58D570"/>
<stop offset="0.9625" stop-color="#088D30"/>
</linearGradient>
<linearGradient id="paint3_linear_1310_1670" x1="23.5093" y1="41.5773" x2="36.5261" y2="55.7073" gradientUnits="userSpaceOnUse">
<stop offset="0.0625" stop-color="#0D8851"/>
<stop offset="0.4775" stop-color="#0A6339"/>
<stop offset="0.8775" stop-color="#043D1F"/>
</linearGradient>
<linearGradient id="paint4_linear_1310_1670" x1="27.5405" y1="42.3768" x2="37.6456" y2="56.2498" gradientUnits="userSpaceOnUse">
<stop stop-color="#0A904E"/>
<stop offset="0.4325" stop-color="#088748"/>
<stop offset="0.8575" stop-color="#02632E"/>
<stop offset="0.9775" stop-color="#024D24"/>
</linearGradient>
<linearGradient id="paint5_linear_1310_1670" x1="41.3957" y1="43.4799" x2="41.9096" y2="60.0933" gradientUnits="userSpaceOnUse">
<stop stop-color="#0A904E"/>
<stop offset="0.4125" stop-color="#037737"/>
<stop offset="0.8425" stop-color="#01622B"/>
<stop offset="1" stop-color="#00210F"/>
</linearGradient>
<linearGradient id="paint6_linear_1310_1670" x1="34.4882" y1="46.6152" x2="42.795" y2="59.1181" gradientUnits="userSpaceOnUse">
<stop offset="0.0925" stop-color="#A3E6A4"/>
<stop offset="0.9075" stop-color="#6AE66F"/>
</linearGradient>
<linearGradient id="paint7_linear_1310_1670" x1="69.6948" y1="37.154" x2="74.3664" y2="45.2449" gradientUnits="userSpaceOnUse">
<stop stop-color="#2368C4"/>
<stop offset="0.5" stop-color="#1A5DBE"/>
<stop offset="1" stop-color="#1146AC"/>
</linearGradient>
<linearGradient id="paint8_linear_1310_1670" x1="69.682" y1="59.0121" x2="74.3056" y2="67.0199" gradientUnits="userSpaceOnUse">
<stop stop-color="#18884F"/>
<stop offset="0.5" stop-color="#117E43"/>
<stop offset="1" stop-color="#0B6631"/>
</linearGradient>
</defs>
</svg>
