<svg width="103" height="103" viewBox="0 0 103 103" fill="none" xmlns="http://www.w3.org/2000/svg">
<path d="M51.1469 97.9423C25.2969 97.9423 4.33691 76.9923 4.33691 51.1323C4.33691 25.2723 25.2969 4.32227 51.1469 4.32227C76.9969 4.32227 97.9569 25.2823 97.9569 51.1323C97.9569 76.9823 76.9969 97.9423 51.1469 97.9423Z" fill="url(#paint0_linear_1310_1673)"/>
<path fill-rule="evenodd" clip-rule="evenodd" d="M97.0468 51.1324C97.0468 76.4824 76.4968 97.0324 51.1468 97.0324C25.7968 97.0324 5.24684 76.4824 5.24684 51.1324C5.24684 25.7824 25.7968 5.23244 51.1468 5.23244C76.4968 5.23244 97.0468 25.7824 97.0468 51.1324ZM51.1468 1.49243C78.5668 1.49243 100.787 23.7124 100.787 51.1324C100.787 78.5524 78.5568 100.772 51.1468 100.772C23.7268 100.772 1.50684 78.5424 1.50684 51.1324C1.50684 23.7124 23.7268 1.49243 51.1468 1.49243Z" fill="#F2F1F0"/>
<path fill-rule="evenodd" clip-rule="evenodd" d="M94.2364 51.1324C94.2364 74.9324 74.9464 94.2224 51.1464 94.2224C27.3464 94.2224 8.05641 74.9324 8.05641 51.1324C8.05641 27.3324 27.3464 8.04237 51.1464 8.04237C74.9464 8.04237 94.2364 27.3324 94.2364 51.1324ZM51.1464 4.30237C77.0064 4.30237 97.9764 25.2724 97.9764 51.1324C97.9764 76.9924 77.0064 97.9624 51.1464 97.9624C25.2864 97.9624 4.31641 76.9924 4.31641 51.1324C4.31641 25.2724 25.2764 4.30237 51.1464 4.30237Z" fill="url(#paint1_linear_1310_1673)"/>
<g opacity="0.15">
<path opacity="0.15" d="M83.3719 30.7056H18.9193C18.0503 30.7056 17.3408 31.415 17.3408 32.2841V73.2542C17.3408 74.1232 18.0503 74.8327 18.9193 74.8327H83.3719C84.2409 74.8327 84.9504 74.1232 84.9504 73.2542V32.2841C84.9681 31.415 84.2587 30.7056 83.3719 30.7056Z" fill="#1F1D20"/>
</g>
<path d="M82.857 30.7056H19.4863V70.5406H82.857V30.7056Z" fill="url(#paint2_linear_1310_1673)"/>
<path d="M79.8248 31.6989H46.7295L81.9177 63.8896V33.7917C81.8822 32.6389 80.9777 31.6989 79.8248 31.6989Z" fill="url(#paint3_linear_1310_1673)"/>
<path d="M83.3719 28.932H18.9193C18.0503 28.932 17.3408 29.6414 17.3408 30.5105V71.4806C17.3408 72.3497 18.0503 73.0591 18.9193 73.0591H83.3719C84.2409 73.0591 84.9504 72.3497 84.9504 71.4806V30.5105C84.9681 29.6414 84.2587 28.932 83.3719 28.932ZM80.9598 69.3346H21.3314V32.4792H80.9598V69.3346Z" fill="#282828"/>
<path d="M54.284 45.201C53.9798 43.6221 53.4206 40.8837 50.6164 40.1601C47.8863 39.4611 46.2087 40.8837 45.4521 42.183C45.74 42.4379 45.9867 42.7093 46.2005 42.9971C47.7136 45.0447 48.7826 47.043 48.2645 50.061C47.7547 53.079 45.4768 55.8256 42.4095 55.7516C40.0165 55.694 38.5774 54.8717 38.3636 54.6167C38.3389 54.5921 38.3225 54.5263 38.2978 54.444C37.8373 55.3157 37.0725 56.7713 36.4558 57.8238C36.3242 58.0459 36.1762 58.2761 36.0117 58.5064C36.8587 59.2218 37.8455 59.8221 38.8488 60.2415C40.1727 60.8007 42.0806 61.2859 44.7696 60.8665C47.4669 60.4471 50.8549 58.638 53.0423 54.8059C55.2379 50.9573 54.5143 46.3934 54.284 45.201Z" fill="url(#paint4_linear_1310_1673)"/>
<path d="M35.255 57.7663C34.2764 56.7219 32.5166 53.8437 33.1169 50.5379C33.7172 47.2404 35.8553 45.3572 38.2236 44.9872C40.4275 44.6418 42.9356 46.0315 42.9356 46.0315L42.3764 47.2897C42.3764 47.2897 44.6543 43.6221 45.3697 42.2981C45.3944 42.257 45.4108 42.2241 45.4355 42.183C43.6675 40.5959 40.6166 39.5762 38.2154 39.6995C35.4277 39.8393 33.3389 40.7932 31.6202 42.1172C29.9016 43.4412 27.7059 45.8753 26.9905 49.7978C26.2668 53.7204 27.3359 56.4176 27.7306 57.4373C28.1253 58.457 28.7256 60.1346 31.168 60.7349C33.2649 61.253 34.9918 59.8961 36.0197 58.4899C35.7484 58.2597 35.4935 58.0212 35.255 57.7663Z" fill="url(#paint5_linear_1310_1673)"/>
<path d="M38.232 44.987C35.8637 45.357 33.7256 47.2402 33.1171 50.5378C32.5168 53.8353 34.2766 56.7135 35.2552 57.7661C35.4936 58.021 35.7486 58.2595 36.0199 58.4898C36.1844 58.2595 36.3324 58.0293 36.464 57.8072C37.0725 56.7546 37.8455 55.2991 38.306 54.4274C38.1333 53.712 38.0264 51.2779 38.0264 51.2779L38.7008 53.6709C38.7008 53.6709 38.5445 53.9669 38.306 54.4274C38.3307 54.5179 38.3472 54.5754 38.3718 54.6001C38.4212 54.6659 38.561 54.7646 38.7665 54.8879L42.6151 45.8587C41.8503 45.5051 39.9507 44.7156 38.232 44.987Z" fill="url(#paint6_linear_1310_1673)"/>
<path d="M46.2006 42.9887C45.9868 42.7009 45.7401 42.4295 45.4522 42.1746C45.4276 42.2157 45.4111 42.2486 45.3865 42.2897C44.9342 43.1285 43.8569 44.8965 43.125 46.0889L38.5117 54.8385L40.5264 55.5211C41.061 55.6362 41.6942 55.7267 42.4096 55.7431C45.4769 55.8089 47.7548 53.0705 48.2646 50.0525C48.7745 47.0346 47.7054 45.0363 46.2006 42.9887Z" fill="url(#paint7_linear_1310_1673)"/>
<path d="M40.6904 55.2745C43.4109 55.2745 45.6162 53.0765 45.6162 50.3652C45.6162 47.6538 43.4109 45.4558 40.6904 45.4558C37.97 45.4558 35.7646 47.6538 35.7646 50.3652C35.7646 53.0765 37.97 55.2745 40.6904 55.2745Z" fill="url(#paint8_linear_1310_1673)"/>
<path d="M58.3252 56.1222V58.6487C58.3252 58.756 58.3679 58.859 58.4438 58.9349C58.5197 59.0108 58.6227 59.0535 58.73 59.0535H60.4665C60.5745 59.0535 60.6781 59.011 60.755 58.9353C60.832 58.8596 60.8761 58.7566 60.8778 58.6487V56.0374C60.8778 55.9491 60.8427 55.8644 60.7803 55.802C60.7179 55.7395 60.6332 55.7045 60.5449 55.7045H58.73C58.676 55.7053 58.6227 55.7168 58.5731 55.7383C58.5235 55.7597 58.4786 55.7907 58.441 55.8295C58.4035 55.8683 58.3739 55.9142 58.354 55.9644C58.3341 56.0146 58.3244 56.0682 58.3252 56.1222V56.1222Z" fill="#51E7FF"/>
<path d="M62.5756 53.4913C62.4683 53.4913 62.3653 53.5339 62.2894 53.6098C62.2135 53.6857 62.1709 53.7887 62.1709 53.896V58.6486C62.1709 58.756 62.2135 58.8589 62.2894 58.9348C62.3653 59.0107 62.4683 59.0534 62.5756 59.0534H64.3644C64.4724 59.0534 64.576 59.0109 64.653 58.9352C64.7299 58.8595 64.774 58.7565 64.7757 58.6486V53.8177C64.7757 53.7743 64.7671 53.7313 64.7503 53.6913C64.7334 53.6512 64.7087 53.615 64.6777 53.5846C64.6467 53.5542 64.61 53.5302 64.5697 53.5142C64.5293 53.4982 64.4861 53.4904 64.4427 53.4913H62.5756Z" fill="#2CB4EC"/>
<path d="M69.0054 49.8811H66.479C66.3716 49.8811 66.2687 49.9238 66.1928 49.9997C66.1169 50.0756 66.0742 50.1785 66.0742 50.2859V58.629C66.0742 58.737 66.1167 58.8406 66.1924 58.9176C66.2681 58.9945 66.371 59.0386 66.479 59.0403H69.0054C69.1145 59.0403 69.2191 58.997 69.2962 58.9199C69.3733 58.8427 69.4167 58.7381 69.4167 58.629V50.2859C69.415 50.1779 69.3709 50.075 69.294 49.9992C69.217 49.9235 69.1134 49.8811 69.0054 49.8811V49.8811Z" fill="#0F8CDC"/>
<path d="M74.1497 46.1339H71.1271C71.018 46.1339 70.9134 46.1772 70.8363 46.2544C70.7592 46.3315 70.7158 46.4361 70.7158 46.5452V58.6291C70.7158 58.7382 70.7592 58.8428 70.8363 58.9199C70.9134 58.997 71.018 59.0404 71.1271 59.0404H74.1497C74.2037 59.0404 74.2572 59.0297 74.3071 59.009C74.357 58.9884 74.4023 58.9581 74.4405 58.9199C74.4787 58.8817 74.509 58.8364 74.5297 58.7865C74.5503 58.7366 74.561 58.6831 74.561 58.6291V46.5452C74.561 46.4912 74.5503 46.4377 74.5297 46.3878C74.509 46.3379 74.4787 46.2926 74.4405 46.2544C74.4023 46.2162 74.357 46.1859 74.3071 46.1652C74.2572 46.1446 74.2037 46.1339 74.1497 46.1339V46.1339Z" fill="#0156B8"/>
<g filter="url(#filter0_d_1310_1673)">
<path d="M59.8207 52.5641L59.3506 52.3487L62.8759 45.964L67.5632 46.4275L72.4333 42.5889L72.8119 42.9284L67.7395 47.002L63.1697 46.5646L59.8207 52.5641Z" fill="url(#paint9_linear_1310_1673)"/>
</g>
<path d="M59.0632 53.6676C59.2841 53.7272 59.5177 53.7199 59.7345 53.6466C59.9513 53.5733 60.1415 53.4373 60.2809 53.2559C60.4203 53.0744 60.5027 52.8556 60.5176 52.6273C60.5325 52.3989 60.4793 52.1713 60.3646 51.9732C60.25 51.7752 60.0792 51.6156 59.8737 51.5147C59.6683 51.4139 59.4376 51.3763 59.2108 51.4068C58.984 51.4372 58.7713 51.5343 58.5998 51.6858C58.4282 51.8372 58.3055 52.0361 58.2472 52.2574C58.1693 52.5526 58.2115 52.8665 58.3644 53.1308C58.5173 53.395 58.7685 53.588 59.0632 53.6676V53.6676Z" fill="#51E7FF"/>
<path d="M67.2428 47.7919C67.389 47.8324 67.5418 47.8436 67.6923 47.8248C67.8428 47.806 67.9881 47.7575 68.1198 47.6822C68.2515 47.607 68.3669 47.5064 68.4596 47.3863C68.5522 47.2662 68.6201 47.1289 68.6594 46.9824C68.7199 46.7618 68.7137 46.5283 68.6414 46.3113C68.5691 46.0944 68.434 45.9038 68.2533 45.7636C68.0726 45.6234 67.8544 45.54 67.6263 45.524C67.3982 45.5079 67.1704 45.5599 66.9718 45.6734C66.7733 45.7868 66.6129 45.9566 66.5109 46.1613C66.4089 46.366 66.37 46.5964 66.399 46.8232C66.428 47.0501 66.5236 47.2632 66.6738 47.4356C66.8241 47.6081 67.0221 47.7321 67.2428 47.7919Z" fill="#0F8CDC"/>
<path d="M62.7324 47.4982C62.8786 47.5388 63.0314 47.5499 63.1819 47.5311C63.3324 47.5123 63.4776 47.4638 63.6093 47.3886C63.741 47.3133 63.8566 47.2127 63.9492 47.0926C64.0418 46.9725 64.1098 46.8352 64.1491 46.6887C64.2005 46.539 64.2206 46.3803 64.2082 46.2225C64.1958 46.0646 64.1511 45.9111 64.0769 45.7712C64.0026 45.6314 63.9005 45.5083 63.7767 45.4097C63.6529 45.311 63.5101 45.2387 63.3573 45.1975C63.2044 45.1562 63.0448 45.1469 62.8881 45.1699C62.7315 45.1929 62.5813 45.2479 62.4468 45.3314C62.3123 45.4149 62.1964 45.5252 62.1063 45.6554C62.0162 45.7855 61.9537 45.9328 61.9229 46.0881C61.8834 46.2338 61.8729 46.386 61.8922 46.5357C61.9115 46.6855 61.9602 46.83 62.0353 46.961C62.1105 47.0919 62.2108 47.2068 62.3304 47.299C62.45 47.3912 62.5866 47.4589 62.7324 47.4982V47.4982Z" fill="#2CB4EC"/>
<path d="M71.95 43.8163C72.1251 43.9129 72.3222 43.9628 72.5221 43.961C72.7221 43.9592 72.9182 43.9058 73.0915 43.8061C73.2648 43.7063 73.4095 43.5634 73.5114 43.3914C73.6134 43.2193 73.6692 43.0239 73.6735 42.8239C73.6736 42.6175 73.6194 42.4148 73.5163 42.236C73.4131 42.0572 73.2647 41.9087 73.086 41.8055C72.9109 41.7089 72.7138 41.659 72.5139 41.6608C72.3139 41.6626 72.1178 41.716 71.9445 41.8158C71.7711 41.9156 71.6265 42.0584 71.5246 42.2304C71.4226 42.4025 71.3668 42.5979 71.3625 42.7978C71.3589 43.0049 71.4117 43.2091 71.5152 43.3884C71.6187 43.5678 71.769 43.7157 71.95 43.8163Z" fill="#0156B8"/>
<defs>
<filter id="filter0_d_1310_1673" x="55.3506" y="40.5889" width="21.4609" height="17.9752" filterUnits="userSpaceOnUse" color-interpolation-filters="sRGB">
<feFlood flood-opacity="0" result="BackgroundImageFix"/>
<feColorMatrix in="SourceAlpha" type="matrix" values="0 0 0 0 0 0 0 0 0 0 0 0 0 0 0 0 0 0 127 0" result="hardAlpha"/>
<feOffset dy="2"/>
<feGaussianBlur stdDeviation="2"/>
<feComposite in2="hardAlpha" operator="out"/>
<feColorMatrix type="matrix" values="0 0 0 0 0 0 0 0 0 0 0 0 0 0 0 0 0 0 0.25 0"/>
<feBlend mode="normal" in2="BackgroundImageFix" result="effect1_dropShadow_1310_1673"/>
<feBlend mode="normal" in="SourceGraphic" in2="effect1_dropShadow_1310_1673" result="shape"/>
</filter>
<linearGradient id="paint0_linear_1310_1673" x1="58.6683" y1="-49.0344" x2="65.7486" y2="110.365" gradientUnits="userSpaceOnUse">
<stop offset="0.474" stop-color="#50E6FF"/>
<stop offset="1" stop-color="#0078D4"/>
</linearGradient>
<linearGradient id="paint1_linear_1310_1673" x1="2.57681" y1="-20.4902" x2="98.1043" y2="120.391" gradientUnits="userSpaceOnUse">
<stop stop-color="#007ED8"/>
<stop offset="0.7065" stop-color="#002D4C"/>
</linearGradient>
<linearGradient id="paint2_linear_1310_1673" x1="48.0888" y1="66.8308" x2="53.3788" y2="39.0666" gradientUnits="userSpaceOnUse">
<stop offset="0.3831" stop-color="#D2EBFF"/>
<stop offset="1" stop-color="#F0FFFD"/>
</linearGradient>
<linearGradient id="paint3_linear_1310_1673" x1="91.5746" y1="99.3055" x2="96.9477" y2="41.451" gradientUnits="userSpaceOnUse">
<stop offset="0.3831" stop-color="#D2EBFF"/>
<stop offset="1" stop-color="#F0FFFD"/>
</linearGradient>
<linearGradient id="paint4_linear_1310_1673" x1="43.1567" y1="42.2976" x2="46.2928" y2="57.2813" gradientUnits="userSpaceOnUse">
<stop offset="0.045" stop-color="#58D570"/>
<stop offset="0.9625" stop-color="#088D30"/>
</linearGradient>
<linearGradient id="paint5_linear_1310_1673" x1="28.6322" y1="41.562" x2="39.2254" y2="53.0612" gradientUnits="userSpaceOnUse">
<stop offset="0.0625" stop-color="#0D8851"/>
<stop offset="0.4775" stop-color="#0A6339"/>
<stop offset="0.8775" stop-color="#043D1F"/>
</linearGradient>
<linearGradient id="paint6_linear_1310_1673" x1="31.913" y1="42.2124" x2="40.1366" y2="53.5025" gradientUnits="userSpaceOnUse">
<stop stop-color="#0A904E"/>
<stop offset="0.4325" stop-color="#088748"/>
<stop offset="0.8575" stop-color="#02632E"/>
<stop offset="0.9775" stop-color="#024D24"/>
</linearGradient>
<linearGradient id="paint7_linear_1310_1673" x1="43.1889" y1="43.1102" x2="43.6071" y2="56.6303" gradientUnits="userSpaceOnUse">
<stop stop-color="#0A904E"/>
<stop offset="0.4125" stop-color="#037737"/>
<stop offset="0.8425" stop-color="#01622B"/>
<stop offset="1" stop-color="#00210F"/>
</linearGradient>
<linearGradient id="paint8_linear_1310_1673" x1="37.567" y1="45.6619" x2="44.3271" y2="55.8369" gradientUnits="userSpaceOnUse">
<stop offset="0.0925" stop-color="#A3E6A4"/>
<stop offset="0.9075" stop-color="#6AE66F"/>
</linearGradient>
<linearGradient id="paint9_linear_1310_1673" x1="115.77" y1="27.2715" x2="103.05" y2="76.4602" gradientUnits="userSpaceOnUse">
<stop offset="0.392445" stop-color="#2E76BC"/>
<stop offset="0.866761" stop-color="#4FC2EB"/>
</linearGradient>
</defs>
</svg>
