<svg width="103" height="102" viewBox="0 0 103 102" fill="none" xmlns="http://www.w3.org/2000/svg">
<g clip-path="url(#clip0_1646_6242)">
<path d="M51.0893 97.81C25.2393 97.81 4.2793 76.86 4.2793 51C4.2793 25.14 25.2393 4.19 51.0893 4.19C76.9393 4.19 97.8993 25.15 97.8993 51C97.8993 76.85 76.9393 97.81 51.0893 97.81Z" fill="url(#paint0_linear_1646_6242)"/>
<path fill-rule="evenodd" clip-rule="evenodd" d="M96.9893 51.0001C96.9893 76.3501 76.4393 96.9001 51.0893 96.9001C25.7393 96.9001 5.18934 76.3501 5.18934 51.0001C5.18934 25.6501 25.7393 5.10011 51.0893 5.10011C76.4393 5.10011 96.9893 25.6501 96.9893 51.0001ZM51.0893 1.36011C78.5093 1.36011 100.729 23.5801 100.729 51.0001C100.729 78.4201 78.4993 100.64 51.0893 100.64C23.6693 100.64 1.44934 78.4101 1.44934 51.0001C1.44934 23.5801 23.6693 1.36011 51.0893 1.36011Z" fill="#F2F1F0"/>
<path fill-rule="evenodd" clip-rule="evenodd" d="M83.3612 43.7632C79.2678 38.7132 73.0227 35.4932 66.017 35.4932C53.6969 35.4932 43.7188 45.4732 43.7188 57.7732C43.7188 59.6932 43.959 61.5632 44.4194 63.3432C39.9057 63.4632 36.2827 67.1532 36.2827 71.6932C36.2827 76.3132 40.0258 80.0532 44.6495 80.0532H82.9256C87.5393 80.0532 91.5589 74.1969 91.5589 69.5769C91.5589 64.9669 94.1369 65.6979 95.3351 62.6538L95.8596 56.9895C96.5602 55.2695 96.8675 57.3881 96.8675 55.4181C96.8675 47.2181 96.5419 42.9032 88.3252 42.9032C86.5838 42.9232 84.9124 43.2232 83.3612 43.7632Z" fill="url(#paint1_linear_1646_6242)"/>
<g filter="url(#filter0_biii_1646_6242)">
<path fill-rule="evenodd" clip-rule="evenodd" d="M83.3612 43.7632C79.2678 38.7132 73.0227 35.4932 66.017 35.4932C53.6969 35.4932 43.7188 45.4732 43.7188 57.7732C43.7188 59.6932 43.959 61.5632 44.4194 63.3432C39.9057 63.4632 36.2827 67.1532 36.2827 71.6932C36.2827 76.3132 40.0258 80.0532 44.6495 80.0532H82.9256C87.5393 80.0532 91.5589 74.1969 91.5589 69.5769C91.5589 64.9669 94.1369 65.6979 95.3351 62.6538L95.8596 56.9895C96.5602 55.2695 96.8675 57.3881 96.8675 55.4181C96.8675 47.2181 96.5419 42.9032 88.3252 42.9032C86.5838 42.9232 84.9124 43.2232 83.3612 43.7632Z" fill="white" fill-opacity="0.01"/>
</g>
<path fill-rule="evenodd" clip-rule="evenodd" d="M35.1315 45.3262C31.0381 40.2762 24.793 37.0562 17.7873 37.0562C12.8966 37.0027 7.16561 40.9035 6.29004 43.3714C6.29004 45.2914 8.82305 63.1262 9.28342 64.9062C11.2825 68.8024 15.6277 70.2198 15.6277 74.7598C19.9142 79.3059 19.0879 81.6162 23.7117 81.6162L54.0369 81.6162C58.6507 81.6162 62.4037 77.8762 62.4037 73.2562C62.4037 68.6462 58.6607 64.8962 54.0369 64.8962H53.8868C54.5873 63.1762 54.9677 61.2962 54.9677 59.3262C54.9677 51.1262 48.3122 44.4662 40.0955 44.4662C38.3541 44.4862 36.6827 44.7862 35.1315 45.3262Z" fill="url(#paint2_linear_1646_6242)"/>
<g filter="url(#filter1_i_1646_6242)">
<path fill-rule="evenodd" clip-rule="evenodd" d="M65.2434 63.8776C58.5166 55.5787 48.2537 50.2871 36.7408 50.2871C16.4946 50.2871 10.5433 57.7035 8.7124 63.5847C8.7124 66.7399 12.7829 72.8103 13.5394 75.7355C16.4245 79.6748 16.9235 79.7857 18.3106 82.6153C25.9669 88.4965 34.6804 95.099 42.2789 95.099L51.3233 95.6538C58.9053 95.6538 68.0791 93.2126 73.4426 89.7471C77.2893 86.1108 81.8944 84.0579 83.4727 81.7831H83.226C84.3773 78.9565 90.4388 76.1432 90.4388 72.9058C89.2181 69.9652 86.904 62.4643 73.4011 62.4643C70.5393 62.4972 67.7927 62.9902 65.2434 63.8776Z" fill="url(#paint3_linear_1646_6242)"/>
</g>
<g filter="url(#filter2_biii_1646_6242)">
<path fill-rule="evenodd" clip-rule="evenodd" d="M65.2434 63.8776C58.5166 55.5787 48.2537 50.2871 36.7408 50.2871C16.4946 50.2871 10.5433 57.7035 8.7124 63.5847C8.7124 66.7399 12.7829 72.8103 13.5394 75.7355C16.4245 79.6748 16.9235 79.7857 18.3106 82.6153C25.9669 88.4965 34.6804 95.099 42.2789 95.099L51.3233 95.6538C58.9053 95.6538 68.0791 93.2126 73.4426 89.7471C77.2893 86.1108 81.8944 84.0579 83.4727 81.7831H83.226C84.3773 78.9565 90.4388 76.1432 90.4388 72.9058C89.2181 69.9652 86.904 62.4643 73.4011 62.4643C70.5393 62.4972 67.7927 62.9902 65.2434 63.8776Z" fill="white" fill-opacity="0.01"/>
</g>
<path fill-rule="evenodd" clip-rule="evenodd" d="M94.1793 50.9999C94.1793 74.7999 74.8893 94.0899 51.0893 94.0899C27.2893 94.0899 7.99928 74.7999 7.99928 50.9999C7.99928 27.1999 27.2893 7.90993 51.0893 7.90993C74.8893 7.90993 94.1793 27.1999 94.1793 50.9999ZM51.0893 4.16992C76.9493 4.16992 97.9193 25.1399 97.9193 50.9999C97.9193 76.8599 76.9493 97.8299 51.0893 97.8299C25.2293 97.8299 4.25928 76.8599 4.25928 50.9999C4.25928 25.1399 25.2193 4.16992 51.0893 4.16992Z" fill="url(#paint4_linear_1646_6242)"/>
<g filter="url(#filter3_d_1646_6242)">
<path d="M86.3657 33.4095V32.6124C86.3657 32.134 86.1755 31.6753 85.8372 31.337C85.499 30.9988 85.0403 30.8086 84.5619 30.8086H18.2838C18.0469 30.8086 17.8131 30.8552 17.5942 30.9458C17.3754 31.0365 17.1759 31.1695 17.0084 31.337C16.8409 31.5045 16.7085 31.7033 16.6179 31.9221C16.5272 32.141 16.48 32.3755 16.48 32.6124V70.5051C16.48 70.7413 16.5271 70.9752 16.6179 71.1933C16.7087 71.4113 16.8421 71.6093 17.0098 71.7756C17.1775 71.942 17.3768 72.0736 17.5956 72.1628C17.8143 72.2519 18.0476 72.2967 18.2838 72.2949H84.5755C84.8106 72.2949 85.0439 72.2486 85.261 72.1587C85.4781 72.0687 85.6751 71.9371 85.8413 71.7709C86.0075 71.6047 86.1392 71.4073 86.2291 71.1902C86.3191 70.973 86.3657 70.7401 86.3657 70.5051V33.4095V33.4095Z" fill="white"/>
</g>
<path fill-rule="evenodd" clip-rule="evenodd" d="M45.7363 52.4064L35.782 62.6291L25.3027 52.4249C22.5501 49.7446 22.4914 45.3336 25.1716 42.5723L25.4043 42.3333C28.0846 39.5807 32.4956 39.522 35.2569 42.2022L45.7363 52.4064Z" fill="url(#paint5_linear_1646_6242)"/>
<path fill-rule="evenodd" clip-rule="evenodd" d="M35.7384 62.5772L25.8786 52.9763L36.0828 42.4969C38.7631 39.7443 43.1741 39.6857 45.9354 42.3659L46.1744 42.5986C48.927 45.2789 48.9857 49.6899 46.3055 52.4512L36.4459 62.5678C36.2564 62.7713 35.9419 62.7755 35.7384 62.5772Z" fill="url(#paint6_linear_1646_6242)"/>
<path fill-rule="evenodd" clip-rule="evenodd" d="M45.7363 52.4064L35.782 62.6291L25.3027 52.4249C22.5501 49.7446 22.4914 45.3336 25.1716 42.5723L25.4043 42.3333C28.0846 39.5807 32.4956 39.522 35.2569 42.2022L45.7363 52.4064Z" fill="url(#paint7_linear_1646_6242)"/>
<path fill-rule="evenodd" clip-rule="evenodd" d="M35.7384 62.5772L25.8786 52.9763L36.0828 42.4969C38.7631 39.7443 43.1741 39.6857 45.9354 42.3659L46.1744 42.5986C48.927 45.2789 48.9857 49.6899 46.3055 52.4512L36.4459 62.5678C36.2564 62.7713 35.9419 62.7755 35.7384 62.5772Z" fill="url(#paint8_linear_1646_6242)"/>
<path d="M40.603 49.1243L37.1629 49.1701L37.1171 45.73L34.3135 45.7673L34.3592 49.2074L30.9192 49.2532L30.9565 52.0568L34.3965 52.0111L34.4423 55.4511L37.246 55.4138L37.2002 51.9738L40.6403 51.928L40.603 49.1243Z" fill="white"/>
<path d="M75.6448 42.8223H53.7349V44.6832H75.6448V42.8223Z" fill="#50E6FF"/>
<path d="M75.6448 47.9386H53.7349V49.7996H75.6448V47.9386Z" fill="#3BCAF4"/>
<path d="M78.9028 53.055H56.9928V54.916H78.9028V53.055Z" fill="#0078D4"/>
<path d="M75.6448 58.2034H53.7349V60.0644H75.6448V58.2034Z" fill="#092E4C"/>
</g>
<defs>
<filter id="filter0_biii_1646_6242" x="20.2827" y="19.4932" width="92.5847" height="76.56" filterUnits="userSpaceOnUse" color-interpolation-filters="sRGB">
<feFlood flood-opacity="0" result="BackgroundImageFix"/>
<feGaussianBlur in="BackgroundImageFix" stdDeviation="8"/>
<feComposite in2="SourceAlpha" operator="in" result="effect1_backgroundBlur_1646_6242"/>
<feBlend mode="normal" in="SourceGraphic" in2="effect1_backgroundBlur_1646_6242" result="shape"/>
<feColorMatrix in="SourceAlpha" type="matrix" values="0 0 0 0 0 0 0 0 0 0 0 0 0 0 0 0 0 0 127 0" result="hardAlpha"/>
<feOffset dx="1.5" dy="-1.5"/>
<feGaussianBlur stdDeviation="0.75"/>
<feComposite in2="hardAlpha" operator="arithmetic" k2="-1" k3="1"/>
<feColorMatrix type="matrix" values="0 0 0 0 0 0 0 0 0 0 0 0 0 0 0 0 0 0 0.1 0"/>
<feBlend mode="multiply" in2="shape" result="effect2_innerShadow_1646_6242"/>
<feColorMatrix in="SourceAlpha" type="matrix" values="0 0 0 0 0 0 0 0 0 0 0 0 0 0 0 0 0 0 127 0" result="hardAlpha"/>
<feOffset dx="2.5" dy="-2.5"/>
<feGaussianBlur stdDeviation="3"/>
<feComposite in2="hardAlpha" operator="arithmetic" k2="-1" k3="1"/>
<feColorMatrix type="matrix" values="0 0 0 0 0 0 0 0 0 0 0 0 0 0 0 0 0 0 0.1 0"/>
<feBlend mode="multiply" in2="effect2_innerShadow_1646_6242" result="effect3_innerShadow_1646_6242"/>
<feColorMatrix in="SourceAlpha" type="matrix" values="0 0 0 0 0 0 0 0 0 0 0 0 0 0 0 0 0 0 127 0" result="hardAlpha"/>
<feOffset dy="1.5"/>
<feGaussianBlur stdDeviation="1.25"/>
<feComposite in2="hardAlpha" operator="arithmetic" k2="-1" k3="1"/>
<feColorMatrix type="matrix" values="0 0 0 0 1 0 0 0 0 1 0 0 0 0 1 0 0 0 0.25 0"/>
<feBlend mode="normal" in2="effect3_innerShadow_1646_6242" result="effect4_innerShadow_1646_6242"/>
</filter>
<filter id="filter1_i_1646_6242" x="8.7124" y="50.2871" width="81.7263" height="49.3667" filterUnits="userSpaceOnUse" color-interpolation-filters="sRGB">
<feFlood flood-opacity="0" result="BackgroundImageFix"/>
<feBlend mode="normal" in="SourceGraphic" in2="BackgroundImageFix" result="shape"/>
<feColorMatrix in="SourceAlpha" type="matrix" values="0 0 0 0 0 0 0 0 0 0 0 0 0 0 0 0 0 0 127 0" result="hardAlpha"/>
<feOffset dy="4"/>
<feGaussianBlur stdDeviation="2"/>
<feComposite in2="hardAlpha" operator="arithmetic" k2="-1" k3="1"/>
<feColorMatrix type="matrix" values="0 0 0 0 1 0 0 0 0 1 0 0 0 0 1 0 0 0 0.25 0"/>
<feBlend mode="normal" in2="shape" result="effect1_innerShadow_1646_6242"/>
</filter>
<filter id="filter2_biii_1646_6242" x="-7.2876" y="34.2871" width="113.726" height="77.3667" filterUnits="userSpaceOnUse" color-interpolation-filters="sRGB">
<feFlood flood-opacity="0" result="BackgroundImageFix"/>
<feGaussianBlur in="BackgroundImageFix" stdDeviation="8"/>
<feComposite in2="SourceAlpha" operator="in" result="effect1_backgroundBlur_1646_6242"/>
<feBlend mode="normal" in="SourceGraphic" in2="effect1_backgroundBlur_1646_6242" result="shape"/>
<feColorMatrix in="SourceAlpha" type="matrix" values="0 0 0 0 0 0 0 0 0 0 0 0 0 0 0 0 0 0 127 0" result="hardAlpha"/>
<feOffset dx="1.5" dy="-1.5"/>
<feGaussianBlur stdDeviation="0.75"/>
<feComposite in2="hardAlpha" operator="arithmetic" k2="-1" k3="1"/>
<feColorMatrix type="matrix" values="0 0 0 0 0 0 0 0 0 0 0 0 0 0 0 0 0 0 0.1 0"/>
<feBlend mode="multiply" in2="shape" result="effect2_innerShadow_1646_6242"/>
<feColorMatrix in="SourceAlpha" type="matrix" values="0 0 0 0 0 0 0 0 0 0 0 0 0 0 0 0 0 0 127 0" result="hardAlpha"/>
<feOffset dx="2.5" dy="-2.5"/>
<feGaussianBlur stdDeviation="3"/>
<feComposite in2="hardAlpha" operator="arithmetic" k2="-1" k3="1"/>
<feColorMatrix type="matrix" values="0 0 0 0 0 0 0 0 0 0 0 0 0 0 0 0 0 0 0.1 0"/>
<feBlend mode="multiply" in2="effect2_innerShadow_1646_6242" result="effect3_innerShadow_1646_6242"/>
<feColorMatrix in="SourceAlpha" type="matrix" values="0 0 0 0 0 0 0 0 0 0 0 0 0 0 0 0 0 0 127 0" result="hardAlpha"/>
<feOffset dy="1.5"/>
<feGaussianBlur stdDeviation="1.25"/>
<feComposite in2="hardAlpha" operator="arithmetic" k2="-1" k3="1"/>
<feColorMatrix type="matrix" values="0 0 0 0 1 0 0 0 0 1 0 0 0 0 1 0 0 0 0.25 0"/>
<feBlend mode="normal" in2="effect3_innerShadow_1646_6242" result="effect4_innerShadow_1646_6242"/>
</filter>
<filter id="filter3_d_1646_6242" x="12.48" y="28.8086" width="77.8857" height="49.4863" filterUnits="userSpaceOnUse" color-interpolation-filters="sRGB">
<feFlood flood-opacity="0" result="BackgroundImageFix"/>
<feColorMatrix in="SourceAlpha" type="matrix" values="0 0 0 0 0 0 0 0 0 0 0 0 0 0 0 0 0 0 127 0" result="hardAlpha"/>
<feOffset dy="2"/>
<feGaussianBlur stdDeviation="2"/>
<feComposite in2="hardAlpha" operator="out"/>
<feColorMatrix type="matrix" values="0 0 0 0 0 0 0 0 0 0 0 0 0 0 0 0 0 0 0.25 0"/>
<feBlend mode="normal" in2="BackgroundImageFix" result="effect1_dropShadow_1646_6242"/>
<feBlend mode="normal" in="SourceGraphic" in2="effect1_dropShadow_1646_6242" result="shape"/>
</filter>
<linearGradient id="paint0_linear_1646_6242" x1="25.12" y1="9.08617" x2="100.768" y2="149.661" gradientUnits="userSpaceOnUse">
<stop offset="0.0001" stop-color="#50E6FF"/>
<stop offset="0.623265" stop-color="#0078D4"/>
</linearGradient>
<linearGradient id="paint1_linear_1646_6242" x1="71.4424" y1="10.0972" x2="73.9233" y2="86.0348" gradientUnits="userSpaceOnUse">
<stop offset="0.474" stop-color="#50E6FF"/>
<stop offset="1" stop-color="#0078D4"/>
</linearGradient>
<linearGradient id="paint2_linear_1646_6242" x1="23.2124" y1="11.6587" x2="25.6933" y2="87.5963" gradientUnits="userSpaceOnUse">
<stop offset="0.474" stop-color="#50E6FF"/>
<stop offset="1" stop-color="#0078D4"/>
</linearGradient>
<linearGradient id="paint3_linear_1646_6242" x1="45.656" y1="8.55256" x2="49.733" y2="133.345" gradientUnits="userSpaceOnUse">
<stop offset="0.474" stop-color="#50E6FF"/>
<stop offset="1" stop-color="#0078D4"/>
</linearGradient>
<linearGradient id="paint4_linear_1646_6242" x1="15.3255" y1="10.8293" x2="83.5367" y2="99.0923" gradientUnits="userSpaceOnUse">
<stop stop-color="#007ED8"/>
<stop offset="0.915361" stop-color="#002D4C"/>
</linearGradient>
<linearGradient id="paint5_linear_1646_6242" x1="17.9064" y1="39.3307" x2="76.2935" y2="82.5798" gradientUnits="userSpaceOnUse">
<stop stop-color="#FFB900"/>
<stop offset="0.17" stop-color="#EF8400"/>
<stop offset="0.31" stop-color="#E25C01"/>
<stop offset="0.43" stop-color="#DB4401"/>
<stop offset="0.5" stop-color="#D83B01"/>
</linearGradient>
<linearGradient id="paint6_linear_1646_6242" x1="22.9893" y1="45.2613" x2="66.4991" y2="62.1742" gradientUnits="userSpaceOnUse">
<stop stop-color="#FFB900"/>
<stop offset="0.17" stop-color="#EF8400"/>
<stop offset="0.31" stop-color="#E25C01"/>
<stop offset="0.43" stop-color="#DB4401"/>
<stop offset="0.5" stop-color="#D83B01"/>
</linearGradient>
<linearGradient id="paint7_linear_1646_6242" x1="17.9064" y1="39.3307" x2="76.2935" y2="82.5798" gradientUnits="userSpaceOnUse">
<stop stop-color="#FFB900"/>
<stop offset="0.17" stop-color="#EF8400"/>
<stop offset="0.31" stop-color="#E25C01"/>
<stop offset="0.43" stop-color="#DB4401"/>
<stop offset="0.5" stop-color="#D83B01"/>
</linearGradient>
<linearGradient id="paint8_linear_1646_6242" x1="22.9893" y1="45.2613" x2="66.4991" y2="62.1742" gradientUnits="userSpaceOnUse">
<stop stop-color="#FFB900"/>
<stop offset="0.17" stop-color="#EF8400"/>
<stop offset="0.31" stop-color="#E25C01"/>
<stop offset="0.43" stop-color="#DB4401"/>
<stop offset="0.5" stop-color="#D83B01"/>
</linearGradient>
<clipPath id="clip0_1646_6242">
<rect width="102" height="102" fill="white" transform="translate(0.0893555)"/>
</clipPath>
</defs>
</svg>
