<svg width="180" height="190" viewBox="0 0 180 190" fill="none" xmlns="http://www.w3.org/2000/svg">
<g clip-path="url(#clip0_1580_1942)">
<path d="M90.1856 189.742C93.2456 189.742 96.2556 188.892 98.9156 187.272L160.886 149.612C166.426 146.242 169.856 139.912 169.856 133.072V58.362C169.856 51.542 166.426 45.202 160.886 41.822L98.9156 4.16202C93.5856 0.922023 86.7656 0.942023 81.4656 4.16202L19.4956 41.842C13.9556 45.212 10.5056 51.542 10.5056 58.382V133.082C10.5056 138.842 12.9556 144.262 17.0556 147.832V147.862L81.4656 187.292C84.1056 188.892 87.1256 189.742 90.1856 189.742ZM90.8356 8.69202C92.7856 8.69202 95.2656 9.90202 96.9756 10.952L157.736 48.142C161.486 50.422 163.606 57.022 163.606 61.772L162.976 133.072C162.976 137.822 159.776 142.092 156.026 144.372L95.6256 180.752C92.1956 182.842 89.4056 182.842 85.9656 180.752L24.7556 144.282C21.0056 142.002 17.9856 137.802 17.9856 133.072V59.432C17.9856 54.692 20.7156 49.802 24.4856 47.512L85.0656 10.952C86.7656 9.91202 88.8856 8.69202 90.8356 8.69202Z" fill="#F2F1F0"/>
<path fill-rule="evenodd" clip-rule="evenodd" d="M98.0856 12.2717C95.6356 10.7717 92.9156 10.0217 90.1856 10.0217C87.4556 10.0217 84.7356 10.7817 82.2856 12.2717L26.1556 46.6017C21.1356 49.6717 18.0256 55.4217 18.0256 61.6717V129.772C18.0256 136.002 21.1256 141.772 26.1556 144.842L82.2856 179.172C84.7356 180.672 87.4556 181.422 90.1856 181.422C92.9156 181.422 95.6356 180.682 98.0856 179.172L154.216 144.842C159.236 141.772 162.346 136.002 162.346 129.772V61.6717C162.346 55.4417 159.246 49.6917 154.216 46.6017L98.0856 12.2717Z" fill="url(#paint0_linear_1580_1942)"/>
<g opacity="0.5">
<path d="M22.3984 120.586L31.6284 125.876L22.4784 131.136L17.8784 128.496V129.026L22.0385 131.416L18.3584 133.536L18.4984 133.966L22.4984 131.676L31.6885 136.956L22.5685 142.196L20.9185 141.246L21.1284 141.876L89.6384 181.476L90.0685 181.186L80.7384 175.806L90.0084 170.476L99.2085 175.756L99.6184 175.476L90.4684 170.206L99.6985 164.896L109.058 170.266L109.288 169.856L100.168 164.636L109.288 159.396L118.528 164.706L118.858 164.346L109.758 159.116L118.958 153.836L128.148 159.116L128.688 158.906L119.398 153.576L128.628 148.276L137.768 153.526L138.308 153.316L129.078 148.016L138.218 142.756L147.368 148.016L147.898 147.806L138.668 142.506L147.898 137.196L156.988 142.426L157.518 142.216L148.338 136.946L157.518 131.666L162.208 134.356V133.866L157.938 131.406L162.478 128.796V128.266L157.478 131.156L148.308 125.886L157.568 120.556L162.748 123.556V123.046L119.448 98.0461L100.188 86.9261L99.9984 86.8562L90.6084 81.4362L90.1785 81.1562L18.3984 122.376V122.916L22.3984 120.586ZM22.9285 131.396L32.0685 126.126L41.2885 131.416L32.1184 136.686L22.9285 131.396ZM80.7584 131.396L89.9884 126.096L99.1284 131.336L89.8984 136.646L80.7584 131.396ZM89.4585 136.906L80.2484 142.196L71.1084 136.946L80.3185 131.656L89.4585 136.906ZM90.4585 125.836L99.6084 120.576L108.738 125.826L99.5884 131.086L90.4585 125.836ZM90.0084 125.576L80.7784 120.276L89.9385 115.016L99.1685 120.316L90.0084 125.576ZM89.5685 125.836L80.3384 131.136L71.1084 125.836L80.3384 120.536L89.5685 125.836ZM79.8884 131.396L70.6785 136.686L61.4485 131.386L70.6584 126.096L79.8884 131.396ZM70.2184 136.956L61.0685 142.216L51.8285 136.916L60.9884 131.646L70.2184 136.956ZM70.6685 137.206L79.8085 142.456L70.6685 147.716L61.5084 142.466L70.6685 137.206ZM80.2484 142.716L89.4784 148.016L80.3484 153.266L71.1084 147.976L80.2484 142.716ZM80.7184 142.446L89.9185 137.156L99.1484 142.456L89.9485 147.756L80.7184 142.446ZM90.3684 136.906L99.5884 131.596L108.818 136.896L99.5984 142.206L90.3684 136.906ZM100.038 131.336L109.188 126.076L118.418 131.386L109.268 136.646L100.038 131.336ZM109.628 125.826L118.858 120.516L128.088 125.826L118.858 131.126L109.628 125.826ZM109.188 125.566L100.058 120.316L109.288 115.016L118.408 120.266L109.188 125.566ZM99.6084 120.066L90.3784 114.756L99.6084 109.456L108.838 114.756L99.6084 120.066ZM89.9385 114.506L80.7784 109.236L90.0084 103.936L99.1685 109.196L89.9385 114.506ZM89.4884 114.756L80.3384 120.026L71.1685 114.756L80.3285 109.496L89.4884 114.756ZM79.8884 120.276L70.6584 125.576L61.4984 120.316L70.7284 115.016L79.8884 120.276ZM70.2184 125.836L60.9984 131.136L51.8384 125.866L61.0485 120.576L70.2184 125.836ZM60.5485 131.396L51.3784 136.656L42.2085 131.396L51.3984 126.096L60.5485 131.396ZM50.9185 136.926L41.7484 142.196L32.5884 136.926L41.7484 131.666L50.9185 136.926ZM51.3684 137.176L60.6084 142.476L51.4185 147.756L42.1885 142.456L51.3684 137.176ZM61.0485 142.736L70.1985 147.986L60.9984 153.276L51.8584 148.016L61.0485 142.736ZM70.6484 148.236L79.8784 153.536L70.6685 158.836L61.4485 153.526L70.6484 148.236ZM80.3285 153.796L89.6084 159.116L80.3884 164.416L71.1184 159.086L80.3285 153.796ZM80.7985 153.526L89.9285 148.276L99.1985 153.606L90.0785 158.846L80.7985 153.526ZM90.3884 148.006L99.5984 142.716L108.868 148.046L99.6685 153.336L90.3884 148.006ZM100.038 142.456L109.268 137.156L118.538 142.486L109.308 147.786L100.038 142.456ZM109.708 136.896L118.858 131.636L128.128 136.966L118.988 142.226L109.708 136.896ZM119.308 131.386L128.528 126.076L137.808 131.406L128.578 136.706L119.308 131.386ZM128.978 125.826L138.148 120.546L147.428 125.876L138.248 131.146L128.978 125.826ZM128.528 125.566L119.308 120.266L128.478 114.986L137.708 120.296L128.528 125.566ZM118.858 120.006L109.728 114.756L118.898 109.486L128.028 114.736L118.858 120.006ZM109.288 114.506L100.058 109.196L109.228 103.936L118.458 109.236L109.288 114.506ZM99.6084 108.946L90.4485 103.676L99.6184 98.4161L108.778 103.676L99.6084 108.946ZM90.0084 103.426L80.7384 98.0962L89.8884 92.8262L99.1685 98.1562L90.0084 103.426ZM89.5585 103.676L80.3285 108.986L71.0785 103.666L80.2985 98.3562L89.5585 103.676ZM79.8884 109.236L70.7284 114.506L61.4884 109.196L70.6384 103.926L79.8884 109.236ZM70.2784 114.756L61.0485 120.056L51.8185 114.756L61.0385 109.446L70.2784 114.756ZM60.6084 120.316L51.3884 125.616L42.1685 120.316L51.3784 115.016L60.6084 120.316ZM50.9385 125.876L41.7684 131.146L32.5485 125.856L41.7184 120.576L50.9385 125.876ZM22.9385 142.446L32.0585 137.206L41.2184 142.466L32.0785 147.726L22.9385 142.446ZM32.5184 147.986L41.6685 142.726L50.8884 148.026L41.7184 153.296L32.5184 147.986ZM42.1685 153.556L51.3384 148.286L60.4884 153.536L51.2885 158.826L42.1685 153.556ZM51.7384 159.086L60.9285 153.796L70.1584 159.096L60.9385 164.396L51.7384 159.086ZM61.3884 164.656L70.6084 159.356L79.8784 164.686L70.6384 169.996L61.3884 164.656ZM80.2184 175.536L71.0785 170.256L80.3285 164.936L89.4884 170.206L80.2184 175.536ZM89.9385 169.946L80.7784 164.676L90.0084 159.376L99.1785 164.636L89.9385 169.946ZM99.6484 164.366L90.4684 159.106L99.5984 153.856L108.758 159.126L99.6484 164.366ZM109.228 158.856L100.068 153.586L109.258 148.296L118.428 153.566L109.228 158.856ZM118.878 153.306L109.708 148.046L118.938 142.736L128.098 148.006L118.878 153.306ZM128.548 147.746L119.378 142.486L128.528 137.226L137.698 142.496L128.548 147.746ZM138.138 142.236L128.978 136.966L138.198 131.666L147.368 136.936L138.138 142.236ZM156.988 131.396L147.818 136.676L138.648 131.406L147.818 126.126L156.988 131.396ZM157.078 120.296L147.818 125.616L138.548 120.286L147.828 114.946L157.078 120.296ZM147.388 114.696L138.098 120.036L128.868 114.736L138.178 109.376L147.388 114.696ZM137.738 109.126L128.428 114.476L119.298 109.236L128.638 103.866L137.738 109.126ZM128.188 103.606L118.848 108.976L109.618 103.676L118.988 98.2961L128.188 103.606ZM118.538 98.0361L109.178 103.416L100.008 98.1562L109.398 92.7662L118.538 98.0361ZM108.958 92.5062L99.5685 97.8962L90.2885 92.5762L99.6885 87.1562L108.958 92.5062ZM90.1484 81.6462L99.2484 86.8962L89.8384 92.3162L80.6985 87.0662L90.1484 81.6462ZM80.2584 87.3262L89.3984 92.5762L80.2484 97.8462L71.0984 92.5862L80.2584 87.3262ZM70.6484 92.8362L79.7985 98.0962L70.5785 103.406L61.4185 98.1462L70.6484 92.8362ZM60.9684 98.3962L70.1384 103.666L60.9884 108.936L51.8085 103.666L60.9684 98.3962ZM51.3684 103.916L60.5385 109.196L51.3285 114.496L42.1284 109.216L51.3684 103.916ZM41.6885 109.476L50.8784 114.756L41.6685 120.056L32.4684 114.776L41.6885 109.476ZM32.0184 115.026L41.2184 120.316L32.0485 125.606L22.8185 120.306L32.0184 115.026Z" fill="white"/>
</g>
<path fill-rule="evenodd" clip-rule="evenodd" d="M90.1854 11.4922C91.8654 11.4922 93.7554 12.3622 95.8154 13.6122L154.285 49.1522C157.935 51.3722 160.345 55.6422 160.345 60.4722V130.952C160.345 135.772 157.935 140.052 154.285 142.272L95.8254 177.812C93.8654 179.002 91.9454 179.752 90.1954 179.752C88.4454 179.752 86.5254 179.002 84.5654 177.812L26.0854 142.282C24.0754 141.052 22.6254 139.852 21.6454 138.242C20.6654 136.642 20.0254 134.422 20.0254 130.962V60.4822C20.0254 55.6522 22.4354 51.3822 26.0854 49.1622L84.5454 13.6222C86.6354 12.3722 88.4954 11.4922 90.1854 11.4922ZM97.8954 181.242L156.355 145.702C161.275 142.712 164.335 137.092 164.335 130.962V60.4822C164.335 54.3522 161.275 48.7322 156.355 45.7422L97.8954 10.2022C95.7854 8.92219 93.0754 7.49219 90.1854 7.49219C87.2854 7.49219 84.5754 8.93219 82.4854 10.1922H82.4754L24.0054 45.7422C19.0854 48.7322 16.0254 54.3522 16.0254 60.4822V130.962C16.0254 134.922 16.7654 137.912 18.2254 140.322C19.6854 142.722 21.7454 144.322 24.0054 145.692L82.4654 181.232C84.6854 182.582 87.3554 183.762 90.1754 183.762C92.9954 183.762 95.6754 182.592 97.8954 181.242Z" fill="url(#paint1_linear_1580_1942)"/>
<g filter="url(#filter0_ddddd_1580_1942)">
<g filter="url(#filter1_dddddi_1580_1942)">
<path d="M49.4225 134.947L49.4225 56.0938C49.4225 55.7673 49.4821 55.4437 49.5977 55.1421C49.7132 54.8404 49.8825 54.5665 50.0959 54.3356C50.3093 54.1047 50.5626 53.9216 50.8414 53.7966C51.1203 53.6717 51.419 53.6072 51.7208 53.6072L146.026 53.6072C146.897 53.6072 147.732 53.9817 148.348 54.6478C148.963 55.3139 149.31 56.2171 149.31 57.1591L149.31 134.449C149.31 135.25 149.015 136.018 148.492 136.584C147.968 137.151 147.258 137.468 146.518 137.468L51.7208 137.468C51.4137 137.479 51.1079 137.42 50.8226 137.296C50.5373 137.173 50.2788 136.987 50.063 136.75C49.8473 136.513 49.679 136.231 49.5688 135.921C49.4586 135.61 49.4088 135.279 49.4225 134.947Z" fill="url(#paint2_linear_1580_1942)"/>
</g>
<path d="M29.0233 134.947L29.0233 56.0938C29.0233 55.7673 29.0712 55.4437 29.164 55.1421C29.2568 54.8404 29.3928 54.5665 29.5642 54.3356C29.7356 54.1047 29.939 53.9216 30.163 53.7966C30.387 53.6717 30.627 53.6072 30.8694 53.6072L106.617 53.6072C107.317 53.6072 107.988 53.9817 108.482 54.6478C108.977 55.3139 109.255 56.2171 109.255 57.1591L109.255 134.449C109.255 135.25 109.019 136.018 108.598 136.584C108.178 137.151 107.607 137.468 107.013 137.468L30.8694 137.468C30.6227 137.479 30.377 137.42 30.1479 137.296C29.9188 137.173 29.7111 136.987 29.5378 136.75C29.3645 136.513 29.2294 136.231 29.1408 135.921C29.0523 135.61 29.0123 135.279 29.0233 134.947Z" fill="white"/>
</g>
<g filter="url(#filter2_ddddd_1580_1942)">
<path fill-rule="evenodd" clip-rule="evenodd" d="M121.994 106.241H139.142C140.247 106.241 141.142 105.346 141.142 104.241V103.98C141.142 102.876 140.247 101.98 139.142 101.98H121.994V106.241Z" fill="white"/>
<g filter="url(#filter3_d_1580_1942)">
<path fill-rule="evenodd" clip-rule="evenodd" d="M116.431 104.241C116.431 105.346 117.326 106.241 118.431 106.241H126.794V101.98H118.431C117.326 101.98 116.431 102.876 116.431 103.98V104.241Z" fill="url(#paint3_linear_1580_1942)"/>
</g>
</g>
<g filter="url(#filter4_ddddd_1580_1942)">
<path fill-rule="evenodd" clip-rule="evenodd" d="M127.375 114.827H139.142C140.247 114.827 141.142 113.931 141.142 112.827V112.566C141.142 111.461 140.247 110.566 139.142 110.566H127.375V114.827Z" fill="white"/>
<path fill-rule="evenodd" clip-rule="evenodd" d="M116.431 112.696C116.431 113.873 117.385 114.827 118.561 114.827H132.816V110.566H118.561C117.385 110.566 116.431 111.52 116.431 112.696V112.696Z" fill="url(#paint4_linear_1580_1942)"/>
</g>
<g filter="url(#filter5_ddddd_1580_1942)">
<path fill-rule="evenodd" clip-rule="evenodd" d="M125.236 123.525H139.143C140.247 123.525 141.143 122.63 141.143 121.525V121.264C141.143 120.16 140.247 119.264 139.143 119.264H125.236V123.525Z" fill="white"/>
<path fill-rule="evenodd" clip-rule="evenodd" d="M116.431 121.394C116.431 122.571 117.385 123.525 118.561 123.525H126.794V119.264H118.561C117.385 119.264 116.431 120.218 116.431 121.394V121.394Z" fill="url(#paint5_linear_1580_1942)"/>
</g>
<g filter="url(#filter6_dddddi_1580_1942)">
<circle cx="132.921" cy="112.683" r="2.14758" fill="#C8BAFF"/>
</g>
<g filter="url(#filter7_dddddi_1580_1942)">
<circle cx="126.894" cy="121.414" r="2.14758" fill="#635FCE"/>
</g>
<g filter="url(#filter8_dddddi_1580_1942)">
<circle cx="126.63" cy="104.128" r="2.14758" fill="#DFD5FF"/>
</g>
<path d="M69.5447 126.499H69.4181C69.1776 126.499 68.9751 126.298 68.9751 126.059C68.9751 125.908 69.051 125.769 69.1776 125.694C69.3801 125.379 69.9877 125.543 69.9877 125.933V126.059C70.0004 126.31 69.7979 126.499 69.5447 126.499Z" fill="#695BD4"/>
<path d="M67.3797 126.499H67.1266C66.8861 126.499 66.6835 126.298 66.6835 126.059C66.6835 125.82 66.8861 125.618 67.1266 125.618H67.3797C67.6202 125.618 67.8227 125.82 67.8227 126.059C67.8227 126.298 67.6329 126.499 67.3797 126.499ZM65.0886 126.499H64.8355C64.595 126.499 64.3925 126.298 64.3925 126.059C64.3925 125.82 64.595 125.618 64.8355 125.618H65.0886C65.3291 125.618 65.5317 125.82 65.5317 126.059C65.5317 126.298 65.3418 126.499 65.0886 126.499ZM62.7976 126.499H62.5444C62.3039 126.499 62.1014 126.298 62.1014 126.059C62.1014 125.82 62.3039 125.618 62.5444 125.618H62.7976C63.0381 125.618 63.2406 125.82 63.2406 126.059C63.2406 126.298 63.0381 126.499 62.7976 126.499ZM60.5065 126.499H60.2533C60.0128 126.499 59.8103 126.298 59.8103 126.059C59.8103 125.82 60.0128 125.618 60.2533 125.618H60.5065C60.747 125.618 60.9495 125.82 60.9495 126.059C60.9495 126.298 60.747 126.499 60.5065 126.499ZM58.2154 126.499H57.9622C57.7217 126.499 57.5192 126.298 57.5192 126.059C57.5192 125.82 57.7217 125.618 57.9622 125.618H58.2154C58.4559 125.618 58.6584 125.82 58.6584 126.059C58.6584 126.298 58.4559 126.499 58.2154 126.499ZM55.9117 126.499H55.6585C55.418 126.499 55.2155 126.298 55.2155 126.059C55.2155 125.82 55.418 125.618 55.6585 125.618H55.9117C56.1522 125.618 56.3547 125.82 56.3547 126.059C56.3547 126.298 56.1648 126.499 55.9117 126.499ZM53.6206 126.499H53.3674C53.1269 126.499 52.9244 126.298 52.9244 126.059C52.9244 125.82 53.1269 125.618 53.3674 125.618H53.6206C53.8611 125.618 54.0636 125.82 54.0636 126.059C54.0636 126.298 53.8611 126.499 53.6206 126.499ZM51.3295 126.499H51.0764C50.8359 126.499 50.6333 126.298 50.6333 126.059C50.6333 125.82 50.8359 125.618 51.0764 125.618H51.3295C51.57 125.618 51.7725 125.82 51.7725 126.059C51.7725 126.298 51.57 126.499 51.3295 126.499ZM49.0384 126.499H48.7853C48.5448 126.499 48.3423 126.298 48.3423 126.059C48.3423 125.82 48.5448 125.618 48.7853 125.618H49.0384C49.2789 125.618 49.4815 125.82 49.4815 126.059C49.4815 126.298 49.2789 126.499 49.0384 126.499ZM46.7347 126.499H46.4815C46.241 126.499 46.0385 126.298 46.0385 126.059C46.0385 125.82 46.241 125.618 46.4815 125.618H46.7347C46.9752 125.618 47.1777 125.82 47.1777 126.059C47.1777 126.298 46.9879 126.499 46.7347 126.499ZM44.4436 126.499H44.1905C43.95 126.499 43.7474 126.298 43.7474 126.059C43.7474 125.82 43.95 125.618 44.1905 125.618H44.4436C44.6841 125.618 44.8866 125.82 44.8866 126.059C44.8866 126.298 44.6841 126.499 44.4436 126.499ZM42.1525 126.499H41.8994C41.6589 126.499 41.4564 126.298 41.4564 126.059C41.4564 125.82 41.6589 125.618 41.8994 125.618H42.1525C42.393 125.618 42.5956 125.82 42.5956 126.059C42.5956 126.298 42.393 126.499 42.1525 126.499ZM39.8615 126.499H39.6083C39.3678 126.499 39.1653 126.298 39.1653 126.059C39.1653 125.82 39.3678 125.618 39.6083 125.618H39.8615C40.102 125.618 40.3045 125.82 40.3045 126.059C40.3045 126.298 40.102 126.499 39.8615 126.499Z" fill="#3F389C"/>
<path d="M37.5579 126.499H37.4313C37.1908 126.499 36.9883 126.298 36.9883 126.059V125.933C36.9883 125.53 37.5959 125.379 37.7984 125.694C37.9123 125.769 38.0009 125.908 38.0009 126.059C38.0136 126.31 37.811 126.499 37.5579 126.499Z" fill="#695BD4"/>
<path d="M37.4313 124.298C37.1908 124.298 36.9883 124.096 36.9883 123.857V123.593C36.9883 123.354 37.1908 123.153 37.4313 123.153C37.6718 123.153 37.8743 123.354 37.8743 123.593V123.857C37.8743 124.096 37.6845 124.298 37.4313 124.298ZM37.4313 121.957C37.1908 121.957 36.9883 121.756 36.9883 121.517V121.253C36.9883 121.014 37.1908 120.812 37.4313 120.812C37.6718 120.812 37.8743 121.014 37.8743 121.253V121.517C37.8743 121.756 37.6845 121.957 37.4313 121.957ZM37.4313 119.617C37.1908 119.617 36.9883 119.416 36.9883 119.176V118.912C36.9883 118.673 37.1908 118.472 37.4313 118.472C37.6718 118.472 37.8743 118.673 37.8743 118.912V119.176C37.8743 119.428 37.6845 119.617 37.4313 119.617ZM37.4313 117.276C37.1908 117.276 36.9883 117.075 36.9883 116.836V116.572C36.9883 116.333 37.1908 116.131 37.4313 116.131C37.6718 116.131 37.8743 116.333 37.8743 116.572V116.836C37.8743 117.088 37.6845 117.276 37.4313 117.276ZM37.4313 114.936C37.1908 114.936 36.9883 114.735 36.9883 114.496V114.231C36.9883 113.992 37.1908 113.791 37.4313 113.791C37.6718 113.791 37.8743 113.992 37.8743 114.231V114.496C37.8743 114.747 37.6845 114.936 37.4313 114.936ZM37.4313 112.596C37.1908 112.596 36.9883 112.394 36.9883 112.155V111.891C36.9883 111.652 37.1908 111.451 37.4313 111.451C37.6718 111.451 37.8743 111.652 37.8743 111.891V112.155C37.8743 112.407 37.6845 112.596 37.4313 112.596ZM37.4313 110.268C37.1908 110.268 36.9883 110.066 36.9883 109.827V109.563C36.9883 109.324 37.1908 109.123 37.4313 109.123C37.6718 109.123 37.8743 109.324 37.8743 109.563V109.827C37.8743 110.066 37.6845 110.268 37.4313 110.268ZM37.4313 107.927C37.1908 107.927 36.9883 107.726 36.9883 107.487V107.223C36.9883 106.984 37.1908 106.782 37.4313 106.782C37.6718 106.782 37.8743 106.984 37.8743 107.223V107.487C37.8743 107.726 37.6845 107.927 37.4313 107.927Z" fill="#3F389C"/>
<path d="M37.4313 105.587C37.1908 105.587 36.9883 105.385 36.9883 105.146V105.02C36.9883 104.781 37.1908 104.58 37.4313 104.58H37.5579C37.7984 104.58 38.0009 104.781 38.0009 105.02C38.0009 105.171 37.925 105.31 37.7984 105.385C37.7351 105.511 37.5959 105.587 37.4313 105.587Z" fill="#695BD4"/>
<path d="M67.3797 105.461H67.1266C66.8861 105.461 66.6835 105.26 66.6835 105.02C66.6835 104.781 66.8861 104.58 67.1266 104.58H67.3797C67.6202 104.58 67.8227 104.781 67.8227 105.02C67.8227 105.26 67.6329 105.461 67.3797 105.461ZM65.0886 105.461H64.8355C64.595 105.461 64.3925 105.26 64.3925 105.02C64.3925 104.781 64.595 104.58 64.8355 104.58H65.0886C65.3291 104.58 65.5317 104.781 65.5317 105.02C65.5317 105.26 65.3418 105.461 65.0886 105.461ZM62.7976 105.461H62.5444C62.3039 105.461 62.1014 105.26 62.1014 105.02C62.1014 104.781 62.3039 104.58 62.5444 104.58H62.7976C63.0381 104.58 63.2406 104.781 63.2406 105.02C63.2406 105.26 63.0381 105.461 62.7976 105.461ZM60.5065 105.461H60.2533C60.0128 105.461 59.8103 105.26 59.8103 105.02C59.8103 104.781 60.0128 104.58 60.2533 104.58H60.5065C60.747 104.58 60.9495 104.781 60.9495 105.02C60.9495 105.26 60.747 105.461 60.5065 105.461ZM58.2154 105.461H57.9622C57.7217 105.461 57.5192 105.26 57.5192 105.02C57.5192 104.781 57.7217 104.58 57.9622 104.58H58.2154C58.4559 104.58 58.6584 104.781 58.6584 105.02C58.6584 105.26 58.4559 105.461 58.2154 105.461ZM55.9117 105.461H55.6585C55.418 105.461 55.2155 105.26 55.2155 105.02C55.2155 104.781 55.418 104.58 55.6585 104.58H55.9117C56.1522 104.58 56.3547 104.781 56.3547 105.02C56.3547 105.26 56.1648 105.461 55.9117 105.461ZM53.6206 105.461H53.3674C53.1269 105.461 52.9244 105.26 52.9244 105.02C52.9244 104.781 53.1269 104.58 53.3674 104.58H53.6206C53.8611 104.58 54.0636 104.781 54.0636 105.02C54.0636 105.26 53.8611 105.461 53.6206 105.461ZM51.3295 105.461H51.0764C50.8359 105.461 50.6333 105.26 50.6333 105.02C50.6333 104.781 50.8359 104.58 51.0764 104.58H51.3295C51.57 104.58 51.7725 104.781 51.7725 105.02C51.7725 105.26 51.57 105.461 51.3295 105.461ZM49.0384 105.461H48.7853C48.5448 105.461 48.3423 105.26 48.3423 105.02C48.3423 104.781 48.5448 104.58 48.7853 104.58H49.0384C49.2789 104.58 49.4815 104.781 49.4815 105.02C49.4815 105.26 49.2789 105.461 49.0384 105.461ZM46.7347 105.461H46.4815C46.241 105.461 46.0385 105.26 46.0385 105.02C46.0385 104.781 46.241 104.58 46.4815 104.58H46.7347C46.9752 104.58 47.1777 104.781 47.1777 105.02C47.1777 105.26 46.9879 105.461 46.7347 105.461ZM44.4436 105.461H44.1905C43.95 105.461 43.7474 105.26 43.7474 105.02C43.7474 104.781 43.95 104.58 44.1905 104.58H44.4436C44.6841 104.58 44.8866 104.781 44.8866 105.02C44.8866 105.26 44.6968 105.461 44.4436 105.461ZM42.1525 105.461H41.8994C41.6589 105.461 41.4564 105.26 41.4564 105.02C41.4564 104.781 41.6589 104.58 41.8994 104.58H42.1525C42.393 104.58 42.5956 104.781 42.5956 105.02C42.5956 105.26 42.393 105.461 42.1525 105.461ZM39.8615 105.461H39.6083C39.3678 105.461 39.1653 105.26 39.1653 105.02C39.1653 104.781 39.3678 104.58 39.6083 104.58H39.8615C40.102 104.58 40.3045 104.781 40.3045 105.02C40.3045 105.26 40.102 105.461 39.8615 105.461Z" fill="#3F389C"/>
<path d="M69.5447 105.587C69.3928 105.587 69.2536 105.511 69.1776 105.385C69.0637 105.31 68.9751 105.171 68.9751 105.02C68.9751 104.781 69.1776 104.58 69.4181 104.58H69.5447C69.7852 104.58 69.9877 104.781 69.9877 105.02V105.146C70.0004 105.385 69.7979 105.587 69.5447 105.587Z" fill="#695BD4"/>
<path d="M69.5446 124.298C69.3041 124.298 69.1016 124.096 69.1016 123.857V123.593C69.1016 123.354 69.3041 123.153 69.5446 123.153C69.7851 123.153 69.9876 123.354 69.9876 123.593V123.857C70.0003 124.096 69.7977 124.298 69.5446 124.298ZM69.5446 121.957C69.3041 121.957 69.1016 121.756 69.1016 121.517V121.253C69.1016 121.014 69.3041 120.812 69.5446 120.812C69.7851 120.812 69.9876 121.014 69.9876 121.253V121.517C70.0003 121.769 69.7977 121.957 69.5446 121.957ZM69.5446 119.617C69.3041 119.617 69.1016 119.416 69.1016 119.176V118.912C69.1016 118.673 69.3041 118.472 69.5446 118.472C69.7851 118.472 69.9876 118.673 69.9876 118.912V119.176C70.0003 119.428 69.7977 119.617 69.5446 119.617ZM69.5446 117.276C69.3041 117.276 69.1016 117.075 69.1016 116.836V116.572C69.1016 116.333 69.3041 116.131 69.5446 116.131C69.7851 116.131 69.9876 116.333 69.9876 116.572V116.836C70.0003 117.088 69.7977 117.276 69.5446 117.276ZM69.5446 114.936C69.3041 114.936 69.1016 114.735 69.1016 114.496V114.231C69.1016 113.992 69.3041 113.791 69.5446 113.791C69.7851 113.791 69.9876 113.992 69.9876 114.231V114.496C70.0003 114.747 69.7977 114.936 69.5446 114.936ZM69.5446 112.596C69.3041 112.596 69.1016 112.394 69.1016 112.155V111.891C69.1016 111.652 69.3041 111.451 69.5446 111.451C69.7851 111.451 69.9876 111.652 69.9876 111.891V112.155C70.0003 112.407 69.7977 112.596 69.5446 112.596ZM69.5446 110.268C69.3041 110.268 69.1016 110.066 69.1016 109.827V109.563C69.1016 109.324 69.3041 109.123 69.5446 109.123C69.7851 109.123 69.9876 109.324 69.9876 109.563V109.827C70.0003 110.066 69.7977 110.268 69.5446 110.268ZM69.5446 107.927C69.3041 107.927 69.1016 107.726 69.1016 107.487V107.223C69.1016 106.984 69.3041 106.782 69.5446 106.782C69.7851 106.782 69.9876 106.984 69.9876 107.223V107.487C70.0003 107.726 69.7977 107.927 69.5446 107.927Z" fill="#403A9E"/>
<g filter="url(#filter9_ddddd_1580_1942)">
<path d="M141.963 84.5516L129.909 93.59C129.598 93.8232 129.22 93.948 128.831 93.9453C128.442 93.9425 128.065 93.8123 127.758 93.5747L119.075 86.8593C118.911 86.7326 118.779 86.57 118.689 86.384C118.598 86.198 118.551 85.9936 118.553 85.7867C118.554 85.5798 118.602 85.3759 118.695 85.1909C118.788 85.006 118.922 84.8448 119.087 84.72L132.271 74.7293L141.964 82.0144C142.161 82.1622 142.321 82.3538 142.431 82.574C142.541 82.7943 142.598 83.0372 142.598 83.2835C142.598 83.5297 142.541 83.7725 142.43 83.9926C142.32 84.2128 142.16 84.4042 141.963 84.5516V84.5516Z" fill="url(#paint6_linear_1580_1942)"/>
<path d="M141.954 84.5483L134.248 90.2774C133.889 90.5451 133.453 90.6898 133.005 90.6898C132.557 90.6898 132.121 90.5451 131.762 90.2774L121.7 82.7423L132.303 74.7293L141.962 82.0093C142.159 82.1578 142.318 82.35 142.428 82.5707C142.537 82.7914 142.594 83.0346 142.593 83.2809C142.592 83.5273 142.534 83.7701 142.423 83.99C142.312 84.21 142.151 84.4011 141.954 84.5483V84.5483Z" fill="url(#paint7_linear_1580_1942)"/>
<g filter="url(#filter10_d_1580_1942)">
<path d="M138.391 75.5661L129.564 82.2727C127.071 84.1665 123.625 84.1752 121.122 82.294L115.476 78.0488C115.321 77.9317 115.194 77.7801 115.107 77.6058C115.02 77.4315 114.975 77.2395 114.975 77.0447C114.975 76.8499 115.02 76.6578 115.107 76.4835C115.194 76.3093 115.321 76.1576 115.476 76.0405L128.035 66.5651C128.255 66.3989 128.522 66.308 128.798 66.3062C129.074 66.3043 129.343 66.3916 129.565 66.5549L138.374 73.0255C138.573 73.1717 138.735 73.3623 138.847 73.582C138.959 73.8018 139.018 74.0448 139.02 74.2915C139.021 74.5382 138.965 74.7819 138.856 75.0032C138.747 75.2245 138.588 75.4172 138.391 75.5661Z" fill="url(#paint8_linear_1580_1942)"/>
</g>
<path d="M135.937 77.4065L126.458 84.6304C126.139 84.8724 125.749 85.0034 125.349 85.0034C124.948 85.0034 124.558 84.8724 124.239 84.6304L115.476 78.0425C115.321 77.9252 115.195 77.7734 115.108 77.5992C115.021 77.4249 114.976 77.233 114.976 77.0383C114.976 76.8437 115.021 76.6517 115.108 76.4774C115.195 76.3032 115.321 76.1514 115.476 76.0341L124.659 69.1113L135.937 77.4065Z" fill="url(#paint9_linear_1580_1942)"/>
</g>
<circle cx="79.2001" cy="71.4719" r="1.87152" fill="#9767FF"/>
<circle cx="86.0522" cy="71.4719" r="1.87152" fill="#AA85FE"/>
<circle cx="92.5236" cy="71.4719" r="1.87152" fill="#B391FD"/>
<circle cx="99.5024" cy="71.4719" r="1.87152" fill="#D1C3FA"/>
<circle cx="79.2001" cy="78.3235" r="1.87152" fill="#242069"/>
<circle cx="86.0522" cy="78.3235" r="1.87152" fill="#231E68"/>
<circle cx="92.5236" cy="78.3235" r="1.87152" fill="#4038BC"/>
<circle cx="99.5024" cy="78.3235" r="1.87152" fill="#A9A7CB"/>
<circle cx="79.2001" cy="64.8735" r="1.87152" fill="#9768FF"/>
<circle cx="86.0522" cy="64.8735" r="1.87152" fill="#6862CB"/>
<circle cx="92.5236" cy="64.8735" r="1.87152" fill="#9A95DB"/>
<circle cx="99.5024" cy="64.8735" r="1.87152" fill="#BDBAE8"/>
<g filter="url(#filter11_ddddd_1580_1942)">
<path d="M38.3904 94.7059H67.7355C68.8006 94.7059 69.6733 93.8479 69.6733 92.7681V65.0291C69.6733 63.9641 68.8154 63.0913 67.7355 63.0913H38.3904C37.3254 63.0913 36.4526 63.9493 36.4526 65.0291V92.7681C36.4674 93.8331 37.3254 94.7059 38.3904 94.7059Z" fill="white"/>
</g>
<g filter="url(#filter12_ddddd_1580_1942)">
<path d="M46.7979 82.9243H43.9282V86.6816H46.7979V82.9243Z" fill="url(#paint10_linear_1580_1942)"/>
<path d="M51.0879 80.4248H48.1738V86.682H51.1027L51.0879 80.4248Z" fill="url(#paint11_linear_1580_1942)"/>
<path d="M56.2944 76.3721H52.5371V86.6676H56.2944V76.3721V76.3721Z" fill="url(#paint12_linear_1580_1942)"/>
<path d="M62.1973 72.1558H57.8779V86.6671H62.1973V72.1558Z" fill="url(#paint13_linear_1580_1942)"/>
</g>
<g filter="url(#filter13_ddddd_1580_1942)">
<path d="M77.6126 126.688H102.047C102.934 126.688 103.661 125.974 103.661 125.075V101.978C103.661 101.091 102.946 100.364 102.047 100.364H77.6126C76.7257 100.364 75.999 101.079 75.999 101.978V125.075C76.0113 125.962 76.7257 126.688 77.6126 126.688Z" fill="white"/>
</g>
<path d="M87.5432 87.3975H78.6205C78.2396 87.3975 77.9077 87.717 77.9077 88.1103C77.9077 88.4913 78.2273 88.8231 78.6205 88.8231H87.5186C87.9242 88.7985 88.2314 88.479 88.2314 88.098C88.2314 87.717 87.9242 87.3975 87.5432 87.3975Z" fill="#9768FF"/>
<path d="M87.5432 90.4329H78.6205C78.2396 90.4329 77.9077 90.7524 77.9077 91.1457C77.9077 91.539 78.2273 91.8585 78.6205 91.8585H87.5186C87.9242 91.8339 88.2314 91.5144 88.2314 91.1457C88.2314 90.7647 87.9242 90.4329 87.5432 90.4329Z" fill="#B391FD"/>
<path fill-rule="evenodd" clip-rule="evenodd" d="M78.6205 93.7148H83.0696C83.4506 93.7148 83.7824 94.0343 83.7824 94.4276C83.7824 94.8086 83.4629 95.1404 83.0696 95.1404H78.6205C78.2396 95.1404 77.9077 94.8209 77.9077 94.4276C77.9323 94.0343 78.2273 93.7148 78.6205 93.7148Z" fill="#D1C3FA"/>
<circle cx="48.8718" cy="116.853" r="5.81763" fill="url(#paint14_linear_1580_1942)"/>
<path d="M67.1514 123.557H40.5146C41.0461 120.781 42.2764 117.628 45.0034 117.65C49.0266 117.684 48.7209 120.562 50.9061 120.503C53.0914 120.444 53.3902 118.772 54.3352 115.583C55.2801 112.394 56.3377 111.053 59.1191 111.035C62.1385 111.016 63.9662 113.382 64.7284 115.889C65.3414 117.905 66.4624 121.785 67.1514 123.557Z" fill="url(#paint15_linear_1580_1942)"/>
<path d="M89.6433 104.907C85.1076 104.907 81.4226 108.592 81.4226 113.128C81.4226 117.663 85.1076 121.348 89.6433 121.348C94.179 121.348 97.864 117.663 97.864 113.128C97.864 108.592 94.1896 104.907 89.6433 104.907ZM89.6433 116.967C87.527 116.967 85.8041 115.249 85.8041 113.128C85.8041 111.006 87.5323 109.289 89.6433 109.289C91.7543 109.289 93.4824 111.006 93.4824 113.128C93.4824 115.249 91.7596 116.967 89.6433 116.967Z" fill="url(#paint16_linear_1580_1942)"/>
<g filter="url(#filter14_d_1580_1942)">
<path d="M89.4992 109.294L89.478 104.918C86.5906 104.928 84.1096 106.463 82.6526 108.728L86.2895 111.258C86.9382 110.12 88.1507 109.294 89.4992 109.294Z" fill="url(#paint17_linear_1580_1942)"/>
</g>
<path d="M85.8416 112.974C85.8416 112.277 85.9394 111.958 86.4175 111.044L82.8079 108.493L82.74 108.576C81.9264 109.847 81.4209 111.281 81.4209 112.908C81.4209 114.115 81.6075 115.333 82.0861 116.364L86.0954 114.593C85.8721 114.104 85.8416 113.553 85.8416 112.974Z" fill="url(#paint18_linear_1580_1942)"/>
</g>
<defs>
<filter id="filter0_ddddd_1580_1942" x="21.0215" y="51.6072" width="136.288" height="112.862" filterUnits="userSpaceOnUse" color-interpolation-filters="sRGB">
<feFlood flood-opacity="0" result="BackgroundImageFix"/>
<feColorMatrix in="SourceAlpha" type="matrix" values="0 0 0 0 0 0 0 0 0 0 0 0 0 0 0 0 0 0 127 0" result="hardAlpha"/>
<feOffset/>
<feColorMatrix type="matrix" values="0 0 0 0 0 0 0 0 0 0 0 0 0 0 0 0 0 0 0.1 0"/>
<feBlend mode="normal" in2="BackgroundImageFix" result="effect1_dropShadow_1580_1942"/>
<feColorMatrix in="SourceAlpha" type="matrix" values="0 0 0 0 0 0 0 0 0 0 0 0 0 0 0 0 0 0 127 0" result="hardAlpha"/>
<feOffset dy="1"/>
<feGaussianBlur stdDeviation="1.5"/>
<feColorMatrix type="matrix" values="0 0 0 0 0 0 0 0 0 0 0 0 0 0 0 0 0 0 0.1 0"/>
<feBlend mode="normal" in2="effect1_dropShadow_1580_1942" result="effect2_dropShadow_1580_1942"/>
<feColorMatrix in="SourceAlpha" type="matrix" values="0 0 0 0 0 0 0 0 0 0 0 0 0 0 0 0 0 0 127 0" result="hardAlpha"/>
<feOffset dy="5"/>
<feGaussianBlur stdDeviation="2.5"/>
<feColorMatrix type="matrix" values="0 0 0 0 0 0 0 0 0 0 0 0 0 0 0 0 0 0 0.09 0"/>
<feBlend mode="normal" in2="effect2_dropShadow_1580_1942" result="effect3_dropShadow_1580_1942"/>
<feColorMatrix in="SourceAlpha" type="matrix" values="0 0 0 0 0 0 0 0 0 0 0 0 0 0 0 0 0 0 127 0" result="hardAlpha"/>
<feOffset dy="11"/>
<feGaussianBlur stdDeviation="3"/>
<feColorMatrix type="matrix" values="0 0 0 0 0 0 0 0 0 0 0 0 0 0 0 0 0 0 0.05 0"/>
<feBlend mode="normal" in2="effect3_dropShadow_1580_1942" result="effect4_dropShadow_1580_1942"/>
<feColorMatrix in="SourceAlpha" type="matrix" values="0 0 0 0 0 0 0 0 0 0 0 0 0 0 0 0 0 0 127 0" result="hardAlpha"/>
<feOffset dy="19"/>
<feGaussianBlur stdDeviation="4"/>
<feColorMatrix type="matrix" values="0 0 0 0 0 0 0 0 0 0 0 0 0 0 0 0 0 0 0.01 0"/>
<feBlend mode="normal" in2="effect4_dropShadow_1580_1942" result="effect5_dropShadow_1580_1942"/>
<feBlend mode="normal" in="SourceGraphic" in2="effect5_dropShadow_1580_1942" result="shape"/>
</filter>
<filter id="filter1_dddddi_1580_1942" x="48.4202" y="52.6072" width="101.889" height="86.8624" filterUnits="userSpaceOnUse" color-interpolation-filters="sRGB">
<feFlood flood-opacity="0" result="BackgroundImageFix"/>
<feColorMatrix in="SourceAlpha" type="matrix" values="0 0 0 0 0 0 0 0 0 0 0 0 0 0 0 0 0 0 127 0" result="hardAlpha"/>
<feOffset/>
<feColorMatrix type="matrix" values="0 0 0 0 0 0 0 0 0 0 0 0 0 0 0 0 0 0 0.1 0"/>
<feBlend mode="normal" in2="BackgroundImageFix" result="effect1_dropShadow_1580_1942"/>
<feColorMatrix in="SourceAlpha" type="matrix" values="0 0 0 0 0 0 0 0 0 0 0 0 0 0 0 0 0 0 127 0" result="hardAlpha"/>
<feOffset/>
<feColorMatrix type="matrix" values="0 0 0 0 0 0 0 0 0 0 0 0 0 0 0 0 0 0 0.1 0"/>
<feBlend mode="normal" in2="effect1_dropShadow_1580_1942" result="effect2_dropShadow_1580_1942"/>
<feColorMatrix in="SourceAlpha" type="matrix" values="0 0 0 0 0 0 0 0 0 0 0 0 0 0 0 0 0 0 127 0" result="hardAlpha"/>
<feOffset/>
<feGaussianBlur stdDeviation="0.5"/>
<feColorMatrix type="matrix" values="0 0 0 0 0 0 0 0 0 0 0 0 0 0 0 0 0 0 0.09 0"/>
<feBlend mode="normal" in2="effect2_dropShadow_1580_1942" result="effect3_dropShadow_1580_1942"/>
<feColorMatrix in="SourceAlpha" type="matrix" values="0 0 0 0 0 0 0 0 0 0 0 0 0 0 0 0 0 0 127 0" result="hardAlpha"/>
<feOffset dy="1"/>
<feGaussianBlur stdDeviation="0.5"/>
<feColorMatrix type="matrix" values="0 0 0 0 0 0 0 0 0 0 0 0 0 0 0 0 0 0 0.05 0"/>
<feBlend mode="normal" in2="effect3_dropShadow_1580_1942" result="effect4_dropShadow_1580_1942"/>
<feColorMatrix in="SourceAlpha" type="matrix" values="0 0 0 0 0 0 0 0 0 0 0 0 0 0 0 0 0 0 127 0" result="hardAlpha"/>
<feOffset dy="1"/>
<feGaussianBlur stdDeviation="0.5"/>
<feColorMatrix type="matrix" values="0 0 0 0 0 0 0 0 0 0 0 0 0 0 0 0 0 0 0.01 0"/>
<feBlend mode="normal" in2="effect4_dropShadow_1580_1942" result="effect5_dropShadow_1580_1942"/>
<feBlend mode="normal" in="SourceGraphic" in2="effect5_dropShadow_1580_1942" result="shape"/>
<feColorMatrix in="SourceAlpha" type="matrix" values="0 0 0 0 0 0 0 0 0 0 0 0 0 0 0 0 0 0 127 0" result="hardAlpha"/>
<feOffset dx="0.2" dy="0.5"/>
<feGaussianBlur stdDeviation="0.25"/>
<feComposite in2="hardAlpha" operator="arithmetic" k2="-1" k3="1"/>
<feColorMatrix type="matrix" values="0 0 0 0 1 0 0 0 0 1 0 0 0 0 1 0 0 0 0.1 0"/>
<feBlend mode="normal" in2="shape" result="effect6_innerShadow_1580_1942"/>
</filter>
<filter id="filter2_ddddd_1580_1942" x="114.431" y="100.98" width="28.7117" height="12.261" filterUnits="userSpaceOnUse" color-interpolation-filters="sRGB">
<feFlood flood-opacity="0" result="BackgroundImageFix"/>
<feColorMatrix in="SourceAlpha" type="matrix" values="0 0 0 0 0 0 0 0 0 0 0 0 0 0 0 0 0 0 127 0" result="hardAlpha"/>
<feOffset/>
<feColorMatrix type="matrix" values="0 0 0 0 0 0 0 0 0 0 0 0 0 0 0 0 0 0 0.1 0"/>
<feBlend mode="normal" in2="BackgroundImageFix" result="effect1_dropShadow_1580_1942"/>
<feColorMatrix in="SourceAlpha" type="matrix" values="0 0 0 0 0 0 0 0 0 0 0 0 0 0 0 0 0 0 127 0" result="hardAlpha"/>
<feOffset/>
<feGaussianBlur stdDeviation="0.5"/>
<feColorMatrix type="matrix" values="0 0 0 0 0 0 0 0 0 0 0 0 0 0 0 0 0 0 0.1 0"/>
<feBlend mode="normal" in2="effect1_dropShadow_1580_1942" result="effect2_dropShadow_1580_1942"/>
<feColorMatrix in="SourceAlpha" type="matrix" values="0 0 0 0 0 0 0 0 0 0 0 0 0 0 0 0 0 0 127 0" result="hardAlpha"/>
<feOffset dy="1"/>
<feGaussianBlur stdDeviation="0.5"/>
<feColorMatrix type="matrix" values="0 0 0 0 0 0 0 0 0 0 0 0 0 0 0 0 0 0 0.09 0"/>
<feBlend mode="normal" in2="effect2_dropShadow_1580_1942" result="effect3_dropShadow_1580_1942"/>
<feColorMatrix in="SourceAlpha" type="matrix" values="0 0 0 0 0 0 0 0 0 0 0 0 0 0 0 0 0 0 127 0" result="hardAlpha"/>
<feOffset dy="3"/>
<feGaussianBlur stdDeviation="1"/>
<feColorMatrix type="matrix" values="0 0 0 0 0 0 0 0 0 0 0 0 0 0 0 0 0 0 0.05 0"/>
<feBlend mode="normal" in2="effect3_dropShadow_1580_1942" result="effect4_dropShadow_1580_1942"/>
<feColorMatrix in="SourceAlpha" type="matrix" values="0 0 0 0 0 0 0 0 0 0 0 0 0 0 0 0 0 0 127 0" result="hardAlpha"/>
<feOffset dy="5"/>
<feGaussianBlur stdDeviation="1"/>
<feColorMatrix type="matrix" values="0 0 0 0 0 0 0 0 0 0 0 0 0 0 0 0 0 0 0.01 0"/>
<feBlend mode="normal" in2="effect4_dropShadow_1580_1942" result="effect5_dropShadow_1580_1942"/>
<feBlend mode="normal" in="SourceGraphic" in2="effect5_dropShadow_1580_1942" result="shape"/>
</filter>
<filter id="filter3_d_1580_1942" x="112.431" y="98.9805" width="18.3635" height="12.261" filterUnits="userSpaceOnUse" color-interpolation-filters="sRGB">
<feFlood flood-opacity="0" result="BackgroundImageFix"/>
<feColorMatrix in="SourceAlpha" type="matrix" values="0 0 0 0 0 0 0 0 0 0 0 0 0 0 0 0 0 0 127 0" result="hardAlpha"/>
<feOffset dy="1"/>
<feGaussianBlur stdDeviation="2"/>
<feComposite in2="hardAlpha" operator="out"/>
<feColorMatrix type="matrix" values="0 0 0 0 0 0 0 0 0 0 0 0 0 0 0 0 0 0 0.25 0"/>
<feBlend mode="normal" in2="BackgroundImageFix" result="effect1_dropShadow_1580_1942"/>
<feBlend mode="normal" in="SourceGraphic" in2="effect1_dropShadow_1580_1942" result="shape"/>
</filter>
<filter id="filter4_ddddd_1580_1942" x="115.431" y="109.566" width="26.7117" height="10.2611" filterUnits="userSpaceOnUse" color-interpolation-filters="sRGB">
<feFlood flood-opacity="0" result="BackgroundImageFix"/>
<feColorMatrix in="SourceAlpha" type="matrix" values="0 0 0 0 0 0 0 0 0 0 0 0 0 0 0 0 0 0 127 0" result="hardAlpha"/>
<feOffset/>
<feColorMatrix type="matrix" values="0 0 0 0 0 0 0 0 0 0 0 0 0 0 0 0 0 0 0.1 0"/>
<feBlend mode="normal" in2="BackgroundImageFix" result="effect1_dropShadow_1580_1942"/>
<feColorMatrix in="SourceAlpha" type="matrix" values="0 0 0 0 0 0 0 0 0 0 0 0 0 0 0 0 0 0 127 0" result="hardAlpha"/>
<feOffset/>
<feGaussianBlur stdDeviation="0.5"/>
<feColorMatrix type="matrix" values="0 0 0 0 0 0 0 0 0 0 0 0 0 0 0 0 0 0 0.1 0"/>
<feBlend mode="normal" in2="effect1_dropShadow_1580_1942" result="effect2_dropShadow_1580_1942"/>
<feColorMatrix in="SourceAlpha" type="matrix" values="0 0 0 0 0 0 0 0 0 0 0 0 0 0 0 0 0 0 127 0" result="hardAlpha"/>
<feOffset dy="1"/>
<feGaussianBlur stdDeviation="0.5"/>
<feColorMatrix type="matrix" values="0 0 0 0 0 0 0 0 0 0 0 0 0 0 0 0 0 0 0.09 0"/>
<feBlend mode="normal" in2="effect2_dropShadow_1580_1942" result="effect3_dropShadow_1580_1942"/>
<feColorMatrix in="SourceAlpha" type="matrix" values="0 0 0 0 0 0 0 0 0 0 0 0 0 0 0 0 0 0 127 0" result="hardAlpha"/>
<feOffset dy="2"/>
<feGaussianBlur stdDeviation="0.5"/>
<feColorMatrix type="matrix" values="0 0 0 0 0 0 0 0 0 0 0 0 0 0 0 0 0 0 0.05 0"/>
<feBlend mode="normal" in2="effect3_dropShadow_1580_1942" result="effect4_dropShadow_1580_1942"/>
<feColorMatrix in="SourceAlpha" type="matrix" values="0 0 0 0 0 0 0 0 0 0 0 0 0 0 0 0 0 0 127 0" result="hardAlpha"/>
<feOffset dy="4"/>
<feGaussianBlur stdDeviation="0.5"/>
<feColorMatrix type="matrix" values="0 0 0 0 0 0 0 0 0 0 0 0 0 0 0 0 0 0 0.01 0"/>
<feBlend mode="normal" in2="effect4_dropShadow_1580_1942" result="effect5_dropShadow_1580_1942"/>
<feBlend mode="normal" in="SourceGraphic" in2="effect5_dropShadow_1580_1942" result="shape"/>
</filter>
<filter id="filter5_ddddd_1580_1942" x="115.431" y="119.264" width="26.7119" height="8.26126" filterUnits="userSpaceOnUse" color-interpolation-filters="sRGB">
<feFlood flood-opacity="0" result="BackgroundImageFix"/>
<feColorMatrix in="SourceAlpha" type="matrix" values="0 0 0 0 0 0 0 0 0 0 0 0 0 0 0 0 0 0 127 0" result="hardAlpha"/>
<feOffset/>
<feColorMatrix type="matrix" values="0 0 0 0 0 0 0 0 0 0 0 0 0 0 0 0 0 0 0.1 0"/>
<feBlend mode="normal" in2="BackgroundImageFix" result="effect1_dropShadow_1580_1942"/>
<feColorMatrix in="SourceAlpha" type="matrix" values="0 0 0 0 0 0 0 0 0 0 0 0 0 0 0 0 0 0 127 0" result="hardAlpha"/>
<feOffset/>
<feColorMatrix type="matrix" values="0 0 0 0 0 0 0 0 0 0 0 0 0 0 0 0 0 0 0.1 0"/>
<feBlend mode="normal" in2="effect1_dropShadow_1580_1942" result="effect2_dropShadow_1580_1942"/>
<feColorMatrix in="SourceAlpha" type="matrix" values="0 0 0 0 0 0 0 0 0 0 0 0 0 0 0 0 0 0 127 0" result="hardAlpha"/>
<feOffset dy="1"/>
<feGaussianBlur stdDeviation="0.5"/>
<feColorMatrix type="matrix" values="0 0 0 0 0 0 0 0 0 0 0 0 0 0 0 0 0 0 0.09 0"/>
<feBlend mode="normal" in2="effect2_dropShadow_1580_1942" result="effect3_dropShadow_1580_1942"/>
<feColorMatrix in="SourceAlpha" type="matrix" values="0 0 0 0 0 0 0 0 0 0 0 0 0 0 0 0 0 0 127 0" result="hardAlpha"/>
<feOffset dy="2"/>
<feGaussianBlur stdDeviation="0.5"/>
<feColorMatrix type="matrix" values="0 0 0 0 0 0 0 0 0 0 0 0 0 0 0 0 0 0 0.05 0"/>
<feBlend mode="normal" in2="effect3_dropShadow_1580_1942" result="effect4_dropShadow_1580_1942"/>
<feColorMatrix in="SourceAlpha" type="matrix" values="0 0 0 0 0 0 0 0 0 0 0 0 0 0 0 0 0 0 127 0" result="hardAlpha"/>
<feOffset dy="3"/>
<feGaussianBlur stdDeviation="0.5"/>
<feColorMatrix type="matrix" values="0 0 0 0 0 0 0 0 0 0 0 0 0 0 0 0 0 0 0.01 0"/>
<feBlend mode="normal" in2="effect4_dropShadow_1580_1942" result="effect5_dropShadow_1580_1942"/>
<feBlend mode="normal" in="SourceGraphic" in2="effect5_dropShadow_1580_1942" result="shape"/>
</filter>
<filter id="filter6_dddddi_1580_1942" x="129.773" y="109.536" width="6.29517" height="7.29517" filterUnits="userSpaceOnUse" color-interpolation-filters="sRGB">
<feFlood flood-opacity="0" result="BackgroundImageFix"/>
<feColorMatrix in="SourceAlpha" type="matrix" values="0 0 0 0 0 0 0 0 0 0 0 0 0 0 0 0 0 0 127 0" result="hardAlpha"/>
<feOffset/>
<feColorMatrix type="matrix" values="0 0 0 0 0 0 0 0 0 0 0 0 0 0 0 0 0 0 0.1 0"/>
<feBlend mode="normal" in2="BackgroundImageFix" result="effect1_dropShadow_1580_1942"/>
<feColorMatrix in="SourceAlpha" type="matrix" values="0 0 0 0 0 0 0 0 0 0 0 0 0 0 0 0 0 0 127 0" result="hardAlpha"/>
<feOffset/>
<feColorMatrix type="matrix" values="0 0 0 0 0 0 0 0 0 0 0 0 0 0 0 0 0 0 0.1 0"/>
<feBlend mode="normal" in2="effect1_dropShadow_1580_1942" result="effect2_dropShadow_1580_1942"/>
<feColorMatrix in="SourceAlpha" type="matrix" values="0 0 0 0 0 0 0 0 0 0 0 0 0 0 0 0 0 0 127 0" result="hardAlpha"/>
<feOffset/>
<feGaussianBlur stdDeviation="0.5"/>
<feColorMatrix type="matrix" values="0 0 0 0 0 0 0 0 0 0 0 0 0 0 0 0 0 0 0.09 0"/>
<feBlend mode="normal" in2="effect2_dropShadow_1580_1942" result="effect3_dropShadow_1580_1942"/>
<feColorMatrix in="SourceAlpha" type="matrix" values="0 0 0 0 0 0 0 0 0 0 0 0 0 0 0 0 0 0 127 0" result="hardAlpha"/>
<feOffset dy="1"/>
<feGaussianBlur stdDeviation="0.5"/>
<feColorMatrix type="matrix" values="0 0 0 0 0 0 0 0 0 0 0 0 0 0 0 0 0 0 0.05 0"/>
<feBlend mode="normal" in2="effect3_dropShadow_1580_1942" result="effect4_dropShadow_1580_1942"/>
<feColorMatrix in="SourceAlpha" type="matrix" values="0 0 0 0 0 0 0 0 0 0 0 0 0 0 0 0 0 0 127 0" result="hardAlpha"/>
<feOffset dy="1"/>
<feGaussianBlur stdDeviation="0.5"/>
<feColorMatrix type="matrix" values="0 0 0 0 0 0 0 0 0 0 0 0 0 0 0 0 0 0 0.01 0"/>
<feBlend mode="normal" in2="effect4_dropShadow_1580_1942" result="effect5_dropShadow_1580_1942"/>
<feBlend mode="normal" in="SourceGraphic" in2="effect5_dropShadow_1580_1942" result="shape"/>
<feColorMatrix in="SourceAlpha" type="matrix" values="0 0 0 0 0 0 0 0 0 0 0 0 0 0 0 0 0 0 127 0" result="hardAlpha"/>
<feOffset dx="0.2" dy="0.5"/>
<feGaussianBlur stdDeviation="0.25"/>
<feComposite in2="hardAlpha" operator="arithmetic" k2="-1" k3="1"/>
<feColorMatrix type="matrix" values="0 0 0 0 1 0 0 0 0 1 0 0 0 0 1 0 0 0 0.1 0"/>
<feBlend mode="normal" in2="shape" result="effect6_innerShadow_1580_1942"/>
</filter>
<filter id="filter7_dddddi_1580_1942" x="123.747" y="118.267" width="6.29517" height="7.29517" filterUnits="userSpaceOnUse" color-interpolation-filters="sRGB">
<feFlood flood-opacity="0" result="BackgroundImageFix"/>
<feColorMatrix in="SourceAlpha" type="matrix" values="0 0 0 0 0 0 0 0 0 0 0 0 0 0 0 0 0 0 127 0" result="hardAlpha"/>
<feOffset/>
<feColorMatrix type="matrix" values="0 0 0 0 0 0 0 0 0 0 0 0 0 0 0 0 0 0 0.1 0"/>
<feBlend mode="normal" in2="BackgroundImageFix" result="effect1_dropShadow_1580_1942"/>
<feColorMatrix in="SourceAlpha" type="matrix" values="0 0 0 0 0 0 0 0 0 0 0 0 0 0 0 0 0 0 127 0" result="hardAlpha"/>
<feOffset/>
<feColorMatrix type="matrix" values="0 0 0 0 0 0 0 0 0 0 0 0 0 0 0 0 0 0 0.1 0"/>
<feBlend mode="normal" in2="effect1_dropShadow_1580_1942" result="effect2_dropShadow_1580_1942"/>
<feColorMatrix in="SourceAlpha" type="matrix" values="0 0 0 0 0 0 0 0 0 0 0 0 0 0 0 0 0 0 127 0" result="hardAlpha"/>
<feOffset/>
<feGaussianBlur stdDeviation="0.5"/>
<feColorMatrix type="matrix" values="0 0 0 0 0 0 0 0 0 0 0 0 0 0 0 0 0 0 0.09 0"/>
<feBlend mode="normal" in2="effect2_dropShadow_1580_1942" result="effect3_dropShadow_1580_1942"/>
<feColorMatrix in="SourceAlpha" type="matrix" values="0 0 0 0 0 0 0 0 0 0 0 0 0 0 0 0 0 0 127 0" result="hardAlpha"/>
<feOffset dy="1"/>
<feGaussianBlur stdDeviation="0.5"/>
<feColorMatrix type="matrix" values="0 0 0 0 0 0 0 0 0 0 0 0 0 0 0 0 0 0 0.05 0"/>
<feBlend mode="normal" in2="effect3_dropShadow_1580_1942" result="effect4_dropShadow_1580_1942"/>
<feColorMatrix in="SourceAlpha" type="matrix" values="0 0 0 0 0 0 0 0 0 0 0 0 0 0 0 0 0 0 127 0" result="hardAlpha"/>
<feOffset dy="1"/>
<feGaussianBlur stdDeviation="0.5"/>
<feColorMatrix type="matrix" values="0 0 0 0 0 0 0 0 0 0 0 0 0 0 0 0 0 0 0.01 0"/>
<feBlend mode="normal" in2="effect4_dropShadow_1580_1942" result="effect5_dropShadow_1580_1942"/>
<feBlend mode="normal" in="SourceGraphic" in2="effect5_dropShadow_1580_1942" result="shape"/>
<feColorMatrix in="SourceAlpha" type="matrix" values="0 0 0 0 0 0 0 0 0 0 0 0 0 0 0 0 0 0 127 0" result="hardAlpha"/>
<feOffset dx="0.2" dy="0.5"/>
<feGaussianBlur stdDeviation="0.25"/>
<feComposite in2="hardAlpha" operator="arithmetic" k2="-1" k3="1"/>
<feColorMatrix type="matrix" values="0 0 0 0 1 0 0 0 0 1 0 0 0 0 1 0 0 0 0.1 0"/>
<feBlend mode="normal" in2="shape" result="effect6_innerShadow_1580_1942"/>
</filter>
<filter id="filter8_dddddi_1580_1942" x="123.482" y="100.98" width="6.29517" height="7.29517" filterUnits="userSpaceOnUse" color-interpolation-filters="sRGB">
<feFlood flood-opacity="0" result="BackgroundImageFix"/>
<feColorMatrix in="SourceAlpha" type="matrix" values="0 0 0 0 0 0 0 0 0 0 0 0 0 0 0 0 0 0 127 0" result="hardAlpha"/>
<feOffset/>
<feColorMatrix type="matrix" values="0 0 0 0 0 0 0 0 0 0 0 0 0 0 0 0 0 0 0.1 0"/>
<feBlend mode="normal" in2="BackgroundImageFix" result="effect1_dropShadow_1580_1942"/>
<feColorMatrix in="SourceAlpha" type="matrix" values="0 0 0 0 0 0 0 0 0 0 0 0 0 0 0 0 0 0 127 0" result="hardAlpha"/>
<feOffset/>
<feColorMatrix type="matrix" values="0 0 0 0 0 0 0 0 0 0 0 0 0 0 0 0 0 0 0.1 0"/>
<feBlend mode="normal" in2="effect1_dropShadow_1580_1942" result="effect2_dropShadow_1580_1942"/>
<feColorMatrix in="SourceAlpha" type="matrix" values="0 0 0 0 0 0 0 0 0 0 0 0 0 0 0 0 0 0 127 0" result="hardAlpha"/>
<feOffset/>
<feGaussianBlur stdDeviation="0.5"/>
<feColorMatrix type="matrix" values="0 0 0 0 0 0 0 0 0 0 0 0 0 0 0 0 0 0 0.09 0"/>
<feBlend mode="normal" in2="effect2_dropShadow_1580_1942" result="effect3_dropShadow_1580_1942"/>
<feColorMatrix in="SourceAlpha" type="matrix" values="0 0 0 0 0 0 0 0 0 0 0 0 0 0 0 0 0 0 127 0" result="hardAlpha"/>
<feOffset dy="1"/>
<feGaussianBlur stdDeviation="0.5"/>
<feColorMatrix type="matrix" values="0 0 0 0 0 0 0 0 0 0 0 0 0 0 0 0 0 0 0.05 0"/>
<feBlend mode="normal" in2="effect3_dropShadow_1580_1942" result="effect4_dropShadow_1580_1942"/>
<feColorMatrix in="SourceAlpha" type="matrix" values="0 0 0 0 0 0 0 0 0 0 0 0 0 0 0 0 0 0 127 0" result="hardAlpha"/>
<feOffset dy="1"/>
<feGaussianBlur stdDeviation="0.5"/>
<feColorMatrix type="matrix" values="0 0 0 0 0 0 0 0 0 0 0 0 0 0 0 0 0 0 0.01 0"/>
<feBlend mode="normal" in2="effect4_dropShadow_1580_1942" result="effect5_dropShadow_1580_1942"/>
<feBlend mode="normal" in="SourceGraphic" in2="effect5_dropShadow_1580_1942" result="shape"/>
<feColorMatrix in="SourceAlpha" type="matrix" values="0 0 0 0 0 0 0 0 0 0 0 0 0 0 0 0 0 0 127 0" result="hardAlpha"/>
<feOffset dx="0.2" dy="0.5"/>
<feGaussianBlur stdDeviation="0.25"/>
<feComposite in2="hardAlpha" operator="arithmetic" k2="-1" k3="1"/>
<feColorMatrix type="matrix" values="0 0 0 0 1 0 0 0 0 1 0 0 0 0 1 0 0 0 0.1 0"/>
<feBlend mode="normal" in2="shape" result="effect6_innerShadow_1580_1942"/>
</filter>
<filter id="filter9_ddddd_1580_1942" x="112.975" y="65.3062" width="32.623" height="36.6392" filterUnits="userSpaceOnUse" color-interpolation-filters="sRGB">
<feFlood flood-opacity="0" result="BackgroundImageFix"/>
<feColorMatrix in="SourceAlpha" type="matrix" values="0 0 0 0 0 0 0 0 0 0 0 0 0 0 0 0 0 0 127 0" result="hardAlpha"/>
<feOffset/>
<feColorMatrix type="matrix" values="0 0 0 0 0 0 0 0 0 0 0 0 0 0 0 0 0 0 0.1 0"/>
<feBlend mode="normal" in2="BackgroundImageFix" result="effect1_dropShadow_1580_1942"/>
<feColorMatrix in="SourceAlpha" type="matrix" values="0 0 0 0 0 0 0 0 0 0 0 0 0 0 0 0 0 0 127 0" result="hardAlpha"/>
<feOffset/>
<feGaussianBlur stdDeviation="0.5"/>
<feColorMatrix type="matrix" values="0 0 0 0 0 0 0 0 0 0 0 0 0 0 0 0 0 0 0.1 0"/>
<feBlend mode="normal" in2="effect1_dropShadow_1580_1942" result="effect2_dropShadow_1580_1942"/>
<feColorMatrix in="SourceAlpha" type="matrix" values="0 0 0 0 0 0 0 0 0 0 0 0 0 0 0 0 0 0 127 0" result="hardAlpha"/>
<feOffset dy="1"/>
<feGaussianBlur stdDeviation="0.5"/>
<feColorMatrix type="matrix" values="0 0 0 0 0 0 0 0 0 0 0 0 0 0 0 0 0 0 0.09 0"/>
<feBlend mode="normal" in2="effect2_dropShadow_1580_1942" result="effect3_dropShadow_1580_1942"/>
<feColorMatrix in="SourceAlpha" type="matrix" values="0 0 0 0 0 0 0 0 0 0 0 0 0 0 0 0 0 0 127 0" result="hardAlpha"/>
<feOffset dy="3"/>
<feGaussianBlur stdDeviation="1"/>
<feColorMatrix type="matrix" values="0 0 0 0 0 0 0 0 0 0 0 0 0 0 0 0 0 0 0.05 0"/>
<feBlend mode="normal" in2="effect3_dropShadow_1580_1942" result="effect4_dropShadow_1580_1942"/>
<feColorMatrix in="SourceAlpha" type="matrix" values="0 0 0 0 0 0 0 0 0 0 0 0 0 0 0 0 0 0 127 0" result="hardAlpha"/>
<feOffset dx="1" dy="6"/>
<feGaussianBlur stdDeviation="1"/>
<feColorMatrix type="matrix" values="0 0 0 0 0 0 0 0 0 0 0 0 0 0 0 0 0 0 0.01 0"/>
<feBlend mode="normal" in2="effect4_dropShadow_1580_1942" result="effect5_dropShadow_1580_1942"/>
<feBlend mode="normal" in="SourceGraphic" in2="effect5_dropShadow_1580_1942" result="shape"/>
</filter>
<filter id="filter10_d_1580_1942" x="110.975" y="63.3062" width="32.0447" height="25.3928" filterUnits="userSpaceOnUse" color-interpolation-filters="sRGB">
<feFlood flood-opacity="0" result="BackgroundImageFix"/>
<feColorMatrix in="SourceAlpha" type="matrix" values="0 0 0 0 0 0 0 0 0 0 0 0 0 0 0 0 0 0 127 0" result="hardAlpha"/>
<feOffset dy="1"/>
<feGaussianBlur stdDeviation="2"/>
<feComposite in2="hardAlpha" operator="out"/>
<feColorMatrix type="matrix" values="0 0 0 0 0 0 0 0 0 0 0 0 0 0 0 0 0 0 0.25 0"/>
<feBlend mode="normal" in2="BackgroundImageFix" result="effect1_dropShadow_1580_1942"/>
<feBlend mode="normal" in="SourceGraphic" in2="effect1_dropShadow_1580_1942" result="shape"/>
</filter>
<filter id="filter11_ddddd_1580_1942" x="30.4526" y="62.0913" width="47.2207" height="56.6146" filterUnits="userSpaceOnUse" color-interpolation-filters="sRGB">
<feFlood flood-opacity="0" result="BackgroundImageFix"/>
<feColorMatrix in="SourceAlpha" type="matrix" values="0 0 0 0 0 0 0 0 0 0 0 0 0 0 0 0 0 0 127 0" result="hardAlpha"/>
<feOffset/>
<feColorMatrix type="matrix" values="0 0 0 0 0 0 0 0 0 0 0 0 0 0 0 0 0 0 0.1 0"/>
<feBlend mode="normal" in2="BackgroundImageFix" result="effect1_dropShadow_1580_1942"/>
<feColorMatrix in="SourceAlpha" type="matrix" values="0 0 0 0 0 0 0 0 0 0 0 0 0 0 0 0 0 0 127 0" result="hardAlpha"/>
<feOffset dy="1"/>
<feGaussianBlur stdDeviation="1"/>
<feColorMatrix type="matrix" values="0 0 0 0 0 0 0 0 0 0 0 0 0 0 0 0 0 0 0.1 0"/>
<feBlend mode="normal" in2="effect1_dropShadow_1580_1942" result="effect2_dropShadow_1580_1942"/>
<feColorMatrix in="SourceAlpha" type="matrix" values="0 0 0 0 0 0 0 0 0 0 0 0 0 0 0 0 0 0 127 0" result="hardAlpha"/>
<feOffset dy="4"/>
<feGaussianBlur stdDeviation="2"/>
<feColorMatrix type="matrix" values="0 0 0 0 0 0 0 0 0 0 0 0 0 0 0 0 0 0 0.09 0"/>
<feBlend mode="normal" in2="effect2_dropShadow_1580_1942" result="effect3_dropShadow_1580_1942"/>
<feColorMatrix in="SourceAlpha" type="matrix" values="0 0 0 0 0 0 0 0 0 0 0 0 0 0 0 0 0 0 127 0" result="hardAlpha"/>
<feOffset dx="1" dy="10"/>
<feGaussianBlur stdDeviation="3"/>
<feColorMatrix type="matrix" values="0 0 0 0 0 0 0 0 0 0 0 0 0 0 0 0 0 0 0.05 0"/>
<feBlend mode="normal" in2="effect3_dropShadow_1580_1942" result="effect4_dropShadow_1580_1942"/>
<feColorMatrix in="SourceAlpha" type="matrix" values="0 0 0 0 0 0 0 0 0 0 0 0 0 0 0 0 0 0 127 0" result="hardAlpha"/>
<feOffset dx="1" dy="17"/>
<feGaussianBlur stdDeviation="3.5"/>
<feColorMatrix type="matrix" values="0 0 0 0 0 0 0 0 0 0 0 0 0 0 0 0 0 0 0.01 0"/>
<feBlend mode="normal" in2="effect4_dropShadow_1580_1942" result="effect5_dropShadow_1580_1942"/>
<feBlend mode="normal" in="SourceGraphic" in2="effect5_dropShadow_1580_1942" result="shape"/>
</filter>
<filter id="filter12_ddddd_1580_1942" x="42.9282" y="72.1558" width="20.269" height="18.5262" filterUnits="userSpaceOnUse" color-interpolation-filters="sRGB">
<feFlood flood-opacity="0" result="BackgroundImageFix"/>
<feColorMatrix in="SourceAlpha" type="matrix" values="0 0 0 0 0 0 0 0 0 0 0 0 0 0 0 0 0 0 127 0" result="hardAlpha"/>
<feOffset/>
<feColorMatrix type="matrix" values="0 0 0 0 0 0 0 0 0 0 0 0 0 0 0 0 0 0 0.1 0"/>
<feBlend mode="normal" in2="BackgroundImageFix" result="effect1_dropShadow_1580_1942"/>
<feColorMatrix in="SourceAlpha" type="matrix" values="0 0 0 0 0 0 0 0 0 0 0 0 0 0 0 0 0 0 127 0" result="hardAlpha"/>
<feOffset/>
<feColorMatrix type="matrix" values="0 0 0 0 0 0 0 0 0 0 0 0 0 0 0 0 0 0 0.1 0"/>
<feBlend mode="normal" in2="effect1_dropShadow_1580_1942" result="effect2_dropShadow_1580_1942"/>
<feColorMatrix in="SourceAlpha" type="matrix" values="0 0 0 0 0 0 0 0 0 0 0 0 0 0 0 0 0 0 127 0" result="hardAlpha"/>
<feOffset dy="1"/>
<feGaussianBlur stdDeviation="0.5"/>
<feColorMatrix type="matrix" values="0 0 0 0 0 0 0 0 0 0 0 0 0 0 0 0 0 0 0.09 0"/>
<feBlend mode="normal" in2="effect2_dropShadow_1580_1942" result="effect3_dropShadow_1580_1942"/>
<feColorMatrix in="SourceAlpha" type="matrix" values="0 0 0 0 0 0 0 0 0 0 0 0 0 0 0 0 0 0 127 0" result="hardAlpha"/>
<feOffset dy="2"/>
<feGaussianBlur stdDeviation="0.5"/>
<feColorMatrix type="matrix" values="0 0 0 0 0 0 0 0 0 0 0 0 0 0 0 0 0 0 0.05 0"/>
<feBlend mode="normal" in2="effect3_dropShadow_1580_1942" result="effect4_dropShadow_1580_1942"/>
<feColorMatrix in="SourceAlpha" type="matrix" values="0 0 0 0 0 0 0 0 0 0 0 0 0 0 0 0 0 0 127 0" result="hardAlpha"/>
<feOffset dy="3"/>
<feGaussianBlur stdDeviation="0.5"/>
<feColorMatrix type="matrix" values="0 0 0 0 0 0 0 0 0 0 0 0 0 0 0 0 0 0 0.01 0"/>
<feBlend mode="normal" in2="effect4_dropShadow_1580_1942" result="effect5_dropShadow_1580_1942"/>
<feBlend mode="normal" in="SourceGraphic" in2="effect5_dropShadow_1580_1942" result="shape"/>
</filter>
<filter id="filter13_ddddd_1580_1942" x="69.999" y="99.3643" width="41.6616" height="51.3242" filterUnits="userSpaceOnUse" color-interpolation-filters="sRGB">
<feFlood flood-opacity="0" result="BackgroundImageFix"/>
<feColorMatrix in="SourceAlpha" type="matrix" values="0 0 0 0 0 0 0 0 0 0 0 0 0 0 0 0 0 0 127 0" result="hardAlpha"/>
<feOffset/>
<feColorMatrix type="matrix" values="0 0 0 0 0 0 0 0 0 0 0 0 0 0 0 0 0 0 0.1 0"/>
<feBlend mode="normal" in2="BackgroundImageFix" result="effect1_dropShadow_1580_1942"/>
<feColorMatrix in="SourceAlpha" type="matrix" values="0 0 0 0 0 0 0 0 0 0 0 0 0 0 0 0 0 0 127 0" result="hardAlpha"/>
<feOffset dy="1"/>
<feGaussianBlur stdDeviation="1"/>
<feColorMatrix type="matrix" values="0 0 0 0 0 0 0 0 0 0 0 0 0 0 0 0 0 0 0.1 0"/>
<feBlend mode="normal" in2="effect1_dropShadow_1580_1942" result="effect2_dropShadow_1580_1942"/>
<feColorMatrix in="SourceAlpha" type="matrix" values="0 0 0 0 0 0 0 0 0 0 0 0 0 0 0 0 0 0 127 0" result="hardAlpha"/>
<feOffset dy="4"/>
<feGaussianBlur stdDeviation="2"/>
<feColorMatrix type="matrix" values="0 0 0 0 0 0 0 0 0 0 0 0 0 0 0 0 0 0 0.09 0"/>
<feBlend mode="normal" in2="effect2_dropShadow_1580_1942" result="effect3_dropShadow_1580_1942"/>
<feColorMatrix in="SourceAlpha" type="matrix" values="0 0 0 0 0 0 0 0 0 0 0 0 0 0 0 0 0 0 127 0" result="hardAlpha"/>
<feOffset dx="1" dy="10"/>
<feGaussianBlur stdDeviation="3"/>
<feColorMatrix type="matrix" values="0 0 0 0 0 0 0 0 0 0 0 0 0 0 0 0 0 0 0.05 0"/>
<feBlend mode="normal" in2="effect3_dropShadow_1580_1942" result="effect4_dropShadow_1580_1942"/>
<feColorMatrix in="SourceAlpha" type="matrix" values="0 0 0 0 0 0 0 0 0 0 0 0 0 0 0 0 0 0 127 0" result="hardAlpha"/>
<feOffset dx="1" dy="17"/>
<feGaussianBlur stdDeviation="3.5"/>
<feColorMatrix type="matrix" values="0 0 0 0 0 0 0 0 0 0 0 0 0 0 0 0 0 0 0.01 0"/>
<feBlend mode="normal" in2="effect4_dropShadow_1580_1942" result="effect5_dropShadow_1580_1942"/>
<feBlend mode="normal" in="SourceGraphic" in2="effect5_dropShadow_1580_1942" result="shape"/>
</filter>
<filter id="filter14_d_1580_1942" x="78.6526" y="101.918" width="14.8467" height="14.3401" filterUnits="userSpaceOnUse" color-interpolation-filters="sRGB">
<feFlood flood-opacity="0" result="BackgroundImageFix"/>
<feColorMatrix in="SourceAlpha" type="matrix" values="0 0 0 0 0 0 0 0 0 0 0 0 0 0 0 0 0 0 127 0" result="hardAlpha"/>
<feOffset dy="1"/>
<feGaussianBlur stdDeviation="2"/>
<feComposite in2="hardAlpha" operator="out"/>
<feColorMatrix type="matrix" values="0 0 0 0 0 0 0 0 0 0 0 0 0 0 0 0 0 0 0.25 0"/>
<feBlend mode="normal" in2="BackgroundImageFix" result="effect1_dropShadow_1580_1942"/>
<feBlend mode="normal" in="SourceGraphic" in2="effect1_dropShadow_1580_1942" result="shape"/>
</filter>
<linearGradient id="paint0_linear_1580_1942" x1="98.9763" y1="-15.6546" x2="96.0842" y2="256.6" gradientUnits="userSpaceOnUse">
<stop offset="0.192708" stop-color="white"/>
<stop offset="0.728425" stop-color="#D0C1F7"/>
</linearGradient>
<linearGradient id="paint1_linear_1580_1942" x1="15.0613" y1="-4.05005" x2="146.061" y2="207.45" gradientUnits="userSpaceOnUse">
<stop stop-color="#9A89E6"/>
<stop offset="0.421875" stop-color="#6F61D3"/>
<stop offset="0.786458" stop-color="#403CAE"/>
</linearGradient>
<linearGradient id="paint2_linear_1580_1942" x1="175.811" y1="150.008" x2="98.5786" y2="12.5689" gradientUnits="userSpaceOnUse">
<stop stop-color="#DFD5FF"/>
<stop offset="1" stop-color="white"/>
</linearGradient>
<linearGradient id="paint3_linear_1580_1942" x1="120.446" y1="102.984" x2="120.978" y2="104.82" gradientUnits="userSpaceOnUse">
<stop stop-color="#D4C6FA"/>
<stop offset="0.97" stop-color="#C7B7F6"/>
</linearGradient>
<linearGradient id="paint4_linear_1580_1942" x1="124.624" y1="111.082" x2="124.624" y2="114.205" gradientUnits="userSpaceOnUse">
<stop stop-color="#B2A1EC"/>
<stop offset="1" stop-color="#9889E3"/>
</linearGradient>
<linearGradient id="paint5_linear_1580_1942" x1="121.565" y1="121.015" x2="121.619" y2="122.768" gradientUnits="userSpaceOnUse">
<stop stop-color="#433FA9"/>
<stop offset="1" stop-color="#3D3697"/>
</linearGradient>
<linearGradient id="paint6_linear_1580_1942" x1="128.873" y1="81.9141" x2="132.955" y2="88.1211" gradientUnits="userSpaceOnUse">
<stop stop-color="#7E70D3"/>
<stop offset="1" stop-color="#685AD3"/>
</linearGradient>
<linearGradient id="paint7_linear_1580_1942" x1="132.051" y1="81.29" x2="132.422" y2="87.8405" gradientUnits="userSpaceOnUse">
<stop stop-color="#433FA9"/>
<stop offset="1" stop-color="#3D3697"/>
</linearGradient>
<linearGradient id="paint8_linear_1580_1942" x1="124.29" y1="70.8182" x2="128.116" y2="77.6203" gradientUnits="userSpaceOnUse">
<stop stop-color="#D4C6FA"/>
<stop offset="0.97" stop-color="#C7B7F6"/>
</linearGradient>
<linearGradient id="paint9_linear_1580_1942" x1="125.457" y1="71.038" x2="125.457" y2="82.6849" gradientUnits="userSpaceOnUse">
<stop stop-color="#B2A1EC"/>
<stop offset="1" stop-color="#9889E3"/>
</linearGradient>
<linearGradient id="paint10_linear_1580_1942" x1="45.04" y1="83.8088" x2="49.0301" y2="87.4614" gradientUnits="userSpaceOnUse">
<stop stop-color="#D4C6FA"/>
<stop offset="0.97" stop-color="#C7B7F6"/>
</linearGradient>
<linearGradient id="paint11_linear_1580_1942" x1="49.6383" y1="81.1834" x2="52.9586" y2="89.1571" gradientUnits="userSpaceOnUse">
<stop stop-color="#B2A1EC"/>
<stop offset="1" stop-color="#9889E3"/>
</linearGradient>
<linearGradient id="paint12_linear_1580_1942" x1="54.1498" y1="80.2215" x2="59.0566" y2="81.7519" gradientUnits="userSpaceOnUse">
<stop stop-color="#7E70D3"/>
<stop offset="1" stop-color="#685AD3"/>
</linearGradient>
<linearGradient id="paint13_linear_1580_1942" x1="60.018" y1="78.1208" x2="67.2201" y2="88.3653" gradientUnits="userSpaceOnUse">
<stop stop-color="#433FA9"/>
<stop offset="1" stop-color="#3D3697"/>
</linearGradient>
<linearGradient id="paint14_linear_1580_1942" x1="48.8718" y1="111.035" x2="48.8718" y2="122.671" gradientUnits="userSpaceOnUse">
<stop stop-color="#CBB3FF"/>
<stop offset="1" stop-color="#E6DDFB"/>
</linearGradient>
<linearGradient id="paint15_linear_1580_1942" x1="62.747" y1="102.287" x2="53.833" y2="123.557" gradientUnits="userSpaceOnUse">
<stop stop-color="#C8B0FE"/>
<stop offset="1" stop-color="#9E71FE"/>
</linearGradient>
<linearGradient id="paint16_linear_1580_1942" x1="88.4886" y1="110.98" x2="92.2165" y2="115.434" gradientUnits="userSpaceOnUse">
<stop stop-color="#7E70D3"/>
<stop offset="1" stop-color="#685AD3"/>
</linearGradient>
<linearGradient id="paint17_linear_1580_1942" x1="85.2679" y1="106.519" x2="86.606" y2="108.599" gradientUnits="userSpaceOnUse">
<stop stop-color="#D4C6FA"/>
<stop offset="0.97" stop-color="#C7B7F6"/>
</linearGradient>
<linearGradient id="paint18_linear_1580_1942" x1="83.9192" y1="109.447" x2="83.9192" y2="115.216" gradientUnits="userSpaceOnUse">
<stop stop-color="#B2A1EC"/>
<stop offset="1" stop-color="#9889E3"/>
</linearGradient>
<clipPath id="clip0_1580_1942">
<rect width="180" height="190" fill="white"/>
</clipPath>
</defs>
</svg>
