<svg width="720" height="405" xmlns="http://www.w3.org/2000/svg" xmlns:xlink="http://www.w3.org/1999/xlink" xml:space="preserve" overflow="hidden"><g><path d="M0 0 720 0 720 405 0 405Z" fill="#FFFFFF"/><path d="M422.55 106.65 422.55 322.663 435.06 322.663" stroke="#3D67B1" stroke-width="0.75" stroke-miterlimit="8" fill="none" fill-rule="evenodd"/><path d="M422.55 106.65 422.55 263.446 435.06 263.446" stroke="#3D67B1" stroke-width="0.75" stroke-miterlimit="8" fill="none" fill-rule="evenodd"/><path d="M422.55 106.65 422.55 204.231 435.06 204.231" stroke="#3D67B1" stroke-width="0.75" stroke-miterlimit="8" fill="none" fill-rule="evenodd"/><path d="M422.55 106.65 422.55 145.015 435.06 145.015" stroke="#3D67B1" stroke-width="0.75" stroke-miterlimit="8" fill="none" fill-rule="evenodd"/><path d="M355.05 47.25 355.05 56.0072 455.967 56.0072 455.967 64.7645" stroke="#34599C" stroke-width="0.75" stroke-miterlimit="8" fill="none" fill-rule="evenodd"/><path d="M321.75 106.65 321.75 263.446 334.26 263.446" stroke="#3D67B1" stroke-width="0.75" stroke-miterlimit="8" fill="none" fill-rule="evenodd"/><path d="M321.75 106.65 321.75 204.231 334.26 204.231" stroke="#3D67B1" stroke-width="0.75" stroke-miterlimit="8" fill="none" fill-rule="evenodd"/><path d="M321.75 106.65 321.75 145.015 334.26 145.015" stroke="#3D67B1" stroke-width="0.75" stroke-miterlimit="8" fill="none" fill-rule="evenodd"/><path d="M355.05 47.25 355.05 64.7645" stroke="#34599C" stroke-width="0.75" stroke-miterlimit="8" fill="none" fill-rule="evenodd"/><path d="M220.95 106.65 220.95 381.984 233.46 381.984" stroke="#3D67B1" stroke-width="0.75" stroke-miterlimit="8" fill="none" fill-rule="evenodd"/><path d="M220.95 106.65 220.95 322.663 233.46 322.663" stroke="#3D67B1" stroke-width="0.75" stroke-miterlimit="8" fill="none" fill-rule="evenodd"/><path d="M220.95 106.65 220.95 263.446 233.46 263.446" stroke="#3D67B1" stroke-width="0.75" stroke-miterlimit="8" fill="none" fill-rule="evenodd"/><path d="M220.95 106.65 220.95 204.231 233.46 204.231" stroke="#3D67B1" stroke-width="0.75" stroke-miterlimit="8" fill="none" fill-rule="evenodd"/><path d="M220.95 106.65 220.95 145.015 233.46 145.015" stroke="#3D67B1" stroke-width="0.75" stroke-miterlimit="8" fill="none" fill-rule="evenodd"/><path d="M355.167 47.25 355.167 56.0072 254.25 56.0072 254.25 64.7645" stroke="#34599C" stroke-width="0.75" stroke-miterlimit="8" fill="none" fill-rule="evenodd"/><path d="M290.25 5.85 419.85 5.85 419.85 47.25 290.25 47.25Z" stroke="#FFFFFF" stroke-width="0.75" stroke-miterlimit="8" fill="#385723"/><text fill="#FFFFFF" font-family="Calibri,Calibri_MSFontService,sans-serif" font-weight="400" font-size="11" transform="matrix(0.9 0 0 0.9 295.702 29)">Contoso Retail HQ Operations</text><path d="M212.85 65.25 295.65 65.25 295.65 106.65 212.85 106.65Z" stroke="#FFFFFF" stroke-width="0.75" stroke-miterlimit="8" fill="#7F6000"/><text fill="#FFFFFF" font-family="Calibri,Calibri_MSFontService,sans-serif" font-weight="400" font-size="11" transform="matrix(0.9 0 0 0.9 234.595 88)">Redmond</text><path d="M233.55 123.75 316.35 123.75 316.35 166.05 233.55 166.05Z" stroke="#FFFFFF" stroke-width="0.75" stroke-miterlimit="8" fill="#C55A11"/><text fill="#FFFFFF" font-family="Calibri,Calibri_MSFontService,sans-serif" font-weight="400" font-size="11" transform="matrix(0.9 0 0 0.9 253.179 142)">Store</text><text fill="#FFFFFF" font-family="Calibri,Calibri_MSFontService,sans-serif" font-weight="400" font-size="11" transform="matrix(0.9 0 0 0.9 276.302 142)">#</text><text fill="#FFFFFF" font-family="Calibri,Calibri_MSFontService,sans-serif" font-weight="400" font-size="11" transform="matrix(0.9 0 0 0.9 280.802 142)">101</text><text fill="#FFFFFF" font-family="Calibri,Calibri_MSFontService,sans-serif" font-weight="400" font-size="11" transform="matrix(0.9 0 0 0.9 255.305 153)">(</text><text fill="#FFFFFF" font-family="Calibri,Calibri_MSFontService,sans-serif" font-weight="400" font-size="11" transform="matrix(0.9 0 0 0.9 258.005 153)">Contoso</text><text fill="#FFFFFF" font-family="Calibri,Calibri_MSFontService,sans-serif" font-weight="400" font-size="11" transform="matrix(0.9 0 0 0.9 293.105 153)">)</text><path d="M233.55 183.15 316.35 183.15 316.35 224.55 233.55 224.55Z" stroke="#FFFFFF" stroke-width="0.75" stroke-miterlimit="8" fill="#C55A11"/><text fill="#FFFFFF" font-family="Calibri,Calibri_MSFontService,sans-serif" font-weight="400" font-size="11" transform="matrix(0.9 0 0 0.9 253.179 201)">Store </text><text fill="#FFFFFF" font-family="Calibri,Calibri_MSFontService,sans-serif" font-weight="400" font-size="11" transform="matrix(0.9 0 0 0.9 277.479 201)">#</text><text fill="#FFFFFF" font-family="Calibri,Calibri_MSFontService,sans-serif" font-weight="400" font-size="11" transform="matrix(0.9 0 0 0.9 281.979 201)">103</text><text fill="#FFFFFF" font-family="Calibri,Calibri_MSFontService,sans-serif" font-weight="400" font-size="11" transform="matrix(0.9 0 0 0.9 255.305 212)">(</text><text fill="#FFFFFF" font-family="Calibri,Calibri_MSFontService,sans-serif" font-weight="400" font-size="11" transform="matrix(0.9 0 0 0.9 258.005 212)">Contoso</text><text fill="#FFFFFF" font-family="Calibri,Calibri_MSFontService,sans-serif" font-weight="400" font-size="11" transform="matrix(0.9 0 0 0.9 293.105 212)">)</text><path d="M233.55 242.55 316.35 242.55 316.35 283.95 233.55 283.95Z" stroke="#FFFFFF" stroke-width="0.75" stroke-miterlimit="8" fill="#C55A11"/><text fill="#FFFFFF" font-family="Calibri,Calibri_MSFontService,sans-serif" font-weight="400" font-size="11" transform="matrix(0.9 0 0 0.9 253.179 260)">Store </text><text fill="#FFFFFF" font-family="Calibri,Calibri_MSFontService,sans-serif" font-weight="400" font-size="11" transform="matrix(0.9 0 0 0.9 277.479 260)">#</text><text fill="#FFFFFF" font-family="Calibri,Calibri_MSFontService,sans-serif" font-weight="400" font-size="11" transform="matrix(0.9 0 0 0.9 281.979 260)">104</text><text fill="#FFFFFF" font-family="Calibri,Calibri_MSFontService,sans-serif" font-weight="400" font-size="11" transform="matrix(0.9 0 0 0.9 255.305 271)">(</text><text fill="#FFFFFF" font-family="Calibri,Calibri_MSFontService,sans-serif" font-weight="400" font-size="11" transform="matrix(0.9 0 0 0.9 258.005 271)">Contoso</text><text fill="#FFFFFF" font-family="Calibri,Calibri_MSFontService,sans-serif" font-weight="400" font-size="11" transform="matrix(0.9 0 0 0.9 293.105 271)">)</text><path d="M233.55 301.95 316.35 301.95 316.35 343.35 233.55 343.35Z" stroke="#FFFFFF" stroke-width="0.75" stroke-miterlimit="8" fill="#4472C4"/><text fill="#FFFFFF" font-family="Calibri,Calibri_MSFontService,sans-serif" font-weight="400" font-size="11" transform="matrix(0.9 0 0 0.9 253.179 320)">Store </text><text fill="#FFFFFF" font-family="Calibri,Calibri_MSFontService,sans-serif" font-weight="400" font-size="11" transform="matrix(0.9 0 0 0.9 277.479 320)">#</text><text fill="#FFFFFF" font-family="Calibri,Calibri_MSFontService,sans-serif" font-weight="400" font-size="11" transform="matrix(0.9 0 0 0.9 281.979 320)">403</text><text fill="#FFFFFF" font-family="Calibri,Calibri_MSFontService,sans-serif" font-weight="400" font-size="11" transform="matrix(0.9 0 0 0.9 253.442 330)">(</text><text fill="#FFFFFF" font-family="Calibri,Calibri_MSFontService,sans-serif" font-weight="400" font-size="11" transform="matrix(0.9 0 0 0.9 256.142 330)">Fabrikam</text><text fill="#FFFFFF" font-family="Calibri,Calibri_MSFontService,sans-serif" font-weight="400" font-size="11" transform="matrix(0.9 0 0 0.9 295.742 330)">)</text><path d="M233.55 361.35 316.35 361.35 316.35 402.75 233.55 402.75Z" stroke="#FFFFFF" stroke-width="0.75" stroke-miterlimit="8" fill="#4472C4"/><text fill="#FFFFFF" font-family="Calibri,Calibri_MSFontService,sans-serif" font-weight="400" font-size="11" transform="matrix(0.9 0 0 0.9 253.179 379)">Store </text><text fill="#FFFFFF" font-family="Calibri,Calibri_MSFontService,sans-serif" font-weight="400" font-size="11" transform="matrix(0.9 0 0 0.9 277.479 379)">#</text><text fill="#FFFFFF" font-family="Calibri,Calibri_MSFontService,sans-serif" font-weight="400" font-size="11" transform="matrix(0.9 0 0 0.9 281.979 379)">404</text><text fill="#FFFFFF" font-family="Calibri,Calibri_MSFontService,sans-serif" font-weight="400" font-size="11" transform="matrix(0.9 0 0 0.9 253.442 390)">(</text><text fill="#FFFFFF" font-family="Calibri,Calibri_MSFontService,sans-serif" font-weight="400" font-size="11" transform="matrix(0.9 0 0 0.9 256.142 390)">Fabrikam</text><text fill="#FFFFFF" font-family="Calibri,Calibri_MSFontService,sans-serif" font-weight="400" font-size="11" transform="matrix(0.9 0 0 0.9 295.742 390)">)</text><path d="M313.65 65.25 396.45 65.25 396.45 106.65 313.65 106.65Z" stroke="#FFFFFF" stroke-width="0.75" stroke-miterlimit="8" fill="#7F6000"/><text fill="#FFFFFF" font-family="Calibri,Calibri_MSFontService,sans-serif" font-weight="400" font-size="11" transform="matrix(0.9 0 0 0.9 336.015 88)">New York</text><path d="M334.35 123.75 418.05 123.75 418.05 166.05 334.35 166.05Z" stroke="#FFFFFF" stroke-width="0.75" stroke-miterlimit="8" fill="#C55A11"/><text fill="#FFFFFF" font-family="Calibri,Calibri_MSFontService,sans-serif" font-weight="400" font-size="11" transform="matrix(0.9 0 0 0.9 354.096 142)">Store</text><text fill="#FFFFFF" font-family="Calibri,Calibri_MSFontService,sans-serif" font-weight="400" font-size="11" transform="matrix(0.9 0 0 0.9 377.219 142)">#</text><text fill="#FFFFFF" font-family="Calibri,Calibri_MSFontService,sans-serif" font-weight="400" font-size="11" transform="matrix(0.9 0 0 0.9 381.719 142)">105</text><text fill="#FFFFFF" font-family="Calibri,Calibri_MSFontService,sans-serif" font-weight="400" font-size="11" transform="matrix(0.9 0 0 0.9 356.222 153)">(</text><text fill="#FFFFFF" font-family="Calibri,Calibri_MSFontService,sans-serif" font-weight="400" font-size="11" transform="matrix(0.9 0 0 0.9 358.922 153)">Contoso</text><text fill="#FFFFFF" font-family="Calibri,Calibri_MSFontService,sans-serif" font-weight="400" font-size="11" transform="matrix(0.9 0 0 0.9 394.022 153)">)</text><path d="M334.35 183.15 418.05 183.15 418.05 224.55 334.35 224.55Z" stroke="#FFFFFF" stroke-width="0.75" stroke-miterlimit="8" fill="#4472C4"/><text fill="#FFFFFF" font-family="Calibri,Calibri_MSFontService,sans-serif" font-weight="400" font-size="11" transform="matrix(0.9 0 0 0.9 354.096 201)">Store </text><text fill="#FFFFFF" font-family="Calibri,Calibri_MSFontService,sans-serif" font-weight="400" font-size="11" transform="matrix(0.9 0 0 0.9 378.396 201)">#</text><text fill="#FFFFFF" font-family="Calibri,Calibri_MSFontService,sans-serif" font-weight="400" font-size="11" transform="matrix(0.9 0 0 0.9 382.896 201)">405</text><text fill="#FFFFFF" font-family="Calibri,Calibri_MSFontService,sans-serif" font-weight="400" font-size="11" transform="matrix(0.9 0 0 0.9 354.359 212)">(</text><text fill="#FFFFFF" font-family="Calibri,Calibri_MSFontService,sans-serif" font-weight="400" font-size="11" transform="matrix(0.9 0 0 0.9 357.059 212)">Fabrikam</text><text fill="#FFFFFF" font-family="Calibri,Calibri_MSFontService,sans-serif" font-weight="400" font-size="11" transform="matrix(0.9 0 0 0.9 396.659 212)">)</text><path d="M334.35 242.55 418.05 242.55 418.05 283.95 334.35 283.95Z" stroke="#FFFFFF" stroke-width="0.75" stroke-miterlimit="8" fill="#4472C4"/><text fill="#FFFFFF" font-family="Calibri,Calibri_MSFontService,sans-serif" font-weight="400" font-size="11" transform="matrix(0.9 0 0 0.9 354.096 260)">Store </text><text fill="#FFFFFF" font-family="Calibri,Calibri_MSFontService,sans-serif" font-weight="400" font-size="11" transform="matrix(0.9 0 0 0.9 378.396 260)">#</text><text fill="#FFFFFF" font-family="Calibri,Calibri_MSFontService,sans-serif" font-weight="400" font-size="11" transform="matrix(0.9 0 0 0.9 382.896 260)">406</text><text fill="#FFFFFF" font-family="Calibri,Calibri_MSFontService,sans-serif" font-weight="400" font-size="11" transform="matrix(0.9 0 0 0.9 354.359 271)">(</text><text fill="#FFFFFF" font-family="Calibri,Calibri_MSFontService,sans-serif" font-weight="400" font-size="11" transform="matrix(0.9 0 0 0.9 357.059 271)">Fabrikam</text><text fill="#FFFFFF" font-family="Calibri,Calibri_MSFontService,sans-serif" font-weight="400" font-size="11" transform="matrix(0.9 0 0 0.9 396.659 271)">)</text><path d="M414.45 65.25 498.15 65.25 498.15 106.65 414.45 106.65Z" stroke="#FFFFFF" stroke-width="0.75" stroke-miterlimit="8" fill="#7F6000"/><text fill="#FFFFFF" font-family="Calibri,Calibri_MSFontService,sans-serif" font-weight="400" font-size="11" transform="matrix(0.9 0 0 0.9 428.914 88)">San Francisco</text><path d="M435.15 123.75 518.85 123.75 518.85 166.05 435.15 166.05Z" stroke="#FFFFFF" stroke-width="0.75" stroke-miterlimit="8" fill="#C55A11"/><text fill="#FFFFFF" font-family="Calibri,Calibri_MSFontService,sans-serif" font-weight="400" font-size="11" transform="matrix(0.9 0 0 0.9 455.013 142)">Store</text><text fill="#FFFFFF" font-family="Calibri,Calibri_MSFontService,sans-serif" font-weight="400" font-size="11" transform="matrix(0.9 0 0 0.9 478.136 142)">#</text><text fill="#FFFFFF" font-family="Calibri,Calibri_MSFontService,sans-serif" font-weight="400" font-size="11" transform="matrix(0.9 0 0 0.9 482.636 142)">102</text><text fill="#FFFFFF" font-family="Calibri,Calibri_MSFontService,sans-serif" font-weight="400" font-size="11" transform="matrix(0.9 0 0 0.9 457.139 153)">(</text><text fill="#FFFFFF" font-family="Calibri,Calibri_MSFontService,sans-serif" font-weight="400" font-size="11" transform="matrix(0.9 0 0 0.9 459.839 153)">Contoso</text><text fill="#FFFFFF" font-family="Calibri,Calibri_MSFontService,sans-serif" font-weight="400" font-size="11" transform="matrix(0.9 0 0 0.9 494.939 153)">)</text><path d="M435.15 183.15 518.85 183.15 518.85 224.55 435.15 224.55Z" stroke="#FFFFFF" stroke-width="0.75" stroke-miterlimit="8" fill="#C55A11"/><text fill="#FFFFFF" font-family="Calibri,Calibri_MSFontService,sans-serif" font-weight="400" font-size="11" transform="matrix(0.9 0 0 0.9 455.013 201)">Store</text><text fill="#FFFFFF" font-family="Calibri,Calibri_MSFontService,sans-serif" font-weight="400" font-size="11" transform="matrix(0.9 0 0 0.9 478.136 201)">#</text><text fill="#FFFFFF" font-family="Calibri,Calibri_MSFontService,sans-serif" font-weight="400" font-size="11" transform="matrix(0.9 0 0 0.9 482.636 201)">106</text><text fill="#FFFFFF" font-family="Calibri,Calibri_MSFontService,sans-serif" font-weight="400" font-size="11" transform="matrix(0.9 0 0 0.9 457.139 212)">(</text><text fill="#FFFFFF" font-family="Calibri,Calibri_MSFontService,sans-serif" font-weight="400" font-size="11" transform="matrix(0.9 0 0 0.9 459.839 212)">Contoso</text><text fill="#FFFFFF" font-family="Calibri,Calibri_MSFontService,sans-serif" font-weight="400" font-size="11" transform="matrix(0.9 0 0 0.9 494.939 212)">)</text><path d="M435.15 242.55 518.85 242.55 518.85 283.95 435.15 283.95Z" stroke="#FFFFFF" stroke-width="0.75" stroke-miterlimit="8" fill="#4472C4"/><text fill="#FFFFFF" font-family="Calibri,Calibri_MSFontService,sans-serif" font-weight="400" font-size="11" transform="matrix(0.9 0 0 0.9 455.013 260)">Store </text><text fill="#FFFFFF" font-family="Calibri,Calibri_MSFontService,sans-serif" font-weight="400" font-size="11" transform="matrix(0.9 0 0 0.9 479.313 260)">#</text><text fill="#FFFFFF" font-family="Calibri,Calibri_MSFontService,sans-serif" font-weight="400" font-size="11" transform="matrix(0.9 0 0 0.9 483.813 260)">401</text><text fill="#FFFFFF" font-family="Calibri,Calibri_MSFontService,sans-serif" font-weight="400" font-size="11" transform="matrix(0.9 0 0 0.9 455.276 271)">(</text><text fill="#FFFFFF" font-family="Calibri,Calibri_MSFontService,sans-serif" font-weight="400" font-size="11" transform="matrix(0.9 0 0 0.9 457.976 271)">Fabrikam</text><text fill="#FFFFFF" font-family="Calibri,Calibri_MSFontService,sans-serif" font-weight="400" font-size="11" transform="matrix(0.9 0 0 0.9 497.576 271)">)</text><path d="M435.15 301.95 518.85 301.95 518.85 343.35 435.15 343.35Z" stroke="#FFFFFF" stroke-width="0.75" stroke-miterlimit="8" fill="#4472C4"/><text fill="#FFFFFF" font-family="Calibri,Calibri_MSFontService,sans-serif" font-weight="400" font-size="11" transform="matrix(0.9 0 0 0.9 455.013 320)">Store </text><text fill="#FFFFFF" font-family="Calibri,Calibri_MSFontService,sans-serif" font-weight="400" font-size="11" transform="matrix(0.9 0 0 0.9 479.313 320)">#</text><text fill="#FFFFFF" font-family="Calibri,Calibri_MSFontService,sans-serif" font-weight="400" font-size="11" transform="matrix(0.9 0 0 0.9 483.813 320)">402</text><text fill="#FFFFFF" font-family="Calibri,Calibri_MSFontService,sans-serif" font-weight="400" font-size="11" transform="matrix(0.9 0 0 0.9 455.276 330)">(</text><text fill="#FFFFFF" font-family="Calibri,Calibri_MSFontService,sans-serif" font-weight="400" font-size="11" transform="matrix(0.9 0 0 0.9 457.976 330)">Fabrikam</text><text fill="#FFFFFF" font-family="Calibri,Calibri_MSFontService,sans-serif" font-weight="400" font-size="11" transform="matrix(0.9 0 0 0.9 497.576 330)">)</text><path d="M23.85 13.05 35.55 13.05 35.55 22.95 23.85 22.95Z" stroke="#2F528F" stroke-width="0.75" stroke-miterlimit="8" fill="#385723"/><path d="M23.85 25.65 35.55 25.65 35.55 35.55 23.85 35.55Z" stroke="#2F528F" stroke-width="0.75" stroke-miterlimit="8" fill="#7F6000"/><text font-family="Calibri,Calibri_MSFontService,sans-serif" font-weight="400" font-size="9" transform="matrix(0.9 0 0 0.9 40.1919 21)">HQ</text><text font-family="Calibri,Calibri_MSFontService,sans-serif" font-weight="400" font-size="9" transform="matrix(0.9 0 0 0.9 40.4939 34)">Region</text><path d="M23.85 38.25 35.55 38.25 35.55 49.05 23.85 49.05Z" stroke="#2F528F" stroke-width="0.75" stroke-miterlimit="8" fill="#4472C4"/><text font-family="Calibri,Calibri_MSFontService,sans-serif" font-weight="400" font-size="9" transform="matrix(0.9 0 0 0.9 40.4333 47)">Fabrikam Store</text><path d="M23.85 50.85 35.55 50.85 35.55 61.65 23.85 61.65Z" stroke="#2F528F" stroke-width="0.75" stroke-miterlimit="8" fill="#C55A11"/><text font-family="Calibri,Calibri_MSFontService,sans-serif" font-weight="400" font-size="9" transform="matrix(0.9 0 0 0.9 40.4333 59)">Contoso Store</text></g></svg>